<svg xmlns="http://www.w3.org/2000/svg" width="190" height="190" viewBox="0 0 190 190">
  <g id="Grupo_1112861" data-name="Grupo 1112861" transform="translate(-810.051 -1127)">
    <circle id="Elipse_14842" data-name="Elipse 14842" cx="95" cy="95" r="95" transform="translate(810.051 1127)" fill="#fbeeab"/>
    <circle id="Elipse_14843" data-name="Elipse 14843" cx="66" cy="66" r="66" transform="translate(839.051 1156)" fill="#f6d530"/>
    <g id="filled_outline" data-name="filled outline" transform="translate(859.886 1176.835)">
      <path id="Trazado_903734" data-name="Trazado 903734" d="M11,48H82.942V66.7H19.633Z" transform="translate(3.95 20.186)" fill="#edac7e"/>
      <path id="Trazado_903735" data-name="Trazado 903735" d="M24.583,36.093l-19.2-19.2A8.139,8.139,0,0,1,3,11.139H3A8.139,8.139,0,0,1,11.139,3h0a8.139,8.139,0,0,1,5.755,2.384l19.2,19.2Z" transform="translate(0.439 0.439)" fill="#fec9a3"/>
      <rect id="Rectángulo_405185" data-name="Rectángulo 405185" width="12.209" height="8.139" transform="translate(60.992 23.583) rotate(-45)" fill="#c7cacc"/>
      <rect id="Rectángulo_405186" data-name="Rectángulo 405186" width="8.139" height="12.209" transform="translate(14.95 20.704) rotate(-45)" fill="#c7cacc"/>
      <rect id="Rectángulo_405187" data-name="Rectángulo 405187" width="14" height="6" transform="translate(38.165 3.165)" fill="#d6d9db"/>
      <rect id="Rectángulo_405188" data-name="Rectángulo 405188" width="6" height="9" transform="translate(42.165 9.165)" fill="#c7cacc"/>
      <circle id="Elipse_14885" data-name="Elipse 14885" cx="33" cy="33" r="33" transform="translate(12.165 15.165)" fill="#d6d9db"/>
      <circle id="Elipse_14886" data-name="Elipse 14886" cx="26" cy="26" r="26" transform="translate(19.165 22.165)" fill="#529ed1"/>
      <circle id="Elipse_14887" data-name="Elipse 14887" cx="23" cy="23" r="23" transform="translate(22.165 25.165)" fill="#5ea9db"/>
      <path id="Trazado_903736" data-name="Trazado 903736" d="M38.4,36.838,49.91,25.328l-2.035-2.035L36.365,34.8l.035.035a4.26,4.26,0,0,0-1.895-.456A4.317,4.317,0,0,0,30.188,38.7a4.26,4.26,0,0,0,.456,1.895l-.035-.035-4.317,4.317,2.035,2.035,4.317-4.317-.035-.035a4.26,4.26,0,0,0,1.895.456A4.317,4.317,0,0,0,38.821,38.7a4.26,4.26,0,0,0-.456-1.895Z" transform="translate(10.661 9.344)" fill="#e8594a"/>
      <rect id="Rectángulo_405189" data-name="Rectángulo 405189" width="26" height="14" rx="5" transform="translate(3.165 44.165)" fill="#fec9a3"/>
      <rect id="Rectángulo_405190" data-name="Rectángulo 405190" width="26" height="14" rx="5" transform="translate(3.165 58.165)" fill="#fec9a3"/>
      <rect id="Rectángulo_405191" data-name="Rectángulo 405191" width="26" height="15" rx="5" transform="translate(3.165 72.165)" fill="#fec9a3"/>
      <rect id="Rectángulo_405192" data-name="Rectángulo 405192" width="2" height="6" transform="translate(44.165 26.165)" fill="#327fb3"/>
      <rect id="Rectángulo_405193" data-name="Rectángulo 405193" width="2" height="5" transform="translate(44.165 64.165)" fill="#327fb3"/>
      <rect id="Rectángulo_405194" data-name="Rectángulo 405194" width="2.878" height="5.755" transform="matrix(0.866, -0.5, 0.5, 0.866, 33.128, 30.072)" fill="#327fb3"/>
      <rect id="Rectángulo_405195" data-name="Rectángulo 405195" width="2.878" height="5.755" transform="matrix(0.866, -0.5, 0.5, 0.866, 51.832, 62.468)" fill="#327fb3"/>
      <rect id="Rectángulo_405196" data-name="Rectángulo 405196" width="2.878" height="5.755" transform="matrix(0.5, -0.866, 0.866, 0.5, 25.755, 38.497)" fill="#327fb3"/>
      <rect id="Rectángulo_405197" data-name="Rectángulo 405197" width="2.878" height="5.755" transform="matrix(0.5, -0.866, 0.866, 0.5, 58.153, 57.203)" fill="#327fb3"/>
      <rect id="Rectángulo_405198" data-name="Rectángulo 405198" width="6" height="3" transform="translate(61.165 46.165)" fill="#327fb3"/>
      <rect id="Rectángulo_405199" data-name="Rectángulo 405199" width="5.755" height="2.878" transform="translate(25.755 57.587) rotate(-29.995)" fill="#327fb3"/>
      <rect id="Rectángulo_405200" data-name="Rectángulo 405200" width="5.755" height="2.878" transform="translate(58.152 38.883) rotate(-29.995)" fill="#327fb3"/>
      <rect id="Rectángulo_405201" data-name="Rectángulo 405201" width="5.755" height="2.878" transform="translate(33.127 66.015) rotate(-60.005)" fill="#327fb3"/>
      <rect id="Rectángulo_405202" data-name="Rectángulo 405202" width="5.755" height="2.878" transform="translate(51.833 33.617) rotate(-60.005)" fill="#327fb3"/>
      <path id="Trazado_903737" data-name="Trazado 903737" d="M55.7,25.827,54.266,48.849h0A43.165,43.165,0,0,0,37,83.381H71.532V10h0A15.827,15.827,0,0,0,55.7,25.827Z" transform="translate(15.359 3.511)" fill="#fec9a3"/>
      <path id="Trazado_903738" data-name="Trazado 903738" d="M86.891,12.072a17.2,17.2,0,0,0-12.6,5.5l-3.645-3.645a1.439,1.439,0,0,0-2.035,0L63.641,18.9a34.52,34.52,0,0,0-14.16-5.088V10.633h2.878A1.439,1.439,0,0,0,53.8,9.194V3.439A1.439,1.439,0,0,0,52.359,2H37.971a1.439,1.439,0,0,0-1.439,1.439V9.194a1.439,1.439,0,0,0,1.439,1.439h2.878v3.188a33.9,33.9,0,0,0-10.436,3.046L18.355,4.81A9.578,9.578,0,1,0,4.81,18.355L16.019,29.562a34.325,34.325,0,0,0-4.886,12.725h-.5A8.633,8.633,0,0,0,5.87,58.115a8.621,8.621,0,0,0,0,14.388A8.633,8.633,0,0,0,10.633,88.33H22.144a8.778,8.778,0,0,0,1.016-.065,1.427,1.427,0,0,0,.423.065H86.891a1.439,1.439,0,0,0,1.439-1.439V13.511A1.439,1.439,0,0,0,86.891,12.072ZM62.827,56.579l-3.23-1.87L58.158,57.2l2.75,1.583a45.091,45.091,0,0,0-4.25,6.275l-2.331-4.029-2.492,1.439,2.878,4.984.99-.576c-.649,1.295-1.227,2.614-1.748,3.961A24.05,24.05,0,0,1,45.165,72.5a24.5,24.5,0,0,1-14.7-4.938A8.538,8.538,0,0,0,28.4,59.381L32.178,57.2,30.739,54.71l-1.249.719a8.614,8.614,0,0,0-7.347-13.142h-.719a24.443,24.443,0,0,1,45.436-5.56c.017.04.035.079.055.119a24.278,24.278,0,0,1,1.928,5.079l-.606,9.686a44.163,44.163,0,0,0-5.41,4.967ZM30.762,79.409A33.975,33.975,0,0,0,42.879,82.5c.761.045,1.525.075,2.286.075a34.1,34.1,0,0,0,6.03-.535c-.125,1.131-.2,2.27-.233,3.413h-22.4A8.588,8.588,0,0,0,30.777,79.7C30.777,79.6,30.765,79.507,30.762,79.409ZM51.64,79a32.283,32.283,0,0,1-8.609.63A31.017,31.017,0,0,1,29.78,75.678,8.7,8.7,0,0,0,26.9,72.5a8.732,8.732,0,0,0,2.325-2.278,27.385,27.385,0,0,0,15.938,5.157,27.046,27.046,0,0,0,7.589-1.087A44.719,44.719,0,0,0,51.64,79ZM69.625,16.984l2.86,2.858a17.208,17.208,0,0,0-1.757,3.476l-.748.75a33.19,33.19,0,0,0-3.934-3.506ZM39.41,4.878H50.92V7.755H39.41ZM46.6,10.633v2.942c-.961-.042-1.917-.042-2.878,0V10.633Zm-41.726.95A6.7,6.7,0,0,1,16.321,6.845L27.728,18.259c-.353.206-.695.432-1.039.646l-4.967-4.965a1.439,1.439,0,0,0-2.035,0l-5.755,5.755a1.439,1.439,0,0,0,0,2.035l4.5,4.506c-.256.309-.508.617-.75.934L6.845,16.321A6.763,6.763,0,0,1,4.878,11.583ZM20.349,24.07,16.984,20.7,20.7,16.984l3.578,3.577a33.032,33.032,0,0,0-3.934,3.509Zm-1.3,6.1a28.851,28.851,0,0,1,2.429-3.088,31.628,31.628,0,0,1,20.813-10.57h.029a1.535,1.535,0,0,0,.163,0,29.136,29.136,0,0,1,5.373,0h.128a31.6,31.6,0,0,1,15.052,5.4,30.457,30.457,0,0,1,5.875,5.224c.262.269.521.576.783.905-.03.412-.065.822-.066,1.24l-.365,5.855a27.3,27.3,0,0,0-50.781,7.141H14.044a31.456,31.456,0,0,1,5-12.112ZM4.878,50.92a5.755,5.755,0,0,1,5.755-5.755H22.144a5.755,5.755,0,1,1,0,11.511H10.633A5.755,5.755,0,0,1,4.878,50.92Zm0,14.388a5.755,5.755,0,0,1,5.755-5.755H22.144a5.755,5.755,0,1,1,0,11.511H10.633A5.755,5.755,0,0,1,4.878,65.309Zm5.755,20.144a5.755,5.755,0,1,1,0-11.511H22.144a5.755,5.755,0,1,1,0,11.511Zm74.819,0H53.824A41.942,41.942,0,0,1,70.489,53.51a1.439,1.439,0,0,0,.576-1.062L72.5,29.427v-.089a14.407,14.407,0,0,1,12.95-14.316Z" transform="translate(0 0)"/>
      <path id="Trazado_903739" data-name="Trazado 903739" d="M47.876,23.293,37.409,33.759a5.679,5.679,0,0,0-2.905-.816A5.755,5.755,0,0,0,28.749,38.7a5.679,5.679,0,0,0,.816,2.905l-3.272,3.272,2.035,2.035L31.6,43.638a5.679,5.679,0,0,0,2.905.816A5.755,5.755,0,0,0,40.26,38.7a5.679,5.679,0,0,0-.816-2.905L49.91,25.328ZM34.5,41.576A2.878,2.878,0,1,1,37.382,38.7,2.878,2.878,0,0,1,34.5,41.576Z" transform="translate(10.661 9.344)"/>
      <rect id="Rectángulo_405203" data-name="Rectángulo 405203" width="2" height="6" transform="translate(44.165 26.165)"/>
      <rect id="Rectángulo_405204" data-name="Rectángulo 405204" width="2" height="5" transform="translate(44.165 64.165)"/>
      <rect id="Rectángulo_405205" data-name="Rectángulo 405205" width="2.878" height="5.755" transform="matrix(0.866, -0.5, 0.5, 0.866, 33.128, 30.072)"/>
      <rect id="Rectángulo_405206" data-name="Rectángulo 405206" width="2.878" height="5.755" transform="matrix(0.5, -0.866, 0.866, 0.5, 25.755, 38.497)"/>
      <rect id="Rectángulo_405207" data-name="Rectángulo 405207" width="6" height="3" transform="translate(61.165 46.165)"/>
      <rect id="Rectángulo_405208" data-name="Rectángulo 405208" width="5.755" height="2.878" transform="matrix(0.866, -0.5, 0.5, 0.866, 58.151, 38.883)"/>
      <rect id="Rectángulo_405209" data-name="Rectángulo 405209" width="5.755" height="2.878" transform="translate(33.127 66.015) rotate(-60.005)"/>
      <rect id="Rectángulo_405210" data-name="Rectángulo 405210" width="5.755" height="2.878" transform="translate(51.833 33.617) rotate(-60.005)"/>
    </g>
  </g>
</svg>
