<svg xmlns="http://www.w3.org/2000/svg" xmlns:xlink="http://www.w3.org/1999/xlink" width="190" height="190" viewBox="0 0 190 190">
  <defs>
    <clipPath id="clip-path">
      <path id="path21" d="M0-682.665H82.767V-599.9H0Z" transform="translate(0 682.665)"/>
    </clipPath>
  </defs>
  <g id="Grupo_1112864" data-name="Grupo 1112864" transform="translate(-705.025 -1505.699)">
    <circle id="Elipse_14848" data-name="Elipse 14848" cx="95" cy="95" r="95" transform="translate(705.025 1505.699)" fill="#d5effb"/>
    <circle id="Elipse_14849" data-name="Elipse 14849" cx="66" cy="66" r="66" transform="translate(734.025 1534.699)" fill="#6896ab"/>
    <g id="g15" transform="translate(758.617 2243.764)">
      <g id="g17" transform="translate(0 -682.665)">
        <g id="g19" clip-path="url(#clip-path)">
          <g id="g25" transform="translate(56.364 16.643)">
            <path id="path27" d="M-126.017-17.893l-3.82-2.205a1.964,1.964,0,0,0-2.683.719l-.736,1.276a1.961,1.961,0,0,0,.2,2.248.815.815,0,0,1,.092.935L-137.075-7.8l-4.9-2.829a6.733,6.733,0,0,1-.611,5.329l-.817,1.415,5.1,2.945a2.731,2.731,0,0,0,3.731-1l6.127-10.613a.79.79,0,0,1,.685-.4,1.962,1.962,0,0,0,1.725-.982l.736-1.276a1.964,1.964,0,0,0-.719-2.683" transform="translate(143.404 20.362)" fill="#ffbd86"/>
          </g>
          <g id="g29" transform="translate(56.364 16.643)">
            <path id="path31" d="M-96.509-77.265l1.644-2.848a.789.789,0,0,1,.685-.4,1.962,1.962,0,0,0,1.725-.982l.736-1.276a1.964,1.964,0,0,0-.719-2.683l-3.82-2.205a1.964,1.964,0,0,0-2.683.719l-.736,1.275a1.961,1.961,0,0,0,.2,2.248.815.815,0,0,1,.092.935L-103.5-75.36l-4.9-2.829a6.733,6.733,0,0,1-.611,5.329l-.817,1.415,5.1,2.945a2.731,2.731,0,0,0,3.731-1l1.654-2.865" transform="translate(109.824 87.925)" fill="none" stroke="#000" stroke-linecap="round" stroke-linejoin="round" stroke-miterlimit="10" stroke-width="2"/>
          </g>
          <g id="g33" transform="translate(9.972 20.37)">
            <path id="path35" d="M0,0H19.757" transform="translate(0 0)" fill="none" stroke="#000" stroke-linecap="round" stroke-linejoin="round" stroke-miterlimit="10" stroke-width="2"/>
          </g>
          <g id="g37" transform="translate(7.514 26.926)">
            <path id="path39" d="M0,0H16.935" fill="none" stroke="#000" stroke-linecap="round" stroke-linejoin="round" stroke-miterlimit="10" stroke-width="2"/>
          </g>
          <g id="g41" transform="translate(13.341 33.481)">
            <path id="path43" d="M0,0H8.741" transform="translate(0 0)" fill="none" stroke="#000" stroke-linecap="round" stroke-linejoin="round" stroke-miterlimit="10" stroke-width="2"/>
          </g>
          <g id="g45" transform="translate(50.262 7.509)">
            <path id="path47" d="M-143.242-37.159l-.424-.431-7.907-4.565a.97.97,0,0,0-.484-.13.97.97,0,0,0-.732.333l-1.424,1.637-.921-.532a2.222,2.222,0,0,0-1.109-.3,2.23,2.23,0,0,0-1.926,1.111l-.672,1.164a2.212,2.212,0,0,0,.376,2.7l-2.361,2.294,0,.229L-163-29.878l4.447,2.568c.1.055.188.112.279.171l.9-1.566a.546.546,0,0,1,.746-.2l1.252.723a6.02,6.02,0,0,0,7.846-1.629.549.549,0,0,1,.717-.156l1.319.762a.546.546,0,0,0,.817-.529l-.387-3.74a1.384,1.384,0,0,1,.178-.834Z" transform="translate(163.005 42.285)" fill="#fed2a4"/>
          </g>
          <g id="g49" transform="translate(50.262 7.509)">
            <path id="path51" d="M-143.242-37.159l-.424-.431-7.907-4.565a.97.97,0,0,0-.484-.13.97.97,0,0,0-.732.333l-1.424,1.637-.921-.532a2.222,2.222,0,0,0-1.109-.3,2.23,2.23,0,0,0-1.926,1.111l-.672,1.164a2.212,2.212,0,0,0,.376,2.7l-2.361,2.294,0,.229L-163-29.878l4.447,2.568c.1.055.188.112.279.171l.9-1.566a.546.546,0,0,1,.746-.2l1.252.723a6.02,6.02,0,0,0,7.846-1.629.549.549,0,0,1,.717-.156l1.319.762a.546.546,0,0,0,.817-.529l-.387-3.74a1.384,1.384,0,0,1,.178-.834Z" transform="translate(163.005 42.285)" fill="none" stroke="#000" stroke-linecap="round" stroke-linejoin="round" stroke-miterlimit="10" stroke-width="2"/>
          </g>
          <g id="g53" transform="translate(62.896 14.144)">
            <path id="path55" d="M-7.259,0l-1,1.735" transform="translate(8.26)" fill="none" stroke="#000" stroke-linecap="round" stroke-linejoin="round" stroke-miterlimit="10" stroke-width="2"/>
          </g>
          <g id="g57" transform="translate(50.251 1.212)">
            <path id="path59" d="M-28.108-23.663l-3.292,5.7a4.37,4.37,0,0,0,1.6,5.97l2.6-2.528a2.059,2.059,0,0,1-.473-2.616L-27-18.3a2.06,2.06,0,0,1,2.813-.754l1.037.6,1.511-1.737a.808.808,0,0,1,1.014-.17l8.412,4.857,2.919-2.22a1.632,1.632,0,0,0-.172-2.712l-9.727-5.616a6.527,6.527,0,0,0-8.916,2.389" transform="translate(31.986 26.928)" fill="#bb5d4c"/>
          </g>
          <g id="g61" transform="translate(50.251 1.213)">
            <path id="path63" d="M-29.468-80.713A2.043,2.043,0,0,1-29.3-81.9a4.374,4.374,0,0,1,.417-.983l3.292-5.7a6.5,6.5,0,0,1,3.623-2.939,6.529,6.529,0,0,0-7.687,2.939l-3.292,5.7a4.37,4.37,0,0,0,1.6,5.97l2.2-2.14a4.389,4.389,0,0,1-.322-1.66" transform="translate(33.533 91.849)" fill="#a44f3e"/>
          </g>
          <g id="g65" transform="translate(50.251 1.212)">
            <path id="path67" d="M-28.108-23.663l-3.292,5.7a4.37,4.37,0,0,0,1.6,5.97l2.6-2.528a2.059,2.059,0,0,1-.473-2.616L-27-18.3a2.06,2.06,0,0,1,2.813-.754l1.037.6,1.511-1.737a.808.808,0,0,1,1.014-.17l8.412,4.857,2.919-2.22a1.632,1.632,0,0,0-.172-2.712l-9.727-5.616A6.527,6.527,0,0,0-28.108-23.663Z" transform="translate(31.986 26.928)" fill="none" stroke="#000" stroke-linecap="round" stroke-linejoin="round" stroke-miterlimit="10" stroke-width="2"/>
          </g>
          <g id="g69" transform="translate(35.306 19.175)">
            <path id="path71" d="M-141.225-22.966l-5.113-2.952a1.616,1.616,0,0,0-2.208.592L-160.709-4.259l.193.3,3.845,2.22h10.811l.459-.162,6.708-11.619a6.915,6.915,0,0,0-2.531-9.445" transform="translate(160.709 26.135)" fill="#62dbfb"/>
          </g>
          <g id="g73" transform="translate(35.306 19.175)">
            <path id="path75" d="M-118.151-15.684a1.607,1.607,0,0,1,.509-.539l-2.439-1.408a1.616,1.616,0,0,0-2.208.592L-134.452,4.029l.193.3,3.354,1.936Z" transform="translate(134.452 17.848)" fill="#01d0fb"/>
          </g>
          <g id="g77" transform="translate(35.306 19.175)">
            <path id="path79" d="M-141.225-22.966l-5.113-2.952a1.616,1.616,0,0,0-2.208.592L-160.709-4.259l.193.3,3.845,2.22h10.811l.459-.162,6.708-11.619A6.915,6.915,0,0,0-141.225-22.966Z" transform="translate(160.709 26.135)" fill="none" stroke="#000" stroke-linecap="round" stroke-linejoin="round" stroke-miterlimit="10" stroke-width="2"/>
          </g>
          <g id="g81" transform="translate(18.205 57.278)">
            <path id="path83" d="M-64.208,0l-8.859,15.344,5.912,3.414L-58.3,3.414Z" transform="translate(73.066)" fill="#fed2a4"/>
          </g>
          <g id="g85" transform="translate(21.136 57.278)">
            <path id="path87" d="M-20.561-86.287l5.928-10.267-2.837-1.638L-23.4-87.925Z" transform="translate(23.397 98.192)" fill="#ffbd86"/>
          </g>
          <g id="g89" transform="translate(18.205 57.278)">
            <path id="path91" d="M-92.882-49.3l1.956-3.389-5.913-3.414L-105.7-40.762l5.912,3.414,4.073-7.055" transform="translate(105.697 56.105)" fill="none" stroke="#000" stroke-linecap="round" stroke-linejoin="round" stroke-miterlimit="10" stroke-width="2"/>
          </g>
          <g id="g93" transform="translate(18.205 67.545)">
            <path id="path95" d="M-21.244,0l-2.931,5.077,5.912,3.414,2.931-5.077Z" transform="translate(24.175)" fill="#dff6fd"/>
          </g>
          <g id="g97" transform="translate(19.18 67.545)">
            <path id="path99" d="M-17.882-40.155l2.271-3.934-2.783-1.607-1.956,3.387Z" transform="translate(20.349 45.695)" fill="#c8effe"/>
          </g>
          <g id="g101" transform="translate(18.205 67.545)">
            <path id="path103" d="M-21.244,0l-2.931,5.077,5.912,3.414,2.931-5.077Z" transform="translate(24.175)" fill="none" stroke="#000" stroke-linecap="round" stroke-linejoin="round" stroke-miterlimit="10" stroke-width="2"/>
          </g>
          <g id="g105" transform="translate(54.494 43.407)">
            <path id="path107" d="M-23.088,0h-1.78V7.97a.647.647,0,0,1-.647.647h-.758V26.529h6.827V3.642A3.642,3.642,0,0,0-23.088,0" transform="translate(26.273)" fill="#fed2a4"/>
          </g>
          <g id="g109" transform="translate(54.494 43.407)">
            <path id="path111" d="M-23.088,0h-1.78V7.97a.647.647,0,0,1-.647.647h-.758V26.529h3.216V0h-.031" transform="translate(26.273)" fill="#ffbd86"/>
          </g>
          <g id="g113" transform="translate(54.494 43.407)">
            <path id="path115" d="M-23.088,0h-1.78V7.97a.647.647,0,0,1-.647.647h-.758V26.529h6.827V3.642A3.642,3.642,0,0,0-23.088,0Z" transform="translate(26.273)" fill="none" stroke="#000" stroke-linecap="round" stroke-linejoin="round" stroke-miterlimit="10" stroke-width="2"/>
          </g>
          <path id="path117" d="M449.471-168.279H456.3V-176.9h-6.827Z" transform="translate(-394.977 238.215)" fill="#dff6fd"/>
          <path id="path119" d="M449.471-168.279h3.216V-176.9h-3.216Z" transform="translate(-394.977 238.215)" fill="#c8effe"/>
          <path id="path121" d="M449.471-168.279H456.3V-176.9h-6.827Z" transform="translate(-394.977 238.215)" fill="none" stroke="#000" stroke-linecap="round" stroke-linejoin="round" stroke-miterlimit="10" stroke-width="2"/>
          <g id="g123" transform="translate(54.494 65.901)">
            <path id="path125" d="M0-36.556V-41.6H9.2a4.487,4.487,0,0,1,4.487,4.487,1.365,1.365,0,0,1-1.365,1.365H.808A.808.808,0,0,1,0-36.556" transform="translate(0 41.6)" fill="#53469c"/>
          </g>
          <g id="g127" transform="translate(54.494 65.901)">
            <path id="path129" d="M-5.858-42.415H-3.45v-5.852H-6.667v5.044a.808.808,0,0,0,.808.808" transform="translate(6.667 48.267)" fill="#463a84"/>
          </g>
          <g id="g131" transform="translate(54.494 65.901)">
            <path id="path133" d="M0-36.556V-41.6H9.2a4.487,4.487,0,0,1,4.487,4.487,1.365,1.365,0,0,1-1.365,1.365H.808A.808.808,0,0,1,0-36.556Z" transform="translate(0 41.6)" fill="none" stroke="#000" stroke-linecap="round" stroke-linejoin="round" stroke-miterlimit="10" stroke-width="2"/>
          </g>
          <g id="g135" transform="translate(26.434 41.051)">
            <path id="path137" d="M-214.739-17.078h-16.674l-4.081-2.356-8.764,15.179a.808.808,0,0,0,.3,1.1l6.2,3.581a.808.808,0,0,0,1.1-.3l4.869-8.434h16.239a.808.808,0,0,0,.808-.808Z" transform="translate(244.367 19.435)" fill="#fac600"/>
          </g>
          <g id="g139" transform="translate(26.434 41.051)">
            <path id="path141" d="M-42.157-118.024a.808.808,0,0,1-.3-1.1l7.411-12.836-4.059-2.343-8.764,15.179a.808.808,0,0,0,.3,1.1l6.2,3.581a.808.808,0,0,0,1.1-.3l.949-1.644Z" transform="translate(47.974 134.308)" fill="#e8b801"/>
          </g>
          <g id="g143" transform="translate(26.434 41.051)">
            <path id="path145" d="M-178.656-80.7h4.17a.808.808,0,0,0,.808-.808v-7.97h-16.674l-4.081-2.356L-203.2-76.655a.808.808,0,0,0,.3,1.1l6.2,3.581a.808.808,0,0,0,1.1-.3l4.869-8.434h6.411" transform="translate(203.305 91.834)" fill="none" stroke="#000" stroke-linecap="round" stroke-linejoin="round" stroke-miterlimit="10" stroke-width="2"/>
          </g>
          <g id="g147" transform="translate(26.657 15.182)">
            <path id="path149" d="M-174.585-41.38l-9.254-5.343a2.731,2.731,0,0,0-3.731,1l-7.44,12.886a.793.793,0,0,1-.76.4,1.962,1.962,0,0,0-1.9.97l-.736,1.276a1.964,1.964,0,0,0,.719,2.683l3.82,2.205a1.964,1.964,0,0,0,2.683-.719l.736-1.275a1.961,1.961,0,0,0-.1-2.115.813.813,0,0,1-.046-.877l5.528-9.575,7.551,4.3A3.132,3.132,0,0,0-173.21-36.8h0a3.541,3.541,0,0,0-1.375-4.578" transform="translate(198.672 47.089)" fill="#fed2a4"/>
          </g>
          <g id="g151" transform="translate(26.657 15.182)">
            <path id="path153" d="M-16.138-135.249l.756-1.31a2.015,2.015,0,0,1,1.953-1,.814.814,0,0,0,.781-.412l7.64-13.232a2.8,2.8,0,0,1,3.433-1.213l-1.957-1.13a2.731,2.731,0,0,0-3.731,1l-7.44,12.886a.792.792,0,0,1-.76.4,1.962,1.962,0,0,0-1.9.97l-.736,1.276a1.964,1.964,0,0,0,.719,2.683l1.041.6a2.01,2.01,0,0,1,.2-1.523" transform="translate(18.365 153.908)" fill="#ffbd86"/>
          </g>
          <g id="g155" transform="translate(26.657 15.182)">
            <path id="path157" d="M-174.585-41.38l-9.254-5.343a2.731,2.731,0,0,0-3.731,1l-7.44,12.886a.793.793,0,0,1-.76.4,1.962,1.962,0,0,0-1.9.97l-.736,1.276a1.964,1.964,0,0,0,.719,2.683l3.82,2.205a1.964,1.964,0,0,0,2.683-.719l.736-1.275a1.961,1.961,0,0,0-.1-2.115.813.813,0,0,1-.046-.877l5.528-9.575,7.551,4.3A3.132,3.132,0,0,0-173.21-36.8h0A3.541,3.541,0,0,0-174.585-41.38Z" transform="translate(198.672 47.089)" fill="none" stroke="#000" stroke-linecap="round" stroke-linejoin="round" stroke-miterlimit="10" stroke-width="2"/>
          </g>
          <g id="g159" transform="translate(15.331 70.932)">
            <path id="path161" d="M-75.179-41.251-81.7-46.943l-3.663,4.42a.808.808,0,0,0,.132,1.159l5.851,5.043h8.194v-1.63A3.152,3.152,0,0,0-73.9-41.072Z" transform="translate(85.551 46.943)" fill="#53469c"/>
          </g>
          <g id="g163" transform="translate(15.331 70.932)">
            <path id="path165" d="M-30.832-32.035l1.956-2.36-2.36-2.06-3.664,4.42a.808.808,0,0,0,.132,1.159l5.851,5.043h4.068L-30.7-30.876a.808.808,0,0,1-.132-1.159" transform="translate(35.086 36.455)" fill="#463a84"/>
          </g>
          <g id="g167" transform="translate(15.331 70.932)">
            <path id="path169" d="M-75.179-41.251-81.7-46.943l-3.663,4.42a.808.808,0,0,0,.132,1.159l5.851,5.043h8.194v-1.63A3.152,3.152,0,0,0-73.9-41.072Z" transform="translate(85.551 46.943)" fill="none" stroke="#000" stroke-linecap="round" stroke-linejoin="round" stroke-miterlimit="10" stroke-width="2"/>
          </g>
          <g id="g171" transform="translate(8.424 81.554)">
            <path id="path173" d="M0,0H66.829" fill="none" stroke="#000" stroke-linecap="round" stroke-linejoin="round" stroke-miterlimit="10" stroke-width="2"/>
          </g>
          <g id="g175" transform="translate(35.48 50.11)">
            <path id="path177" d="M-29.586-15.038h-.795a3.642,3.642,0,0,1-3.287-2.075" transform="translate(33.668 17.113)" fill="none" stroke="#000" stroke-linecap="round" stroke-linejoin="round" stroke-miterlimit="10" stroke-width="2"/>
          </g>
        </g>
      </g>
    </g>
  </g>
</svg>
