<svg xmlns="http://www.w3.org/2000/svg" xmlns:xlink="http://www.w3.org/1999/xlink" width="108.914" height="108.914" viewBox="0 0 108.914 108.914">
  <defs>
    <filter id="Trazado_874925" x="0" y="0" width="108.914" height="108.914" filterUnits="userSpaceOnUse">
      <feOffset dy="3" input="SourceAlpha"/>
      <feGaussianBlur stdDeviation="3" result="blur"/>
      <feFlood flood-opacity="0.161"/>
      <feComposite operator="in" in2="blur"/>
      <feComposite in="SourceGraphic"/>
    </filter>
  </defs>
  <g id="Grupo_1112870" data-name="Grupo 1112870" transform="translate(6220 8860)">
    <g transform="matrix(1, 0, 0, 1, -6220, -8860)" filter="url(#Trazado_874925)">
      <g id="Trazado_874925-2" data-name="Trazado 874925" transform="translate(9 6)" fill="#f6d530" opacity="0.859">
        <path d="M 45.45676803588867 89.41407012939453 C 39.52198028564453 89.41407012939453 33.76551818847656 88.25206756591797 28.34726715087891 85.96034240722656 C 23.11311721801758 83.74648284912109 18.41204261779785 80.57682800292969 14.37464332580566 76.5394287109375 C 10.33724308013916 72.50202941894531 7.167593002319336 67.80095672607422 4.953730583190918 62.56679534912109 C 2.662005424499512 57.14855575561523 1.500005483627319 51.39208221435547 1.500005483627319 45.45729446411133 C 1.500005483627319 39.52198028564453 2.662005424499512 33.76551818847656 4.953730583190918 28.34726905822754 C 7.167593002319336 23.11310577392578 10.33724308013916 18.41203117370605 14.37464332580566 14.37464332580566 C 18.41204261779785 10.33724403381348 23.11311721801758 7.167593955993652 28.34726715087891 4.953731060028076 C 33.76551818847656 2.662006139755249 39.52198028564453 1.500006198883057 45.45676803588867 1.500006198883057 C 51.39155578613281 1.500006198883057 57.14802932739258 2.662006139755249 62.56626892089844 4.953731060028076 C 67.80043029785156 7.167593955993652 72.50150299072266 10.33724403381348 76.53890228271484 14.37464332580566 C 80.57630920410156 18.41203117370605 83.74595642089844 23.11310577392578 85.95981597900391 28.34726905822754 C 88.25154113769531 33.76551818847656 89.41354370117188 39.52198028564453 89.41354370117188 45.45676803588867 C 89.41354370117188 51.39208221435547 88.25154113769531 57.14855575561523 85.95981597900391 62.56679534912109 C 83.74595642089844 67.80095672607422 80.57630920410156 72.50202941894531 76.53890228271484 76.5394287109375 C 72.50150299072266 80.57682800292969 67.80043029785156 83.74648284912109 62.56626892089844 85.96034240722656 C 57.14802932739258 88.25206756591797 51.39155578613281 89.41407012939453 45.45676803588867 89.41407012939453 Z" stroke="none"/>
        <path d="M 45.45676803588867 3 C 39.72381210327148 3 34.1639404296875 4.12213134765625 28.93159484863281 6.335227966308594 C 23.87622833251953 8.473472595214844 19.33542633056641 11.53517150878906 15.43529510498047 15.435302734375 C 11.53517150878906 19.33543395996094 8.473464965820312 23.87622833251953 6.335227966308594 28.93160247802734 C 4.122123718261719 34.16394424438477 3 39.72381591796875 3 45.4572868347168 C 3 51.19024658203125 4.122123718261719 56.75011825561523 6.335227966308594 61.98246002197266 C 8.473464965820312 67.03782653808594 11.53517150878906 71.57862854003906 15.43529510498047 75.478759765625 C 19.33542633056641 79.37889099121094 23.87622833251953 82.44058990478516 28.93159484863281 84.57883453369141 C 34.1639404296875 86.79193115234375 39.72381210327148 87.9140625 45.45676803588867 87.9140625 C 51.18972396850586 87.9140625 56.74959564208984 86.79193115234375 61.98194122314453 84.57883453369141 C 67.03730773925781 82.44058990478516 71.57810974121094 79.37889099121094 75.47824096679688 75.478759765625 C 79.37837219238281 71.57862854003906 82.44007110595703 67.03782653808594 84.57830810546875 61.98246002197266 C 86.79141235351562 56.75011825561523 87.91353607177734 51.19024658203125 87.91353607177734 45.4567756652832 C 87.91353607177734 39.72381591796875 86.79141235351562 34.16394424438477 84.57830810546875 28.93160247802734 C 82.44007110595703 23.87622833251953 79.37837219238281 19.33543395996094 75.47824096679688 15.435302734375 C 71.57810974121094 11.53517150878906 67.03730773925781 8.473472595214844 61.98194122314453 6.335227966308594 C 56.74959564208984 4.12213134765625 51.18972396850586 3 45.45676803588867 3 M 45.45676803588867 0 C 70.56185150146484 0 90.91353607177734 20.35169219970703 90.91353607177734 45.4567756652832 L 90.91353607177734 45.4572868347168 C 90.91353607177734 70.5623779296875 70.56185150146484 90.9140625 45.45676803588867 90.9140625 C 20.3516845703125 90.9140625 0 70.5623779296875 0 45.4572868347168 L 0 45.4567756652832 C 0 20.35169219970703 20.3516845703125 0 45.45676803588867 0 Z" stroke="none" fill="#fff"/>
      </g>
    </g>
    <g id="Grupo_1112535" data-name="Grupo 1112535" transform="translate(-6197 -8839)">
      <g id="Grupo_1112534" data-name="Grupo 1112534">
        <g id="Grupo_1112510" data-name="Grupo 1112510">
          <path id="Trazado_903863" data-name="Trazado 903863" d="M47,61H41a2.006,2.006,0,0,0,2-2V51a9.991,9.991,0,0,0-4-8H55V61Z" fill="#d3a06c"/>
        </g>
        <g id="Grupo_1112511" data-name="Grupo 1112511">
          <path id="Trazado_903864" data-name="Trazado 903864" d="M15,61H7V43H23a10.647,10.647,0,0,0-1.07.93A9.969,9.969,0,0,0,19,51v8a2.006,2.006,0,0,0,2,2Z" fill="#969faa"/>
        </g>
        <g id="Grupo_1112512" data-name="Grupo 1112512">
          <path id="Trazado_903865" data-name="Trazado 903865" d="M39,11a2.006,2.006,0,0,0-2,2V9a8,8,0,0,1,8-8h4a8,8,0,0,1,8,8v4a2.006,2.006,0,0,0-2-2H53V9a2.015,2.015,0,0,1-2,2H48.83A6.835,6.835,0,0,1,44,9a2.993,2.993,0,0,0-2.12.88,2.838,2.838,0,0,0-.7,1.12H39Z" fill="#656d78"/>
        </g>
        <g id="Grupo_1112513" data-name="Grupo 1112513">
          <path id="Trazado_903866" data-name="Trazado 903866" d="M41,26a3,3,0,0,1-3,3H37V27.43a2.42,2.42,0,0,0-2-2.39A2.016,2.016,0,0,1,33,27a4.112,4.112,0,0,1-1.89-.45l-2.6-1.29A2.388,2.388,0,0,0,27.43,25,2.424,2.424,0,0,0,25,27.43V29H24a2.991,2.991,0,0,1-2.36-4.84c-.01-.01-.01-.02-.02-.03A3.94,3.94,0,0,1,21,22a4,4,0,0,1,4-4,4.09,4.09,0,0,1,1.53.3A2.978,2.978,0,0,1,31,17.78a2.978,2.978,0,0,1,4.47.52A4.09,4.09,0,0,1,37,18a4,4,0,0,1,4,4,3.94,3.94,0,0,1-.62,2.13c-.01.01-.01.02-.02.03A3.016,3.016,0,0,1,41,26Z" fill="#b27946"/>
        </g>
        <g id="Grupo_1112514" data-name="Grupo 1112514">
          <path id="Trazado_903867" data-name="Trazado 903867" d="M21,26a3,3,0,0,0,3,3H23a2.006,2.006,0,0,0-2,2,2.015,2.015,0,0,0,2,2V43H7V25a9.971,9.971,0,0,1,4-1.8,4.005,4.005,0,0,0,8,.01,9.7,9.7,0,0,1,2.62.92c.01.01.01.02.02.03A3.016,3.016,0,0,0,21,26Z" fill="#fcd770"/>
        </g>
        <g id="Grupo_1112515" data-name="Grupo 1112515">
          <path id="Trazado_903868" data-name="Trazado 903868" d="M41,26a3.016,3.016,0,0,0-.64-1.84c.01-.01.01-.02.02-.03A9.7,9.7,0,0,1,43,23.21a4.006,4.006,0,0,0,8-.01A9.971,9.971,0,0,1,55,25V43H39V33a2.015,2.015,0,0,0,2-2,2.006,2.006,0,0,0-2-2H38A3,3,0,0,0,41,26Z" fill="#fcd770"/>
        </g>
        <g id="Grupo_1112516" data-name="Grupo 1112516">
          <circle id="Elipse_14892" data-name="Elipse 14892" cx="8" cy="8" r="8" transform="translate(23 45)" fill="#ff826e"/>
        </g>
        <g id="Grupo_1112517" data-name="Grupo 1112517">
          <path id="Trazado_903869" data-name="Trazado 903869" d="M41,53H39a7.965,7.965,0,0,0-4.67-7.27A4.981,4.981,0,0,0,36,42v-.54A9.8,9.8,0,0,1,39,43a9.991,9.991,0,0,1,4,8v4A2.006,2.006,0,0,0,41,53Z" fill="#fcd770"/>
        </g>
        <g id="Grupo_1112518" data-name="Grupo 1112518">
          <path id="Trazado_903870" data-name="Trazado 903870" d="M21,53a2.006,2.006,0,0,0-2,2V51a9.969,9.969,0,0,1,2.93-7.07A10.647,10.647,0,0,1,23,43a9.8,9.8,0,0,1,3-1.54V42a4.981,4.981,0,0,0,1.67,3.73A7.965,7.965,0,0,0,23,53Z" fill="#fcd770"/>
        </g>
        <g id="Grupo_1112519" data-name="Grupo 1112519">
          <path id="Trazado_903871" data-name="Trazado 903871" d="M37,57.71v.58a8,8,0,0,1-12,0v-.58a8,8,0,0,1,12,0Z" fill="#fc6e51"/>
        </g>
        <g id="Grupo_1112520" data-name="Grupo 1112520">
          <path id="Trazado_903872" data-name="Trazado 903872" d="M34.33,45.73A8.021,8.021,0,0,1,37.25,48a8.01,8.01,0,0,1-12.5,0,8.021,8.021,0,0,1,2.92-2.27,7.96,7.96,0,0,1,6.66,0Z" fill="#fc6e51"/>
        </g>
        <g id="Grupo_1112521" data-name="Grupo 1112521">
          <path id="Trazado_903873" data-name="Trazado 903873" d="M7,43v4H3.83a2.828,2.828,0,0,1-2-4.83L3,41V33a9.969,9.969,0,0,1,2.93-7.07A9.427,9.427,0,0,1,7,25.01Z" fill="#f0d0b4"/>
        </g>
        <g id="Grupo_1112522" data-name="Grupo 1112522">
          <path id="Trazado_903874" data-name="Trazado 903874" d="M25,58.29V59a2.006,2.006,0,0,1-2,2H21a2.006,2.006,0,0,1-2-2V55a2.006,2.006,0,0,1,2-2h2a2.006,2.006,0,0,1,2,2v3.29Z" fill="#f0d0b4"/>
        </g>
        <g id="Grupo_1112523" data-name="Grupo 1112523">
          <path id="Trazado_903875" data-name="Trazado 903875" d="M39,53h2a2.006,2.006,0,0,1,2,2v4a2.006,2.006,0,0,1-2,2H39a2.006,2.006,0,0,1-2-2V55A2.006,2.006,0,0,1,39,53Z" fill="#f0d0b4"/>
        </g>
        <g id="Grupo_1112524" data-name="Grupo 1112524">
          <path id="Trazado_903876" data-name="Trazado 903876" d="M60.17,42.17a2.83,2.83,0,0,1-2,4.83H55V25.01a9.427,9.427,0,0,1,1.07.92A9.969,9.969,0,0,1,59,33v8Z" fill="#f0d0b4"/>
        </g>
        <g id="Grupo_1112525" data-name="Grupo 1112525">
          <path id="Trazado_903877" data-name="Trazado 903877" d="M55,11a2.006,2.006,0,0,1,2,2,2.015,2.015,0,0,1-2,2H53V11Z" fill="#f0d0b4"/>
        </g>
        <g id="Grupo_1112526" data-name="Grupo 1112526">
          <path id="Trazado_903878" data-name="Trazado 903878" d="M53,9v6.88A5.283,5.283,0,0,1,49,21v2a10.048,10.048,0,0,1,2,.2,4.005,4.005,0,0,1-8,.01A9.357,9.357,0,0,1,45,23V21a5.283,5.283,0,0,1-4-5.12V12a2.772,2.772,0,0,1,.18-1,2.838,2.838,0,0,1,.7-1.12A2.993,2.993,0,0,1,44,9a6.835,6.835,0,0,0,4.83,2H51a2.015,2.015,0,0,0,2-2Z" fill="#f0d0b4"/>
        </g>
        <g id="Grupo_1112527" data-name="Grupo 1112527">
          <path id="Trazado_903879" data-name="Trazado 903879" d="M37,13a2.006,2.006,0,0,1,2-2h2.18A2.772,2.772,0,0,0,41,12v3H39a2.015,2.015,0,0,1-2-2Z" fill="#f0d0b4"/>
        </g>
        <g id="Grupo_1112528" data-name="Grupo 1112528">
          <path id="Trazado_903880" data-name="Trazado 903880" d="M39,29a2.006,2.006,0,0,1,2,2,2.015,2.015,0,0,1-2,2H37V29h2Z" fill="#f0d0b4"/>
        </g>
        <g id="Grupo_1112529" data-name="Grupo 1112529">
          <path id="Trazado_903881" data-name="Trazado 903881" d="M37,33v.88A5.278,5.278,0,0,1,33,39v2a9.908,9.908,0,0,1,3,.46V42a4.981,4.981,0,0,1-1.67,3.73,7.96,7.96,0,0,0-6.66,0A4.981,4.981,0,0,1,26,42v-.54A9.908,9.908,0,0,1,29,41V39a5.283,5.283,0,0,1-4-5.12V27.43A2.424,2.424,0,0,1,27.43,25a2.388,2.388,0,0,1,1.08.26l2.6,1.29A4.112,4.112,0,0,0,33,27a2.016,2.016,0,0,0,2-1.96,2.42,2.42,0,0,1,2,2.39V33Z" fill="#f0d0b4"/>
        </g>
        <g id="Grupo_1112530" data-name="Grupo 1112530">
          <path id="Trazado_903882" data-name="Trazado 903882" d="M25,29v4H23a2.015,2.015,0,0,1-2-2,2.006,2.006,0,0,1,2-2h2Z" fill="#f0d0b4"/>
        </g>
        <g id="Grupo_1112531" data-name="Grupo 1112531">
          <path id="Trazado_903883" data-name="Trazado 903883" d="M23,11a2.006,2.006,0,0,1,2,2,2.015,2.015,0,0,1-2,2H21V11Z" fill="#f0d0b4"/>
        </g>
        <g id="Grupo_1112532" data-name="Grupo 1112532">
          <path id="Trazado_903884" data-name="Trazado 903884" d="M21,15v.88A5.278,5.278,0,0,1,17,21v2a9.357,9.357,0,0,1,2,.21,4.006,4.006,0,0,1-8-.01,10.048,10.048,0,0,1,2-.2V21a5.283,5.283,0,0,1-4-5.12V9a4,4,0,0,1,4-4h4a4,4,0,0,1,4,4v6Z" fill="#f0d0b4"/>
        </g>
        <g id="Grupo_1112533" data-name="Grupo 1112533">
          <path id="Trazado_903885" data-name="Trazado 903885" d="M9,11v4H7a2.015,2.015,0,0,1-2-2,2.006,2.006,0,0,1,2-2Z" fill="#f0d0b4"/>
        </g>
      </g>
      <path id="Trazado_903886" data-name="Trazado 903886" d="M60.878,41.464,60,40.586V33A11.015,11.015,0,0,0,50,22.045V21.73A6.266,6.266,0,0,0,53.991,16H55a3,3,0,0,0,3-3V9a9.011,9.011,0,0,0-9-9H45a9.011,9.011,0,0,0-9,9v4a3,3,0,0,0,3,3h1.009a6.261,6.261,0,0,0,.591,2.547,4.962,4.962,0,0,0-4.8-1.4,4.076,4.076,0,0,0-4.8-.6,4.076,4.076,0,0,0-4.8.6,4.962,4.962,0,0,0-4.8,1.4A6.277,6.277,0,0,0,21.991,16H23a3,3,0,0,0,0-6H22V9a5.006,5.006,0,0,0-5-5H13A5.006,5.006,0,0,0,8,9v1H7a3,3,0,0,0,0,6H8.009A6.265,6.265,0,0,0,12,21.729v.315A11.016,11.016,0,0,0,2,33v7.586l-.878.878A3.828,3.828,0,0,0,3.829,48H6V62H23a3,3,0,0,0,2.706-1.726,8.983,8.983,0,0,0,10.589,0A3,3,0,0,0,39,62H56V48h2.171a3.828,3.828,0,0,0,2.707-6.536ZM6,13a1,1,0,0,1,1-1H8v2H7A1,1,0,0,1,6,13ZM42,52.184A2.966,2.966,0,0,0,41,52H39.941A9,9,0,0,0,35.9,45.459a6.009,6.009,0,0,0,1.025-2.547A9,9,0,0,1,42,51ZM36,55v.532a8.992,8.992,0,0,0-4-1.474V51.944a8.931,8.931,0,0,0,5.11-2.35,6.941,6.941,0,0,1,.841,2.606A3,3,0,0,0,36,55ZM24.049,52.2a6.941,6.941,0,0,1,.841-2.606A8.924,8.924,0,0,0,30,51.944v2.114a8.992,8.992,0,0,0-4,1.474V55a3,3,0,0,0-1.951-2.8ZM8,25.522a8.922,8.922,0,0,1,2.228-1.08,4.979,4.979,0,0,0,9.542.007c.163.053.327.1.487.163A3.887,3.887,0,0,0,20,26a3.971,3.971,0,0,0,1.08,2.714,2.973,2.973,0,0,0,.92,5.1V42H8Zm27.606.936a1.412,1.412,0,0,1,.394.969v6.45a4.275,4.275,0,0,1-3.243,4.153L32,38.219V42h1a8.939,8.939,0,0,1,1.976.226,3.973,3.973,0,0,1-.917,2.321,8.827,8.827,0,0,0-6.118,0,3.989,3.989,0,0,1-.917-2.321A8.939,8.939,0,0,1,29,42h1V38.219l-.757-.189A4.275,4.275,0,0,1,26,33.877v-6.45a1.426,1.426,0,0,1,2.065-1.276l2.593,1.3A5.264,5.264,0,0,0,33,28a2.991,2.991,0,0,0,2.606-1.542ZM38,30h1a1,1,0,1,1,0,2H38Zm-.009,4H38v7.207a10.892,10.892,0,0,0-4-1.162V39.73A6.269,6.269,0,0,0,37.991,34ZM30,46.08v3.841A6.939,6.939,0,0,1,26.107,48,6.973,6.973,0,0,1,30,46.08Zm2,0A6.98,6.98,0,0,1,35.893,48,6.952,6.952,0,0,1,32,49.921Zm-4-6.351v.315a10.911,10.911,0,0,0-4,1.162V34h.009A6.266,6.266,0,0,0,28,39.729ZM24,32H23a1,1,0,1,1,0-2h1Zm1.078,10.912A6.009,6.009,0,0,0,26.1,45.459,9,9,0,0,0,22.059,52H21a2.966,2.966,0,0,0-1,.184V51a9,9,0,0,1,5.078-8.088ZM40,42V33.816a2.973,2.973,0,0,0,.92-5.1A3.971,3.971,0,0,0,42,26a3.9,3.9,0,0,0-.257-1.389c.16-.062.324-.11.487-.163a4.979,4.979,0,0,0,9.542-.006A9.026,9.026,0,0,1,54,25.522V42Zm8.757-21.97L48,20.219V24h1c.271,0,.537.017.8.041a2.982,2.982,0,0,1-5.6.006c.265-.023.529-.047.8-.047h1V20.219l-.757-.189A4.275,4.275,0,0,1,42,15.877V12a2,2,0,0,1,1.638-1.967A7.772,7.772,0,0,0,48.829,12H51a2.966,2.966,0,0,0,1-.184v4.061A4.275,4.275,0,0,1,48.757,20.03ZM55,14H54V12h1a1,1,0,0,1,0,2ZM45,2h4a7.008,7.008,0,0,1,7,7v1.184A2.966,2.966,0,0,0,55,10H54V9a3,3,0,0,0-3-3H50V8h1a1,1,0,1,1,0,2H48.829a5.791,5.791,0,0,1-4.122-1.707L44.414,8H44a3.987,3.987,0,0,0-3.444,2H39a2.966,2.966,0,0,0-1,.184V9a7.008,7.008,0,0,1,7-7ZM38,13a1,1,0,0,1,1-1h1v2H39A1,1,0,0,1,38,13Zm6,8.729v.316a11.116,11.116,0,0,0-2.024.381c.013-.141.024-.283.024-.426a4.969,4.969,0,0,0-.389-1.931A6.24,6.24,0,0,0,44,21.729ZM25,19a2.985,2.985,0,0,1,1.145.229l.749.31.458-.668A2,2,0,0,1,29,18a1.979,1.979,0,0,1,1.331.521l.669.6.669-.6A1.974,1.974,0,0,1,33,18a2,2,0,0,1,1.648.871l.458.668.749-.31a2.993,2.993,0,0,1,3.662,4.392l-.386.6.438.561A1.981,1.981,0,0,1,40,26a2,2,0,0,1-2,2v-.573a3.416,3.416,0,0,0-2.1-3.15A3,3,0,0,0,33,22H32v2h1a1,1,0,0,1,0,2,3.245,3.245,0,0,1-1.447-.342l-2.593-1.3A3.427,3.427,0,0,0,24,27.427V28a2,2,0,0,1-2-2,1.981,1.981,0,0,1,.432-1.221l.438-.561-.386-.6A2.973,2.973,0,0,1,22,22a3,3,0,0,1,3-3Zm-2-7a1,1,0,0,1,0,2H22V12Zm-2.611,8.069A4.969,4.969,0,0,0,20,22c0,.143.011.285.024.427A11.1,11.1,0,0,0,18,22.046V21.73A6.254,6.254,0,0,0,20.389,20.069ZM10,15.877V9a3,3,0,0,1,3-3h4a3,3,0,0,1,3,3v6.877a4.275,4.275,0,0,1-3.243,4.153L16,20.219V24h1c.27,0,.534.024.8.047a2.982,2.982,0,0,1-5.6-.006c.264-.024.53-.041.8-.041h1V20.219l-.757-.189A4.275,4.275,0,0,1,10,15.877ZM3.829,46a1.829,1.829,0,0,1-1.293-3.122L4,41.414V33a8.955,8.955,0,0,1,2-5.644V46ZM8,44H20.535A10.94,10.94,0,0,0,18,51v8a2.966,2.966,0,0,0,.184,1H16V49.586l-2.293-2.293-1.414,1.414L14,50.414V60H8ZM24,59a1,1,0,0,1-1,1H21a1,1,0,0,1-1-1V55a1,1,0,0,1,1-1h2a1,1,0,0,1,1,1Zm2.114-1A7,7,0,0,1,30,56.081v3.838A7,7,0,0,1,26.114,58ZM32,59.919V56.081A7,7,0,0,1,35.886,58,6.991,6.991,0,0,1,32,59.919ZM39,60a1,1,0,0,1-1-1V55a1,1,0,0,1,1-1h2a1,1,0,0,1,1,1v4a1,1,0,0,1-1,1Zm9,0V50.414l1.707-1.707-1.414-1.414L46,49.586V60H43.816A2.966,2.966,0,0,0,44,59V51a10.94,10.94,0,0,0-2.535-7H54V60ZM58.171,46H56V27.356A8.955,8.955,0,0,1,58,33v8.414l1.464,1.464A1.829,1.829,0,0,1,58.171,46Z"/>
    </g>
  </g>
</svg>
