<svg xmlns="http://www.w3.org/2000/svg" width="85" height="85" viewBox="0 0 85 85">
  <g id="Grupo_1112898" data-name="Grupo 1112898" transform="translate(-821.051 -5628.86)">
    <g id="Grupo_1112558" data-name="Grupo 1112558" transform="translate(759.261 5632.36)">
      <g id="Grupo_1112555" data-name="Grupo 1112555" transform="translate(82.79 7.5)">
        <path id="Trazado_903976" data-name="Trazado 903976" d="M137.364,13.123v1.9L118.012,16.15l-5.543-.309L97.85,15.026v-1.9A5.623,5.623,0,0,1,103.473,7.5h28.268A5.623,5.623,0,0,1,137.364,13.123Z" transform="translate(-95.968 -7.5)" fill="#97a4b2"/>
        <path id="Trazado_903977" data-name="Trazado 903977" d="M112.469,15.842,97.85,15.026v-1.9A5.623,5.623,0,0,1,103.473,7.5h15.079A39.952,39.952,0,0,0,112.469,15.842Z" transform="translate(-95.968 -7.5)" fill="#77899b"/>
        <path id="Trazado_903978" data-name="Trazado 903978" d="M137.364,67.73v48.943a5.623,5.623,0,0,1-5.623,5.623h-7.548l-5.9-.858-1.1-.16-6.179,1.018h-7.548a5.623,5.623,0,0,1-5.623-5.623V67.73l5.845,1.336,9.236-1.336Z" transform="translate(-95.968 -60.204)" fill="#dbdfe5"/>
        <path id="Trazado_903979" data-name="Trazado 903979" d="M118.3,121.438l-1.1-.16-6.179,1.018h-7.548a5.623,5.623,0,0,1-5.623-5.623V67.73h15.081C107.076,77.795,101.745,96.426,118.3,121.438Z" transform="translate(-95.968 -60.204)" fill="#c5cdd5"/>
        <path id="Trazado_903980" data-name="Trazado 903980" d="M216.432,461.134v3.771H203.26l1.543-4.326,2.784-1.319h6.971A1.875,1.875,0,0,1,216.432,461.134Z" transform="translate(-188.208 -402.814)" fill="#97a4b2"/>
        <path id="Trazado_903981" data-name="Trazado 903981" d="M211.113,464.905H203.26v-3.771a1.875,1.875,0,0,1,1.874-1.874h2.453Q209.165,462.026,211.113,464.905Z" transform="translate(-188.208 -402.814)" fill="#77899b"/>
        <path id="Trazado_903982" data-name="Trazado 903982" d="M210.784,162.056a7.527,7.527,0,0,1-15.054,0c0-.065,0-.13,0-.195a15.088,15.088,0,0,1,5.112-10.812.936.936,0,0,1,1.578.691,2.82,2.82,0,0,0,.835,2.143c1.213,1.213,2.426.47,3.136-.211a.934.934,0,0,1,1.368.084A13.254,13.254,0,0,1,210.784,162.056Z" transform="translate(-181.618 -132.892)" fill="#fd7a6e"/>
        <path id="Trazado_903983" data-name="Trazado 903983" d="M233.4,218.4a3.763,3.763,0,0,1-3.8,3.763,3.831,3.831,0,0,1-3.715-4.119,10.906,10.906,0,0,1,2.238-5.348,1.872,1.872,0,0,1,3.034.009A10.458,10.458,0,0,1,233.4,218.4Z" transform="translate(-208.002 -186.38)" fill="#fcf5af"/>
        <path id="Trazado_903984" data-name="Trazado 903984" d="M140.558,282.308v11.319a3.748,3.748,0,0,1-3.748,3.748H114.649L99.35,295.3l.554-14.829,8.915-1.912h27.991A3.748,3.748,0,0,1,140.558,282.308Z" transform="translate(-97.281 -244.692)" fill="#7dce5c"/>
        <path id="Trazado_903985" data-name="Trazado 903985" d="M100.158,297.376H86.538a3.748,3.748,0,0,1-3.748-3.748V282.308a3.748,3.748,0,0,1,3.748-3.748h7.789A56.394,56.394,0,0,0,100.158,297.376Z" transform="translate(-82.79 -244.692)" fill="#59c230"/>
      </g>
      <g id="Grupo_1112557" data-name="Grupo 1112557" transform="translate(82.79 7.5)">
        <path id="Trazado_903986" data-name="Trazado 903986" d="M137.364,426.32v4.138a5.623,5.623,0,0,1-5.623,5.623H103.473a5.623,5.623,0,0,1-5.623-5.623V426.32" transform="translate(-95.968 -373.989)" fill="none" stroke="#1d1d1b" stroke-linecap="round" stroke-linejoin="round" stroke-miterlimit="10" stroke-width="2"/>
        <path id="Trazado_903987" data-name="Trazado 903987" d="M97.85,27.4V13.123A5.623,5.623,0,0,1,103.473,7.5h28.268a5.623,5.623,0,0,1,5.623,5.623v28.6" transform="translate(-95.968 -7.5)" fill="none" stroke="#1d1d1b" stroke-linecap="round" stroke-linejoin="round" stroke-miterlimit="10" stroke-width="2"/>
        <line id="Línea_653" data-name="Línea 653" y1="9.946" transform="translate(1.882 24.276)" fill="none" stroke="#1d1d1b" stroke-linecap="round" stroke-linejoin="round" stroke-miterlimit="10" stroke-width="2"/>
        <line id="Línea_654" data-name="Línea 654" x1="5.183" transform="translate(35.966 7.526)" fill="none" stroke="#1d1d1b" stroke-linecap="round" stroke-linejoin="round" stroke-miterlimit="10" stroke-width="2"/>
        <line id="Línea_655" data-name="Línea 655" x1="29.465" transform="translate(2.128 7.526)" fill="none" stroke="#1d1d1b" stroke-linecap="round" stroke-linejoin="round" stroke-miterlimit="10" stroke-width="2"/>
        <line id="Línea_656" data-name="Línea 656" x2="7.526" transform="translate(15.994 3.763)" fill="none" stroke="#1d1d1b" stroke-linecap="round" stroke-linejoin="round" stroke-miterlimit="10" stroke-width="2"/>
        <line id="Línea_657" data-name="Línea 657" transform="translate(27.283 3.763)" fill="none" stroke="#1d1d1b" stroke-linecap="round" stroke-linejoin="round" stroke-miterlimit="10" stroke-width="2"/>
        <path id="Trazado_903988" data-name="Trazado 903988" d="M203.264,464.535v-3.4a1.874,1.874,0,0,1,1.874-1.874h9.423a1.874,1.874,0,0,1,1.874,1.874v3.4" transform="translate(-188.211 -402.818)" fill="none" stroke="#1d1d1b" stroke-linecap="round" stroke-linejoin="round" stroke-miterlimit="10" stroke-width="2"/>
        <path id="Trazado_903989" data-name="Trazado 903989" d="M209.247,166.618a7.493,7.493,0,0,0,1.537-4.558,13.254,13.254,0,0,0-3.022-8.3.934.934,0,0,0-1.368-.084c-.71.681-1.923,1.424-3.136.211a2.82,2.82,0,0,1-.835-2.143.936.936,0,0,0-1.578-.691,14.936,14.936,0,0,0-5.114,11.007,7.493,7.493,0,0,0,1.537,4.558" transform="translate(-181.618 -132.895)" fill="none" stroke="#1d1d1b" stroke-linecap="round" stroke-linejoin="round" stroke-miterlimit="10" stroke-width="2"/>
        <path id="Trazado_903990" data-name="Trazado 903990" d="M232.994,220.1c1.157-2.258-.356-5.354-1.833-7.4a1.873,1.873,0,0,0-3.035-.009,10.9,10.9,0,0,0-2.238,5.348,3.968,3.968,0,0,0,.434,2.063" transform="translate(-208.002 -186.38)" fill="none" stroke="#1d1d1b" stroke-linecap="round" stroke-linejoin="round" stroke-miterlimit="10" stroke-width="2"/>
        <path id="Trazado_903991" data-name="Trazado 903991" d="M118.5,297.376h3.822a3.748,3.748,0,0,0,3.748-3.748V282.308a3.748,3.748,0,0,0-3.748-3.748H86.538a3.748,3.748,0,0,0-3.748,3.748v11.319a3.748,3.748,0,0,0,3.748,3.748h27.585" transform="translate(-82.79 -244.692)" fill="none" stroke="#1d1d1b" stroke-linecap="round" stroke-linejoin="round" stroke-miterlimit="10" stroke-width="2"/>
        <path id="Trazado_903992" data-name="Trazado 903992" d="M202.425,332a4.252,4.252,0,1,0-2.4,7.734,3.407,3.407,0,0,0,2.7-1.211" transform="translate(-181.623 -290.809)" fill="none" stroke="#1d1d1b" stroke-linecap="round" stroke-linejoin="round" stroke-miterlimit="10" stroke-width="2"/>
        <line id="Línea_658" data-name="Línea 658" y2="11.289" transform="translate(37.632 37.631)" fill="none" stroke="#1d1d1b" stroke-linecap="round" stroke-linejoin="round" stroke-miterlimit="10" stroke-width="2"/>
        <path id="Trazado_903993" data-name="Trazado 903993" d="M136.109,331.264l-4.213,3.763,4.213,4.7" transform="translate(-125.76 -290.81)" fill="none" stroke="#1d1d1b" stroke-linecap="round" stroke-linejoin="round" stroke-miterlimit="10" stroke-width="2"/>
        <line id="Línea_659" data-name="Línea 659" y2="11.253" transform="translate(5.645 37.631)" fill="none" stroke="#1d1d1b" stroke-linecap="round" stroke-linejoin="round" stroke-miterlimit="10" stroke-width="2"/>
        <circle id="Elipse_14894" data-name="Elipse 14894" cx="4.233" cy="4.233" r="4.233" transform="translate(25.402 40.454)" fill="none" stroke="#1d1d1b" stroke-linecap="round" stroke-linejoin="round" stroke-miterlimit="10" stroke-width="2"/>
        <line id="Línea_660" data-name="Línea 660" y2="8.467" transform="translate(33.869 40.454)" fill="none" stroke="#1d1d1b" stroke-linecap="round" stroke-linejoin="round" stroke-miterlimit="10" stroke-width="2"/>
        <g id="Grupo_1112556" data-name="Grupo 1112556" transform="translate(13.836 11.289)">
          <line id="Línea_661" data-name="Línea 661" y2="1.499" transform="translate(0 0)" fill="none" stroke="#000" stroke-linecap="round" stroke-linejoin="round" stroke-miterlimit="10" stroke-width="2"/>
          <line id="Línea_662" data-name="Línea 662" y2="1.499" transform="translate(15.606 0)" fill="none" stroke="#000" stroke-linecap="round" stroke-linejoin="round" stroke-miterlimit="10" stroke-width="2"/>
          <path id="Trazado_903994" data-name="Trazado 903994" d="M239.506,109.495a2.726,2.726,0,0,0,4.114,0" transform="translate(-233.76 -108.04)" fill="none" stroke="#000" stroke-linecap="round" stroke-linejoin="round" stroke-miterlimit="10" stroke-width="2"/>
        </g>
      </g>
    </g>
    <rect id="Rectángulo_405233" data-name="Rectángulo 405233" width="85" height="85" transform="translate(821.051 5628.86)" fill="none"/>
  </g>
</svg>
