<svg xmlns="http://www.w3.org/2000/svg" width="145" height="144" viewBox="0 0 145 144">
  <g id="Grupo_1112881" data-name="Grupo 1112881" transform="translate(-1147.051 -5810)">
    <ellipse id="Elipse_14862" data-name="Elipse 14862" cx="72.5" cy="72" rx="72.5" ry="72" transform="translate(1147.051 5810)" fill="#d5effb"/>
    <circle id="Elipse_14863" data-name="Elipse 14863" cx="60.5" cy="60.5" r="60.5" transform="translate(1159.051 5822)" fill="#97d8f6"/>
    <g id="Grupo_1112597" data-name="Grupo 1112597" transform="translate(1182.051 5843.113)">
      <circle id="Elipse_14902" data-name="Elipse 14902" cx="16" cy="16" r="16" transform="translate(23 1.887)" fill="#5ed3f2"/>
      <path id="Trazado_904060" data-name="Trazado 904060" d="M34.484,2a15.858,15.858,0,0,0-9.969,3.514A15.926,15.926,0,0,0,46.9,27.9,15.926,15.926,0,0,0,34.484,2Z" transform="translate(4.516 0.226)" fill="#95ebfc"/>
      <path id="Trazado_904061" data-name="Trazado 904061" d="M33.806,11.452l.928-.928A5.2,5.2,0,0,1,43.613,14.2a7.448,7.448,0,0,1-2.543,5.6l-7.264,6.355-7.263-6.355A7.448,7.448,0,0,1,24,14.2a5.2,5.2,0,0,1,8.879-3.677Z" transform="translate(5.194 1.806)" fill="#ed5d61"/>
      <path id="Trazado_904062" data-name="Trazado 904062" d="M60.71,51.968l-4.9,4.9H50.9l-4.9-4.9V29.9L50.9,25h4.9l4.9,4.9Z" transform="translate(10.161 5.419)" fill="#61668c"/>
      <path id="Trazado_904063" data-name="Trazado 904063" d="M20.71,51.968l-4.9,4.9H10.9L6,51.968V29.9L10.9,25h4.9l4.9,4.9Z" transform="translate(1.129 5.419)" fill="#61668c"/>
      <path id="Trazado_904064" data-name="Trazado 904064" d="M10.9,25,6,29.9V42.161A14.71,14.71,0,0,0,16.44,56.237l4.27-4.269V29.9l-4.9-4.9Z" transform="translate(1.129 5.419)" fill="#8389b2"/>
      <path id="Trazado_904065" data-name="Trazado 904065" d="M50.9,25,46,29.9V42.161A14.71,14.71,0,0,0,56.44,56.237l4.27-4.269V29.9l-4.9-4.9Z" transform="translate(10.161 5.419)" fill="#8389b2"/>
      <path id="Trazado_904066" data-name="Trazado 904066" d="M18,34H52.323v9.806H18Z" transform="translate(3.839 7.452)" fill="#474747"/>
      <path id="Trazado_904067" data-name="Trazado 904067" d="M27.806,43.806H52.323V34H18A9.806,9.806,0,0,0,27.806,43.806Z" transform="translate(3.839 7.452)" fill="#686868"/>
      <path id="Trazado_904068" data-name="Trazado 904068" d="M26.9,68.774V54.065L22,47.935V44.258h4.9V34.452A2.452,2.452,0,0,1,29.355,32h14.71a2.452,2.452,0,0,1,2.452,2.452v14.71l-2.452,4.9v14.71Z" transform="translate(4.742 7)" fill="#fcd0ae"/>
      <path id="Trazado_904069" data-name="Trazado 904069" d="M6.9,34H4.452A2.452,2.452,0,0,0,2,36.452v4.9a2.452,2.452,0,0,0,2.452,2.452H6.9" transform="translate(0.226 7.452)" fill="#b5b5b5"/>
      <path id="Trazado_904070" data-name="Trazado 904070" d="M58,34h2.452A2.452,2.452,0,0,1,62.9,36.452v4.9a2.452,2.452,0,0,1-2.452,2.452H58" transform="translate(12.871 7.452)" fill="#b5b5b5"/>
      <g id="Grupo_1112596" data-name="Grupo 1112596" transform="translate(35.323 39)">
        <path id="Trazado_904071" data-name="Trazado 904071" d="M29,32h2.452v9.806H29Z" transform="translate(-29 -32)" fill="#f2b9a1"/>
        <path id="Trazado_904072" data-name="Trazado 904072" d="M33,32h2.452v9.806H33Z" transform="translate(-28.097 -32)" fill="#f2b9a1"/>
        <path id="Trazado_904073" data-name="Trazado 904073" d="M37,32h2.452v9.806H37Z" transform="translate(-27.194 -32)" fill="#f2b9a1"/>
      </g>
      <path id="Trazado_904074" data-name="Trazado 904074" d="M11.811,51.48,9.359,49.028A1.226,1.226,0,0,1,9,48.161V31h2.452V47.654l2.092,2.092Z" transform="translate(1.806 6.774)" fill="#a9adcc"/>
      <path id="Trazado_904075" data-name="Trazado 904075" d="M51.811,51.48l-2.452-2.452A1.226,1.226,0,0,1,49,48.161V31h2.452V47.654l2.092,2.092Z" transform="translate(10.839 6.774)" fill="#a9adcc"/>
      <path id="Trazado_904076" data-name="Trazado 904076" d="M73.323,35.032H72.1v-4.9a1.226,1.226,0,0,0-.359-.866l-4.9-4.9A1.226,1.226,0,0,0,65.968,24h-4.9a1.226,1.226,0,0,0-.866.359l-4.9,4.9a1.226,1.226,0,0,0-.359.867v4.9H52.258a3.677,3.677,0,0,0-3.452-2.452H34.1a3.677,3.677,0,0,0-3.452,2.452h-7.58v-4.9a1.226,1.226,0,0,0-.359-.866l-4.9-4.9A1.226,1.226,0,0,0,16.935,24h-4.9a1.226,1.226,0,0,0-.866.359l-4.9,4.9a1.226,1.226,0,0,0-.359.867v4.9H4.677A3.677,3.677,0,0,0,1,38.71v4.9A3.677,3.677,0,0,0,4.677,47.29H5.9v4.9a1.226,1.226,0,0,0,.359.866l4.9,4.9a1.226,1.226,0,0,0,.867.359h4.9a1.226,1.226,0,0,0,.866-.359l4.9-4.9a1.226,1.226,0,0,0,.359-.867v-4.9h2.452v2.452a1.226,1.226,0,0,0,.268.766L30.419,56.3V70.581h2.452V55.871A1.226,1.226,0,0,0,32.6,55.1l-4.635-5.793V47.29h2.452v1.226h2.452V36.258A1.226,1.226,0,0,1,34.1,35.032h1.226v8.581h2.452V35.032h2.452v8.581h2.452V35.032h2.452v8.581h2.452V35.032h1.226a1.226,1.226,0,0,1,1.226,1.226v14.42L47.7,55.323a1.226,1.226,0,0,0-.123.548v14.71h2.452V56.16l2.329-4.645a1.226,1.226,0,0,0,.123-.548V47.29h2.452v4.9a1.226,1.226,0,0,0,.359.866l4.9,4.9a1.226,1.226,0,0,0,.867.359h4.9a1.226,1.226,0,0,0,.866-.359l4.9-4.9a1.226,1.226,0,0,0,.359-.867v-4.9h1.226A3.677,3.677,0,0,0,77,43.613v-4.9a3.677,3.677,0,0,0-3.677-3.677ZM4.677,44.839a1.226,1.226,0,0,1-1.226-1.226v-4.9a1.226,1.226,0,0,1,1.226-1.226H5.9v7.355Zm15.935,6.847-4.185,4.185H12.54L8.355,51.686V30.637l4.185-4.185h3.888l4.185,4.185Zm2.452-6.847V37.484h7.355v7.355Zm29.419,0V37.484h2.452v7.355Zm17.161,6.847L65.46,55.871H61.572l-4.185-4.185V30.637l4.185-4.185H65.46l4.185,4.185Zm4.9-8.073a1.226,1.226,0,0,1-1.226,1.226H72.1V37.484h1.226a1.226,1.226,0,0,1,1.226,1.226Z" transform="translate(0 5.194)"/>
      <path id="Trazado_904077" data-name="Trazado 904077" d="M11.452,31H9V48.161a1.226,1.226,0,0,0,.359.866l2.452,2.452,1.733-1.733-2.092-2.092Z" transform="translate(1.806 6.774)"/>
      <path id="Trazado_904078" data-name="Trazado 904078" d="M51.452,31H49V48.161a1.226,1.226,0,0,0,.359.866l2.452,2.452,1.733-1.733-2.092-2.092Z" transform="translate(10.839 6.774)"/>
      <path id="Trazado_904079" data-name="Trazado 904079" d="M35.161,35.323A17.161,17.161,0,1,0,18,18.161,17.161,17.161,0,0,0,35.161,35.323Zm0-31.871a14.71,14.71,0,1,1-14.71,14.71,14.71,14.71,0,0,1,14.71-14.71Z" transform="translate(3.839)"/>
      <path id="Trazado_904080" data-name="Trazado 904080" d="M25.963,20.955l7.262,6.355a1.226,1.226,0,0,0,1.616,0L42.1,20.955a8.674,8.674,0,0,0,2.963-6.527A6.426,6.426,0,0,0,34.094,9.883l-.061.061-.061-.061A6.426,6.426,0,0,0,23,14.427a8.673,8.673,0,0,0,2.962,6.527Zm3.464-10.5a3.948,3.948,0,0,1,2.811,1.165l.928.928a1.226,1.226,0,0,0,1.733,0l.928-.928a3.975,3.975,0,0,1,6.786,2.811,6.221,6.221,0,0,1-2.125,4.682l-6.455,5.649L27.577,19.11a6.221,6.221,0,0,1-2.126-4.683,3.98,3.98,0,0,1,3.975-3.975Z" transform="translate(4.968 1.58)"/>
    </g>
  </g>
</svg>
