<svg xmlns="http://www.w3.org/2000/svg" width="64.152" height="64.146" viewBox="0 0 64.152 64.146">
  <g id="Grupo_1112448" data-name="Grupo 1112448" transform="translate(0 -0.023)">
    <g id="Grupo_1112446" data-name="Grupo 1112446" transform="translate(1.092 0.964)">
      <g id="Grupo_1112443" data-name="Grupo 1112443">
        <path id="Trazado_903712" data-name="Trazado 903712" d="M8.714,361.911l8.609,3.766,1.883-4.3-5.165-2.26-1.722-.753a1.885,1.885,0,0,0-2.475.968Z" transform="translate(-8.714 -314.27)" fill="#bbbbbe" fill-rule="evenodd"/>
        <path id="Trazado_903713" data-name="Trazado 903713" d="M51.229,251.473l5.165,2.26,3.59-8.207,9.6-2.293-1.141,6.376,2,12.694,5.589-1.051-1.9-10.715,6.142-8.313-12.027-7.078-12.557,6.12Z" transform="translate(-45.903 -206.63)" fill="#bbbbbe" fill-rule="evenodd"/>
        <path id="Trazado_903714" data-name="Trazado 903714" d="M181.046,444.571l-1.847.347a1.885,1.885,0,0,0-1.5,2.194l.521,2.77,9.235-1.736-.82-4.626Z" transform="translate(-156.5 -388.898)" fill="#bbbbbe" fill-rule="evenodd"/>
        <path id="Trazado_903715" data-name="Trazado 903715" d="M187.1,114.219l12.027,7.078,7.274-9.845,2.833.834,2.814-4.6-6.963-3.563a2.5,2.5,0,1,1-4.248-2.623l-6.011-4.6-2.883,5.121,1.673,2Z" transform="translate(-164.755 -85.703)" fill="#aae79a" fill-rule="evenodd"/>
        <path id="Trazado_903716" data-name="Trazado 903716" d="M195.771,19.346l3.758,4.5,2.883-5.121-1.285-.984,3.192-7.228a2.132,2.132,0,1,0-3.905-1.71Z" transform="translate(-172.336 -7.531)" fill="#f5d9ab" fill-rule="evenodd"/>
        <path id="Trazado_903717" data-name="Trazado 903717" d="M294.175,118.916a2.5,2.5,0,1,0,4.248,2.623l1.3-2.108a4.963,4.963,0,0,1-4.248-2.623Z" transform="translate(-258.088 -103.117)" fill="#f0b582" fill-rule="evenodd"/>
        <path id="Trazado_903718" data-name="Trazado 903718" d="M366.6,140.825l-2.815,4.6,5.908,1.738,6.532-9a2.132,2.132,0,0,0-3.45-2.5l-4.407,6.069Z" transform="translate(-319.297 -118.841)" fill="#f5d9ab" fill-rule="evenodd"/>
        <path id="Trazado_903719" data-name="Trazado 903719" d="M311.632,66.868l1.361-2.2-8.5-5.246-1.361,2.2a4.992,4.992,0,1,0,8.5,5.246Z" transform="translate(-265.602 -52.917)" fill="#f5d9ab" fill-rule="evenodd"/>
        <path id="Trazado_903720" data-name="Trazado 903720" d="M319.167,42.9l8.5,5.246a4.992,4.992,0,1,0-8.5-5.246Z" transform="translate(-280.272 -36.404)" fill="#bbbbbe" fill-rule="evenodd"/>
        <path id="Trazado_903721" data-name="Trazado 903721" d="M295.525,341.44h-6.577v5.638h26.865V324.527H308.68v5.638H302.1V335.8h-6.577Z" transform="translate(-253.839 -284.813)" fill="#e5ecf5" fill-rule="evenodd"/>
        <path id="Trazado_903722" data-name="Trazado 903722" d="M212.354,301.151l2.77-.521-1.9-10.715,6.142-8.313-2.443-1.437-6.686,9.05Z" transform="translate(-184.989 -246.008)" fill="#78777c" fill-rule="evenodd"/>
        <path id="Trazado_903723" data-name="Trazado 903723" d="M227.98,448.661l2.742-.515-.82-4.626-2.77.521Z" transform="translate(-199.767 -388.897)" fill="#78777c" fill-rule="evenodd"/>
        <path id="Trazado_903724" data-name="Trazado 903724" d="M263.606,198.695l2.443,1.438,7.274-9.846,2.833.834,1.524-2.49-5.453-1.6Z" transform="translate(-231.672 -164.538)" fill="#6ad34d" fill-rule="evenodd"/>
        <path id="Trazado_903725" data-name="Trazado 903725" d="M365.305,199.831l-1.524,2.49,5.908,1.738,1.739-2.4Z" transform="translate(-319.297 -175.739)" fill="#f0b582" fill-rule="evenodd"/>
        <path id="Trazado_903726" data-name="Trazado 903726" d="M288.948,482.026h26.865v2.819H288.948Z" transform="translate(-253.839 -422.579)" fill="#b0c5e0" fill-rule="evenodd"/>
        <path id="Trazado_903727" data-name="Trazado 903727" d="M319.167,42.926l2.4,1.481a5.012,5.012,0,0,1,5.564-2.192A5,5,0,0,0,319.167,42.926Z" transform="translate(-280.272 -36.425)" fill="#78777c" fill-rule="evenodd"/>
        <path id="Trazado_903728" data-name="Trazado 903728" d="M306.048,69.059a5.01,5.01,0,0,1-.533-5.956l1.361-2.2-2.4-1.481-1.361,2.2A5,5,0,0,0,306.048,69.059Z" transform="translate(-265.582 -52.917)" fill="#f0b582" fill-rule="evenodd"/>
      </g>
      <g id="Grupo_1112444" data-name="Grupo 1112444" transform="translate(33.182 24.77)">
        <path id="Trazado_903729" data-name="Trazado 903729" d="M275.078,210.9l-1.511-1.117,1.117-1.511,1.511,1.117Zm2.233-3.023-1.511-1.117,1.117-1.511,1.511,1.117Z" transform="translate(-273.567 -205.246)" fill="#fff"/>
      </g>
      <g id="Grupo_1112445" data-name="Grupo 1112445" transform="translate(2.302 26.739)">
        <path id="Trazado_903730" data-name="Trazado 903730" d="M62.018,245.761l-3.259-.5.287-1.857,3.259.5Zm1.333-3.676L59.7,238.2l1.369-1.287,3.654,3.888Zm3-2.624-.477-3.445,1.861-.258.477,3.445ZM30.943,228.985,27.09,227.46l.692-1.747,3.853,1.525Zm2.009-3.43-1.728-3.823,1.712-.774,1.728,3.823Z" transform="translate(-27.09 -220.958)" fill="#e46a4a"/>
      </g>
    </g>
    <g id="Grupo_1112447" data-name="Grupo 1112447" transform="translate(0 0.023)">
      <path id="Trazado_903731" data-name="Trazado 903731" d="M43.254,27.8,52,30.372l6.921-9.532a3.071,3.071,0,0,0-4.971-3.609L50.016,22.65l-7.109-3.638.5-.807a6.064,6.064,0,0,0,.978-.147,5.89,5.89,0,0,0,3.683-2.65l1.361-2.2A5.932,5.932,0,0,0,39.333,6.97l-1.361,2.2a5.928,5.928,0,0,0-.414,5.422l-.487.788-5.884-4.5L34.08,4.328A3.075,3.075,0,0,0,32.5.28a3.079,3.079,0,0,0-4.044,1.58L23.578,12.933l5.364,6.424-6,9.393-5.2,2.532.823,1.689,4.981-2.427,10.693,6.293-5.762,7.8,1.808,10.2-3.724.7L24.733,43.953,26.1,36.32,14.646,39.055l-3.4,7.775L7.8,45.323l3.95-9.03,5.123-2.5-.823-1.689-5.745,2.8L6.08,44.57l-.861-.377a2.825,2.825,0,0,0-3.712,1.453L0,49.089l10.33,4.519,5.662-12.943,7.75-1.851-.916,5.119,1.886,11.948-.95.179a2.822,2.822,0,0,0-2.25,3.291l.694,3.694L33.28,60.964,30.468,45.1Zm7.339-2.744,4.879-6.72a1.192,1.192,0,0,1,1.929,1.4L51.259,28.2l-4.1-1.2,1.72-2.809ZM44.387,6.035a4.061,4.061,0,0,1,3.841,5.323L41.521,7.217a4.066,4.066,0,0,1,2.866-1.182Zm-4.816,4.126.867-1.4,6.9,4.258-.867,1.4a4.053,4.053,0,1,1-6.9-4.258Zm.332,7.177a5.921,5.921,0,0,0,1.434.64l-.564.913a1.556,1.556,0,0,1-2.649-1.635l.564-.913a5.918,5.918,0,0,0,1.215,1ZM30.175,2.617a1.19,1.19,0,0,1,2.2.047,1.172,1.172,0,0,1-.017.9l-3.491,7.9,1.224.937L28.28,15.633l-2.512-3.009ZM24.9,29.165l6.362-9.954-1.7-2.034L31.6,13.564l4.565,3.494a3.434,3.434,0,0,0,3.271,4.45,3.477,3.477,0,0,0,.8-.094,3.423,3.423,0,0,0,1.576-.85l5.39,2.758L45.3,26.441l-2.773-.816-7.162,9.693ZM9.362,51.134,2.475,48.121,3.228,46.4a.946.946,0,0,1,1.238-.484l6.026,2.636Zm21.251,5.551L31.1,59.46l-7.4,1.391L23.361,59a.941.941,0,0,1,.75-1.1Z" transform="translate(0 -0.023)"/>
      <path id="Trazado_903732" data-name="Trazado 903732" d="M444.55,497.026h1.879v1.879H444.55Z" transform="translate(-388.855 -434.76)"/>
      <path id="Trazado_903733" data-name="Trazado 903733" d="M302.344,317.027v5.638h-6.577V328.3h-6.577v5.638h-6.577v7.517h18.409v-1.879h-16.53v-3.759h24.986v3.759h-2.819v1.879h4.7v-24.43Zm7.134,16.913H291.069v-3.759h18.409Zm0-5.638H297.646v-3.758h11.832Zm0-5.638h-5.254v-3.759h5.254v3.759Z" transform="translate(-247.205 -277.312)"/>
    </g>
  </g>
</svg>
