<svg xmlns="http://www.w3.org/2000/svg" width="60.102" height="60.051" viewBox="0 0 60.102 60.051">
  <g id="Grupo_1112910" data-name="Grupo 1112910" transform="translate(-6.5 -6.551)">
    <g id="Grupo_1112907" data-name="Grupo 1112907" transform="translate(7.5 7.5)">
      <circle id="Elipse_14941" data-name="Elipse 14941" cx="15" cy="15" r="15" transform="translate(28.051 0.051)" fill="#ff9d87"/>
      <path id="Trazado_904898" data-name="Trazado 904898" d="M258.728,135.971A15.23,15.23,0,0,1,243.6,122.5a15.228,15.228,0,1,0,30.254,0A15.23,15.23,0,0,1,258.728,135.971Z" transform="translate(-215.855 -109.029)" fill="#ff6a47"/>
      <path id="Trazado_904899" data-name="Trazado 904899" d="M65.6,463.5H7.5v1.171a3.514,3.514,0,0,0,3.514,3.514H62.087a3.514,3.514,0,0,0,3.514-3.514Z" transform="translate(-7.5 -410.084)" fill="#fff"/>
      <path id="Trazado_904900" data-name="Trazado 904900" d="M75.556,375.214c-13.764,0-13.764-11.714-27.528-11.714S34.264,375.214,20.5,375.214Z" transform="translate(-18.977 -321.798)" fill="#94b7f7"/>
      <path id="Trazado_904901" data-name="Trazado 904901" d="M20.5,437.014H75.556A17.142,17.142,0,0,1,64.687,433.5H31.369A17.142,17.142,0,0,1,20.5,437.014Z" transform="translate(-18.977 -383.598)" fill="#5b92f2"/>
      <path id="Trazado_904902" data-name="Trazado 904902" d="M327.014,48.5H331.7V60.214h3.514l-5.857,9.371L323.5,60.214h3.514Z" transform="translate(-286.484 -43.697)" fill="#fff"/>
      <path id="Trazado_904903" data-name="Trazado 904903" d="M329.357,152.951,323.5,148.5l5.857,9.371,5.857-9.371Z" transform="translate(-286.484 -131.983)" fill="#cdd9dd"/>
      <path id="Trazado_904904" data-name="Trazado 904904" d="M13.357,287.895,7.5,284.518v-6.753l5.857-3.376,5.857,3.376v6.753Z" transform="translate(-7.5 -243.126)" fill="#a8e1f8"/>
      <path id="Trazado_904905" data-name="Trazado 904905" d="M7.5,330.86v3.514l5.857,3.376,5.857-3.376V330.86l-5.857,3.376Z" transform="translate(-7.5 -292.982)" fill="#75d2f5"/>
      <path id="Trazado_904906" data-name="Trazado 904906" d="M21.309,74.5l-4.718-4.842,1.837-6.5L24.982,61.5,29.7,66.342l-1.837,6.5Z" transform="translate(-15.526 -55.174)" fill="#a8e1f8"/>
      <path id="Trazado_904907" data-name="Trazado 904907" d="M22.108,111.168l-4.7-4.821-.82,2.9,4.718,4.842,6.554-1.656.828-2.93Z" transform="translate(-15.526 -94.768)" fill="#75d2f5"/>
      <path id="Trazado_904908" data-name="Trazado 904908" d="M126.05,196.441l-6.754-.3-3.105-6,3.648-5.692,6.754.3,3.105,6Z" transform="translate(-103.459 -163.72)" fill="#a8e1f8"/>
      <path id="Trazado_904909" data-name="Trazado 904909" d="M140.188,214.219l-3.574,5.576-6.891-.311,1.52,2.936,6.754.3,3.648-5.692Z" transform="translate(-115.406 -190.004)" fill="#75d2f5"/>
    </g>
    <g id="Grupo_1112908" data-name="Grupo 1112908" transform="translate(7.5 7.5)">
      <path id="Trazado_904910" data-name="Trazado 904910" d="M65.6,463.5H7.5v1.171a3.514,3.514,0,0,0,3.514,3.514H62.087a3.514,3.514,0,0,0,3.514-3.514Z" transform="translate(-7.5 -410.084)" fill="none" stroke="#000" stroke-miterlimit="10" stroke-width="2" stroke-dasharray="340 15"/>
      <path id="Trazado_904911" data-name="Trazado 904911" d="M20.5,375.214c13.764,0,13.764-11.714,27.528-11.714s13.764,11.714,27.528,11.714" transform="translate(-18.977 -321.798)" fill="none" stroke="#000" stroke-miterlimit="10" stroke-width="2" stroke-dasharray="340 15"/>
      <path id="Trazado_904912" data-name="Trazado 904912" d="M327.014,48.5H331.7V60.214h3.514l-5.857,9.371L323.5,60.214h3.514Z" transform="translate(-286.484 -43.697)" fill="none" stroke="#000" stroke-miterlimit="10" stroke-width="2"/>
      <circle id="Elipse_14942" data-name="Elipse 14942" cx="15" cy="15" r="15" transform="translate(28.051 0.051)" fill="none" stroke="#000" stroke-miterlimit="10" stroke-width="2" stroke-dasharray="340 15"/>
      <line id="Línea_708" data-name="Línea 708" y1="3.376" x2="5.857" transform="translate(5.857 34.64)" fill="none" stroke="#000" stroke-miterlimit="10" stroke-width="2"/>
      <line id="Línea_709" data-name="Línea 709" x1="5.857" y1="3.376" transform="translate(0 34.64)" fill="none" stroke="#000" stroke-miterlimit="10" stroke-width="2"/>
      <path id="Trazado_904913" data-name="Trazado 904913" d="M13.357,287.895,7.5,284.518v-6.753l5.857-3.376,5.857,3.376v6.753Z" transform="translate(-7.5 -243.126)" fill="none" stroke="#000" stroke-miterlimit="10" stroke-width="2"/>
      <line id="Línea_710" data-name="Línea 710" y2="6.753" transform="translate(5.857 38.016)" fill="none" stroke="#000" stroke-miterlimit="10" stroke-width="2"/>
      <line id="Línea_711" data-name="Línea 711" y1="1.656" x2="6.555" transform="translate(7.619 11.168)" fill="none" stroke="#000" stroke-miterlimit="10" stroke-width="2"/>
      <line id="Línea_712" data-name="Línea 712" x1="4.718" y1="4.842" transform="translate(2.902 7.982)" fill="none" stroke="#000" stroke-miterlimit="10" stroke-width="2"/>
      <path id="Trazado_904914" data-name="Trazado 904914" d="M21.309,74.5l-4.718-4.842,1.837-6.5L24.982,61.5,29.7,66.342l-1.837,6.5Z" transform="translate(-15.526 -55.174)" fill="none" stroke="#000" stroke-miterlimit="10" stroke-width="2"/>
      <line id="Línea_713" data-name="Línea 713" x1="1.837" y2="6.498" transform="translate(5.783 12.824)" fill="none" stroke="#000" stroke-miterlimit="10" stroke-width="2"/>
      <line id="Línea_714" data-name="Línea 714" y1="5.692" x2="3.648" transform="translate(19.486 21.033)" fill="none" stroke="#000" stroke-miterlimit="10" stroke-width="2"/>
      <line id="Línea_715" data-name="Línea 715" x1="6.754" y1="0.305" transform="translate(12.732 26.419)" fill="none" stroke="#000" stroke-miterlimit="10" stroke-width="2"/>
      <path id="Trazado_904915" data-name="Trazado 904915" d="M126.05,196.441l-6.754-.3-3.105-6,3.648-5.692,6.754.3,3.105,6Z" transform="translate(-103.459 -163.72)" fill="none" stroke="#000" stroke-miterlimit="10" stroke-width="2"/>
      <line id="Línea_716" data-name="Línea 716" x2="3.105" y2="5.996" transform="translate(19.486 26.724)" fill="none" stroke="#000" stroke-miterlimit="10" stroke-width="2"/>
      <line id="Línea_717" data-name="Línea 717" x2="1.757" transform="translate(3.514 24.711)" fill="none" stroke="#000" stroke-miterlimit="10" stroke-width="2"/>
      <line id="Línea_718" data-name="Línea 718" x2="1.757" transform="translate(17.571 37.596)" fill="none" stroke="#000" stroke-miterlimit="10" stroke-width="2"/>
      <line id="Línea_719" data-name="Línea 719" x2="1.757" transform="translate(18.742 15.456)" fill="none" stroke="#000" stroke-miterlimit="10" stroke-width="2"/>
    </g>
    <g id="Grupo_1112909" data-name="Grupo 1112909" transform="translate(27.414 53.419)">
      <line id="Línea_720" data-name="Línea 720" x2="2" transform="translate(0.137 3.132)" fill="none" stroke="#fff" stroke-miterlimit="10" stroke-width="2"/>
      <line id="Línea_721" data-name="Línea 721" x2="1" transform="translate(6.137 0.132)" fill="none" stroke="#fff" stroke-miterlimit="10" stroke-width="2"/>
      <line id="Línea_722" data-name="Línea 722" x2="2" transform="translate(10.137 3.132)" fill="none" stroke="#fff" stroke-miterlimit="10" stroke-width="2"/>
      <line id="Línea_723" data-name="Línea 723" x2="1" transform="translate(16.137 2.132)" fill="none" stroke="#fff" stroke-miterlimit="10" stroke-width="2"/>
    </g>
  </g>
</svg>
