<svg xmlns="http://www.w3.org/2000/svg" width="87.661" height="87.676" viewBox="0 0 87.661 87.676">
  <g id="Grupo_1112690" data-name="Grupo 1112690" transform="translate(-6.5 -6.501)">
    <g id="Grupo_1112686" data-name="Grupo 1112686" transform="translate(7.5 7.501)">
      <path id="Trazado_904190" data-name="Trazado 904190" d="M56.624,381.954H52.171l-1.712,3.525v7.283a2.024,2.024,0,0,0,2.024,2.024H56.2a2.024,2.024,0,0,0,2.024-2.024v-7.283Z" transform="translate(-43.055 -317.414)" fill="#7b6c79"/>
      <path id="Trazado_904191" data-name="Trazado 904191" d="M422.321,382.162H418.4l-1.942,3.489v7.283a2.024,2.024,0,0,0,2.024,2.024H422.2a2.024,2.024,0,0,0,2.024-2.024v-7.283Z" transform="translate(-345.971 -317.586)" fill="#7b6c79"/>
      <path id="Trazado_904192" data-name="Trazado 904192" d="M423.4,157.737H419.09a3.49,3.49,0,0,0-3.49,3.49l-4.873,4.369v28.811l4.873,5.5h7.8a3.49,3.49,0,0,0,3.49-3.49V161.227A3.49,3.49,0,0,0,423.4,157.737Z" transform="translate(-341.228 -131.843)" fill="#b0e7af"/>
      <rect id="Rectángulo_405224" data-name="Rectángulo 405224" width="9.739" height="13.056" transform="translate(20.377 44.101)" fill="#4bce5b"/>
      <path id="Trazado_904193" data-name="Trazado 904193" d="M346.645,263.368H329.759v13.056H344.7l3.885-2.169v-8.963Z" transform="translate(-274.215 -219.267)" fill="#4bce5b"/>
      <path id="Trazado_904194" data-name="Trazado 904194" d="M70.172,258.787H58.394v13.846H68.735l3.862-2.169V261.5Z" transform="translate(-49.622 -215.476)" fill="#00b426"/>
      <path id="Trazado_904195" data-name="Trazado 904195" d="M67.391,132.135a6.5,6.5,0,0,0-6.481,6.481v1.48l-2.517,3.527v10.341l2.517,2.714H72.6l2.917-2.714L77.6,132.135Z" transform="translate(-49.621 -110.653)" fill="#4bce5b"/>
      <path id="Trazado_904196" data-name="Trazado 904196" d="M155.931,307.629l-3.567-3.937H135.5l-3.569,3.937h-7.742l-3.46,2.169v8.5l3.46,2.4h51.4V307.629Z" transform="translate(-101.211 -252.641)" fill="#92df93"/>
      <path id="Trazado_904197" data-name="Trazado 904197" d="M58.7,326.534l-2.977,1.717v8.209l2.977,3.151H70.389V326.534Z" transform="translate(-47.414 -271.546)" fill="#73d578"/>
      <path id="Trazado_904198" data-name="Trazado 904198" d="M182.706,132.135h-36.9a6.505,6.505,0,0,0-5.007,6.309v18.235h7.18l3.494,5.025h17.5l4.844-5.025H192.2V139.584Z" transform="translate(-117.826 -110.653)" fill="#73d578"/>
      <path id="Trazado_904199" data-name="Trazado 904199" d="M15.3,157.737H10.99a3.49,3.49,0,0,0-3.49,3.49v35.19a3.49,3.49,0,0,0,3.49,3.49h7.8v-38.68A3.491,3.491,0,0,0,15.3,157.737Z" transform="translate(-7.5 -131.843)" fill="#92df93"/>
      <circle id="Elipse_14913" data-name="Elipse 14913" cx="6.84" cy="6.84" r="6.84" transform="translate(45.136 0)" fill="#ffb1a0"/>
      <path id="Trazado_904200" data-name="Trazado 904200" d="M213.618,99.6,197.8,99.062a3,3,0,0,0-2.214.867l-7.942,7.856L186.476,111l1.9,2.456,3.3-1.167,5.018-4.963a.49.49,0,0,1,.816.483L191.347,129.3l2.009,3.076h10l2.412-1.745-2.527-5.15,4.883-20.725Z" transform="translate(-155.628 -83.279)" fill="#1ca8ff"/>
      <path id="Trazado_904201" data-name="Trazado 904201" d="M292.111,107.713l-8.438-5.141a3.017,3.017,0,0,0-1.091-.4s-6.3,1.127-7.622,5.609-4.826,18.213-4.826,18.213-1.953,5.7,3.62,6.841a2.715,2.715,0,0,1,.975.377l1.84-1.331c2.009-8.434,4-16.008,5.147-20.3a2.093,2.093,0,0,1,3.112-1.244l4.156,2.532h0l3.515.208,1.594-2.721Z" transform="translate(-224.592 -85.853)" fill="#60b9fe"/>
      <path id="Trazado_904202" data-name="Trazado 904202" d="M204.138,274.535H178.711l-.734,5.331,3.189,3.632h19.606l4.266-4.754Z" transform="translate(-148.594 -228.51)" fill="#4d66d2"/>
      <path id="Trazado_904203" data-name="Trazado 904203" d="M278.045,274.786h0a3.631,3.631,0,0,0-4.824,2.4c-1.9,6.82-5.494,18.291-7.551,24.847l.556,3.523,3.763,1.12,2.319-2.041h0l8.218-25.325A3.978,3.978,0,0,0,278.045,274.786Z" transform="translate(-221.172 -228.509)" fill="#8896e0"/>
      <path id="Trazado_904204" data-name="Trazado 904204" d="M167.764,304.641h0l2.513,2.041,3.045-1.207,1.079-3.437c-2.057-6.557-5.647-18.027-7.551-24.847a3.631,3.631,0,0,0-4.824-2.4h0a3.978,3.978,0,0,0-2.481,4.528Z" transform="translate(-133.239 -228.51)" fill="#6b7ed9"/>
      <path id="Trazado_904205" data-name="Trazado 904205" d="M256.117,439.077a4.024,4.024,0,0,0,2.436,4.722l5.559,2.18a3.7,3.7,0,0,0,4.847-2.222,3.762,3.762,0,0,0-2.225-4.706l-1.843-.723a1.13,1.13,0,0,1-.683-1.331l.095-.291-6.637-2.6C256.778,436.928,256.176,438.842,256.117,439.077Z" transform="translate(-213.166 -360.575)" fill="#ffb1a0"/>
      <path id="Trazado_904206" data-name="Trazado 904206" d="M192.654,439.077a4.024,4.024,0,0,1-2.436,4.722l-5.559,2.18a3.7,3.7,0,0,1-4.847-2.222,3.761,3.761,0,0,1,2.225-4.706l1.843-.723a1.13,1.13,0,0,0,.683-1.331l-.095-.291,6.637-2.6C191.994,436.928,192.6,438.842,192.654,439.077Z" transform="translate(-149.944 -360.575)" fill="#f79480"/>
      <path id="Trazado_904207" data-name="Trazado 904207" d="M119.806,149.675l-2.51,2.483-10.636,3.255a3.016,3.016,0,1,0,1.733,5.778l11.356-3.471a3.014,3.014,0,0,0,1.254-.745l2.825-2.794A5.446,5.446,0,0,1,119.806,149.675Z" transform="translate(-87.789 -125.17)" fill="#ffb1a0"/>
      <path id="Trazado_904208" data-name="Trazado 904208" d="M390.434,46.641a3.014,3.014,0,0,0-3.283,2.724L385.9,62.773l-1.689-1.029a7.686,7.686,0,0,1-3.129,5.158l5.8,3.536a3.022,3.022,0,0,0,4.178-1.058l2.091-19.455A3.016,3.016,0,0,0,390.434,46.641Z" transform="translate(-316.694 -39.884)" fill="#ffb1a0"/>
    </g>
    <g id="Grupo_1112689" data-name="Grupo 1112689" transform="translate(7.5 7.501)">
      <path id="Trazado_904209" data-name="Trazado 904209" d="M15.3,157.737H10.99a3.49,3.49,0,0,0-3.49,3.49v35.19a3.49,3.49,0,0,0,3.49,3.49h7.8v-38.68A3.49,3.49,0,0,0,15.3,157.737Z" transform="translate(-7.5 -131.843)" fill="none" stroke="#000" stroke-linecap="round" stroke-linejoin="round" stroke-miterlimit="10" stroke-width="2"/>
      <path id="Trazado_904210" data-name="Trazado 904210" d="M213.153,326.535c1.265,4.233,2.727,8.969,4.008,13.077h6.753c1.28-4.108,2.743-8.843,4.008-13.077Z" transform="translate(-177.707 -271.547)" fill="none" stroke="#000" stroke-linecap="round" stroke-linejoin="round" stroke-miterlimit="10" stroke-width="2"/>
      <path id="Trazado_904211" data-name="Trazado 904211" d="M323.611,326.535l-4.243,13.077h20.619V326.535Z" transform="translate(-265.615 -271.547)" fill="none" stroke="#000" stroke-linecap="round" stroke-linejoin="round" stroke-miterlimit="10" stroke-width="2"/>
      <g id="Grupo_1112687" data-name="Grupo 1112687" transform="translate(11.289 46.025)">
        <path id="Trazado_904212" data-name="Trazado 904212" d="M73,283.5H89.372l-1.357-4.182a3.978,3.978,0,0,1,2.481-4.528h0a3.627,3.627,0,0,1,1.329-.252H73V283.5Z" transform="translate(-72.996 -274.535)" fill="none" stroke="#000" stroke-linecap="round" stroke-linejoin="round" stroke-miterlimit="10" stroke-width="2"/>
        <path id="Trazado_904213" data-name="Trazado 904213" d="M329.76,274.535a3.624,3.624,0,0,1,1.329.252h0a3.978,3.978,0,0,1,2.481,4.528l-1.357,4.182h16.375v-8.963Z" transform="translate(-285.505 -274.535)" fill="none" stroke="#000" stroke-linecap="round" stroke-linejoin="round" stroke-miterlimit="10" stroke-width="2"/>
      </g>
      <path id="Trazado_904214" data-name="Trazado 904214" d="M416.459,402.4v7.283a2.024,2.024,0,0,0,2.024,2.024H422.2a2.024,2.024,0,0,0,2.024-2.024V402.4Z" transform="translate(-345.972 -334.339)" fill="none" stroke="#000" stroke-linecap="round" stroke-linejoin="round" stroke-miterlimit="10" stroke-width="2"/>
      <path id="Trazado_904215" data-name="Trazado 904215" d="M50.459,409.687a2.024,2.024,0,0,0,2.024,2.024H56.2a2.024,2.024,0,0,0,2.024-2.024V402.4H50.459Z" transform="translate(-43.055 -334.339)" fill="none" stroke="#000" stroke-linecap="round" stroke-linejoin="round" stroke-miterlimit="10" stroke-width="2"/>
      <path id="Trazado_904216" data-name="Trazado 904216" d="M103.581,135.183a.49.49,0,0,0-.816-.484l-7.843,7.758a3.014,3.014,0,0,1-1.254.745l-11.356,3.471a3.016,3.016,0,1,1-1.733-5.778l10.636-3.255,5.566-5.506h-17.3A6.5,6.5,0,0,0,73,138.615v18.063h24.43Z" transform="translate(-61.707 -110.653)" fill="none" stroke="#000" stroke-linecap="round" stroke-linejoin="round" stroke-miterlimit="10" stroke-width="2"/>
      <path id="Trazado_904217" data-name="Trazado 904217" d="M327.278,154.157l-9.96-6.068a2.093,2.093,0,0,0-3.112,1.244c-1.151,4.288-3.138,11.861-5.147,20.3h22.4V153.1A3.023,3.023,0,0,1,327.278,154.157Z" transform="translate(-257.084 -123.604)" fill="none" stroke="#000" stroke-linecap="round" stroke-linejoin="round" stroke-miterlimit="10" stroke-width="2"/>
      <path id="Trazado_904218" data-name="Trazado 904218" d="M268.96,311.692a3.761,3.761,0,0,0-2.225-4.706l-1.843-.723a1.13,1.13,0,0,1-.683-1.331l8.313-25.617a3.978,3.978,0,0,0-2.481-4.528h0a3.631,3.631,0,0,0-4.824,2.4c-2.724,9.759-8.9,29.042-9.1,29.821a4.024,4.024,0,0,0,2.436,4.722l5.559,2.18A3.7,3.7,0,0,0,268.96,311.692Z" transform="translate(-213.167 -228.51)" fill="none" stroke="#000" stroke-linecap="round" stroke-linejoin="round" stroke-miterlimit="10" stroke-width="2"/>
      <path id="Trazado_904219" data-name="Trazado 904219" d="M256.117,439.077a4.024,4.024,0,0,0,2.436,4.722l5.559,2.18a3.7,3.7,0,0,0,4.847-2.222,3.762,3.762,0,0,0-2.225-4.706l-1.843-.723a1.13,1.13,0,0,1-.683-1.331l.095-.291-6.637-2.6C256.778,436.928,256.176,438.842,256.117,439.077Z" transform="translate(-213.166 -360.575)" fill="none" stroke="#000" stroke-linecap="round" stroke-linejoin="round" stroke-miterlimit="10" stroke-width="2"/>
      <path id="Trazado_904220" data-name="Trazado 904220" d="M163.108,311.692a3.762,3.762,0,0,1,2.225-4.706l1.843-.723a1.13,1.13,0,0,0,.683-1.331l-8.313-25.617a3.978,3.978,0,0,1,2.481-4.528h0a3.631,3.631,0,0,1,4.824,2.4c2.724,9.759,8.9,29.042,9.1,29.821a4.024,4.024,0,0,1-2.436,4.722l-5.559,2.18A3.7,3.7,0,0,1,163.108,311.692Z" transform="translate(-133.24 -228.51)" fill="none" stroke="#000" stroke-linecap="round" stroke-linejoin="round" stroke-miterlimit="10" stroke-width="2"/>
      <path id="Trazado_904221" data-name="Trazado 904221" d="M192.655,439.077a4.024,4.024,0,0,1-2.436,4.722l-5.559,2.18a3.7,3.7,0,0,1-4.847-2.222,3.761,3.761,0,0,1,2.225-4.706l1.843-.723a1.13,1.13,0,0,0,.683-1.331l-.095-.291,6.637-2.6C191.995,436.928,192.6,438.842,192.655,439.077Z" transform="translate(-149.945 -360.575)" fill="none" stroke="#000" stroke-linecap="round" stroke-linejoin="round" stroke-miterlimit="10" stroke-width="2"/>
      <g id="Grupo_1112688" data-name="Grupo 1112688" transform="translate(30.117 46.025)">
        <path id="Trazado_904222" data-name="Trazado 904222" d="M185.729,277.189c.511,1.829,1.143,3.993,1.834,6.307h14.769c.691-2.314,1.323-4.478,1.834-6.307a3.632,3.632,0,0,1,3.5-2.655H182.234A3.633,3.633,0,0,1,185.729,277.189Z" transform="translate(-182.234 -274.534)" fill="none" stroke="#000" stroke-linecap="round" stroke-linejoin="round" stroke-miterlimit="10" stroke-width="2"/>
      </g>
      <path id="Trazado_904223" data-name="Trazado 904223" d="M161.528,46.641a3.014,3.014,0,0,0-3.283,2.724L157,62.773,146.87,56.6a3.017,3.017,0,0,0-1.091-.4l-15.817-.534a3,3,0,0,0-2.214.867L117.3,66.871l-10.636,3.255a3.016,3.016,0,1,0,1.733,5.778l11.356-3.471A3.014,3.014,0,0,0,121,71.689l7.843-7.758a.49.49,0,0,1,.816.483l-6.155,21.495h16.257c2.009-8.434,4-16.008,5.147-20.3a2.093,2.093,0,0,1,3.112-1.244l9.96,6.068a3.022,3.022,0,0,0,4.178-1.058l2.091-19.455A3.016,3.016,0,0,0,161.528,46.641Z" transform="translate(-87.789 -39.884)" fill="none" stroke="#000" stroke-linecap="round" stroke-linejoin="round" stroke-miterlimit="10" stroke-width="2"/>
      <circle id="Elipse_14914" data-name="Elipse 14914" cx="6.84" cy="6.84" r="6.84" transform="translate(45.136 0)" fill="none" stroke="#000" stroke-linecap="round" stroke-linejoin="round" stroke-miterlimit="10" stroke-width="2"/>
      <path id="Trazado_904224" data-name="Trazado 904224" d="M119.807,149.675l-2.51,2.483-10.636,3.255a3.016,3.016,0,1,0,1.733,5.778l11.356-3.471a3.014,3.014,0,0,0,1.254-.745l2.825-2.794A5.446,5.446,0,0,1,119.807,149.675Z" transform="translate(-87.79 -125.17)" fill="none" stroke="#000" stroke-linecap="round" stroke-linejoin="round" stroke-miterlimit="10" stroke-width="2"/>
      <path id="Trazado_904225" data-name="Trazado 904225" d="M390.435,46.641a3.014,3.014,0,0,0-3.283,2.724L385.9,62.773l-1.689-1.029a7.686,7.686,0,0,1-3.129,5.158l5.8,3.536a3.022,3.022,0,0,0,4.178-1.058l2.091-19.455A3.016,3.016,0,0,0,390.435,46.641Z" transform="translate(-316.695 -39.884)" fill="none" stroke="#000" stroke-linecap="round" stroke-linejoin="round" stroke-miterlimit="10" stroke-width="2"/>
      <path id="Trazado_904226" data-name="Trazado 904226" d="M87.143,339.611h6.473l-4.243-13.077H73v13.077h8.114" transform="translate(-61.708 -271.546)" fill="none" stroke="#000" stroke-linecap="round" stroke-linejoin="round" stroke-miterlimit="10" stroke-width="2"/>
      <path id="Trazado_904227" data-name="Trazado 904227" d="M450.288,175.576V161.228a3.49,3.49,0,0,0-3.49-3.49h-4.308a3.5,3.5,0,0,0-3.49,3.6h0v38.569h7.8a3.49,3.49,0,0,0,3.49-3.49v-14.81" transform="translate(-364.627 -131.844)" fill="none" stroke="#000" stroke-linecap="round" stroke-linejoin="round" stroke-miterlimit="10" stroke-width="2"/>
    </g>
  </g>
</svg>
