<svg xmlns="http://www.w3.org/2000/svg" xmlns:xlink="http://www.w3.org/1999/xlink" width="108.914" height="108.914" viewBox="0 0 108.914 108.914">
  <defs>
    <filter id="Trazado_874925" x="0" y="0" width="108.914" height="108.914" filterUnits="userSpaceOnUse">
      <feOffset dy="3" input="SourceAlpha"/>
      <feGaussianBlur stdDeviation="3" result="blur"/>
      <feFlood flood-opacity="0.161"/>
      <feComposite operator="in" in2="blur"/>
      <feComposite in="SourceGraphic"/>
    </filter>
  </defs>
  <g id="Grupo_1112892" data-name="Grupo 1112892" transform="translate(3332.469 4398.604)">
    <g transform="matrix(1, 0, 0, 1, -3332.47, -4398.6)" filter="url(#Trazado_874925)">
      <g id="Trazado_874925-2" data-name="Trazado 874925" transform="translate(9 6)" fill="#f6d530" opacity="0.859">
        <path d="M 45.45676803588867 89.41407012939453 C 39.52198028564453 89.41407012939453 33.76551818847656 88.25206756591797 28.34726715087891 85.96034240722656 C 23.11311721801758 83.74648284912109 18.41204261779785 80.57682800292969 14.37464332580566 76.5394287109375 C 10.33724308013916 72.50202941894531 7.167593002319336 67.80095672607422 4.953730583190918 62.56679534912109 C 2.662005424499512 57.14855575561523 1.500005483627319 51.39208221435547 1.500005483627319 45.45729446411133 C 1.500005483627319 39.52198028564453 2.662005424499512 33.76551818847656 4.953730583190918 28.34726905822754 C 7.167593002319336 23.11310577392578 10.33724308013916 18.41203117370605 14.37464332580566 14.37464332580566 C 18.41204261779785 10.33724403381348 23.11311721801758 7.167593955993652 28.34726715087891 4.953731060028076 C 33.76551818847656 2.662006139755249 39.52198028564453 1.500006198883057 45.45676803588867 1.500006198883057 C 51.39155578613281 1.500006198883057 57.14802932739258 2.662006139755249 62.56626892089844 4.953731060028076 C 67.80043029785156 7.167593955993652 72.50150299072266 10.33724403381348 76.53890228271484 14.37464332580566 C 80.57630920410156 18.41203117370605 83.74595642089844 23.11310577392578 85.95981597900391 28.34726905822754 C 88.25154113769531 33.76551818847656 89.41354370117188 39.52198028564453 89.41354370117188 45.45676803588867 C 89.41354370117188 51.39208221435547 88.25154113769531 57.14855575561523 85.95981597900391 62.56679534912109 C 83.74595642089844 67.80095672607422 80.57630920410156 72.50202941894531 76.53890228271484 76.5394287109375 C 72.50150299072266 80.57682800292969 67.80043029785156 83.74648284912109 62.56626892089844 85.96034240722656 C 57.14802932739258 88.25206756591797 51.39155578613281 89.41407012939453 45.45676803588867 89.41407012939453 Z" stroke="none"/>
        <path d="M 45.45676803588867 3 C 39.72381210327148 3 34.1639404296875 4.12213134765625 28.93159484863281 6.335227966308594 C 23.87622833251953 8.473472595214844 19.33542633056641 11.53517150878906 15.43529510498047 15.435302734375 C 11.53517150878906 19.33543395996094 8.473464965820312 23.87622833251953 6.335227966308594 28.93160247802734 C 4.122123718261719 34.16394424438477 3 39.72381591796875 3 45.4572868347168 C 3 51.19024658203125 4.122123718261719 56.75011825561523 6.335227966308594 61.98246002197266 C 8.473464965820312 67.03782653808594 11.53517150878906 71.57862854003906 15.43529510498047 75.478759765625 C 19.33542633056641 79.37889099121094 23.87622833251953 82.44058990478516 28.93159484863281 84.57883453369141 C 34.1639404296875 86.79193115234375 39.72381210327148 87.9140625 45.45676803588867 87.9140625 C 51.18972396850586 87.9140625 56.74959564208984 86.79193115234375 61.98194122314453 84.57883453369141 C 67.03730773925781 82.44058990478516 71.57810974121094 79.37889099121094 75.47824096679688 75.478759765625 C 79.37837219238281 71.57862854003906 82.44007110595703 67.03782653808594 84.57830810546875 61.98246002197266 C 86.79141235351562 56.75011825561523 87.91353607177734 51.19024658203125 87.91353607177734 45.4567756652832 C 87.91353607177734 39.72381591796875 86.79141235351562 34.16394424438477 84.57830810546875 28.93160247802734 C 82.44007110595703 23.87622833251953 79.37837219238281 19.33543395996094 75.47824096679688 15.435302734375 C 71.57810974121094 11.53517150878906 67.03730773925781 8.473472595214844 61.98194122314453 6.335227966308594 C 56.74959564208984 4.12213134765625 51.18972396850586 3 45.45676803588867 3 M 45.45676803588867 0 C 70.56185150146484 0 90.91353607177734 20.35169219970703 90.91353607177734 45.4567756652832 L 90.91353607177734 45.4572868347168 C 90.91353607177734 70.5623779296875 70.56185150146484 90.9140625 45.45676803588867 90.9140625 C 20.3516845703125 90.9140625 0 70.5623779296875 0 45.4572868347168 L 0 45.4567756652832 C 0 20.35169219970703 20.3516845703125 0 45.45676803588867 0 Z" stroke="none" fill="#fff"/>
      </g>
    </g>
    <g id="Grupo_1112776" data-name="Grupo 1112776" transform="translate(-3344.907 -4393.838)">
      <path id="Trazado_904634" data-name="Trazado 904634" d="M401.45,27.423a.646.646,0,0,1-.589-.9l2.572-5.865a.641.641,0,0,1,.589-.385h4.286a.643.643,0,0,1,0,1.286h-3.866l-2.4,5.48A.641.641,0,0,1,401.45,27.423Z" transform="translate(-316.923 -1.649)" fill="#dad7e5"/>
      <path id="Trazado_904635" data-name="Trazado 904635" d="M305.392,126.472h18.861v36.007H305.392Z" transform="translate(-232.866 -95.204)" fill="#f26674"/>
      <path id="Trazado_904636" data-name="Trazado 904636" d="M324.253,191.272v9.43s-3.429,6.858-18.861,6.858v-6C322.538,201.56,324.253,191.272,324.253,191.272Z" transform="translate(-232.866 -152.288)" fill="#edebf2"/>
      <path id="Trazado_904637" data-name="Trazado 904637" d="M322.538,68.872H307.107a1.715,1.715,0,0,0-1.715,1.715V75.73h18.861V70.587A1.715,1.715,0,0,0,322.538,68.872Z" transform="translate(-232.866 -44.462)" fill="#6fabe6"/>
      <path id="Trazado_904638" data-name="Trazado 904638" d="M324.253,428.872H305.392v5.144a1.715,1.715,0,0,0,1.715,1.715h15.431a1.715,1.715,0,0,0,1.715-1.715Z" transform="translate(-232.866 -361.597)" fill="#6fabe6"/>
      <path id="Trazado_904639" data-name="Trazado 904639" d="M305.392,92.272h13.717v1.286H305.392Z" transform="translate(-232.866 -65.076)" fill="#425b72"/>
      <path id="Trazado_904640" data-name="Trazado 904640" d="M442.192,92.272h2.572v1.286h-2.572Z" transform="translate(-353.378 -65.076)" fill="#425b72"/>
      <path id="Trazado_904641" data-name="Trazado 904641" d="M305.392,452.272h4.286v1.286h-4.286Z" transform="translate(-232.866 -382.211)" fill="#425b72"/>
      <path id="Trazado_904642" data-name="Trazado 904642" d="M362.992,452.272h12v1.286h-12Z" transform="translate(-283.608 -382.211)" fill="#425b72"/>
      <path id="Trazado_904643" data-name="Trazado 904643" d="M70,212.872l-3.1,32.577H50.6L48.28,212.872h3.438l.8,11.265h.009l1.268,17.883h9.979c.656-6.891,2.134-22.408,2.778-29.148Z" transform="translate(-6.369 -171.316)" fill="#9fdbf3"/>
      <path id="Trazado_904644" data-name="Trazado 904644" d="M91.98,212.872l-1.063,11.145-1.938,1.1a2.879,2.879,0,0,1-3.978-1.2,2.862,2.862,0,0,0-3.763-1.3l-3.284,1.526h-.009l-.8-11.265Z" transform="translate(-31.799 -171.316)" fill="#b2e5fb"/>
      <path id="Trazado_904645" data-name="Trazado 904645" d="M136.58,163.752a.645.645,0,0,1-.63-.774l4.1-19.789a.643.643,0,0,1,.63-.512H146a.643.643,0,1,1,0,1.286h-4.792l-4,19.277A.643.643,0,0,1,136.58,163.752Z" transform="translate(-83.588 -109.479)" fill="#dad7e5"/>
      <path id="Trazado_904646" data-name="Trazado 904646" d="M96.882,294.086l-1.715,18H85.189L83.92,294.206,87.2,292.68a2.862,2.862,0,0,1,3.763,1.3,2.879,2.879,0,0,0,3.978,1.2Z" transform="translate(-37.765 -241.386)" fill="#f26674"/>
      <g id="Grupo_1112775" data-name="Grupo 1112775" transform="translate(48.737 54.629)">
        <path id="Trazado_904647" data-name="Trazado 904647" d="M113.4,360a.642.642,0,1,1,.591-.892.622.622,0,0,1,0,.5A.639.639,0,0,1,113.4,360Z" transform="translate(-111.899 -354.432)" fill="#f47e89"/>
        <path id="Trazado_904648" data-name="Trazado 904648" d="M113.424,395.947a.614.614,0,0,1-.249-.052.639.639,0,1,1,.5,0A.617.617,0,0,1,113.424,395.947Z" transform="translate(-111.925 -386.087)" fill="#f47e89"/>
        <path id="Trazado_904649" data-name="Trazado 904649" d="M135.049,381.737a.651.651,0,0,1-.592-.394c-.378-1.157,1.563-1.156,1.183,0A.639.639,0,0,1,135.049,381.737Z" transform="translate(-130.979 -373.592)" fill="#f47e89"/>
        <path id="Trazado_904650" data-name="Trazado 904650" d="M149.408,403.13a.642.642,0,1,1,.249-1.235.641.641,0,0,1-.249,1.235Z" transform="translate(-143.623 -392.414)" fill="#f47e89"/>
        <path id="Trazado_904651" data-name="Trazado 904651" d="M120.607,424.736a.642.642,0,1,1,.249-1.235A.646.646,0,0,1,120.607,424.736Z" transform="translate(-118.252 -411.447)" fill="#f47e89"/>
        <path id="Trazado_904652" data-name="Trazado 904652" d="M149.434,432.013a.641.641,0,0,1-.592-.394.629.629,0,0,1,0-.5.64.64,0,1,1,.592.892Z" transform="translate(-143.649 -417.867)" fill="#f47e89"/>
        <path id="Trazado_904653" data-name="Trazado 904653" d="M134.988,338.4a.643.643,0,1,1,.455-1.1A.648.648,0,0,1,134.988,338.4Z" transform="translate(-130.917 -335.397)" fill="#f47e89"/>
        <path id="Trazado_904654" data-name="Trazado 904654" d="M156.64,359.963a.646.646,0,1,1,.248-.052A.616.616,0,0,1,156.64,359.963Z" transform="translate(-149.998 -354.39)" fill="#f47e89"/>
        <path id="Trazado_904655" data-name="Trazado 904655" d="M106.248,323.954a.643.643,0,0,1-.249-1.235.626.626,0,0,1,.5,0,.646.646,0,0,1,0,1.183A.616.616,0,0,1,106.248,323.954Z" transform="translate(-105.606 -322.667)" fill="#f47e89"/>
      </g>
      <path id="Trazado_904656" data-name="Trazado 904656" d="M63.623,148.516H56.543l1.244-6h4.618a.857.857,0,0,0,0-1.715H57.09a.858.858,0,0,0-.84.683l-1.458,7.033H41.907a.862.862,0,0,0-.855.918l2.323,32.577a.857.857,0,0,0,.855.8H60.519a.857.857,0,0,0,.853-.776l3.1-32.577a.862.862,0,0,0-.853-.939ZM52.437,160.8c.011.022.028.039.039.061l.023.036a3.813,3.813,0,0,0,5.608,1.172l-1.485,15.591h-8.4l-1.179-16.5,2.751-1.274A2.007,2.007,0,0,1,52.437,160.8Zm6.8-10.573-.929,9.76-1.552.877a2.01,2.01,0,0,1-2.642-.615l2.078-10.023ZM52.7,158.619a3.7,3.7,0,0,0-3.625-.286l-2.161,1-.65-9.1h8.175Zm7.042,22.474H45.029l-2.2-30.863h1.715l2.026,28.352a.857.857,0,0,0,.855.8H57.4a.857.857,0,0,0,.853-.776l2.7-28.372H62.68Z" transform="translate(0 -107.826)"/>
      <path id="Trazado_904657" data-name="Trazado 904657" d="M111.5,356.882c-.051.026-.1.052-.146.077a.827.827,0,0,0-.128.111.859.859,0,1,0,.437-.231A1.168,1.168,0,0,0,111.5,356.882Z" transform="translate(-61.602 -298.127)"/>
      <path id="Trazado_904658" data-name="Trazado 904658" d="M112.425,394.256a.845.845,0,0,0,0-1.209.376.376,0,0,0-.129-.1.831.831,0,0,0-.146-.086.933.933,0,0,0-.163-.043.835.835,0,0,0-.5.043.91.91,0,0,0-.463.463.871.871,0,0,0,.189.934.843.843,0,0,0,1.209,0Z" transform="translate(-61.59 -329.817)"/>
      <path id="Trazado_904659" data-name="Trazado 904659" d="M132.783,378.663a.855.855,0,0,0,1.209,1.209A.855.855,0,0,0,132.783,378.663Z" transform="translate(-80.584 -317.147)"/>
      <path id="Trazado_904660" data-name="Trazado 904660" d="M147.123,401.494a.855.855,0,0,0,1.209-1.209C147.537,399.527,146.319,400.7,147.123,401.494Z" transform="translate(-93.21 -336.198)"/>
      <path id="Trazado_904661" data-name="Trazado 904661" d="M119.693,421.877a.861.861,0,0,0-1.4.283.853.853,0,1,0,1.586,0A.721.721,0,0,0,119.693,421.877Z" transform="translate(-68.001 -355.218)"/>
      <path id="Trazado_904662" data-name="Trazado 904662" d="M147.507,428.8a.866.866,0,0,0-.274,1.4.843.843,0,0,0,1.209,0A.861.861,0,0,0,147.507,428.8Z" transform="translate(-93.321 -361.472)"/>
      <path id="Trazado_904663" data-name="Trazado 904663" d="M132.851,336.592a.843.843,0,0,0,1.209,0,.857.857,0,1,0-1.209,0Z" transform="translate(-80.653 -279.011)"/>
      <path id="Trazado_904664" data-name="Trazado 904664" d="M155.036,358.578a.853.853,0,1,0-.8-1.184.866.866,0,0,0,.8,1.184Z" transform="translate(-99.657 -298.168)"/>
      <path id="Trazado_904665" data-name="Trazado 904665" d="M104.953,322.494a.758.758,0,0,0,.275-.189.83.83,0,0,0,.188-.926.854.854,0,1,0-.463,1.115Z" transform="translate(-55.25 -266.439)"/>
      <path id="Trazado_904666" data-name="Trazado 904666" d="M317.872,20.115a.857.857,0,0,0,0-1.715h-4.286a.857.857,0,0,0-.767.474l-2.335,4.67h-9.758a2.575,2.575,0,0,0-2.572,2.572c0,1.7,0,38.156,0,41.15V72.41a2.575,2.575,0,0,0,2.572,2.572h15.431a2.575,2.575,0,0,0,2.572-2.572V67.266c0-3.13,0-39.32,0-41.15a2.575,2.575,0,0,0-2.572-2.572H312.4l1.715-3.429Zm-.857,28.055c-.615.946-4.5,6-17.146,6.225V50.1c10.288-.207,15.013-4.079,17.146-7.176Zm-17.146,7.94c9.982-.167,14.915-3.2,17.146-5.312V66.409H299.868Zm17.146-17.214c-.184.888-2.306,9.183-17.146,9.5V32.117h17.146Zm-.857,34.372H300.726a.857.857,0,0,1-.857-.857v-.857H303.3V69.838h-3.429V68.123h17.146v1.715H305.87v1.715h11.145v.857A.857.857,0,0,1,316.157,73.267Zm.857-47.152v.857H315.3v1.715h1.715V30.4H299.868V28.688h12.86V26.973h-12.86v-.857a.857.857,0,0,1,.857-.857h15.431A.857.857,0,0,1,317.014,26.116Z" transform="translate(-226.49)"/>
    </g>
  </g>
</svg>
