<svg xmlns="http://www.w3.org/2000/svg" width="190" height="190" viewBox="0 0 190 190">
  <g id="Grupo_1112860" data-name="Grupo 1112860" transform="translate(-600.051 -1127)">
    <g id="Grupo_1112453" data-name="Grupo 1112453">
      <circle id="Elipse_14840" data-name="Elipse 14840" cx="95" cy="95" r="95" transform="translate(600.051 1127)" fill="#fbeeab"/>
      <circle id="Elipse_14841" data-name="Elipse 14841" cx="66" cy="66" r="66" transform="translate(629.051 1156)" fill="#f6d530"/>
      <g id="Grupo_1112451" data-name="Grupo 1112451" transform="translate(640.5 1157.632)">
        <g id="Grupo_1112449" data-name="Grupo 1112449" transform="translate(12.161 27.648)">
          <path id="Trazado_903740" data-name="Trazado 903740" d="M154.851,38.239a13.045,13.045,0,0,0,0,17.905L173.717,75.73l18.866-19.586a13.045,13.045,0,0,0,0-17.9,11.914,11.914,0,0,0-17.247,0l-1.619,1.681L172.1,38.239a11.915,11.915,0,0,0-17.247,0Z" transform="translate(-126.72 -34.546)" fill="#b20604" fill-rule="evenodd"/>
          <path id="Trazado_903741" data-name="Trazado 903741" d="M154.84,38.239a13.075,13.075,0,0,0,0,17.9l17.076,17.785,17.076-17.785a13.075,13.075,0,0,0,0-17.9c-1.67-1.739-5.119-3.973-7.65-3.422a11.945,11.945,0,0,0-6.082,3.422l-1.614,1.681-1.614-1.681a11.85,11.85,0,0,0-17.191,0Z" transform="translate(-126.72 -34.546)" fill="#fa1f23" fill-rule="evenodd"/>
          <path id="Trazado_903742" data-name="Trazado 903742" d="M23.267,126.743a5.558,5.558,0,1,0,7.667,1.732A5.558,5.558,0,0,0,23.267,126.743Zm12.2,13.367,8.589,13.6a6.66,6.66,0,0,1,.527.983l3.948,8.6,16.722,1.637a3.12,3.12,0,0,1,3.046,2.866,2.86,2.86,0,0,1-2.866,3.046l-18.777-1.568c-1.252.23-5.311-3.912-7.557-6.247l-1.934,1.969,6.89,19.644a3.04,3.04,0,0,1-1.525,3.895,2.966,2.966,0,0,1-3.895-1.525l-8.9-20.362c-.631-1.732-.218-2.816,1.326-4.522l4.443-4.911-6.774-10.782L27.074,152.3c-.045.258-.138.411-.637.676l-8.01,4.242c-4.337,2.3-6.646-3.578-1.736-5.582l5.485-2.7c.037-.14,1.123-3.964,1.761-6.4.649-1.963.544-1.78,1.911-2.813,2.294-1.52,6.706-4.471,9.3-6.209,1.936-1.3,1.9-1.4,4.664-.835l11.812,2.4c4.3.872,3.945,6.842-2.154,5.509l-11.19-2.446Z" transform="translate(-13.932 -109.543)" fill="#06bfb0" fill-rule="evenodd"/>
          <path id="Trazado_903743" data-name="Trazado 903743" d="M20.8,138.593a5.558,5.558,0,0,0,8.4,5.862c2.264-1.43,2.383-3.656.994-5.856a5.56,5.56,0,0,0-9.4-.006Zm22.521,25.243a8.267,8.267,0,0,1,.527.983l3.948,8.6,16.722,1.637a3.12,3.12,0,0,1,3.046,2.866,3.008,3.008,0,0,1-.006.3,2.506,2.506,0,0,1-2.122.934L46.66,177.586c-1.252.23-5.311-3.912-7.557-6.247l-2.943,2.992,7.161,20.432a3.62,3.62,0,0,1,.224,1.254,4.766,4.766,0,0,1-1.011.83,2.966,2.966,0,0,1-3.895-1.525l-8.9-20.362c-.3-.819-.821-2.14,1.073-4.236l3.589-3.973,1.107-1.224-6.774-10.782-.581,2.061-.157-.25L26.7,161.141c-.072.047-.158.1-.262.152l-8.01,4.242c-2.715,1.438-4.636-.328-4.487-2.341a4.9,4.9,0,0,1,2.013-1.43l5.792-2.907c.7-2.612,1.5-5.376,2.192-8a6.422,6.422,0,0,1,1.173-1c2.294-1.52,6.706-4.471,9.3-6.209,1.936-1.3,1.9-1.4,4.664-.835l11.812,2.4c3.631.736,3.433,4.757-1.417,3.7l-11.19-2.446-4.125,2.88,9.168,14.5Z" transform="translate(-13.933 -117.857)" fill="#1cd2c4" fill-rule="evenodd"/>
        </g>
        <g id="Grupo_1112450" data-name="Grupo 1112450" transform="translate(55.674 57.026)">
          <path id="Trazado_903744" data-name="Trazado 903744" d="M325.126,238.359h18.04v7.863h-18.04Z" transform="translate(-312.967 -231.275)" fill="#a5bac7"/>
          <path id="Trazado_903745" data-name="Trazado 903745" d="M325.126,238.359h16.095v7.863H325.126Z" transform="translate(-312.967 -231.275)" fill="#c1d3de"/>
          <path id="Trazado_903746" data-name="Trazado 903746" d="M459.948,213.485v16.763H464.7a1.333,1.333,0,0,0,1.329-1.329V214.814a1.333,1.333,0,0,0-1.329-1.329Z" transform="translate(-423.669 -210.851)" fill="#0b7ddb" fill-rule="evenodd"/>
          <path id="Trazado_903747" data-name="Trazado 903747" d="M459.948,213.485v16.763h2.805a1.333,1.333,0,0,0,1.329-1.329V214.814a1.333,1.333,0,0,0-1.329-1.329Z" transform="translate(-423.669 -210.851)" fill="#1893f7" fill-rule="evenodd"/>
          <rect id="Rectángulo_405211" data-name="Rectángulo 405211" width="6.08" height="22.031" rx="3.04" transform="translate(30.199)" fill="#171e6b"/>
          <rect id="Rectángulo_405212" data-name="Rectángulo 405212" width="4.134" height="22.031" rx="2.067" transform="translate(30.199)" fill="#293185"/>
          <path id="Trazado_903748" data-name="Trazado 903748" d="M263.239,213.485v16.763h-4.751a1.333,1.333,0,0,1-1.329-1.329V214.814a1.333,1.333,0,0,1,1.329-1.329Z" transform="translate(-257.159 -210.851)" fill="#0b7ddb" fill-rule="evenodd"/>
          <path id="Trazado_903749" data-name="Trazado 903749" d="M261.293,230.248h-2.805a1.333,1.333,0,0,1-1.329-1.329V214.814a1.333,1.333,0,0,1,1.329-1.329h2.805Z" transform="translate(-257.159 -210.851)" fill="#1893f7" fill-rule="evenodd"/>
          <rect id="Rectángulo_405213" data-name="Rectángulo 405213" width="6.08" height="22.031" rx="3.04" transform="translate(6.08)" fill="#171e6b"/>
          <rect id="Rectángulo_405214" data-name="Rectángulo 405214" width="4.134" height="22.031" rx="2.067" transform="translate(6.08)" fill="#293185"/>
        </g>
        <path id="Trazado_903750" data-name="Trazado 903750" d="M97.391,58.162H93.714V57.93a2.4,2.4,0,0,0-2.4-2.4H87.89a2.4,2.4,0,0,0-2.4,2.4v4.682H69.594V58.539l9.375-9.375A13.493,13.493,0,0,0,59.888,30.082l-.89.89-.89-.89A13.493,13.493,0,0,0,39.027,49.163l.207.207-.293-.06c-2.848-.578-3.238-.516-5.215.819l-.261.176-2.258,1.512a6.631,6.631,0,1,0-6.045,3.934c.054,0,.108,0,.162-.006l-1.151.764c-.019.012-.037.025-.055.039l-.25.188c-1.281.962-1.387,1.184-1.957,2.912l-.077.233c-.007.021-.014.043-.019.065-.511,1.95-1.321,4.831-1.627,5.918L15.166,68.34a5.024,5.024,0,0,0-3.37,4.023,3.748,3.748,0,0,0,1.581,3.52,4.263,4.263,0,0,0,4.468-.034l8.534-4.52a1.073,1.073,0,0,0,.531-.657l1.111-3.943,5.056,8.047-3.9,4.308c-1.617,1.787-2.387,3.278-1.539,5.609.008.021.016.042.025.063l8.9,20.362a4.03,4.03,0,0,0,5.308,2.078,1.083,1.083,0,0,0,.143-.076c2.553-1.612,2.478-3.695,1.965-5.158L37.318,82.95l.711-.724c3.831,4,5.993,5.933,7.564,5.806l18.669,1.559c.1.008.192.012.287.012a3.532,3.532,0,0,0,2.443-1,4.235,4.235,0,0,0,1.3-3.156,1.052,1.052,0,0,0-.017-.161,4.163,4.163,0,0,0-4-3.74L48.168,79.963l-3.69-8.037c-.009-.02-.02-.038-.03-.057a7.86,7.86,0,0,0-.565-1.051L35.839,58.081l1.585-1.111,10.73,2.345a9.61,9.61,0,0,0,1.212.188l5.921,5.921v9.245a2.4,2.4,0,0,0,2.4,2.4h3.677V77.3a2.4,2.4,0,0,0,2.4,2.4h3.422a2.4,2.4,0,0,0,2.4-2.4V72.622H85.487V77.3a2.4,2.4,0,0,0,2.4,2.4h3.422a2.4,2.4,0,0,0,2.4-2.4v-.232h3.677a2.4,2.4,0,0,0,2.4-2.4V60.564a2.4,2.4,0,0,0-2.4-2.4ZM21.359,51.516a4.485,4.485,0,1,1,6.187,1.4A4.49,4.49,0,0,1,21.359,51.516ZM47.345,82.039l16.722,1.637a2.05,2.05,0,0,1,2.079,1.906,2.089,2.089,0,0,1-.63,1.458,1.384,1.384,0,0,1-1.074.411L45.665,85.883a1.07,1.07,0,0,0-.227.005c-1.085-.168-4.671-3.908-5.9-5.195l2.949-3a12.584,12.584,0,0,0,1.48-1.74l2.51,5.467a1.074,1.074,0,0,0,.871.62ZM37.423,54.772a1.075,1.075,0,0,0-.845.17L33.769,56.91a1.073,1.073,0,0,0-.292,1.452l8.589,13.6a6.843,6.843,0,0,1,.4.706,1.062,1.062,0,0,0,.055.152l.058.127c.274.818-.023,1.618-1.628,3.235l-5.638,5.738a1.073,1.073,0,0,0-.247,1.108l6.89,19.644a1.959,1.959,0,0,1-1.012,2.585,1.893,1.893,0,0,1-2.411-1l-8.891-20.33c-.416-1.16-.3-1.824,1.124-3.4l4.443-4.911a1.073,1.073,0,0,0,.113-1.291L28.553,63.54a1.073,1.073,0,0,0-1.942.28l-1.642,5.828-8.128,4.305a2.192,2.192,0,0,1-2.263.151,1.607,1.607,0,0,1-.647-1.52,2.983,2.983,0,0,1,2.082-2.271c.023-.009.046-.02.069-.031l5.485-2.7a1.079,1.079,0,0,0,.562-.684l.1-.341c.279-.99,1.124-3.994,1.659-6.03l.067-.2a7.057,7.057,0,0,1,.469-1.241,3.51,3.51,0,0,1,.738-.626l.228-.172c2.357-1.561,6.833-4.556,9.277-6.195l.266-.179a4.223,4.223,0,0,1,1.408-.783,7.956,7.956,0,0,1,2.179.288l3.791.769h0l8.017,1.626a2.439,2.439,0,0,1,1.937,1.5A1.4,1.4,0,0,1,52,56.72c-.592.657-1.826.838-3.384.5l-11.19-2.446ZM52.08,59.18a3.957,3.957,0,0,0,1.512-1.022,3.541,3.541,0,0,0,.709-3.525,4.546,4.546,0,0,0-3.549-2.928l-7.71-1.564-2.5-2.5A11.346,11.346,0,0,1,56.59,31.6l1.649,1.649a1.073,1.073,0,0,0,1.518,0L61.406,31.6A11.342,11.342,0,0,1,80.348,42.686H73.506a1.073,1.073,0,0,0-.857.428l-2.13,2.829-3.4-11.9a1.073,1.073,0,0,0-2.085.085l-2.9,14.546L57.8,37.792a1.074,1.074,0,0,0-1.967-.063l-2.35,4.956H44.6a1.073,1.073,0,0,0,0,2.147H54.16a1.073,1.073,0,0,0,.97-.613l1.586-3.344,4.763,11.958a1.074,1.074,0,0,0,1,.676c.033,0,.065,0,.1,0a1.073,1.073,0,0,0,.955-.859l2.74-13.755,2.779,9.716a1.073,1.073,0,0,0,1.89.35l3.1-4.124h5.466a11.3,11.3,0,0,1-2.055,2.812l-8.575,8.575a2.393,2.393,0,0,0-1.685-.692H63.77a2.4,2.4,0,0,0-2.4,2.4v.232H57.69a2.4,2.4,0,0,0-2.4,2.4v1.825L52.08,59.181ZM57.69,74.925a.259.259,0,0,1-.255-.255V60.564a.259.259,0,0,1,.255-.255h3.677V74.925H57.69Zm9.5,2.634H63.77a.259.259,0,0,1-.255-.255V57.93a.259.259,0,0,1,.255-.255h3.422a.259.259,0,0,1,.255.255V77.3A.259.259,0,0,1,67.192,77.559Zm2.4-7.084V64.759H85.487v5.716ZM91.567,77.3a.259.259,0,0,1-.255.255H87.89a.259.259,0,0,1-.255-.255V57.93a.259.259,0,0,1,.255-.255h3.422a.259.259,0,0,1,.255.255Zm6.08-2.634a.259.259,0,0,1-.255.255H93.714V60.309h3.677a.259.259,0,0,1,.255.255V74.67Z" transform="translate(0)"/>
      </g>
    </g>
  </g>
</svg>
