<svg xmlns="http://www.w3.org/2000/svg" width="190" height="190" viewBox="0 0 190 190">
  <g id="Grupo_1112862" data-name="Grupo 1112862" transform="translate(-1020.051 -1127)">
    <circle id="Elipse_14844" data-name="Elipse 14844" cx="95" cy="95" r="95" transform="translate(1020.051 1127)" fill="#fbeeab"/>
    <circle id="Elipse_14845" data-name="Elipse 14845" cx="66" cy="66" r="66" transform="translate(1049.051 1156)" fill="#f6d530"/>
    <g id="Grupo_1112211" data-name="Grupo 1112211" transform="translate(1071.131 1176.831)">
      <g id="Grupo_1112159" data-name="Grupo 1112159" transform="translate(6.592 3.019)">
        <g id="Grupo_1112155" data-name="Grupo 1112155" transform="translate(23.316)">
          <g id="Grupo_1112153" data-name="Grupo 1112153">
            <path id="Trazado_903488" data-name="Trazado 903488" d="M27.63,16.787A36.643,36.643,0,0,1,31.036,5.755,1.853,1.853,0,0,0,29.6,3.085l-2.975-.318a1.821,1.821,0,0,0-1.96,1.37,36.847,36.847,0,0,0-.843,12.651" transform="translate(-23.614 -2.757)" fill="#77e244"/>
          </g>
          <g id="Grupo_1112154" data-name="Grupo 1112154" transform="translate(1.481 0.003)">
            <path id="Trazado_903489" data-name="Trazado 903489" d="M30.652,5.752a36.463,36.463,0,0,0-3.4,11.035H24.712a36.9,36.9,0,0,1,3.4-11.035A1.843,1.843,0,0,0,26.681,3.09l-1.416-.154a1.881,1.881,0,0,1,.97-.169l2.986.323a1.843,1.843,0,0,1,1.431,2.662Z" transform="translate(-24.712 -2.759)" fill="#62d333"/>
          </g>
        </g>
        <g id="Grupo_1112156" data-name="Grupo 1112156" transform="translate(0 8.425)">
          <path id="Trazado_903490" data-name="Trazado 903490" d="M57.482,55.035c0,14.492-11.453,26.229-25.583,26.229S6.331,69.526,6.331,55.035A26.493,26.493,0,0,1,12.2,38.326a24.851,24.851,0,0,0,5.839-15.564v-.133A13.921,13.921,0,0,1,32.081,9,14.192,14.192,0,0,1,41.7,12.854a12.792,12.792,0,0,1,4.071,9.315v.594a24.851,24.851,0,0,0,5.839,15.564,26.493,26.493,0,0,1,5.868,16.709Z" transform="translate(-6.331 -9.002)" fill="#77e244"/>
        </g>
        <g id="Grupo_1112157" data-name="Grupo 1112157" transform="translate(14.624 8.422)">
          <path id="Trazado_903491" data-name="Trazado 903491" d="M53.7,55.032c0,14.492-11.453,26.229-25.584,26.229a24.987,24.987,0,0,1-10.946-2.513,25.122,25.122,0,0,0,3.026.181c14.13,0,25.584-11.738,25.584-26.229a26.547,26.547,0,0,0-5.861-16.719,24.8,24.8,0,0,1-5.845-15.56v-.587A12.793,12.793,0,0,0,30,10.519,12.226,12.226,0,0,0,28.07,9h.222a14.243,14.243,0,0,1,9.631,3.852,12.793,12.793,0,0,1,4.071,9.315v.6a24.876,24.876,0,0,0,5.83,15.56,26.426,26.426,0,0,1,5.877,16.7Z" transform="translate(-17.171 -8.999)" fill="#62d333"/>
        </g>
        <g id="Grupo_1112158" data-name="Grupo 1112158" transform="translate(6.194 34.557)" opacity="0.3">
          <path id="Trazado_903492" data-name="Trazado 903492" d="M20.469,38.165c-3.142,4.439-6.045,8.284-8.1,6.829s-2.1-7.157,1.042-11.6,8.286-5.943,10.342-4.488S23.621,33.712,20.469,38.165Z" transform="translate(-10.922 -28.372)" fill="#fff"/>
        </g>
      </g>
      <g id="Grupo_1112197" data-name="Grupo 1112197" transform="translate(5.585 2.004)">
        <g id="Grupo_1112160" data-name="Grupo 1112160" transform="translate(19.864 17.506)">
          <path id="Trazado_903493" data-name="Trazado 903493" d="M68.246,69.452C61.04,82.025,45.266,86.514,33.007,79.488s-16.346-22.9-9.14-35.47a26.493,26.493,0,0,1,13.4-11.579,24.851,24.851,0,0,0,12.8-10.6l.066-.115a13.921,13.921,0,0,1,18.96-4.84,14.192,14.192,0,0,1,6.434,8.126,12.792,12.792,0,0,1-1.1,10.106l-.3.515a24.851,24.851,0,0,0-2.673,16.406,26.493,26.493,0,0,1-3.217,17.414Z" transform="translate(-20.309 -14.98)" fill="#77e244"/>
        </g>
        <g id="Grupo_1112161" data-name="Grupo 1112161" transform="translate(24.319 19.293)">
          <path id="Trazado_903494" data-name="Trazado 903494" d="M67.1,68.989C59.892,81.562,44.118,86.05,31.858,79.024A24.987,24.987,0,0,1,23.611,71.4a25.124,25.124,0,0,0,2.535,1.661C38.406,80.088,54.18,75.6,61.385,63.026a26.547,26.547,0,0,0,3.228-17.42A24.8,24.8,0,0,1,67.279,29.2l.292-.509a12.793,12.793,0,0,0,1.1-10.106,12.227,12.227,0,0,0-.921-2.28l.192.11a14.243,14.243,0,0,1,6.441,8.132,12.793,12.793,0,0,1-1.1,10.106l-.3.522a24.876,24.876,0,0,0-2.679,16.4A26.427,26.427,0,0,1,67.1,68.989Z" transform="translate(-23.611 -16.305)" fill="#62d333"/>
        </g>
        <g id="Grupo_1112162" data-name="Grupo 1112162" transform="translate(24.299 21.923)">
          <path id="Trazado_903495" data-name="Trazado 903495" d="M34.059,74.507c-10.116-5.8-13.481-19-7.5-29.434a22.207,22.207,0,0,1,11.164-9.654A29.1,29.1,0,0,0,52.761,22.9a9.48,9.48,0,0,1,12.842-3.4,9.823,9.823,0,0,1,4.543,5.642,8.388,8.388,0,0,1-.7,6.639l-.3.516a29.1,29.1,0,0,0-3.2,19.307,22.207,22.207,0,0,1-2.687,14.513c-5.979,10.432-19.079,14.2-29.2,8.4Z" transform="translate(-23.597 -18.255)" fill="#fc3"/>
        </g>
        <g id="Grupo_1112163" data-name="Grupo 1112163" transform="translate(32.643 22.228)">
          <path id="Trazado_903496" data-name="Trazado 903496" d="M61.1,66.025c-5.982,10.438-19.081,14.2-29.2,8.4a20.545,20.545,0,0,1-2.12-1.4A21.6,21.6,0,0,0,56.713,63.51,22.147,22.147,0,0,0,59.387,49,29.166,29.166,0,0,1,62.6,29.7l.3-.525a8.38,8.38,0,0,0,.694-6.638,9.35,9.35,0,0,0-2.484-4.058,8.776,8.776,0,0,1,2.338.932,9.859,9.859,0,0,1,4.547,5.648,8.422,8.422,0,0,1-.707,6.63l-.3.525a29.1,29.1,0,0,0-3.2,19.308,22.132,22.132,0,0,1-2.687,14.5Z" transform="translate(-29.781 -18.48)" fill="#fcb910"/>
        </g>
        <g id="Grupo_1112164" data-name="Grupo 1112164" transform="translate(32.779 41.497)">
          <path id="Trazado_903497" data-name="Trazado 903497" d="M54.433,55.082c-4.721,8.237-13.376,12.145-19.341,8.726-5.95-3.41-6.953-12.853-2.232-21.091S46.228,30.586,52.178,34s6.968,12.862,2.255,21.086Z" transform="translate(-29.882 -32.763)" fill="#f93"/>
        </g>
        <g id="Grupo_1112165" data-name="Grupo 1112165" transform="translate(32.779 41.492)">
          <path id="Trazado_903498" data-name="Trazado 903498" d="M57.329,42.89a9.649,9.649,0,0,0-3.892-4.27c-5.948-3.409-14.611.5-19.325,8.722a20.965,20.965,0,0,0-2.9,12.205c-2.176-4.476-1.721-10.962,1.644-16.834,4.714-8.225,13.377-12.131,19.325-8.722,3.019,1.73,4.774,5.013,5.148,8.9Z" transform="translate(-29.882 -32.759)" fill="#ff8b22"/>
        </g>
        <g id="Grupo_1112168" data-name="Grupo 1112168" transform="translate(51.757 44.134)">
          <g id="Grupo_1112166" data-name="Grupo 1112166" transform="translate(0.002)">
            <path id="Trazado_903499" data-name="Trazado 903499" d="M49.48,39.133a2.959,2.959,0,1,1-1.107-4.021A2.956,2.956,0,0,1,49.48,39.133Z" transform="translate(-43.951 -34.718)" fill="#666"/>
          </g>
          <g id="Grupo_1112167" data-name="Grupo 1112167" transform="translate(0 0.702)">
            <path id="Trazado_903500" data-name="Trazado 903500" d="M49.483,38.955a2.964,2.964,0,0,1-5.506-1.9,3.089,3.089,0,0,0,.438.3,2.964,2.964,0,0,0,4.045-1.1,2.838,2.838,0,0,0,.349-1.024,2.943,2.943,0,0,1,.674,3.717Z" transform="translate(-43.95 -35.238)" fill="#595857"/>
          </g>
        </g>
        <g id="Grupo_1112171" data-name="Grupo 1112171" transform="translate(43.745 44.867)">
          <g id="Grupo_1112169" data-name="Grupo 1112169" transform="translate(0.002)">
            <path id="Trazado_903501" data-name="Trazado 903501" d="M43.54,39.676a2.959,2.959,0,1,1-1.107-4.021A2.956,2.956,0,0,1,43.54,39.676Z" transform="translate(-38.012 -35.261)" fill="#666"/>
          </g>
          <g id="Grupo_1112170" data-name="Grupo 1112170" transform="translate(0 0.702)">
            <path id="Trazado_903502" data-name="Trazado 903502" d="M43.544,39.5a2.964,2.964,0,0,1-5.506-1.9,3.088,3.088,0,0,0,.438.3,2.964,2.964,0,0,0,4.045-1.1,2.837,2.837,0,0,0,.349-1.024,2.943,2.943,0,0,1,.674,3.717Z" transform="translate(-38.01 -35.781)" fill="#595857"/>
          </g>
        </g>
        <g id="Grupo_1112174" data-name="Grupo 1112174" transform="translate(47.12 53.036)">
          <g id="Grupo_1112172" data-name="Grupo 1112172" transform="translate(0.002)">
            <path id="Trazado_903503" data-name="Trazado 903503" d="M46.042,45.731a2.959,2.959,0,1,1-1.107-4.021A2.956,2.956,0,0,1,46.042,45.731Z" transform="translate(-40.514 -41.316)" fill="#666"/>
          </g>
          <g id="Grupo_1112173" data-name="Grupo 1112173" transform="translate(0 0.702)">
            <path id="Trazado_903504" data-name="Trazado 903504" d="M46.045,45.553a2.964,2.964,0,0,1-5.506-1.9,3.087,3.087,0,0,0,.438.3,2.964,2.964,0,0,0,4.045-1.1,2.837,2.837,0,0,0,.349-1.024A2.943,2.943,0,0,1,46.045,45.553Z" transform="translate(-40.512 -41.837)" fill="#595857"/>
          </g>
        </g>
        <g id="Grupo_1112177" data-name="Grupo 1112177" transform="translate(53.971 52.949)">
          <g id="Grupo_1112175" data-name="Grupo 1112175" transform="translate(0.002)">
            <path id="Trazado_903505" data-name="Trazado 903505" d="M51.12,45.667a2.959,2.959,0,1,1-1.107-4.021A2.956,2.956,0,0,1,51.12,45.667Z" transform="translate(-45.592 -41.252)" fill="#666"/>
          </g>
          <g id="Grupo_1112176" data-name="Grupo 1112176" transform="translate(0 0.702)">
            <path id="Trazado_903506" data-name="Trazado 903506" d="M51.124,45.489a2.964,2.964,0,0,1-5.506-1.9,3.088,3.088,0,0,0,.438.3A2.964,2.964,0,0,0,50.1,42.8a2.838,2.838,0,0,0,.349-1.024,2.943,2.943,0,0,1,.674,3.717Z" transform="translate(-45.59 -41.772)" fill="#595857"/>
          </g>
        </g>
        <g id="Grupo_1112180" data-name="Grupo 1112180" transform="translate(39.722 51.252)">
          <g id="Grupo_1112178" data-name="Grupo 1112178" transform="translate(0.002)">
            <path id="Trazado_903507" data-name="Trazado 903507" d="M40.559,44.409a2.959,2.959,0,1,1-1.107-4.021A2.956,2.956,0,0,1,40.559,44.409Z" transform="translate(-35.03 -39.994)" fill="#666"/>
          </g>
          <g id="Grupo_1112179" data-name="Grupo 1112179" transform="translate(0 0.702)">
            <path id="Trazado_903508" data-name="Trazado 903508" d="M40.562,44.231a2.964,2.964,0,0,1-5.506-1.9,3.087,3.087,0,0,0,.438.3,2.964,2.964,0,0,0,4.045-1.1,2.838,2.838,0,0,0,.349-1.024,2.943,2.943,0,0,1,.674,3.717Z" transform="translate(-35.029 -40.514)" fill="#595857"/>
          </g>
        </g>
        <g id="Grupo_1112183" data-name="Grupo 1112183" transform="translate(42.576 58.183)">
          <g id="Grupo_1112181" data-name="Grupo 1112181" transform="translate(0.002)">
            <path id="Trazado_903509" data-name="Trazado 903509" d="M42.674,49.546a2.959,2.959,0,1,1-1.107-4.021A2.956,2.956,0,0,1,42.674,49.546Z" transform="translate(-37.146 -45.131)" fill="#666"/>
          </g>
          <g id="Grupo_1112182" data-name="Grupo 1112182" transform="translate(0 0.702)">
            <path id="Trazado_903510" data-name="Trazado 903510" d="M42.678,49.368a2.964,2.964,0,0,1-5.506-1.9,3.09,3.09,0,0,0,.438.3,2.964,2.964,0,0,0,4.045-1.1A2.837,2.837,0,0,0,42,45.651a2.943,2.943,0,0,1,.674,3.717Z" transform="translate(-37.144 -45.651)" fill="#595857"/>
          </g>
        </g>
        <g id="Grupo_1112186" data-name="Grupo 1112186" transform="translate(49.478 60.99)">
          <g id="Grupo_1112184" data-name="Grupo 1112184" transform="translate(0.002)">
            <path id="Trazado_903511" data-name="Trazado 903511" d="M47.791,51.627a2.959,2.959,0,1,1-1.107-4.021A2.956,2.956,0,0,1,47.791,51.627Z" transform="translate(-42.262 -47.212)" fill="#666"/>
          </g>
          <g id="Grupo_1112185" data-name="Grupo 1112185" transform="translate(0 0.702)">
            <path id="Trazado_903512" data-name="Trazado 903512" d="M47.794,51.449a2.964,2.964,0,0,1-5.506-1.9,3.089,3.089,0,0,0,.438.3,2.964,2.964,0,0,0,4.045-1.1,2.838,2.838,0,0,0,.349-1.024,2.943,2.943,0,0,1,.674,3.717Z" transform="translate(-42.261 -47.733)" fill="#595857"/>
          </g>
        </g>
        <g id="Grupo_1112189" data-name="Grupo 1112189" transform="translate(36.493 62.842)">
          <g id="Grupo_1112187" data-name="Grupo 1112187" transform="translate(0.002)">
            <path id="Trazado_903513" data-name="Trazado 903513" d="M38.165,53a2.959,2.959,0,1,1-1.107-4.021A2.956,2.956,0,0,1,38.165,53Z" transform="translate(-32.637 -48.585)" fill="#666"/>
          </g>
          <g id="Grupo_1112188" data-name="Grupo 1112188" transform="translate(0 0.702)">
            <path id="Trazado_903514" data-name="Trazado 903514" d="M38.168,52.822a2.964,2.964,0,0,1-5.506-1.9,3.088,3.088,0,0,0,.438.3,2.964,2.964,0,0,0,4.045-1.1,2.837,2.837,0,0,0,.349-1.024A2.943,2.943,0,0,1,38.168,52.822Z" transform="translate(-32.635 -49.105)" fill="#595857"/>
          </g>
        </g>
        <g id="Grupo_1112192" data-name="Grupo 1112192" transform="translate(34.069 56.702)">
          <g id="Grupo_1112190" data-name="Grupo 1112190" transform="translate(0.002)">
            <path id="Trazado_903515" data-name="Trazado 903515" d="M36.368,48.449a2.959,2.959,0,1,1-1.107-4.021A2.956,2.956,0,0,1,36.368,48.449Z" transform="translate(-30.84 -44.034)" fill="#666"/>
          </g>
          <g id="Grupo_1112191" data-name="Grupo 1112191" transform="translate(0 0.702)">
            <path id="Trazado_903516" data-name="Trazado 903516" d="M36.372,48.271a2.964,2.964,0,0,1-5.506-1.9,3.087,3.087,0,0,0,.438.3,2.964,2.964,0,0,0,4.045-1.1,2.837,2.837,0,0,0,.349-1.024A2.943,2.943,0,0,1,36.372,48.271Z" transform="translate(-30.838 -44.554)" fill="#595857"/>
          </g>
        </g>
        <g id="Grupo_1112196" data-name="Grupo 1112196">
          <g id="Grupo_1112193" data-name="Grupo 1112193" transform="translate(41.805 66.541)">
            <path id="Trazado_903517" data-name="Trazado 903517" d="M42.1,55.741a2.959,2.959,0,1,1-1.107-4.021A2.956,2.956,0,0,1,42.1,55.741Z" transform="translate(-36.573 -51.327)" fill="#666"/>
          </g>
          <g id="Grupo_1112194" data-name="Grupo 1112194" transform="translate(41.803 67.242)">
            <path id="Trazado_903518" data-name="Trazado 903518" d="M42.1,55.564a2.964,2.964,0,0,1-5.506-1.9,3.088,3.088,0,0,0,.438.3,2.964,2.964,0,0,0,4.045-1.1,2.837,2.837,0,0,0,.349-1.024,2.943,2.943,0,0,1,.674,3.717Z" transform="translate(-36.571 -51.847)" fill="#595857"/>
          </g>
          <g id="Grupo_1112195" data-name="Grupo 1112195">
            <path id="Trazado_903519" data-name="Trazado 903519" d="M15.356,51.206a1.012,1.012,0,1,0-1.8.925l.377.733a1.012,1.012,0,1,0,1.8-.925Z" transform="translate(-2.842 14.98)" fill="#060606"/>
            <path id="Trazado_903520" data-name="Trazado 903520" d="M14.673,48.38a1.012,1.012,0,0,0,.9-1.474l-.376-.733a1.012,1.012,0,0,0-1.8.925l.376.733A1.011,1.011,0,0,0,14.673,48.38Z" transform="translate(-2.898 13.223)" fill="#060606"/>
            <path id="Trazado_903521" data-name="Trazado 903521" d="M18.8,48.751a1.012,1.012,0,1,0-1.8.925l.377.733a1.012,1.012,0,1,0,1.8-.925Z" transform="translate(-1.64 14.123)" fill="#060606"/>
            <path id="Trazado_903522" data-name="Trazado 903522" d="M74.753,20.543a14.928,14.928,0,0,0-20.425,5.329,21.942,21.942,0,0,1-5.949,6.638,21.667,21.667,0,0,1-1.336-7.3v-.594A14.288,14.288,0,0,0,36.4,11.018a34.831,34.831,0,0,1,1.835-4.546,2.863,2.863,0,0,0-2.226-4.128L33.026,2.02a2.848,2.848,0,0,0-3.049,2.145,36.694,36.694,0,0,0-.971,6.624A14.9,14.9,0,0,0,17.282,25.211,23.736,23.736,0,0,1,11.67,40.132,27.668,27.668,0,0,0,5.585,57.481C5.585,72.5,17.5,84.719,32.162,84.719a25.065,25.065,0,0,0,4.533-.432c.324.2.621.418.944.607,12.7,7.277,29.136,2.641,36.628-10.415A27.6,27.6,0,0,0,77.6,56.4a23.759,23.759,0,0,1,2.55-15.744l.3-.513c3.872-6.749,1.316-15.476-5.693-19.6ZM31.946,4.637a.807.807,0,0,1,.863-.607l2.981.324a.844.844,0,0,1,.634,1.214A36.14,36.14,0,0,0,34.4,10.613a12.5,12.5,0,0,0-2.226-.175c-.378,0-.756.027-1.12.054a34.515,34.515,0,0,1,.89-5.855ZM32.162,82.7C18.617,82.7,7.609,71.377,7.609,57.481A25.625,25.625,0,0,1,13.248,41.4a25.773,25.773,0,0,0,6.057-16.324,12.9,12.9,0,0,1,12.87-12.614,13.4,13.4,0,0,1,9.093,3.575,11.715,11.715,0,0,1,3.751,8.58v.594A23.834,23.834,0,0,0,46.665,33.7a28.025,28.025,0,0,1-4.627,2.334A27.719,27.719,0,0,0,25.3,68.611a26.2,26.2,0,0,0,9.012,13.977c-.715.068-1.416.108-2.145.108Zm46.53-43.549-.3.513A25.791,25.791,0,0,0,75.6,56.725a25.649,25.649,0,0,1-3.089,16.756C65.593,85.542,50.4,89.873,38.651,83.141a24.083,24.083,0,0,1-11.4-15.029A25.722,25.722,0,0,1,42.78,37.906a25.78,25.78,0,0,0,13.37-11.143,12.913,12.913,0,0,1,17.579-4.479c5.96,3.5,8.324,10.991,4.965,16.864Z" transform="translate(-5.585 -2.004)" fill="#060606"/>
            <path id="Trazado_903523" data-name="Trazado 903523" d="M66.368,18.878a10.483,10.483,0,0,0-14.223,3.777A28.1,28.1,0,0,1,37.617,34.737,23.232,23.232,0,0,0,25.94,44.832c-6.256,10.917-2.722,24.741,7.877,30.814,10.8,6.193,24.443,1.943,30.583-8.772A23.226,23.226,0,0,0,67.209,51.7,28.107,28.107,0,0,1,70.29,33.055l.3-.515c2.574-4.491,1-10.589-4.219-13.662Zm2.463,12.656-.3.515A30.109,30.109,0,0,0,65.21,52.02a21.186,21.186,0,0,1-2.566,13.848c-5.7,9.939-18.155,13.562-27.82,8.023C25.193,68.371,22,55.787,27.7,45.839a21.2,21.2,0,0,1,10.652-9.214A30.1,30.1,0,0,0,53.9,23.662a8.46,8.46,0,0,1,11.451-3.034c4.327,2.547,5.461,7.448,3.479,10.906Z" transform="translate(0.441 3.406)" fill="#060606"/>
            <path id="Trazado_903524" data-name="Trazado 903524" d="M52.939,33.378c-6.429-3.684-15.713.4-20.7,9.1s-3.821,18.789,2.607,22.472a10.524,10.524,0,0,0,5.29,1.378c4.942,0,11.316-3.3,15.432-10.479a21.8,21.8,0,0,0,3.005-12.956c-.46-4.315-2.462-7.693-5.635-9.511Zm.387,15.729a1.936,1.936,0,1,1,2.657-.722h0a1.942,1.942,0,0,1-2.657.721Zm-.288-12.176a1.937,1.937,0,1,1-2.647.7,1.939,1.939,0,0,1,2.647-.7ZM34,43.48c3.585-6.257,10.989-11.449,17.173-8.718a3.922,3.922,0,0,0-2.534,1.866,3.972,3.972,0,1,0,7.183,3.3,13.007,13.007,0,0,1,.744,3.174c.041.38.057.766.07,1.152a3.834,3.834,0,0,0-5.783,1.188c-.009.016-.013.034-.022.05A3.944,3.944,0,0,0,44,45.526a3.844,3.844,0,0,0-.947-2.352,4,4,0,1,0-1.977-1.253,3.945,3.945,0,0,0-4.2,6.192,4.019,4.019,0,0,0-.522-.37,3.971,3.971,0,0,0-4.329.247A22.372,22.372,0,0,1,34,43.48Zm2.086,8.658a1.947,1.947,0,1,1-.731-2.64A1.941,1.941,0,0,1,36.082,52.138Zm-.955,4.2A1.947,1.947,0,1,1,35.848,59a1.936,1.936,0,0,1-.721-2.657Zm8.689,5.635a1.947,1.947,0,1,1-.732-2.64A1.948,1.948,0,0,1,43.816,61.977Zm-4.362-11.3a3.957,3.957,0,0,0-.181,3.558,3.484,3.484,0,0,0-1.657-.776c.074-.1.158-.2.222-.312a3.943,3.943,0,0,0-.291-4.355,3.759,3.759,0,0,0,2.492.9c.1,0,.189-.03.284-.037a3.89,3.89,0,0,0-.869,1.022ZM42.38,38.367a1.947,1.947,0,1,1,.721,2.659A1.939,1.939,0,0,1,42.38,38.367Zm-.644,8.321A1.947,1.947,0,1,1,41,44.048,1.95,1.95,0,0,1,41.735,46.688Zm-.524,4.995a1.947,1.947,0,1,1,.721,2.659A1.939,1.939,0,0,1,41.211,51.683Zm1.413-2.976a3.9,3.9,0,0,0,.857-1,3.97,3.97,0,0,0,.128.836c.024.089.067.17.1.256a3.961,3.961,0,0,0-1.083-.094Zm3.131-2.17a1.947,1.947,0,1,1,.72,2.656A1.939,1.939,0,0,1,45.754,46.537Zm-14.6,6.914a3.762,3.762,0,0,0,2.428,1.588c-.07.1-.15.19-.212.3a3.976,3.976,0,0,0,1.471,5.419,3.855,3.855,0,0,0,3.328.271,3.839,3.839,0,0,0,1.739,3.255,8.487,8.487,0,0,1-4.056-1.09c-3.131-1.8-4.732-5.473-4.7-9.74Zm14.467,9.423a3.951,3.951,0,0,0-4.856-5.565,3.369,3.369,0,0,0-.331-1.564,3.836,3.836,0,0,0,5.419-.481,3.776,3.776,0,0,0,4.539,4.087A18.092,18.092,0,0,1,45.622,62.874Zm5.87-6.447a1.947,1.947,0,1,1-.732-2.64A1.95,1.95,0,0,1,51.492,56.427Zm2.229-1.442a3.892,3.892,0,0,0-1.955-2.953,3.961,3.961,0,0,0-4.921.782,3.252,3.252,0,0,0-.219-1.444,3.843,3.843,0,0,0,4.262-1.89c.006-.011.009-.022.014-.033a3.92,3.92,0,0,0,1.416,1.415,3.878,3.878,0,0,0,3.16.335A21.807,21.807,0,0,1,53.721,54.985Z" transform="translate(2.639 8.475)" fill="#060606"/>
          </g>
        </g>
      </g>
    </g>
  </g>
</svg>
