<svg id="Grupo_1112901" data-name="Grupo 1112901" xmlns="http://www.w3.org/2000/svg" width="66" height="66" viewBox="0 0 66 66">
  <rect id="Rectángulo_400898" data-name="Rectángulo 400898" width="66" height="66" rx="33" fill="#fdbabb"/>
  <g id="Grupo_1112743" data-name="Grupo 1112743" transform="translate(9.881 14.116)">
    <g id="Grupo_1112711" data-name="Grupo 1112711" transform="translate(0.714 0.712)">
      <g id="Grupo_1112706" data-name="Grupo 1112706">
        <g id="Grupo_1112696" data-name="Grupo 1112696" transform="translate(0 24.213)">
          <path id="Trazado_904338" data-name="Trazado 904338" d="M43.258,47.331l-1.9-2.849L38.036,39.5l-29.913,0-1.9,2.85L1,50.186h6.3l31.551,0h6.3Z" transform="translate(-1.003 -39.497)" fill="#a0d468"/>
        </g>
        <g id="Grupo_1112697" data-name="Grupo 1112697" transform="translate(11.391)">
          <path id="Trazado_904339" data-name="Trazado 904339" d="M26.188,33.276c-.855-.87-2-2.092-3.185-3.56C20.133,26.163,17,21.142,17,16.185a10.683,10.683,0,0,1,21.367,0c0,4.957-3.132,9.978-6,13.533-1.189,1.468-2.329,2.692-3.184,3.562h-.007c-.9.9-1.489,1.424-1.489,1.424S27.093,34.181,26.188,33.276Z" transform="translate(-16.997 -5.5)" fill="#656d78"/>
        </g>
        <g id="Grupo_1112698" data-name="Grupo 1112698" transform="translate(35.133 29.198)">
          <path id="Trazado_904340" data-name="Trazado 904340" d="M57.455,49.345H53.182L50.332,46.5H55.56Z" transform="translate(-50.332 -46.496)" fill="#8cc152"/>
        </g>
        <g id="Grupo_1112699" data-name="Grupo 1112699" transform="translate(13.625 27.775)">
          <path id="Trazado_904341" data-name="Trazado 904341" d="M32.931,47.348l3.084-2.85,3.875,6.41-16.908,0-2.849-2.848Z" transform="translate(-20.133 -44.498)" fill="#8cc152"/>
        </g>
        <g id="Grupo_1112700" data-name="Grupo 1112700" transform="translate(36.494 32.047)">
          <path id="Trazado_904342" data-name="Trazado 904342" d="M58,50.5l1.9,2.848H53.6L52.243,50.5Z" transform="translate(-52.243 -50.496)" fill="#e6e9ed"/>
        </g>
        <g id="Grupo_1112701" data-name="Grupo 1112701" transform="translate(13.625 27.775)">
          <path id="Trazado_904343" data-name="Trazado 904343" d="M28.586,45.924s.591-.52,1.489-1.424h5.94l1.026,3.561-16.908,0L21.158,44.5h5.933c.9.9,1.5,1.424,1.5,1.424Z" transform="translate(-20.133 -44.498)" fill="#e6e9ed"/>
        </g>
        <g id="Grupo_1112702" data-name="Grupo 1112702" transform="translate(0 27.066)">
          <path id="Trazado_904344" data-name="Trazado 904344" d="M11.037,43.5,7.306,51.337H1L6.223,43.5Z" transform="translate(-1.003 -43.503)" fill="#e6e9ed"/>
        </g>
        <g id="Grupo_1112703" data-name="Grupo 1112703" transform="translate(6.303 27.066)">
          <path id="Trazado_904345" data-name="Trazado 904345" d="M16.433,46.351l-2.375,4.985H9.853L13.584,43.5Z" transform="translate(-9.853 -43.503)" fill="#8cc152"/>
        </g>
        <g id="Grupo_1112704" data-name="Grupo 1112704" transform="translate(0 34.895)">
          <path id="Trazado_904346" data-name="Trazado 904346" d="M45.16,54.495v2.849L1,57.351V54.5h6.3l31.551,0Z" transform="translate(-1.003 -54.495)" fill="#81b53e"/>
        </g>
        <g id="Grupo_1112705" data-name="Grupo 1112705" transform="translate(32.76 24.213)">
          <path id="Trazado_904347" data-name="Trazado 904347" d="M54.6,44.482H49.373L47,39.5h4.273Z" transform="translate(-47.001 -39.497)" fill="#e6e9ed"/>
        </g>
      </g>
      <g id="Grupo_1112710" data-name="Grupo 1112710" transform="translate(16.381 8.547)">
        <g id="Grupo_1112707" data-name="Grupo 1112707" transform="translate(2.849 2.849)">
          <path id="Trazado_904348" data-name="Trazado 904348" d="M28,21.5h5.7v2.137H28Z" transform="translate(-28.003 -21.5)" fill="#e6e9ed"/>
        </g>
        <g id="Grupo_1112708" data-name="Grupo 1112708" transform="translate(8.546)">
          <path id="Trazado_904349" data-name="Trazado 904349" d="M38.852,21.417V23.91a1.424,1.424,0,0,1-2.849,0V18.924a1.424,1.424,0,0,1,2.849,0Z" transform="translate(-36.003 -17.5)" fill="#ed5565"/>
        </g>
        <g id="Grupo_1112709" data-name="Grupo 1112709">
          <path id="Trazado_904350" data-name="Trazado 904350" d="M26.852,22.485V23.91a1.424,1.424,0,0,1-2.849,0V18.924a1.424,1.424,0,0,1,2.849,0v3.561Z" transform="translate(-24.003 -17.5)" fill="#ed5565"/>
        </g>
      </g>
    </g>
    <g id="Grupo_1112742" data-name="Grupo 1112742" transform="translate(0 0)">
      <g id="Grupo_1112728" data-name="Grupo 1112728">
        <g id="Grupo_1112712" data-name="Grupo 1112712" transform="translate(0 24.215)">
          <path id="Trazado_904351" data-name="Trazado 904351" d="M44.869,50.607H.712A.712.712,0,0,1,.12,49.5L7.242,38.818a.712.712,0,1,1,1.185.791L2.043,49.183h41.5l-6.384-9.576a.712.712,0,0,1,1.185-.791L45.462,49.5a.712.712,0,0,1-.593,1.107Z" transform="translate(0 -38.5)"/>
        </g>
        <g id="Grupo_1112713" data-name="Grupo 1112713" transform="translate(0 34.898)">
          <path id="Trazado_904352" data-name="Trazado 904352" d="M44.869,57.773H.712A.712.712,0,0,1,0,57.061V54.212A.712.712,0,0,1,.712,53.5H44.869a.712.712,0,0,1,.712.712v2.849A.712.712,0,0,1,44.869,57.773ZM1.424,56.349H44.157V54.924H1.424Z" transform="translate(0 -53.5)"/>
        </g>
        <g id="Grupo_1112714" data-name="Grupo 1112714" transform="translate(6.303 27.063)">
          <path id="Trazado_904353" data-name="Trazado 904353" d="M9.561,51.758a.713.713,0,0,1-.642-1.019L12.653,42.9a.712.712,0,0,1,1.286.613L10.2,51.352A.711.711,0,0,1,9.561,51.758Z" transform="translate(-8.849 -42.499)"/>
        </g>
        <g id="Grupo_1112715" data-name="Grupo 1112715" transform="translate(13.627 27.776)">
          <path id="Trazado_904354" data-name="Trazado 904354" d="M19.846,48.486a.713.713,0,0,1-.685-.908l1.021-3.561a.712.712,0,0,1,1.369.392L20.53,47.969a.711.711,0,0,1-.684.516Z" transform="translate(-19.133 -43.5)"/>
        </g>
        <g id="Grupo_1112716" data-name="Grupo 1112716" transform="translate(36.495 32.048)">
          <path id="Trazado_904355" data-name="Trazado 904355" d="M53.314,53.773a.711.711,0,0,1-.643-.405l-1.359-2.85A.712.712,0,1,1,52.6,49.9l1.359,2.85a.712.712,0,0,1-.642,1.018Z" transform="translate(-51.242 -49.498)"/>
        </g>
        <g id="Grupo_1112717" data-name="Grupo 1112717" transform="translate(32.762 24.215)">
          <path id="Trazado_904356" data-name="Trazado 904356" d="M49.088,44.906a.711.711,0,0,1-.643-.405L46.07,39.519a.712.712,0,0,1,1.286-.613l2.374,4.982a.712.712,0,0,1-.642,1.018Z" transform="translate(-46 -38.5)"/>
        </g>
        <g id="Grupo_1112718" data-name="Grupo 1112718" transform="translate(29.509 27.776)">
          <path id="Trazado_904357" data-name="Trazado 904357" d="M43.166,48.486a.711.711,0,0,1-.684-.516l-1.021-3.561a.712.712,0,0,1,1.369-.392l1.021,3.561a.713.713,0,0,1-.685.908Z" transform="translate(-41.433 -43.5)"/>
        </g>
        <g id="Grupo_1112719" data-name="Grupo 1112719" transform="translate(5.223 27.064)">
          <path id="Trazado_904358" data-name="Trazado 904358" d="M12.86,43.924H8.045a.712.712,0,0,1,0-1.424H12.86a.712.712,0,1,1,0,1.424Z" transform="translate(-7.333 -42.5)"/>
        </g>
        <g id="Grupo_1112720" data-name="Grupo 1112720" transform="translate(36.496 32.049)">
          <path id="Trazado_904359" data-name="Trazado 904359" d="M57.717,50.924H51.956a.712.712,0,0,1,0-1.424h5.761a.712.712,0,1,1,0,1.424Z" transform="translate(-51.244 -49.5)"/>
        </g>
        <g id="Grupo_1112721" data-name="Grupo 1112721" transform="translate(35.138 29.201)">
          <path id="Trazado_904360" data-name="Trazado 904360" d="M55.27,46.924h-5.22a.712.712,0,1,1,0-1.424h5.22a.712.712,0,1,1,0,1.424Z" transform="translate(-49.337 -45.5)"/>
        </g>
        <g id="Grupo_1112722" data-name="Grupo 1112722" transform="translate(14.647 27.776)">
          <path id="Trazado_904361" data-name="Trazado 904361" d="M27.285,44.924H21.278a.712.712,0,0,1,0-1.424h6.007a.712.712,0,0,1,0,1.424Z" transform="translate(-20.566 -43.5)"/>
        </g>
        <g id="Grupo_1112723" data-name="Grupo 1112723" transform="translate(23.569 27.776)">
          <path id="Trazado_904362" data-name="Trazado 904362" d="M39.746,44.924H33.805a.712.712,0,1,1,0-1.424h5.941a.712.712,0,1,1,0,1.424Z" transform="translate(-33.093 -43.5)"/>
        </g>
        <g id="Grupo_1112724" data-name="Grupo 1112724" transform="translate(13.627 31.337)">
          <path id="Trazado_904363" data-name="Trazado 904363" d="M36.749,49.924h-16.9a.712.712,0,1,1,0-1.424h16.9a.712.712,0,1,1,0,1.424Z" transform="translate(-19.133 -48.5)"/>
        </g>
        <g id="Grupo_1112725" data-name="Grupo 1112725" transform="translate(11.395)">
          <path id="Trazado_904364" data-name="Trazado 904364" d="M27.4,35.125a.711.711,0,0,1-.469-.177C26.48,34.557,16,25.267,16,15.9a11.4,11.4,0,1,1,22.791,0c0,9.372-10.48,18.662-10.926,19.053A.711.711,0,0,1,27.4,35.125Zm0-29.2A9.982,9.982,0,0,0,17.424,15.9c0,7.645,7.937,15.629,9.971,17.55,2.034-1.92,9.971-9.9,9.971-17.55A9.982,9.982,0,0,0,27.4,5.924Z" transform="translate(-16 -4.5)"/>
        </g>
        <g id="Grupo_1112726" data-name="Grupo 1112726" transform="translate(7.122 24.215)">
          <path id="Trazado_904365" data-name="Trazado 904365" d="M20.987,39.924H10.712a.712.712,0,0,1,0-1.424H20.987a.712.712,0,1,1,0,1.424Z" transform="translate(-10 -38.5)"/>
        </g>
        <g id="Grupo_1112727" data-name="Grupo 1112727" transform="translate(26.759 24.215)">
          <path id="Trazado_904366" data-name="Trazado 904366" d="M48.56,39.924H38.284a.712.712,0,0,1,0-1.424H48.56a.712.712,0,1,1,0,1.424Z" transform="translate(-37.572 -38.5)"/>
        </g>
      </g>
      <g id="Grupo_1112741" data-name="Grupo 1112741" transform="translate(15.669 8.547)">
        <g id="Grupo_1112729" data-name="Grupo 1112729" transform="translate(0.712)">
          <path id="Trazado_904367" data-name="Trazado 904367" d="M26.561,19.349a.712.712,0,0,1-.712-.712.712.712,0,0,0-1.424,0,.712.712,0,1,1-1.424,0,2.137,2.137,0,0,1,4.273,0A.712.712,0,0,1,26.561,19.349Z" transform="translate(-23 -16.5)"/>
        </g>
        <g id="Grupo_1112730" data-name="Grupo 1112730" transform="translate(0.712 6.411)">
          <path id="Trazado_904368" data-name="Trazado 904368" d="M25.137,28.351A2.139,2.139,0,0,1,23,26.214a.712.712,0,0,1,1.424,0,.712.712,0,0,0,1.424,0,.712.712,0,0,1,1.424,0A2.139,2.139,0,0,1,25.137,28.351Z" transform="translate(-23 -25.502)"/>
        </g>
        <g id="Grupo_1112731" data-name="Grupo 1112731" transform="translate(0.712 1.424)">
          <path id="Trazado_904369" data-name="Trazado 904369" d="M23.712,24.911A.712.712,0,0,1,23,24.2V19.212a.712.712,0,1,1,1.424,0V24.2a.712.712,0,0,1-.712.712Z" transform="translate(-23 -18.5)"/>
        </g>
        <g id="Grupo_1112732" data-name="Grupo 1112732" transform="translate(3.561 1.424)">
          <path id="Trazado_904370" data-name="Trazado 904370" d="M27.712,24.911A.712.712,0,0,1,27,24.2V19.212a.712.712,0,0,1,1.424,0V24.2a.712.712,0,0,1-.712.712Z" transform="translate(-27 -18.5)"/>
        </g>
        <g id="Grupo_1112733" data-name="Grupo 1112733" transform="translate(9.258)">
          <path id="Trazado_904371" data-name="Trazado 904371" d="M38.56,19.349a.712.712,0,0,1-.712-.712.712.712,0,0,0-1.424,0,.712.712,0,1,1-1.424,0,2.137,2.137,0,1,1,4.273,0A.712.712,0,0,1,38.56,19.349Z" transform="translate(-34.999 -16.5)"/>
        </g>
        <g id="Grupo_1112734" data-name="Grupo 1112734" transform="translate(9.258 6.411)">
          <path id="Trazado_904372" data-name="Trazado 904372" d="M37.136,28.351A2.139,2.139,0,0,1,35,26.214a.712.712,0,1,1,1.424,0,.712.712,0,1,0,1.424,0,.712.712,0,1,1,1.424,0A2.139,2.139,0,0,1,37.136,28.351Z" transform="translate(-34.999 -25.502)"/>
        </g>
        <g id="Grupo_1112735" data-name="Grupo 1112735" transform="translate(9.258 1.424)">
          <path id="Trazado_904373" data-name="Trazado 904373" d="M35.711,24.911A.712.712,0,0,1,35,24.2V19.212a.712.712,0,1,1,1.424,0V24.2a.712.712,0,0,1-.712.712Z" transform="translate(-34.999 -18.5)"/>
        </g>
        <g id="Grupo_1112736" data-name="Grupo 1112736" transform="translate(12.107 1.424)">
          <path id="Trazado_904374" data-name="Trazado 904374" d="M39.711,24.911A.712.712,0,0,1,39,24.2V19.212a.712.712,0,1,1,1.424,0V24.2a.712.712,0,0,1-.712.712Z" transform="translate(-38.999 -18.5)"/>
        </g>
        <g id="Grupo_1112737" data-name="Grupo 1112737" transform="translate(3.561 2.849)">
          <path id="Trazado_904375" data-name="Trazado 904375" d="M33.409,21.924h-5.7a.712.712,0,1,1,0-1.424h5.7a.712.712,0,1,1,0,1.424Z" transform="translate(-27 -20.5)"/>
        </g>
        <g id="Grupo_1112738" data-name="Grupo 1112738" transform="translate(3.561 4.985)">
          <path id="Trazado_904376" data-name="Trazado 904376" d="M33.409,24.924h-5.7a.712.712,0,0,1,0-1.424h5.7a.712.712,0,1,1,0,1.424Z" transform="translate(-27 -23.5)"/>
        </g>
        <g id="Grupo_1112739" data-name="Grupo 1112739" transform="translate(12.107 3.917)">
          <path id="Trazado_904377" data-name="Trazado 904377" d="M40.423,23.424h-.712a.712.712,0,0,1,0-1.424h.712a.712.712,0,1,1,0,1.424Z" transform="translate(-38.999 -22)"/>
        </g>
        <g id="Grupo_1112740" data-name="Grupo 1112740" transform="translate(0 3.917)">
          <path id="Trazado_904378" data-name="Trazado 904378" d="M23.424,23.424h-.712a.712.712,0,0,1,0-1.424h.712a.712.712,0,0,1,0,1.424Z" transform="translate(-22 -22)"/>
        </g>
      </g>
    </g>
  </g>
</svg>
