<svg xmlns="http://www.w3.org/2000/svg" width="190" height="190" viewBox="0 0 190 190">
  <g id="Grupo_1112863" data-name="Grupo 1112863" transform="translate(-495.025 -1505.699)">
    <circle id="Elipse_14846" data-name="Elipse 14846" cx="95" cy="95" r="95" transform="translate(495.025 1505.699)" fill="#d5effb"/>
    <circle id="Elipse_14847" data-name="Elipse 14847" cx="66" cy="66" r="66" transform="translate(524.025 1534.699)" fill="#6896ab"/>
    <g id="Grupo_1112472" data-name="Grupo 1112472" transform="translate(539.41 1550.035)">
      <g id="Grupo_1112467" data-name="Grupo 1112467" transform="translate(7.5 7.5)">
        <g id="Grupo_1112460" data-name="Grupo 1112460" transform="translate(20.584 42.879)">
          <path id="Trazado_903776" data-name="Trazado 903776" d="M226.07,289.883H213.617c-17.183-7.62-25.509-19.424-18.908-35.533h22.477Z" transform="translate(-180.907 -254.35)" fill="#99b2e9"/>
          <path id="Trazado_903777" data-name="Trazado 903777" d="M158.71,289.883H126l8.883-35.533H139.8C140.866,270.063,147.235,281.969,158.71,289.883Z" transform="translate(-126 -254.35)" fill="#85a4e4"/>
        </g>
        <g id="Grupo_1112461" data-name="Grupo 1112461" transform="translate(0 0)">
          <path id="Trazado_903778" data-name="Trazado 903778" d="M50.334,20.2s1.8-5.546-1.51-9.5C46.458,7.886,42.84,7.493,40.961,7.5a1.538,1.538,0,0,0-1.508,1.266c-.332,1.849-.574,5.481,1.791,8.3C44.559,21.015,50.334,20.2,50.334,20.2Z" transform="translate(-33.73 -7.5)" fill="#8ce09f"/>
          <path id="Trazado_903779" data-name="Trazado 903779" d="M91.039,78.356A19.193,19.193,0,0,1,86.488,90.2C69.5,89.228,63.69,76.438,67.846,64.33a16.815,16.815,0,0,1,4.886.851,3.1,3.1,0,0,0,1.873,0C85.957,61.582,91.039,70.017,91.039,78.356Z" transform="translate(-56.299 -54.456)" fill="#ff8a98"/>
          <path id="Trazado_903780" data-name="Trazado 903780" d="M37.689,90.2a14.154,14.154,0,0,1-9.434,5.379,6.879,6.879,0,0,1-2.437-.269,3.276,3.276,0,0,0-1.9,0,6.875,6.875,0,0,1-2.437.269C13.647,94.914,7.5,85.98,7.5,78.354c0-7.032,3.611-14.129,11.548-14.029A24.881,24.881,0,0,0,37.689,90.2Z" transform="translate(-7.5 -54.453)" fill="#ff6e80"/>
        </g>
        <g id="Grupo_1112466" data-name="Grupo 1112466" transform="translate(48.116 3.201)">
          <g id="Grupo_1112462" data-name="Grupo 1112462" transform="translate(1.737 26.276)">
            <path id="Trazado_903781" data-name="Trazado 903781" d="M440.725,177.2v2.979a6.908,6.908,0,0,1-.822,3.28c-5.705.256-9.384-1.693-10.483-6.259Z" transform="translate(-405.984 -177.2)" fill="#ffce71"/>
            <path id="Trazado_903782" data-name="Trazado 903782" d="M328.419,183.459a6.947,6.947,0,0,1-6.126,3.669,40.489,40.489,0,0,1-20.844,0,6.948,6.948,0,0,1-6.948-6.948V177.2h23.436A36.484,36.484,0,0,0,328.419,183.459Z" transform="translate(-294.5 -177.2)" fill="#ffb357"/>
          </g>
          <g id="Grupo_1112463" data-name="Grupo 1112463" transform="translate(0.419 21.381)">
            <path id="Trazado_903783" data-name="Trazado 903783" d="M417.751,154.235a3.089,3.089,0,0,1-4.574,2.71l-1.846-1.013a6.077,6.077,0,0,0-4.4-.566c-4.41-1.4-8.368-3.1-6.384-6.345h11.987A5.215,5.215,0,0,1,417.751,154.235Z" transform="translate(-380.374 -149.02)" fill="#8ce09f"/>
            <path id="Trazado_903784" data-name="Trazado 903784" d="M313.467,155.365a5.987,5.987,0,0,0-1.449.566l-1.254.688a10.752,10.752,0,0,1-10.332,0l-1.254-.688a6.082,6.082,0,0,0-5.849,0l-1.846,1.013a3.089,3.089,0,0,1-4.574-2.71,5.213,5.213,0,0,1,5.216-5.215h14.958A31.629,31.629,0,0,0,313.467,155.365Z" transform="translate(-286.91 -149.02)" fill="#73da8c"/>
          </g>
          <g id="Grupo_1112464" data-name="Grupo 1112464" transform="translate(1.737)">
            <path id="Trazado_903785" data-name="Trazado 903785" d="M378.933,41.727a129.389,129.389,0,0,1-19.766.881c-3.7-8.345-2.81-11.062.328-16.533a15.66,15.66,0,0,1,2.13-.144h3.359a15.8,15.8,0,0,1,15.678,13.858A1.739,1.739,0,0,1,378.933,41.727Z" transform="translate(-345.934 -25.93)" fill="#ffce71"/>
            <path id="Trazado_903786" data-name="Trazado 903786" d="M310.082,42.412c-3.718,1.955-8.594,1.383-13.842,0a1.738,1.738,0,0,1-1.73-1.939A15.8,15.8,0,0,1,308.059,26.76,28.025,28.025,0,0,0,310.082,42.412Z" transform="translate(-294.497 -26.616)" fill="#ffb357"/>
          </g>
          <g id="Grupo_1112465" data-name="Grupo 1112465" transform="translate(0 15.797)">
            <path id="Trazado_903787" data-name="Trazado 903787" d="M400.732,119.91a3.042,3.042,0,0,1-3.04,3.04h-14.2c-3.868-1.515-5.863-3.431-3.65-6.08h17.853A3.04,3.04,0,0,1,400.732,119.91Z" transform="translate(-362.517 -116.87)" fill="#e4996d"/>
            <path id="Trazado_903788" data-name="Trazado 903788" d="M305.471,122.95H287.54a3.04,3.04,0,1,1,0-6.08h14.282A28.583,28.583,0,0,0,305.471,122.95Z" transform="translate(-284.5 -116.87)" fill="#df8a57"/>
          </g>
        </g>
        <path id="Trazado_903789" data-name="Trazado 903789" d="M247.542,237.824a3.474,3.474,0,0,1-3.474,3.474h-48.14c-2.984-2.232-3.243-4.549-.476-6.948h48.616a3.475,3.475,0,0,1,3.474,3.474Z" transform="translate(-161.212 -194.945)" fill="#b5e9f1"/>
        <path id="Trazado_903790" data-name="Trazado 903790" d="M137.564,454.5H87.711a5.211,5.211,0,0,0-5.211,5.211v1.737a1.738,1.738,0,0,0,1.737,1.737h56.8a1.738,1.738,0,0,0,1.737-1.737v-1.737A5.211,5.211,0,0,0,137.564,454.5Z" transform="translate(-69.472 -376.855)" fill="#b5e9f1"/>
        <path id="Trazado_903791" data-name="Trazado 903791" d="M140.173,463.185H84.237a1.738,1.738,0,0,1-1.737-1.737v-1.737a5.211,5.211,0,0,1,5.211-5.211h33.976A57.657,57.657,0,0,0,140.173,463.185Z" transform="translate(-69.472 -376.855)" fill="#9be1ec"/>
        <path id="Trazado_903792" data-name="Trazado 903792" d="M42.216,241.3H10.974A3.475,3.475,0,0,1,7.5,237.824a3.428,3.428,0,0,1,.41-1.638,3.47,3.47,0,0,1,3.064-1.836H41.74A66.394,66.394,0,0,0,42.216,241.3Z" transform="translate(-7.5 -194.945)" fill="#9be1ec"/>
      </g>
      <g id="Grupo_1112471" data-name="Grupo 1112471" transform="translate(7.5 7.5)">
        <line id="Línea_634" data-name="Línea 634" x1="7.824" y2="31.293" transform="translate(20.775 46.353)" fill="none" stroke="#000" stroke-linecap="round" stroke-linejoin="round" stroke-miterlimit="10" stroke-width="2"/>
        <line id="Línea_635" data-name="Línea 635" x1="7.824" y1="31.293" transform="translate(57.732 46.353)" fill="none" stroke="#000" stroke-linecap="round" stroke-linejoin="round" stroke-miterlimit="10" stroke-width="2"/>
        <g id="Grupo_1112468" data-name="Grupo 1112468" transform="translate(0 0)">
          <path id="Trazado_903793" data-name="Trazado 903793" d="M41.947,17.8a7.9,7.9,0,0,1-.7-.737c-2.366-2.819-2.124-6.451-1.791-8.3A1.536,1.536,0,0,1,40.96,7.5c1.878-.007,5.5.386,7.862,3.2a9.862,9.862,0,0,1,1.893,7.641" transform="translate(-33.729 -7.5)" fill="none" stroke="#000" stroke-linecap="round" stroke-linejoin="round" stroke-miterlimit="10" stroke-width="2"/>
          <path id="Trazado_903794" data-name="Trazado 903794" d="M110.395,31.531a19.459,19.459,0,0,0-3.285,6.693" transform="translate(-89.807 -27.357)" fill="none" stroke="#000" stroke-linecap="round" stroke-linejoin="round" stroke-miterlimit="10" stroke-width="2"/>
          <path id="Trazado_903795" data-name="Trazado 903795" d="M16.289,93.863A19.112,19.112,0,0,1,7.5,78.358c0-5.96,2.6-11.966,8.218-13.6a14.062,14.062,0,0,1,8.216.422,3.168,3.168,0,0,0,.552.122c.1.012.21.019.316.021a3.087,3.087,0,0,0,1-.142c5.656-1.793,9.755-.6,12.446,2.083" transform="translate(-7.5 -54.459)" fill="none" stroke="#000" stroke-linecap="round" stroke-linejoin="round" stroke-miterlimit="10" stroke-width="2"/>
          <path id="Trazado_903796" data-name="Trazado 903796" d="M164.793,111.371a18.393,18.393,0,0,1-7.893,21.362" transform="translate(-130.949 -93.328)" fill="none" stroke="#000" stroke-linecap="round" stroke-linejoin="round" stroke-miterlimit="10" stroke-width="2"/>
        </g>
        <path id="Trazado_903797" data-name="Trazado 903797" d="M329.241,193.61v.129a6.948,6.948,0,0,1-6.948,6.948H301.448a6.948,6.948,0,0,1-6.948-6.948v-.129" transform="translate(-244.647 -161.282)" fill="none" stroke="#000" stroke-linecap="round" stroke-linejoin="round" stroke-miterlimit="10" stroke-width="2"/>
        <path id="Trazado_903798" data-name="Trazado 903798" d="M321.291,151.87a5.211,5.211,0,0,1,3,4.72,3.089,3.089,0,0,1-4.574,2.71l-1.846-1.013a6.082,6.082,0,0,0-5.849,0l-1.254.688a10.752,10.752,0,0,1-10.332,0l-1.254-.688a6.082,6.082,0,0,0-5.849,0l-1.846,1.013a3.089,3.089,0,0,1-4.574-2.71,5.211,5.211,0,0,1,3-4.72" transform="translate(-238.376 -126.793)" fill="none" stroke="#000" stroke-linecap="round" stroke-linejoin="round" stroke-miterlimit="10" stroke-width="2"/>
        <path id="Trazado_903799" data-name="Trazado 903799" d="M327.5,41.727H296.242a1.737,1.737,0,0,1-1.73-1.938,15.8,15.8,0,0,1,15.678-13.858h3.358a15.8,15.8,0,0,1,15.678,13.858A1.737,1.737,0,0,1,327.5,41.727Z" transform="translate(-244.647 -22.73)" fill="none" stroke="#000" stroke-linecap="round" stroke-linejoin="round" stroke-miterlimit="10" stroke-width="2"/>
        <path id="Trazado_903800" data-name="Trazado 903800" d="M309.277,122.95h10.4a3.04,3.04,0,1,0,0-6.08H287.54a3.04,3.04,0,0,0,0,6.08H303.2" transform="translate(-236.384 -97.872)" fill="none" stroke="#000" stroke-linecap="round" stroke-linejoin="round" stroke-miterlimit="10" stroke-width="2"/>
        <line id="Línea_636" data-name="Línea 636" transform="translate(74.171 12.837)" fill="none" stroke="#000" stroke-linecap="round" stroke-linejoin="round" stroke-miterlimit="10" stroke-width="2"/>
        <line id="Línea_637" data-name="Línea 637" transform="translate(67.223 9.363)" fill="none" stroke="#000" stroke-linecap="round" stroke-linejoin="round" stroke-miterlimit="10" stroke-width="2"/>
        <line id="Línea_638" data-name="Línea 638" transform="translate(60.275 12.837)" fill="none" stroke="#000" stroke-linecap="round" stroke-linejoin="round" stroke-miterlimit="10" stroke-width="2"/>
        <path id="Trazado_903801" data-name="Trazado 903801" d="M90.356,241.3H10.974A3.474,3.474,0,0,1,7.5,237.821h0a3.474,3.474,0,0,1,3.474-3.474H90.356a3.474,3.474,0,0,1,3.474,3.474h0A3.474,3.474,0,0,1,90.356,241.3Z" transform="translate(-7.5 -194.943)" fill="none" stroke="#000" stroke-linecap="round" stroke-linejoin="round" stroke-miterlimit="10" stroke-width="2"/>
        <path id="Trazado_903802" data-name="Trazado 903802" d="M109.782,454.5h27.782a5.211,5.211,0,0,1,5.211,5.211v1.737a1.738,1.738,0,0,1-1.737,1.737h-56.8a1.738,1.738,0,0,1-1.737-1.737v-1.737a5.211,5.211,0,0,1,5.211-5.211H103.7" transform="translate(-69.472 -376.855)" fill="none" stroke="#000" stroke-linecap="round" stroke-linejoin="round" stroke-miterlimit="10" stroke-width="2"/>
        <g id="Grupo_1112470" data-name="Grupo 1112470" transform="translate(32.318 59.079)">
          <line id="Línea_639" data-name="Línea 639" y2="2.084" transform="translate(0)" fill="none" stroke="#000" stroke-linecap="round" stroke-linejoin="round" stroke-miterlimit="10" stroke-width="2"/>
          <line id="Línea_640" data-name="Línea 640" y2="2.084" transform="translate(21.695)" fill="none" stroke="#000" stroke-linecap="round" stroke-linejoin="round" stroke-miterlimit="10" stroke-width="2"/>
          <g id="Grupo_1112469" data-name="Grupo 1112469" transform="translate(5.857 3.327)">
            <path id="Trazado_903803" data-name="Trazado 903803" d="M232.292,366.773a2.511,2.511,0,0,1-5.022,0" transform="translate(-227.27 -366.773)" fill="none" stroke="#000" stroke-linecap="round" stroke-linejoin="round" stroke-miterlimit="10" stroke-width="2"/>
            <path id="Trazado_903804" data-name="Trazado 903804" d="M261.2,366.773a2.511,2.511,0,1,1-5.022,0" transform="translate(-251.159 -366.773)" fill="none" stroke="#000" stroke-linecap="round" stroke-linejoin="round" stroke-miterlimit="10" stroke-width="2"/>
          </g>
        </g>
      </g>
    </g>
  </g>
</svg>
