<svg xmlns="http://www.w3.org/2000/svg" width="66" height="66" viewBox="0 0 66 66">
  <g id="Grupo_1112906" data-name="Grupo 1112906" transform="translate(-514.051 -3527)">
    <rect id="Rectángulo_400898" data-name="Rectángulo 400898" width="66" height="66" rx="33" transform="translate(514.051 3527)" fill="#fdbabb"/>
    <g id="Grupo_1112768" data-name="Grupo 1112768" transform="translate(524.051 3535.925)">
      <g id="Grupo_1112767" data-name="Grupo 1112767" transform="translate(0.683 4.771)">
        <path id="Trazado_904532" data-name="Trazado 904532" d="M197.1,42.6a3.685,3.685,0,0,0-4.234.675,4.248,4.248,0,0,1-3.914,1.365s1.715,2.236,6.683,1.351" transform="translate(-172.66 -42.208)" fill="#455256"/>
        <path id="Trazado_904533" data-name="Trazado 904533" d="M16.656,301.715a9.057,9.057,0,1,0,9.057,9.057A9.057,9.057,0,0,0,16.656,301.715Zm0,15.907a6.85,6.85,0,1,1,6.85-6.85A6.85,6.85,0,0,1,16.656,317.622Z" transform="translate(-7.599 -278.4)" fill="#455256"/>
        <path id="Trazado_904534" data-name="Trazado 904534" d="M311.846,301.715a9.057,9.057,0,1,0,9.057,9.057A9.057,9.057,0,0,0,311.846,301.715Zm0,15.907a6.85,6.85,0,1,1,6.85-6.85A6.85,6.85,0,0,1,311.846,317.622Z" transform="translate(-276.268 -278.4)" fill="#455256"/>
      </g>
      <path id="Trazado_904535" data-name="Trazado 904535" d="M289.939,43.941a5.138,5.138,0,0,0,10.276,0l-4.683-3.014Z" transform="translate(-263.89 -36.272)" fill="#f9dca2"/>
      <path id="Trazado_904536" data-name="Trazado 904536" d="M292.432,43.941l4.255-2.293-1.12-.721-5.593,3.014a5.138,5.138,0,0,0,6.367,4.989A5.139,5.139,0,0,1,292.432,43.941Z" transform="translate(-263.922 -36.272)" fill="#e5c691"/>
      <path id="Trazado_904537" data-name="Trazado 904537" d="M189.63,76.144a7.5,7.5,0,0,0-4.335,2.139s-4.411,4.414-4.462,4.47a4.326,4.326,0,0,0,.158,5.951l8.665-2.526Z" transform="translate(-163.577 -68.325)" fill="#8d4ad3"/>
      <path id="Trazado_904538" data-name="Trazado 904538" d="M183.018,82.753c.051-.056,4.462-4.47,4.462-4.47a7.515,7.515,0,0,1,2.152-1.5l0-.635a7.5,7.5,0,0,0-4.335,2.139s-4.411,4.414-4.462,4.47a4.326,4.326,0,0,0,.158,5.951l1.748-.51A4.328,4.328,0,0,1,183.018,82.753Z" transform="translate(-163.577 -68.324)" fill="#713bb7"/>
      <path id="Trazado_904539" data-name="Trazado 904539" d="M261.964,108.328l-.115,5.013,5.5,2.264a2.325,2.325,0,0,1,1.272,3.041,2.283,2.283,0,0,1-2.964,1.2l-7-2.881a2.282,2.282,0,0,1-1.413-2.169l.154-6.583a2.283,2.283,0,0,1,2.34-2.225h0A2.283,2.283,0,0,1,261.964,108.328Z" transform="translate(-234.132 -95.486)" fill="#f9dca2"/>
      <path id="Trazado_904540" data-name="Trazado 904540" d="M267.75,119.574l-7-2.881a2.282,2.282,0,0,1-1.413-2.169l.154-6.583a2.28,2.28,0,0,1,.974-1.814,2.278,2.278,0,0,0-.728-.138h0a2.283,2.283,0,0,0-2.34,2.225l-.154,6.583a2.282,2.282,0,0,0,1.413,2.169l7,2.881a2.281,2.281,0,0,0,2.178-.241Z" transform="translate(-234.132 -95.487)" fill="#e5c691"/>
      <path id="Trazado_904541" data-name="Trazado 904541" d="M189.114,157.991a2.048,2.048,0,0,1,.545,1.918l-2.048,8.7A2.081,2.081,0,0,1,185.2,170.2a2.047,2.047,0,0,1-1.583-2.476l1.8-7.642-4.421-4.421a4.326,4.326,0,0,1-.158-5.951Z" transform="translate(-163.576 -135.28)" fill="#f9dca2"/>
      <path id="Trazado_904542" data-name="Trazado 904542" d="M185.525,169.641a2.046,2.046,0,0,1-.546-1.919l1.8-7.642-4.421-4.421a4.327,4.327,0,0,1-.726-5.154l-.8-.8a4.326,4.326,0,0,0,.158,5.951l4.421,4.421-1.8,7.642A2.047,2.047,0,0,0,185.2,170.2a1.988,1.988,0,0,0,1.083-.08A2.045,2.045,0,0,1,185.525,169.641Z" transform="translate(-163.577 -135.279)" fill="#e5c691"/>
      <path id="Trazado_904543" data-name="Trazado 904543" d="M189.115,157.991l-2.83,1.6-.873.492-4.421-4.421a4.326,4.326,0,0,1-.158-5.951Z" transform="translate(-163.577 -135.28)" fill="#efbc4b"/>
      <path id="Trazado_904544" data-name="Trazado 904544" d="M186.285,159.588l-.873.492-4.421-4.421a4.326,4.326,0,0,1-.158-5.951l.8.8a4.327,4.327,0,0,0,.726,5.154Z" transform="translate(-163.577 -135.279)" fill="#c49433"/>
      <path id="Trazado_904545" data-name="Trazado 904545" d="M270.785,14.586h10.658a1.576,1.576,0,0,0,1.485-2.108c-.611-1.7-2.181-3.8-6.216-3.8-3.113,0-5.49,2.546-6.757,4.3A1.02,1.02,0,0,0,270.785,14.586Z" transform="translate(-245.525 -6.916)" fill="#efbc4b"/>
      <path id="Trazado_904546" data-name="Trazado 904546" d="M273.292,12.97c.94-1.556,2.613-3.739,4.8-4.205a10,10,0,0,0-1.379-.091c-3.113,0-5.49,2.546-6.757,4.3a1.02,1.02,0,0,0,.83,1.615h3.2C273.292,14.586,272.886,13.644,273.292,12.97Z" transform="translate(-245.526 -6.916)" fill="#c49433"/>
      <path id="Trazado_904547" data-name="Trazado 904547" d="M36.261,27.4a9.685,9.685,0,0,0-3.844.791l-1.785-3.463.632.26a2.926,2.926,0,0,0,1.117.221,2.983,2.983,0,0,0,2.733-1.782,2.912,2.912,0,0,0,.17-.525h.989a.683.683,0,1,0,0-1.365H35.259a3.042,3.042,0,0,0-1.784-2.054l-1.332-.548a.683.683,0,0,0-.52,1.263l1.332.548a1.682,1.682,0,0,1,.852.792H32.451a.683.683,0,1,0,0,1.365h1.4a1.608,1.608,0,0,1-2.068.823l-2.339-.963-.006,0-4.653-1.916a1.6,1.6,0,0,1-.991-1.521l.154-6.582a1.6,1.6,0,1,1,3.2.082l-.115,5.013a.682.682,0,0,0,.423.647l1.355.558a.683.683,0,0,0,.52-1.263l-.922-.38.1-4.543c0-.007,0-.014,0-.021A5.815,5.815,0,0,0,36.992,8.08a2.255,2.255,0,0,0,1.054-2.749,6.09,6.09,0,0,0-2.054-2.852,7.768,7.768,0,0,0-4.8-1.4c-2.681,0-4.836,1.7-6.25,3.269a4.309,4.309,0,0,0-4.53,1.012,3.586,3.586,0,0,1-3.252,1.189.683.683,0,0,0-.721,1.074c.066.086,1.4,1.761,4.836,1.822l-.036.034-4.3,4.3c-.061.061-.121.124-.179.188l-.008.009a5.006,5.006,0,0,0,.187,6.886l.294.294H13.071a.683.683,0,0,0,0,1.365h1.685l1.691,2.969-2.014,3.12a9.738,9.738,0,1,0,5.021,9.214H23.87a.683.683,0,0,0,.594-.345l5.875-10.337.865,1.678A9.736,9.736,0,1,0,36.261,27.4Zm-14.5,6.847A1.365,1.365,0,0,1,20.7,32.6l1.593-6.768v0l.136-.58,2.908-1.641a1.358,1.358,0,0,1,.079.865l-.252,1.072,0,.012-1.793,7.62A1.4,1.4,0,0,1,21.757,34.251Zm-1.648-5.092-1.586-2.785h2.242ZM26.784,8.352h2.435v3.313A4.468,4.468,0,0,1,26.784,8.352Zm4.4,3.772a4.477,4.477,0,0,1-.6-.042V8.352h2.185v.582a.683.683,0,0,0,1.365,0V8.352H35.59A4.462,4.462,0,0,1,31.187,12.125Zm0-9.684c2.9,0,4.774,1.128,5.574,3.353a.894.894,0,0,1-.843,1.194H25.261a.332.332,0,0,1-.3-.186.325.325,0,0,1,.026-.347C26.068,4.955,28.316,2.44,31.187,2.44Zm-12.082,5.3a5.545,5.545,0,0,0,2.268-1.415,2.841,2.841,0,0,1,2.613-.816l-.109.148a1.691,1.691,0,0,0-.136,1.768,1.716,1.716,0,0,0,.17.267c-.159.065-.317.135-.471.211A8.857,8.857,0,0,1,19.105,7.736Zm3.1,2.705a6.778,6.778,0,0,1,3.246-1.816,5.769,5.769,0,0,0,.337,1.2c-.053,0-.106-.007-.159-.008a2.97,2.97,0,0,0-3.04,2.892l-.139,5.942-4.228-4.228Zm-4.868,5.03,7.087,7.087-2.469,1.393L17.9,19.9A3.643,3.643,0,0,1,17.333,15.471Zm.943,7.051a.68.68,0,0,0,.263-.053l2.539,2.539H17.744l-1.416-2.486h1.948Zm-1.066,4.306,2.439,4.282-.277,1.177a2.73,2.73,0,0,0,2.11,3.3,2.635,2.635,0,0,0,.53.054c.072,0,.143,0,.213-.009l.471.827H19.454a9.736,9.736,0,0,0-3.875-7.106Zm.03,9.631a7.527,7.527,0,0,0-2.861-5.245l.459-.711a8.37,8.37,0,0,1,3.248,5.956H17.24Zm-1.372,0H10.993l2.642-4.094A6.164,6.164,0,0,1,15.868,36.459ZM9.74,45.517a8.374,8.374,0,1,1,3.952-15.755l-.459.711A7.531,7.531,0,0,0,7.1,30.086a.683.683,0,1,0,.479,1.279,6.168,6.168,0,0,1,4.911.26L9.166,36.772a.683.683,0,0,0,.574,1.053h6.128A6.167,6.167,0,1,1,5.725,32.46a.683.683,0,1,0-.889-1.036,7.532,7.532,0,1,0,12.4,6.4h.846A8.385,8.385,0,0,1,9.74,45.517Zm14.13-9.755-.337-.591A2.8,2.8,0,0,0,24.7,33.489l1.674-7.115h2.831ZM26.7,25.009l.052-.223a2.716,2.716,0,0,0-.153-1.717l2.087.859.557,1.081H26.7Zm9.565,20.508a8.372,8.372,0,0,1-4.429-15.478l.388.752a7.5,7.5,0,1,0,1.212-.628l-.388-.752a8.374,8.374,0,1,1,3.217,16.105Zm.607-8.687L34.06,31.383a6.179,6.179,0,1,1-1.213.627l2.807,5.446a.683.683,0,1,0,1.214-.625Z" transform="translate(0)"/>
    </g>
  </g>
</svg>
