<svg xmlns="http://www.w3.org/2000/svg" width="66" height="66" viewBox="0 0 66 66">
  <g id="Grupo_1112905" data-name="Grupo 1112905" transform="translate(-285.051 -3638)">
    <rect id="Rectángulo_400898" data-name="Rectángulo 400898" width="66" height="66" rx="33" transform="translate(285.051 3638)" fill="#fdbabb"/>
    <g id="Grupo_1112744" data-name="Grupo 1112744" transform="translate(296.344 3649.12)">
      <path id="Trazado_904379" data-name="Trazado 904379" d="M24,88H63.089v32.35H24Z" transform="translate(-21.978 -80.586)" fill="#84cbf0"/>
      <path id="Trazado_904380" data-name="Trazado 904380" d="M8,56H49.785v2.7H8Z" transform="translate(-7.326 -51.282)" fill="#54a8f1"/>
      <path id="Trazado_904381" data-name="Trazado 904381" d="M8,472.024H49.785v2.744H8Z" transform="translate(-7.326 -432.259)" fill="#54a8f1"/>
      <path id="Trazado_904382" data-name="Trazado 904382" d="M56,168H89.7v25.61H56Z" transform="translate(-51.282 -153.847)" fill="#eff8fc"/>
      <path id="Trazado_904383" data-name="Trazado 904383" d="M280,442.7v-.169A2.527,2.527,0,0,1,282.527,440h9.6v2.7Z" transform="translate(-256.412 -402.932)" fill="#faa231"/>
      <path id="Trazado_904384" data-name="Trazado 904384" d="M131.2,18.783H128V8h3.2a.842.842,0,0,1,.842.842v9.1A.842.842,0,0,1,131.2,18.783Z" transform="translate(-117.217 -7.326)" fill="#fedc7f"/>
      <path id="Trazado_904385" data-name="Trazado 904385" d="M58.7,45.392,56,44.718V40.674L58.7,40Z" transform="translate(-51.282 -36.63)" fill="#faa231"/>
      <path id="Trazado_904386" data-name="Trazado 904386" d="M91.37,25.435H88.842A.842.842,0,0,1,88,24.593v-7.75A.842.842,0,0,1,88.842,16H91.37Z" transform="translate(-80.586 -14.652)" fill="#fedc7f"/>
      <path id="Trazado_904387" data-name="Trazado 904387" d="M336.842,18.783h3.2V8h-3.2a.842.842,0,0,0-.842.842v9.1A.842.842,0,0,0,336.842,18.783Z" transform="translate(-307.694 -7.326)" fill="#fedc7f"/>
      <path id="Trazado_904388" data-name="Trazado 904388" d="M424,45.392l2.7-.674V40.674L424,40Z" transform="translate(-388.28 -36.63)" fill="#faa231"/>
      <path id="Trazado_904389" data-name="Trazado 904389" d="M384,25.435h2.527a.842.842,0,0,0,.842-.842v-7.75a.842.842,0,0,0-.842-.842H384Z" transform="translate(-351.65 -14.652)" fill="#fedc7f"/>
      <path id="Trazado_904390" data-name="Trazado 904390" d="M120,200h8.087v2.7H120Z" transform="translate(-109.891 -183.151)" fill="#faa231"/>
      <path id="Trazado_904391" data-name="Trazado 904391" d="M113.435,440h-8.087L104,442.7h10.783Z" transform="translate(-95.239 -402.932)" fill="#faa231"/>
      <path id="Trazado_904392" data-name="Trazado 904392" d="M288,368h1.348v1.348H288Z" transform="translate(-263.738 -336.998)"/>
      <path id="Trazado_904393" data-name="Trazado 904393" d="M80.674,357.392h1.348V355.37H82.7v2.022h1.348V355.37h6.74v2.022h1.348V355.37h.674v2.022h1.348V355.37h.674v-1.348h-.674V352H92.805v2.022h-.674V352H90.783v2.022h-6.74V352H82.7v2.022h-.674V352H80.674v2.022H80v1.348h.674Z" transform="translate(-73.26 -322.346)"/>
      <path id="Trazado_904394" data-name="Trazado 904394" d="M83.613,198.74h.313v4.718h1.348V198.74h2.7v6.74h1.348v-6.74h2.7v4.718h1.348V198.74h.313l1.148,1.722,1.121-.748L94.6,197.692a.674.674,0,0,0-.561-.3h-.674v-4.718a.674.674,0,0,0-.674-.674H84.6a.674.674,0,0,0-.674.674v4.718h-.674a.674.674,0,0,0-.561.3l-1.348,2.022,1.121.748Zm5.7-1.348v-1.348h2.7v1.348Zm-4.044-4.044h6.74V194.7h-6.74Zm0,2.7h2.7v1.348h-2.7Z" transform="translate(-74.491 -175.825)"/>
      <path id="Trazado_904395" data-name="Trazado 904395" d="M42.459,8.087a.674.674,0,0,0,.674-.674v-2.7a.674.674,0,0,0-.674-.674h-3.37a.674.674,0,0,0-.511-.654l-2.185-.546V2.19A1.518,1.518,0,0,0,34.877.674H33.024A.674.674,0,0,0,32.35,0h-3.2a1.518,1.518,0,0,0-1.516,1.516V4.044H15.5V1.516A1.518,1.518,0,0,0,13.985,0h-3.2a.674.674,0,0,0-.674.674H8.256A1.518,1.518,0,0,0,6.74,2.19v.653L4.554,3.39a.674.674,0,0,0-.511.654H.674A.674.674,0,0,0,0,4.718v2.7a.674.674,0,0,0,.674.674h.674v5.392H2.7V8.087H4.044a.674.674,0,0,0,.511.654l2.185.546v.653a1.518,1.518,0,0,0,1.516,1.516h1.853a.674.674,0,0,0,.674.674h3.2A1.518,1.518,0,0,0,15.5,10.615V8.087H27.632v2.527a1.518,1.518,0,0,0,1.516,1.516h3.2a.674.674,0,0,0,.674-.674h1.853a1.518,1.518,0,0,0,1.516-1.516V9.288l2.185-.546a.674.674,0,0,0,.511-.654h1.348v31H39.089V14.153a.674.674,0,0,0-.674-.674H4.718a.674.674,0,0,0-.674.674V39.089H2.7V14.827H1.348V39.091H.674A.674.674,0,0,0,0,39.765v2.744a.674.674,0,0,0,.674.674H33.7V41.835H1.348v-1.4H41.785v1.4h-6.74v1.348h7.414a.674.674,0,0,0,.674-.674V39.765a.674.674,0,0,0-.674-.674h-.674v-31ZM33.024,22.241a1.348,1.348,0,1,1-1.348,1.348,1.348,1.348,0,0,1,1.348-1.348Zm-6.74,0a1.348,1.348,0,1,1-1.348,1.348,1.348,1.348,0,0,1,1.348-1.348ZM5.392,14.827H25.61v6.151a2.7,2.7,0,1,0,1.348,0V14.827H32.35v6.151a2.7,2.7,0,1,0,1.348,0V14.827h4.044V39.089H36.394V34.2a3.207,3.207,0,0,0-2.414-3.1L35,28.556l-1.252-.5L32.568,31H26.958V32.35h6.234A1.855,1.855,0,0,1,35.046,34.2v2.19h-8.93a3.206,3.206,0,0,0-3.161,2.7H19.961L18.8,36.766a.674.674,0,0,0-.6-.373H10.109a.674.674,0,0,0-.6.373L8.345,39.089H5.392Zm4.46,24.262.674-1.348H17.78l.674,1.348Zm25.194,0H24.332a1.857,1.857,0,0,1,1.783-1.348h8.93ZM1.348,6.74V5.392h2.7V6.74Zm4.044.822V4.57L6.74,4.233V7.9Zm2.864,2.548a.168.168,0,0,1-.168-.168V2.19a.168.168,0,0,1,.168-.168h1.853v8.087Zm5.9.505a.168.168,0,0,1-.168.168H11.457V1.348h2.527a.168.168,0,0,1,.168.168ZM15.5,6.74V5.392H27.632V6.74Zm13.648,4.044a.168.168,0,0,1-.168-.168v-9.1a.168.168,0,0,1,.168-.168h2.527v9.435Zm5.9-.842a.168.168,0,0,1-.168.168H33.024V2.022h1.853a.168.168,0,0,1,.168.168Zm2.7-2.38L36.394,7.9V4.233l1.348.337Zm1.348-2.17h2.7V6.74h-2.7Z" transform="translate(0 0)"/>
    </g>
  </g>
</svg>
