<svg xmlns="http://www.w3.org/2000/svg" xmlns:xlink="http://www.w3.org/1999/xlink" width="190" height="190" viewBox="0 0 190 190">
  <defs>
    <clipPath id="clip-path">
      <path id="path2310" d="M0-682.665H89.894v89.893H0Z" transform="translate(0 682.665)"/>
    </clipPath>
  </defs>
  <g id="Grupo_1112865" data-name="Grupo 1112865" transform="translate(-915.025 -1505.699)">
    <circle id="Elipse_14850" data-name="Elipse 14850" cx="95" cy="95" r="95" transform="translate(915.025 1505.699)" fill="#d5effb"/>
    <circle id="Elipse_14851" data-name="Elipse 14851" cx="66" cy="66" r="66" transform="translate(944.025 1534.699)" fill="#6896ab"/>
    <g id="g2304" transform="translate(965.079 2236.637)">
      <g id="g2306" transform="translate(0 -682.665)">
        <g id="g2308" clip-path="url(#clip-path)">
          <g id="g2314" transform="translate(20.456 25.601)">
            <path id="path2316" d="M-314.843-157.421a23.873,23.873,0,0,1-23.873,23.873,23.873,23.873,0,0,1-23.873-23.873,23.873,23.873,0,0,1,23.873-23.873,23.873,23.873,0,0,1,23.873,23.873" transform="translate(362.588 181.294)" fill="#fac600"/>
          </g>
          <g id="g2318" transform="translate(20.456 25.601)">
            <path id="path2320" d="M-58.52-157.421a23.879,23.879,0,0,1,19.436-23.46,24,24,0,0,0-4.437-.413,23.873,23.873,0,0,0-23.873,23.873,23.873,23.873,0,0,0,23.873,23.873,24,24,0,0,0,4.437-.413,23.879,23.879,0,0,1-19.436-23.46" transform="translate(67.395 181.294)" fill="#e8b801"/>
          </g>
          <g id="g2322" transform="translate(20.456 25.601)">
            <path id="path2324" d="M-282.788-252.628a23.765,23.765,0,0,0,4.861-14.438A23.873,23.873,0,0,0-301.8-290.939a23.873,23.873,0,0,0-23.873,23.873A23.873,23.873,0,0,0-301.8-243.194a23.769,23.769,0,0,0,14.7-5.06" transform="translate(325.673 290.939)" fill="none" stroke="#000" stroke-linecap="round" stroke-linejoin="round" stroke-miterlimit="10" stroke-width="2"/>
          </g>
          <g id="g2326" transform="translate(10.361 15.505)">
            <path id="path2328" d="M-447.985-223.992a33.968,33.968,0,0,1-33.968,33.968,33.968,33.968,0,0,1-33.968-33.968,33.968,33.968,0,0,1,33.968-33.968" transform="translate(515.921 257.961)" fill="none" stroke="#000" stroke-linecap="round" stroke-linejoin="round" stroke-miterlimit="10" stroke-width="2"/>
          </g>
          <g id="g2330" transform="translate(37.559 55.293)">
            <path id="path2332" d="M-89.284,0a6.77,6.77,0,0,1-6.77,6.77A6.77,6.77,0,0,1-102.824,0" transform="translate(102.824)" fill="none" stroke="#000" stroke-linecap="round" stroke-linejoin="round" stroke-miterlimit="10" stroke-width="2"/>
          </g>
          <g id="g2334" transform="translate(29.628 45.693)">
            <path id="path2336" d="M0,0A6.41,6.41,0,0,0,9.07,0" fill="none" stroke="#000" stroke-linecap="round" stroke-linejoin="round" stroke-miterlimit="10" stroke-width="2"/>
          </g>
          <g id="g2338" transform="translate(49.96 45.693)">
            <path id="path2340" d="M0,0A6.41,6.41,0,0,0,9.07,0" fill="none" stroke="#000" stroke-linecap="round" stroke-linejoin="round" stroke-miterlimit="10" stroke-width="2"/>
          </g>
          <g id="g2342" transform="translate(52.385 13.347)">
            <path id="path2344" d="M-167.875-83.937A12.729,12.729,0,0,1-180.6-71.208a12.729,12.729,0,0,1-12.729-12.729A12.729,12.729,0,0,1-180.6-96.666a12.729,12.729,0,0,1,12.729,12.729" transform="translate(193.333 96.666)" fill="#62dbfb"/>
          </g>
          <g id="g2346" transform="translate(52.385 13.347)">
            <path id="path2348" d="M-37.782-83.937a12.731,12.731,0,0,1,9.864-12.4,12.752,12.752,0,0,0-2.865-.328A12.729,12.729,0,0,0-43.512-83.937,12.729,12.729,0,0,0-30.783-71.208a12.752,12.752,0,0,0,2.865-.328,12.731,12.731,0,0,1-9.864-12.4" transform="translate(43.512 96.666)" fill="#01d0fb"/>
          </g>
          <g id="g2350" transform="translate(52.385 13.347)">
            <path id="path2352" d="M-165.391-63.655a12.732,12.732,0,0,0-12.352-9.653,12.729,12.729,0,0,0-12.729,12.729A12.729,12.729,0,0,0-177.744-47.85a12.733,12.733,0,0,0,12.354-9.66" transform="translate(190.473 73.308)" fill="none" stroke="#000" stroke-linecap="round" stroke-linejoin="round" stroke-miterlimit="10" stroke-width="2"/>
          </g>
          <g id="g2354" transform="translate(61.875 22.513)">
            <path id="path2356" d="M0,0H6.478L0,7.126H6.478" fill="none" stroke="#000" stroke-linecap="round" stroke-linejoin="round" stroke-miterlimit="10" stroke-width="2"/>
          </g>
          <g id="g2358" transform="translate(49.793 2.916)">
            <path id="path2360" d="M0,0H6.478L0,7.126H6.478" fill="#fff" stroke="#000" stroke-linecap="round" stroke-linejoin="round" stroke-miterlimit="10" stroke-width="2"/>
          </g>
          <g id="g2362" transform="translate(82.098 34.509)">
            <path id="path2364" d="M0,0H6.478L0,7.126H6.478" fill="none" stroke="#000" stroke-linecap="round" stroke-linejoin="round" stroke-miterlimit="10" stroke-width="2"/>
          </g>
          <g id="g2366" transform="translate(1.317 53.579)">
            <path id="path2368" d="M-220.235-110.118a16.7,16.7,0,0,1-16.7,16.7,16.7,16.7,0,0,1-16.7-16.7,16.7,16.7,0,0,1,16.7-16.7,16.7,16.7,0,0,1,16.7,16.7" transform="translate(253.634 126.817)" fill="#8bc727"/>
          </g>
          <g id="g2370" transform="translate(1.317 53.579)">
            <path id="path2372" d="M-220.235-110.118a16.7,16.7,0,0,1-16.7,16.7,16.7,16.7,0,0,1-16.7-16.7,16.7,16.7,0,0,1,16.7-16.7A16.7,16.7,0,0,1-220.235-110.118Z" transform="translate(253.634 126.817)" fill="none" stroke="#000" stroke-linecap="round" stroke-linejoin="round" stroke-miterlimit="10" stroke-width="2"/>
          </g>
          <g id="g2374" transform="translate(5.706 57.969)">
            <path id="path2376" d="M-81.173-162.348a12.324,12.324,0,0,1-12.31-12.31,12.324,12.324,0,0,1,12.31-12.31,12.324,12.324,0,0,1,12.31,12.31,12.324,12.324,0,0,1-12.31,12.31" transform="translate(93.482 186.968)" fill="#fff"/>
          </g>
          <g id="g2378" transform="translate(5.706 57.969)">
            <path id="path2380" d="M-38.785-81.174a12.33,12.33,0,0,1,9.369-11.952,12.294,12.294,0,0,0-2.941-.358,12.324,12.324,0,0,0-12.31,12.31,12.324,12.324,0,0,0,12.31,12.31,12.285,12.285,0,0,0,2.941-.358,12.33,12.33,0,0,1-9.369-11.952" transform="translate(44.667 93.484)" fill="#f2fbff"/>
          </g>
          <g id="g2382" transform="translate(5.706 57.969)">
            <path id="path2384" d="M-159.847-61.167a12.332,12.332,0,0,0-11.931-9.276,12.324,12.324,0,0,0-12.31,12.31,12.324,12.324,0,0,0,12.31,12.31,12.332,12.332,0,0,0,11.911-9.2" transform="translate(184.088 70.442)" fill="none" stroke="#000" stroke-linecap="round" stroke-linejoin="round" stroke-miterlimit="10" stroke-width="2"/>
          </g>
          <g id="g2386" transform="translate(18.016 61.787)">
            <path id="path2388" d="M0,0V8.492" fill="#fff" stroke="#000" stroke-linecap="round" stroke-linejoin="round" stroke-miterlimit="10" stroke-width="2"/>
          </g>
          <g id="g2390" transform="translate(18.016 70.279)">
            <path id="path2392" d="M0,0H7.323" fill="#fff" stroke="#000" stroke-linecap="round" stroke-linejoin="round" stroke-miterlimit="10" stroke-width="2"/>
          </g>
          <g id="g2394" transform="translate(15.821 68.084)">
            <path id="path2396" d="M-28.944-14.472a2.195,2.195,0,0,1-2.195,2.195,2.195,2.195,0,0,1-2.195-2.195,2.195,2.195,0,0,1,2.195-2.195,2.195,2.195,0,0,1,2.195,2.195" transform="translate(33.333 16.667)" fill="#fd4755"/>
          </g>
          <g id="g2398" transform="translate(15.821 68.084)">
            <path id="path2400" d="M-28.944-14.472a2.195,2.195,0,0,1-2.195,2.195,2.195,2.195,0,0,1-2.195-2.195,2.195,2.195,0,0,1,2.195-2.195A2.195,2.195,0,0,1-28.944-14.472Z" transform="translate(33.333 16.667)" fill="none" stroke="#000" stroke-linecap="round" stroke-linejoin="round" stroke-miterlimit="10" stroke-width="2"/>
          </g>
          <g id="g2402" transform="translate(74.675 46.863)">
            <path id="path2404" d="M-47.468-23.734a3.6,3.6,0,0,1-3.6,3.6,3.6,3.6,0,0,1-3.6-3.6,3.6,3.6,0,0,1,3.6-3.6,3.6,3.6,0,0,1,3.6,3.6" transform="translate(54.667 27.333)" fill="#62dbfb"/>
          </g>
          <g id="g2406" transform="translate(74.675 46.863)">
            <path id="path2408" d="M-19.311-23.734a3.6,3.6,0,0,1,2.135-3.286,3.582,3.582,0,0,0-1.464-.313,3.6,3.6,0,0,0-3.6,3.6,3.6,3.6,0,0,0,3.6,3.6,3.58,3.58,0,0,0,1.464-.313,3.6,3.6,0,0,1-2.135-3.286" transform="translate(22.24 27.333)" fill="#01d0fb"/>
          </g>
          <g id="g2410" transform="translate(74.675 46.863)">
            <path id="path2412" d="M-47.468-23.734a3.6,3.6,0,0,1-3.6,3.6,3.6,3.6,0,0,1-3.6-3.6,3.6,3.6,0,0,1,3.6-3.6A3.6,3.6,0,0,1-47.468-23.734Z" transform="translate(54.667 27.333)" fill="none" stroke="#000" stroke-linecap="round" stroke-linejoin="round" stroke-miterlimit="10" stroke-width="2"/>
          </g>
        </g>
      </g>
    </g>
  </g>
</svg>
