<svg xmlns="http://www.w3.org/2000/svg" width="66" height="67" viewBox="0 0 66 67">
  <g id="Grupo_1112903" data-name="Grupo 1112903" transform="translate(0 0.48)">
    <rect id="Rectángulo_400898" data-name="Rectángulo 400898" width="66" height="67" rx="33" transform="translate(0 -0.48)" fill="#fdbabb"/>
    <g id="Grupo_1112746" data-name="Grupo 1112746" transform="translate(10.279 17.631)">
      <path id="Trazado_904396" data-name="Trazado 904396" d="M44.389,10.02H1.993a2,2,0,0,0-1.993,2V39.884a2,2,0,0,0,1.993,2h42.4a2,2,0,0,0,2-2V12.021A2,2,0,0,0,44.389,10.02ZM23.9,21.175a4.828,4.828,0,0,1,0,9.553ZM1.406,22.661H6.531v6.582H1.406Zm0,7.988H7.234a4.7,4.7,0,1,0,0-9.394H1.406V14.587c6.7.333,12.04,5.291,12.04,11.366S8.1,36.984,1.406,37.31V30.649Zm6.531-1.486V22.734a3.291,3.291,0,0,1,0,6.429Zm14.555,1.566a4.827,4.827,0,0,1,0-9.553Zm0-10.974a6.237,6.237,0,0,0,0,12.395v8.328H1.993a.591.591,0,0,1-.587-.594V38.717c7.473-.333,13.446-5.922,13.446-12.765S8.879,13.521,1.406,13.18v-1.16a.591.591,0,0,1,.587-.594h20.5Zm22.492,9.488H39.91V22.661h5.074Zm0-7.988H39.207a4.7,4.7,0,1,0,0,9.394h5.777V37.31c-6.7-.326-12.04-5.291-12.04-11.358s5.335-11.032,12.04-11.366ZM38.5,22.734v6.429a3.289,3.289,0,0,1,0-6.429Zm6.48-9.553c-7.48.341-13.446,5.929-13.446,12.772S37.5,38.383,44.984,38.717v1.167a.6.6,0,0,1-.594.594H23.9V32.15a6.238,6.238,0,0,0,0-12.395V11.426H44.389a.6.6,0,0,1,.594.594Z" transform="translate(0 -10.02)"/>
      <g id="Grupo_1112745" data-name="Grupo 1112745" transform="translate(1.406 12.641)">
        <path id="Trazado_904397" data-name="Trazado 904397" d="M13.538,30.778a3.288,3.288,0,0,1-2.588,3.211V27.56A3.3,3.3,0,0,1,13.538,30.778Z" transform="translate(-4.419 -27.488)" fill="#ffdc7c"/>
        <path id="Trazado_904398" data-name="Trazado 904398" d="M1.94,27.46H7.065v6.582H1.94Z" transform="translate(-1.94 -27.46)" fill="#ffdc7c"/>
        <path id="Trazado_904399" data-name="Trazado 904399" d="M52.135,27.56v6.429a3.289,3.289,0,0,1,0-6.429Z" transform="translate(-15.037 -27.488)" fill="#ffdc7c"/>
        <path id="Trazado_904400" data-name="Trazado 904400" d="M55.06,27.46h5.074v6.582H55.06Z" transform="translate(-16.556 -27.46)" fill="#ffdc7c"/>
      </g>
      <path id="Trazado_904401" data-name="Trazado 904401" d="M17.488,26.486a6.251,6.251,0,0,0,5.538,6.2v8.328H2.527a.591.591,0,0,1-.587-.594V39.25c7.473-.333,13.446-5.922,13.446-12.765S9.413,14.055,1.94,13.714v-1.16a.591.591,0,0,1,.587-.594h20.5v8.328A6.246,6.246,0,0,0,17.488,26.486Z" transform="translate(-0.534 -10.554)" fill="#7188a1"/>
      <path id="Trazado_904402" data-name="Trazado 904402" d="M40.61,26.486c0,6.843,5.965,12.431,13.446,12.765v1.167a.6.6,0,0,1-.594.594H32.97V32.683a6.238,6.238,0,0,0,0-12.395V11.96H53.461a.6.6,0,0,1,.594.594v1.16c-7.48.341-13.446,5.929-13.446,12.772Z" transform="translate(-9.072 -10.554)" fill="#a9d7f2"/>
      <path id="Trazado_904403" data-name="Trazado 904403" d="M37.094,30.187a4.845,4.845,0,0,1-4.124,4.777V25.41A4.834,4.834,0,0,1,37.094,30.187Z" transform="translate(-9.072 -14.255)" fill="#47b28e"/>
      <path id="Trazado_904404" data-name="Trazado 904404" d="M29.462,25.41v9.553a4.827,4.827,0,0,1,0-9.553Z" transform="translate(-6.97 -14.255)" fill="#ffdc7c"/>
      <path id="Trazado_904405" data-name="Trazado 904405" d="M13.98,27.686c0,6.067-5.342,11.032-12.04,11.358V32.383H7.768a4.7,4.7,0,1,0,0-9.394H1.94V16.32C8.638,16.653,13.98,21.611,13.98,27.686Z" transform="translate(-0.534 -11.753)" fill="#53bf9f"/>
      <path id="Trazado_904406" data-name="Trazado 904406" d="M47.008,27.686a4.707,4.707,0,0,0,4.7,4.7H57.49v6.661c-6.7-.326-12.04-5.291-12.04-11.358S50.785,16.653,57.49,16.32v6.669H51.713a4.7,4.7,0,0,0-4.7,4.7Z" transform="translate(-12.506 -11.753)" fill="#fa786b"/>
    </g>
  </g>
</svg>
