<svg xmlns="http://www.w3.org/2000/svg" width="66" height="66" viewBox="0 0 66 66">
  <g id="Grupo_1112904" data-name="Grupo 1112904" transform="translate(0 -0.44)">
    <rect id="Rectángulo_400898" data-name="Rectángulo 400898" width="66" height="66" rx="33" transform="translate(0 0.44)" fill="#fdbabb"/>
    <g id="Filled_outline" data-name="Filled outline" transform="translate(15.776 6.682)">
      <path id="Trazado_904407" data-name="Trazado 904407" d="M128,304a5.057,5.057,0,0,0,5.057,5.057h11.8V319.17h5.057v-11.8A3.371,3.371,0,0,0,146.541,304Z" transform="translate(-123.786 -273.66)" fill="#804a32"/>
      <path id="Trazado_904408" data-name="Trazado 904408" d="M288,448h5.057l2.507,1.254a1.563,1.563,0,0,1-.7,2.96H288Z" transform="translate(-266.93 -402.49)" fill="#fdbf92"/>
      <path id="Trazado_904409" data-name="Trazado 904409" d="M127.17,391.585l-5.057-1.686V384h-3.371v5.9l-5.057,1.686a1.686,1.686,0,1,0,1.686,1.686h10.113a1.686,1.686,0,1,0,1.686-1.686Z" transform="translate(-109.472 -345.232)" fill="#dfdfdd"/>
      <path id="Trazado_904410" data-name="Trazado 904410" d="M128,304a5.057,5.057,0,0,0,5.057,5.057h16.856V319.17h5.057v-11.8A3.371,3.371,0,0,0,151.6,304Z" transform="translate(-123.786 -273.66)" fill="#91563a"/>
      <path id="Trazado_904411" data-name="Trazado 904411" d="M336,448h5.057l2.507,1.254a1.563,1.563,0,0,1-.7,2.96H336Z" transform="translate(-309.874 -402.49)" fill="#fdc8a2"/>
      <path id="Trazado_904412" data-name="Trazado 904412" d="M0,0H5.832V3.332H0Z" transform="translate(15.403 15.949) rotate(-45)" fill="#fdc8a2"/>
      <path id="Trazado_904413" data-name="Trazado 904413" d="M253.379,104.654l-2.356-2.356.589-2.946,1.767-1.767a3.332,3.332,0,1,1,4.713,4.713l-1.767,1.767Z" transform="translate(-233.849 -88.116)" fill="#91563a"/>
      <path id="Trazado_904414" data-name="Trazado 904414" d="M145.673,136.273h-2.356l-5.891-5.891v-2.356L132.214,128S128,137.271,128,146.541h10.113v-4.214l7.585-.843Z" transform="translate(-123.786 -116.201)" fill="#d65246"/>
      <path id="Trazado_904415" data-name="Trazado 904415" d="M295.759,71.452l4.713-4.713,2.945-6.48L301.061,57.9l2.356-2.356,2.835,2.835a1.667,1.667,0,0,1,.42,1.648l-2.1,7.138a9.512,9.512,0,0,1-1.865,3.461l-2.673,3.158a9.509,9.509,0,0,1-4.251,2.877Z" transform="translate(-273.872 -51.38)" fill="#fdbf92"/>
      <path id="Trazado_904416" data-name="Trazado 904416" d="M173.212,34.978l4.713-4.713,6.48-2.945,1.992,1.992a2.181,2.181,0,0,0,3.084,0l.814-.814-4.014-4.014a1.666,1.666,0,0,0-1.648-.42l-5.575,1.64a17.79,17.79,0,0,0-6.3,3.342l-.167.138A17.79,17.79,0,0,0,168,34.953Z" transform="translate(-159.572 -23.153)" fill="#fdc8a2"/>
      <path id="Trazado_904417" data-name="Trazado 904417" d="M112.856,223.17v-11.8A3.371,3.371,0,0,0,109.485,208H99.371A3.371,3.371,0,0,0,96,211.371v11.8a3.371,3.371,0,0,0,3.371,3.371H119.6a1.686,1.686,0,1,0,0-3.371Z" transform="translate(-95.157 -187.773)" fill="#348ed8"/>
      <path id="Trazado_904418" data-name="Trazado 904418" d="M105.7,66.565a2.528,2.528,0,0,0,.15-5.052l-4.364-1.455V55.609h10.956a2.516,2.516,0,0,0,.843-.145v5.2h-3.371V57.294h-1.686v8.428a.843.843,0,0,0,.843.843h11.922a2.405,2.405,0,0,0,1.076-4.557l-2.041-1.021V58.98H118.34v1.686h-3.371V51.395a.843.843,0,0,0-.843-.843h-7.585V47.181h9.271a2.531,2.531,0,0,1,2.528,2.528v7.339h1.686V49.709a4.219,4.219,0,0,0-4.214-4.214h-9.271V42.5l2.844-.316a8.894,8.894,0,0,0,5.422-3.239l2.673-3.157a10.287,10.287,0,0,0,2.031-3.769l2.1-7.139a2.507,2.507,0,0,0-.633-2.481l-5.671-5.67a2.507,2.507,0,0,0-2.482-.633l-5.575,1.64a18.529,18.529,0,0,0-6.6,3.5A19.08,19.08,0,0,0,96,26.8a34.674,34.674,0,0,0-2.518,6.657l1.614.486a55.148,55.148,0,0,1,1.884-5.3l3.816.019v1.518a.843.843,0,0,0,.247.6l5.891,5.891a.843.843,0,0,0,.6.247h1.518l0,.848.013,2.767-2.525.28V39.6a4.219,4.219,0,0,0-4.214-4.214H92.214A4.219,4.219,0,0,0,88,39.6v1.686h1.686V39.6a2.531,2.531,0,0,1,2.528-2.528h10.113a2.531,2.531,0,0,1,2.528,2.528v11.8a.843.843,0,0,0,.843.843h6.742a.843.843,0,0,1,0,1.686H92.214a2.531,2.531,0,0,1-2.528-2.528V42.967H88v8.428a4.219,4.219,0,0,0,4.214,4.214h4.214v4.449l-4.364,1.455A2.528,2.528,0,1,0,94.6,64.879h8.717a2.533,2.533,0,0,0,2.384,1.686Zm14.294-42.156-2.1,7.138a8.611,8.611,0,0,1-1.7,3.155l-2.672,3.157a8.675,8.675,0,0,1-2.771,2.168l-.017-3.61,4.464-4.465a.841.841,0,0,0,.171-.247l2.946-6.48a.843.843,0,0,0-.171-.945l-.8-.8a3.024,3.024,0,0,0,1.166-.726l.218-.218,1.061,1.061a.823.823,0,0,1,.207.814Zm-18.435-1.731.167-.138a16.854,16.854,0,0,1,6-3.183l5.575-1.64a.823.823,0,0,1,.815.208l3.417,3.418-.218.218a1.332,1.332,0,0,1-1.37.323,1.346,1.346,0,0,1-.523-.323l-1.992-1.992a.843.843,0,0,0-.945-.171L106,22.342a.843.843,0,0,0-.247.171l-4.464,4.464-3.442-.017a16.823,16.823,0,0,1,3.707-4.283Zm6.25,8.942L106.089,29.9l.451-2.253,1.587-1.587a2.49,2.49,0,1,1,3.521,3.521l-1.587,1.587Zm-1.469.915-.575.575L104.6,31.945l.575-.575Zm.616,1.767.991-.991,2.7-.539a.843.843,0,0,0,.431-.23l1.767-1.767a4.175,4.175,0,0,0-5.9-5.9l-1.767,1.767a.843.843,0,0,0-.23.431l-.539,2.7-.991.991-.924-.924V28.172l4.358-4.358,5.809-2.641,3.886,3.886L113.9,30.869l-4.357,4.358h-1.659Zm-6.58,27.162,5.057,1.686a.843.843,0,0,0,.267.043.843.843,0,1,1-.843.843.843.843,0,0,0-.843-.843H93.9a.843.843,0,0,0-.843.843.843.843,0,1,1-.843-.843.842.842,0,0,0,.266-.043l5.057-1.686a.843.843,0,0,0,.576-.8V55.609H99.8v5.057a.843.843,0,0,0,.576.8Zm9.537.886h3.371v2.528h-3.371Zm11.079,2.528h-6.022V62.351h4.015l2.329,1.165a.72.72,0,0,1-.322,1.364Z" transform="translate(-88 -15.998)"/>
      <path id="Trazado_904419" data-name="Trazado 904419" d="M120,240h1.686v1.686H120Z" transform="translate(-116.629 -216.402)"/>
      <path id="Trazado_904420" data-name="Trazado 904420" d="M120,272h1.686v6.742H120Z" transform="translate(-116.629 -245.031)"/>
      <path id="Trazado_904421" data-name="Trazado 904421" d="M121.075,43.069l-1.053-1.316a22.474,22.474,0,0,0-7.887,12.3l1.656.312A21.163,21.163,0,0,1,121.075,43.069Z" transform="translate(-109.592 -39.04)"/>
    </g>
  </g>
</svg>
