<svg xmlns="http://www.w3.org/2000/svg" width="46.336" height="56" viewBox="0 0 46.336 56">
  <g id="Grupo_1112917" data-name="Grupo 1112917" transform="translate(-244.32 -1962)">
    <rect id="Rect치ngulo_401320" data-name="Rect치ngulo 401320" width="18" height="55" transform="translate(244.32 1962)" fill="#fbeeab"/>
    <rect id="Rect치ngulo_401321" data-name="Rect치ngulo 401321" width="18" height="50" transform="translate(253.32 1967)" fill="#fdf6d4"/>
    <g id="trainer_3474959" transform="translate(245.32 1972.664)">
      <g id="Grupo_1107647" data-name="Grupo 1107647" transform="translate(1.715 1.715)">
        <g id="Grupo_1107630" data-name="Grupo 1107630" transform="translate(22.883 7.151)">
          <circle id="Elipse_14793" data-name="Elipse 14793" cx="10" cy="10" r="10" transform="translate(0.402 0.47)" fill="#fcd770"/>
        </g>
        <g id="Grupo_1107631" data-name="Grupo 1107631" transform="translate(5.721)">
          <path id="Trazado_896959" data-name="Trazado 896959" d="M12.145,13.442a2.136,2.136,0,0,0-1.638.758A14.026,14.026,0,0,1,10,10.467,8.466,8.466,0,0,1,18.467,2h3.089a8.472,8.472,0,0,1,8.467,8.467,13.9,13.9,0,0,1-.122,1.809,13.473,13.473,0,0,1-.386,1.924,2.136,2.136,0,0,0-1.638-.758h-.715a2.584,2.584,0,0,1-1.43-2.317v-.372a3.034,3.034,0,0,0-5.177-2.145l-.543.543-.543-.543a3.034,3.034,0,0,0-5.177,2.145v.372a2.584,2.584,0,0,1-1.43,2.317Z" transform="translate(-10 -2)" fill="#656d78"/>
        </g>
        <g id="Grupo_1107632" data-name="Grupo 1107632" transform="translate(17.162 30.034)">
          <path id="Trazado_896960" data-name="Trazado 896960" d="M36.011,44.715V55.442H28.86v-1.43a1.434,1.434,0,0,0-1.43-1.43H26V44.715A.717.717,0,0,1,26.715,44H28.86v.715a.717.717,0,0,0,.715.715h2.86a.717.717,0,0,0,.715-.715V44H35.3A.717.717,0,0,1,36.011,44.715Z" transform="translate(-26 -44)" fill="#e6e9ed"/>
        </g>
        <g id="Grupo_1107633" data-name="Grupo 1107633" transform="translate(20.023 28.604)">
          <path id="Trazado_896961" data-name="Trazado 896961" d="M34.291,43.43v.715a.717.717,0,0,1-.715.715h-2.86A.717.717,0,0,1,30,44.145v-1.43A.717.717,0,0,1,30.715,42h3.575Z" transform="translate(-30 -42)" fill="#b4dd7f"/>
        </g>
        <g id="Grupo_1107634" data-name="Grupo 1107634" transform="translate(18.929 24.313)">
          <path id="Trazado_896962" data-name="Trazado 896962" d="M28.47,41.721a4.27,4.27,0,0,0,1.094-2.86V36h4.291v4.291H30.279a.717.717,0,0,0-.715.715v.715Z" transform="translate(-28.47 -36)" fill="#ff826e"/>
        </g>
        <g id="Grupo_1107635" data-name="Grupo 1107635" transform="translate(7.151 24.313)">
          <path id="Trazado_896963" data-name="Trazado 896963" d="M22.011,42.908V50.03a1.157,1.157,0,0,0-1.673-1.037L17.721,50.3H12V36h4.291v2.86a4.3,4.3,0,0,0,4.291,4.291,4.321,4.321,0,0,0,1.43-.243Z" transform="translate(-12 -36)" fill="#ff826e"/>
        </g>
        <g id="Grupo_1107636" data-name="Grupo 1107636" transform="translate(0 24.313)">
          <path id="Trazado_896964" data-name="Trazado 896964" d="M22.023,53.162a1.434,1.434,0,0,1-1.43,1.43H7.492a5.486,5.486,0,0,1-4.569-8.531L3.43,45.3,3.28,45A12.108,12.108,0,0,1,2,39.575,3.565,3.565,0,0,1,5.575,36H9.151V50.3h5.721l2.617-1.309a1.157,1.157,0,0,1,1.673,1.037V50.3h1.43a1.434,1.434,0,0,1,1.43,1.43Z" transform="translate(-2 -36)" fill="#f0d0b4"/>
        </g>
        <g id="Grupo_1107637" data-name="Grupo 1107637" transform="translate(24.313 24.313)">
          <path id="Trazado_896965" data-name="Trazado 896965" d="M43.051,38.746l.1.83A12.108,12.108,0,0,1,41.871,45l-.15.3.508.765a5.483,5.483,0,0,1-.872,7.1h-2.5V42.436a.717.717,0,0,0-.715-.715H36V36h3.575a3.552,3.552,0,0,1,3.475,2.746Z" transform="translate(-36 -36)" fill="#f0d0b4"/>
        </g>
        <g id="Grupo_1107638" data-name="Grupo 1107638" transform="translate(22.34 11.442)">
          <path id="Trazado_896966" data-name="Trazado 896966" d="M36.015,21.661a2.14,2.14,0,0,1-1.516.629H33.24a9.423,9.423,0,0,0,.543-3.168V18H34.5a2.144,2.144,0,0,1,1.516,3.661Z" transform="translate(-33.24 -18)" fill="#f0d0b4"/>
        </g>
        <g id="Grupo_1107639" data-name="Grupo 1107639" transform="translate(11.442 20.459)">
          <path id="Trazado_896967" data-name="Trazado 896967" d="M26.581,34.464v2.86a4.27,4.27,0,0,1-1.094,2.86H24.436a.717.717,0,0,0-.715.715v.472a4.321,4.321,0,0,1-1.43.243A4.3,4.3,0,0,1,18,37.325v-2.86l1.287-3.854c.114.079.236.157.358.236a5,5,0,0,0,5.292,0c.122-.079.243-.157.358-.236Z" transform="translate(-18 -30.61)" fill="#f0d0b4"/>
        </g>
        <g id="Grupo_1107640" data-name="Grupo 1107640" transform="translate(8.581 5.721)">
          <path id="Trazado_896968" data-name="Trazado 896968" d="M28.3,15.721v1.123a9.423,9.423,0,0,1-.543,3.168,9.534,9.534,0,0,1-3.6,4.727c-.114.079-.236.157-.358.236a5,5,0,0,1-5.292,0c-.122-.079-.243-.157-.358-.236A9.546,9.546,0,0,1,15.2,21.492a9.811,9.811,0,0,1-.658-1.48A9.423,9.423,0,0,1,14,16.843V15.721A2.584,2.584,0,0,0,15.43,13.4v-.372a3.034,3.034,0,0,1,5.177-2.145l.543.543.543-.543a3.032,3.032,0,0,1,5.177,2.145V13.4A2.584,2.584,0,0,0,28.3,15.721Z" transform="translate(-14 -10)" fill="#f0d0b4"/>
        </g>
        <g id="Grupo_1107641" data-name="Grupo 1107641" transform="translate(5.721 11.442)">
          <path id="Trazado_896969" data-name="Trazado 896969" d="M12.86,19.123a9.423,9.423,0,0,0,.543,3.168H12.145a2.145,2.145,0,1,1,0-4.291h.715Z" transform="translate(-10 -18)" fill="#f0d0b4"/>
        </g>
        <g id="Grupo_1107642" data-name="Grupo 1107642" transform="translate(30.034 1.43)">
          <path id="Trazado_896970" data-name="Trazado 896970" d="M49.721,4.715v1.43a.717.717,0,0,1-.715.715H44.715A.717.717,0,0,1,44,6.145V4.715A.717.717,0,0,1,44.715,4h4.291A.717.717,0,0,1,49.721,4.715Z" transform="translate(-44 -4)" fill="#aab2bd"/>
        </g>
        <g id="Grupo_1107643" data-name="Grupo 1107643" transform="translate(31.464 4.291)">
          <path id="Trazado_896971" data-name="Trazado 896971" d="M48.86,8v2.96a10.266,10.266,0,0,0-2.86,0V8Z" transform="translate(-46 -8)" fill="#ccd1d9"/>
        </g>
        <g id="Grupo_1107644" data-name="Grupo 1107644" transform="translate(38.815 7.151)">
          <path id="Trazado_896972" data-name="Trazado 896972" d="M58.425,16.09a9.845,9.845,0,0,0-2.145-2.145l.007-.007,1.495-1.495a1.517,1.517,0,0,1,2.145,2.145l-1.495,1.495Z" transform="translate(-56.28 -12)" fill="#ccd1d9"/>
        </g>
        <g id="Grupo_1107645" data-name="Grupo 1107645" transform="translate(25.743 10.011)">
          <path id="Trazado_896973" data-name="Trazado 896973" d="M52.3,23.151A7.151,7.151,0,1,1,45.151,16v7.151Z" transform="translate(-38 -16)" fill="#69d6f4"/>
        </g>
        <g id="Grupo_1107646" data-name="Grupo 1107646" transform="translate(32.894 10.011)">
          <path id="Trazado_896974" data-name="Trazado 896974" d="M55.151,23.151H48V16A7.154,7.154,0,0,1,55.151,23.151Z" transform="translate(-48 -16)" fill="#e6e9ed"/>
        </g>
      </g>
      <g id="Grupo_1107648" data-name="Grupo 1107648" transform="translate(1 1)">
        <path id="Trazado_896976" data-name="Trazado 896976" d="M45.336,18.877A10.659,10.659,0,0,0,43.6,13.044l1.083-1.083A2.232,2.232,0,0,0,41.526,8.8L40.443,9.888a10.654,10.654,0,0,0-3.688-1.521V6.721a1.432,1.432,0,0,0,1.43-1.43V3.86a1.432,1.432,0,0,0-1.43-1.43H32.464a1.432,1.432,0,0,0-1.43,1.43v1.43a1.432,1.432,0,0,0,1.43,1.43V8.365a10.543,10.543,0,0,0-4.295,1.946c0-.044,0-.087,0-.131A9.191,9.191,0,0,0,18.993,1H15.9a9.191,9.191,0,0,0-9.18,9.18,14.627,14.627,0,0,0,.454,3.588,2.851,2.851,0,0,0,2.406,4.394h.754A10.225,10.225,0,0,0,13.6,22.437l-.959,2.876H5.291A4.3,4.3,0,0,0,1,29.6a12.9,12.9,0,0,0,1.32,5.669l-.278.418A6.2,6.2,0,0,0,7.2,45.336h13.1a2.142,2.142,0,0,0,2.014-1.43H45.336v-1.43H32.905a6.177,6.177,0,0,0-.053-6.786l-.278-.418a12.891,12.891,0,0,0,1.32-5.669c0-.009,0-.018,0-.027.239.016.478.027.717.027A10.739,10.739,0,0,0,45.336,18.877Zm-2.8-9.062a.8.8,0,0,1,1.134,1.134l-.94.94A10.886,10.886,0,0,0,41.6,10.756ZM32.464,3.86h4.291v1.43H32.464Zm1.43,2.86h1.43V8.187c-.237-.016-.473-.036-.715-.036s-.478.021-.715.036Zm1.43,5.763A6.445,6.445,0,0,1,41,18.162H35.325ZM41,19.592a6.435,6.435,0,1,1-7.109-7.109v7.109Zm-10.849,5.76a4.235,4.235,0,0,0-.55-.039H27.915a9.215,9.215,0,0,1-2.6-6.436c0-.24.011-.479.029-.718a2.838,2.838,0,0,0,1.5-.447,7.747,7.747,0,0,0,3.314,7.64Zm-1.98,17.123H22.453V41.76a2.148,2.148,0,0,0-2.145-2.145h-.715V32.464h1.43a1.432,1.432,0,0,0,1.43,1.43h2.86a1.432,1.432,0,0,0,1.43-1.43h1.43Zm-10-10.093a3.543,3.543,0,0,1-4.3-3.494V26.144l.969-2.907a5.584,5.584,0,0,0,5.213,0l.969,2.907v2.745a3.556,3.556,0,0,1-.734,2.145h-.7A1.427,1.427,0,0,0,18.171,32.383Zm7.142-18.106v-.4a1.43,1.43,0,1,1,0,2.86h-.3A10.4,10.4,0,0,0,25.313,14.276Zm-1.4,5.2a10.6,10.6,0,0,0,2.13,5.842H22.253l-.959-2.876A10.256,10.256,0,0,0,23.912,19.472Zm-1.46,12.993v-1.43h2.86v1.43Zm2.86-2.86h-2.86c-.019,0-.038.005-.057.006a5.033,5.033,0,0,0,.057-.721V26.743h2.86ZM15.9,2.43h3.092a7.759,7.759,0,0,1,7.75,7.75A13.226,13.226,0,0,1,26.5,12.7a2.838,2.838,0,0,0-1.183-.263h-.5a1.851,1.851,0,0,1-.925-1.6V10.47a3.749,3.749,0,0,0-6.4-2.651l-.036.036-.036-.036a3.749,3.749,0,0,0-6.4,2.651v.373a1.852,1.852,0,0,1-.925,1.6h-.5A2.838,2.838,0,0,0,8.4,12.7a13.226,13.226,0,0,1-.247-2.524A7.759,7.759,0,0,1,15.9,2.43Zm-6.32,14.3a1.43,1.43,0,1,1,0-2.86v.4a10.4,10.4,0,0,0,.3,2.456Zm1.43-2.456v-.713a3.28,3.28,0,0,0,1.43-2.721V10.47A2.319,2.319,0,0,1,16.4,8.83l1.047,1.047L18.494,8.83a2.319,2.319,0,0,1,3.959,1.64v.373a3.28,3.28,0,0,0,1.43,2.721v.713A8.826,8.826,0,0,1,19.711,21.8a4.341,4.341,0,0,1-4.528,0,8.826,8.826,0,0,1-4.172-7.527Zm1.43,12.467v2.145a5.011,5.011,0,0,0,5.006,5.006,5.069,5.069,0,0,0,.715-.06v4.409a1.839,1.839,0,0,0-.442-.059,1.891,1.891,0,0,0-.837.2l-2.465,1.233H9.581V26.743Zm8.581,16.447a.716.716,0,0,1-.715.715H7.2a4.774,4.774,0,0,1-3.972-7.422l.739-1.108L3.634,34.7a11.447,11.447,0,0,1-1.2-5.1,2.863,2.863,0,0,1,2.86-2.86h2.86V39.615H6.721v1.43h8.035l2.767-1.384a.454.454,0,0,1,.639.4v.988h2.145a.716.716,0,0,1,.715.715Zm8.581-.715V32.464a1.432,1.432,0,0,0-1.43-1.43h-1.43V26.743H29.6a2.863,2.863,0,0,1,2.86,2.86,11.452,11.452,0,0,1-1.2,5.1l-.336.673.739,1.108a4.761,4.761,0,0,1-.574,5.992Zm2.9-16.027a7.863,7.863,0,1,0-4.444-11.912,2.831,2.831,0,0,0-.337-.768c.119-.471.217-.945.288-1.424a9.2,9.2,0,0,1,6.6-2.762,9.3,9.3,0,1,1,0,18.592,9.478,9.478,0,0,1-.987-.058A4.3,4.3,0,0,0,32.5,26.448Z" transform="translate(-1 -1)"/>
      </g>
    </g>
  </g>
</svg>
