<svg xmlns="http://www.w3.org/2000/svg" width="65" height="65" viewBox="0 0 65 65">
  <g id="Grupo_1112885" data-name="Grupo 1112885" transform="translate(-410.051 -3877)">
    <rect id="Rect치ngulo_405110" data-name="Rect치ngulo 405110" width="65" height="65" rx="32.5" transform="translate(410.051 3877)" fill="#6896ab"/>
    <g id="Filled_outline" data-name="Filled outline" transform="translate(352.704 3869.334)">
      <path id="Trazado_904422" data-name="Trazado 904422" d="M81.552,240v1.552L80.521,243.1A3.1,3.1,0,0,0,80,244.82v7.6h0a3.1,3.1,0,0,0,3.1-3.1V240Z" transform="translate(-7.226 -202.27)" fill="#91563a"/>
      <path id="Trazado_904423" data-name="Trazado 904423" d="M90.865,172.656v3.88H83.549a3.53,3.53,0,0,1-3.548-3.4,3.492,3.492,0,0,1,3.491-3.587h.388L85.432,168l.776,1.552h1.164a1.164,1.164,0,0,1,1.164,1.164v1.94Z" transform="translate(-7.226 -137.255)" fill="#fdc8a2"/>
      <path id="Trazado_904424" data-name="Trazado 904424" d="M85.425,192.4h-1.94a3.492,3.492,0,0,1-1.021-6.832C83.709,187.014,84.649,189.3,85.425,192.4Z" transform="translate(-7.219 -153.12)" fill="#91563a"/>
      <path id="Trazado_904425" data-name="Trazado 904425" d="M149.354,280a4.489,4.489,0,0,0-4.482,4.738l.685,12.336h3.88V285.433h12.417a3.88,3.88,0,0,0,3.88-3.88V280Z" transform="translate(-65.799 -238.389)" fill="#91563a"/>
      <path id="Trazado_904426" data-name="Trazado 904426" d="M130.328,456l-1.878,1.252a1.011,1.011,0,0,0-.45.841h0a1.011,1.011,0,0,0,1.011,1.011h5.2V456Z" transform="translate(-50.57 -397.316)" fill="#fdc8a2"/>
      <path id="Trazado_904427" data-name="Trazado 904427" d="M186.089,48.835l.776-1.552-1.022.511a9.87,9.87,0,0,1-4.411,1.041V65.908a1.552,1.552,0,0,1-1.552,1.552H179.1a1.552,1.552,0,0,1-1.552-1.552V64.356H176V63.58l1.552-1.552v-32.6L176,27.88V27.1h1.552V25.552A1.552,1.552,0,0,1,179.1,24h.776a1.552,1.552,0,0,1,1.552,1.552V41.074h4.656a7.761,7.761,0,0,1,7.761,7.761Z" transform="translate(-93.913 -7.224)" fill="#fdc8a2"/>
      <path id="Trazado_904428" data-name="Trazado 904428" d="M206.025,173.377a7.74,7.74,0,0,0-5.488-2.273H195.88V168H192v13.969h3.88v-3.1a9.869,9.869,0,0,0,4.41-1.041l1.022-.512,6.339-1.552A7.782,7.782,0,0,0,206.025,173.377Z" transform="translate(-108.361 -137.255)" fill="#7eb357"/>
      <path id="Trazado_904429" data-name="Trazado 904429" d="M265.552,383.761l4.656-1.552V376h3.1v6.209l4.656,1.552a1.552,1.552,0,1,1-1.552,1.552H267.1a1.552,1.552,0,1,1-1.552-1.552Z" transform="translate(-173.376 -325.076)" fill="#dfdfdd"/>
      <path id="Trazado_904430" data-name="Trazado 904430" d="M247.522,213.193V201.94a1.94,1.94,0,0,1,1.94-1.94h0a1.94,1.94,0,0,1,1.94,1.94v13.193a1.94,1.94,0,0,1-1.94,1.94H233.94a1.94,1.94,0,0,1-1.94-1.94h0a1.94,1.94,0,0,1,1.94-1.94Z" transform="translate(-144.481 -166.15)" fill="#34507b"/>
      <rect id="Rect치ngulo_405225" data-name="Rect치ngulo 405225" width="2.645" height="1.322" transform="translate(97.119 51.182)" fill="#d8d8d6"/>
      <path id="Trazado_904431" data-name="Trazado 904431" d="M107.7,38.506V35.79a2.716,2.716,0,0,0-5.433,0V46.267H99.523a4.637,4.637,0,0,0,1.189-3.1c0-2.875-.37-5.457-2.5-7.589a8.485,8.485,0,0,0-6.036-2.5H88.3V18.328A2.331,2.331,0,0,0,85.967,16h-.776a2.331,2.331,0,0,0-2.328,2.328V19.1h-.776a.776.776,0,0,0-.776.776v.776a.776.776,0,0,0,.227.549l1.325,1.325v12.1h-.776V33.462a1.942,1.942,0,0,0-1.94-1.94h-.685L78.9,30.4a.776.776,0,0,0-1.243-.2l-1.325,1.325h-.067a4.27,4.27,0,0,0-3.018,1.249l1.1,1.1A2.739,2.739,0,0,1,75,33.388a16.157,16.157,0,0,1,2.2,5.119h-.876a2.763,2.763,0,0,1-2.773-2.642,2.724,2.724,0,0,1,.3-1.32l-1.379-.713a4.225,4.225,0,0,0,1.075,5.218l-.9,1.348A3.867,3.867,0,0,0,72,42.551v7.6a.776.776,0,0,0,.776.776,3.885,3.885,0,0,0,3.88-3.88V40.932H75.1v6.112a2.332,2.332,0,0,1-1.552,2.2V42.551a2.321,2.321,0,0,1,.391-1.291l.962-1.442a4.305,4.305,0,0,0,1.421.241h6.539v.825A5.26,5.26,0,0,0,78.3,46.392l.66,11.893L77.45,59.291a1.787,1.787,0,0,0,.991,3.273h5.2V61.013h-5.2a.237.237,0,0,1-.13-.43l1.683-1.122h1.317V57.908h-.818l-.644-11.6a3.709,3.709,0,0,1,3.014-3.851V54.483l-1.325,1.325a.776.776,0,0,0-.227.548v.776a.776.776,0,0,0,.776.776h.776v.776a2.331,2.331,0,0,0,2.328,2.328h.776A2.331,2.331,0,0,0,88.3,58.684V51.437a2.7,2.7,0,0,0,1.164.263h6.6v4.873l-4.019,1.34a2.328,2.328,0,1,0,2.333,3.1H102.4a2.328,2.328,0,1,0,2.333-3.1l-4.019-1.34V53.058H99.16v4.074a.776.776,0,0,0,.531.736l4.656,1.552a.779.779,0,0,0,.245.04.776.776,0,1,1-.776.776.776.776,0,0,0-.776-.776H93.728a.776.776,0,0,0-.776.776.776.776,0,1,1-.776-.776.779.779,0,0,0,.245-.04l4.656-1.552a.776.776,0,0,0,.531-.736V51.7h7.373a2.719,2.719,0,0,0,2.716-2.716V39.961h-1.552v9.022a1.165,1.165,0,0,1-1.164,1.164H89.459a1.164,1.164,0,1,1,0-2.328h13.581a.776.776,0,0,0,.776-.776V35.79a1.164,1.164,0,0,1,2.328,0v2.716Zm-24.835,0H78.808a19.983,19.983,0,0,0-2.149-5.433.776.776,0,0,0,.544-.227l.791-.791.295.589a.776.776,0,0,0,.694.429h1.164a.388.388,0,0,1,.388.388V35.4a.776.776,0,0,0,.776.776h1.552Zm15.949.916a6.942,6.942,0,0,1,.306,1.412H93.431l.054-.108ZM83.639,20.656a.776.776,0,0,0,.776-.776V18.328a.777.777,0,0,1,.776-.776h.776a.777.777,0,0,1,.776.776V29.969H84.415V22.209a.776.776,0,0,0-.227-.549l-1-1Zm3.1,38.028a.777.777,0,0,1-.776.776h-.776a.777.777,0,0,1-.776-.776V57.132a.776.776,0,0,0-.776-.776h-.455l1-1a.776.776,0,0,0,.227-.549V45.491h2.328Zm.776-17.85a.776.776,0,0,0-.776.776v2.328H84.415V31.522h2.328V33.85a.776.776,0,0,0,.776.776h4.656a6.942,6.942,0,0,1,4.939,2.045,7.036,7.036,0,0,1,1.034,1.316,29.851,29.851,0,0,0-6.565,1.888A9.1,9.1,0,0,1,87.519,40.835Zm.776,5.433v-3.88H99.16v.776a3.108,3.108,0,0,1-3.1,3.1Z"/>
    </g>
  </g>
</svg>
