<svg xmlns="http://www.w3.org/2000/svg" xmlns:xlink="http://www.w3.org/1999/xlink" width="65" height="65" viewBox="0 0 65 65">
  <defs>
    <clipPath id="clip-path">
      <path id="path4582" d="M0-682.665H45.233v45.233H0Z" transform="translate(0 682.665)"/>
    </clipPath>
  </defs>
  <g id="Grupo_1112886" data-name="Grupo 1112886" transform="translate(-410.051 -3961)">
    <rect id="Rectángulo_405111" data-name="Rectángulo 405111" width="65" height="65" rx="32.5" transform="translate(410.051 3961)" fill="#6896ab"/>
    <g id="g4566" transform="translate(419.934 4653.621)">
      <path id="path4568" d="M347.107-615.032h-5.853v3.569h5.853Z" transform="translate(-318.642 -63.152)" fill="#cfcfe6"/>
      <g id="g4570" transform="translate(8.866 -673.607)">
        <path id="path4572" d="M-31.838,0l2.754,2.755-1.908,2.231L-34.1,1.88Z" transform="translate(34.097)" fill="#cfcfe6"/>
      </g>
      <g id="g4574" transform="translate(37.199 -673.604)">
        <path id="path4576" d="M-38.735,0l-2.749,2.749,2.067,2.072,2.781-2.782Z" transform="translate(41.484)" fill="#cfcfe6"/>
      </g>
      <g id="g4578" transform="translate(0 -682.665)">
        <g id="g4580" clip-path="url(#clip-path)">
          <g id="g4586" transform="translate(6.881 7.249)">
            <path id="path4588" d="M-.8-283.546A18.622,18.622,0,0,1,4.607-298.2a18.654,18.654,0,0,1,26.384,0,18.664,18.664,0,0,1,0,26.391,18.661,18.661,0,0,1-22.922,2.732Z" transform="translate(0.858 303.667)" fill="#7d8fe5"/>
          </g>
          <g id="g4590" transform="translate(9.846 10.244)">
            <path id="path4592" d="M-241.752-441.518a15.656,15.656,0,0,0,8.577-3.553l2.069-2.07a15.664,15.664,0,0,0,3.553-8.578v-2.927a15.664,15.664,0,0,0-3.553-8.579l-2.069-2.07a15.656,15.656,0,0,0-8.577-3.553l-1.378.489-1.548-.489a15.656,15.656,0,0,0-8.577,3.553h0v1.392l-2.069.678a15.663,15.663,0,0,0-3.552,8.578v2.57l-.031-.012v.012l7.6,12.389a15.678,15.678,0,0,0,6.63,2.169Z" transform="translate(258.907 472.849)" fill="#fff5f5"/>
          </g>
          <g id="g4594" transform="translate(24.521 7.25)">
            <path id="path4596" d="M-200.231-77.008a18.607,18.607,0,0,0-14.208-5.437,18.584,18.584,0,0,1,12.176,5.437,18.664,18.664,0,0,1,0,26.391,18.585,18.585,0,0,1-12.177,5.438,18.607,18.607,0,0,0,14.209-5.438,18.664,18.664,0,0,0,0-26.391" transform="translate(214.439 82.473)" fill="#666ddc"/>
          </g>
          <g id="g4598" transform="translate(24.959 10.245)">
            <path id="path4600" d="M-228.87-200.126a15.665,15.665,0,0,0-3.553-8.579l-2.068-2.068a15.654,15.654,0,0,0-8.58-3.555l-.577.2a15.651,15.651,0,0,1,8.206,4.335,15.736,15.736,0,0,1,0,22.251,15.662,15.662,0,0,1-9.67,4.54h2.04a15.655,15.655,0,0,0,8.584-3.558l2.064-2.066a15.664,15.664,0,0,0,3.553-8.578Z" transform="translate(245.111 214.327)" fill="#ece6f2"/>
          </g>
          <g id="g4602" transform="translate(21.148 0.663)">
            <path id="path4604" d="M-103.8,0h-.85l-.663.171L-105.979,0h-1.6l-.663.171L-108.905,0h-.85a1.414,1.414,0,0,0-1.414,1.414V3.684a.707.707,0,0,0,.707.707h1.557l.663-.193.663.193h1.6l.663-.193.663.193h1.557a.707.707,0,0,0,.707-.707V1.414A1.414,1.414,0,0,0-103.8,0" transform="translate(111.169)" fill="#fff5f5"/>
          </g>
          <g id="g4606" transform="translate(23.709 24.08)">
            <path id="path4608" d="M-51.551-25.781a1.829,1.829,0,0,1-1.829,1.829,1.829,1.829,0,0,1-1.829-1.829,1.829,1.829,0,0,1,1.829-1.829,1.829,1.829,0,0,1,1.829,1.829" transform="translate(55.209 27.611)" fill="#ffda44"/>
          </g>
          <g id="g4610" transform="translate(6.505 6.507)">
            <path id="path4612" d="M-21.759-78.685l4.039-4.039a.7.7,0,0,0-.167-.268l-1.07-1.07a.707.707,0,0,0-1,0l-3.139,3.14a.707.707,0,0,0,0,1l1.07,1.07a.7.7,0,0,0,.267.167" transform="translate(23.303 84.269)" fill="#fff5f5"/>
          </g>
          <g id="g4614" transform="translate(38.948 6.507)">
            <path id="path4616" d="M-2.916-32.083l3.139,3.14a.707.707,0,0,0,1,0l1.07-1.07a.707.707,0,0,0,0-1l-3.139-3.14a.707.707,0,0,0-1,0l-1.07,1.07a.707.707,0,0,0,0,1" transform="translate(3.123 34.36)" fill="#fff5f5"/>
          </g>
          <g id="g4618" transform="translate(27.103 0.663)">
            <path id="path4620" d="M-19.887,0h-.85L-21.3.145a1.412,1.412,0,0,1,.793,1.268V3.684a.707.707,0,0,1-.428.65l.2.057h1.557a.707.707,0,0,0,.707-.707V1.414A1.414,1.414,0,0,0-19.887,0" transform="translate(21.299)" fill="#ece6f2"/>
          </g>
          <g id="g4622" transform="translate(7.266 6.507)">
            <path id="path4624" d="M-65.6-18l-1.07-1.07a.707.707,0,0,0-1,0l-.516.516.554.554a.707.707,0,0,1,0,1l-2.623,2.624.516.516a.707.707,0,0,0,1,0L-65.6-17a.707.707,0,0,0,0-1" transform="translate(70.256 19.277)" fill="#ece6f2"/>
          </g>
          <g id="g4626" transform="translate(39.709 6.507)">
            <path id="path4628" d="M-65.6-47.168l-3.139-3.14a.707.707,0,0,0-1,0l-.516.516,2.623,2.624a.707.707,0,0,1,0,1l-.554.554.516.516a.707.707,0,0,0,1,0l1.07-1.07a.707.707,0,0,0,0-1" transform="translate(70.256 50.516)" fill="#ece6f2"/>
          </g>
          <g id="g4630" transform="translate(13.429 13.798)">
            <path id="path4632" d="M0-29.17l2.021,2.021a.731.731,0,0,0,1.035,0L4.09-28.184a.732.732,0,0,0,0-1.035L2.069-31.24q-.558.464-1.083.986T0-29.17" transform="translate(0 31.24)" fill="#4e4cd3"/>
          </g>
          <g id="g4634" transform="translate(9.808 24.446)">
            <path id="path4636" d="M-51.546-30.938V-32.4a.732.732,0,0,0-.732-.732h-2.858a15.825,15.825,0,0,0-.03,2.57l.219.357h2.669a.732.732,0,0,0,.732-.732" transform="translate(55.204 33.133)" fill="#4e4cd3"/>
          </g>
          <g id="g4638" transform="translate(24.522 24.08)">
            <path id="path4640" d="M-14.317,0a1.82,1.82,0,0,0-1.016.308,1.828,1.828,0,0,1,.813,1.521,1.828,1.828,0,0,1-.813,1.521,1.82,1.82,0,0,0,1.016.308,1.829,1.829,0,0,0,1.829-1.83A1.829,1.829,0,0,0-14.317,0" transform="translate(15.333)" fill="#ffb655"/>
          </g>
          <g id="g4642" transform="translate(33.343 13.798)">
            <path id="path4644" d="M-46.762-13.9q-.523-.524-1.083-.987l-2.021,2.021a.732.732,0,0,0,0,1.035l1.035,1.035a.731.731,0,0,0,1.035,0l2.021-2.021q-.464-.558-.986-1.083" transform="translate(50.081 14.889)" fill="#4e4cd3"/>
          </g>
          <g id="g4646" transform="translate(34.61 13.798)">
            <path id="path4648" d="M-.265-13.9A15.815,15.815,0,0,1,1.6-11.662l1.157-1.157q-.464-.558-.986-1.083T.684-14.889l-.968.968.019.018" transform="translate(0.284 14.889)" fill="#4a36b5"/>
          </g>
          <g id="g4650" transform="translate(24.075 10.177)">
            <path id="path4652" d="M0-.955V1.9a.732.732,0,0,0,.732.732H2.195A.732.732,0,0,0,2.927,1.9V-.955A15.828,15.828,0,0,0,0-.955" transform="translate(0 1.023)" fill="#4e4cd3"/>
          </g>
          <g id="g4654" transform="translate(24.524 10.177)">
            <path id="path4656" d="M-34.912-5.522v-.324a15.823,15.823,0,0,0-2.477-.035,15.792,15.792,0,0,1,2.477.359" transform="translate(37.389 5.914)" fill="#4a36b5"/>
          </g>
          <g id="g4658" transform="translate(37.61 24.446)">
            <path id="path4660" d="M0-10.312v1.464a.732.732,0,0,0,.732.732H3.59a15.835,15.835,0,0,0,0-2.927H.732A.732.732,0,0,0,0-10.312" transform="translate(0 11.044)" fill="#4e4cd3"/>
          </g>
          <g id="g4662" transform="translate(39.168 24.446)">
            <path id="path4664" d="M-28.636-41.25a15.835,15.835,0,0,0,0-2.927h-2.032a15.835,15.835,0,0,1,0,2.927Z" transform="translate(30.668 44.177)" fill="#4a36b5"/>
          </g>
          <g id="g4666" transform="translate(33.343 33.716)">
            <path id="path4668" d="M-32.181-3.021a.732.732,0,0,0-1.035,0L-34.25-1.986a.732.732,0,0,0,0,1.035l2.021,2.022q.558-.464,1.083-.987T-30.16-1Z" transform="translate(34.465 3.235)" fill="#4e4cd3"/>
          </g>
          <g id="g4670" transform="translate(34.61 34.795)">
            <path id="path4672" d="M0-31.834l.968.968q.558-.464,1.083-.987t.986-1.083L1.88-34.093A15.819,15.819,0,0,1,.019-31.853L0-31.834" transform="translate(0 34.093)" fill="#4a36b5"/>
          </g>
          <g id="g4674" transform="translate(24.075 37.985)">
            <path id="path4676" d="M-30.93,0h-1.463a.732.732,0,0,0-.732.732V3.591a15.827,15.827,0,0,0,2.926,0V.732A.732.732,0,0,0-30.93,0" transform="translate(33.125)" fill="#4e4cd3"/>
          </g>
          <g id="g4678" transform="translate(24.526 41.251)">
            <path id="path4680" d="M0-5.057a15.816,15.816,0,0,0,2.475-.034v-.324A15.8,15.8,0,0,1,0-5.057" transform="translate(0 5.416)" fill="#4a36b5"/>
          </g>
          <g id="g4682" transform="translate(0.663 27.008)">
            <path id="path4684" d="M-247.444-123.751a8.781,8.781,0,0,1-8.78,8.782,8.781,8.781,0,0,1-8.78-8.782,8.781,8.781,0,0,1,8.78-8.782,8.781,8.781,0,0,1,8.78,8.782" transform="translate(265.003 132.533)" fill="#ffda44"/>
          </g>
          <g id="g4686" transform="translate(8.426 27.008)">
            <path id="path4688" d="M-14.317,0a8.868,8.868,0,0,0-1.016.059A8.782,8.782,0,0,1-7.57,8.782,8.782,8.782,0,0,1-15.333,17.5a8.868,8.868,0,0,0,1.016.059,8.781,8.781,0,0,0,8.78-8.782A8.781,8.781,0,0,0-14.317,0" transform="translate(15.333)" fill="#ffb655"/>
          </g>
          <g id="g4690" transform="translate(25.543 16.77)">
            <path id="path4692" d="M0-5.167V-1.5a.364.364,0,0,0,.335.364A4.757,4.757,0,0,1,4.756,3.606,4.757,4.757,0,0,1,.335,8.351.364.364,0,0,0,0,8.716V12.38a.366.366,0,0,0,.38.366,9.147,9.147,0,0,0,8.765-9.14A9.147,9.147,0,0,0,.38-5.534.366.366,0,0,0,0-5.167" transform="translate(0 5.534)" fill="#fd5263"/>
          </g>
          <g id="g4694" transform="translate(25.572 16.77)">
            <path id="path4696" d="M-4.953,0A.365.365,0,0,0-5.3.222,9.15,9.15,0,0,1,1.781,9.135,9.15,9.15,0,0,1-5.3,18.049a.365.365,0,0,0,.351.226,9.147,9.147,0,0,0,8.765-9.14A9.147,9.147,0,0,0-4.953,0" transform="translate(5.304 0.005)" fill="#fd3339"/>
          </g>
          <g id="g4698" transform="translate(10.3 31.398)">
            <path id="path4700" d="M-68.749-89.369a2.44,2.44,0,0,1-2.439,2.44,2.44,2.44,0,0,1-2.439-2.44v-3.9a2.44,2.44,0,0,1,2.439-2.44,2.439,2.439,0,0,1,2.439,2.44Z" transform="translate(73.628 95.71)" fill="none" stroke="#000" stroke-linecap="round" stroke-linejoin="round" stroke-miterlimit="10" stroke-width="1"/>
          </g>
          <g id="g4702" transform="translate(3.758 31.401)">
            <path id="path4704" d="M0-24.925a2.194,2.194,0,0,1,2.152-1.769A2.194,2.194,0,0,1,4.346-24.5a2.194,2.194,0,0,1-2.193,2.194" transform="translate(0 26.693)" fill="none" stroke="#000" stroke-linecap="round" stroke-linejoin="round" stroke-miterlimit="10" stroke-width="1"/>
          </g>
          <g id="g4706" transform="translate(3.717 35.789)">
            <path id="path4708" d="M-30.909,0a2.194,2.194,0,0,1,2.193,2.194,2.194,2.194,0,0,1-2.193,2.194A2.194,2.194,0,0,1-33.081,2.5a2.213,2.213,0,0,1-.021-.306" transform="translate(33.103)" fill="none" stroke="#000" stroke-linecap="round" stroke-linejoin="round" stroke-miterlimit="10" stroke-width="1"/>
          </g>
          <g id="g4710" transform="translate(0.668 27.008)">
            <path id="path4712" d="M-26.229-47.552a8.764,8.764,0,0,1,6.918-3.374,8.781,8.781,0,0,1,8.78,8.782,8.781,8.781,0,0,1-8.78,8.782,8.781,8.781,0,0,1-8.78-8.782,8.777,8.777,0,0,1,.415-2.674" transform="translate(28.091 50.927)" fill="none" stroke="#000" stroke-linecap="round" stroke-linejoin="round" stroke-miterlimit="10" stroke-width="1"/>
          </g>
          <g id="g4714" transform="translate(21.153 0.663)">
            <path id="path4716" d="M-113.763-61.876h-7.366a.707.707,0,0,1-.707-.707v-2.271a1.414,1.414,0,0,1,1.414-1.414h5.953a1.414,1.414,0,0,1,1.414,1.414v2.271A.707.707,0,0,1-113.763-61.876Z" transform="translate(121.836 66.267)" fill="none" stroke="#000" stroke-linecap="round" stroke-linejoin="round" stroke-miterlimit="10" stroke-width="1"/>
          </g>
          <g id="g4718" transform="translate(24.08 0.663)">
            <path id="path4720" d="M0,0V4.391" fill="none" stroke="#000" stroke-linecap="round" stroke-linejoin="round" stroke-miterlimit="10" stroke-width="1"/>
          </g>
          <g id="g4722" transform="translate(27.007 0.663)">
            <path id="path4724" d="M0,0V4.391" transform="translate(0)" fill="none" stroke="#000" stroke-linecap="round" stroke-linejoin="round" stroke-miterlimit="10" stroke-width="1"/>
          </g>
          <g id="g4726" transform="translate(22.617 5.053)">
            <path id="path4728" d="M0,0V2.425" fill="none" stroke="#000" stroke-linecap="round" stroke-linejoin="round" stroke-miterlimit="10" stroke-width="1"/>
          </g>
          <g id="g4730" transform="translate(28.47 5.053)">
            <path id="path4732" d="M0,0V2.425" transform="translate(0)" fill="none" stroke="#000" stroke-linecap="round" stroke-linejoin="round" stroke-miterlimit="10" stroke-width="1"/>
          </g>
          <g id="g4734" transform="translate(9.277 7.249)">
            <path id="path4736" d="M0-134.049A18.674,18.674,0,0,1,3.074-138.1a18.654,18.654,0,0,1,26.384,0,18.664,18.664,0,0,1,0,26.391,18.661,18.661,0,0,1-22.922,2.732" transform="translate(0 143.561)" fill="none" stroke="#000" stroke-linecap="round" stroke-linejoin="round" stroke-miterlimit="10" stroke-width="1"/>
          </g>
          <g id="g4738" transform="translate(6.887 19.578)">
            <path id="path4740" d="M-.8-109.805A18.728,18.728,0,0,1,.244-117.6" transform="translate(0.858 117.597)" fill="none" stroke="#000" stroke-linecap="round" stroke-linejoin="round" stroke-miterlimit="10" stroke-width="1"/>
          </g>
          <g id="g4742" transform="translate(9.813 10.176)">
            <path id="path4744" d="M-.546-237.32a15.7,15.7,0,0,1,4.568-12.232,15.727,15.727,0,0,1,22.246,0,15.736,15.736,0,0,1,0,22.251,15.734,15.734,0,0,1-19.216,2.37" transform="translate(0.585 254.16)" fill="none" stroke="#000" stroke-linecap="round" stroke-linejoin="round" stroke-miterlimit="10" stroke-width="1"/>
          </g>
          <g id="g4746" transform="translate(24.08 10.244)">
            <path id="path4748" d="M-41.241,0V2.859a.732.732,0,0,1-.732.732h-1.463a.732.732,0,0,1-.732-.732V0" transform="translate(44.168)" fill="none" stroke="#000" stroke-linecap="round" stroke-linejoin="round" stroke-miterlimit="10" stroke-width="1"/>
          </g>
          <g id="g4750" transform="translate(13.434 13.797)">
            <path id="path4752" d="M-29.161,0l2.021,2.022a.732.732,0,0,1,0,1.035l-1.035,1.035a.731.731,0,0,1-1.035,0L-31.231,2.07" transform="translate(31.231)" fill="none" stroke="#000" stroke-linecap="round" stroke-linejoin="round" stroke-miterlimit="10" stroke-width="1"/>
          </g>
          <g id="g4754" transform="translate(9.881 24.446)">
            <path id="path4756" d="M0,0H2.859A.732.732,0,0,1,3.59.732V2.2a.732.732,0,0,1-.732.732H2.082" fill="none" stroke="#000" stroke-linecap="round" stroke-linejoin="round" stroke-miterlimit="10" stroke-width="1"/>
          </g>
          <g id="g4758" transform="translate(24.08 37.985)">
            <path id="path4760" d="M0-50.606v-2.859A.732.732,0,0,1,.732-54.2H2.195a.732.732,0,0,1,.732.732v2.859" transform="translate(0 54.197)" fill="none" stroke="#000" stroke-linecap="round" stroke-linejoin="round" stroke-miterlimit="10" stroke-width="1"/>
          </g>
          <g id="g4762" transform="translate(33.348 33.716)">
            <path id="path4764" d="M-31.5-60.681-33.526-62.7a.732.732,0,0,1,0-1.035l1.035-1.035a.731.731,0,0,1,1.035,0l2.021,2.022" transform="translate(33.741 64.987)" fill="none" stroke="#000" stroke-linecap="round" stroke-linejoin="round" stroke-miterlimit="10" stroke-width="1"/>
          </g>
          <g id="g4766" transform="translate(37.615 24.446)">
            <path id="path4768" d="M-50.595-41.25h-2.859a.732.732,0,0,1-.732-.732v-1.464a.732.732,0,0,1,.732-.732h2.859" transform="translate(54.185 44.177)" fill="none" stroke="#000" stroke-linecap="round" stroke-linejoin="round" stroke-miterlimit="10" stroke-width="1"/>
          </g>
          <g id="g4770" transform="translate(33.348 13.797)">
            <path id="path4772" d="M-60.666-29.169l-2.021,2.022a.732.732,0,0,1-1.035,0l-1.035-1.035a.732.732,0,0,1,0-1.035l2.021-2.022" transform="translate(64.971 31.239)" fill="none" stroke="#000" stroke-linecap="round" stroke-linejoin="round" stroke-miterlimit="10" stroke-width="1"/>
          </g>
          <g id="g4774" transform="translate(23.714 24.08)">
            <path id="path4776" d="M-51.551-25.781a1.829,1.829,0,0,1-1.829,1.829,1.829,1.829,0,0,1-1.829-1.829,1.829,1.829,0,0,1,1.829-1.829A1.829,1.829,0,0,1-51.551-25.781Z" transform="translate(55.209 27.611)" fill="none" stroke="#000" stroke-linecap="round" stroke-linejoin="round" stroke-miterlimit="10" stroke-width="1"/>
          </g>
          <g id="g4778" transform="translate(6.51 6.507)">
            <path id="path4780" d="M-76.32-32.083l-3.139,3.14a.707.707,0,0,1-1,0l-1.07-1.07a.707.707,0,0,1,0-1l3.139-3.14a.707.707,0,0,1,1,0l1.07,1.07A.707.707,0,0,1-76.32-32.083Z" transform="translate(81.736 34.36)" fill="none" stroke="#000" stroke-linecap="round" stroke-linejoin="round" stroke-miterlimit="10" stroke-width="1"/>
          </g>
          <g id="g4782" transform="translate(9.322 11.389)">
            <path id="path4784" d="M0,0,2.2,2.205" fill="none" stroke="#000" stroke-linecap="round" stroke-linejoin="round" stroke-miterlimit="10" stroke-width="1"/>
          </g>
          <g id="g4786" transform="translate(11.391 9.319)">
            <path id="path4788" d="M0,0,2.233,2.233" fill="none" stroke="#000" stroke-linecap="round" stroke-linejoin="round" stroke-miterlimit="10" stroke-width="1"/>
          </g>
          <g id="g4790" transform="translate(38.953 6.507)">
            <path id="path4792" d="M-2.916-32.083l3.139,3.14a.707.707,0,0,0,1,0l1.07-1.07a.707.707,0,0,0,0-1l-3.139-3.14a.707.707,0,0,0-1,0l-1.07,1.07A.707.707,0,0,0-2.916-32.083Z" transform="translate(3.123 34.36)" fill="none" stroke="#000" stroke-linecap="round" stroke-linejoin="round" stroke-miterlimit="10" stroke-width="1"/>
          </g>
          <g id="g4794" transform="translate(39.56 11.389)">
            <path id="path4796" d="M-31.066,0l-2.2,2.205" transform="translate(33.271)" fill="none" stroke="#000" stroke-linecap="round" stroke-linejoin="round" stroke-miterlimit="10" stroke-width="1"/>
          </g>
          <g id="g4798" transform="translate(37.462 9.319)">
            <path id="path4800" d="M-31.466,0-33.7,2.233" transform="translate(33.699)" fill="none" stroke="#000" stroke-linecap="round" stroke-linejoin="round" stroke-miterlimit="10" stroke-width="1"/>
          </g>
          <g id="g4802" transform="translate(25.543 16.77)">
            <path id="path4804" d="M0-5.167V-1.5a.364.364,0,0,0,.335.364A4.757,4.757,0,0,1,4.756,3.606,4.757,4.757,0,0,1,.335,8.351.364.364,0,0,0,0,8.716V12.38a.366.366,0,0,0,.38.366,9.147,9.147,0,0,0,8.765-9.14A9.147,9.147,0,0,0,.38-5.534.366.366,0,0,0,0-5.167Z" transform="translate(0 5.534)" fill="none" stroke="#000" stroke-linecap="round" stroke-linejoin="round" stroke-miterlimit="10" stroke-width="1"/>
          </g>
        </g>
      </g>
    </g>
  </g>
</svg>
