<svg xmlns="http://www.w3.org/2000/svg" width="84.032" height="84.032" viewBox="0 0 84.032 84.032">
  <g id="Grupo_1112685" data-name="Grupo 1112685" transform="translate(-0.001 -0.455)">
    <path id="Trazado_904173" data-name="Trazado 904173" d="M85.132,47.885a37.416,37.416,0,0,1-3.925,16.749L59.988,83.451A37.44,37.44,0,0,1,47.416,85.6c-.713,0-1.411-.014-2.11-.07a37.7,37.7,0,0,1,.014-75.294c.7-.056,1.4-.07,2.1-.07A37.719,37.719,0,0,1,85.132,47.886Zm0,0" transform="translate(-8.084 -8.097)" fill="#c52828"/>
    <path id="Trazado_904174" data-name="Trazado 904174" d="M80.942,48.234a37.416,37.416,0,0,1-3.925,16.749L55.8,83.8a36.72,36.72,0,0,1-10.491,2.081,37.7,37.7,0,0,1,.014-75.294A37.7,37.7,0,0,1,80.942,48.234Zm0,0" transform="translate(-8.085 -8.446)" fill="#f44335"/>
    <path id="Trazado_904175" data-name="Trazado 904175" d="M282.315,253.578a32.058,32.058,0,0,1-2.933,10.9l-16.5,15.869a31.8,31.8,0,0,1-9.778,2.444v-.614a31.349,31.349,0,0,0,5.714-1.83l16.5-15.869a32.029,32.029,0,0,0,2.933-10.9Zm0,0" transform="translate(-210.98 -210.996)" fill="#0377bc"/>
    <path id="Trazado_904176" data-name="Trazado 904176" d="M282.315,73.706H278.25a31.691,31.691,0,0,0-3.52-12.028c-.07-.125-.126-.252-.21-.377-.14-.293-.293-.586-.461-.866-.237-.405-.475-.8-.726-1.187a32.37,32.37,0,0,0-9.834-9.834c-.391-.252-.782-.489-1.187-.727s-.824-.461-1.244-.67a30.837,30.837,0,0,0-7.963-2.892V44.5a31.68,31.68,0,0,1,12.028,3.52c.419.209.838.433,1.243.67s.8.475,1.188.727a32.371,32.371,0,0,1,9.834,9.834c.251.391.489.782.726,1.187.168.28.321.573.461.866.084.126.14.252.209.377a31.679,31.679,0,0,1,3.52,12.028Zm0,0" transform="translate(-210.98 -36.712)" fill="#0377bc"/>
    <path id="Trazado_904177" data-name="Trazado 904177" d="M101.175,79.293h2.794a32.029,32.029,0,0,1-2.933,10.9L85.809,107.231c-1.816.782-5,.224-6.985.657v-6.244A2.8,2.8,0,0,0,76.03,98.85,2.763,2.763,0,0,0,74,99.744a2.658,2.658,0,0,0-.768,1.9V108.5a32.374,32.374,0,0,1-4.065-.628,30.861,30.861,0,0,1-7.963-2.892c-.419-.21-.838-.433-1.243-.671s-.8-.475-1.188-.726a32.378,32.378,0,0,1-9.834-9.834c-.252-.391-.489-.782-.726-1.187s-.461-.824-.671-1.244c-.251-.475-.489-.963-.712-1.452a31.32,31.32,0,0,1-2.808-10.575h6.859a2.794,2.794,0,0,0,0-5.588H44.027a31.691,31.691,0,0,1,3.52-12.028c.21-.419.433-.838.671-1.243s.475-.8.726-1.187a32.363,32.363,0,0,1,9.834-9.834c.391-.252.782-.489,1.188-.727s.824-.461,1.243-.67a30.829,30.829,0,0,1,7.963-2.892,32.495,32.495,0,0,1,4.065-.629v6.859a2.662,2.662,0,0,0,.768,1.9,2.765,2.765,0,0,0,2.026.894,2.8,2.8,0,0,0,2.794-2.794v-6.23a30.838,30.838,0,0,1,7.963,2.892c.419.209.838.433,1.244.67s.8.475,1.187.727a32.371,32.371,0,0,1,9.834,9.834c.251.391.489.782.726,1.187.168.28.321.573.461.866.084.126.14.252.209.377a31.68,31.68,0,0,1,3.52,12.028h-2.794a2.794,2.794,0,1,0,0,5.588Zm0,0" transform="translate(-36.699 -36.711)" fill="#02a9f4"/>
    <g id="Grupo_1112684" data-name="Grupo 1112684" transform="translate(10.848 11.305)">
      <path id="Trazado_904178" data-name="Trazado 904178" d="M136.641,71.152a1.415,1.415,0,0,1-1.914-.517l-2.067-3.59c.391-.252.782-.489,1.188-.727s.824-.461,1.243-.67l2.067,3.59A1.412,1.412,0,0,1,136.641,71.152Zm0,0" transform="translate(-121.429 -65.649)" fill="#5e5f62"/>
      <path id="Trazado_904179" data-name="Trazado 904179" d="M70.68,137.114a1.415,1.415,0,0,1-1.914.517l-3.59-2.067c.21-.419.433-.838.671-1.243s.475-.8.726-1.187l3.59,2.067A1.41,1.41,0,0,1,70.68,137.114Zm0,0" transform="translate(-65.176 -121.902)" fill="#5e5f62"/>
      <path id="Trazado_904180" data-name="Trazado 904180" d="M70.163,314.919l-3.59,2.067c-.252-.391-.489-.782-.726-1.187s-.461-.824-.671-1.244l3.591-2.067a1.4,1.4,0,0,1,1.4,2.431Zm0,0" transform="translate(-65.176 -271.251)" fill="#5e5f62"/>
      <path id="Trazado_904181" data-name="Trazado 904181" d="M378.961,135.563l-3.59,2.067a1.4,1.4,0,1,1-1.4-2.43l3.591-2.067c.251.391.489.782.726,1.187S378.751,135.144,378.961,135.563Zm0,0" transform="translate(-321.994 -121.901)" fill="#5e5f62"/>
      <path id="Trazado_904182" data-name="Trazado 904182" d="M137.159,375.842l-2.067,3.591c-.419-.21-.838-.433-1.243-.671s-.8-.475-1.188-.726l2.067-3.59a1.4,1.4,0,1,1,2.431,1.4Zm0,0" transform="translate(-121.429 -322.466)" fill="#5e5f62"/>
      <path id="Trazado_904183" data-name="Trazado 904183" d="M316.516,67.046l-2.068,3.59a1.4,1.4,0,1,1-2.43-1.4l2.067-3.59c.419.209.838.433,1.243.67S316.124,66.794,316.516,67.046Zm0,0" transform="translate(-270.78 -65.648)" fill="#5e5f62"/>
      <path id="Trazado_904184" data-name="Trazado 904184" d="M229.323,143.042a1.4,1.4,0,0,1-1.4-1.4V129.073a1.4,1.4,0,0,1,2.794,0v12.572a1.4,1.4,0,0,1-1.4,1.4Zm0,0" transform="translate(-200.839 -117.353)" fill="#5e5f62"/>
      <path id="Trazado_904185" data-name="Trazado 904185" d="M256.729,258.6a1.391,1.391,0,0,1-.988-.409l-9.611-9.611a1.4,1.4,0,0,1,1.976-1.975l9.61,9.611a1.4,1.4,0,0,1-.988,2.384Zm0,0" transform="translate(-215.673 -216.146)" fill="#5e5f62"/>
    </g>
    <path id="Trazado_904186" data-name="Trazado 904186" d="M341.921,282.834,314.094,300.9a1.454,1.454,0,0,1-2.235-1.243V263.5a1.454,1.454,0,0,1,2.235-1.243l25.689,16.679,2.138,1.383a1.514,1.514,0,0,1,0,2.514Zm0,0" transform="translate(-259.956 -218.042)" fill="#2e7d32"/>
    <path id="Trazado_904187" data-name="Trazado 904187" d="M339.784,278.937a1.5,1.5,0,0,1-.657,1.1l-27.268,17.7V263.5a1.454,1.454,0,0,1,2.235-1.243Zm0,0" transform="translate(-259.956 -218.042)" fill="#4caf50"/>
    <path id="Trazado_904188" data-name="Trazado 904188" d="M219.522,215.8a4.191,4.191,0,1,1-4.191-4.191A4.191,4.191,0,0,1,219.522,215.8Zm0,0" transform="translate(-176 -176.012)" fill="#424242"/>
    <path id="Trazado_904189" data-name="Trazado 904189" d="M82.723,61.112,74.9,56.03a38.582,38.582,0,0,0,3.548-16.242A39.222,39.222,0,1,0,50.507,77.244v4.362a2.881,2.881,0,0,0,1.5,2.538,2.827,2.827,0,0,0,2.89-.114L82.722,65.959a2.9,2.9,0,0,0,0-4.847ZM50.507,74.324A36.307,36.307,0,1,1,75.652,39.788a35.841,35.841,0,0,1-3.12,14.706l-2.393-1.554A33.336,33.336,0,0,0,72.727,42.7a1.4,1.4,0,0,0-1.392-1.517H64.476a1.4,1.4,0,1,1,0-2.794h6.859a1.4,1.4,0,0,0,1.392-1.519,33.116,33.116,0,0,0-4.34-13.79c-.01-.019-.009-.04-.02-.058s-.029-.029-.041-.046A33.829,33.829,0,0,0,56.141,10.795c-.018-.012-.028-.031-.046-.041s-.04-.01-.059-.02a33.117,33.117,0,0,0-13.79-4.341,1.4,1.4,0,0,0-1.518,1.392v6.859a1.4,1.4,0,1,1-2.794,0V7.785a1.4,1.4,0,0,0-1.518-1.392,33.107,33.107,0,0,0-13.79,4.341c-.019.01-.04.009-.059.02s-.029.029-.046.041a33.823,33.823,0,0,0-12.181,12.18c-.013.02-.033.031-.045.051s-.01.042-.021.063A33.082,33.082,0,0,0,5.936,36.873a1.4,1.4,0,0,0,1.391,1.519h6.859a1.4,1.4,0,1,1,0,2.794H7.327A1.4,1.4,0,0,0,5.936,42.7a33.106,33.106,0,0,0,4.34,13.79c.01.019.009.04.02.059s.043.052.062.08A33.832,33.832,0,0,0,22.522,68.782c.018.011.027.03.046.041s.062.023.092.038a33.111,33.111,0,0,0,13.756,4.323c.041,0,.08.005.121.005a1.4,1.4,0,0,0,1.4-1.4V64.933a1.4,1.4,0,0,1,2.794,0v6.859a1.394,1.394,0,0,0,.451,1.028,1.415,1.415,0,0,0,1.064.363,33.079,33.079,0,0,0,8.263-1.811Zm0-28.859v3.523l-6.38-6.38a5.523,5.523,0,0,0,.792-2.821A5.583,5.583,0,0,0,40.728,34.4V23.025a1.4,1.4,0,0,0-2.794,0V34.4a5.572,5.572,0,1,0,4.218,10.185l8.355,8.355V68.391a30.333,30.333,0,0,1-6.985,1.84v-5.3a4.191,4.191,0,0,0-8.381,0v5.3a30.238,30.238,0,0,1-9.929-3.193l1.36-2.356a1.4,1.4,0,1,0-2.42-1.4l-1.367,2.369a31.047,31.047,0,0,1-9.319-9.319l2.369-1.367a1.4,1.4,0,0,0-1.4-2.42l-2.356,1.36A30.222,30.222,0,0,1,8.89,43.979h5.3a4.191,4.191,0,1,0,0-8.381H8.89a30.2,30.2,0,0,1,3.193-9.928l2.355,1.359a1.4,1.4,0,0,0,1.4-2.42l-2.368-1.367a31.031,31.031,0,0,1,9.318-9.319l1.367,2.368a1.4,1.4,0,1,0,2.42-1.4l-1.36-2.355a30.234,30.234,0,0,1,9.929-3.193v5.3a4.191,4.191,0,1,0,8.381,0v-5.3a30.239,30.239,0,0,1,9.929,3.193l-1.36,2.355a1.4,1.4,0,0,0,2.42,1.4l1.368-2.368A31.045,31.045,0,0,1,65.2,23.242l-2.368,1.367a1.4,1.4,0,0,0,1.4,2.42l2.356-1.359A30.233,30.233,0,0,1,69.773,35.6h-5.3a4.191,4.191,0,1,0,0,8.381h5.3A30.558,30.558,0,0,1,67.768,51.4L54.9,43.042a2.829,2.829,0,0,0-2.89-.114,2.881,2.881,0,0,0-1.5,2.538Zm-8.382-5.677a2.783,2.783,0,0,1-.817,1.972l0,0v0a2.793,2.793,0,1,1,.821-1.977ZM81.2,63.615,53.3,81.606V45.466l.077-.08L81.2,63.456Zm0,0" transform="translate(0)"/>
  </g>
</svg>
