<svg xmlns="http://www.w3.org/2000/svg" width="65" height="65" viewBox="0 0 65 65">
  <g id="Grupo_1112887" data-name="Grupo 1112887" transform="translate(-410.051 -4047)">
    <rect id="Rectángulo_405112" data-name="Rectángulo 405112" width="65" height="65" rx="32.5" transform="translate(410.051 4047)" fill="#6896ab"/>
    <g id="Grupo_1112750" data-name="Grupo 1112750" transform="translate(412.434 4042.429)">
      <g id="Grupo_1112747" data-name="Grupo 1112747" transform="translate(7.5 15.329)">
        <path id="Trazado_904432" data-name="Trazado 904432" d="M185.016,241.253l-.589-10.487v-13.18H169.191v4.376a16.14,16.14,0,0,0,.757,4.886l1.425,3.919-.667,10.476a1.463,1.463,0,0,0,1.46,1.556h11.389A1.463,1.463,0,0,0,185.016,241.253Z" transform="translate(-154.584 -199.314)" fill="#ffdfcf"/>
        <path id="Trazado_904433" data-name="Trazado 904433" d="M300.9,242.8H298.19a1.463,1.463,0,0,0,1.46-1.545l-.588-10.487v-13.18h2.711v13.18l.589,10.487A1.463,1.463,0,0,1,300.9,242.8Z" transform="translate(-271.929 -199.317)" fill="#ffcebf"/>
        <path id="Trazado_904434" data-name="Trazado 904434" d="M14.3,154.216H10.714A3.214,3.214,0,0,1,7.5,151V136.518a3.214,3.214,0,0,1,3.214-3.214H14.3a3.214,3.214,0,0,1,3.214,3.214V151A3.214,3.214,0,0,1,14.3,154.216Z" transform="translate(-7.5 -122.646)" fill="#8ac9fe"/>
        <path id="Trazado_904435" data-name="Trazado 904435" d="M58.715,136.522v14.484a3.214,3.214,0,0,1-3.214,3.214H52.79A3.214,3.214,0,0,0,56,151.006V136.522a3.214,3.214,0,0,0-3.214-3.213H55.5A3.214,3.214,0,0,1,58.715,136.522Z" transform="translate(-48.699 -122.651)" fill="#60b7ff"/>
        <path id="Trazado_904436" data-name="Trazado 904436" d="M400.425,154.216h-3.589A3.214,3.214,0,0,1,393.622,151V136.518a3.214,3.214,0,0,1,3.214-3.214h3.589a3.214,3.214,0,0,1,3.214,3.214V151A3.214,3.214,0,0,1,400.425,154.216Z" transform="translate(-358.74 -122.646)" fill="#8ac9fe"/>
        <path id="Trazado_904437" data-name="Trazado 904437" d="M400.425,154.216h-3.589A3.214,3.214,0,0,1,393.622,151V136.518a3.214,3.214,0,0,1,3.214-3.214h3.589a3.214,3.214,0,0,1,3.214,3.214V151A3.214,3.214,0,0,1,400.425,154.216Z" transform="translate(-358.74 -122.646)" fill="#8ac9fe"/>
        <path id="Trazado_904438" data-name="Trazado 904438" d="M400.425,154.216h-3.589A3.214,3.214,0,0,1,393.622,151V136.518a3.214,3.214,0,0,1,3.214-3.214h3.589a3.214,3.214,0,0,1,3.214,3.214V151A3.214,3.214,0,0,1,400.425,154.216Z" transform="translate(-358.74 -122.646)" fill="#8ac9fe"/>
        <path id="Trazado_904439" data-name="Trazado 904439" d="M444.835,136.522v14.484a3.214,3.214,0,0,1-3.213,3.214H438.91a3.214,3.214,0,0,0,3.214-3.214V136.522a3.214,3.214,0,0,0-3.214-3.213h2.712A3.213,3.213,0,0,1,444.835,136.522Z" transform="translate(-399.937 -122.651)" fill="#60b7ff"/>
        <rect id="Rectángulo_405226" data-name="Rectángulo 405226" width="24.865" height="5.684" transform="translate(10.017 18.272)" fill="#8ac9fe"/>
        <rect id="Rectángulo_405227" data-name="Rectángulo 405227" width="5.684" height="5.684" transform="translate(29.198 18.272)" fill="#60b7ff"/>
        <path id="Trazado_904440" data-name="Trazado 904440" d="M164.938,184.689h0a1.975,1.975,0,0,1-1.975-1.975v-2.1a1.975,1.975,0,0,1,1.975-1.975h0a1.975,1.975,0,0,1,1.975,1.975v2.1A1.975,1.975,0,0,1,164.938,184.689Z" transform="translate(-148.919 -163.888)" fill="#ffcebf"/>
        <path id="Trazado_904441" data-name="Trazado 904441" d="M208.661,168.441h0a1.975,1.975,0,0,1-1.975-1.975v-3.711a1.975,1.975,0,0,1,1.975-1.975h0a1.975,1.975,0,0,1,1.975,1.975v3.711A1.975,1.975,0,0,1,208.661,168.441Z" transform="translate(-188.692 -147.64)" fill="#ffcebf"/>
        <path id="Trazado_904442" data-name="Trazado 904442" d="M252.384,168.441h0a1.975,1.975,0,0,1-1.975-1.975v-3.711a1.975,1.975,0,0,1,1.975-1.975h0a1.975,1.975,0,0,1,1.975,1.975v3.711A1.975,1.975,0,0,1,252.384,168.441Z" transform="translate(-228.465 -147.64)" fill="#ffcebf"/>
        <path id="Trazado_904443" data-name="Trazado 904443" d="M296.107,175.632h0a1.975,1.975,0,0,1-1.975-1.975v-3a1.975,1.975,0,0,1,1.975-1.975h0a1.975,1.975,0,0,1,1.975,1.975v3A1.975,1.975,0,0,1,296.107,175.632Z" transform="translate(-268.238 -154.831)" fill="#ffcebf"/>
        <path id="Trazado_904444" data-name="Trazado 904444" d="M178.118,180.614v2.1a1.976,1.976,0,0,1-2.838,1.777,1.974,1.974,0,0,0,1.112-1.777v-2.1a1.971,1.971,0,0,0-1.112-1.776,1.974,1.974,0,0,1,2.838,1.776Z" transform="translate(-160.123 -163.886)" fill="#ffb09e"/>
        <path id="Trazado_904445" data-name="Trazado 904445" d="M221.838,162.754v3.711A1.976,1.976,0,0,1,219,168.242a1.974,1.974,0,0,0,1.112-1.777v-3.711A1.971,1.971,0,0,0,219,160.978a1.974,1.974,0,0,1,2.838,1.776Z" transform="translate(-199.893 -147.639)" fill="#ffb09e"/>
        <path id="Trazado_904446" data-name="Trazado 904446" d="M265.567,162.754v3.711a1.975,1.975,0,0,1-1.975,1.975,1.955,1.955,0,0,1-.862-.2,1.975,1.975,0,0,0,1.112-1.777v-3.711a1.971,1.971,0,0,0-1.112-1.776,1.974,1.974,0,0,1,2.837,1.776Z" transform="translate(-239.673 -147.639)" fill="#ffb09e"/>
        <path id="Trazado_904447" data-name="Trazado 904447" d="M309.288,170.655v3a1.975,1.975,0,0,1-1.976,1.975,1.955,1.955,0,0,1-.862-.2,1.974,1.974,0,0,0,1.112-1.777v-3a1.971,1.971,0,0,0-1.112-1.777,1.974,1.974,0,0,1,2.838,1.777Z" transform="translate(-279.443 -154.826)" fill="#ffb09e"/>
        <path id="Trazado_904448" data-name="Trazado 904448" d="M181.726,363.485h13.557a.851.851,0,0,1,.851.851v2.128a.851.851,0,0,1-.851.851H181.726a.851.851,0,0,1-.851-.851v-2.128A.851.851,0,0,1,181.726,363.485Z" transform="translate(-165.212 -332.033)" fill="#978ecb"/>
        <path id="Trazado_904449" data-name="Trazado 904449" d="M313.054,363.485h-2.711a.851.851,0,0,1,.851.851v2.128a.851.851,0,0,1-.851.851h2.711a.851.851,0,0,0,.851-.851v-2.128A.851.851,0,0,0,313.054,363.485Z" transform="translate(-282.984 -332.033)" fill="#8379c1"/>
        <path id="Trazado_904450" data-name="Trazado 904450" d="M252.079,220.433l2.437-9.042v-2.4a2.768,2.768,0,0,0-2.768-2.768h-6.137a2.05,2.05,0,0,0-2.05,2.05h0a2.05,2.05,0,0,0,2.05,2.05H248.1l-2.265,2.149a5.6,5.6,0,0,0-1.744,4.059v3.9Z" transform="translate(-222.236 -188.981)" fill="#ffdfcf"/>
        <path id="Trazado_904451" data-name="Trazado 904451" d="M309.65,209v2.4l-2.437,9.043H304.5l2.437-9.043V209a2.768,2.768,0,0,0-2.769-2.768h2.712A2.768,2.768,0,0,1,309.65,209Z" transform="translate(-277.369 -188.983)" fill="#ffcebf"/>
        <path id="Trazado_904452" data-name="Trazado 904452" d="M351.765,24.205l-1.149-.663a.844.844,0,0,1,0-1.462l1.149-.663a.853.853,0,0,0,.312-1.165l-1.363-2.362a.853.853,0,0,0-1.165-.312l-1.149.663a.844.844,0,0,1-1.266-.731V16.184a.853.853,0,0,0-.853-.853h-2.727a.853.853,0,0,0-.853.853v1.327a.844.844,0,0,1-1.266.731l-1.149-.663a.853.853,0,0,0-1.165.312l-1.363,2.362a.853.853,0,0,0,.312,1.165l1.149.663a.844.844,0,0,1,0,1.462l-1.149.663a.852.852,0,0,0-.312,1.165l1.363,2.362a.853.853,0,0,0,1.165.312l1.149-.663a.844.844,0,0,1,1.266.731v1.327a.853.853,0,0,0,.853.853h2.727a.853.853,0,0,0,.853-.853V28.111a.844.844,0,0,1,1.266-.731l1.149.663a.853.853,0,0,0,1.165-.312l1.363-2.362A.853.853,0,0,0,351.765,24.205Zm-6.876.952a2.318,2.318,0,1,1,2.318-2.318A2.318,2.318,0,0,1,344.889,25.158Z" transform="translate(-307.819 -15.331)" fill="#9c9c9c"/>
        <path id="Trazado_904453" data-name="Trazado 904453" d="M403.558,24.2l-1.15-.663a.844.844,0,0,1,0-1.462l1.15-.664a.852.852,0,0,0,.312-1.164l-1.363-2.361a.854.854,0,0,0-1.165-.313l-1.149.664a.844.844,0,0,1-1.266-.731V16.182a.853.853,0,0,0-.853-.853h-2.726a.854.854,0,0,0-.655.306,7.379,7.379,0,0,1-.112,14.173.851.851,0,0,0,.767.48h2.726a.852.852,0,0,0,.853-.852V28.109a.844.844,0,0,1,1.266-.731l1.149.663a.853.853,0,0,0,1.165-.312l1.363-2.361A.853.853,0,0,0,403.558,24.2Z" transform="translate(-359.612 -15.329)" fill="#838383"/>
      </g>
      <g id="Grupo_1112749" data-name="Grupo 1112749" transform="translate(7.5 15.329)">
        <path id="Trazado_904454" data-name="Trazado 904454" d="M200.053,409.023l.2,3.5a1.463,1.463,0,0,1-1.461,1.545H187.4a1.463,1.463,0,0,1-1.46-1.556l.423-6.647" transform="translate(-169.817 -370.588)" fill="none" stroke="#000" stroke-linecap="round" stroke-linejoin="round" stroke-miterlimit="10" stroke-width="1"/>
        <path id="Trazado_904455" data-name="Trazado 904455" d="M169.78,280.5a16.133,16.133,0,0,0,.7,3.578L171.909,288" transform="translate(-155.12 -256.544)" fill="none" stroke="#000" stroke-linecap="round" stroke-linejoin="round" stroke-miterlimit="10" stroke-width="1"/>
        <path id="Trazado_904456" data-name="Trazado 904456" d="M252.079,220.433l2.437-9.042v-2.4a2.768,2.768,0,0,0-2.768-2.768h-6.137a2.05,2.05,0,0,0-2.05,2.05h0a2.05,2.05,0,0,0,2.05,2.05H248.1l-2.265,2.149a5.6,5.6,0,0,0-1.744,4.059" transform="translate(-222.236 -188.981)" fill="none" stroke="#000" stroke-linecap="round" stroke-linejoin="round" stroke-miterlimit="10" stroke-width="1"/>
        <path id="Trazado_904457" data-name="Trazado 904457" d="M17.518,140.918V151a3.214,3.214,0,0,1-3.214,3.214H10.715A3.214,3.214,0,0,1,7.5,151V136.518a3.214,3.214,0,0,1,3.214-3.214H14.3a3.214,3.214,0,0,1,3.214,3.214v1.21" transform="translate(-7.501 -122.646)" fill="none" stroke="#000" stroke-linecap="round" stroke-linejoin="round" stroke-miterlimit="10" stroke-width="1"/>
        <path id="Trazado_904458" data-name="Trazado 904458" d="M402.293,139.949a3.207,3.207,0,0,1,1.344,2.614v14.484a3.214,3.214,0,0,1-3.213,3.214h-3.589a3.214,3.214,0,0,1-3.214-3.214V142.563c0-.028,0-.055,0-.083" transform="translate(-358.738 -128.691)" fill="none" stroke="#000" stroke-linecap="round" stroke-linejoin="round" stroke-miterlimit="10" stroke-width="1"/>
        <path id="Trazado_904459" data-name="Trazado 904459" d="M358.01,217.589h3.217v5.683H358.21" transform="translate(-326.345 -199.317)" fill="none" stroke="#000" stroke-linecap="round" stroke-linejoin="round" stroke-miterlimit="10" stroke-width="1"/>
        <path id="Trazado_904460" data-name="Trazado 904460" d="M122.408,217.589H118.38v5.683h13.151" transform="translate(-108.363 -199.317)" fill="none" stroke="#000" stroke-linecap="round" stroke-linejoin="round" stroke-miterlimit="10" stroke-width="1"/>
        <path id="Trazado_904461" data-name="Trazado 904461" d="M164.938,184.689h0a1.975,1.975,0,0,1-1.975-1.975v-2.1a1.975,1.975,0,0,1,1.975-1.975h0a1.975,1.975,0,0,1,1.975,1.975v2.1A1.975,1.975,0,0,1,164.938,184.689Z" transform="translate(-148.919 -163.889)" fill="none" stroke="#000" stroke-linecap="round" stroke-linejoin="round" stroke-miterlimit="10" stroke-width="1"/>
        <path id="Trazado_904462" data-name="Trazado 904462" d="M210.64,165.468v-2.715a1.975,1.975,0,0,0-3.95,0v3.711a1.975,1.975,0,0,0,3.491,1.266" transform="translate(-188.695 -147.639)" fill="none" stroke="#000" stroke-linecap="round" stroke-linejoin="round" stroke-miterlimit="10" stroke-width="1"/>
        <path id="Trazado_904463" data-name="Trazado 904463" d="M250.41,165.468v-2.715a1.975,1.975,0,1,1,3.95,0v2.131" transform="translate(-228.466 -147.639)" fill="none" stroke="#000" stroke-linecap="round" stroke-linejoin="round" stroke-miterlimit="10" stroke-width="1"/>
        <path id="Trazado_904464" data-name="Trazado 904464" d="M294.13,172.071v-1.417a1.975,1.975,0,1,1,3.951,0v1.436" transform="translate(-268.236 -154.826)" fill="none" stroke="#000" stroke-linecap="round" stroke-linejoin="round" stroke-miterlimit="10" stroke-width="1"/>
        <path id="Trazado_904465" data-name="Trazado 904465" d="M181.726,363.485h13.557a.851.851,0,0,1,.851.851v2.128a.851.851,0,0,1-.851.851H181.726a.851.851,0,0,1-.851-.851v-2.128A.851.851,0,0,1,181.726,363.485Z" transform="translate(-165.213 -332.033)" fill="none" stroke="#000" stroke-linecap="round" stroke-linejoin="round" stroke-miterlimit="10" stroke-width="1"/>
        <path id="Trazado_904466" data-name="Trazado 904466" d="M351.765,24.205l-1.149-.663a.844.844,0,0,1,0-1.462l1.149-.663a.853.853,0,0,0,.312-1.165l-1.363-2.362a.853.853,0,0,0-1.165-.312l-1.149.663a.844.844,0,0,1-1.266-.731V16.184a.853.853,0,0,0-.853-.853h-2.727a.853.853,0,0,0-.853.853v1.327a.844.844,0,0,1-1.266.731l-1.149-.663a.853.853,0,0,0-1.165.312l-1.363,2.362a.853.853,0,0,0,.312,1.165l1.149.663a.844.844,0,0,1,0,1.462l-1.149.663a.852.852,0,0,0-.312,1.165l1.363,2.362a.852.852,0,0,0,1.165.312l1.149-.663a.844.844,0,0,1,1.266.731v1.327a.853.853,0,0,0,.853.853h2.727a.853.853,0,0,0,.853-.853V28.111a.844.844,0,0,1,1.266-.731l1.149.663a.853.853,0,0,0,1.165-.312l1.363-2.362A.853.853,0,0,0,351.765,24.205Zm-6.876.952a2.318,2.318,0,1,1,2.318-2.318A2.318,2.318,0,0,1,344.889,25.158Z" transform="translate(-307.819 -15.331)" fill="none" stroke="#000" stroke-linecap="round" stroke-linejoin="round" stroke-miterlimit="10" stroke-width="1"/>
        <g id="Grupo_1112748" data-name="Grupo 1112748" transform="translate(19.569 1.707)">
          <path id="Trazado_904467" data-name="Trazado 904467" d="M224.124,36.6l2.375-2.375,2.375,2.375" transform="translate(-224.124 -34.225)" fill="none" stroke="#000" stroke-linecap="round" stroke-linejoin="round" stroke-miterlimit="10" stroke-width="1"/>
          <line id="Línea_680" data-name="Línea 680" y2="8.232" transform="translate(2.375)" fill="none" stroke="#000" stroke-linecap="round" stroke-linejoin="round" stroke-miterlimit="10" stroke-width="1"/>
        </g>
      </g>
    </g>
  </g>
</svg>
