<svg xmlns="http://www.w3.org/2000/svg" width="65" height="65" viewBox="0 0 65 65">
  <g id="Grupo_1112888" data-name="Grupo 1112888" transform="translate(-410.051 -4133)">
    <rect id="Rectángulo_405113" data-name="Rectángulo 405113" width="65" height="65" rx="32.5" transform="translate(410.051 4133)" fill="#6896ab"/>
    <g id="Grupo_1112764" data-name="Grupo 1112764" transform="translate(415.087 4134.782)">
      <g id="Grupo_1112758" data-name="Grupo 1112758" transform="translate(7.5 18.892)">
        <g id="Grupo_1112757" data-name="Grupo 1112757">
          <path id="Trazado_904468" data-name="Trazado 904468" d="M67.331,424.41l-2.663,6.847a.467.467,0,0,0,.435.636h5.144a.467.467,0,0,0,.435-.3l1.536-3.95A14.121,14.121,0,0,1,67.331,424.41Z" transform="translate(-59.298 -396.848)" fill="#e759aa"/>
          <g id="Grupo_1112756" data-name="Grupo 1112756">
            <g id="Grupo_1112753" data-name="Grupo 1112753">
              <path id="Trazado_904469" data-name="Trazado 904469" d="M66.11,189.792a8.744,8.744,0,0,1,11.339-8.348c0-.057,0-.114,0-.171a14.159,14.159,0,1,0-9.793,13.48A8.691,8.691,0,0,1,66.11,189.792Z" transform="translate(-45.224 -163.583)" fill="#fe5ca7"/>
              <g id="Grupo_1112751" data-name="Grupo 1112751" transform="translate(7.895 7.527)">
                <path id="Trazado_904470" data-name="Trazado 904470" d="M104.985,228.668a8.756,8.756,0,0,1,7.333-8.628,10.155,10.155,0,1,0-7.248,9.847A8.772,8.772,0,0,1,104.985,228.668Z" transform="translate(-91.993 -209.985)" fill="#fff"/>
                <path id="Trazado_904471" data-name="Trazado 904471" d="M131.028,231.933a8.756,8.756,0,0,1,7.332-8.628,10.166,10.166,0,0,0-7.56-9.718,10.166,10.166,0,0,1-10.08,16.707,10.173,10.173,0,0,0,10.393,2.858A8.757,8.757,0,0,1,131.028,231.933Z" transform="translate(-118.036 -213.25)" fill="#f9f7f8"/>
              </g>
              <g id="Grupo_1112752" data-name="Grupo 1112752">
                <path id="Trazado_904472" data-name="Trazado 904472" d="M10.025,131.95a8.624,8.624,0,0,0-.766,11.318,1.027,1.027,0,0,0,1.542.1l10.642-10.642a1.027,1.027,0,0,0-.1-1.542A8.624,8.624,0,0,0,10.025,131.95Z" transform="translate(-7.5 -129.425)" fill="#ffe177"/>
                <path id="Trazado_904473" data-name="Trazado 904473" d="M26.531,136.374A8.552,8.552,0,0,0,24.3,135.15a1.028,1.028,0,0,1-.183.25L13.472,146.042a1.029,1.029,0,0,1-.25.183,8.543,8.543,0,0,0,1.225,2.233,1.027,1.027,0,0,0,1.542.1l10.642-10.642A1.027,1.027,0,0,0,26.531,136.374Z" transform="translate(-12.687 -134.615)" fill="#ffd15b"/>
                <path id="Trazado_904474" data-name="Trazado 904474" d="M253.295,131.95a8.624,8.624,0,0,0-11.318-.766,1.027,1.027,0,0,0-.1,1.542l10.642,10.642a1.027,1.027,0,0,0,1.542-.1A8.624,8.624,0,0,0,253.295,131.95Z" transform="translate(-219.705 -129.425)" fill="#ffe177"/>
                <path id="Trazado_904475" data-name="Trazado 904475" d="M325.162,133.769a8.58,8.58,0,0,0-4.312-2.338c.142.124.281.252.416.387a8.623,8.623,0,0,1,.894,11.142l2.227,2.227a1.027,1.027,0,0,0,1.542-.1A8.624,8.624,0,0,0,325.162,133.769Z" transform="translate(-291.572 -131.244)" fill="#ffd15b"/>
              </g>
            </g>
            <g id="Grupo_1112755" data-name="Grupo 1112755" transform="translate(20.793 17.374)">
              <g id="Grupo_1112754" data-name="Grupo 1112754">
                <circle id="Elipse_14915" data-name="Elipse 14915" cx="8.835" cy="8.835" r="8.835" fill="#7a6d79"/>
              </g>
              <path id="Trazado_904476" data-name="Trazado 904476" d="M259.364,321.524a8.838,8.838,0,0,1-10.186,13.59,8.836,8.836,0,1,0,10.186-13.59Z" transform="translate(-247.39 -320.95)" fill="#685e68"/>
              <path id="Trazado_904477" data-name="Trazado 904477" d="M278.725,363.753a3.367,3.367,0,0,1-1.7-6.176.1.1,0,0,0-.055-.187h0a4.91,4.91,0,1,0,4.91,4.91v0a.1.1,0,0,0-.187-.055A3.364,3.364,0,0,1,278.725,363.753Z" transform="translate(-268.128 -353.464)" fill="#ffe177"/>
            </g>
          </g>
        </g>
      </g>
      <g id="Grupo_1112763" data-name="Grupo 1112763" transform="translate(7.5 7.5)">
        <path id="Trazado_904478" data-name="Trazado 904478" d="M278.725,363.753a3.367,3.367,0,0,1-1.7-6.176.1.1,0,0,0-.055-.187h0a4.91,4.91,0,1,0,4.91,4.91v0a.1.1,0,0,0-.187-.055A3.364,3.364,0,0,1,278.725,363.753Z" transform="translate(-247.335 -324.698)" fill="none" stroke="#000" stroke-linecap="round" stroke-linejoin="round" stroke-miterlimit="10" stroke-width="1"/>
        <g id="Grupo_1112762" data-name="Grupo 1112762" transform="translate(0 0)">
          <path id="Trazado_904479" data-name="Trazado 904479" d="M67.291,425.5l-2.623,6.744a.467.467,0,0,0,.435.637h5.144a.467.467,0,0,0,.435-.3l1.5-3.86A14.182,14.182,0,0,1,67.291,425.5Z" transform="translate(-59.298 -386.449)" fill="none" stroke="#000" stroke-linecap="round" stroke-linejoin="round" stroke-miterlimit="10" stroke-width="1"/>
          <path id="Trazado_904480" data-name="Trazado 904480" d="M342.072,266.358a14.127,14.127,0,0,0-1.067-5.4" transform="translate(-309.844 -237.275)" fill="none" stroke="#000" stroke-linecap="round" stroke-linejoin="round" stroke-miterlimit="10" stroke-width="1"/>
          <path id="Trazado_904481" data-name="Trazado 904481" d="M68.681,168.17a14.206,14.206,0,0,0-10.8,0l-7.7,7.7a14.177,14.177,0,0,0,11.474,19.477" transform="translate(-45.222 -152.19)" fill="none" stroke="#000" stroke-linecap="round" stroke-linejoin="round" stroke-miterlimit="10" stroke-width="1"/>
          <path id="Trazado_904482" data-name="Trazado 904482" d="M218.332,463.929a14.107,14.107,0,0,0,2.639-.564" transform="translate(-198.633 -420.771)" fill="none" stroke="#000" stroke-linecap="round" stroke-linejoin="round" stroke-miterlimit="10" stroke-width="1"/>
          <path id="Trazado_904483" data-name="Trazado 904483" d="M112.892,219.946a10.163,10.163,0,0,0-20.264-.9" transform="translate(-84.674 -191.067)" fill="none" stroke="#000" stroke-linecap="round" stroke-linejoin="round" stroke-miterlimit="10" stroke-width="1"/>
          <path id="Trazado_904484" data-name="Trazado 904484" d="M94.491,342a10.173,10.173,0,0,0,12.753,7.594" transform="translate(-86.363 -310.746)" fill="none" stroke="#000" stroke-linecap="round" stroke-linejoin="round" stroke-miterlimit="10" stroke-width="1"/>
          <path id="Trazado_904485" data-name="Trazado 904485" d="M156.782,256.938v5.776h-4.533" transform="translate(-138.724 -233.632)" fill="none" stroke="#000" stroke-linecap="round" stroke-linejoin="round" stroke-miterlimit="10" stroke-width="1"/>
          <g id="Grupo_1112759" data-name="Grupo 1112759" transform="translate(16.576 5.753)">
            <path id="Trazado_904486" data-name="Trazado 904486" d="M184.978,69.075h2.77L184.9,73.2h2.964" transform="translate(-184.903 -69.075)" fill="none" stroke="#000" stroke-linecap="round" stroke-linejoin="round" stroke-miterlimit="10" stroke-width="1"/>
          </g>
          <g id="Grupo_1112760" data-name="Grupo 1112760" transform="translate(22.9)">
            <path id="Trazado_904487" data-name="Trazado 904487" d="M252.689,7.5h3.746l-3.847,5.578H256.6" transform="translate(-252.588 -7.5)" fill="none" stroke="#000" stroke-linecap="round" stroke-linejoin="round" stroke-miterlimit="10" stroke-width="1"/>
          </g>
          <path id="Trazado_904488" data-name="Trazado 904488" d="M245.29,130.7a8.565,8.565,0,0,0-3.313,1.544,1.027,1.027,0,0,0-.1,1.542l10.642,10.642a1.027,1.027,0,0,0,1.542-.1,8.622,8.622,0,0,0-5.5-13.734" transform="translate(-219.705 -119.089)" fill="none" stroke="#000" stroke-linecap="round" stroke-linejoin="round" stroke-miterlimit="10" stroke-width="1"/>
          <path id="Trazado_904489" data-name="Trazado 904489" d="M10.025,131.95a8.624,8.624,0,0,0-.766,11.318,1.027,1.027,0,0,0,1.542.1l10.642-10.642a1.027,1.027,0,0,0-.1-1.542A8.624,8.624,0,0,0,10.025,131.95Z" transform="translate(-7.5 -118.033)" fill="none" stroke="#000" stroke-linecap="round" stroke-linejoin="round" stroke-miterlimit="10" stroke-width="1"/>
          <g id="Grupo_1112761" data-name="Grupo 1112761" transform="translate(20.793 28.766)">
            <circle id="Elipse_14916" data-name="Elipse 14916" cx="8.835" cy="8.835" r="8.835" fill="none" stroke="#000" stroke-linecap="round" stroke-linejoin="round" stroke-miterlimit="10" stroke-width="1"/>
          </g>
        </g>
      </g>
    </g>
  </g>
</svg>
