<svg xmlns="http://www.w3.org/2000/svg" width="65" height="65" viewBox="0 0 65 65">
  <g id="Grupo_1112889" data-name="Grupo 1112889" transform="translate(-410.051 -4219)">
    <rect id="Rectángulo_405114" data-name="Rectángulo 405114" width="65" height="65" rx="32.5" transform="translate(410.051 4219)" fill="#6896ab"/>
    <g id="Grupo_1112766" data-name="Grupo 1112766" transform="translate(416.994 4224.935)">
      <path id="Trazado_904490" data-name="Trazado 904490" d="M188.452,15.678c-.68-.224-1.211-.369-1.567-1.9a.485.485,0,0,0-.945,0c-.348,1.5-.833,1.658-1.567,1.9a.485.485,0,0,0,0,.921c1.219.4,1.358,1,1.567,1.9a.485.485,0,0,0,.945,0c.347-1.5.859-1.667,1.567-1.9A.486.486,0,0,0,188.452,15.678Z" transform="translate(-148.996 -7.737)"/>
      <path id="Trazado_904491" data-name="Trazado 904491" d="M194.47,24.721a2.4,2.4,0,0,0-.717.81,2.514,2.514,0,0,0-.76-.8,2.4,2.4,0,0,0,.751-.846A2.48,2.48,0,0,0,194.47,24.721Z" transform="translate(-156.315 -16.305)" fill="#f0c020"/>
      <path id="Trazado_904492" data-name="Trazado 904492" d="M50.365,15.678c-.68-.224-1.211-.369-1.567-1.9a.485.485,0,0,0-.945,0c-.348,1.5-.833,1.658-1.567,1.9a.486.486,0,0,0,0,.921c1.219.4,1.358,1,1.567,1.9a.485.485,0,0,0,.945,0c.347-1.5.859-1.667,1.567-1.9A.486.486,0,0,0,50.365,15.678Z" transform="translate(-36.092 -7.737)"/>
      <path id="Trazado_904493" data-name="Trazado 904493" d="M56.384,24.721a2.4,2.4,0,0,0-.717.81,2.514,2.514,0,0,0-.76-.8,2.4,2.4,0,0,0,.751-.846A2.48,2.48,0,0,0,56.384,24.721Z" transform="translate(-43.412 -16.305)" fill="#f0c020"/>
      <path id="Trazado_904494" data-name="Trazado 904494" d="M108.632,144.268v3.987a4.406,4.406,0,0,1-.073.832,4.782,4.782,0,0,1-9.408,0,4.366,4.366,0,0,1-.077-.832v-3.987Z" transform="translate(-79.524 -114.736)" fill="#ffb69f"/>
      <path id="Trazado_904495" data-name="Trazado 904495" d="M90.829,158.368h-.556a1.374,1.374,0,1,1,0-2.749h.48v1.916A4.425,4.425,0,0,0,90.829,158.368Z" transform="translate(-71.202 -124.017)" fill="#ffb69f"/>
      <path id="Trazado_904496" data-name="Trazado 904496" d="M153.015,156.984a1.375,1.375,0,0,1-1.374,1.374h-.558a4.458,4.458,0,0,0,.073-.832v-1.919h.485A1.375,1.375,0,0,1,153.015,156.984Z" transform="translate(-122.047 -124.007)" fill="#ffb69f"/>
      <path id="Trazado_904497" data-name="Trazado 904497" d="M109.23,121.752l-.6.606H99.075v-1.385a2.169,2.169,0,0,1,2.17-2.168H106.4a1.641,1.641,0,0,0,1.612-1.334l.866.592A2.416,2.416,0,0,1,109.23,121.752Z" transform="translate(-79.525 -92.826)" fill="#7c7b7a"/>
      <path id="Trazado_904498" data-name="Trazado 904498" d="M91.524,192.2v4.439H87.768v6.021H75.2v-3.9H71.282v-1.394A5.168,5.168,0,0,1,76.45,192.2Z" transform="translate(-56.801 -153.926)" fill="#72c2e9"/>
      <path id="Trazado_904499" data-name="Trazado 904499" d="M93.988,217.745v4.815H92.782v-6.021A1.2,1.2,0,0,1,93.988,217.745Z" transform="translate(-74.379 -173.827)" fill="#4ba5c8"/>
      <path id="Trazado_904500" data-name="Trazado 904500" d="M182.275,162.972v-9.988a1.961,1.961,0,0,1,3.922,0v7.962a2.026,2.026,0,0,1-2.026,2.026Z" transform="translate(-147.551 -120.26)" fill="#ffb69f"/>
      <path id="Trazado_904501" data-name="Trazado 904501" d="M71.282,228.177H75.2v3.9H71.282Z" transform="translate(-56.801 -183.342)" fill="#ffb69f"/>
      <path id="Trazado_904502" data-name="Trazado 904502" d="M17.346,58.657a7.648,7.648,0,1,0-1.175,11.778l2.78.643-.643-2.78A7.65,7.65,0,0,0,17.346,58.657Z" transform="translate(-2.027 -42.907)" fill="#f0c020"/>
      <path id="Trazado_904503" data-name="Trazado 904503" d="M21.02,78.944a1.661,1.661,0,0,0-1.557-1.09H17.926a1.661,1.661,0,0,0-1.656,1.574h-.963a1.661,1.661,0,0,0-1.656-1.574H12.115a1.66,1.66,0,0,0-1.491.936A1.826,1.826,0,0,0,9,80.6v1.835a1.825,1.825,0,0,0,1.558,1.8,1.661,1.661,0,0,0,1.557,1.09h1.537a1.661,1.661,0,0,0,1.656-1.576h.962a1.661,1.661,0,0,0,1.656,1.576h1.537a1.661,1.661,0,0,0,1.492-.936,1.826,1.826,0,0,0,1.623-1.812V80.746a1.825,1.825,0,0,0-1.558-1.8Z" transform="translate(-5.877 -60.434)" fill="#e8a61e"/>
      <path id="Trazado_904504" data-name="Trazado 904504" d="M170.083,58.657a7.648,7.648,0,1,1,1.175,11.778l-2.78.643.643-2.78A7.65,7.65,0,0,1,170.083,58.657Z" transform="translate(-135.752 -42.907)" fill="#f0c020"/>
      <path id="Trazado_904505" data-name="Trazado 904505" d="M185.045,66.4a1.042,1.042,0,0,1,.257-.128,1.277,1.277,0,1,0-.906-2.387,3.612,3.612,0,0,0-.8.413,2.721,2.721,0,0,0-1.711-.6H181a1.277,1.277,0,0,0-1.277,1.277,3.025,3.025,0,0,0,.291,1.544c-2.077.633-3.145,3.1-2.43,5.726.762,2.791,3.274,4.649,5.566,3.945a.426.426,0,0,1,.247,0c2.289.7,4.8-1.151,5.565-3.945.923-3.381-1.12-6.219-3.92-5.838Z" transform="translate(-143.538 -48.859)" fill="#e8a61e"/>
      <path id="Trazado_904506" data-name="Trazado 904506" d="M197.313,70.7h.88a1.459,1.459,0,0,1,1.459,1.459v.323h-.88a1.459,1.459,0,0,1-1.459-1.459Z" transform="translate(-159.847 -54.583)" fill="#13bf6d"/>
      <path id="Trazado_904507" data-name="Trazado 904507" d="M191.694,85.387a2.946,2.946,0,0,0-2.688,1.1,2.946,2.946,0,0,0-2.688-1.1c-1.529.307-2.321,2.2-1.769,4.22.584,2.138,2.419,3.534,3.959,3.06a1.7,1.7,0,0,1,1,0c1.539.472,3.374-.92,3.959-3.061C194.015,87.583,193.224,85.693,191.694,85.387Z" transform="translate(-149.267 -66.558)" fill="#fc5d3d"/>
      <path id="Trazado_904508" data-name="Trazado 904508" d="M101.841,13.952a7.51,7.51,0,1,0-8.994,7.363l1.484,2.377,1.484-2.377a7.512,7.512,0,0,0,6.026-7.363Z" transform="translate(-69.506 -2.046)" fill="#72c2e9"/>
      <path id="Trazado_904509" data-name="Trazado 904509" d="M26.477,85.923h-.908v-.685a.383.383,0,0,0-.383-.383H23.649a.383.383,0,0,0-.383.383v1.19H19.758v-1.19a.383.383,0,0,0-.383-.383H17.838a.383.383,0,0,0-.383.383v.541h-.908a.547.547,0,0,0-.547.547v1.835a.547.547,0,0,0,.547.547h.908v.685a.383.383,0,0,0,.383.383h1.537a.383.383,0,0,0,.383-.383V88.2h3.507v1.192a.383.383,0,0,0,.383.383h1.537a.383.383,0,0,0,.383-.383v-.541h.908a.547.547,0,0,0,.547-.547V86.47A.547.547,0,0,0,26.477,85.923Z" transform="translate(-11.6 -66.157)" fill="#efefef"/>
      <path id="Trazado_904510" data-name="Trazado 904510" d="M99.469,22.462l-.208.208-.208-.208A3.633,3.633,0,0,0,93.916,27.6l4.442,4.441a1.277,1.277,0,0,0,1.805,0l4.442-4.442a3.633,3.633,0,0,0-5.137-5.137Z" transform="translate(-74.436 -14.274)" fill="#4ba5c8"/>
      <path id="Trazado_904511" data-name="Trazado 904511" d="M109.431,32.424l-4.443,4.443-4.442-4.441a2.356,2.356,0,0,1,0-3.332h0a2.356,2.356,0,0,1,3.332,0l1.11,1.11,1.111-1.111a2.356,2.356,0,1,1,3.332,3.332Z" transform="translate(-80.163 -20.001)" fill="#fc5d3d"/>
      <path id="Trazado_904512" data-name="Trazado 904512" d="M150.192,219.153a.456.456,0,0,1-.456-.456v-.547a.456.456,0,1,1,.912,0v.547A.456.456,0,0,1,150.192,219.153Zm0-2.371a.456.456,0,0,1-.456-.456V214.5a.456.456,0,0,1,.912,0v1.827A.456.456,0,0,1,150.192,216.782Z" transform="translate(-120.947 -171.786)" fill="#c5e5fe"/>
      <path id="Trazado_904513" data-name="Trazado 904513" d="M215.476,98.2a.456.456,0,0,1,.215-.608,1.142,1.142,0,0,0,.307-.233.456.456,0,1,1,.652.638,2.019,2.019,0,0,1-.566.418A.456.456,0,0,1,215.476,98.2Zm1.572-1.681a.456.456,0,0,1-.348-.543,1.686,1.686,0,0,0-.1-1.181.456.456,0,0,1,.776-.479,2.523,2.523,0,0,1,.213,1.854A.456.456,0,0,1,217.048,96.522Z" transform="translate(-174.661 -73.72)" fill="#ffcbc3"/>
      <path id="Trazado_904514" data-name="Trazado 904514" d="M125.633,44.817a.456.456,0,0,1,0-.645l.387-.387a.456.456,0,0,1,.645.645l-.387.387A.456.456,0,0,1,125.633,44.817Zm1.677-1.676a.456.456,0,0,1,0-.645l1.477-1.477a.456.456,0,1,1,.645.645l-1.477,1.477A.456.456,0,0,1,127.309,43.14Z" transform="translate(-101.13 -30.207)" fill="#ffcbc3"/>
      <path id="Trazado_904515" data-name="Trazado 904515" d="M118.819,172.666a.457.457,0,0,0-.268-.587.466.466,0,0,0-.585.268,1.031,1.031,0,0,1-1.93,0,.467.467,0,0,0-.587-.268.456.456,0,0,0-.268.585,1.943,1.943,0,0,0,3.639,0Z" transform="translate(-92.669 -137.453)"/>
      <path id="Trazado_904516" data-name="Trazado 904516" d="M111.5,155.619a.456.456,0,1,0-.912,0v.281a.456.456,0,0,0,.912,0Z" transform="translate(-88.94 -123.644)"/>
      <path id="Trazado_904517" data-name="Trazado 904517" d="M135.433,156.357a.456.456,0,0,0,.456-.456v-.281a.456.456,0,0,0-.912,0v.281A.456.456,0,0,0,135.433,156.357Z" transform="translate(-108.879 -123.645)"/>
      <path id="Trazado_904518" data-name="Trazado 904518" d="M123.239,158.9a.456.456,0,0,0,.456-.456v-1.284a.456.456,0,0,0-.912,0v1.284A.456.456,0,0,0,123.239,158.9Z" transform="translate(-98.909 -124.905)"/>
      <path id="Trazado_904519" data-name="Trazado 904519" d="M68.782,134.223v5.292a.456.456,0,0,0,.912,0v-3.443H72.7v3.443a.456.456,0,1,0,.912,0c0-1.821,0-5.39,0-6.021a.456.456,0,0,0-.912,0v1.666H69.694v-.937a4.717,4.717,0,0,1,4.712-4.712H89.024v3.527h-3.3a.456.456,0,0,0-.456.456v6.021a.456.456,0,0,0,.912,0V133.95h5.2a2.484,2.484,0,0,0,2.481-2.476s0,0,0,0v-2.126a.456.456,0,0,0-.912,0v2.125a1.571,1.571,0,0,1-1.57,1.57h-1.44v-9.531a1.5,1.5,0,0,1,3.01,0V125.7a.456.456,0,0,0,.912,0v-2.188s0,0,0,0a2.417,2.417,0,0,0-4.833,0V128.6H82.112a4.916,4.916,0,0,0,2.05-3.011,1.836,1.836,0,1,0,.188-3.663H84.32V120.5l.466-.473a2.872,2.872,0,0,0-.421-4.386l-.866-.592a.456.456,0,0,0-.705.291,1.186,1.186,0,0,1-1.164.964H78.9a.456.456,0,0,0,0,.912H81.64a2.1,2.1,0,0,0,1.826-1.084l.384.263a1.96,1.96,0,0,1,.286,2.992l-.463.471H74.762v-.929a1.708,1.708,0,0,1,.8-1.449.456.456,0,0,0,.144-.629.469.469,0,0,0-.629-.142,2.607,2.607,0,0,0-1.226,2.232v2.988h-.024a1.835,1.835,0,1,0,.187,3.661,4.95,4.95,0,0,0,2.041,3.011H74.406a5.63,5.63,0,0,0-5.624,5.624Zm15.539-11.386a.92.92,0,1,1-.013,1.839c0-.067.013-.331.013-.376v-1.463Zm-11.415.921a.921.921,0,0,1,.945-.919V124.3c0,.118.007.273.014.376A.922.922,0,0,1,72.906,123.757Zm1.857.542c0-3.06,0-.731,0-3.531h8.646V124.3a4.323,4.323,0,0,1-8.645,0Z" transform="translate(-54.756 -90.781)"/>
      <circle id="Elipse_14917" data-name="Elipse 14917" cx="0.456" cy="0.456" r="0.456" transform="translate(38.19 36.282)"/>
      <circle id="Elipse_14918" data-name="Elipse 14918" cx="0.456" cy="0.456" r="0.456" transform="translate(21.867 25.524)"/>
      <path id="Trazado_904520" data-name="Trazado 904520" d="M9.923,70.137A8.061,8.061,0,0,0,14.23,68.9l2.592.6a.456.456,0,0,0,.547-.547l-.6-2.592a8.111,8.111,0,1,0-6.847,3.781Zm-5.1-13.185A7.192,7.192,0,0,1,15.9,66.017a.455.455,0,0,0-.065.355l.478,2.069-2.069-.478a.456.456,0,0,0-.355.065A7.192,7.192,0,0,1,4.826,56.952Z" transform="translate(0 -40.879)"/>
      <path id="Trazado_904521" data-name="Trazado 904521" d="M166.605,66.356l-.6,2.592a.456.456,0,0,0,.547.547l2.592-.6a8.1,8.1,0,1,0-2.54-2.54Zm1.773-9.4a7.192,7.192,0,1,1,1.105,11.076.455.455,0,0,0-.355-.065l-2.069.478.478-2.069a.457.457,0,0,0-.065-.355A7.207,7.207,0,0,1,168.378,56.953Z" transform="translate(-133.725 -40.88)"/>
      <path id="Trazado_904522" data-name="Trazado 904522" d="M186.593,79.083a1.249,1.249,0,0,1,.728,0c1.831.562,3.893-1.034,4.533-3.376.634-2.323-.349-4.432-2.119-4.787a3.071,3.071,0,0,0-2.322.548v-.48a1.911,1.911,0,0,1,1.29-1.8.456.456,0,1,0-.311-.857,2.805,2.805,0,0,0-1.188.8,1.914,1.914,0,0,0-1.641-.933h-.88a.456.456,0,0,0-.456.456v.323a1.917,1.917,0,0,0,1.915,1.915h.362c0,.032,0,.065,0,.1v.48a3.071,3.071,0,0,0-2.322-.548c-1.773.355-2.752,2.467-2.119,4.787C182.7,78.057,184.766,79.644,186.593,79.083Zm-1.445-9.973h.415a1,1,0,0,1,.994.87h-.415A1,1,0,0,1,185.148,69.11Zm-.79,2.7a2.534,2.534,0,0,1,2.26.961.457.457,0,0,0,.677,0,2.507,2.507,0,0,1,2.26-.961c1.275.256,1.892,1.92,1.419,3.652-.519,1.9-2.116,3.135-3.385,2.745a2.145,2.145,0,0,0-1.264,0c-1.271.39-2.867-.845-3.385-2.745C182.466,73.735,183.083,72.07,184.358,71.814Z" transform="translate(-147.217 -52.539)"/>
      <path id="Trazado_904523" data-name="Trazado 904523" d="M90.517,19.674,91.9,21.887a.456.456,0,0,0,.773,0l1.382-2.213A7.966,7.966,0,0,0,92.291,3.941h-.006a7.954,7.954,0,0,0-2.657.454.456.456,0,0,0,.3.859,7.037,7.037,0,0,1,2.349-.4h0A7.054,7.054,0,0,1,93.68,18.822a.455.455,0,0,0-.3.206l-1.1,1.758-1.1-1.758a.455.455,0,0,0-.3-.206,7.069,7.069,0,0,1-5.659-6.915s0,0,0,0A7.035,7.035,0,0,1,87.1,7.122a.451.451,0,0,0-.026-.644.468.468,0,0,0-.644.026,7.934,7.934,0,0,0-2.112,5.4s0,0,0,0A7.986,7.986,0,0,0,90.517,19.674Z" transform="translate(-67.46 0)"/>
      <path id="Trazado_904524" data-name="Trazado 904524" d="M103.541,11.586a.455.455,0,0,0,.129-.631.466.466,0,0,0-.629-.131,0,0,0,0,0,0,0,.455.455,0,0,0,.5.76Z" transform="translate(-82.599 -5.571)"/>
      <path id="Trazado_904525" data-name="Trazado 904525" d="M98.177,30.7l4.442,4.441a.456.456,0,0,0,.645,0l4.442-4.443a2.812,2.812,0,0,0-3.977-3.977l-.788.788-.788-.788A2.812,2.812,0,0,0,98.177,30.7Zm.645-3.333a1.9,1.9,0,0,1,2.687,0l1.11,1.11a.456.456,0,0,0,.645,0l1.111-1.111a1.9,1.9,0,0,1,2.687,2.687l-4.12,4.12-4.12-4.119a1.9,1.9,0,0,1,0-2.688Z" transform="translate(-78.116 -17.956)"/>
      <g id="Grupo_1112765" data-name="Grupo 1112765" transform="translate(4.4 18.697)">
        <path id="Trazado_904526" data-name="Trazado 904526" d="M36.608,93.483h3.507v1.773H36.608Z" transform="translate(-32.85 -91.909)" fill="#efefef"/>
        <path id="Trazado_904527" data-name="Trazado 904527" d="M26.281,85.237v4.156a.383.383,0,0,1-.383.383H24.361a.383.383,0,0,1-.383-.383V85.237a.383.383,0,0,1,.383-.383H25.9A.383.383,0,0,1,26.281,85.237Z" transform="translate(-22.523 -84.854)" fill="#efefef"/>
        <path id="Trazado_904528" data-name="Trazado 904528" d="M17.455,92.852h-.908A.547.547,0,0,1,16,92.305V90.47a.547.547,0,0,1,.547-.547h.908Z" transform="translate(-16 -88.999)" fill="#efefef"/>
        <path id="Trazado_904529" data-name="Trazado 904529" d="M55.839,89.393V85.237a.383.383,0,0,1,.383-.383h1.537a.383.383,0,0,1,.383.383v4.156a.383.383,0,0,1-.383.383H56.222A.383.383,0,0,1,55.839,89.393Z" transform="translate(-48.573 -84.854)" fill="#efefef"/>
        <path id="Trazado_904530" data-name="Trazado 904530" d="M68.47,90.714h.908a.547.547,0,0,1,.547.547V93.1a.547.547,0,0,1-.547.547H68.47Z" transform="translate(-58.901 -89.645)" fill="#efefef"/>
      </g>
      <path id="Trazado_904531" data-name="Trazado 904531" d="M24.433,83.424h-.452v-.229a.84.84,0,0,0-.839-.839H21.6a.84.84,0,0,0-.839.839v.734h-2.6v-.734a.84.84,0,0,0-.839-.839H15.794a.84.84,0,0,0-.839.839v.085H14.5a1,1,0,0,0-1,1v1.835a1,1,0,0,0,1,1h.452v.229a.84.84,0,0,0,.839.839h1.537a.84.84,0,0,0,.839-.839v-.736h2.6v.736a.84.84,0,0,0,.839.839h1.537a.84.84,0,0,0,.839-.839v-.085h.452a1,1,0,0,0,1-1V84.427a1,1,0,0,0-1-1ZM14.5,86.209a.091.091,0,0,1-.091-.091V84.282a.091.091,0,0,1,.091-.091h.452v2.018H14.5Zm2.755,1.069H15.867v-4.01h1.392ZM18.17,85.7v-.861h2.6V85.7Zm4.9,1.576H21.677v-4.01h1.392Zm1.455-1.016a.091.091,0,0,1-.091.091h-.452V84.335h.452a.091.091,0,0,1,.091.091v1.835Z" transform="translate(-9.556 -64.114)"/>
    </g>
  </g>
</svg>
