<svg xmlns="http://www.w3.org/2000/svg" xmlns:xlink="http://www.w3.org/1999/xlink" width="108.914" height="108.914" viewBox="0 0 108.914 108.914">
  <defs>
    <filter id="Trazado_874925" x="0" y="0" width="108.914" height="108.914" filterUnits="userSpaceOnUse">
      <feOffset dy="3" input="SourceAlpha"/>
      <feGaussianBlur stdDeviation="3" result="blur"/>
      <feFlood flood-opacity="0.161"/>
      <feComposite operator="in" in2="blur"/>
      <feComposite in="SourceGraphic"/>
    </filter>
    <clipPath id="clip-path">
      <path id="path1503" d="M0-682.665H60v60H0Z" transform="translate(0 682.665)"/>
    </clipPath>
  </defs>
  <g id="Grupo_1112868" data-name="Grupo 1112868" transform="translate(6918 8860)">
    <g transform="matrix(1, 0, 0, 1, -6918, -8860)" filter="url(#Trazado_874925)">
      <g id="Trazado_874925-2" data-name="Trazado 874925" transform="translate(9 6)" fill="#f6d530" opacity="0.859">
        <path d="M 45.45676803588867 89.41407012939453 C 39.52198028564453 89.41407012939453 33.76551818847656 88.25206756591797 28.34726715087891 85.96034240722656 C 23.11311721801758 83.74648284912109 18.41204261779785 80.57682800292969 14.37464332580566 76.5394287109375 C 10.33724308013916 72.50202941894531 7.167593002319336 67.80095672607422 4.953730583190918 62.56679534912109 C 2.662005424499512 57.14855575561523 1.500005483627319 51.39208221435547 1.500005483627319 45.45729446411133 C 1.500005483627319 39.52198028564453 2.662005424499512 33.76551818847656 4.953730583190918 28.34726905822754 C 7.167593002319336 23.11310577392578 10.33724308013916 18.41203117370605 14.37464332580566 14.37464332580566 C 18.41204261779785 10.33724403381348 23.11311721801758 7.167593955993652 28.34726715087891 4.953731060028076 C 33.76551818847656 2.662006139755249 39.52198028564453 1.500006198883057 45.45676803588867 1.500006198883057 C 51.39155578613281 1.500006198883057 57.14802932739258 2.662006139755249 62.56626892089844 4.953731060028076 C 67.80043029785156 7.167593955993652 72.50150299072266 10.33724403381348 76.53890228271484 14.37464332580566 C 80.57630920410156 18.41203117370605 83.74595642089844 23.11310577392578 85.95981597900391 28.34726905822754 C 88.25154113769531 33.76551818847656 89.41354370117188 39.52198028564453 89.41354370117188 45.45676803588867 C 89.41354370117188 51.39208221435547 88.25154113769531 57.14855575561523 85.95981597900391 62.56679534912109 C 83.74595642089844 67.80095672607422 80.57630920410156 72.50202941894531 76.53890228271484 76.5394287109375 C 72.50150299072266 80.57682800292969 67.80043029785156 83.74648284912109 62.56626892089844 85.96034240722656 C 57.14802932739258 88.25206756591797 51.39155578613281 89.41407012939453 45.45676803588867 89.41407012939453 Z" stroke="none"/>
        <path d="M 45.45676803588867 3 C 39.72381210327148 3 34.1639404296875 4.12213134765625 28.93159484863281 6.335227966308594 C 23.87622833251953 8.473472595214844 19.33542633056641 11.53517150878906 15.43529510498047 15.435302734375 C 11.53517150878906 19.33543395996094 8.473464965820312 23.87622833251953 6.335227966308594 28.93160247802734 C 4.122123718261719 34.16394424438477 3 39.72381591796875 3 45.4572868347168 C 3 51.19024658203125 4.122123718261719 56.75011825561523 6.335227966308594 61.98246002197266 C 8.473464965820312 67.03782653808594 11.53517150878906 71.57862854003906 15.43529510498047 75.478759765625 C 19.33542633056641 79.37889099121094 23.87622833251953 82.44058990478516 28.93159484863281 84.57883453369141 C 34.1639404296875 86.79193115234375 39.72381210327148 87.9140625 45.45676803588867 87.9140625 C 51.18972396850586 87.9140625 56.74959564208984 86.79193115234375 61.98194122314453 84.57883453369141 C 67.03730773925781 82.44058990478516 71.57810974121094 79.37889099121094 75.47824096679688 75.478759765625 C 79.37837219238281 71.57862854003906 82.44007110595703 67.03782653808594 84.57830810546875 61.98246002197266 C 86.79141235351562 56.75011825561523 87.91353607177734 51.19024658203125 87.91353607177734 45.4567756652832 C 87.91353607177734 39.72381591796875 86.79141235351562 34.16394424438477 84.57830810546875 28.93160247802734 C 82.44007110595703 23.87622833251953 79.37837219238281 19.33543395996094 75.47824096679688 15.435302734375 C 71.57810974121094 11.53517150878906 67.03730773925781 8.473472595214844 61.98194122314453 6.335227966308594 C 56.74959564208984 4.12213134765625 51.18972396850586 3 45.45676803588867 3 M 45.45676803588867 0 C 70.56185150146484 0 90.91353607177734 20.35169219970703 90.91353607177734 45.4567756652832 L 90.91353607177734 45.4572868347168 C 90.91353607177734 70.5623779296875 70.56185150146484 90.9140625 45.45676803588867 90.9140625 C 20.3516845703125 90.9140625 0 70.5623779296875 0 45.4572868347168 L 0 45.4567756652832 C 0 20.35169219970703 20.3516845703125 0 45.45676803588867 0 Z" stroke="none" fill="#fff"/>
      </g>
    </g>
    <g id="g1497" transform="translate(-6894 -8155.335)">
      <g id="g1499" transform="translate(0 -682.665)">
        <g id="g1501" clip-path="url(#clip-path)">
          <g id="g1507" transform="translate(12.964 0.879)">
            <path id="path1509" d="M-51.358-144.861c-1.452,0-4.421-1.669-4.6-4.078l-.337-4.569a4.949,4.949,0,0,1,4.935-5.312,4.948,4.948,0,0,1,4.935,5.312l-.336,4.569c-.177,2.409-3.147,4.078-4.6,4.078" transform="translate(56.307 158.82)" fill="#ffdecf"/>
          </g>
          <g id="g1511" transform="translate(15.003 0.972)">
            <path id="path1513" d="M-40.167,0a4.936,4.936,0,0,1,1.631,4.047l-.337,4.569c-.177,2.409-3.147,4.078-4.6,4.078a2.715,2.715,0,0,1-.566-.067,5.294,5.294,0,0,0,2.91,1.239c1.452,0,4.421-1.669,4.6-4.078l.337-4.569A4.95,4.95,0,0,0-40.167,0" transform="translate(44.037)" fill="#ffcdbe"/>
          </g>
          <path id="path1515" d="M149.128-298.218H137.468v10.05h11.661Z" transform="translate(-125.386 332.007)" fill="#24d3b5"/>
          <g id="g1517" transform="translate(12.964 0.879)">
            <path id="path1519" d="M-51.358,0a4.949,4.949,0,0,0-4.935,5.312l.179,2.425a1.718,1.718,0,0,0,1.474-1.454l.242-1.661a.428.428,0,0,1,.655-.3,4.41,4.41,0,0,0,4.773,0,.428.428,0,0,1,.655.3l.242,1.661A1.718,1.718,0,0,0-46.6,7.737l.179-2.425A4.948,4.948,0,0,0-51.358,0" transform="translate(56.307)" fill="#c38778"/>
          </g>
          <g id="g1521" transform="translate(18.873 0.972)">
            <path id="path1523" d="M0,0A4.936,4.936,0,0,1,1.631,4.047l-.009.116a.428.428,0,0,1,.458.365L2.322,6.19A1.718,1.718,0,0,0,3.8,7.644l.179-2.425A4.95,4.95,0,0,0,0,0" fill="#b46e5a"/>
          </g>
          <g id="g1525" transform="translate(10.695 43.839)">
            <path id="path1527" d="M-20.808,0V11.917h-1.149a.856.856,0,0,0-.856.856v2.122a.386.386,0,0,0,.386.386H-15.6V0Z" transform="translate(22.813)" fill="#ffdecf"/>
          </g>
          <g id="g1529" transform="translate(17.912 43.839)">
            <path id="path1531" d="M-54.09,0V11.917h1.149a.856.856,0,0,1,.856.856v2.122a.386.386,0,0,1-.386.386H-59.3V0Z" transform="translate(59.303)" fill="#ffcdbe"/>
          </g>
          <g id="g1533" transform="translate(7.769 13.887)">
            <path id="path1535" d="M-145.581-22.173h-.94a.4.4,0,0,1-.425-.4v-1.735a4.991,4.991,0,0,1-2.52.95,4.991,4.991,0,0,1-2.52-.95v1.735a.4.4,0,0,1-.425.4H-155.3a4.313,4.313,0,0,0-4.313,4.313V.5a1.225,1.225,0,0,0,1.225,1.225h1.862A1.225,1.225,0,0,0-155.3.5V-4.407h11.661V-15.8a.084.084,0,0,1,.156-.042l7.053,12.216a1.225,1.225,0,0,0,1.674.448l1.613-.931a1.225,1.225,0,0,0,.449-1.674l-7.753-13.428a5.932,5.932,0,0,0-5.137-2.966" transform="translate(159.609 24.309)" fill="#ffdecf"/>
          </g>
          <g id="g1537" transform="translate(23.114 16.172)">
            <path id="path1539" d="M-120.1-168.6l-7.753-13.428a5.933,5.933,0,0,0-3.821-2.818q.163.229.3.475l7.753,13.428a1.225,1.225,0,0,1-.448,1.674l-1.052.607,1.281,2.219a1.225,1.225,0,0,0,1.674.448l1.613-.931a1.225,1.225,0,0,0,.448-1.674" transform="translate(131.677 184.846)" fill="#ffcdbe"/>
          </g>
          <g id="g1541" transform="translate(41.72 18.562)">
            <path id="path1543" d="M-35.764-100.879c1.011,0,3.079-1.162,3.2-2.84l.234-3.182a3.446,3.446,0,0,0-3.437-3.7,3.446,3.446,0,0,0-3.437,3.7l.234,3.182c.124,1.677,2.191,2.84,3.2,2.84" transform="translate(39.211 110.6)" fill="#ffdecf"/>
          </g>
          <g id="g1545" transform="translate(42.796 18.571)">
            <path id="path1547" d="M-27.226,0a3.431,3.431,0,0,1,.84,2.518L-26.62,5.7c-.124,1.677-2.191,2.84-3.2,2.84h-.026a3.882,3.882,0,0,0,2.37,1.172c1.011,0,3.079-1.162,3.2-2.84l.234-3.182A3.446,3.446,0,0,0-27.226,0" transform="translate(29.849)" fill="#ffcdbe"/>
          </g>
          <path id="path1549" d="M467.7-210.71h8.12v7H467.7Z" transform="translate(-426.598 252.19)" fill="#93dcfc"/>
          <g id="g1551" transform="translate(45.167 48.479)">
            <path id="path1553" d="M-37.668,0V8.3h.8a.6.6,0,0,1,.6.6v1.478a.269.269,0,0,1-.269.269H-41.3V0Z" transform="translate(41.297)" fill="#ffcdbe"/>
          </g>
          <g id="g1555" transform="translate(40.141 48.479)">
            <path id="path1557" d="M-14.49,0V8.3h-.8a.6.6,0,0,0-.6.6v1.478a.269.269,0,0,0,.269.269h4.757V0Z" transform="translate(15.887)" fill="#ffdecf"/>
          </g>
          <g id="g1559" transform="translate(32.568 27.621)">
            <path id="path1561" d="M-172.888-15.44h-2.01a.3.3,0,0,1-.3-.3v-1.192a3.476,3.476,0,0,1-1.755.662,3.475,3.475,0,0,1-1.755-.662v1.192a.3.3,0,0,1-.3.3h-.875a3.749,3.749,0,0,0-3.247,1.875l-1.462,2.531a.812.812,0,0,1-1.11.3l-1.578-.911a1.226,1.226,0,0,1-.606,1.191l-1.613.931-.058.032,3.057,1.765a3,3,0,0,0,4.1-1.1l1.107-1.918a.146.146,0,0,1,.272.073v7.606h8.12V.351a.853.853,0,0,0,.853.853h1.3a.853.853,0,0,0,.853-.853V-12.437a3,3,0,0,0-3-3" transform="translate(189.548 16.928)" fill="#ffdecf"/>
          </g>
          <g id="g1563" transform="translate(12.964 0.879)">
            <path id="path1565" d="M-51.358-144.861c-1.452,0-4.421-1.669-4.6-4.078l-.337-4.569a4.949,4.949,0,0,1,4.935-5.312,4.948,4.948,0,0,1,4.935,5.312l-.336,4.569C-46.937-146.53-49.907-144.861-51.358-144.861Z" transform="translate(56.307 158.82)" fill="none" stroke="#000" stroke-linecap="round" stroke-linejoin="round" stroke-miterlimit="10" stroke-width="2"/>
          </g>
          <path id="path1567" d="M149.128-298.218H137.468v10.05h11.661Z" transform="translate(-125.386 332.007)" fill="none" stroke="#000" stroke-linecap="round" stroke-linejoin="round" stroke-miterlimit="10" stroke-width="2"/>
          <g id="g1569" transform="translate(13.156 5.134)">
            <path id="path1571" d="M0-36.135a1.718,1.718,0,0,0,1.474-1.454l.242-1.661a.428.428,0,0,1,.655-.3,4.41,4.41,0,0,0,4.773,0,.428.428,0,0,1,.655.3l.242,1.661a1.718,1.718,0,0,0,1.473,1.454" transform="translate(0 39.617)" fill="none" stroke="#000" stroke-linecap="round" stroke-linejoin="round" stroke-miterlimit="10" stroke-width="2"/>
          </g>
          <g id="g1573" transform="translate(17.912 38.207)">
            <path id="path1575" d="M0-58.455v-5.633" transform="translate(0 64.088)" fill="none" stroke="#000" stroke-linecap="round" stroke-linejoin="round" stroke-miterlimit="10" stroke-width="2"/>
          </g>
          <g id="g1577" transform="translate(10.695 43.839)">
            <path id="path1579" d="M-20.808,0V11.917h-1.149a.856.856,0,0,0-.856.856v2.122a.386.386,0,0,0,.386.386H-15.6V0Z" transform="translate(22.813)" fill="none" stroke="#000" stroke-linecap="round" stroke-linejoin="round" stroke-miterlimit="10" stroke-width="2"/>
          </g>
          <g id="g1581" transform="translate(17.912 43.839)">
            <path id="path1583" d="M-54.09-70.36v5.137h1.149a.856.856,0,0,1,.856.856v2.122a.386.386,0,0,1-.386.386H-59.3V-77.14h5.212v2.678" transform="translate(59.303 77.14)" fill="none" stroke="#000" stroke-linecap="round" stroke-linejoin="round" stroke-miterlimit="10" stroke-width="2"/>
          </g>
          <g id="g1585" transform="translate(12.7 55.756)">
            <path id="path1587" d="M0,0H1.6" fill="none" stroke="#000" stroke-linecap="round" stroke-linejoin="round" stroke-miterlimit="10" stroke-width="2"/>
          </g>
          <g id="g1589" transform="translate(21.521 55.756)">
            <path id="path1591" d="M0,0H1.6" fill="none" stroke="#000" stroke-linecap="round" stroke-linejoin="round" stroke-miterlimit="10" stroke-width="2"/>
          </g>
          <g id="g1593" transform="translate(15.573 36.278)">
            <path id="path1595" d="M0,0V2.9" fill="none" stroke="#000" stroke-linecap="round" stroke-linejoin="round" stroke-miterlimit="10" stroke-width="2"/>
          </g>
          <g id="g1597" transform="translate(20.252 36.278)">
            <path id="path1599" d="M0,0V2.9" fill="none" stroke="#000" stroke-linecap="round" stroke-linejoin="round" stroke-miterlimit="10" stroke-width="2"/>
          </g>
          <g id="g1601" transform="translate(7.769 13.887)">
            <path id="path1603" d="M0-233.9v2.275A1.225,1.225,0,0,0,1.225-230.4H3.088a1.225,1.225,0,0,0,1.225-1.225v-4.912H15.974v-11.389a.084.084,0,0,1,.156-.042l7.053,12.216a1.225,1.225,0,0,0,1.674.448l1.613-.931a1.225,1.225,0,0,0,.448-1.674l-7.753-13.428a5.932,5.932,0,0,0-5.137-2.966h-.94a.4.4,0,0,1-.425-.4v-1.735" transform="translate(0 256.435)" fill="none" stroke="#000" stroke-linecap="round" stroke-linejoin="round" stroke-miterlimit="10" stroke-width="2"/>
          </g>
          <g id="g1605" transform="translate(7.769 13.887)">
            <path id="path1607" d="M-79.113,0V1.735a.4.4,0,0,1-.425.4h-2.886a4.313,4.313,0,0,0-4.313,4.313V18.437" transform="translate(86.736)" fill="none" stroke="#000" stroke-linecap="round" stroke-linejoin="round" stroke-miterlimit="10" stroke-width="2"/>
          </g>
          <g id="g1609" transform="translate(41.72 18.562)">
            <path id="path1611" d="M-35.764-100.879c1.011,0,3.079-1.162,3.2-2.84l.234-3.182a3.446,3.446,0,0,0-3.437-3.7,3.446,3.446,0,0,0-3.437,3.7l.234,3.182C-38.843-102.042-36.775-100.879-35.764-100.879Z" transform="translate(39.211 110.6)" fill="none" stroke="#000" stroke-linecap="round" stroke-linejoin="round" stroke-miterlimit="10" stroke-width="2"/>
          </g>
          <path id="path1613" d="M467.7-210.71h8.12v7H467.7Z" transform="translate(-426.598 252.19)" fill="none" stroke="#000" stroke-linecap="round" stroke-linejoin="round" stroke-miterlimit="10" stroke-width="2"/>
          <g id="g1615" transform="translate(45.167 44.557)">
            <path id="path1617" d="M0-40.707v-3.922" transform="translate(0 44.629)" fill="none" stroke="#000" stroke-linecap="round" stroke-linejoin="round" stroke-miterlimit="10" stroke-width="2"/>
          </g>
          <g id="g1619" transform="translate(45.167 48.479)">
            <path id="path1621" d="M-37.668,0V8.3h.8a.6.6,0,0,1,.6.6v1.478a.269.269,0,0,1-.269.269H-41.3V0Z" transform="translate(41.297)" fill="none" stroke="#000" stroke-linecap="round" stroke-linejoin="round" stroke-miterlimit="10" stroke-width="2"/>
          </g>
          <g id="g1623" transform="translate(40.141 48.479)">
            <path id="path1625" d="M-14.49,0V8.3h-.8a.6.6,0,0,0-.6.6v1.478a.269.269,0,0,0,.269.269h4.757V0Z" transform="translate(15.887)" fill="none" stroke="#000" stroke-linecap="round" stroke-linejoin="round" stroke-miterlimit="10" stroke-width="2"/>
          </g>
          <g id="g1627" transform="translate(47.68 56.778)">
            <path id="path1629" d="M-11.589,0h-1.117" transform="translate(12.705)" fill="none" stroke="#000" stroke-linecap="round" stroke-linejoin="round" stroke-miterlimit="10" stroke-width="2"/>
          </g>
          <g id="g1631" transform="translate(41.537 56.778)">
            <path id="path1633" d="M-11.589,0h-1.117" transform="translate(12.705)" fill="none" stroke="#000" stroke-linecap="round" stroke-linejoin="round" stroke-miterlimit="10" stroke-width="2"/>
          </g>
          <g id="g1635" transform="translate(49.227 33.789)">
            <path id="path1637" d="M0-79.817v-7.691" transform="translate(0 87.508)" fill="none" stroke="#000" stroke-linecap="round" stroke-linejoin="round" stroke-miterlimit="10" stroke-width="2"/>
          </g>
          <g id="g1639" transform="translate(12.082 22.4)">
            <path id="path1641" d="M0-118.195v-11.389" transform="translate(0 129.584)" fill="none" stroke="#000" stroke-linecap="round" stroke-linejoin="round" stroke-miterlimit="10" stroke-width="2"/>
          </g>
          <g id="g1643" transform="translate(46.922 27.621)">
            <path id="path1645" d="M-55.093-57.605v-1.06a3,3,0,0,0-3-3h-2.009a.3.3,0,0,1-.3-.3v-1.192" transform="translate(60.401 63.156)" fill="none" stroke="#000" stroke-linecap="round" stroke-linejoin="round" stroke-miterlimit="10" stroke-width="2"/>
          </g>
          <g id="g1647" transform="translate(32.568 27.621)">
            <path id="path1649" d="M-112.54,0V1.192a.3.3,0,0,1-.3.3h-.875a3.749,3.749,0,0,0-3.247,1.875l-1.462,2.531a.812.812,0,0,1-1.11.3l-1.578-.911a1.226,1.226,0,0,1-.606,1.191l-1.613.931-.058.032,3.057,1.765a3,3,0,0,0,4.1-1.1l1.107-1.918a.146.146,0,0,1,.272.073v7.606h8.12V17.28a.853.853,0,0,0,.853.853h1.3a.853.853,0,0,0,.853-.853V9.652" transform="translate(123.384)" fill="none" stroke="#000" stroke-linecap="round" stroke-linejoin="round" stroke-miterlimit="10" stroke-width="2"/>
          </g>
        </g>
      </g>
    </g>
  </g>
</svg>
