<svg xmlns="http://www.w3.org/2000/svg" xmlns:xlink="http://www.w3.org/1999/xlink" width="108.914" height="108.914" viewBox="0 0 108.914 108.914">
  <defs>
    <filter id="Trazado_874925" x="0" y="0" width="108.914" height="108.914" filterUnits="userSpaceOnUse">
      <feOffset dy="3" input="SourceAlpha"/>
      <feGaussianBlur stdDeviation="3" result="blur"/>
      <feFlood flood-opacity="0.161"/>
      <feComposite operator="in" in2="blur"/>
      <feComposite in="SourceGraphic"/>
    </filter>
  </defs>
  <g id="Grupo_1112871" data-name="Grupo 1112871" transform="translate(5871 8860)">
    <g transform="matrix(1, 0, 0, 1, -5871, -8860)" filter="url(#Trazado_874925)">
      <g id="Trazado_874925-2" data-name="Trazado 874925" transform="translate(9 6)" fill="#f6d530" opacity="0.859">
        <path d="M 45.45676803588867 89.41407012939453 C 39.52198028564453 89.41407012939453 33.76551818847656 88.25206756591797 28.34726715087891 85.96034240722656 C 23.11311721801758 83.74648284912109 18.41204261779785 80.57682800292969 14.37464332580566 76.5394287109375 C 10.33724308013916 72.50202941894531 7.167593002319336 67.80095672607422 4.953730583190918 62.56679534912109 C 2.662005424499512 57.14855575561523 1.500005483627319 51.39208221435547 1.500005483627319 45.45729446411133 C 1.500005483627319 39.52198028564453 2.662005424499512 33.76551818847656 4.953730583190918 28.34726905822754 C 7.167593002319336 23.11310577392578 10.33724308013916 18.41203117370605 14.37464332580566 14.37464332580566 C 18.41204261779785 10.33724403381348 23.11311721801758 7.167593955993652 28.34726715087891 4.953731060028076 C 33.76551818847656 2.662006139755249 39.52198028564453 1.500006198883057 45.45676803588867 1.500006198883057 C 51.39155578613281 1.500006198883057 57.14802932739258 2.662006139755249 62.56626892089844 4.953731060028076 C 67.80043029785156 7.167593955993652 72.50150299072266 10.33724403381348 76.53890228271484 14.37464332580566 C 80.57630920410156 18.41203117370605 83.74595642089844 23.11310577392578 85.95981597900391 28.34726905822754 C 88.25154113769531 33.76551818847656 89.41354370117188 39.52198028564453 89.41354370117188 45.45676803588867 C 89.41354370117188 51.39208221435547 88.25154113769531 57.14855575561523 85.95981597900391 62.56679534912109 C 83.74595642089844 67.80095672607422 80.57630920410156 72.50202941894531 76.53890228271484 76.5394287109375 C 72.50150299072266 80.57682800292969 67.80043029785156 83.74648284912109 62.56626892089844 85.96034240722656 C 57.14802932739258 88.25206756591797 51.39155578613281 89.41407012939453 45.45676803588867 89.41407012939453 Z" stroke="none"/>
        <path d="M 45.45676803588867 3 C 39.72381210327148 3 34.1639404296875 4.12213134765625 28.93159484863281 6.335227966308594 C 23.87622833251953 8.473472595214844 19.33542633056641 11.53517150878906 15.43529510498047 15.435302734375 C 11.53517150878906 19.33543395996094 8.473464965820312 23.87622833251953 6.335227966308594 28.93160247802734 C 4.122123718261719 34.16394424438477 3 39.72381591796875 3 45.4572868347168 C 3 51.19024658203125 4.122123718261719 56.75011825561523 6.335227966308594 61.98246002197266 C 8.473464965820312 67.03782653808594 11.53517150878906 71.57862854003906 15.43529510498047 75.478759765625 C 19.33542633056641 79.37889099121094 23.87622833251953 82.44058990478516 28.93159484863281 84.57883453369141 C 34.1639404296875 86.79193115234375 39.72381210327148 87.9140625 45.45676803588867 87.9140625 C 51.18972396850586 87.9140625 56.74959564208984 86.79193115234375 61.98194122314453 84.57883453369141 C 67.03730773925781 82.44058990478516 71.57810974121094 79.37889099121094 75.47824096679688 75.478759765625 C 79.37837219238281 71.57862854003906 82.44007110595703 67.03782653808594 84.57830810546875 61.98246002197266 C 86.79141235351562 56.75011825561523 87.91353607177734 51.19024658203125 87.91353607177734 45.4567756652832 C 87.91353607177734 39.72381591796875 86.79141235351562 34.16394424438477 84.57830810546875 28.93160247802734 C 82.44007110595703 23.87622833251953 79.37837219238281 19.33543395996094 75.47824096679688 15.435302734375 C 71.57810974121094 11.53517150878906 67.03730773925781 8.473472595214844 61.98194122314453 6.335227966308594 C 56.74959564208984 4.12213134765625 51.18972396850586 3 45.45676803588867 3 M 45.45676803588867 0 C 70.56185150146484 0 90.91353607177734 20.35169219970703 90.91353607177734 45.4567756652832 L 90.91353607177734 45.4572868347168 C 90.91353607177734 70.5623779296875 70.56185150146484 90.9140625 45.45676803588867 90.9140625 C 20.3516845703125 90.9140625 0 70.5623779296875 0 45.4572868347168 L 0 45.4567756652832 C 0 20.35169219970703 20.3516845703125 0 45.45676803588867 0 Z" stroke="none" fill="#fff"/>
      </g>
    </g>
    <g id="Grupo_1112537" data-name="Grupo 1112537" transform="translate(-5878.998 -8907)">
      <path id="Trazado_903887" data-name="Trazado 903887" d="M384,192h8.732v2.183H384Z" transform="translate(-303.976 -103.628)" fill="#007af6"/>
      <path id="Trazado_903888" data-name="Trazado 903888" d="M64,96h8.732v2.183H64Z" transform="translate(-27.636 -20.726)" fill="#007af6"/>
      <path id="Trazado_903889" data-name="Trazado 903889" d="M91.647,168.373l-10.915-6.549L78.549,152H72l.783,10.185a10.172,10.172,0,0,0,3.269,6.718L86.19,178.2v15.281h21.83V178.2l5.767,2.622a5,5,0,0,0,7.04-3.971l1.382-11.749H115.66l-1.091,8.732-5.718-4.084a7.373,7.373,0,0,0-4.286-1.373H91.647Z" transform="translate(-34.544 -69.085)" fill="#7a4922"/>
      <path id="Trazado_903890" data-name="Trazado 903890" d="M214.111,272a16.248,16.248,0,0,0,4.274,7.548l1.184,1.184,1.184-1.184A16.248,16.248,0,0,0,225.026,272Z" transform="translate(-157.266 -172.713)" fill="#ecab2c"/>
      <rect id="Rectángulo_405215" data-name="Rectángulo 405215" width="18.01" height="24.013" rx="9.005" transform="translate(53.298 77.457)" fill="#f6bb92"/>
      <path id="Trazado_903891" data-name="Trazado 903891" d="M320.11,192.67h.531v4h-.531Z" transform="translate(-248.803 -104.206)" fill="#dca782"/>
      <g id="Grupo_1112536" data-name="Grupo 1112536" transform="translate(50.296 88.463)">
        <path id="Trazado_903892" data-name="Trazado 903892" d="M184,192.67h.561v4H184Z" transform="translate(-181.559 -192.67)" fill="#f6bb92"/>
        <path id="Trazado_903893" data-name="Trazado 903893" d="M168.111,192.667h1v4h-1a2,2,0,1,1,0-4Z" transform="translate(-166.11 -192.667)" fill="#f6bb92"/>
        <path id="Trazado_903894" data-name="Trazado 903894" d="M2,0H3V4H2A2,2,0,0,1,2,0Z" transform="translate(24.013 4.002) rotate(180)" fill="#f6bb92"/>
      </g>
      <path id="Trazado_903895" data-name="Trazado 903895" d="M164.781,136.066a2.492,2.492,0,0,0-1.363-.712,2.52,2.52,0,0,0-2.826,1.78l-.008.03a5.177,5.177,0,0,1-1.08,2.022,3,3,0,1,0,5.279,2.007,7.205,7.205,0,0,1,.547-2.468,2.5,2.5,0,0,0-.548-2.659Z" transform="translate(-109.483 -54.68)" fill="#d6d5d0"/>
      <path id="Trazado_903896" data-name="Trazado 903896" d="M302.175,137.42a2.5,2.5,0,0,1,4.933-.815l.006.03a5.177,5.177,0,0,0,.916,2.1,3,3,0,1,1-5.422,1.58,7.2,7.2,0,0,0-.349-2.5A2.5,2.5,0,0,1,302.175,137.42Z" transform="translate(-233.296 -54.055)" fill="#d6d5d0"/>
      <rect id="Rectángulo_405216" data-name="Rectángulo 405216" width="5" height="8" rx="2.5" transform="translate(76.559 85.742)" fill="#007af6"/>
      <rect id="Rectángulo_405217" data-name="Rectángulo 405217" width="4" height="8" rx="2" transform="translate(87.559 85.742)" fill="#007af6"/>
      <path id="Trazado_903897" data-name="Trazado 903897" d="M398.549,197.458l-1.091,2.183h-4.366L392,197.458V193.8a1.8,1.8,0,0,1,1.8-1.8h2.95a1.8,1.8,0,0,1,1.8,1.8Z" transform="translate(-310.884 -103.628)" fill="#f6bb92"/>
      <rect id="Rectángulo_405218" data-name="Rectángulo 405218" width="4" height="8" rx="2" transform="translate(33.559 72.742)" fill="#007af6"/>
      <rect id="Rectángulo_405219" data-name="Rectángulo 405219" width="5" height="8" rx="2.5" transform="translate(43.559 72.742)" fill="#007af6"/>
      <path id="Trazado_903898" data-name="Trazado 903898" d="M78.549,101.458l-1.092,2.183H73.092L72,101.458V97.864A1.864,1.864,0,0,1,73.864,96h2.821a1.864,1.864,0,0,1,1.864,1.864v3.593Z" transform="translate(-34.544 -20.726)" fill="#f6bb92"/>
      <path id="Trazado_903899" data-name="Trazado 903899" d="M219.809,185.006a1.438,1.438,0,1,0-1.438-1.438A1.438,1.438,0,0,0,219.809,185.006Z" transform="translate(-160.946 -95.105)"/>
      <path id="Trazado_903900" data-name="Trazado 903900" d="M268.777,183.568a1.438,1.438,0,1,0,1.438-1.438,1.438,1.438,0,0,0-1.438,1.438Z" transform="translate(-204.474 -95.105)"/>
      <path id="Trazado_903901" data-name="Trazado 903901" d="M236.048,214.114a3.4,3.4,0,0,1-3.026,0,1.092,1.092,0,0,0-.976,1.952,5.593,5.593,0,0,0,4.979,0,1.092,1.092,0,1,0-.976-1.952Z" transform="translate(-172.233 -122.625)"/>
      <path id="Trazado_903902" data-name="Trazado 903902" d="M241.87,157.516a1.091,1.091,0,1,0,0-2.183h-2a1.091,1.091,0,1,0,0,2.183Z" transform="translate(-178.567 -71.963)"/>
      <path id="Trazado_903903" data-name="Trazado 903903" d="M232.536,135.516h4a1.091,1.091,0,1,0,0-2.183h-4a1.091,1.091,0,1,0,0,2.183Z" transform="translate(-172.234 -52.965)"/>
      <path id="Trazado_903904" data-name="Trazado 903904" d="M89.85,85.1a3.278,3.278,0,0,0-3.275,3.275H82.209A3.273,3.273,0,0,0,76.4,86.305a4.08,4.08,0,0,0-.781-2.267,4.067,4.067,0,0,1-.724-1.659l0-.015-.006-.028a3.6,3.6,0,0,0-5.018-2.562A10.125,10.125,0,0,0,62.3,76.366a10.022,10.022,0,0,0-7.556,3.4,3.584,3.584,0,0,0-4.689,2.4l-.009.033a4.069,4.069,0,0,1-.854,1.6,4.088,4.088,0,0,0,.217,5.564,3.089,3.089,0,0,0,2.855,4.2,10.021,10.021,0,0,0,.355,1.769l-5.47-3.282-2.081-9.366A1.09,1.09,0,0,0,44.595,82l.235-.47a3.272,3.272,0,0,0,4.634-2.978V75.274a3.275,3.275,0,0,0-6.549,0H38.549a3.275,3.275,0,0,0-6.549,0v3.275a3.272,3.272,0,0,0,4.634,2.978l.235.47a1.081,1.081,0,0,0-.5,1l.783,10.185a11.227,11.227,0,0,0,3.619,7.439l9.784,8.968v14.8a1.092,1.092,0,0,0,1.091,1.091h21.83a1.092,1.092,0,0,0,1.091-1.091V110.806l4.224,1.92a6.1,6.1,0,0,0,8.576-4.837L88.751,96.14a1.082,1.082,0,0,0-.5-1.046l.235-.47a3.272,3.272,0,0,0,4.634-2.978V88.372A3.278,3.278,0,0,0,89.85,85.1Zm-3.275,5.458v3.017L85.9,94.921H82.884l-.675-1.349V90.555h4.366Zm-8.732-2.183a1.092,1.092,0,0,1,2.183,0v3.275a1.092,1.092,0,0,1-2.183,0Zm-2.183.42v2.854a3.272,3.272,0,0,0,4.634,2.978l.235.47a1.09,1.09,0,0,0-.495.783l-.864,6.915-4.227-3.019A8.41,8.41,0,0,0,70.6,98.216a10.034,10.034,0,0,0,1.745-4.66,3.089,3.089,0,0,0,2.852-4.207,4.164,4.164,0,0,0,.467-.557Zm-2.442,1.647c0,.008,0,.017,0,.025a.911.911,0,0,1-.819.905v-.831a4.125,4.125,0,0,0,.817-.1Zm-1.981-8.8a1.423,1.423,0,0,1,1.507,1.127l0,.017a6.231,6.231,0,0,0,1.107,2.544A1.91,1.91,0,1,1,70.415,86.7a1.935,1.935,0,0,1-.013-.367,8.244,8.244,0,0,0-.392-2.883,1.435,1.435,0,0,1-.047-.223,1.41,1.41,0,0,1,1.274-1.586ZM62.3,78.549a7.936,7.936,0,0,1,5.945,2.7,3.559,3.559,0,0,0-.451,2.261h0a3.629,3.629,0,0,0,.12.565,6.132,6.132,0,0,1,.305,2.123A4.1,4.1,0,0,0,70,89.826c.073.05.147.1.222.14v2.5a7.913,7.913,0,1,1-15.827,0V89.979a4.095,4.095,0,0,0,2-3.447,6.043,6.043,0,0,1,.473-2.092,3.591,3.591,0,0,0-.387-3.331,7.853,7.853,0,0,1,5.824-2.56ZM65.613,102a15.2,15.2,0,0,1-2.9,4.062l-.412.412-.412-.412A15.2,15.2,0,0,1,59,102a10.06,10.06,0,0,0,6.618,0ZM50.4,86.3a1.915,1.915,0,0,1,.453-1.078,6.235,6.235,0,0,0,1.306-2.448l0-.017a1.427,1.427,0,0,1,1.361-1.023,1.364,1.364,0,0,1,.23.02,1.4,1.4,0,0,1,.769.4h0a1.41,1.41,0,0,1,.31,1.5,8.245,8.245,0,0,0-.621,2.844,1.936,1.936,0,0,1-.042.365A1.911,1.911,0,0,1,50.4,86.3Zm.993,4.168s0-.01,0-.015a4.126,4.126,0,0,0,.818.1v.82a.911.911,0,0,1-.819-.905ZM45.1,75.274a1.092,1.092,0,1,1,2.183,0v3.275a1.092,1.092,0,0,1-2.183,0Zm-2.183,2.183v3.017l-.675,1.349H39.224l-.675-1.349V77.457h4.366ZM35.274,79.64a1.093,1.093,0,0,1-1.091-1.091V75.274a1.092,1.092,0,0,1,2.183,0v3.275A1.093,1.093,0,0,1,35.274,79.64ZM85.2,107.635a3.912,3.912,0,0,1-5.5,3.1l-5.767-2.622a1.091,1.091,0,0,0-1.543.994V123.3H52.739v-14.19a1.092,1.092,0,0,0-.354-.8L42.247,99.014a9.05,9.05,0,0,1-2.918-6l-.693-9.01h4.495l1.993,8.969a1.092,1.092,0,0,0,.5.7l9.111,5.467a10.18,10.18,0,0,0,1.27,1.21,17.394,17.394,0,0,0,4.34,7.257l1.184,1.184a1.092,1.092,0,0,0,1.544,0l1.184-1.184a17.4,17.4,0,0,0,4.328-7.216l0-.013h1.431a6.247,6.247,0,0,1,3.651,1.17l5.718,4.084a1.091,1.091,0,0,0,1.717-.753l.972-7.776h4.358L85.2,107.635Zm5.741-15.988a1.092,1.092,0,1,1-2.183,0V88.372a1.092,1.092,0,0,1,2.183,0Z" transform="translate(-0.002)"/>
      <path id="Trazado_903905" data-name="Trazado 903905" d="M34.24,241.09l-.115-.346a1.092,1.092,0,0,0-2.071.69l.115.346a14.243,14.243,0,0,0,3.423,5.539,1.092,1.092,0,1,0,1.544-1.544,12.044,12.044,0,0,1-2.9-4.685Z" transform="translate(0 -145.076)"/>
      <path id="Trazado_903906" data-name="Trazado 903906" d="M465.091,288A1.092,1.092,0,0,0,464,289.091v2.183a1.092,1.092,0,1,0,2.183,0v-2.183A1.092,1.092,0,0,0,465.091,288Z" transform="translate(-373.061 -186.53)"/>
      <path id="Trazado_903907" data-name="Trazado 903907" d="M405.777,376.32a6.32,6.32,0,0,1-4.5,1.863h-.187a1.091,1.091,0,1,0,0,2.183h.187a8.489,8.489,0,0,0,6.042-2.5,1.092,1.092,0,0,0-1.544-1.544Z" transform="translate(-317.793 -262.524)"/>
      <path id="Trazado_903908" data-name="Trazado 903908" d="M81.863,304.32a1.092,1.092,0,0,0-1.544,1.544l1.091,1.091a1.092,1.092,0,0,0,1.544-1.544l-1.091-1.091Z" transform="translate(-41.453 -200.347)"/>
      <path id="Trazado_903909" data-name="Trazado 903909" d="M465.091,248A1.092,1.092,0,0,0,464,249.092v1.092a1.092,1.092,0,1,0,2.183,0v-1.092A1.092,1.092,0,0,0,465.091,248Z" transform="translate(-373.061 -151.987)"/>
      <path id="Trazado_903910" data-name="Trazado 903910" d="M137.092,368A1.092,1.092,0,0,0,136,369.091v2.183a1.091,1.091,0,0,0,2.183,0v-2.183A1.092,1.092,0,0,0,137.092,368Z" transform="translate(-89.812 -255.614)"/>
      <path id="Trazado_903911" data-name="Trazado 903911" d="M137.092,408A1.092,1.092,0,0,0,136,409.092v1.091a1.091,1.091,0,1,0,2.183,0v-1.091A1.092,1.092,0,0,0,137.092,408Z" transform="translate(-89.812 -290.157)"/>
    </g>
  </g>
</svg>
