<svg xmlns="http://www.w3.org/2000/svg" xmlns:xlink="http://www.w3.org/1999/xlink" width="108.914" height="108.914" viewBox="0 0 108.914 108.914">
  <defs>
    <filter id="Trazado_874925" x="0" y="0" width="108.914" height="108.914" filterUnits="userSpaceOnUse">
      <feOffset dy="3" input="SourceAlpha"/>
      <feGaussianBlur stdDeviation="3" result="blur"/>
      <feFlood flood-opacity="0.161"/>
      <feComposite operator="in" in2="blur"/>
      <feComposite in="SourceGraphic"/>
    </filter>
    <clipPath id="clip-path">
      <path id="path10548" d="M0-682.665H55.335v55.335H0Z" transform="translate(0 682.665)"/>
    </clipPath>
  </defs>
  <g id="Grupo_1112872" data-name="Grupo 1112872" transform="translate(5522 8860)">
    <g transform="matrix(1, 0, 0, 1, -5522, -8860)" filter="url(#Trazado_874925)">
      <g id="Trazado_874925-2" data-name="Trazado 874925" transform="translate(9 6)" fill="#f6d530" opacity="0.859">
        <path d="M 45.45676803588867 89.41407012939453 C 39.52198028564453 89.41407012939453 33.76551818847656 88.25206756591797 28.34726715087891 85.96034240722656 C 23.11311721801758 83.74648284912109 18.41204261779785 80.57682800292969 14.37464332580566 76.5394287109375 C 10.33724308013916 72.50202941894531 7.167593002319336 67.80095672607422 4.953730583190918 62.56679534912109 C 2.662005424499512 57.14855575561523 1.500005483627319 51.39208221435547 1.500005483627319 45.45729446411133 C 1.500005483627319 39.52198028564453 2.662005424499512 33.76551818847656 4.953730583190918 28.34726905822754 C 7.167593002319336 23.11310577392578 10.33724308013916 18.41203117370605 14.37464332580566 14.37464332580566 C 18.41204261779785 10.33724403381348 23.11311721801758 7.167593955993652 28.34726715087891 4.953731060028076 C 33.76551818847656 2.662006139755249 39.52198028564453 1.500006198883057 45.45676803588867 1.500006198883057 C 51.39155578613281 1.500006198883057 57.14802932739258 2.662006139755249 62.56626892089844 4.953731060028076 C 67.80043029785156 7.167593955993652 72.50150299072266 10.33724403381348 76.53890228271484 14.37464332580566 C 80.57630920410156 18.41203117370605 83.74595642089844 23.11310577392578 85.95981597900391 28.34726905822754 C 88.25154113769531 33.76551818847656 89.41354370117188 39.52198028564453 89.41354370117188 45.45676803588867 C 89.41354370117188 51.39208221435547 88.25154113769531 57.14855575561523 85.95981597900391 62.56679534912109 C 83.74595642089844 67.80095672607422 80.57630920410156 72.50202941894531 76.53890228271484 76.5394287109375 C 72.50150299072266 80.57682800292969 67.80043029785156 83.74648284912109 62.56626892089844 85.96034240722656 C 57.14802932739258 88.25206756591797 51.39155578613281 89.41407012939453 45.45676803588867 89.41407012939453 Z" stroke="none"/>
        <path d="M 45.45676803588867 3 C 39.72381210327148 3 34.1639404296875 4.12213134765625 28.93159484863281 6.335227966308594 C 23.87622833251953 8.473472595214844 19.33542633056641 11.53517150878906 15.43529510498047 15.435302734375 C 11.53517150878906 19.33543395996094 8.473464965820312 23.87622833251953 6.335227966308594 28.93160247802734 C 4.122123718261719 34.16394424438477 3 39.72381591796875 3 45.4572868347168 C 3 51.19024658203125 4.122123718261719 56.75011825561523 6.335227966308594 61.98246002197266 C 8.473464965820312 67.03782653808594 11.53517150878906 71.57862854003906 15.43529510498047 75.478759765625 C 19.33542633056641 79.37889099121094 23.87622833251953 82.44058990478516 28.93159484863281 84.57883453369141 C 34.1639404296875 86.79193115234375 39.72381210327148 87.9140625 45.45676803588867 87.9140625 C 51.18972396850586 87.9140625 56.74959564208984 86.79193115234375 61.98194122314453 84.57883453369141 C 67.03730773925781 82.44058990478516 71.57810974121094 79.37889099121094 75.47824096679688 75.478759765625 C 79.37837219238281 71.57862854003906 82.44007110595703 67.03782653808594 84.57830810546875 61.98246002197266 C 86.79141235351562 56.75011825561523 87.91353607177734 51.19024658203125 87.91353607177734 45.4567756652832 C 87.91353607177734 39.72381591796875 86.79141235351562 34.16394424438477 84.57830810546875 28.93160247802734 C 82.44007110595703 23.87622833251953 79.37837219238281 19.33543395996094 75.47824096679688 15.435302734375 C 71.57810974121094 11.53517150878906 67.03730773925781 8.473472595214844 61.98194122314453 6.335227966308594 C 56.74959564208984 4.12213134765625 51.18972396850586 3 45.45676803588867 3 M 45.45676803588867 0 C 70.56185150146484 0 90.91353607177734 20.35169219970703 90.91353607177734 45.4567756652832 L 90.91353607177734 45.4572868347168 C 90.91353607177734 70.5623779296875 70.56185150146484 90.9140625 45.45676803588867 90.9140625 C 20.3516845703125 90.9140625 0 70.5623779296875 0 45.4572868347168 L 0 45.4567756652832 C 0 20.35169219970703 20.3516845703125 0 45.45676803588867 0 Z" stroke="none" fill="#fff"/>
      </g>
    </g>
    <g id="g10542" transform="translate(-5495 -8153.335)">
      <g id="g10544" transform="translate(0 -682.665)">
        <g id="g10546" clip-path="url(#clip-path)">
          <g id="g10552" transform="translate(23.5 5.944)">
            <path id="path10554" d="M-313.591-259.36a14.9,14.9,0,0,0,2.262-8.123,15.007,15.007,0,0,0-14.827-14.754,14.962,14.962,0,0,0-15.1,14.8,14.982,14.982,0,0,0,.139,2.2,14.964,14.964,0,0,1,2.584,2.05,14.751,14.751,0,0,1,4.271,8.564,14.85,14.85,0,0,0,7.967,2.31,14.891,14.891,0,0,0,7.8-2.194l5.707,1.529a.579.579,0,0,0,.709-.709Z" transform="translate(341.252 282.237)" fill="#d4f3f6"/>
          </g>
          <g id="g10556" transform="translate(23.5 5.944)">
            <path id="path10558" d="M-313.591-259.36a14.9,14.9,0,0,0,2.262-8.123,15.007,15.007,0,0,0-14.827-14.754,14.962,14.962,0,0,0-15.1,14.8,14.982,14.982,0,0,0,.139,2.2,14.964,14.964,0,0,1,2.584,2.05,14.751,14.751,0,0,1,4.271,8.564,14.85,14.85,0,0,0,7.967,2.31,14.891,14.891,0,0,0,7.8-2.194l5.707,1.529a.579.579,0,0,0,.709-.709Z" transform="translate(341.252 282.237)" fill="#d4f3f6"/>
          </g>
          <g id="g10560" transform="translate(23.5 5.944)">
            <path id="path10562" d="M-61.949-166.021a14.757,14.757,0,0,1,11.827-14.462,14.892,14.892,0,0,0-2.195-.182,14.962,14.962,0,0,0-15.1,14.8,14.983,14.983,0,0,0,.139,2.2,14.965,14.965,0,0,1,2.584,2.05,14.751,14.751,0,0,1,4.271,8.564,14.85,14.85,0,0,0,7.967,2.31,14.966,14.966,0,0,0,4.109-.572,14.754,14.754,0,0,1-13.608-14.709" transform="translate(67.414 180.665)" fill="#a6e7f0"/>
          </g>
          <g id="g10564" transform="translate(23.5 5.944)">
            <path id="path10566" d="M-313.591-259.36a14.9,14.9,0,0,0,2.262-8.123,15.007,15.007,0,0,0-14.827-14.754,14.962,14.962,0,0,0-15.1,14.8,14.982,14.982,0,0,0,.139,2.2,14.964,14.964,0,0,1,2.584,2.05,14.751,14.751,0,0,1,4.271,8.564,14.85,14.85,0,0,0,7.967,2.31,14.891,14.891,0,0,0,7.8-2.194l5.707,1.529a.579.579,0,0,0,.709-.709Z" transform="translate(341.252 282.237)" fill="none" stroke="#000" stroke-linecap="round" stroke-linejoin="round" stroke-miterlimit="10" stroke-width="2"/>
          </g>
          <g id="g10568" transform="translate(38.724 2.124)">
            <path id="path10570" d="M-177.477-85.57l-1.876-1.876a.5.5,0,0,1-.146-.352v-2.653a.5.5,0,0,0-.5-.5h-2.653A.5.5,0,0,1-183-91.1l-1.876-1.876a.5.5,0,0,0-.7,0L-187.46-91.1a.5.5,0,0,1-.353.146h-2.653a.5.5,0,0,0-.5.5V-87.8a.5.5,0,0,1-.146.352l-1.876,1.876a.5.5,0,0,0,0,.7l1.265,1.265a9.445,9.445,0,0,1,7.108,5.871l1.61-1.61a.5.5,0,0,1,.352-.146H-180a.5.5,0,0,0,.5-.5v-2.653a.5.5,0,0,1,.146-.353l1.876-1.876a.5.5,0,0,0,0-.7" transform="translate(193.132 93.118)" fill="#a2e62e"/>
          </g>
          <g id="g10572" transform="translate(38.724 4.292)">
            <path id="path10574" d="M-131.96-113.075a7.133,7.133,0,0,1-7.133-7.133,7.1,7.1,0,0,1,.59-2.841h-2.43a.5.5,0,0,0-.5.5v2.653a.5.5,0,0,1-.146.352l-1.876,1.876a.5.5,0,0,0,0,.7l1.265,1.265a9.445,9.445,0,0,1,7.108,5.871l1.61-1.61a.5.5,0,0,1,.352-.146h2.653a.5.5,0,0,0,.5-.5v-1.277a7.13,7.13,0,0,1-1.993.284" transform="translate(143.599 123.049)" fill="#97d729"/>
          </g>
          <g id="g10576" transform="translate(38.724 2.124)">
            <path id="path10578" d="M-177.477-85.57l-1.876-1.876a.5.5,0,0,1-.146-.352v-2.653a.5.5,0,0,0-.5-.5h-2.653A.5.5,0,0,1-183-91.1l-1.876-1.876a.5.5,0,0,0-.7,0L-187.46-91.1a.5.5,0,0,1-.353.146h-2.653a.5.5,0,0,0-.5.5V-87.8a.5.5,0,0,1-.146.352l-1.876,1.876a.5.5,0,0,0,0,.7l1.265,1.265a9.445,9.445,0,0,1,7.108,5.871l1.61-1.61a.5.5,0,0,1,.352-.146H-180a.5.5,0,0,0,.5-.5v-2.653a.5.5,0,0,1,.146-.353l1.876-1.876A.5.5,0,0,0-177.477-85.57Z" transform="translate(193.132 93.118)" fill="none" stroke="#000" stroke-linecap="round" stroke-linejoin="round" stroke-miterlimit="10" stroke-width="2"/>
          </g>
          <g id="g10580" transform="translate(44.575 7.134)">
            <path id="path10582" d="M0,0H4.1" transform="translate(0 0)" fill="#fff" stroke="#000" stroke-linecap="round" stroke-linejoin="round" stroke-miterlimit="10" stroke-width="2"/>
          </g>
          <g id="g10584" transform="translate(43.334 10.024)">
            <path id="path10586" d="M0,0H6.58" transform="translate(0 0)" fill="#fff" stroke="#000" stroke-linecap="round" stroke-linejoin="round" stroke-miterlimit="10" stroke-width="2"/>
          </g>
          <g id="g10588" transform="translate(44.575 12.915)">
            <path id="path10590" d="M0,0H4.1" transform="translate(0 0)" fill="#fff" stroke="#000" stroke-linecap="round" stroke-linejoin="round" stroke-miterlimit="10" stroke-width="2"/>
          </g>
          <g id="g10592" transform="translate(28.941 11.385)">
            <path id="path10594" d="M-215.891-107.946a9.522,9.522,0,0,1-9.522,9.522,9.522,9.522,0,0,1-9.522-9.522,9.522,9.522,0,0,1,9.522-9.522,9.522,9.522,0,0,1,9.522,9.522" transform="translate(234.934 117.468)" fill="#ffd15c"/>
          </g>
          <g id="g10596" transform="translate(28.941 11.385)">
            <path id="path10598" d="M-51.481-107.946a9.525,9.525,0,0,1,7.251-9.248,9.539,9.539,0,0,0-2.27-.273,9.522,9.522,0,0,0-9.522,9.522A9.522,9.522,0,0,0-46.5-98.425a9.534,9.534,0,0,0,2.27-.273,9.525,9.525,0,0,1-7.251-9.248" transform="translate(56.023 117.468)" fill="#ffc344"/>
          </g>
          <g id="g10600" transform="translate(28.941 11.385)">
            <path id="path10602" d="M-214.985-93.924a9.523,9.523,0,0,0-9.442-8.285,9.522,9.522,0,0,0-9.522,9.522,9.522,9.522,0,0,0,9.522,9.522,9.525,9.525,0,0,0,9.177-6.976" transform="translate(233.949 102.209)" fill="none" stroke="#000" stroke-linecap="round" stroke-linejoin="round" stroke-miterlimit="10" stroke-width="2"/>
          </g>
          <g id="g10604" transform="translate(33.499 22.455)">
            <path id="path10606" d="M-6.154,0a.538.538,0,0,0-.515.7,5.211,5.211,0,0,0,4.935,3.54A5.21,5.21,0,0,0,3.2.7.538.538,0,0,0,2.687,0Z" transform="translate(6.697)" fill="#fd8087"/>
          </g>
          <g id="g10608" transform="translate(33.499 22.454)">
            <path id="path10610" d="M-40.986-7.987a.538.538,0,0,1,.515-.7h-3.587a.538.538,0,0,0-.515.7,5.21,5.21,0,0,0,4.935,3.54,5.2,5.2,0,0,0,1.794-.318,5.222,5.222,0,0,1-3.142-3.222" transform="translate(44.601 8.692)" fill="#fe646f"/>
          </g>
          <g id="g10612" transform="translate(33.499 22.455)">
            <path id="path10614" d="M-6.154,0a.538.538,0,0,0-.515.7,5.211,5.211,0,0,0,4.935,3.54A5.21,5.21,0,0,0,3.2.7.538.538,0,0,0,2.687,0Z" transform="translate(6.697)" fill="none" stroke="#000" stroke-linecap="round" stroke-linejoin="round" stroke-miterlimit="10" stroke-width="2"/>
          </g>
          <g id="g10616" transform="translate(35.648 19.359)">
            <path id="path10618" d="M0,0Z" transform="translate(0 0)" fill="#fff"/>
          </g>
          <g id="g10620" transform="translate(35.648 19.359)">
            <path id="path10622" d="M0,0H0" transform="translate(0 0)" fill="none" stroke="#000" stroke-linecap="round" stroke-linejoin="round" stroke-miterlimit="10" stroke-width="2"/>
          </g>
          <g id="g10624" transform="translate(41.277 19.359)">
            <path id="path10626" d="M0,0Z" transform="translate(0 0)" fill="#fff"/>
          </g>
          <g id="g10628" transform="translate(41.277 19.359)">
            <path id="path10630" d="M0,0H0" transform="translate(0 0)" fill="none" stroke="#000" stroke-linecap="round" stroke-linejoin="round" stroke-miterlimit="10" stroke-width="2"/>
          </g>
          <g id="g10632" transform="translate(0.811 20.588)">
            <path id="path10634" d="M-168.107-.007a15.007,15.007,0,0,0-14.827,14.754,14.9,14.9,0,0,0,2.262,8.123l-1.52,5.674a.579.579,0,0,0,.709.709l5.707-1.529a14.892,14.892,0,0,0,7.8,2.194,15,15,0,0,0,14.962-15.123,14.962,14.962,0,0,0-15.1-14.8" transform="translate(182.936 0.007)" fill="#af66da"/>
          </g>
          <g id="g10636" transform="translate(0.811 20.588)">
            <path id="path10638" d="M-62.024-167.811A14.966,14.966,0,0,1-49.8-182.363a15.063,15.063,0,0,0-2.869-.25,15.007,15.007,0,0,0-14.827,14.754,14.894,14.894,0,0,0,2.262,8.123l-1.52,5.674a.579.579,0,0,0,.709.709l5.707-1.529a14.893,14.893,0,0,0,7.8,2.194,14.936,14.936,0,0,0,2.735-.252,15.008,15.008,0,0,1-12.226-14.87" transform="translate(67.495 182.613)" fill="#9857bd"/>
          </g>
          <g id="g10640" transform="translate(0.811 20.588)">
            <path id="path10642" d="M-307.324-268.429a14.873,14.873,0,0,0,2.816-8.875,14.962,14.962,0,0,0-15.1-14.8,15.007,15.007,0,0,0-14.827,14.754,14.894,14.894,0,0,0,2.262,8.123l-1.52,5.674a.579.579,0,0,0,.709.709l5.707-1.529a14.893,14.893,0,0,0,7.8,2.194,14.884,14.884,0,0,0,9.568-3.476" transform="translate(334.433 292.107)" fill="none" stroke="#000" stroke-linecap="round" stroke-linejoin="round" stroke-miterlimit="10" stroke-width="2"/>
          </g>
          <g id="g10644" transform="translate(6.251 26.029)">
            <path id="path10646" d="M0-107.946a9.522,9.522,0,0,0,9.522,9.522,9.522,9.522,0,0,0,9.521-9.522,9.522,9.522,0,0,0-9.521-9.522A9.522,9.522,0,0,0,0-107.946" transform="translate(0 117.468)" fill="#ffd15c"/>
          </g>
          <g id="g10648" transform="translate(6.251 26.029)">
            <path id="path10650" d="M-51.653-107.946a9.525,9.525,0,0,1,7.243-9.247,9.543,9.543,0,0,0-2.278-.275,9.522,9.522,0,0,0-9.522,9.522,9.522,9.522,0,0,0,9.522,9.522A9.538,9.538,0,0,0-44.41-98.7a9.525,9.525,0,0,1-7.243-9.247" transform="translate(56.209 117.468)" fill="#ffc344"/>
          </g>
          <g id="g10652" transform="translate(6.251 26.029)">
            <path id="path10654" d="M-214.9-93.318a9.523,9.523,0,0,0-9.434-8.231,9.522,9.522,0,0,0-9.522,9.522,9.522,9.522,0,0,0,9.522,9.522,9.525,9.525,0,0,0,9.191-7.029" transform="translate(233.857 101.549)" fill="none" stroke="#000" stroke-linecap="round" stroke-linejoin="round" stroke-miterlimit="10" stroke-width="2"/>
          </g>
          <g id="g10656" transform="translate(10.654 37.098)">
            <path id="path10658" d="M-116.076,0a5.21,5.21,0,0,1-5.119,4.245A5.21,5.21,0,0,1-126.314,0" transform="translate(126.314)" fill="none" stroke="#000" stroke-linecap="round" stroke-linejoin="round" stroke-miterlimit="10" stroke-width="2"/>
          </g>
          <g id="g10660" transform="translate(18.587 34.003)">
            <path id="path10662" d="M0,0Z" transform="translate(0 0)" fill="#fff"/>
          </g>
          <g id="g10664" transform="translate(18.587 34.003)">
            <path id="path10666" d="M0,0H0" transform="translate(0 0)" fill="none" stroke="#000" stroke-linecap="round" stroke-linejoin="round" stroke-miterlimit="10" stroke-width="2"/>
          </g>
          <g id="g10668" transform="translate(12.959 34.003)">
            <path id="path10670" d="M0,0Z" transform="translate(0 0)" fill="#fff"/>
          </g>
          <g id="g10672" transform="translate(12.959 34.003)">
            <path id="path10674" d="M0,0H0" transform="translate(0 0)" fill="none" stroke="#000" stroke-linecap="round" stroke-linejoin="round" stroke-miterlimit="10" stroke-width="2"/>
          </g>
          <g id="g10676" transform="translate(12.135 6.755)">
            <path id="path10678" d="M-71.1-117.536v-4.1h-3.051v-3.22h-3.221V-127.9" transform="translate(77.372 127.904)" fill="none" stroke="#000" stroke-linecap="round" stroke-linejoin="round" stroke-miterlimit="10" stroke-width="2"/>
          </g>
          <g id="g10680" transform="translate(37.202 40.21)">
            <path id="path10682" d="M-133.385-34.192l-2.9-2.9-2.157,2.157-2.277-2.277-2.277,2.277-2.158-2.158" transform="translate(145.15 37.208)" fill="none" stroke="#000" stroke-linecap="round" stroke-linejoin="round" stroke-miterlimit="10" stroke-width="2"/>
          </g>
          <g id="g10684" transform="translate(4.856 12.935)">
            <path id="path10686" d="M-83.105-34.191l-2.9-2.9-2.157,2.157-2.277-2.277" transform="translate(90.436 37.207)" fill="none" stroke="#000" stroke-linecap="round" stroke-linejoin="round" stroke-miterlimit="10" stroke-width="2"/>
          </g>
          <g id="g10688" transform="translate(33.183 42.41)">
            <path id="path10690" d="M-34.588-82.941v-4.1h-3.051v-3.22" transform="translate(37.639 90.257)" fill="none" stroke="#000" stroke-linecap="round" stroke-linejoin="round" stroke-miterlimit="10" stroke-width="2"/>
          </g>
          <g id="g10692" transform="translate(22.035 5.597)">
            <path id="path10694" d="M0,0V3.624" transform="translate(0)" fill="none" stroke="#000" stroke-linecap="round" stroke-linejoin="round" stroke-miterlimit="10" stroke-width="2"/>
          </g>
          <g id="g10696" transform="translate(20.223 7.409)">
            <path id="path10698" d="M0,0H3.624" transform="translate(0 0)" fill="none" stroke="#000" stroke-linecap="round" stroke-linejoin="round" stroke-miterlimit="10" stroke-width="2"/>
          </g>
          <g id="g10700" transform="translate(29.017 49.587)">
            <path id="path10702" d="M0,0V3.624" transform="translate(0)" fill="none" stroke="#000" stroke-linecap="round" stroke-linejoin="round" stroke-miterlimit="10" stroke-width="2"/>
          </g>
          <g id="g10704" transform="translate(27.204 51.399)">
            <path id="path10706" d="M0,0H3.624" transform="translate(0 0)" fill="none" stroke="#000" stroke-linecap="round" stroke-linejoin="round" stroke-miterlimit="10" stroke-width="2"/>
          </g>
          <g id="g10708" transform="translate(42.042 47.445)">
            <path id="path10710" d="M0,0H0" transform="translate(0 0)" fill="none" stroke="#000" stroke-linecap="round" stroke-linejoin="round" stroke-miterlimit="10" stroke-width="2"/>
          </g>
          <g id="g10712" transform="translate(5.728 19.129)">
            <path id="path10714" d="M0,0H0" transform="translate(0)" fill="none" stroke="#000" stroke-linecap="round" stroke-linejoin="round" stroke-miterlimit="10" stroke-width="2"/>
          </g>
          <g id="g10716" transform="translate(7.457 7.89)">
            <path id="path10718" d="M0,0H0" transform="translate(0 0)" fill="none" stroke="#000" stroke-linecap="round" stroke-linejoin="round" stroke-miterlimit="10" stroke-width="2"/>
          </g>
        </g>
      </g>
    </g>
  </g>
</svg>
