<svg xmlns="http://www.w3.org/2000/svg" xmlns:xlink="http://www.w3.org/1999/xlink" width="108.914" height="108.914" viewBox="0 0 108.914 108.914">
  <defs>
    <filter id="Trazado_874925" x="0" y="0" width="108.914" height="108.914" filterUnits="userSpaceOnUse">
      <feOffset dy="3" input="SourceAlpha"/>
      <feGaussianBlur stdDeviation="3" result="blur"/>
      <feFlood flood-opacity="0.161"/>
      <feComposite operator="in" in2="blur"/>
      <feComposite in="SourceGraphic"/>
    </filter>
  </defs>
  <g id="Grupo_1112890" data-name="Grupo 1112890" transform="translate(-798.313 -7209.396)">
    <g transform="matrix(1, 0, 0, 1, 798.31, 7209.4)" filter="url(#Trazado_874925)">
      <g id="Trazado_874925-2" data-name="Trazado 874925" transform="translate(9 6)" fill="#f6d530" opacity="0.859">
        <path d="M 45.45676803588867 89.41407012939453 C 39.52198028564453 89.41407012939453 33.76551818847656 88.25206756591797 28.34726715087891 85.96034240722656 C 23.11311721801758 83.74648284912109 18.41204261779785 80.57682800292969 14.37464332580566 76.5394287109375 C 10.33724308013916 72.50202941894531 7.167593002319336 67.80095672607422 4.953730583190918 62.56679534912109 C 2.662005424499512 57.14855575561523 1.500005483627319 51.39208221435547 1.500005483627319 45.45729446411133 C 1.500005483627319 39.52198028564453 2.662005424499512 33.76551818847656 4.953730583190918 28.34726905822754 C 7.167593002319336 23.11310577392578 10.33724308013916 18.41203117370605 14.37464332580566 14.37464332580566 C 18.41204261779785 10.33724403381348 23.11311721801758 7.167593955993652 28.34726715087891 4.953731060028076 C 33.76551818847656 2.662006139755249 39.52198028564453 1.500006198883057 45.45676803588867 1.500006198883057 C 51.39155578613281 1.500006198883057 57.14802932739258 2.662006139755249 62.56626892089844 4.953731060028076 C 67.80043029785156 7.167593955993652 72.50150299072266 10.33724403381348 76.53890228271484 14.37464332580566 C 80.57630920410156 18.41203117370605 83.74595642089844 23.11310577392578 85.95981597900391 28.34726905822754 C 88.25154113769531 33.76551818847656 89.41354370117188 39.52198028564453 89.41354370117188 45.45676803588867 C 89.41354370117188 51.39208221435547 88.25154113769531 57.14855575561523 85.95981597900391 62.56679534912109 C 83.74595642089844 67.80095672607422 80.57630920410156 72.50202941894531 76.53890228271484 76.5394287109375 C 72.50150299072266 80.57682800292969 67.80043029785156 83.74648284912109 62.56626892089844 85.96034240722656 C 57.14802932739258 88.25206756591797 51.39155578613281 89.41407012939453 45.45676803588867 89.41407012939453 Z" stroke="none"/>
        <path d="M 45.45676803588867 3 C 39.72381210327148 3 34.1639404296875 4.12213134765625 28.93159484863281 6.335227966308594 C 23.87622833251953 8.473472595214844 19.33542633056641 11.53517150878906 15.43529510498047 15.435302734375 C 11.53517150878906 19.33543395996094 8.473464965820312 23.87622833251953 6.335227966308594 28.93160247802734 C 4.122123718261719 34.16394424438477 3 39.72381591796875 3 45.4572868347168 C 3 51.19024658203125 4.122123718261719 56.75011825561523 6.335227966308594 61.98246002197266 C 8.473464965820312 67.03782653808594 11.53517150878906 71.57862854003906 15.43529510498047 75.478759765625 C 19.33542633056641 79.37889099121094 23.87622833251953 82.44058990478516 28.93159484863281 84.57883453369141 C 34.1639404296875 86.79193115234375 39.72381210327148 87.9140625 45.45676803588867 87.9140625 C 51.18972396850586 87.9140625 56.74959564208984 86.79193115234375 61.98194122314453 84.57883453369141 C 67.03730773925781 82.44058990478516 71.57810974121094 79.37889099121094 75.47824096679688 75.478759765625 C 79.37837219238281 71.57862854003906 82.44007110595703 67.03782653808594 84.57830810546875 61.98246002197266 C 86.79141235351562 56.75011825561523 87.91353607177734 51.19024658203125 87.91353607177734 45.4567756652832 C 87.91353607177734 39.72381591796875 86.79141235351562 34.16394424438477 84.57830810546875 28.93160247802734 C 82.44007110595703 23.87622833251953 79.37837219238281 19.33543395996094 75.47824096679688 15.435302734375 C 71.57810974121094 11.53517150878906 67.03730773925781 8.473472595214844 61.98194122314453 6.335227966308594 C 56.74959564208984 4.12213134765625 51.18972396850586 3 45.45676803588867 3 M 45.45676803588867 0 C 70.56185150146484 0 90.91353607177734 20.35169219970703 90.91353607177734 45.4567756652832 L 90.91353607177734 45.4572868347168 C 90.91353607177734 70.5623779296875 70.56185150146484 90.9140625 45.45676803588867 90.9140625 C 20.3516845703125 90.9140625 0 70.5623779296875 0 45.4572868347168 L 0 45.4567756652832 C 0 20.35169219970703 20.3516845703125 0 45.45676803588867 0 Z" stroke="none" fill="#fff"/>
      </g>
    </g>
    <g id="Grupo_1112774" data-name="Grupo 1112774" transform="translate(760.741 7222.5)">
      <path id="Trazado_904596" data-name="Trazado 904596" d="M284.087,39.362V37.5H278.5v5.587h7.449V41.225A1.862,1.862,0,0,1,284.087,39.362Z" transform="translate(-183.928 -26.275)" fill="#83b3f1"/>
      <path id="Trazado_904597" data-name="Trazado 904597" d="M240.949,39.362V37.5h-5.587v1.862a1.862,1.862,0,0,1-1.862,1.862v1.862h9.312V41.225A1.862,1.862,0,0,1,240.949,39.362Z" transform="translate(-144.515 -26.275)" fill="#98d3f3"/>
      <path id="Trazado_904598" data-name="Trazado 904598" d="M282.225,7.5H278.5l3.725,3.725h3.725A3.725,3.725,0,0,0,282.225,7.5Z" transform="translate(-183.928)" fill="#20335a"/>
      <path id="Trazado_904599" data-name="Trazado 904599" d="M239.087,7.5h-1.862a3.725,3.725,0,0,0-3.725,3.725h9.312A3.725,3.725,0,0,0,239.087,7.5Z" transform="translate(-144.515)" fill="#364786"/>
      <path id="Trazado_904600" data-name="Trazado 904600" d="M342.225,67.5H338.5v7.449l3.725-3.725a1.862,1.862,0,1,0,0-3.725Z" transform="translate(-236.478 -52.551)" fill="#98d3f3"/>
      <path id="Trazado_904601" data-name="Trazado 904601" d="M207.123,67.5H190.362a1.862,1.862,0,0,0,0,3.725l16.761,3.725V71.225a1.862,1.862,0,1,0,0-3.725Z" transform="translate(-105.101 -52.551)" fill="#adf2f5"/>
      <path id="Trazado_904602" data-name="Trazado 904602" d="M100.362,403.032H98.5l1.862,4.371a9.276,9.276,0,0,0,3.725.777h1.862v-3.725h-1.862A5.565,5.565,0,0,1,100.362,403.032Z" transform="translate(-26.275 -346.425)" fill="#83b3f1"/>
      <path id="Trazado_904603" data-name="Trazado 904603" d="M104.087,157.5a9.274,9.274,0,0,0-3.725.777L98.5,162.648h1.862a5.565,5.565,0,0,1,3.725-1.424h1.862V157.5Z" transform="translate(-26.275 -131.377)" fill="#83b3f1"/>
      <path id="Trazado_904604" data-name="Trazado 904604" d="M72.225,189.3V172.294a5.572,5.572,0,0,1,1.862-4.163v-4.371a9.312,9.312,0,0,0-5.587,8.534V189.3a9.312,9.312,0,0,0,5.587,8.535v-4.371A5.572,5.572,0,0,1,72.225,189.3Z" transform="translate(0 -136.859)" fill="#98d3f3"/>
      <path id="Trazado_904605" data-name="Trazado 904605" d="M342.225,97.5H338.5l3.725,50.531h3.725a3.725,3.725,0,0,0,3.725-3.725V104.949A7.449,7.449,0,0,0,342.225,97.5Z" transform="translate(-236.478 -78.826)" fill="#83b3f1"/>
      <path id="Trazado_904606" data-name="Trazado 904606" d="M175.159,144.306V104.949A7.449,7.449,0,0,0,167.71,97.5H150.949a7.449,7.449,0,0,0-7.449,7.449v39.357a3.725,3.725,0,0,0,3.725,3.725h24.21A3.725,3.725,0,0,0,175.159,144.306Z" transform="translate(-65.688 -78.826)" fill="#98d3f3"/>
      <path id="Trazado_904607" data-name="Trazado 904607" d="M402.225,354.5H398.5v3.725h3.725a1.862,1.862,0,1,0,0-3.725Z" transform="translate(-289.029 -303.918)" fill="#98d3f3"/>
      <path id="Trazado_904608" data-name="Trazado 904608" d="M163.884,356.362a1.862,1.862,0,0,0-1.862-1.862H130.362a1.862,1.862,0,0,0,0,3.725h31.659A1.862,1.862,0,0,0,163.884,356.362Z" transform="translate(-52.551 -303.918)" fill="#adf2f5"/>
      <path id="Trazado_904609" data-name="Trazado 904609" d="M402.225,294.5H398.5v3.725h3.725a1.862,1.862,0,1,0,0-3.725Z" transform="translate(-289.029 -251.368)" fill="#98d3f3"/>
      <path id="Trazado_904610" data-name="Trazado 904610" d="M163.884,296.362a1.862,1.862,0,0,0-1.862-1.862H130.362a1.862,1.862,0,0,0,0,3.725h31.659A1.862,1.862,0,0,0,163.884,296.362Z" transform="translate(-52.551 -251.368)" fill="#adf2f5"/>
      <path id="Trazado_904611" data-name="Trazado 904611" d="M402.225,234.5H398.5v3.725h3.725a1.862,1.862,0,1,0,0-3.725Z" transform="translate(-289.029 -198.817)" fill="#98d3f3"/>
      <path id="Trazado_904612" data-name="Trazado 904612" d="M163.884,236.362a1.862,1.862,0,0,0-1.862-1.862H130.362a1.862,1.862,0,0,0,0,3.725h31.659A1.862,1.862,0,0,0,163.884,236.362Z" transform="translate(-52.551 -198.817)" fill="#adf2f5"/>
      <path id="Trazado_904613" data-name="Trazado 904613" d="M210.848,71.225a1.862,1.862,0,0,0,0-3.725H190.362a1.862,1.862,0,0,0,0,3.725" transform="translate(-105.101 -52.551)" fill="none" stroke="#000" stroke-linecap="round" stroke-linejoin="round" stroke-miterlimit="10" stroke-width="1"/>
      <path id="Trazado_904614" data-name="Trazado 904614" d="M165.746,241.949v-3.725a1.862,1.862,0,0,0,0-3.725H130.362a1.862,1.862,0,0,0,0,3.725v3.725" transform="translate(-52.551 -198.817)" fill="none" stroke="#000" stroke-linecap="round" stroke-linejoin="round" stroke-miterlimit="10" stroke-width="1"/>
      <path id="Trazado_904615" data-name="Trazado 904615" d="M130.362,301.949v-3.725a1.862,1.862,0,0,1,0-3.725h35.384a1.862,1.862,0,0,1,0,3.725v3.725" transform="translate(-52.551 -251.368)" fill="none" stroke="#000" stroke-linecap="round" stroke-linejoin="round" stroke-miterlimit="10" stroke-width="1"/>
      <path id="Trazado_904616" data-name="Trazado 904616" d="M263.5,97.5h13.036a7.449,7.449,0,0,1,7.449,7.449v9.56" transform="translate(-170.79 -78.826)" fill="none" stroke="#000" stroke-linecap="round" stroke-linejoin="round" stroke-miterlimit="10" stroke-width="1"/>
      <path id="Trazado_904617" data-name="Trazado 904617" d="M113.2,140.582v3.725a3.725,3.725,0,0,1-3.725,3.725H81.536a3.725,3.725,0,0,1-3.725-3.725v-3.725A9.312,9.312,0,0,1,68.5,131.27V114.261a9.312,9.312,0,0,1,9.312-9.312A7.449,7.449,0,0,1,85.261,97.5h3.725" transform="translate(0 -78.826)" fill="none" stroke="#000" stroke-linecap="round" stroke-linejoin="round" stroke-miterlimit="10" stroke-width="1"/>
      <path id="Trazado_904618" data-name="Trazado 904618" d="M104.087,193.335V187.5a5.587,5.587,0,0,0-5.587,5.587V210.1a5.587,5.587,0,0,0,5.587,5.587v-3.725a1.862,1.862,0,0,1,0-3.725h35.384a1.862,1.862,0,0,1,0,3.725v3.725" transform="translate(-26.275 -157.652)" fill="none" stroke="#000" stroke-linecap="round" stroke-linejoin="round" stroke-miterlimit="10" stroke-width="1"/>
      <path id="Trazado_904619" data-name="Trazado 904619" d="M323.5,37.5v1.862a1.862,1.862,0,0,0,1.862,1.862" transform="translate(-223.341 -26.275)" fill="none" stroke="#000" stroke-linecap="round" stroke-linejoin="round" stroke-miterlimit="10" stroke-width="1"/>
      <path id="Trazado_904620" data-name="Trazado 904620" d="M233.5,41.225a1.862,1.862,0,0,0,1.862-1.862V37.5" transform="translate(-144.515 -26.275)" fill="none" stroke="#000" stroke-linecap="round" stroke-linejoin="round" stroke-miterlimit="10" stroke-width="1"/>
      <path id="Trazado_904621" data-name="Trazado 904621" d="M237.225,7.5a3.725,3.725,0,0,0-3.725,3.725h13.036A3.725,3.725,0,0,0,242.812,7.5Z" transform="translate(-144.515)" fill="none" stroke="#000" stroke-linecap="round" stroke-linejoin="round" stroke-miterlimit="10" stroke-width="1"/>
    </g>
  </g>
</svg>
