<svg xmlns="http://www.w3.org/2000/svg" xmlns:xlink="http://www.w3.org/1999/xlink" width="108.914" height="108.914" viewBox="0 0 108.914 108.914">
  <defs>
    <filter id="Trazado_874925" x="0" y="0" width="108.914" height="108.914" filterUnits="userSpaceOnUse">
      <feOffset dy="3" input="SourceAlpha"/>
      <feGaussianBlur stdDeviation="3" result="blur"/>
      <feFlood flood-opacity="0.161"/>
      <feComposite operator="in" in2="blur"/>
      <feComposite in="SourceGraphic"/>
    </filter>
  </defs>
  <g id="Grupo_1112891" data-name="Grupo 1112891" transform="translate(-1113.063 -7209.396)">
    <g transform="matrix(1, 0, 0, 1, 1113.06, 7209.4)" filter="url(#Trazado_874925)">
      <g id="Trazado_874925-2" data-name="Trazado 874925" transform="translate(9 6)" fill="#f6d530" opacity="0.859">
        <path d="M 45.45676803588867 89.41407012939453 C 39.52198028564453 89.41407012939453 33.76551818847656 88.25206756591797 28.34726715087891 85.96034240722656 C 23.11311721801758 83.74648284912109 18.41204261779785 80.57682800292969 14.37464332580566 76.5394287109375 C 10.33724308013916 72.50202941894531 7.167593002319336 67.80095672607422 4.953730583190918 62.56679534912109 C 2.662005424499512 57.14855575561523 1.500005483627319 51.39208221435547 1.500005483627319 45.45729446411133 C 1.500005483627319 39.52198028564453 2.662005424499512 33.76551818847656 4.953730583190918 28.34726905822754 C 7.167593002319336 23.11310577392578 10.33724308013916 18.41203117370605 14.37464332580566 14.37464332580566 C 18.41204261779785 10.33724403381348 23.11311721801758 7.167593955993652 28.34726715087891 4.953731060028076 C 33.76551818847656 2.662006139755249 39.52198028564453 1.500006198883057 45.45676803588867 1.500006198883057 C 51.39155578613281 1.500006198883057 57.14802932739258 2.662006139755249 62.56626892089844 4.953731060028076 C 67.80043029785156 7.167593955993652 72.50150299072266 10.33724403381348 76.53890228271484 14.37464332580566 C 80.57630920410156 18.41203117370605 83.74595642089844 23.11310577392578 85.95981597900391 28.34726905822754 C 88.25154113769531 33.76551818847656 89.41354370117188 39.52198028564453 89.41354370117188 45.45676803588867 C 89.41354370117188 51.39208221435547 88.25154113769531 57.14855575561523 85.95981597900391 62.56679534912109 C 83.74595642089844 67.80095672607422 80.57630920410156 72.50202941894531 76.53890228271484 76.5394287109375 C 72.50150299072266 80.57682800292969 67.80043029785156 83.74648284912109 62.56626892089844 85.96034240722656 C 57.14802932739258 88.25206756591797 51.39155578613281 89.41407012939453 45.45676803588867 89.41407012939453 Z" stroke="none"/>
        <path d="M 45.45676803588867 3 C 39.72381210327148 3 34.1639404296875 4.12213134765625 28.93159484863281 6.335227966308594 C 23.87622833251953 8.473472595214844 19.33542633056641 11.53517150878906 15.43529510498047 15.435302734375 C 11.53517150878906 19.33543395996094 8.473464965820312 23.87622833251953 6.335227966308594 28.93160247802734 C 4.122123718261719 34.16394424438477 3 39.72381591796875 3 45.4572868347168 C 3 51.19024658203125 4.122123718261719 56.75011825561523 6.335227966308594 61.98246002197266 C 8.473464965820312 67.03782653808594 11.53517150878906 71.57862854003906 15.43529510498047 75.478759765625 C 19.33542633056641 79.37889099121094 23.87622833251953 82.44058990478516 28.93159484863281 84.57883453369141 C 34.1639404296875 86.79193115234375 39.72381210327148 87.9140625 45.45676803588867 87.9140625 C 51.18972396850586 87.9140625 56.74959564208984 86.79193115234375 61.98194122314453 84.57883453369141 C 67.03730773925781 82.44058990478516 71.57810974121094 79.37889099121094 75.47824096679688 75.478759765625 C 79.37837219238281 71.57862854003906 82.44007110595703 67.03782653808594 84.57830810546875 61.98246002197266 C 86.79141235351562 56.75011825561523 87.91353607177734 51.19024658203125 87.91353607177734 45.4567756652832 C 87.91353607177734 39.72381591796875 86.79141235351562 34.16394424438477 84.57830810546875 28.93160247802734 C 82.44007110595703 23.87622833251953 79.37837219238281 19.33543395996094 75.47824096679688 15.435302734375 C 71.57810974121094 11.53517150878906 67.03730773925781 8.473472595214844 61.98194122314453 6.335227966308594 C 56.74959564208984 4.12213134765625 51.18972396850586 3 45.45676803588867 3 M 45.45676803588867 0 C 70.56185150146484 0 90.91353607177734 20.35169219970703 90.91353607177734 45.4567756652832 L 90.91353607177734 45.4572868347168 C 90.91353607177734 70.5623779296875 70.56185150146484 90.9140625 45.45676803588867 90.9140625 C 20.3516845703125 90.9140625 0 70.5623779296875 0 45.4572868347168 L 0 45.4567756652832 C 0 20.35169219970703 20.3516845703125 0 45.45676803588867 0 Z" stroke="none" fill="#fff"/>
      </g>
    </g>
    <g id="Layer_32" data-name="Layer 32" transform="translate(1133.054 7228.853)">
      <path id="Trazado_904622" data-name="Trazado 904622" d="M25,15H55V61H25Z" fill="#ede6cc"/>
      <path id="Trazado_904623" data-name="Trazado 904623" d="M51,7H29l-4,8H55Z" fill="#e5dab7"/>
      <path id="Trazado_904624" data-name="Trazado 904624" d="M29,3H51V7H29Z" fill="#ede6cc"/>
      <path id="Trazado_904625" data-name="Trazado 904625" d="M55,44l-6.673,2.966A12,12,0,0,1,43.453,48h-7.62a12,12,0,0,0-5.366,1.266L25,52V32l5.466-2.733A12.006,12.006,0,0,1,35.833,28h7.62a12,12,0,0,0,4.875-1.034L55,24Z" fill="#c3f4fc"/>
      <path id="Trazado_904626" data-name="Trazado 904626" d="M44,40a4,4,0,0,1-8,0c0-2.209,4-8,4-8S44,37.791,44,40Z" fill="#ede6cc"/>
      <path id="Trazado_904627" data-name="Trazado 904627" d="M11,57H29v4H11Z" fill="#c3f4fc"/>
      <path id="Trazado_904628" data-name="Trazado 904628" d="M9.333,37,11,57H29l1.667-20Z" fill="#ede6cc"/>
      <path id="Trazado_904629" data-name="Trazado 904629" d="M31,33H9l.333,4H30.667Z" fill="#c3f4fc"/>
      <path id="Trazado_904630" data-name="Trazado 904630" d="M55.9,14.553,52,6.764V3a1,1,0,0,0-1-1H29a1,1,0,0,0-1,1V6.764l-3.9,7.789A1,1,0,0,0,24,15V32H9a1,1,0,0,0-1,1.083l.334,4L10,57.042V61a1,1,0,0,0,1,1H55a1,1,0,0,0,1-1V15A1,1,0,0,0,55.9,14.553ZM10.42,38H29.58l-1.5,18H11.92Zm21.243-.917.334-4A1,1,0,0,0,31,32H27.237l3.677-1.838A11.033,11.033,0,0,1,35.833,29h7.621a12.91,12.91,0,0,0,5.279-1.121L54,25.539V43.35l-6.079,2.7a10.936,10.936,0,0,1-4.467.95H35.833a13.052,13.052,0,0,0-5.085,1.06ZM29.618,8H50.382l3,6H26.618ZM30,4H50V6H30ZM54,16v7.35l-6.079,2.7a10.936,10.936,0,0,1-4.467.95H35.833a13.063,13.063,0,0,0-5.814,1.373L26,30.382V16ZM29.913,34l-.166,2H10.253l-.166-2ZM25,60H12V58H28v2Zm5,0V57.042l.559-6.7.355-.177A11.033,11.033,0,0,1,35.833,49h7.621a12.91,12.91,0,0,0,5.279-1.121L54,45.539V60Z"/>
      <path id="Trazado_904631" data-name="Trazado 904631" d="M40,45a5.006,5.006,0,0,0,5-5c0-2.4-3.479-7.559-4.177-8.568a1.038,1.038,0,0,0-1.646,0C38.479,32.441,35,37.6,35,40a5.006,5.006,0,0,0,5,5Zm0-11.192c1.439,2.25,3,5.1,3,6.192a3,3,0,0,1-6,0C37,38.908,38.561,36.058,40,33.808Z"/>
      <path id="Trazado_904632" data-name="Trazado 904632" d="M13.562,48h2v2h-2Z" transform="translate(-3.028 1.004) rotate(-3.555)"/>
      <path id="Trazado_904633" data-name="Trazado 904633" d="M13.187,39.994h2v6.012h-2Z" transform="translate(-2.66 0.971) rotate(-3.555)"/>
    </g>
  </g>
</svg>
