<svg xmlns="http://www.w3.org/2000/svg" xmlns:xlink="http://www.w3.org/1999/xlink" width="108.914" height="108.914" viewBox="0 0 108.914 108.914">
  <defs>
    <filter id="Trazado_874925" x="0" y="0" width="108.914" height="108.914" filterUnits="userSpaceOnUse">
      <feOffset dy="3" input="SourceAlpha"/>
      <feGaussianBlur stdDeviation="3" result="blur"/>
      <feFlood flood-opacity="0.161"/>
      <feComposite operator="in" in2="blur"/>
      <feComposite in="SourceGraphic"/>
    </filter>
  </defs>
  <g id="Grupo_1112893" data-name="Grupo 1112893" transform="translate(3017.719 4398.604)">
    <g transform="matrix(1, 0, 0, 1, -3017.72, -4398.6)" filter="url(#Trazado_874925)">
      <g id="Trazado_874925-2" data-name="Trazado 874925" transform="translate(9 6)" fill="#f6d530" opacity="0.859">
        <path d="M 45.45676803588867 89.41407012939453 C 39.52198028564453 89.41407012939453 33.76551818847656 88.25206756591797 28.34726715087891 85.96034240722656 C 23.11311721801758 83.74648284912109 18.41204261779785 80.57682800292969 14.37464332580566 76.5394287109375 C 10.33724308013916 72.50202941894531 7.167593002319336 67.80095672607422 4.953730583190918 62.56679534912109 C 2.662005424499512 57.14855575561523 1.500005483627319 51.39208221435547 1.500005483627319 45.45729446411133 C 1.500005483627319 39.52198028564453 2.662005424499512 33.76551818847656 4.953730583190918 28.34726905822754 C 7.167593002319336 23.11310577392578 10.33724308013916 18.41203117370605 14.37464332580566 14.37464332580566 C 18.41204261779785 10.33724403381348 23.11311721801758 7.167593955993652 28.34726715087891 4.953731060028076 C 33.76551818847656 2.662006139755249 39.52198028564453 1.500006198883057 45.45676803588867 1.500006198883057 C 51.39155578613281 1.500006198883057 57.14802932739258 2.662006139755249 62.56626892089844 4.953731060028076 C 67.80043029785156 7.167593955993652 72.50150299072266 10.33724403381348 76.53890228271484 14.37464332580566 C 80.57630920410156 18.41203117370605 83.74595642089844 23.11310577392578 85.95981597900391 28.34726905822754 C 88.25154113769531 33.76551818847656 89.41354370117188 39.52198028564453 89.41354370117188 45.45676803588867 C 89.41354370117188 51.39208221435547 88.25154113769531 57.14855575561523 85.95981597900391 62.56679534912109 C 83.74595642089844 67.80095672607422 80.57630920410156 72.50202941894531 76.53890228271484 76.5394287109375 C 72.50150299072266 80.57682800292969 67.80043029785156 83.74648284912109 62.56626892089844 85.96034240722656 C 57.14802932739258 88.25206756591797 51.39155578613281 89.41407012939453 45.45676803588867 89.41407012939453 Z" stroke="none"/>
        <path d="M 45.45676803588867 3 C 39.72381210327148 3 34.1639404296875 4.12213134765625 28.93159484863281 6.335227966308594 C 23.87622833251953 8.473472595214844 19.33542633056641 11.53517150878906 15.43529510498047 15.435302734375 C 11.53517150878906 19.33543395996094 8.473464965820312 23.87622833251953 6.335227966308594 28.93160247802734 C 4.122123718261719 34.16394424438477 3 39.72381591796875 3 45.4572868347168 C 3 51.19024658203125 4.122123718261719 56.75011825561523 6.335227966308594 61.98246002197266 C 8.473464965820312 67.03782653808594 11.53517150878906 71.57862854003906 15.43529510498047 75.478759765625 C 19.33542633056641 79.37889099121094 23.87622833251953 82.44058990478516 28.93159484863281 84.57883453369141 C 34.1639404296875 86.79193115234375 39.72381210327148 87.9140625 45.45676803588867 87.9140625 C 51.18972396850586 87.9140625 56.74959564208984 86.79193115234375 61.98194122314453 84.57883453369141 C 67.03730773925781 82.44058990478516 71.57810974121094 79.37889099121094 75.47824096679688 75.478759765625 C 79.37837219238281 71.57862854003906 82.44007110595703 67.03782653808594 84.57830810546875 61.98246002197266 C 86.79141235351562 56.75011825561523 87.91353607177734 51.19024658203125 87.91353607177734 45.4567756652832 C 87.91353607177734 39.72381591796875 86.79141235351562 34.16394424438477 84.57830810546875 28.93160247802734 C 82.44007110595703 23.87622833251953 79.37837219238281 19.33543395996094 75.47824096679688 15.435302734375 C 71.57810974121094 11.53517150878906 67.03730773925781 8.473472595214844 61.98194122314453 6.335227966308594 C 56.74959564208984 4.12213134765625 51.18972396850586 3 45.45676803588867 3 M 45.45676803588867 0 C 70.56185150146484 0 90.91353607177734 20.35169219970703 90.91353607177734 45.4567756652832 L 90.91353607177734 45.4572868347168 C 90.91353607177734 70.5623779296875 70.56185150146484 90.9140625 45.45676803588867 90.9140625 C 20.3516845703125 90.9140625 0 70.5623779296875 0 45.4572868347168 L 0 45.4567756652832 C 0 20.35169219970703 20.3516845703125 0 45.45676803588867 0 Z" stroke="none" fill="#fff"/>
      </g>
    </g>
    <g id="Grupo_1112777" data-name="Grupo 1112777" transform="translate(-2992.607 -4377.114)">
      <path id="Trazado_904667" data-name="Trazado 904667" d="M23.591,36.7V24.22a18.724,18.724,0,0,0-2.6-9.521L17.507,8.808V6H9.084V8.808L5.6,14.7A18.725,18.725,0,0,0,3,24.22V36.7a10.315,10.315,0,0,0,.242,2.22l1.151,5.205a11.128,11.128,0,0,1,.262,2.4,16.455,16.455,0,0,1-1.266,6.067A5.63,5.63,0,0,0,3,54.67c0,2.584,1.676,4.68,3.744,4.68A3.182,3.182,0,0,0,8.8,58.569a1.892,1.892,0,0,1,2.443,0,3.094,3.094,0,0,0,4.109,0,1.892,1.892,0,0,1,2.443,0,3.182,3.182,0,0,0,2.05.781c2.068,0,3.744-2.1,3.744-4.68a5.63,5.63,0,0,0-.388-2.078,16.455,16.455,0,0,1-1.266-6.065,11.125,11.125,0,0,1,.262-2.4l1.151-5.2a10.319,10.319,0,0,0,.242-2.224Z" transform="translate(-0.048 -0.368)" fill="#fff078"/>
      <path id="Trazado_904668" data-name="Trazado 904668" d="M8.1,14.7A18.725,18.725,0,0,0,5.5,24.22V36.7a10.316,10.316,0,0,0,.242,2.22l1.151,5.205a11.128,11.128,0,0,1,.262,2.4,16.459,16.459,0,0,1-1.266,6.067A5.63,5.63,0,0,0,5.5,54.67,4.68,4.68,0,0,0,8.088,59.1a3.439,3.439,0,0,0,.87-.53,1.892,1.892,0,0,1,2.443,0,3.094,3.094,0,0,0,4.109,0,1.892,1.892,0,0,1,2.443,0,3.182,3.182,0,0,0,2.054.781c2.068,0,3.744-2.1,3.744-4.68a5.63,5.63,0,0,0-.388-2.078A16.459,16.459,0,0,1,22.1,46.527a11.125,11.125,0,0,1,.262-2.4l1.151-5.2a10.319,10.319,0,0,0,.242-2.224V24.22a18.724,18.724,0,0,0-2.6-9.521L17.667,8.808V6H11.583V8.808Z" transform="translate(-0.208 -0.368)" fill="#ffe141"/>
      <path id="Trazado_904669" data-name="Trazado 904669" d="M3,25.309V36.1H23.591V25.309A18.8,18.8,0,0,0,23.448,23H3.143A18.8,18.8,0,0,0,3,25.309Z" transform="translate(-0.048 -1.457)" fill="#a1e841"/>
      <path id="Trazado_904670" data-name="Trazado 904670" d="M5.649,23A18.619,18.619,0,0,0,5.5,25.309V36.1H23.751V25.309A18.8,18.8,0,0,0,23.608,23Z" transform="translate(-0.208 -1.457)" fill="#7ee136"/>
      <path id="Trazado_904671" data-name="Trazado 904671" d="M9.872,1H17.36a1.872,1.872,0,0,1,1.872,1.872V5.68H8V2.872A1.872,1.872,0,0,1,9.872,1Z" transform="translate(-0.368 -0.048)" fill="#f66e78"/>
      <path id="Trazado_904672" data-name="Trazado 904672" d="M10,4.872v.936h9.36V3H11.872A1.872,1.872,0,0,0,10,4.872Z" transform="translate(-0.496 -0.176)" fill="#f44e55"/>
      <path id="Trazado_904673" data-name="Trazado 904673" d="M6.545,13.488H20.5l-2.766-4.68V6H9.311V8.808Z" transform="translate(-0.275 -0.368)" fill="#fbf6f2"/>
      <path id="Trazado_904674" data-name="Trazado 904674" d="M9.045,13.488H20.66l-2.766-4.68V6H11.811V8.808Z" transform="translate(-0.435 -0.368)" fill="#f4eee8"/>
      <path id="Trazado_904675" data-name="Trazado 904675" d="M59.591,36.7V24.22a18.724,18.724,0,0,0-2.6-9.521L53.507,8.808V6H45.084V8.808L41.6,14.7A18.725,18.725,0,0,0,39,24.22V36.7a10.315,10.315,0,0,0,.242,2.22l1.151,5.205a11.128,11.128,0,0,1,.262,2.4,16.455,16.455,0,0,1-1.266,6.068A5.63,5.63,0,0,0,39,54.67c0,2.584,1.676,4.68,3.744,4.68a3.182,3.182,0,0,0,2.059-.781,1.892,1.892,0,0,1,2.443,0,3.094,3.094,0,0,0,4.109,0,1.892,1.892,0,0,1,2.443,0,3.182,3.182,0,0,0,2.05.781c2.068,0,3.744-2.1,3.744-4.68a5.63,5.63,0,0,0-.388-2.078,16.455,16.455,0,0,1-1.266-6.065,11.125,11.125,0,0,1,.262-2.4l1.15-5.2a10.318,10.318,0,0,0,.242-2.224Z" transform="translate(-2.353 -0.368)" fill="#f66e78"/>
      <path id="Trazado_904676" data-name="Trazado 904676" d="M44.1,14.7a18.725,18.725,0,0,0-2.6,9.522V36.7a10.315,10.315,0,0,0,.242,2.22l1.151,5.205a11.128,11.128,0,0,1,.262,2.4,16.459,16.459,0,0,1-1.266,6.068A5.63,5.63,0,0,0,41.5,54.67,4.68,4.68,0,0,0,44.088,59.1a3.439,3.439,0,0,0,.87-.53,1.892,1.892,0,0,1,2.443,0,3.094,3.094,0,0,0,4.109,0,1.892,1.892,0,0,1,2.443,0,3.182,3.182,0,0,0,2.054.781c2.068,0,3.744-2.1,3.744-4.68a5.63,5.63,0,0,0-.388-2.078A16.459,16.459,0,0,1,58.1,46.527a11.125,11.125,0,0,1,.262-2.4l1.151-5.2a10.318,10.318,0,0,0,.242-2.224V24.22a18.724,18.724,0,0,0-2.6-9.521L53.667,8.808V6H47.583V8.808Z" transform="translate(-2.513 -0.368)" fill="#f44e55"/>
      <path id="Trazado_904677" data-name="Trazado 904677" d="M39,25.309V36.1H59.591V25.309A18.8,18.8,0,0,0,59.448,23h-20.3A18.8,18.8,0,0,0,39,25.309Z" transform="translate(-2.353 -1.457)" fill="#a1e841"/>
      <path id="Trazado_904678" data-name="Trazado 904678" d="M41.649,23a18.62,18.62,0,0,0-.149,2.309V36.1H59.751V25.309A18.8,18.8,0,0,0,59.608,23Z" transform="translate(-2.513 -1.457)" fill="#66ca39"/>
      <path id="Trazado_904679" data-name="Trazado 904679" d="M45.872,1H53.36a1.872,1.872,0,0,1,1.872,1.872V5.68H44V2.872A1.872,1.872,0,0,1,45.872,1Z" transform="translate(-2.674 -0.048)" fill="#f66e78"/>
      <path id="Trazado_904680" data-name="Trazado 904680" d="M46,4.872v.936h9.36V3H47.872A1.872,1.872,0,0,0,46,4.872Z" transform="translate(-2.802 -0.176)" fill="#f44e55"/>
      <path id="Trazado_904681" data-name="Trazado 904681" d="M42.545,13.488H56.5l-2.766-4.68V6H45.311V8.808Z" transform="translate(-2.58 -0.368)" fill="#fbf6f2"/>
      <path id="Trazado_904682" data-name="Trazado 904682" d="M45.045,13.488H56.66l-2.766-4.68V6H47.811V8.808Z" transform="translate(-2.741 -0.368)" fill="#f4eee8"/>
      <path id="Trazado_904683" data-name="Trazado 904683" d="M41.591,36.7V24.22a18.724,18.724,0,0,0-2.6-9.521L35.507,8.808V6H27.084V8.808L23.6,14.7A18.725,18.725,0,0,0,21,24.22V36.7a10.315,10.315,0,0,0,.242,2.22l1.151,5.205a11.128,11.128,0,0,1,.262,2.4,16.455,16.455,0,0,1-1.266,6.068A5.63,5.63,0,0,0,21,54.67c0,2.584,1.676,4.68,3.744,4.68a3.182,3.182,0,0,0,2.059-.781,1.892,1.892,0,0,1,2.443,0,3.094,3.094,0,0,0,4.109,0,1.892,1.892,0,0,1,2.443,0,3.182,3.182,0,0,0,2.05.781c2.068,0,3.744-2.1,3.744-4.68a5.63,5.63,0,0,0-.388-2.078,16.455,16.455,0,0,1-1.266-6.065,11.126,11.126,0,0,1,.262-2.4l1.151-5.2A10.319,10.319,0,0,0,41.591,36.7Z" transform="translate(-1.201 -0.368)" fill="#966453"/>
      <path id="Trazado_904684" data-name="Trazado 904684" d="M26.1,14.7a18.725,18.725,0,0,0-2.6,9.522V36.7a10.315,10.315,0,0,0,.242,2.22l1.151,5.205a11.128,11.128,0,0,1,.262,2.4,16.459,16.459,0,0,1-1.266,6.068A5.63,5.63,0,0,0,23.5,54.67,4.68,4.68,0,0,0,26.088,59.1a3.439,3.439,0,0,0,.87-.53,1.892,1.892,0,0,1,2.443,0,3.094,3.094,0,0,0,4.109,0,1.892,1.892,0,0,1,2.443,0,3.182,3.182,0,0,0,2.054.781c2.068,0,3.744-2.1,3.744-4.68a5.63,5.63,0,0,0-.388-2.078A16.459,16.459,0,0,1,40.1,46.527a11.125,11.125,0,0,1,.262-2.4l1.151-5.2a10.319,10.319,0,0,0,.242-2.224V24.22a18.724,18.724,0,0,0-2.6-9.521L35.667,8.808V6H29.583V8.808Z" transform="translate(-1.36 -0.368)" fill="#845344"/>
      <path id="Trazado_904685" data-name="Trazado 904685" d="M21,25.309V36.1H41.591V25.309A18.8,18.8,0,0,0,41.448,23h-20.3A18.8,18.8,0,0,0,21,25.309Z" transform="translate(-1.201 -1.457)" fill="#a1e841"/>
      <path id="Trazado_904686" data-name="Trazado 904686" d="M23.649,23a18.62,18.62,0,0,0-.149,2.309V36.1H41.751V25.309A18.8,18.8,0,0,0,41.608,23Z" transform="translate(-1.361 -1.457)" fill="#7ee136"/>
      <path id="Trazado_904687" data-name="Trazado 904687" d="M27.872,1H35.36a1.872,1.872,0,0,1,1.872,1.872V5.68H26V2.872A1.872,1.872,0,0,1,27.872,1Z" transform="translate(-1.521 -0.048)" fill="#f66e78"/>
      <path id="Trazado_904688" data-name="Trazado 904688" d="M28,4.872v.936h9.36V3H29.872A1.872,1.872,0,0,0,28,4.872Z" transform="translate(-1.649 -0.176)" fill="#f44e55"/>
      <path id="Trazado_904689" data-name="Trazado 904689" d="M24.545,13.488H38.5l-2.766-4.68V6H27.311V8.808Z" transform="translate(-1.428 -0.368)" fill="#fbf6f2"/>
      <path id="Trazado_904690" data-name="Trazado 904690" d="M27.045,13.488H38.66l-2.766-4.68V6H29.811V8.808Z" transform="translate(-1.588 -0.368)" fill="#f4eee8"/>
      <path id="Trazado_904691" data-name="Trazado 904691" d="M53.44,31.25H45.952a.7.7,0,0,0,0,1.4H53.44a.7.7,0,1,0,0-1.4Z" transform="translate(-2.754 -1.985)"/>
      <path id="Trazado_904692" data-name="Trazado 904692" d="M17.44,31.25H9.952a.7.7,0,0,0,0,1.4H17.44a.7.7,0,0,0,0-1.4Z" transform="translate(-0.448 -1.985)"/>
      <path id="Trazado_904693" data-name="Trazado 904693" d="M24.952,28.654h13.1a.7.7,0,1,0,0-1.4h-13.1a.7.7,0,0,0,0,1.4Z" transform="translate(-1.409 -1.729)"/>
      <path id="Trazado_904694" data-name="Trazado 904694" d="M36.312,31.25h-9.36a.7.7,0,0,0,0,1.4h9.36a.7.7,0,1,0,0-1.4Z" transform="translate(-1.537 -1.985)"/>
      <path id="Trazado_904695" data-name="Trazado 904695" d="M57.68,38.7a11,11,0,0,0,.259-2.373V23.853a19.429,19.429,0,0,0-2.7-9.879L51.856,8.252V6.334h.7a.7.7,0,0,0,.7-.7V2.824A2.576,2.576,0,0,0,50.686.25H43.2a2.576,2.576,0,0,0-2.574,2.574V5.632a.7.7,0,0,0,.7.7h.7V8.252l-3.384,5.725c-.045.076-.081.157-.125.234-.044-.078-.082-.158-.128-.235L35.009,8.252V6.334h.7a.7.7,0,0,0,.7-.7V2.824A2.576,2.576,0,0,0,33.839.25H26.351a2.576,2.576,0,0,0-2.574,2.574V5.632a.7.7,0,0,0,.7.7h.7V8.252L21.8,13.977c-.046.077-.084.157-.128.235-.044-.078-.081-.158-.126-.235L18.161,8.252V6.334h.7a.7.7,0,0,0,.7-.7V2.824A2.576,2.576,0,0,0,16.991.25H9.5A2.576,2.576,0,0,0,6.93,2.824V5.632a.7.7,0,0,0,.7.7h.7V8.252l-3.383,5.72a19.432,19.432,0,0,0-2.7,9.881V36.331A11,11,0,0,0,2.509,38.7l1.15,5.209A10.424,10.424,0,0,1,3.9,46.159a15.607,15.607,0,0,1-1.217,5.809A6.285,6.285,0,0,0,2.25,54.3c0,2.968,1.995,5.382,4.446,5.382A3.873,3.873,0,0,0,9.2,58.739a1.183,1.183,0,0,1,1.541,0,3.849,3.849,0,0,0,5.011,0,1.183,1.183,0,0,1,1.541,0,3.873,3.873,0,0,0,2.506.944,3.818,3.818,0,0,0,1.872-.506,3.793,3.793,0,0,0,1.872.506,3.869,3.869,0,0,0,2.5-.944,1.185,1.185,0,0,1,1.542,0,3.845,3.845,0,0,0,5.01,0,1.185,1.185,0,0,1,1.542,0,3.869,3.869,0,0,0,2.506.944,3.779,3.779,0,0,0,1.872-.509,3.849,3.849,0,0,0,4.375-.435,1.183,1.183,0,0,1,1.541,0,3.849,3.849,0,0,0,5.011,0,1.183,1.183,0,0,1,1.541,0,3.873,3.873,0,0,0,2.508.944c2.451,0,4.446-2.414,4.446-5.382a6.285,6.285,0,0,0-.438-2.34,15.607,15.607,0,0,1-1.217-5.809,10.42,10.42,0,0,1,.245-2.245ZM56.536,23.853V33.945H41.092v-7.02h12.4a.7.7,0,1,0,0-1.4h-12.4V23.853c0-.538-.03-1.074-.075-1.608H56.454c.049.533.081,1.07.081,1.608ZM42.028,2.824a1.172,1.172,0,0,1,1.17-1.17h7.488a1.172,1.172,0,0,1,1.17,1.17V4.93H42.028ZM43.339,8.8a.708.708,0,0,0,.094-.358V6.334h7.02V8.44a.708.708,0,0,0,.094.358l2.143,3.62H41.2Zm-3.481,5.89.511-.866h13.15l.511.866a18,18,0,0,1,2.246,6.154H40.847A19.416,19.416,0,0,0,39.3,15.724c.177-.35.358-.7.556-1.037Zm-.166,9.166V33.945H20.5V23.853c0-.538.033-1.074.081-1.608H39.607c.049.533.081,1.07.081,1.608ZM25.181,2.824a1.172,1.172,0,0,1,1.17-1.17h7.488a1.172,1.172,0,0,1,1.17,1.17V4.93H25.181ZM26.491,8.8a.708.708,0,0,0,.094-.358V6.334H33.6V8.44A.708.708,0,0,0,33.7,8.8l2.143,3.62H24.348Zm-3.481,5.89.511-.866h13.15l.511.866a18,18,0,0,1,2.246,6.154H20.765a18,18,0,0,1,2.242-6.154ZM8.334,2.824A1.172,1.172,0,0,1,9.5,1.654h7.488a1.172,1.172,0,0,1,1.17,1.17V4.93H8.334ZM9.644,8.8a.708.708,0,0,0,.094-.358V6.334h7.02V8.44a.708.708,0,0,0,.094.358l2.143,3.62H7.5ZM6.16,14.687l.511-.866H19.825l.511.865c.2.337.379.688.557,1.038a19.382,19.382,0,0,0-1.55,5.117H3.918A18,18,0,0,1,6.16,14.687ZM3.654,23.853c0-.538.033-1.074.081-1.608H19.172c-.045.533-.075,1.07-.075,1.608v1.668H6.7a.7.7,0,1,0,0,1.4H19.1v7.02H3.654ZM18.2,57.663a2.606,2.606,0,0,0-3.344,0,2.426,2.426,0,0,1-3.208,0,2.606,2.606,0,0,0-3.344,0,2.487,2.487,0,0,1-1.6.617c-1.677,0-3.042-1.784-3.042-3.978a4.906,4.906,0,0,1,.339-1.819,16.978,16.978,0,0,0,1.316-6.324,11.878,11.878,0,0,0-.281-2.552l-1.15-5.2a9.564,9.564,0,0,1-.224-2.071v-.983H19.1v.983a11,11,0,0,0,.259,2.373l1.15,5.209a10.36,10.36,0,0,1,.246,2.246,15.607,15.607,0,0,1-1.217,5.809A6.285,6.285,0,0,0,19.1,54.3a5.954,5.954,0,0,0,1.366,3.872,2.44,2.44,0,0,1-2.268-.511Zm18.452.617a2.492,2.492,0,0,1-1.6-.617,2.6,2.6,0,0,0-3.344,0,2.428,2.428,0,0,1-3.208,0,2.6,2.6,0,0,0-3.344,0,2.491,2.491,0,0,1-1.6.617C21.866,58.28,20.5,56.5,20.5,54.3a4.906,4.906,0,0,1,.339-1.819,16.978,16.978,0,0,0,1.316-6.324,11.807,11.807,0,0,0-.281-2.552l-1.149-5.2a9.564,9.564,0,0,1-.225-2.071v-.983H39.688v.983a9.566,9.566,0,0,1-.227,2.072l-1.149,5.2a11.808,11.808,0,0,0-.281,2.552,16.978,16.978,0,0,0,1.316,6.326,4.906,4.906,0,0,1,.341,1.818c0,2.194-1.365,3.978-3.042,3.978ZM55.159,43.6a11.878,11.878,0,0,0-.281,2.552,16.978,16.978,0,0,0,1.316,6.326,4.906,4.906,0,0,1,.342,1.819c0,2.194-1.365,3.978-3.042,3.978a2.491,2.491,0,0,1-1.6-.617,2.606,2.606,0,0,0-3.344,0,2.426,2.426,0,0,1-3.208,0,2.606,2.606,0,0,0-3.344,0,2.434,2.434,0,0,1-2.267.511A5.956,5.956,0,0,0,41.092,54.3a6.285,6.285,0,0,0-.438-2.34,15.607,15.607,0,0,1-1.217-5.809,10.363,10.363,0,0,1,.246-2.248l1.149-5.2a11,11,0,0,0,.259-2.371v-.983H56.536v.983a9.567,9.567,0,0,1-.227,2.072Z"/>
    </g>
  </g>
</svg>
