<svg xmlns="http://www.w3.org/2000/svg" width="85" height="85" viewBox="0 0 85 85">
  <g id="Grupo_1112876" data-name="Grupo 1112876" transform="translate(-295.051 -5426)">
    <g id="Grupo_1112540" data-name="Grupo 1112540" transform="translate(232.978 5430.5)">
      <g id="Grupo_1112538" data-name="Grupo 1112538" transform="translate(84.073 7.5)">
        <path id="Trazado_903912" data-name="Trazado 903912" d="M185.817,290.73H177.95l-3.46-15.947-3.46,15.947h-7.867L167,268.512h14.97Z" transform="translate(-153.512 -236.665)" fill="#60b7ff"/>
        <path id="Trazado_903913" data-name="Trazado 903913" d="M203.184,319.913h1.355l-3.46,15.947h-3.691l2.965-13.663A2.9,2.9,0,0,1,203.184,319.913Z" transform="translate(-183.562 -281.794)" fill="#26a6fe"/>
        <path id="Trazado_903914" data-name="Trazado 903914" d="M294.625,290.73h-3.691l-3.843-22.218h3.691Z" transform="translate(-262.32 -236.665)" fill="#26a6fe"/>
        <path id="Trazado_903915" data-name="Trazado 903915" d="M222.929,18.684h0a4.6,4.6,0,0,1-4.6-4.6V11.976a3.546,3.546,0,0,1,3.546-3.545h2.1a3.546,3.546,0,0,1,3.545,3.545v2.113A4.6,4.6,0,0,1,222.929,18.684Z" transform="translate(-201.952 -8.317)" fill="#ffdfcf"/>
        <path id="Trazado_903916" data-name="Trazado 903916" d="M247.31,11.976V14a4.656,4.656,0,0,1-4.574,4.688,4.571,4.571,0,0,1-1.867-.386,4.6,4.6,0,0,0,2.75-4.209V10.967c0-1.4-.554-2.536-1.954-2.536h2.1A3.545,3.545,0,0,1,247.31,11.976Z" transform="translate(-221.738 -8.317)" fill="#ffcebf"/>
        <path id="Trazado_903917" data-name="Trazado 903917" d="M186.908,92.2l-2.869,2.868a2.728,2.728,0,0,0-.8,1.929v13.57H168.27V96.992a2.727,2.727,0,0,0-.8-1.929L164.6,92.2l4.166-4.166,1.392,1.392a7.91,7.91,0,0,0,5.594,2.317h0a7.911,7.911,0,0,0,5.593-2.316l1.394-1.393Z" transform="translate(-154.777 -78.203)" fill="#fee97d"/>
        <path id="Trazado_903918" data-name="Trazado 903918" d="M294.449,108.894l-2.868,2.868a2.727,2.727,0,0,0-.8,1.929v13.569H287.09v-13.57a2.727,2.727,0,0,1,.8-1.929l4.714-4.714Z" transform="translate(-262.319 -94.902)" fill="#fedf30"/>
        <circle id="Elipse_14893" data-name="Elipse 14893" cx="10.195" cy="10.195" r="10.195" transform="translate(10.783 17.729)" fill="#70d162"/>
        <path id="Trazado_903919" data-name="Trazado 903919" d="M252.913,163a10.206,10.206,0,0,1-12.04,10.028,10.2,10.2,0,0,0,0-20.058A10.206,10.206,0,0,1,252.913,163Z" transform="translate(-221.741 -135.074)" fill="#58c945"/>
        <path id="Trazado_903920" data-name="Trazado 903920" d="M206.5,206.291l-2.023-2.023a1.835,1.835,0,0,0-2.6,0h0a1.835,1.835,0,0,0,0,2.595l3.483,3.483a2.018,2.018,0,0,0,2.854,0l5.294-5.294a1.835,1.835,0,0,0,0-2.6h0a1.835,1.835,0,0,0-2.6,0l-3.834,3.834A.412.412,0,0,1,206.5,206.291Z" transform="translate(-187.032 -178.197)" fill="#dcf5f8"/>
        <path id="Trazado_903921" data-name="Trazado 903921" d="M326.39,12.529l-8.962,8.963-4.166-4.166,8.962-8.963a2.946,2.946,0,0,1,4.166,4.166Z" transform="translate(-285.298 -7.5)" fill="#ffdfcf"/>
        <path id="Trazado_903922" data-name="Trazado 903922" d="M343.086,12.532l-8.961,8.963-1.846-1.846,7.116-7.117a2.946,2.946,0,0,0,0-4.166,2.778,2.778,0,0,0-.237-.213,2.946,2.946,0,0,1,3.929,4.379Z" transform="translate(-301.995 -7.502)" fill="#ffcebf"/>
        <path id="Trazado_903923" data-name="Trazado 903923" d="M98.065,17.326,93.9,21.492l-8.963-8.963A2.946,2.946,0,0,1,89.1,8.363Z" transform="translate(-84.073 -7.5)" fill="#ffdfcf"/>
        <path id="Trazado_903924" data-name="Trazado 903924" d="M292.741,457.184h-5.466a1.859,1.859,0,0,1-1.843-1.627l-1.074-4.949h7.867l1.94,4.388A1.559,1.559,0,0,1,292.741,457.184Z" transform="translate(-259.921 -396.543)" fill="#918291"/>
        <path id="Trazado_903925" data-name="Trazado 903925" d="M322.792,457.184H319.1A1.559,1.559,0,0,0,320.525,455l-1.94-4.388h3.691l1.94,4.388A1.559,1.559,0,0,1,322.792,457.184Z" transform="translate(-289.971 -396.544)" fill="#7a6d79"/>
        <path id="Trazado_903926" data-name="Trazado 903926" d="M156.1,450.608l-1.074,4.949a1.858,1.858,0,0,1-1.843,1.627h-5.466A1.559,1.559,0,0,1,146.292,455l1.94-4.388H156.1Z" transform="translate(-138.583 -396.543)" fill="#918291"/>
        <path id="Trazado_903927" data-name="Trazado 903927" d="M180.086,450.608l-1.074,4.949a1.858,1.858,0,0,1-1.843,1.627h-3.691a1.859,1.859,0,0,0,1.843-1.627l1.074-4.949Z" transform="translate(-162.569 -396.543)" fill="#7a6d79"/>
      </g>
      <g id="Grupo_1112539" data-name="Grupo 1112539" transform="translate(84.073 7.5)">
        <path id="Trazado_903928" data-name="Trazado 903928" d="M150.775,294.021l-2.542,14.7-1.94,4.388a1.558,1.558,0,0,0,1.424,2.188h5.466a1.858,1.858,0,0,0,1.843-1.627l4.534-20.9,4.534,20.9a1.858,1.858,0,0,0,1.843,1.627H171.4a1.558,1.558,0,0,0,1.424-2.188l-1.94-4.388L167.477,289" transform="translate(-138.583 -254.655)" fill="none" stroke="#000" stroke-linecap="round" stroke-linejoin="round" stroke-miterlimit="10" stroke-width="2"/>
        <path id="Trazado_903929" data-name="Trazado 903929" d="M222.933,18.684h0a4.6,4.6,0,0,1-4.6-4.6V11.976a3.545,3.545,0,0,1,3.545-3.545h2.1a3.546,3.546,0,0,1,3.545,3.545v2.113A4.6,4.6,0,0,1,222.933,18.684Z" transform="translate(-201.956 -8.317)" fill="none" stroke="#000" stroke-linecap="round" stroke-linejoin="round" stroke-miterlimit="10" stroke-width="2"/>
        <path id="Trazado_903930" data-name="Trazado 903930" d="M168.269,99.207V96.992a2.727,2.727,0,0,0-.8-1.929L164.6,92.2l4.166-4.166,1.392,1.392a7.91,7.91,0,0,0,5.594,2.317h0a7.911,7.911,0,0,0,5.593-2.316l1.394-1.393,4.166,4.166-2.869,2.868a2.728,2.728,0,0,0-.8,1.929v2.215" transform="translate(-154.776 -78.203)" fill="none" stroke="#000" stroke-linecap="round" stroke-linejoin="round" stroke-miterlimit="10" stroke-width="2"/>
        <path id="Trazado_903931" data-name="Trazado 903931" d="M181.341,152.888a10.193,10.193,0,1,1-3.893,1.338" transform="translate(-161.663 -135.077)" fill="none" stroke="#000" stroke-linecap="round" stroke-linejoin="round" stroke-miterlimit="10" stroke-width="2"/>
        <path id="Trazado_903932" data-name="Trazado 903932" d="M206.5,206.291l-2.023-2.023a1.835,1.835,0,0,0-2.6,0h0a1.835,1.835,0,0,0,0,2.595l3.483,3.483a2.018,2.018,0,0,0,2.854,0l5.294-5.294a1.835,1.835,0,0,0,0-2.6h0a1.835,1.835,0,0,0-2.6,0l-3.834,3.834A.412.412,0,0,1,206.5,206.291Z" transform="translate(-187.032 -178.197)" fill="none" stroke="#000" stroke-linecap="round" stroke-linejoin="round" stroke-miterlimit="10" stroke-width="2"/>
        <path id="Trazado_903933" data-name="Trazado 903933" d="M321.277,9.309l.946-.946a2.946,2.946,0,0,1,4.166,4.166l-8.962,8.963-4.166-4.166,4.95-4.951" transform="translate(-285.298 -7.5)" fill="none" stroke="#000" stroke-linecap="round" stroke-linejoin="round" stroke-miterlimit="10" stroke-width="2"/>
        <path id="Trazado_903934" data-name="Trazado 903934" d="M98.065,17.326,93.9,21.492l-8.963-8.963A2.946,2.946,0,0,1,89.1,8.363Z" transform="translate(-84.073 -7.5)" fill="none" stroke="#000" stroke-linecap="round" stroke-linejoin="round" stroke-miterlimit="10" stroke-width="2"/>
        <line id="Línea_649" data-name="Línea 649" x1="7.867" transform="translate(24.437 54.065)" fill="none" stroke="#000" stroke-linecap="round" stroke-linejoin="round" stroke-miterlimit="10" stroke-width="2"/>
        <line id="Línea_650" data-name="Línea 650" x2="7.867" transform="translate(9.65 54.065)" fill="none" stroke="#000" stroke-linecap="round" stroke-linejoin="round" stroke-miterlimit="10" stroke-width="2"/>
      </g>
    </g>
    <rect id="Rectángulo_405231" data-name="Rectángulo 405231" width="85" height="85" transform="translate(295.051 5426)" fill="none"/>
  </g>
</svg>
