<svg xmlns="http://www.w3.org/2000/svg" width="84.472" height="84.454" viewBox="0 0 84.472 84.454">
  <g id="Grupo_1112806" data-name="Grupo 1112806" transform="translate(-6.474 -6.483)">
    <g id="Grupo_1112791" data-name="Grupo 1112791" transform="translate(7.5 7.501)">
      <g id="Grupo_1112781" data-name="Grupo 1112781" transform="translate(6.131)">
        <g id="Grupo_1112778" data-name="Grupo 1112778" transform="translate(8.098)">
          <path id="Trazado_904696" data-name="Trazado 904696" d="M128.191,23.742a6.348,6.348,0,0,0-5.128-.345c1.174-3.961.381-7.782-2.159-9.2-2.071-1.156-4.773-.418-7.061,1.636-.881-3.83-4.386-9.531-8.952-8.109s-4.412,8.164-3.081,11.856c-3.011-.4-5.657.523-6.757,2.667-1.35,2.63.049,6.262,3.16,8.889a6.544,6.544,0,0,0-4.082,3.213c-4.093,7.972,7.632,15.355,13.786,15.809l4.375,14.877A9.059,9.059,0,0,0,123.6,71.349h0a9.414,9.414,0,0,0,6.01-11.707l-4.375-14.877C130.116,40.872,135.89,28.041,128.191,23.742Z" transform="translate(-93.284 -7.501)" fill="#9be69d"/>
        </g>
        <g id="Grupo_1112780" data-name="Grupo 1112780" transform="translate(0 27.597)">
          <path id="Trazado_904697" data-name="Trazado 904697" d="M72.232,218.784c6.486-1.359,18.088-10.766,12.842-18.518a6.739,6.739,0,0,0-4.7-2.776c3-3.194,4.078-7.2,2.347-9.753-1.411-2.085-4.325-2.676-7.475-1.821.994-4.052.394-11.13-4.613-11.963s-8.082,5.632-8.583,9.769c-2.661-1.821-5.613-2.206-7.68-.7-2.535,1.848-2.944,5.96-1.25,9.936a6.947,6.947,0,0,0-5.4,1.1c-7.687,5.6-.1,18.2,5.519,21.571Z" transform="translate(-44.46 -173.879)" fill="#9be69d"/>
          <g id="Grupo_1112779" data-name="Grupo 1112779" transform="translate(18.727)">
            <path id="Trazado_904698" data-name="Trazado 904698" d="M160.73,179.084c4.41.733,5.541,6.112,5.161,10.312a1.649,1.649,0,0,0,1.753,1.793c2.433-.179,4.539.568,5.688,2.266,1.8,2.666.685,6.838-2.447,10.169a7.025,7.025,0,0,1,4.9,2.894,7.647,7.647,0,0,1,1.286,5.581c3.158-3.522,4.848-7.892,2.18-11.834a6.739,6.739,0,0,0-4.7-2.776c3-3.194,4.078-7.2,2.347-9.753-1.411-2.085-4.325-2.676-7.475-1.821.994-4.052.394-11.13-4.613-11.963-3.5-.582-6.058,2.4-7.45,5.667A5.3,5.3,0,0,1,160.73,179.084Z" transform="translate(-157.361 -173.879)" fill="#6fd7a3"/>
          </g>
          <path id="Trazado_904699" data-name="Trazado 904699" d="M135.7,359.751l-8.78,3.622-6.978-6.242" transform="translate(-107.419 -326.735)" fill="none"/>
        </g>
      </g>
      <g id="Grupo_1112784" data-name="Grupo 1112784" transform="translate(34.3 8.585)">
        <path id="Trazado_904700" data-name="Trazado 904700" d="M232.838,111.929a71.847,71.847,0,0,0,41.984,0l-4.64-12.575L255.926,60.718a2.234,2.234,0,0,0-4.192,0L237.478,99.354Z" transform="translate(-229.762 -59.257)" fill="#fd8087" stroke="#000" stroke-miterlimit="10" stroke-width="2"/>
        <path id="Trazado_904701" data-name="Trazado 904701" d="M352.43,99.354l5.291,14.123q3.016-.644,5.983-1.547l-4.64-12.575L344.809,60.718a2.234,2.234,0,0,0-4.192,0l-1.221,3.31Z" transform="translate(-318.645 -59.257)" fill="#fe646f" stroke="#000" stroke-miterlimit="10" stroke-width="2"/>
        <g id="Grupo_1112782" data-name="Grupo 1112782" transform="translate(0 52.672)">
          <path id="Trazado_904702" data-name="Trazado 904702" d="M217.368,376.809l-2.938,7.961a2.238,2.238,0,0,0,1.412,2.9,72.863,72.863,0,0,0,45.036,0,2.239,2.239,0,0,0,1.412-2.9l-2.937-7.961A71.848,71.848,0,0,1,217.368,376.809Z" transform="translate(-214.292 -376.809)" fill="#9be69d"/>
        </g>
        <g id="Grupo_1112783" data-name="Grupo 1112783" transform="translate(39.016 52.672)">
          <path id="Trazado_904703" data-name="Trazado 904703" d="M458.5,384.77l-2.938-7.961q-2.994.915-6.044,1.56l3.122,8.244a2.233,2.233,0,0,1-.721,2.53q2.607-.64,5.169-1.472A2.239,2.239,0,0,0,458.5,384.77Z" transform="translate(-449.516 -376.809)" fill="#6fd7a3"/>
        </g>
      </g>
      <g id="Grupo_1112787" data-name="Grupo 1112787" transform="translate(0 29.834)">
        <path id="Trazado_904704" data-name="Trazado 904704" d="M19.223,187.367a25.9,25.9,0,0,0-5.2,8.647q-.32.887-.572,1.78l6.747.015a21.81,21.81,0,0,1,.753-9.036Z" transform="translate(-12.466 -187.367)" fill="#ae6c6c"/>
        <g id="Grupo_1112785" data-name="Grupo 1112785" transform="translate(0 10.427)">
          <path id="Trazado_904705" data-name="Trazado 904705" d="M29.814,268.333a22.092,22.092,0,0,1-14.58-18.089l-6.747-.015a25.981,25.981,0,0,0,46.157,22.13,4.309,4.309,0,0,0-.133-5.169l-.024-.031a4.33,4.33,0,0,0-5.71-.957A21.979,21.979,0,0,1,29.814,268.333Z" transform="translate(-7.5 -250.229)" fill="#ffe177"/>
        </g>
        <g id="Grupo_1112786" data-name="Grupo 1112786" transform="translate(0.983 10.427)">
          <path id="Trazado_904706" data-name="Trazado 904706" d="M168.546,344.131l-.024-.031a4.33,4.33,0,0,0-5.71-.957q-.573.358-1.166.68c.083.089.164.18.241.277l.024.031a4.309,4.309,0,0,1,.133,5.169,26.039,26.039,0,0,1-17.834,10.677A26.019,26.019,0,0,0,168.679,349.3,4.308,4.308,0,0,0,168.546,344.131Z" transform="translate(-122.518 -327.17)" fill="#ffd15b"/>
          <path id="Trazado_904707" data-name="Trazado 904707" d="M13.546,250.244a22.015,22.015,0,0,0,25.163,19.073A22.024,22.024,0,0,1,20.18,250.244l-6.747-.015,0,.015Z" transform="translate(-13.429 -250.229)" fill="#ffd15b"/>
        </g>
      </g>
      <g id="Grupo_1112790" data-name="Grupo 1112790" transform="translate(0 65.921)">
        <g id="Grupo_1112789" data-name="Grupo 1112789">
          <path id="Trazado_904708" data-name="Trazado 904708" d="M14.656,415.842l.27,0c-1.191.828-1.8,1.727-1.525,2.476.519,1.417,4,1.761,7.768.767q.35-.092.686-.195a1.7,1.7,0,0,0,.084,1.84c2.422,2.89,11.088-2.318,12.062-5.161l12.882-.011-.01-4.258-12.882.011c-1.905-4.083-9.586-7.942-12.087-5.106a1.672,1.672,0,0,0-.075,1.841q-.336-.1-.686-.192c-3.776-.976-7.252-.617-7.764.8-.271.75.342,1.647,1.536,2.469l-.27,0c-3.949.009-7.147.893-7.143,2.376S10.707,415.851,14.656,415.842Z" transform="translate(-7.5 -405.178)" fill="#9be69d"/>
          <g id="Grupo_1112788" data-name="Grupo 1112788" transform="translate(25.235)">
            <path id="Trazado_904709" data-name="Trazado 904709" d="M208.756,421.444H167.9a8.256,8.256,0,0,1-8.256-8.256h0a8.256,8.256,0,0,1,10.172-8.031l39.746,9.482a3.449,3.449,0,0,1,2.649,3.355h0A3.45,3.45,0,0,1,208.756,421.444Z" transform="translate(-159.639 -404.928)" fill="#fe9738"/>
          </g>
        </g>
      </g>
    </g>
    <g id="Grupo_1112805" data-name="Grupo 1112805" transform="translate(7.5 7.501)">
      <g id="Grupo_1112794" data-name="Grupo 1112794" transform="translate(10.391)">
        <g id="Grupo_1112792" data-name="Grupo 1112792" transform="translate(3.838)">
          <path id="Trazado_904710" data-name="Trazado 904710" d="M101.559,11.126a13.618,13.618,0,0,0,.251,8.454c-3.011-.4-5.657.523-6.757,2.667-1.35,2.63.049,6.262,3.16,8.889a6.544,6.544,0,0,0-4.082,3.213c-1.753,3.415-.6,6.722,1.767,9.423m35.671-15.824a6.924,6.924,0,0,0-3.379-4.205,6.348,6.348,0,0,0-5.128-.345c1.174-3.961.381-7.782-2.159-9.2-2.071-1.156-4.773-.418-7.061,1.636-.881-3.83-4.386-9.531-8.952-8.109" transform="translate(-93.283 -7.501)" fill="none" stroke="#000" stroke-linecap="round" stroke-linejoin="round" stroke-miterlimit="10" stroke-width="2"/>
          <line id="Línea_681" data-name="Línea 681" x1="3.938" y1="13.391" transform="translate(15.934 14.936)" fill="none" stroke="#000" stroke-linecap="round" stroke-linejoin="round" stroke-miterlimit="10" stroke-width="2"/>
          <line id="Línea_682" data-name="Línea 682" x1="4.522" y2="5.231" transform="translate(22.815 27.048)" fill="none" stroke="#000" stroke-linecap="round" stroke-linejoin="round" stroke-miterlimit="10" stroke-width="2"/>
          <path id="Trazado_904711" data-name="Trazado 904711" d="M175.543,104.861l-3.738,4.324-5.441-1.466" transform="translate(-154.242 -88.712)" fill="none" stroke="#000" stroke-linecap="round" stroke-linejoin="round" stroke-miterlimit="10" stroke-width="2"/>
        </g>
        <g id="Grupo_1112793" data-name="Grupo 1112793" transform="translate(0 27.597)">
          <path id="Trazado_904712" data-name="Trazado 904712" d="M104.149,187.737c-1.411-2.085-4.325-2.676-7.475-1.821.994-4.052.394-11.13-4.613-11.963s-8.082,5.632-8.583,9.769c-2.661-1.821-5.613-2.206-7.68-.7-2.535,1.848-2.944,5.96-1.25,9.936a7.269,7.269,0,0,0-4.4.5" transform="translate(-70.144 -173.879)" fill="none" stroke="#000" stroke-linecap="round" stroke-linejoin="round" stroke-miterlimit="10" stroke-width="2"/>
          <line id="Línea_683" data-name="Línea 683" y1="15.703" x2="2.869" transform="translate(16.123 16.087)" fill="none" stroke="#000" stroke-linecap="round" stroke-linejoin="round" stroke-miterlimit="10" stroke-width="2"/>
          <path id="Trazado_904713" data-name="Trazado 904713" d="M161.192,284.836l-5.609,2.314-4.458-3.988" transform="translate(-137.693 -265.035)" fill="none" stroke="#000" stroke-linecap="round" stroke-linejoin="round" stroke-miterlimit="10" stroke-width="2"/>
        </g>
      </g>
      <g id="Grupo_1112798" data-name="Grupo 1112798" transform="translate(38.723 8.585)">
        <path id="Trazado_904714" data-name="Trazado 904714" d="M281.591,111.929l-4.64-12.575L262.695,60.718a2.234,2.234,0,0,0-4.192,0L244.247,99.354l-3.294,8.927" transform="translate(-240.953 -59.257)" fill="none" stroke="#000" stroke-linecap="round" stroke-linejoin="round" stroke-miterlimit="10" stroke-width="2"/>
        <g id="Grupo_1112796" data-name="Grupo 1112796" transform="translate(13.021 31.381)">
          <line id="Línea_684" data-name="Línea 684" y1="2.909" transform="translate(6.549 0)" fill="none" stroke="#000" stroke-linecap="round" stroke-linejoin="round" stroke-miterlimit="10" stroke-width="2"/>
          <g id="Grupo_1112795" data-name="Grupo 1112795" transform="translate(0 7.629)">
            <line id="Línea_685" data-name="Línea 685" x1="0.028" y1="3.206" transform="translate(13.069)" fill="none" stroke="#000" stroke-linecap="round" stroke-linejoin="round" stroke-miterlimit="10" stroke-width="2"/>
            <line id="Línea_686" data-name="Línea 686" x1="0.029" y1="3.206" fill="none" stroke="#000" stroke-linecap="round" stroke-linejoin="round" stroke-miterlimit="10" stroke-width="2"/>
          </g>
        </g>
        <g id="Grupo_1112797" data-name="Grupo 1112797" transform="translate(7.674 52.672)">
          <path id="Trazado_904715" data-name="Trazado 904715" d="M311.688,390.162a72.063,72.063,0,0,0,10.02-2.49,2.239,2.239,0,0,0,1.412-2.9l-2.938-7.961a71.852,71.852,0,0,1-32.964,2.131" transform="translate(-287.218 -376.809)" fill="none" stroke="#000" stroke-linecap="round" stroke-linejoin="round" stroke-miterlimit="10" stroke-width="2"/>
        </g>
      </g>
      <g id="Grupo_1112800" data-name="Grupo 1112800" transform="translate(0 29.834)">
        <path id="Trazado_904716" data-name="Trazado 904716" d="M19.223,187.367a25.9,25.9,0,0,0-5.2,8.647q-.32.887-.572,1.78l6.747.015a21.81,21.81,0,0,1,.753-9.036Z" transform="translate(-12.466 -187.367)" fill="none" stroke="#000" stroke-linecap="round" stroke-linejoin="round" stroke-miterlimit="10" stroke-width="2"/>
        <g id="Grupo_1112799" data-name="Grupo 1112799" transform="translate(0 10.427)">
          <path id="Trazado_904717" data-name="Trazado 904717" d="M49.547,277.693a25.841,25.841,0,0,0,5.1-5.335,4.309,4.309,0,0,0-.133-5.169l-.024-.031a4.33,4.33,0,0,0-5.71-.957,22.011,22.011,0,0,1-33.543-15.958l-6.747-.015a25.914,25.914,0,0,0,9.284,27.735" transform="translate(-7.5 -250.228)" fill="none" stroke="#000" stroke-linecap="round" stroke-linejoin="round" stroke-miterlimit="10" stroke-width="2"/>
        </g>
      </g>
      <g id="Grupo_1112804" data-name="Grupo 1112804" transform="translate(0 65.921)">
        <g id="Grupo_1112803" data-name="Grupo 1112803">
          <path id="Trazado_904718" data-name="Trazado 904718" d="M33.369,410.254c-2.581-3.648-9.183-6.641-11.466-4.051a1.672,1.672,0,0,0-.075,1.841q-.336-.1-.686-.192c-3.776-.976-7.252-.617-7.764.8-.271.75.342,1.647,1.536,2.469l-.27,0c-3.948.009-7.146.893-7.143,2.376s3.207,2.353,7.156,2.344l.27,0c-1.191.828-1.8,1.727-1.525,2.476.519,1.417,4,1.761,7.768.767q.35-.092.686-.195a1.7,1.7,0,0,0,.084,1.84c2.12,2.529,9.019-1.142,11.363-4" transform="translate(-7.5 -405.179)" fill="none" stroke="#000" stroke-linecap="round" stroke-linejoin="round" stroke-miterlimit="10" stroke-width="2"/>
          <g id="Grupo_1112802" data-name="Grupo 1112802" transform="translate(25.235)">
            <path id="Trazado_904719" data-name="Trazado 904719" d="M200,421.444h8.752a3.45,3.45,0,0,0,.8-6.8l-39.746-9.482a8.256,8.256,0,0,0-10.172,8.031h0a8.256,8.256,0,0,0,8.256,8.256h27.141" transform="translate(-159.639 -404.929)" fill="none" stroke="#000" stroke-linecap="round" stroke-linejoin="round" stroke-miterlimit="10" stroke-width="2"/>
            <g id="Grupo_1112801" data-name="Grupo 1112801" transform="translate(17.024 2.074)">
              <line id="Línea_687" data-name="Línea 687" y2="3.452" transform="translate(20.503 5.178)" fill="none" stroke="#000" stroke-linecap="round" stroke-linejoin="round" stroke-miterlimit="10" stroke-width="2"/>
              <line id="Línea_688" data-name="Línea 688" y2="4.075" transform="translate(10.251 2.479)" fill="none" stroke="#000" stroke-linecap="round" stroke-linejoin="round" stroke-miterlimit="10" stroke-width="2"/>
              <line id="Línea_689" data-name="Línea 689" y2="4.479" fill="none" stroke="#000" stroke-linecap="round" stroke-linejoin="round" stroke-miterlimit="10" stroke-width="2"/>
            </g>
          </g>
        </g>
      </g>
    </g>
  </g>
</svg>
