<svg xmlns="http://www.w3.org/2000/svg" width="87.102" height="84.649" viewBox="0 0 87.102 84.649">
  <g id="Grupo_1112828" data-name="Grupo 1112828" transform="translate(-6.5 -13.689)">
    <g id="Grupo_1112826" data-name="Grupo 1112826" transform="translate(7.499 15.121)">
      <g id="Grupo_1112816" data-name="Grupo 1112816" transform="translate(0 3.347)">
        <g id="Grupo_1112807" data-name="Grupo 1112807" transform="translate(26.582 0)">
          <path id="Trazado_904720" data-name="Trazado 904720" d="M200.274,40.951a6.89,6.89,0,0,1,3.972-1.966,17.735,17.735,0,0,0-21.241,2.852L162.741,62.1a20.3,20.3,0,0,1,4.58,11.8Z" transform="translate(-162.741 -36.685)" fill="#ffe177"/>
          <path id="Trazado_904721" data-name="Trazado 904721" d="M281.946,95.936a6.925,6.925,0,0,1-1.969,3.966l-32.945,32.945a20.194,20.194,0,0,1,11.8,4.587L279.09,117.17A17.736,17.736,0,0,0,281.946,95.936Z" transform="translate(-232.598 -85.79)" fill="#ffe177"/>
        </g>
        <path id="Trazado_904722" data-name="Trazado 904722" d="M210.965,36.886c.09.017.179.033.269.051a2.208,2.208,0,0,1,1.1,3.749l-.033.032L184.52,68.5a20.564,20.564,0,0,1,.948,4.362l0,.015c.022.212.042.424.058.636L218.2,40.841a7.082,7.082,0,0,1,3.852-1.979A17.781,17.781,0,0,0,210.965,36.886Z" transform="translate(-154.209 -36.696)" fill="#ffd15b"/>
        <g id="Grupo_1112808" data-name="Grupo 1112808" transform="translate(48.449 10.381)">
          <path id="Trazado_904723" data-name="Trazado 904723" d="M318.056,97.308a7.082,7.082,0,0,1-1.979,3.852l-1.3,1.3a17.648,17.648,0,0,1-5.079,14.112l-19.257,19.257a20.267,20.267,0,0,1,4.362,2.745l20.264-20.264A17.735,17.735,0,0,0,318.056,97.308Z" transform="translate(-290.444 -97.308)" fill="#ffd15b"/>
        </g>
        <g id="Grupo_1112809" data-name="Grupo 1112809" transform="translate(26.703)">
          <path id="Trazado_904724" data-name="Trazado 904724" d="M266.836,38.85a17.735,17.735,0,0,0-21,2.987l-7.283,7.283" transform="translate(-225.693 -36.685)" fill="none" stroke="#000" stroke-linecap="round" stroke-linejoin="round" stroke-miterlimit="10" stroke-width="2"/>
          <line id="Línea_690" data-name="Línea 690" x1="8.623" y2="8.623" transform="translate(0 16.673)" fill="none" stroke="#000" stroke-linecap="round" stroke-linejoin="round" stroke-miterlimit="10" stroke-width="2"/>
          <path id="Trazado_904725" data-name="Trazado 904725" d="M316.618,138.451l20.144-20.144a17.735,17.735,0,0,0,2.987-21" transform="translate(-290.391 -86.927)" fill="none" stroke="#000" stroke-linecap="round" stroke-linejoin="round" stroke-miterlimit="10" stroke-width="2"/>
        </g>
        <g id="Grupo_1112812" data-name="Grupo 1112812" transform="translate(33.373 5.697)">
          <g id="Grupo_1112810" data-name="Grupo 1112810" transform="translate(17.982 17.982)">
            <line id="Línea_691" data-name="Línea 691" x2="0.999" y2="0.999" transform="translate(20.175)" fill="none" stroke="#000" stroke-linecap="round" stroke-linejoin="round" stroke-miterlimit="10" stroke-width="2"/>
            <line id="Línea_692" data-name="Línea 692" x2="0.999" y2="0.999" transform="translate(15.131 5.044)" fill="none" stroke="#000" stroke-linecap="round" stroke-linejoin="round" stroke-miterlimit="10" stroke-width="2"/>
            <line id="Línea_693" data-name="Línea 693" x2="0.999" y2="0.999" transform="translate(10.088 10.087)" fill="none" stroke="#000" stroke-linecap="round" stroke-linejoin="round" stroke-miterlimit="10" stroke-width="2"/>
            <line id="Línea_694" data-name="Línea 694" x2="0.999" y2="0.999" transform="translate(5.044 15.131)" fill="none" stroke="#000" stroke-linecap="round" stroke-linejoin="round" stroke-miterlimit="10" stroke-width="2"/>
            <line id="Línea_695" data-name="Línea 695" x2="0.999" y2="0.999" transform="translate(0 20.175)" fill="none" stroke="#000" stroke-linecap="round" stroke-linejoin="round" stroke-miterlimit="10" stroke-width="2"/>
          </g>
          <g id="Grupo_1112811" data-name="Grupo 1112811">
            <line id="Línea_696" data-name="Línea 696" x2="0.999" y2="0.999" transform="translate(20.175)" fill="none" stroke="#000" stroke-linecap="round" stroke-linejoin="round" stroke-miterlimit="10" stroke-width="2"/>
            <line id="Línea_697" data-name="Línea 697" x2="0.999" y2="0.999" transform="translate(15.131 5.044)" fill="none" stroke="#000" stroke-linecap="round" stroke-linejoin="round" stroke-miterlimit="10" stroke-width="2"/>
            <line id="Línea_698" data-name="Línea 698" x2="0.999" y2="0.999" transform="translate(10.088 10.088)" fill="none" stroke="#000" stroke-linecap="round" stroke-linejoin="round" stroke-miterlimit="10" stroke-width="2"/>
            <line id="Línea_699" data-name="Línea 699" x2="0.999" y2="0.999" transform="translate(5.044 15.131)" fill="none" stroke="#000" stroke-linecap="round" stroke-linejoin="round" stroke-miterlimit="10" stroke-width="2"/>
            <line id="Línea_700" data-name="Línea 700" x2="0.999" y2="0.999" transform="translate(0 20.175)" fill="none" stroke="#000" stroke-linecap="round" stroke-linejoin="round" stroke-miterlimit="10" stroke-width="2"/>
          </g>
        </g>
        <path id="Trazado_904726" data-name="Trazado 904726" d="M203.726,50.821h0a7.154,7.154,0,0,0-10.088,0L160.793,83.666a20.334,20.334,0,0,1-5.913,15.759l.242.242A20.243,20.243,0,0,1,169.531,93.7c.456,0,.909.016,1.359.046l32.836-32.836A7.154,7.154,0,0,0,203.726,50.821Z" transform="translate(-129.644 -46.676)" fill="#ffd15b"/>
        <g id="Grupo_1112813" data-name="Grupo 1112813" transform="translate(33.012 2.065)">
          <path id="Trazado_904727" data-name="Trazado 904727" d="M241.362,50.825h0a7.125,7.125,0,0,0-5.693-2.05c.114.1.227.2.335.312h0a7.154,7.154,0,0,1,0,10.087L200.292,94.885a20.4,20.4,0,0,1,6.875-1.183c.456,0,.909.016,1.359.046l32.836-32.836A7.154,7.154,0,0,0,241.362,50.825Z" transform="translate(-200.292 -48.745)" fill="#ffc344"/>
        </g>
        <path id="Trazado_904728" data-name="Trazado 904728" d="M200.491,93.585l32.677-32.677a7.154,7.154,0,0,0,0-10.087h0a7.154,7.154,0,0,0-10.087,0L190.4,83.5" transform="translate(-159.086 -46.676)" fill="none" stroke="#000" stroke-linecap="round" stroke-linejoin="round" stroke-miterlimit="10" stroke-width="2"/>
        <path id="Trazado_904729" data-name="Trazado 904729" d="M24.105,406.647,14.018,396.559h0l-5.476,5.476a3.554,3.554,0,0,0,0,5.026l5.061,5.061a3.554,3.554,0,0,0,5.026,0l5.476-5.476Z" transform="translate(-7.5 -334.937)" fill="#d1f19e"/>
        <path id="Trazado_904730" data-name="Trazado 904730" d="M21.4,429.549l-2.777,2.777a3.554,3.554,0,0,1-5.026,0l-4.875-4.875-.186.186a3.554,3.554,0,0,0,0,5.026l5.061,5.061a3.554,3.554,0,0,0,5.026,0l5.476-5.476h0Z" transform="translate(-7.499 -360.54)" fill="#bbec6c"/>
        <path id="Trazado_904731" data-name="Trazado 904731" d="M13.9,397.267h0l-5.355,5.355a3.554,3.554,0,0,0,0,5.026l5.061,5.061a3.554,3.554,0,0,0,5.026,0l5.355-5.355" transform="translate(-7.5 -335.524)" fill="none" stroke="#000" stroke-linecap="round" stroke-linejoin="round" stroke-miterlimit="10" stroke-width="2"/>
        <g id="Grupo_1112814" data-name="Grupo 1112814" transform="translate(2.218 23.561)">
          <path id="Trazado_904732" data-name="Trazado 904732" d="M29.673,217.508l-5.044-5.044a14.266,14.266,0,0,1,0-20.175l17.758-17.758a.851.851,0,0,1,1.2,0h0a20.548,20.548,0,0,1,0,29.059Z" transform="translate(-20.451 -174.282)" fill="#a2e62e"/>
          <path id="Trazado_904733" data-name="Trazado 904733" d="M35.368,219.458a11.3,11.3,0,0,0-2.927,10.91,14.327,14.327,0,0,0,1.809,2.21L38.87,237.2a11.3,11.3,0,0,1,0-15.986L57.979,202.1a20.432,20.432,0,0,0-1.7-3.552Z" transform="translate(-30.072 -194.396)" fill="#97d729"/>
          <path id="Trazado_904734" data-name="Trazado 904734" d="M74.916,219.293,55.808,238.4a11.3,11.3,0,0,0,0,15.986l.424.424,13.917-13.917A20.55,20.55,0,0,0,74.916,219.293Z" transform="translate(-47.01 -211.586)" fill="#8bc727"/>
          <path id="Trazado_904735" data-name="Trazado 904735" d="M81.678,219.293l-2.493,2.493a20.512,20.512,0,0,1-5.823,17.346L60.656,251.838a11.3,11.3,0,0,0,1.914,2.55l.424.424,13.917-13.917A20.55,20.55,0,0,0,81.678,219.293Z" transform="translate(-53.772 -211.586)" fill="#81b823"/>
          <path id="Trazado_904736" data-name="Trazado 904736" d="M74.916,219.293,55.808,238.4a11.3,11.3,0,0,0,0,15.986l.424.424" transform="translate(-47.01 -211.586)" fill="none" stroke="#000" stroke-linecap="round" stroke-linejoin="round" stroke-miterlimit="10" stroke-width="2"/>
          <path id="Trazado_904737" data-name="Trazado 904737" d="M29.673,217.508l-5.044-5.044a14.266,14.266,0,0,1,0-20.175l17.758-17.758a.851.851,0,0,1,1.2,0h0a20.548,20.548,0,0,1,0,29.059Z" transform="translate(-20.451 -174.282)" fill="none" stroke="#000" stroke-linecap="round" stroke-linejoin="round" stroke-miterlimit="10" stroke-width="2"/>
          <path id="Trazado_904738" data-name="Trazado 904738" d="M79.353,335.276l-5.044-5.044,13.917-13.917a20.548,20.548,0,0,1,29.059,0h0a.851.851,0,0,1,0,1.2L99.528,335.276A14.266,14.266,0,0,1,79.353,335.276Z" transform="translate(-65.087 -287.007)" fill="#8bc727"/>
          <path id="Trazado_904739" data-name="Trazado 904739" d="M165.567,333.483h0a20.645,20.645,0,0,0-2.984-2.471l-20.069,20.069a15.726,15.726,0,0,1-9.948,4.575,14.261,14.261,0,0,0,15.243-3.211l17.758-17.758A.851.851,0,0,0,165.567,333.483Z" transform="translate(-113.368 -304.175)" fill="#81b823"/>
          <path id="Trazado_904740" data-name="Trazado 904740" d="M90.718,330.663l19.108-19.108a20.55,20.55,0,0,0-21.6,4.767L74.308,330.239l.424.424A11.3,11.3,0,0,0,90.718,330.663Z" transform="translate(-65.086 -287.013)" fill="#a2e62e"/>
          <path id="Trazado_904741" data-name="Trazado 904741" d="M105.6,311.456,88.954,328.1A11.306,11.306,0,0,1,75.5,330l-1.189,1.189.424.424a11.3,11.3,0,0,0,15.986,0l19.108-19.108A20.523,20.523,0,0,0,105.6,311.456Z" transform="translate(-65.087 -287.968)" fill="#97d729"/>
          <path id="Trazado_904742" data-name="Trazado 904742" d="M76.787,336.715a11.3,11.3,0,0,0,15.986,0l19.108-19.108" transform="translate(-67.141 -293.065)" fill="none" stroke="#000" stroke-linecap="round" stroke-linejoin="round" stroke-miterlimit="10" stroke-width="2"/>
          <path id="Trazado_904743" data-name="Trazado 904743" d="M79.353,335.276l-5.044-5.044,13.917-13.917a20.548,20.548,0,0,1,29.059,0h0a.851.851,0,0,1,0,1.2L99.528,335.276A14.266,14.266,0,0,1,79.353,335.276Z" transform="translate(-65.087 -287.007)" fill="none" stroke="#000" stroke-linecap="round" stroke-linejoin="round" stroke-miterlimit="10" stroke-width="2"/>
        </g>
        <g id="Grupo_1112815" data-name="Grupo 1112815" transform="translate(37.146 8.801)">
          <line id="Línea_701" data-name="Línea 701" x2="2.018" y2="2.017" transform="translate(30.262)" fill="none" stroke="#000" stroke-linecap="round" stroke-linejoin="round" stroke-miterlimit="10" stroke-width="2"/>
          <line id="Línea_702" data-name="Línea 702" x2="2.017" y2="2.017" transform="translate(25.219 5.044)" fill="none" stroke="#000" stroke-linecap="round" stroke-linejoin="round" stroke-miterlimit="10" stroke-width="2"/>
          <line id="Línea_703" data-name="Línea 703" x2="2.017" y2="2.018" transform="translate(20.175 10.087)" fill="none" stroke="#000" stroke-linecap="round" stroke-linejoin="round" stroke-miterlimit="10" stroke-width="2"/>
          <line id="Línea_704" data-name="Línea 704" x2="2.017" y2="2.017" transform="translate(15.131 15.131)" fill="none" stroke="#000" stroke-linecap="round" stroke-linejoin="round" stroke-miterlimit="10" stroke-width="2"/>
          <line id="Línea_705" data-name="Línea 705" x2="2.018" y2="2.017" transform="translate(10.087 20.175)" fill="none" stroke="#000" stroke-linecap="round" stroke-linejoin="round" stroke-miterlimit="10" stroke-width="2"/>
          <line id="Línea_706" data-name="Línea 706" x2="2.018" y2="2.017" transform="translate(5.044 25.219)" fill="none" stroke="#000" stroke-linecap="round" stroke-linejoin="round" stroke-miterlimit="10" stroke-width="2"/>
          <line id="Línea_707" data-name="Línea 707" x2="2.017" y2="2.018" transform="translate(0 30.262)" fill="none" stroke="#000" stroke-linecap="round" stroke-linejoin="round" stroke-miterlimit="10" stroke-width="2"/>
        </g>
      </g>
      <circle id="Elipse_14924" data-name="Elipse 14924" cx="3.157" cy="3.157" r="3.157" transform="translate(67.306 50.023)" fill="#ffd15b"/>
      <path id="Trazado_904744" data-name="Trazado 904744" d="M414.011,310.2a3.158,3.158,0,0,0-3.726-.549,3.156,3.156,0,0,1,0,5.562,3.157,3.157,0,0,0,3.726-5.013Z" transform="translate(-341.316 -259.255)" fill="#ffc344"/>
      <circle id="Elipse_14925" data-name="Elipse 14925" cx="3.157" cy="3.157" r="3.157" transform="translate(67.306 50.023)" fill="none" stroke="#000" stroke-linecap="round" stroke-linejoin="round" stroke-miterlimit="10" stroke-width="2"/>
      <g id="Grupo_1112818" data-name="Grupo 1112818" transform="translate(78.996 38.54)">
        <g id="Grupo_1112817" data-name="Grupo 1112817">
          <path id="Trazado_904745" data-name="Trazado 904745" d="M473.943,248.322h-4.1a1,1,0,0,1-1-1v-4.1a1,1,0,0,1,1-1h4.1a1,1,0,0,1,1,1v4.1A1,1,0,0,1,473.943,248.322Z" transform="translate(-468.84 -242.216)" fill="#ffe177"/>
        </g>
      </g>
      <path id="Trazado_904746" data-name="Trazado 904746" d="M485.513,242.217H482.8a1,1,0,0,1,1,1v4.1a1,1,0,0,1-1,1h2.712a1,1,0,0,0,1-1v-4.1A1,1,0,0,0,485.513,242.217Z" transform="translate(-401.415 -203.677)" fill="#ffd15b"/>
      <g id="Grupo_1112820" data-name="Grupo 1112820" transform="translate(78.996 38.54)">
        <g id="Grupo_1112819" data-name="Grupo 1112819">
          <path id="Trazado_904747" data-name="Trazado 904747" d="M473.943,248.322h-4.1a1,1,0,0,1-1-1v-4.1a1,1,0,0,1,1-1h4.1a1,1,0,0,1,1,1v4.1A1,1,0,0,1,473.943,248.322Z" transform="translate(-468.84 -242.216)" fill="none" stroke="#000" stroke-linecap="round" stroke-linejoin="round" stroke-miterlimit="10" stroke-width="2"/>
        </g>
      </g>
      <g id="Grupo_1112825" data-name="Grupo 1112825" transform="translate(21.452 0)">
        <circle id="Elipse_14926" data-name="Elipse 14926" cx="3.157" cy="3.157" r="3.157" transform="translate(11.854)" fill="#ffd15b"/>
        <path id="Trazado_904748" data-name="Trazado 904748" d="M215.215,18.074a3.156,3.156,0,0,0-3.774-.52,3.15,3.15,0,0,1,0,5.5,3.156,3.156,0,0,0,3.774-4.985Z" transform="translate(-197.972 -17.149)" fill="#ffc344"/>
        <circle id="Elipse_14927" data-name="Elipse 14927" cx="3.157" cy="3.157" r="3.157" transform="translate(11.854)" fill="none" stroke="#000" stroke-linecap="round" stroke-linejoin="round" stroke-miterlimit="10" stroke-width="2"/>
        <g id="Grupo_1112822" data-name="Grupo 1112822" transform="translate(0 12.062)">
          <g id="Grupo_1112821" data-name="Grupo 1112821">
            <path id="Trazado_904749" data-name="Trazado 904749" d="M137.884,93.686h-4.1a1,1,0,0,1-1-1v-4.1a1,1,0,0,1,1-1h4.1a1,1,0,0,1,1,1v4.1A1,1,0,0,1,137.884,93.686Z" transform="translate(-132.781 -87.58)" fill="#ffe177"/>
          </g>
        </g>
        <path id="Trazado_904750" data-name="Trazado 904750" d="M150.332,87.581H147.8a1,1,0,0,1,1,1v4.1a1,1,0,0,1-1,1h2.531a1,1,0,0,0,1-1v-4.1A1,1,0,0,0,150.332,87.581Z" transform="translate(-145.229 -75.519)" fill="#ffd15b"/>
        <g id="Grupo_1112824" data-name="Grupo 1112824" transform="translate(0 12.062)">
          <g id="Grupo_1112823" data-name="Grupo 1112823">
            <path id="Trazado_904751" data-name="Trazado 904751" d="M137.884,93.686h-4.1a1,1,0,0,1-1-1v-4.1a1,1,0,0,1,1-1h4.1a1,1,0,0,1,1,1v4.1A1,1,0,0,1,137.884,93.686Z" transform="translate(-132.781 -87.58)" fill="none" stroke="#000" stroke-linecap="round" stroke-linejoin="round" stroke-miterlimit="10" stroke-width="2"/>
          </g>
        </g>
      </g>
    </g>
    <g id="Grupo_1112827" data-name="Grupo 1112827" transform="translate(8.144 14.704)">
      <path id="Trazado_904752" data-name="Trazado 904752" d="M23.168,41.018V15.3a.6.6,0,0,0-.9-.522A21.391,21.391,0,0,0,11.264,33.491V51.722a.6.6,0,0,0,.6.6h0A11.3,11.3,0,0,0,23.168,41.018Z" transform="translate(-11.264 -14.704)" fill="#97d729"/>
      <path id="Trazado_904753" data-name="Trazado 904753" d="M22.271,14.782a21.45,21.45,0,0,0-2.833,1.888V38.5a11.306,11.306,0,0,1-8.174,10.861v2.36a.6.6,0,0,0,.6.6h0a11.3,11.3,0,0,0,11.3-11.3V15.3A.6.6,0,0,0,22.271,14.782Z" transform="translate(-11.264 -14.704)" fill="#8bc727"/>
      <path id="Trazado_904754" data-name="Trazado 904754" d="M11.264,42.4v9.322a.6.6,0,0,0,.6.6h0a11.3,11.3,0,0,0,11.3-11.3V15.3a.6.6,0,0,0-.9-.522A21.391,21.391,0,0,0,11.264,33.491v2.916" transform="translate(-11.264 -14.704)" fill="none" stroke="#000" stroke-linecap="round" stroke-linejoin="round" stroke-miterlimit="10" stroke-width="2"/>
      <path id="Trazado_904755" data-name="Trazado 904755" d="M271.09,427.778H296.8a.6.6,0,0,1,.522.9,21.391,21.391,0,0,1-18.709,11.007H260.386a.6.6,0,0,1-.6-.6h0A11.3,11.3,0,0,1,271.09,427.778Z" transform="translate(-217.231 -357.047)" fill="#97d729"/>
      <path id="Trazado_904756" data-name="Trazado 904756" d="M296.8,427.778h-3.028a21.358,21.358,0,0,1-16.953,8.346H260.181a11.308,11.308,0,0,0-.394,2.958h0a.6.6,0,0,0,.6.6h18.231a21.391,21.391,0,0,0,18.709-11.007A.6.6,0,0,0,296.8,427.778Z" transform="translate(-217.232 -357.047)" fill="#8bc727"/>
      <path id="Trazado_904757" data-name="Trazado 904757" d="M276.3,427.777h-5.214a11.3,11.3,0,0,0-11.3,11.3h0a.6.6,0,0,0,.6.6h18.231a21.391,21.391,0,0,0,18.709-11.007.6.6,0,0,0-.522-.9H282.3" transform="translate(-217.232 -357.046)" fill="none" stroke="#000" stroke-linecap="round" stroke-linejoin="round" stroke-miterlimit="10" stroke-width="2"/>
    </g>
  </g>
</svg>
