<svg xmlns="http://www.w3.org/2000/svg" width="75.708" height="75.712" viewBox="0 0 75.708 75.712">
  <g id="Grupo_1112692" data-name="Grupo 1112692" transform="translate(-0.012 0)">
    <path id="Trazado_904228" data-name="Trazado 904228" d="M294.3,23.142A15.142,15.142,0,1,1,279.154,8,15.142,15.142,0,0,1,294.3,23.142Zm0,0" transform="translate(-222.361 -6.738)" fill="#ebebeb"/>
    <path id="Trazado_904229" data-name="Trazado 904229" d="M347.05,265.312l-12.277-4.063L342.722,248l10.82,6.492Zm0,0" transform="translate(-281.961 -208.885)" fill="#ecaa3c"/>
    <path id="Trazado_904230" data-name="Trazado 904230" d="M280.012,384H310.3v8.833a5.047,5.047,0,0,1-5.047,5.047H280.012Zm0,0" transform="translate(-235.837 -323.434)" fill="#fbb540"/>
    <path id="Trazado_904231" data-name="Trazado 904231" d="M280.012,384h5.047v13.88h-5.047Zm0,0" transform="translate(-235.837 -323.434)" fill="#d9d9d9"/>
    <path id="Trazado_904232" data-name="Trazado 904232" d="M280.012,320h26.5v11.356h-26.5Zm0,0" transform="translate(-235.837 -269.528)" fill="#fbb540"/>
    <path id="Trazado_904233" data-name="Trazado 904233" d="M280.012,368h26.5v2.524h-26.5Zm0,0" transform="translate(-235.837 -309.957)" fill="#ecaa3c"/>
    <path id="Trazado_904234" data-name="Trazado 904234" d="M35.772,135.09H13.059a5.047,5.047,0,0,1-5.047-5.047V112.317a7.018,7.018,0,0,1,1.538-4.386,7.021,7.021,0,0,0,0-8.772,7.018,7.018,0,0,1-1.538-4.386V77.047A5.047,5.047,0,0,1,13.059,72H35.772a5.047,5.047,0,0,1,5.047,5.047V94.772a7.017,7.017,0,0,1-1.538,4.386l-.3.379a7.02,7.02,0,0,0-.359,8.28l1.02,1.53a7.024,7.024,0,0,1,1.179,3.894v16.8a5.047,5.047,0,0,1-5.047,5.047Zm0,0" transform="translate(-6.738 -60.644)" fill="#41dfd0"/>
    <path id="Trazado_904235" data-name="Trazado 904235" d="M152.813,184l4.945,1.349a8.833,8.833,0,0,1,6.2,6.2l1.35,4.946-5.408-2.163a8.833,8.833,0,0,1-4.921-4.921Zm0,0" transform="translate(-128.701 -154.979)" fill="#6b9777"/>
    <path id="Trazado_904236" data-name="Trazado 904236" d="M35.9,222.554a1.262,1.262,0,0,1-1.181-1.7,5.788,5.788,0,0,0-.9-5.613,8.322,8.322,0,0,1-1.814-5.173,1.262,1.262,0,0,1,2.524,0,5.78,5.78,0,0,0,1.262,3.6,8.319,8.319,0,0,1,1.29,8.075A1.261,1.261,0,0,1,35.9,222.554Zm0,0" transform="translate(-26.953 -175.868)" fill="#47f5e4"/>
    <path id="Trazado_904237" data-name="Trazado 904237" d="M33.273,317.2a1.262,1.262,0,0,1-1.262-1.262,8.224,8.224,0,0,1,.554-2.976,1.262,1.262,0,0,1,2.355.906,5.764,5.764,0,0,0-.385,2.071,1.262,1.262,0,0,1-1.262,1.262Zm0,0" transform="translate(-26.953 -262.947)" fill="#47f5e4"/>
    <path id="Trazado_904238" data-name="Trazado 904238" d="M33.273,165.047a1.262,1.262,0,0,1-1.262-1.262v-2.524a1.262,1.262,0,1,1,2.524,0v2.524A1.262,1.262,0,0,1,33.273,165.047Zm0,0" transform="translate(-26.953 -134.764)" fill="#47f5e4"/>
    <path id="Trazado_904239" data-name="Trazado 904239" d="M219.985,232.712a1.262,1.262,0,0,1-1.241-1.044,13.4,13.4,0,0,1,2.469-10.324l2.232-2.976a1.262,1.262,0,0,1,2.019,1.514l-2.232,2.975a10.868,10.868,0,0,0-2,8.374,1.262,1.262,0,0,1-1.245,1.48Zm0,0" transform="translate(-184.065 -183.502)" fill="#4f7059"/>
    <path id="Trazado_904240" data-name="Trazado 904240" d="M148.617,307.388l-.551.786a4.947,4.947,0,0,1-8.01.131l-.283-.379a2.524,2.524,0,0,0-4.037,0l-.284.379a4.944,4.944,0,0,1-8.006-.131l-.551-.786a30.034,30.034,0,0,1-5.127-21.47,6.892,6.892,0,0,1,11.7-3.9l.361.361a5.553,5.553,0,0,0,7.857,0l.362-.361a6.892,6.892,0,0,1,11.7,3.9A30.04,30.04,0,0,1,148.617,307.388Zm0,0" transform="translate(-102.296 -235.838)" fill="#f55648"/>
    <path id="Trazado_904241" data-name="Trazado 904241" d="M211.794,331.111a6.927,6.927,0,0,1-3.087-.725,1.262,1.262,0,1,1,1.128-2.259,4.4,4.4,0,0,0,3.919,0,1.262,1.262,0,0,1,1.128,2.259,6.929,6.929,0,0,1-3.088.725Zm0,0" transform="translate(-175.19 -276.261)" fill="#ff746e"/>
    <path id="Trazado_904242" data-name="Trazado 904242" d="M336.012,384h2.524v6.309h-2.524Zm0,0" transform="translate(-283.005 -323.434)" fill="#c38325"/>
    <path id="Trazado_904243" data-name="Trazado 904243" d="M400.012,384h2.524v6.309h-2.524Zm0,0" transform="translate(-336.91 -323.434)" fill="#c38325"/>
    <path id="Trazado_904244" data-name="Trazado 904244" d="M368.012,384h2.524v3.785h-2.524Zm0,0" transform="translate(-309.957 -323.434)" fill="#c38325"/>
    <path id="Trazado_904245" data-name="Trazado 904245" d="M432.012,384h2.524v3.785h-2.524Zm0,0" transform="translate(-363.863 -323.434)" fill="#c38325"/>
    <path id="Trazado_904246" data-name="Trazado 904246" d="M408.012,320h2.524v3.785h-2.524Zm0,0" transform="translate(-343.648 -269.528)" fill="#c38325"/>
    <path id="Trazado_904247" data-name="Trazado 904247" d="M376.012,320h2.524v6.309h-2.524Zm0,0" transform="translate(-316.696 -269.528)" fill="#c38325"/>
    <path id="Trazado_904248" data-name="Trazado 904248" d="M344.012,320h2.524v3.785h-2.524Zm0,0" transform="translate(-289.743 -269.528)" fill="#c38325"/>
    <path id="Trazado_904249" data-name="Trazado 904249" d="M371.3,248l10.82,6.492-2.6,4.328-10.82-6.492Zm0,0" transform="translate(-310.543 -208.881)" fill="#d9d9d9"/>
    <path id="Trazado_904250" data-name="Trazado 904250" d="M291.077,80.153l-2.5-.313a11.243,11.243,0,0,1,.738-2.84l2.338.946a8.8,8.8,0,0,0-.573,2.207Zm0,0" transform="translate(-243.049 -64.855)" fill="#f9f9f9"/>
    <path id="Trazado_904251" data-name="Trazado 904251" d="M297.024,126.289a11.4,11.4,0,0,1-6.739-7.7l2.443-.631a8.87,8.87,0,0,0,5.243,5.982Zm0,0" transform="translate(-244.49 -99.356)" fill="#f9f9f9"/>
    <path id="Trazado_904252" data-name="Trazado 904252" d="M360.845,64.4a1.261,1.261,0,0,1-.808-.293L352.466,57.8a1.263,1.263,0,0,1-.454-.969V49.262a1.262,1.262,0,1,1,2.524,0v6.981l7.117,5.93a1.262,1.262,0,0,1-.808,2.231Zm0,0" transform="translate(-296.481 -40.429)" fill="#6cbae5"/>
    <g id="Grupo_1112691" data-name="Grupo 1112691" transform="translate(44.175 26.498)">
      <path id="Trazado_904253" data-name="Trazado 904253" d="M280.012,240h2.524v2.524h-2.524Zm0,0" transform="translate(-280.012 -228.644)" fill="#c0f5f9"/>
      <path id="Trazado_904254" data-name="Trazado 904254" d="M280.012,208h2.524v2.524h-2.524Zm0,0" transform="translate(-280.012 -201.691)" fill="#c0f5f9"/>
      <path id="Trazado_904255" data-name="Trazado 904255" d="M312.012,240h2.524v2.524h-2.524Zm0,0" transform="translate(-306.965 -228.644)" fill="#c0f5f9"/>
      <path id="Trazado_904256" data-name="Trazado 904256" d="M432.012,200h2.524v2.524h-2.524Zm0,0" transform="translate(-408.038 -194.953)" fill="#c0f5f9"/>
      <path id="Trazado_904257" data-name="Trazado 904257" d="M432.012,232h2.524v2.524h-2.524Zm0,0" transform="translate(-408.038 -221.906)" fill="#c0f5f9"/>
      <path id="Trazado_904258" data-name="Trazado 904258" d="M464.012,168h2.524v2.524h-2.524Zm0,0" transform="translate(-434.991 -168)" fill="#c0f5f9"/>
      <path id="Trazado_904259" data-name="Trazado 904259" d="M464.012,200h2.524v2.524h-2.524Zm0,0" transform="translate(-434.991 -194.953)" fill="#c0f5f9"/>
      <path id="Trazado_904260" data-name="Trazado 904260" d="M464.012,232h2.524v2.524h-2.524Zm0,0" transform="translate(-434.991 -221.906)" fill="#c0f5f9"/>
    </g>
    <path id="Trazado_904261" data-name="Trazado 904261" d="M341.973,305.579h14.715l.748-1.248-3.154-1.453H343.593Zm0,0" transform="translate(-288.025 -255.108)" fill="#dc9e38"/>
    <path id="Trazado_904262" data-name="Trazado 904262" d="M418.052,305.044l1.3-2.164h-4.9Zm0,0" transform="translate(-349.067 -255.108)" fill="#cdcdcd"/>
    <path id="Trazado_904263" data-name="Trazado 904263" d="M272.415,32.807a16.4,16.4,0,1,1,16.4-16.4A16.4,16.4,0,0,1,272.415,32.807Zm0-30.283A13.88,13.88,0,1,0,286.3,16.4,13.88,13.88,0,0,0,272.415,2.524Zm0,0" transform="translate(-215.622 0)" fill="#6cbae5"/>
    <path id="Trazado_904264" data-name="Trazado 904264" d="M96.012,32h5.047v7.571H96.012Zm0,0" transform="translate(-80.858 -26.953)" fill="#dc4d41"/>
    <path id="Trazado_904265" data-name="Trazado 904265" d="M96.012,32h5.047v3.785H96.012Zm0,0" transform="translate(-80.858 -26.953)" fill="#c7463b"/>
    <path id="Trazado_904266" data-name="Trazado 904266" d="M40.819,82.094H8.012V77.047A5.047,5.047,0,0,1,13.059,72H35.772a5.047,5.047,0,0,1,5.047,5.047Zm0,0" transform="translate(-6.738 -60.644)" fill="#f55648"/>
    <path id="Trazado_904267" data-name="Trazado 904267" d="M144.012,96h7.571v2.524h-7.571Zm0,0" transform="translate(-121.288 -80.859)" fill="#ff746e"/>
    <path id="Trazado_904268" data-name="Trazado 904268" d="M112.012,96h2.524v2.524h-2.524Zm0,0" transform="translate(-94.335 -80.859)" fill="#ff746e"/>
    <path id="Trazado_904269" data-name="Trazado 904269" d="M82.535,8h5.047a2.524,2.524,0,0,1,2.524,2.524v2.524H80.012V10.524A2.524,2.524,0,0,1,82.535,8Zm0,0" transform="translate(-67.382 -6.738)" fill="#f55648"/>
    <path id="Trazado_904270" data-name="Trazado 904270" d="M213.754,328.128a4.4,4.4,0,0,1-3.919,0,1.262,1.262,0,1,0-1.128,2.259,6.941,6.941,0,0,0,6.175,0,1.262,1.262,0,0,0-1.128-2.259Zm0,0" transform="translate(-175.19 -276.261)"/>
    <path id="Trazado_904271" data-name="Trazado 904271" d="M34.535,210.063a1.262,1.262,0,0,0-2.524,0,8.322,8.322,0,0,0,1.814,5.173,5.787,5.787,0,0,1,.9,5.617,1.262,1.262,0,0,0,2.363.884,8.319,8.319,0,0,0-1.29-8.08,5.781,5.781,0,0,1-1.262-3.594Zm0,0" transform="translate(-26.953 -175.868)"/>
    <path id="Trazado_904272" data-name="Trazado 904272" d="M34.2,312.086a1.262,1.262,0,0,0-1.63.725,8.224,8.224,0,0,0-.554,2.976,1.262,1.262,0,0,0,2.524,0,5.758,5.758,0,0,1,.379-2.071,1.263,1.263,0,0,0-.718-1.63Zm0,0" transform="translate(-26.953 -262.791)"/>
    <path id="Trazado_904273" data-name="Trazado 904273" d="M33.273,165.047a1.262,1.262,0,0,0,1.262-1.262v-2.524a1.262,1.262,0,1,0-2.524,0v2.524A1.262,1.262,0,0,0,33.273,165.047Zm0,0" transform="translate(-26.953 -134.764)"/>
    <path id="Trazado_904274" data-name="Trazado 904274" d="M74.458,59.3H71.934V50.472a1.247,1.247,0,0,0-1.067-1.223l1.8-2.991a1.24,1.24,0,0,0,.146-.414c0-.019.018-.036.02-.057a1.2,1.2,0,0,0-.011-.24,1.237,1.237,0,0,0-.013-.253,1.261,1.261,0,0,0-.575-.776l-6.923-4.148-3.9-2.337a1.1,1.1,0,0,0-.818-.15,1.3,1.3,0,0,0-.139.007h0a1.263,1.263,0,0,0-.774.577L53.23,49.21h-.7a8.125,8.125,0,0,0-13.673-3.92l-.361.361a4.27,4.27,0,0,1-1.466.955,10.868,10.868,0,0,1,.6-4.371,1.236,1.236,0,0,0,.206-.505,10.79,10.79,0,0,1,1.331-2.372L41.4,36.381a1.262,1.262,0,0,0-2.019-1.514l-2.232,2.976c-.06.081-.11.169-.168.252l-.505-1.859a10.017,10.017,0,0,0-1.135-2.588V16.4a6.316,6.316,0,0,0-6.309-6.309H21.463V7.571h1.262a1.262,1.262,0,0,0,1.262-1.262V3.785A3.786,3.786,0,0,0,20.2,0H15.154a3.786,3.786,0,0,0-3.785,3.785V6.309A1.262,1.262,0,0,0,12.63,7.571h1.262v2.524H6.321A6.317,6.317,0,0,0,.012,16.4V34.131a8.259,8.259,0,0,0,1.813,5.164A5.832,5.832,0,0,1,3.091,42.9a5.836,5.836,0,0,1-1.262,3.6,8.259,8.259,0,0,0-1.817,5.17V69.4a6.317,6.317,0,0,0,6.309,6.309H29.2a3.753,3.753,0,0,0,.391-.023,6.234,6.234,0,0,0,4.574-2.46l.283-.379a1.3,1.3,0,0,1,2.019,0l.283.379a6.152,6.152,0,0,0,6.7,2.23,1.234,1.234,0,0,0,.726.253H69.411A6.316,6.316,0,0,0,75.72,69.4V60.566A1.262,1.262,0,0,0,74.458,59.3ZM52.6,59.3a31.3,31.3,0,0,0,.272-7.571h1.4v2.524h2.524V51.734h2.524v5.047H61.84V51.734h2.524v2.524h2.524V51.734h2.524V59.3Zm8.6-18.456,2.472,1.481,6.183,3.71-1.3,2.162L59.9,43.011Zm-2.6,4.324,6.728,4.038h-9.15ZM34.511,46.791a4.258,4.258,0,0,1-1.971-1.042,5.708,5.708,0,0,1-.166-4.568L35,42.229a13.435,13.435,0,0,0-.489,4.562ZM34.038,36.9l.683,2.5-3.055-1.223a7.59,7.59,0,0,1-4.217-4.217l-1.223-3.055,2.5.683A7.6,7.6,0,0,1,34.038,36.9ZM13.892,3.785a1.262,1.262,0,0,1,1.262-1.262H20.2a1.262,1.262,0,0,1,1.262,1.262V5.047H13.892Zm2.524,3.785h2.524v2.524H16.416ZM2.536,16.4a3.786,3.786,0,0,1,3.785-3.785H29.034A3.786,3.786,0,0,1,32.819,16.4v3.785H2.536Zm0,53V51.671a5.733,5.733,0,0,1,1.262-3.6A8.36,8.36,0,0,0,5.614,42.9,8.361,8.361,0,0,0,3.8,37.719a5.728,5.728,0,0,1-1.262-3.588V22.712H32.819v8.139a10.046,10.046,0,0,0-3.428-1.7L24.446,27.8a1.262,1.262,0,0,0-1.5,1.688L25.1,34.892A10.135,10.135,0,0,0,30.051,40.2a8.271,8.271,0,0,0-.585,3.334A8.156,8.156,0,0,0,18.221,49.9a31.185,31.185,0,0,0,5.342,22.372l.55.787c.03.044.067.081.1.126H6.321A3.785,3.785,0,0,1,2.536,69.4Zm36.233,2.313-.283-.378a3.785,3.785,0,0,0-6.057,0l-.281.378a3.684,3.684,0,0,1-5.965-.1l-.551-.787a28.672,28.672,0,0,1-4.911-20.567,5.658,5.658,0,0,1,5.572-4.834,5.593,5.593,0,0,1,3.982,1.651l.319.318.011.01.031.031a6.824,6.824,0,0,0,9.643,0l.361-.36a5.593,5.593,0,0,1,3.982-1.649A5.658,5.658,0,0,1,50.2,50.26a28.662,28.662,0,0,1-2.13,15.606l-.007.017a28.894,28.894,0,0,1-2.776,4.949l-.551.787a3.683,3.683,0,0,1-5.963.1Zm7.93,1.473c.031-.043.068-.081.1-.126l.551-.787c.218-.314.4-.644.609-.965v1.879ZM73.2,69.4a3.786,3.786,0,0,1-3.785,3.785H50.484V66.6a30.952,30.952,0,0,0,1.609-4.768h.915v5.047h2.524V61.828h2.524v2.524h2.524V61.828H63.1v5.047h2.524V61.828h2.524v2.524h2.524V61.828H73.2Zm0,0"/>
    <path id="Trazado_904275" data-name="Trazado 904275" d="M272.415,32.807a16.4,16.4,0,1,0-16.4-16.4A16.4,16.4,0,0,0,272.415,32.807Zm0-30.283a13.88,13.88,0,1,1-13.88,13.88A13.88,13.88,0,0,1,272.415,2.524Zm0,0" transform="translate(-215.622 0)"/>
    <path id="Trazado_904276" data-name="Trazado 904276" d="M291.65,77.946,289.312,77a11.243,11.243,0,0,0-.738,2.84l2.5.313A8.8,8.8,0,0,1,291.65,77.946Zm0,0" transform="translate(-243.049 -64.855)"/>
    <path id="Trazado_904277" data-name="Trazado 904277" d="M297.024,126.329l.946-2.338a8.872,8.872,0,0,1-5.242-5.982l-2.443.631A11.4,11.4,0,0,0,297.024,126.329Zm0,0" transform="translate(-244.49 -99.395)"/>
    <path id="Trazado_904278" data-name="Trazado 904278" d="M360.037,64.111a1.262,1.262,0,1,0,1.615-1.938l-7.117-5.93V49.262a1.262,1.262,0,1,0-2.524,0v7.571a1.263,1.263,0,0,0,.454.969Zm0,0" transform="translate(-296.481 -40.43)"/>
    <path id="Trazado_904279" data-name="Trazado 904279" d="M280.012,240h2.524v2.524h-2.524Zm0,0" transform="translate(-235.837 -202.146)"/>
    <path id="Trazado_904280" data-name="Trazado 904280" d="M280.012,208h2.524v2.524h-2.524Zm0,0" transform="translate(-235.837 -175.193)"/>
    <path id="Trazado_904281" data-name="Trazado 904281" d="M312.012,240h2.524v2.524h-2.524Zm0,0" transform="translate(-262.79 -202.146)"/>
    <path id="Trazado_904282" data-name="Trazado 904282" d="M432.012,200h2.524v2.524h-2.524Zm0,0" transform="translate(-363.863 -168.455)"/>
    <path id="Trazado_904283" data-name="Trazado 904283" d="M432.012,232h2.524v2.524h-2.524Zm0,0" transform="translate(-363.863 -195.408)"/>
    <path id="Trazado_904284" data-name="Trazado 904284" d="M464.012,168h2.524v2.524h-2.524Zm0,0" transform="translate(-390.816 -141.502)"/>
    <path id="Trazado_904285" data-name="Trazado 904285" d="M464.012,200h2.524v2.524h-2.524Zm0,0" transform="translate(-390.816 -168.455)"/>
    <path id="Trazado_904286" data-name="Trazado 904286" d="M464.012,232h2.524v2.524h-2.524Zm0,0" transform="translate(-390.816 -195.408)"/>
    <path id="Trazado_904287" data-name="Trazado 904287" d="M144.012,96h7.571v2.524h-7.571Zm0,0" transform="translate(-121.288 -80.859)"/>
    <path id="Trazado_904288" data-name="Trazado 904288" d="M112.012,96h2.524v2.524h-2.524Zm0,0" transform="translate(-94.335 -80.859)"/>
  </g>
</svg>
