<svg xmlns="http://www.w3.org/2000/svg" width="85" height="87" viewBox="0 0 85 87">
  <g id="Grupo_1112914" data-name="Grupo 1112914" transform="translate(-705.051 -606)">
    <g id="Grupo_1112403" data-name="Grupo 1112403" transform="translate(690.084 611.505)">
      <g id="Grupo_1112399" data-name="Grupo 1112399" transform="translate(29.967 7.495)">
        <path id="Trazado_903627" data-name="Trazado 903627" d="M56.984,30.957V65.891a3.174,3.174,0,0,1-3.174,3.175H33.141a3.174,3.174,0,0,1-3.174-3.175V30.957a3.176,3.176,0,0,1,1.867-2.894l7.461-3.37V9.394A1.893,1.893,0,0,1,41.188,7.5h4.574a1.893,1.893,0,0,1,1.894,1.894v15.3l7.461,3.37A3.176,3.176,0,0,1,56.984,30.957Z" transform="translate(-29.967 -7.499)" fill="#ffe177"/>
        <path id="Trazado_903628" data-name="Trazado 903628" d="M142.417,30.952V65.887a3.174,3.174,0,0,1-3.174,3.174h-3.716a3.174,3.174,0,0,0,3.174-3.174V30.952a3.175,3.175,0,0,0-1.867-2.894l-6.727-3.039a1.248,1.248,0,0,1-.734-1.137V9.389a1.894,1.894,0,0,0-1.893-1.894h3.715a1.894,1.894,0,0,1,1.894,1.894v15.3l7.461,3.371A3.175,3.175,0,0,1,142.417,30.952Z" transform="translate(-115.401 -7.495)" fill="#ffd15b"/>
        <path id="Trazado_903629" data-name="Trazado 903629" d="M113.627,9.394V16.54l-8.361,3.077V9.394A1.893,1.893,0,0,1,107.16,7.5h4.574A1.893,1.893,0,0,1,113.627,9.394Z" transform="translate(-95.938 -7.499)" fill="#6c7fd8"/>
        <path id="Trazado_903630" data-name="Trazado 903630" d="M113.63,9.388v7.148l-8.36,3.077V18.245l3.83-1.41a1.243,1.243,0,0,0,.814-1.167V9.389a1.894,1.894,0,0,0-1.893-1.894h3.716A1.893,1.893,0,0,1,113.63,9.388Z" transform="translate(-95.942 -7.495)" fill="#4f66d0"/>
        <rect id="Rectángulo_405182" data-name="Rectángulo 405182" width="27.017" height="8.125" transform="translate(0 35.872)" fill="#f2fbff"/>
        <rect id="Rectángulo_405183" data-name="Rectángulo 405183" width="3.716" height="8.125" transform="translate(23.3 35.873)" fill="#dff6fd"/>
        <path id="Trazado_903631" data-name="Trazado 903631" d="M257.708,241.9h0a9.646,9.646,0,0,1-9.646-9.646V222.063a2.3,2.3,0,0,1,2.3-2.3H265.05a2.3,2.3,0,0,1,2.3,2.3v10.189A9.646,9.646,0,0,1,257.708,241.9Z" transform="translate(-221.046 -193.464)" fill="#f2fbff"/>
        <path id="Trazado_903632" data-name="Trazado 903632" d="M323.748,222.06v10.19a9.652,9.652,0,0,1-11.318,9.5,9.649,9.649,0,0,0,7.974-9.5V222.06a2.3,2.3,0,0,0-2.3-2.305h3.345A2.3,2.3,0,0,1,323.748,222.06Z" transform="translate(-277.44 -193.461)" fill="#dff6fd"/>
        <path id="Trazado_903633" data-name="Trazado 903633" d="M281.365,306.3a6.309,6.309,0,0,1-6.3-6.3v-2.916h12.6V300A6.309,6.309,0,0,1,281.365,306.3Z" transform="translate(-244.702 -261.209)" fill="#ffe177"/>
        <path id="Trazado_903634" data-name="Trazado 903634" d="M320.4,297.085V300a6.3,6.3,0,0,1-7.974,6.076A6.312,6.312,0,0,0,317.06,300v-2.916Z" transform="translate(-277.44 -261.212)" fill="#ffd15b"/>
        <g id="Grupo_1112398" data-name="Grupo 1112398" transform="translate(34.075 7.022)">
          <path id="Trazado_903635" data-name="Trazado 903635" d="M324.6,86.1H307.407a2.366,2.366,0,0,1-2.366-2.366V66.546a2.366,2.366,0,0,1,2.366-2.366H324.6a2.366,2.366,0,0,1,2.366,2.366V83.739A2.366,2.366,0,0,1,324.6,86.1Z" transform="translate(-305.041 -64.18)" fill="#fe76a8"/>
          <path id="Trazado_903636" data-name="Trazado 903636" d="M439.015,66.547V83.74a2.366,2.366,0,0,1-2.366,2.366h-3.716A2.366,2.366,0,0,0,435.3,83.74V66.547a2.366,2.366,0,0,0-2.366-2.366h3.716A2.366,2.366,0,0,1,439.015,66.547Z" transform="translate(-417.09 -64.181)" fill="#fe5694"/>
          <path id="Trazado_903637" data-name="Trazado 903637" d="M356.218,113.078l2.744-2.744a1.672,1.672,0,1,0-2.365-2.365l-2.744,2.744-2.744-2.744a1.672,1.672,0,0,0-2.365,2.365l2.744,2.744-2.744,2.744a1.673,1.673,0,0,0,2.365,2.365l2.744-2.744,2.744,2.744a1.673,1.673,0,0,0,2.365-2.365Z" transform="translate(-342.891 -102.115)" fill="#f2fbff"/>
        </g>
      </g>
      <g id="Grupo_1112402" data-name="Grupo 1112402" transform="translate(29.967 7.496)">
        <g id="Grupo_1112400" data-name="Grupo 1112400" transform="translate(0 0)">
          <path id="Trazado_903638" data-name="Trazado 903638" d="M29.967,51.5V30.957a3.176,3.176,0,0,1,1.867-2.894l7.461-3.37V9.394A1.893,1.893,0,0,1,41.188,7.5h4.574a1.893,1.893,0,0,1,1.894,1.894v15.3l7.461,3.37a3.175,3.175,0,0,1,1.867,2.894V65.891a3.174,3.174,0,0,1-3.174,3.175H33.141a3.174,3.174,0,0,1-3.174-3.175V55.847" transform="translate(-29.967 -7.5)" fill="none" stroke="#000" stroke-linecap="round" stroke-linejoin="round" stroke-miterlimit="10" stroke-width="2"/>
          <path id="Trazado_903639" data-name="Trazado 903639" d="M77.7,362.675v14.158H57.5V362.675" transform="translate(-54.089 -318.678)" fill="none" stroke="#000" stroke-linecap="round" stroke-linejoin="round" stroke-miterlimit="10" stroke-width="2"/>
          <path id="Trazado_903640" data-name="Trazado 903640" d="M156.843,169.31l7.889,3.563v12.265" transform="translate(-141.126 -149.266)" fill="none" stroke="#000" stroke-linecap="round" stroke-linejoin="round" stroke-miterlimit="10" stroke-width="2"/>
          <path id="Trazado_903641" data-name="Trazado 903641" d="M57.5,184.729V172.464l8.017-3.621" transform="translate(-54.089 -148.857)" fill="none" stroke="#000" stroke-linecap="round" stroke-linejoin="round" stroke-miterlimit="10" stroke-width="2"/>
          <path id="Trazado_903642" data-name="Trazado 903642" d="M113.627,9.394V16.54l-8.361,3.077V9.394A1.893,1.893,0,0,1,107.16,7.5h4.574A1.893,1.893,0,0,1,113.627,9.394Z" transform="translate(-95.938 -7.5)" fill="none" stroke="#000" stroke-linecap="round" stroke-linejoin="round" stroke-miterlimit="10" stroke-width="2"/>
          <rect id="Rectángulo_405184" data-name="Rectángulo 405184" width="27.017" height="8.125" transform="translate(0 35.872)" fill="none" stroke="#000" stroke-linecap="round" stroke-linejoin="round" stroke-miterlimit="10" stroke-width="2"/>
          <line id="Línea_622" data-name="Línea 622" x2="2.93" transform="translate(12.378 40.061)" fill="none" stroke="#000" stroke-linecap="round" stroke-linejoin="round" stroke-miterlimit="10" stroke-width="2"/>
        </g>
        <path id="Trazado_903643" data-name="Trazado 903643" d="M267.352,226.733v5.518a9.646,9.646,0,1,1-19.292,0V222.06a2.3,2.3,0,0,1,2.305-2.305h4.753" transform="translate(-221.044 -193.462)" fill="none" stroke="#000" stroke-linecap="round" stroke-linejoin="round" stroke-miterlimit="10" stroke-width="2"/>
        <g id="Grupo_1112401" data-name="Grupo 1112401" transform="translate(34.075 7.021)">
          <path id="Trazado_903644" data-name="Trazado 903644" d="M324.6,86.107H307.407a2.366,2.366,0,0,1-2.366-2.366V66.548a2.366,2.366,0,0,1,2.366-2.366H324.6a2.366,2.366,0,0,1,2.366,2.366V83.741A2.366,2.366,0,0,1,324.6,86.107Z" transform="translate(-305.041 -64.182)" fill="none" stroke="#000" stroke-linecap="round" stroke-linejoin="round" stroke-miterlimit="10" stroke-width="2"/>
          <path id="Trazado_903645" data-name="Trazado 903645" d="M356.3,113.08l2.744-2.744a1.672,1.672,0,1,0-2.365-2.365l-2.744,2.744-2.744-2.744a1.672,1.672,0,1,0-2.365,2.365l2.744,2.744-2.744,2.744a1.672,1.672,0,0,0,2.365,2.365l2.744-2.744,2.744,2.744a1.672,1.672,0,1,0,2.365-2.365Z" transform="translate(-342.976 -102.117)" fill="none" stroke="#000" stroke-linecap="round" stroke-linejoin="round" stroke-miterlimit="10" stroke-width="2"/>
        </g>
        <path id="Trazado_903646" data-name="Trazado 903646" d="M281.365,306.3a6.309,6.309,0,0,1-6.3-6.3v-2.916h12.6V300A6.309,6.309,0,0,1,281.365,306.3Z" transform="translate(-244.702 -261.209)" fill="none" stroke="#000" stroke-linecap="round" stroke-linejoin="round" stroke-miterlimit="10" stroke-width="2"/>
        <line id="Línea_623" data-name="Línea 623" y2="13.132" transform="translate(36.663 48.434)" fill="none" stroke="#000" stroke-linecap="round" stroke-linejoin="round" stroke-miterlimit="10" stroke-width="2"/>
        <line id="Línea_624" data-name="Línea 624" x1="12.657" transform="translate(30.334 61.566)" fill="none" stroke="#000" stroke-linecap="round" stroke-linejoin="round" stroke-miterlimit="10" stroke-width="2"/>
      </g>
    </g>
    <rect id="Rectángulo_405255" data-name="Rectángulo 405255" width="85" height="87" transform="translate(705.051 606)" fill="none"/>
  </g>
</svg>
