<svg xmlns="http://www.w3.org/2000/svg" xmlns:xlink="http://www.w3.org/1999/xlink" width="105.233" height="105.233" viewBox="0 0 105.233 105.233">
  <defs>
    <clipPath id="clip-path">
      <path id="path5901" d="M0-682.665H105.233v105.233H0Z" transform="translate(0 682.665)"/>
    </clipPath>
  </defs>
  <g id="g5895" transform="translate(0 682.665)">
    <g id="g5897" transform="translate(0 -682.665)">
      <g id="g5899" clip-path="url(#clip-path)">
        <g id="g5905" transform="translate(66.696 82.488)">
          <path id="path5907" d="M0,0V12.332H6.166a6.166,6.166,0,0,0,5.515-3.409L16.143,0Z" fill="#71d1fe"/>
        </g>
        <g id="g5909" transform="translate(22.395 82.488)">
          <path id="path5911" d="M-273.348-48.964l4.462-8.923h-54.278l4.462,8.923a6.166,6.166,0,0,0,5.515,3.409h34.324a6.166,6.166,0,0,0,5.515-3.409" transform="translate(323.165 57.888)" fill="#97e4fd"/>
        </g>
        <g id="g5913" transform="translate(88.277 42.409)">
          <path id="path5915" d="M-16.917,0A6.131,6.131,0,0,0-20,.827v11.5h9.249V6.166A6.166,6.166,0,0,0-16.917,0" transform="translate(20)" fill="#ff6e2e"/>
        </g>
        <g id="g5917" transform="translate(7.708 42.409)">
          <path id="path5919" d="M-442.1-4.538a6.2,6.2,0,0,0-1.222.926,6.144,6.144,0,0,0-4.3-1.753,6.144,6.144,0,0,0-4.3,1.753,6.144,6.144,0,0,0-4.3-1.753,6.144,6.144,0,0,0-4.3,1.753,6.144,6.144,0,0,0-4.3-1.753,6.144,6.144,0,0,0-4.3,1.753,6.144,6.144,0,0,0-4.3-1.753,6.144,6.144,0,0,0-4.3,1.753,6.143,6.143,0,0,0-4.3-1.753,6.144,6.144,0,0,0-4.3,1.753,6.143,6.143,0,0,0-4.3-1.753,6.144,6.144,0,0,0-4.3,1.753,6.143,6.143,0,0,0-4.3-1.753,6.143,6.143,0,0,0-4.3,1.753,6.144,6.144,0,0,0-4.3-1.753,6.144,6.144,0,0,0-4.3,1.753,6.143,6.143,0,0,0-4.3-1.753A6.166,6.166,0,0,0-522.669.8V6.967h83.652V.8A6.162,6.162,0,0,0-442.1-4.538" transform="translate(522.669 5.365)" fill="#ff8b2a"/>
        </g>
        <g id="g5921" transform="translate(60.53 51.658)">
          <path id="path5923" d="M-203,0l-37,37h6.166a37,37,0,0,0,37-37Z" transform="translate(239.999)" fill="#97e4fd"/>
        </g>
        <g id="g5925" transform="translate(1.542 51.658)">
          <path id="path5927" d="M-280.257-67.668-325.167-80h-6.166a37,37,0,0,0,37,37h21.992a37,37,0,0,0,37-37Z" transform="translate(331.333 80)" fill="#bcf7fc"/>
        </g>
        <g id="g5929" transform="translate(60.53 51.658)">
          <path id="path5931" d="M-169.169,0-200,30.83h6.166A30.865,30.865,0,0,0-163,0Z" transform="translate(200)" fill="#ff5233"/>
        </g>
        <g id="g5933" transform="translate(7.708 51.658)">
          <path id="path5935" d="M-459.013,0h-83.652a30.865,30.865,0,0,0,30.83,30.83h21.992A30.865,30.865,0,0,0-459.013,0" transform="translate(542.665)" fill="#ff6e2e"/>
        </g>
        <g id="g5937" transform="translate(7.708 10.414)">
          <path id="path5939" d="M-107.893,0a6.138,6.138,0,0,0-3.083.827l1.028,5.339L-121.39,17.608l-5.339-1.028a6.135,6.135,0,0,0-.827,3.083,6.166,6.166,0,0,0,6.166,6.166A19.685,19.685,0,0,0-101.727,6.166,6.166,6.166,0,0,0-107.893,0" transform="translate(127.556)" fill="#ff6e2e"/>
        </g>
        <g id="g5941" transform="translate(8.534 11.24)">
          <path id="path5943" d="M-29.3-103.357a13.512,13.512,0,0,0,13.5-13.5,6.163,6.163,0,0,0-3.083-5.339,6.163,6.163,0,0,0-3.083,5.339,7.339,7.339,0,0,1-7.331,7.331,6.162,6.162,0,0,0-5.339,3.083,6.162,6.162,0,0,0,5.339,3.083" transform="translate(34.636 122.193)" fill="#ff8b2a"/>
        </g>
        <g id="g5945" transform="translate(71.697 10.414)">
          <path id="path5947" d="M-107.893,0a6.138,6.138,0,0,0-3.083.827l1.028,5.339L-121.39,17.608l-5.339-1.028a6.135,6.135,0,0,0-.827,3.083,6.166,6.166,0,0,0,6.166,6.166A19.685,19.685,0,0,0-101.727,6.166,6.166,6.166,0,0,0-107.893,0" transform="translate(127.556)" fill="#ff6e2e"/>
        </g>
        <g id="g5949" transform="translate(72.524 11.24)">
          <path id="path5951" d="M-29.3-103.357a13.512,13.512,0,0,0,13.5-13.5,6.163,6.163,0,0,0-3.083-5.339,6.163,6.163,0,0,0-3.083,5.339,7.339,7.339,0,0,1-7.331,7.331,6.162,6.162,0,0,0-5.339,3.083,6.162,6.162,0,0,0,5.339,3.083" transform="translate(34.636 122.193)" fill="#ff8b2a"/>
        </g>
        <g id="g5953" transform="translate(39.702 10.414)">
          <path id="path5955" d="M-107.893,0a6.138,6.138,0,0,0-3.083.827l1.028,5.339L-121.39,17.608l-5.339-1.028a6.135,6.135,0,0,0-.827,3.083,6.166,6.166,0,0,0,6.166,6.166A19.685,19.685,0,0,0-101.727,6.166,6.166,6.166,0,0,0-107.893,0" transform="translate(127.556)" fill="#ff6e2e"/>
        </g>
        <g id="g5957" transform="translate(40.529 11.24)">
          <path id="path5959" d="M-29.3-103.357a13.512,13.512,0,0,0,13.5-13.5,6.163,6.163,0,0,0-3.083-5.339,6.163,6.163,0,0,0-3.083,5.339,7.339,7.339,0,0,1-7.331,7.331,6.162,6.162,0,0,0-5.339,3.083,6.162,6.162,0,0,0,5.339,3.083" transform="translate(34.636 122.193)" fill="#ff8b2a"/>
        </g>
        <g id="g5961" transform="translate(23.992 85.683)">
          <path id="path5963" d="M0,0,2.864,5.728A6.166,6.166,0,0,0,8.379,9.137h40.49a6.166,6.166,0,0,0,5.515-3.409L57.248,0" fill="none" stroke="#000" stroke-linecap="round" stroke-linejoin="round" stroke-miterlimit="10" stroke-width="2"/>
        </g>
        <g id="g5965" transform="translate(7.708 42.409)">
          <path id="path5967" d="M-459.013,0a6.144,6.144,0,0,0-4.3,1.753A6.145,6.145,0,0,0-467.623,0a6.145,6.145,0,0,0-4.3,1.753A6.145,6.145,0,0,0-476.232,0a6.145,6.145,0,0,0-4.3,1.753A6.145,6.145,0,0,0-484.842,0a6.145,6.145,0,0,0-4.3,1.753A6.145,6.145,0,0,0-493.451,0a6.145,6.145,0,0,0-4.3,1.753A6.144,6.144,0,0,0-502.061,0a6.145,6.145,0,0,0-4.3,1.753A6.144,6.144,0,0,0-510.67,0a6.145,6.145,0,0,0-4.3,1.753A6.144,6.144,0,0,0-519.28,0a6.145,6.145,0,0,0-4.3,1.753A6.144,6.144,0,0,0-527.89,0a6.145,6.145,0,0,0-4.3,1.753A6.144,6.144,0,0,0-536.5,0a6.166,6.166,0,0,0-6.166,6.166V9.249a30.865,30.865,0,0,0,30.83,30.83h28.158a30.865,30.865,0,0,0,30.83-30.83V6.166A6.166,6.166,0,0,0-459.013,0Z" transform="translate(542.665)" fill="none" stroke="#000" stroke-linecap="round" stroke-linejoin="round" stroke-miterlimit="10" stroke-width="2"/>
        </g>
        <g id="g5969" transform="translate(1.542 51.658)">
          <path id="path5971" d="M-236.837-203h21.992a37,37,0,0,0,37-37H-280a37,37,0,0,0,37,37" transform="translate(279.999 239.999)" fill="none" stroke="#000" stroke-linecap="round" stroke-linejoin="round" stroke-miterlimit="10" stroke-width="2"/>
        </g>
        <g id="g5973" transform="translate(7.708 10.414)">
          <path id="path5975" d="M-107.893,0a6.166,6.166,0,0,0-6.166,6.166A7.339,7.339,0,0,1-121.39,13.5a6.166,6.166,0,0,0-6.166,6.166,6.166,6.166,0,0,0,6.166,6.166A19.685,19.685,0,0,0-101.727,6.166,6.166,6.166,0,0,0-107.893,0Z" transform="translate(127.556)" fill="none" stroke="#000" stroke-linecap="round" stroke-linejoin="round" stroke-miterlimit="10" stroke-width="2"/>
        </g>
        <g id="g5977" transform="translate(71.697 10.414)">
          <path id="path5979" d="M-107.893,0a6.166,6.166,0,0,0-6.166,6.166A7.339,7.339,0,0,1-121.39,13.5a6.166,6.166,0,0,0-6.166,6.166,6.166,6.166,0,0,0,6.166,6.166A19.685,19.685,0,0,0-101.727,6.166,6.166,6.166,0,0,0-107.893,0Z" transform="translate(127.556)" fill="none" stroke="#000" stroke-linecap="round" stroke-linejoin="round" stroke-miterlimit="10" stroke-width="2"/>
        </g>
        <g id="g5981" transform="translate(39.702 10.414)">
          <path id="path5983" d="M-107.893,0a6.166,6.166,0,0,0-6.166,6.166A7.339,7.339,0,0,1-121.39,13.5a6.166,6.166,0,0,0-6.166,6.166,6.166,6.166,0,0,0,6.166,6.166A19.685,19.685,0,0,0-101.727,6.166,6.166,6.166,0,0,0-107.893,0Z" transform="translate(127.556)" fill="none" stroke="#000" stroke-linecap="round" stroke-linejoin="round" stroke-miterlimit="10" stroke-width="2"/>
        </g>
      </g>
    </g>
  </g>
</svg>
