<svg xmlns="http://www.w3.org/2000/svg" xmlns:xlink="http://www.w3.org/1999/xlink" width="144" height="144" viewBox="0 0 144 144">
  <defs>
    <clipPath id="clip-path">
      <path id="path8688" d="M0-682.665H81v81H0Z" transform="translate(0 682.665)"/>
    </clipPath>
  </defs>
  <g id="Grupo_1112877" data-name="Grupo 1112877" transform="translate(-308.051 -5810)">
    <circle id="Elipse_14854" data-name="Elipse 14854" cx="72" cy="72" r="72" transform="translate(308.051 5810)" fill="#d5effb"/>
    <circle id="Elipse_14855" data-name="Elipse 14855" cx="60.5" cy="60.5" r="60.5" transform="translate(320.051 5822)" fill="#97d8f6"/>
    <g id="g8682" transform="translate(340.051 6525.656)">
      <g id="g8684" transform="translate(0 -682.665)">
        <g id="g8686" transform="translate(0 0)" clip-path="url(#clip-path)">
          <g id="g8692" transform="translate(47.935 24.679)">
            <path id="path8694" d="M0-235.342A26.468,26.468,0,0,0,18.984-260.7a26.382,26.382,0,0,0-.768-6.328" transform="translate(0 267.025)" fill="none" stroke="#000" stroke-linecap="round" stroke-linejoin="round" stroke-miterlimit="10" stroke-width="2"/>
          </g>
          <g id="g8696" transform="translate(14.08 24.679)">
            <path id="path8698" d="M-5.7,0A26.428,26.428,0,0,0,11.721,31.437" transform="translate(6.472)" fill="none" stroke="#000" stroke-linecap="round" stroke-linejoin="round" stroke-miterlimit="10" stroke-width="2"/>
          </g>
          <g id="g8700" transform="translate(21.357 31.007)">
            <path id="path8702" d="M-284.381,0a19.142,19.142,0,0,1-19.142,19.142A19.142,19.142,0,0,1-322.666,0" transform="translate(322.666)" fill="none" stroke="#000" stroke-linecap="round" stroke-linejoin="round" stroke-miterlimit="10" stroke-width="2"/>
          </g>
          <g id="g8704" transform="translate(41.394 46.261)">
            <path id="path8706" d="M-54.4-216.928l-7.323-27.331,6.988-1.872,7.323,27.331Z" transform="translate(61.723 246.131)" fill="#fed2a4"/>
          </g>
          <g id="g8708" transform="translate(41.394 46.261)">
            <path id="path8710" d="M-26.259-20.471l3.911-1.048-.458-1.708-6.988,1.872,7.323,27.331,3.077-.825Z" transform="translate(29.795 23.227)" fill="#ffbd86"/>
          </g>
          <g id="g8712" transform="translate(41.394 46.261)">
            <path id="path8714" d="M-87.2-131.7l-4.751-17.731-6.988,1.872,7.323,27.331,6.988-1.872-1.14-4.252" transform="translate(98.937 149.434)" fill="none" stroke="#000" stroke-linecap="round" stroke-linejoin="round" stroke-miterlimit="10" stroke-width="2"/>
          </g>
          <g id="g8716" transform="translate(48.634 72.782)">
            <path id="path8718" d="M-9.273-52.22l-1.248-4.659,8.541-2.289A2.411,2.411,0,0,1,.973-57.462,2.412,2.412,0,0,1-.732-54.508Z" transform="translate(10.521 59.25)" fill="#01d0fb"/>
          </g>
          <g id="g8720" transform="translate(48.634 74.349)">
            <path id="path8722" d="M-25.847-13.17l-.475-1.773-3,.805,1.248,4.659,8.541-2.289a2.411,2.411,0,0,0,1.75-2.743l-7.091,1.9a.791.791,0,0,1-.969-.559" transform="translate(29.327 14.943)" fill="#01c1fa"/>
          </g>
          <g id="g8724" transform="translate(48.634 72.782)">
            <path id="path8726" d="M-9.273-52.22l-1.248-4.659,8.541-2.289A2.411,2.411,0,0,1,.973-57.462,2.412,2.412,0,0,1-.732-54.508Z" transform="translate(10.521 59.25)" fill="none" stroke="#000" stroke-linecap="round" stroke-linejoin="round" stroke-miterlimit="10" stroke-width="2"/>
          </g>
          <g id="g8728" transform="translate(25.293 46.261)">
            <path id="path8730" d="M-51.908-216.928l7.323-27.331-6.988-1.872L-58.9-218.8Z" transform="translate(58.896 246.131)" fill="#fed2a4"/>
          </g>
          <g id="g8732" transform="translate(25.293 46.261)">
            <path id="path8734" d="M-73.971-10.087l4.19,1.123.163-.608-6.988-1.872-7.323,27.331,2.8.75Z" transform="translate(83.929 11.445)" fill="#ffbd86"/>
          </g>
          <g id="g8736" transform="translate(25.293 46.261)">
            <path id="path8738" d="M-51.908-216.928l7.323-27.331-6.988-1.872L-58.9-218.8Z" transform="translate(58.896 246.131)" fill="none" stroke="#000" stroke-linecap="round" stroke-linejoin="round" stroke-miterlimit="10" stroke-width="2"/>
          </g>
          <g id="g8740" transform="translate(29.406 45.72)">
            <path id="path8742" d="M-155.949,0h-19.8l-1.192,10.932,8.2,1.65,2.45-5.753a.482.482,0,0,1,.888,0l2.45,5.753,8.2-1.65Z" transform="translate(176.944)" fill="#53469c"/>
          </g>
          <g id="g8744" transform="translate(29.406 45.72)">
            <path id="path8746" d="M-40.4-55.894l.82-7.525h-5.067l-1.192,10.932,8.2,1.65,1.478-3.47-3.609-.726a.791.791,0,0,1-.63-.861" transform="translate(45.833 63.419)" fill="#463a84"/>
          </g>
          <g id="g8748" transform="translate(29.406 45.72)">
            <path id="path8750" d="M-155.949,0h-19.8l-1.192,10.932,8.2,1.65,2.45-5.753a.482.482,0,0,1,.888,0l2.45,5.753,8.2-1.65Z" transform="translate(176.944)" fill="none" stroke="#000" stroke-linecap="round" stroke-linejoin="round" stroke-miterlimit="10" stroke-width="2"/>
          </g>
          <g id="g8752" transform="translate(20.787 72.782)">
            <path id="path8754" d="M-76.725-52.22l1.248-4.659-8.541-2.289a2.411,2.411,0,0,0-2.954,1.705,2.412,2.412,0,0,0,1.705,2.954Z" transform="translate(87.054 59.25)" fill="#01d0fb"/>
          </g>
          <g id="g8756" transform="translate(20.787 72.783)">
            <path id="path8758" d="M-36.315-25.232a2.411,2.411,0,0,1-1.705-2.954,2.4,2.4,0,0,1,.1-.294l-.249-.067a2.411,2.411,0,0,0-2.954,1.705,2.412,2.412,0,0,0,1.705,2.954l8.541,2.289.544-2.03Z" transform="translate(41.204 28.629)" fill="#01c1fa"/>
          </g>
          <g id="g8760" transform="translate(20.787 72.782)">
            <path id="path8762" d="M-76.725-52.22l1.248-4.659-8.541-2.289a2.411,2.411,0,0,0-2.954,1.705,2.412,2.412,0,0,0,1.705,2.954Z" transform="translate(87.054 59.25)" fill="none" stroke="#000" stroke-linecap="round" stroke-linejoin="round" stroke-miterlimit="10" stroke-width="2"/>
          </g>
          <g id="g8764" transform="translate(9.953 8.19)">
            <path id="path8766" d="M-57.01,0a1.618,1.618,0,0,0-1.618,1.618V2.26l-1.116-1.116a2.071,2.071,0,0,0-2.928,0L-64.079,2.55a2.071,2.071,0,0,0,0,2.928l2.846,2.846a2.062,2.062,0,0,0,1.544.6L-42.3,26.312l3.394-3.394L-55.393,6.436V1.618A1.618,1.618,0,0,0-57.01,0" transform="translate(64.686)" fill="#fed2a4"/>
          </g>
          <g id="g8768" transform="translate(9.953 9.871)">
            <path id="path8770" d="M-177.013-167.951-194.4-185.336a2.062,2.062,0,0,1-1.544-.6l-2.846-2.846a2.066,2.066,0,0,1-.58-1.777l-.869.869a2.071,2.071,0,0,0,0,2.928l2.846,2.846a2.062,2.062,0,0,0,1.543.6l17.385,17.385,3.394-3.394-.286-.285Z" transform="translate(200.844 190.561)" fill="#ffbd86"/>
          </g>
          <g id="g8772" transform="translate(9.953 8.19)">
            <path id="path8774" d="M-78.656-57.44l-1.3-1.3v-4.818a1.618,1.618,0,0,0-1.618-1.618,1.618,1.618,0,0,0-1.618,1.618v.642L-84.3-64.029a2.07,2.07,0,0,0-2.928,0l-1.407,1.406a2.071,2.071,0,0,0,0,2.928l2.846,2.846a2.062,2.062,0,0,0,1.544.6l17.385,17.385,3.394-3.394-11.27-11.27" transform="translate(89.245 65.173)" fill="none" stroke="#000" stroke-linecap="round" stroke-linejoin="round" stroke-miterlimit="10" stroke-width="2"/>
          </g>
          <g id="g8776" transform="translate(45.271 8.19)">
            <path id="path8778" d="M-134.444,0a1.618,1.618,0,0,1,1.618,1.618V2.26l1.116-1.116a2.071,2.071,0,0,1,2.928,0l1.407,1.407a2.071,2.071,0,0,1,0,2.928l-2.846,2.846a2.062,2.062,0,0,1-1.544.6L-149.15,26.312l-3.394-3.394,16.482-16.482V1.618A1.618,1.618,0,0,1-134.444,0" transform="translate(152.544)" fill="#fed2a4"/>
          </g>
          <g id="g8780" transform="translate(45.271 8.19)">
            <path id="path8782" d="M-17.437-179.909-.955-196.391v-4.818a1.616,1.616,0,0,1,.881-1.439,1.617,1.617,0,0,0-1.611-1.481A1.618,1.618,0,0,0-3.3-202.511v4.818l-16.482,16.482,3.394,3.394.523-.523Z" transform="translate(19.784 204.129)" fill="#ffbd86"/>
          </g>
          <g id="g8784" transform="translate(45.271 8.19)">
            <path id="path8786" d="M-134.444,0a1.618,1.618,0,0,1,1.618,1.618V2.26l1.116-1.116a2.071,2.071,0,0,1,2.928,0l1.407,1.407a2.071,2.071,0,0,1,0,2.928l-2.846,2.846a2.062,2.062,0,0,1-1.544.6L-149.15,26.312l-3.394-3.394,16.482-16.482V1.618A1.618,1.618,0,0,1-134.444,0Z" transform="translate(152.544)" fill="none" stroke="#000" stroke-linecap="round" stroke-linejoin="round" stroke-miterlimit="10" stroke-width="2"/>
          </g>
          <g id="g8788" transform="translate(30.693 1.187)">
            <path id="path8790" d="M-109.231-239.477h-9.8a4.909,4.909,0,0,1-4.909-4.909v-18.879a8.452,8.452,0,0,1,8.452-8.452h2.711a8.452,8.452,0,0,1,8.452,8.452v18.879a4.909,4.909,0,0,1-4.909,4.909" transform="translate(123.936 271.717)" fill="#bb5d4c"/>
          </g>
          <g id="g8792" transform="translate(30.693 1.186)">
            <path id="path8794" d="M-39.943-203.015v-18.879a8.453,8.453,0,0,1,7.118-8.346,8.512,8.512,0,0,0-1.333-.106h-2.711a8.451,8.451,0,0,0-8.451,8.452v18.879a4.909,4.909,0,0,0,4.909,4.909h5.377a4.909,4.909,0,0,1-4.909-4.909" transform="translate(45.32 230.346)" fill="#a44f3e"/>
          </g>
          <g id="g8796" transform="translate(30.693 1.187)">
            <path id="path8798" d="M-109.231-239.477h-9.8a4.909,4.909,0,0,1-4.909-4.909v-18.879a8.452,8.452,0,0,1,8.452-8.452h2.711a8.452,8.452,0,0,1,8.452,8.452v18.879A4.909,4.909,0,0,1-109.231-239.477Z" transform="translate(123.936 271.717)" fill="none" stroke="#000" stroke-linecap="round" stroke-linejoin="round" stroke-miterlimit="10" stroke-width="2"/>
          </g>
          <g id="g8800" transform="translate(29.994 24.739)">
            <path id="path8802" d="M-152.229-170.174h-19.976a.482.482,0,0,1-.467-.6l1.958-7.588a8.039,8.039,0,0,0,.1-3.576l-2.1-10.566a.482.482,0,0,1,.473-.576h20.046a.482.482,0,0,1,.473.576l-2.1,10.566a8.038,8.038,0,0,0,.1,3.576l1.958,7.588a.482.482,0,0,1-.467.6" transform="translate(172.723 193.084)" fill="#fe7701"/>
          </g>
          <g id="g8804" transform="translate(29.994 24.739)">
            <path id="path8806" d="M-39.852-165.7l1.958-7.588a8.039,8.039,0,0,0,.1-3.576l-2.1-10.566A.482.482,0,0,1-39.42-188h-5.314a.482.482,0,0,0-.473.576l2.1,10.566a8.039,8.039,0,0,1-.1,3.576l-1.958,7.588a.482.482,0,0,0,.467.6h5.314a.482.482,0,0,1-.467-.6" transform="translate(45.217 188.002)" fill="#f46700"/>
          </g>
          <g id="g8808" transform="translate(29.994 24.739)">
            <path id="path8810" d="M-114.466-170.173h5.084a.482.482,0,0,0,.467-.6l-1.958-7.588a8.04,8.04,0,0,1-.1-3.576l2.1-10.566a.482.482,0,0,0-.473-.576h-20.046a.482.482,0,0,0-.473.576l2.1,10.566a8.039,8.039,0,0,1-.1,3.576l-1.958,7.588a.482.482,0,0,0,.467.6H-120" transform="translate(129.876 193.082)" fill="none" stroke="#000" stroke-linecap="round" stroke-linejoin="round" stroke-miterlimit="10" stroke-width="2"/>
          </g>
          <g id="g8812" transform="translate(38.057 22.744)">
            <path id="path8814" d="M-31.879-.27h-3.7a5.029,5.029,0,0,1-.593-.036V2.236a2.427,2.427,0,0,0,2.427,2.427h.031a2.427,2.427,0,0,0,2.427-2.427V-.307a5.025,5.025,0,0,1-.593.036" transform="translate(36.171 0.307)" fill="#fed2a4"/>
          </g>
          <g id="g8816" transform="translate(38.057 22.744)">
            <path id="path8818" d="M-31.879-.27h-3.7a5.029,5.029,0,0,1-.593-.036V2.236a2.427,2.427,0,0,0,2.427,2.427h.031a2.427,2.427,0,0,0,2.427-2.427V-.307A5.025,5.025,0,0,1-31.879-.27Z" transform="translate(36.171 0.307)" fill="none" stroke="#000" stroke-linecap="round" stroke-linejoin="round" stroke-miterlimit="10" stroke-width="2"/>
          </g>
          <g id="g8820" transform="translate(29.428 12.129)">
            <path id="path8822" d="M-144.819-39.335h-16.849a2.648,2.648,0,0,1-2.647-2.648,2.648,2.648,0,0,1,2.647-2.648h16.849a2.648,2.648,0,0,1,2.647,2.648,2.648,2.648,0,0,1-2.647,2.648" transform="translate(164.316 44.631)" fill="#fed2a4"/>
          </g>
          <g id="g8824" transform="translate(29.428 12.129)">
            <path id="path8826" d="M-144.819-39.335h-16.849a2.648,2.648,0,0,1-2.647-2.648,2.648,2.648,0,0,1,2.647-2.648h16.849a2.648,2.648,0,0,1,2.647,2.648A2.648,2.648,0,0,1-144.819-39.335Z" transform="translate(164.316 44.631)" fill="none" stroke="#000" stroke-linecap="round" stroke-linejoin="round" stroke-miterlimit="10" stroke-width="2"/>
          </g>
          <g id="g8828" transform="translate(33.493 8.297)">
            <path id="path8830" d="M-82.977-.395-93.508,1.794a.8.8,0,0,0-.64.787V7.527A6.669,6.669,0,0,0-87.479,14.2h.676a6.669,6.669,0,0,0,6.669-6.669v-5.6a2.41,2.41,0,0,0-1.066-2,2.33,2.33,0,0,0-1.776-.32" transform="translate(94.148 0.448)" fill="#fed2a4"/>
          </g>
          <g id="g8832" transform="translate(33.493 9.84)">
            <path id="path8834" d="M-29.717-47.774v-6.432l-3.36.7a.8.8,0,0,0-.64.787v4.946A6.669,6.669,0,0,0-27.049-41.1h.676a6.683,6.683,0,0,0,1.663-.209,6.671,6.671,0,0,1-5.006-6.46" transform="translate(33.717 54.205)" fill="#ffbd86"/>
          </g>
          <g id="g8836" transform="translate(33.493 8.297)">
            <path id="path8838" d="M-82.977-.395-93.508,1.794a.8.8,0,0,0-.64.787V7.527A6.669,6.669,0,0,0-87.479,14.2h.676a6.669,6.669,0,0,0,6.669-6.669v-5.6a2.41,2.41,0,0,0-1.066-2A2.33,2.33,0,0,0-82.977-.395Z" transform="translate(94.148 0.448)" fill="none" stroke="#000" stroke-linecap="round" stroke-linejoin="round" stroke-miterlimit="10" stroke-width="2"/>
          </g>
          <g id="g8840" transform="translate(36.963 12.923)">
            <path id="path8842" d="M0,0V1.286" fill="none" stroke="#000" stroke-linecap="round" stroke-linejoin="round" stroke-miterlimit="10" stroke-width="2"/>
          </g>
          <g id="g8844" transform="translate(44.037 12.923)">
            <path id="path8846" d="M0,0V1.286" fill="none" stroke="#000" stroke-linecap="round" stroke-linejoin="round" stroke-miterlimit="10" stroke-width="2"/>
          </g>
          <g id="g8848" transform="translate(39.535 14.048)">
            <path id="path8850" d="M-7.166,0l-.965,1.228.965.7" transform="translate(8.131)" fill="none" stroke="#000" stroke-linecap="round" stroke-linejoin="round" stroke-miterlimit="10" stroke-width="2"/>
          </g>
          <g id="g8852" transform="translate(38.34 18.619)">
            <path id="path8854" d="M0,0A3.053,3.053,0,0,0,4.32,0" fill="none" stroke="#000" stroke-linecap="round" stroke-linejoin="round" stroke-miterlimit="10" stroke-width="2"/>
          </g>
          <g id="g8856" transform="translate(6.256 79.813)">
            <path id="path8858" d="M0,0H68.488" fill="none" stroke="#000" stroke-linecap="round" stroke-linejoin="round" stroke-miterlimit="10" stroke-width="2"/>
          </g>
        </g>
      </g>
    </g>
  </g>
</svg>
