<svg xmlns="http://www.w3.org/2000/svg" width="92" height="68.102" viewBox="0 0 92 68.102">
  <g id="Layer_x0020_1" transform="translate(-0.289 -222)">
    <path id="Trazado_904758" data-name="Trazado 904758" d="M35.16,274.842c-18.441,0-30.789-9.274-34.725-26.044a14.416,14.416,0,0,1,2.858-10.838c3.181-3.99,8.681-6.147,16.23-6.417l26.206-.108a47.3,47.3,0,0,0,10.245-4.529c4.961-2.7,9.059-4.907,15.961-4.907,11.162,0,18.171,3.936,19.9,11.108,1.4,5.77-.431,12.078-5.284,18.279C76.086,264.759,53.978,274.842,35.16,274.842Zm36.774-50.686c-10.946,0-15.1,6.417-25.774,9.382l-26.583.162c-6.9.216-11.809,2.1-14.613,5.608a12.3,12.3,0,0,0-2.426,9.059C7.5,269.5,25.13,272.686,35.16,272.686c18.225,0,39.632-9.76,49.715-22.647,4.422-5.608,6.093-11.323,4.853-16.446C87.894,225.774,79.051,224.157,71.934,224.157Z" transform="translate(0 0)" fill-rule="evenodd"/>
    <path id="Trazado_904759" data-name="Trazado 904759" d="M44.9,585.752c-19.3,0-28.955-5.931-34.024-11.485C5.647,568.551,5,562.781,5,562.458V544.826a1.078,1.078,0,1,1,2.157,0V562.4c.162,1.4,3.02,21.191,37.205,21.191a64.574,64.574,0,0,0,21.245-3.828c14.774-5.446,24.426-15.475,28.686-29.872V535.551a1.079,1.079,0,0,1,2.157,0V550.38c-5.608,18.926-19.519,27.5-30.142,31.436A66.119,66.119,0,0,1,44.9,585.752Z" transform="translate(-4.457 -295.65)" fill-rule="evenodd"/>
    <path id="Trazado_904760" data-name="Trazado 904760" d="M42.66,342.428c-10.73,0-22.809-2.642-36.4-7.926a1.077,1.077,0,0,1,.809-2c28.848,11.216,50.632,10.3,66.7-2.8,1.078-.917,2.426.809,1.348,1.672C66.115,338.761,55.331,342.428,42.66,342.428Zm40.495-19.519a1.077,1.077,0,0,1-.809-1.779c3.181-3.721,6.956-9.113,10.137-9.921a1.059,1.059,0,1,1,.539,2.049c-2.319.593-6.417,6.147-9.059,9.274A.97.97,0,0,1,83.154,322.908Z" transform="translate(-5.02 -84.355)" fill-rule="evenodd"/>
    <path id="Trazado_904761" data-name="Trazado 904761" d="M1240.225,474.451a7.225,7.225,0,1,1,7.225-7.225A7.226,7.226,0,0,1,1240.225,474.451Zm0-12.294a5.069,5.069,0,1,0,5.069,5.069A5.063,5.063,0,0,0,1240.225,462.157Z" transform="translate(-1166.243 -225.167)" fill-rule="evenodd"/>
    <path id="Trazado_904762" data-name="Trazado 904762" d="M431.248,424.588a1.05,1.05,0,0,1-1.025-1.294C432.434,412.132,418.36,400.108,418.2,400a1.091,1.091,0,0,1,1.4-1.672c.593.539,15.206,12.995,12.725,25.4A1.05,1.05,0,0,1,431.248,424.588Z" transform="translate(-395.009 -166.569)" fill-rule="evenodd"/>
    <path id="Trazado_904763" data-name="Trazado 904763" d="M990.165,818.612c-4.368,0-7.765-1.186-10.191-3.5-2.8-2.75-4.745-9.167-2.319-9.113,2.157.054-.108,3.721,3.828,7.6,2.157,2.049,5.392,3.02,9.6,2.858a1.079,1.079,0,0,1,.054,2.157Z" transform="translate(-923.623 -552.504)" fill-rule="evenodd"/>
    <g id="Grupo_1112829" data-name="Grupo 1112829" transform="translate(2.436 224.157)">
      <path id="Trazado_904764" data-name="Trazado 904764" d="M115.391,773.044a12.73,12.73,0,0,1-7.279-3.343,13.246,13.246,0,0,1-3.343-6.578A56.306,56.306,0,0,1,89.4,765.171C79.21,765.171,67.779,762.8,55,758c5.716,18.872,22.269,21.784,31.921,21.784A69.232,69.232,0,0,0,115.391,773.044Z" transform="translate(-54.197 -731.255)" fill="#d0004f" fill-rule="evenodd"/>
      <path id="Trazado_904765" data-name="Trazado 904765" d="M1021.642,385.975c2.157,2.049,5.392,3.02,9.6,2.858h.108a55.71,55.71,0,0,0,17.308-13.912c4.422-5.608,6.093-11.323,4.853-16.446a10.986,10.986,0,0,0-2.265-4.475c-2.211,1.132-5.446,5.392-7.872,8.358a7.084,7.084,0,0,1,1.618,4.583,7.226,7.226,0,0,1-7.225,7.225,7.387,7.387,0,0,1-4.637-1.672A46.9,46.9,0,0,1,1019,380.206,8.69,8.69,0,0,0,1021.642,385.975Z" transform="translate(-966.217 -349.039)" fill="#d0004f" fill-rule="evenodd"/>
      <path id="Trazado_904766" data-name="Trazado 904766" d="M498.946,293.759c11.809,0,21.892-3.289,30.411-9.921a7.054,7.054,0,0,1-1.186-3.936,7.243,7.243,0,0,1,11.216-6.039c2.48-2.966,5.284-6.74,7.818-8.412-3.667-2.75-9.167-3.451-13.858-3.451-10.946,0-15.1,6.417-25.774,9.382L488,271.49C491.936,275.318,499.97,284.431,498.946,293.759Z" transform="translate(-463.849 -262)" fill="#d0004f" fill-rule="evenodd"/>
      <path id="Trazado_904767" data-name="Trazado 904767" d="M72.992,460.215c1.294-10.029-9.921-20.49-11.863-22.215l-3.882.054c-6.9.216-11.809,2.1-14.613,5.608a12.3,12.3,0,0,0-2.426,9.059C52.394,457.358,63.286,459.892,72.992,460.215Z" transform="translate(-40.106 -428.51)" fill="#d0004f" fill-rule="evenodd"/>
    </g>
    <g id="Grupo_1112830" data-name="Grupo 1112830" transform="translate(2.699 236.99)">
      <path id="Trazado_904768" data-name="Trazado 904768" d="M1278.069,500a5.069,5.069,0,1,0,5.069,5.069A5.063,5.063,0,0,0,1278.069,500Z" transform="translate(-1206.785 -500)" fill="#ffac9a" fill-rule="evenodd"/>
      <path id="Trazado_904769" data-name="Trazado 904769" d="M128.847,677.122c-10.461,13.372-32.568,23.456-51.387,23.456-15.745,0-27.014-6.74-32.46-19.142V692.49c.162,1.4,3.02,21.191,37.205,21.191a64.576,64.576,0,0,0,21.245-3.828c14.774-5.446,24.426-15.475,28.686-29.872V672A28.3,28.3,0,0,1,128.847,677.122Z" transform="translate(-45 -662.726)" fill="#ffac9a" fill-rule="evenodd"/>
    </g>
  </g>
</svg>
