<svg xmlns="http://www.w3.org/2000/svg" width="145" height="144" viewBox="0 0 145 144">
  <g id="Grupo_1112878" data-name="Grupo 1112878" transform="translate(-517.051 -5810)">
    <ellipse id="Elipse_14856" data-name="Elipse 14856" cx="72.5" cy="72" rx="72.5" ry="72" transform="translate(517.051 5810)" fill="#d5effb"/>
    <circle id="Elipse_14857" data-name="Elipse 14857" cx="60.5" cy="60.5" r="60.5" transform="translate(529.051 5822)" fill="#97d8f6"/>
    <g id="Grupo_1112564" data-name="Grupo 1112564" transform="translate(536.981 5845.821)">
      <path id="Trazado_904010" data-name="Trazado 904010" d="M43.246,17.134H36.869a.991.991,0,0,0-.991.989v6.314a.991.991,0,0,0,.991.989h6.377a.991.991,0,0,0,.991-.989V18.123a.991.991,0,0,0-.991-.989Zm-.989,6.314h-4.4V19.112h4.4Zm3.766,2.208a.989.989,0,0,0-1.4.058l-1.466,1.6h-6.29a.991.991,0,0,0-.991.989v6.314a.991.991,0,0,0,.991.989h6.377a.991.991,0,0,0,.991-.989V29.062l1.846-2.008a.988.988,0,0,0-.059-1.4Zm-3.766,7.968h-4.4V29.288H41.34l-1.133,1.235-.264-.254A.99.99,0,0,0,38.571,31.7l.994.953a.988.988,0,0,0,.685.276h.031a.992.992,0,0,0,.7-.319l1.278-1.391Zm20.159-3.157H47.165a.989.989,0,1,0,0,1.979h15.25a.989.989,0,0,0,0-1.979Zm0-10.175H47.165a.989.989,0,1,0,0,1.979h15.25a.989.989,0,0,0,0-1.979Zm0,0H47.165a.989.989,0,1,0,0,1.979h15.25a.989.989,0,0,0,0-1.979Zm0,10.175H47.165a.989.989,0,1,0,0,1.979h15.25a.989.989,0,0,0,0-1.979ZM46.023,25.656a.989.989,0,0,0-1.4.058l-1.466,1.6h-6.29a.991.991,0,0,0-.991.989v6.314a.991.991,0,0,0,.991.989h6.377a.991.991,0,0,0,.991-.989V29.062l1.846-2.008a.988.988,0,0,0-.059-1.4Zm-3.766,7.968h-4.4V29.288H41.34l-1.133,1.235-.264-.254A.99.99,0,1,0,38.571,31.7l.994.953a.988.988,0,0,0,.685.276h.031a.992.992,0,0,0,.7-.319l1.278-1.391Zm.989-16.49H36.869a.991.991,0,0,0-.991.989v6.314a.991.991,0,0,0,.991.989h6.377a.991.991,0,0,0,.991-.989V18.123A.991.991,0,0,0,43.246,17.134Zm-.989,6.314h-4.4V19.112h4.4Zm.989-6.314H36.869a.991.991,0,0,0-.991.989v6.314a.991.991,0,0,0,.991.989h6.377a.991.991,0,0,0,.991-.989V18.123A.991.991,0,0,0,43.246,17.134Zm-.989,6.314h-4.4V19.112h4.4Zm3.766,2.207a.989.989,0,0,0-1.4.058l-1.466,1.6h-6.29a.991.991,0,0,0-.991.989v6.314a.991.991,0,0,0,.991.989h6.377a.991.991,0,0,0,.991-.989V29.062l1.846-2.008a.988.988,0,0,0-.059-1.4Zm-3.766,7.968h-4.4V29.288H41.34l-1.133,1.235-.264-.254A.99.99,0,1,0,38.571,31.7l.994.953a.988.988,0,0,0,.685.276h.031a.992.992,0,0,0,.7-.319l1.278-1.391Zm20.159-3.157H47.165a.989.989,0,1,0,0,1.979h15.25a.989.989,0,0,0,0-1.979Zm0-10.175H47.165a.989.989,0,0,0,0,1.979h15.25a.989.989,0,0,0,0-1.979Zm0,0H47.165a.989.989,0,0,0,0,1.979h15.25a.989.989,0,0,0,0-1.979Zm0,10.175H47.165a.989.989,0,1,0,0,1.979h15.25a.989.989,0,0,0,0-1.979ZM46.023,25.656a.989.989,0,0,0-1.4.058l-1.466,1.6h-6.29a.991.991,0,0,0-.991.989v6.314a.991.991,0,0,0,.991.989h6.377a.991.991,0,0,0,.991-.989V29.062l1.846-2.008a.988.988,0,0,0-.059-1.4Zm-3.766,7.968h-4.4V29.288H41.34l-1.133,1.235-.264-.254A.99.99,0,1,0,38.571,31.7l.994.953a.988.988,0,0,0,.685.276h.031a.992.992,0,0,0,.7-.319l1.278-1.391Zm.989-16.49H36.869a.991.991,0,0,0-.991.989v6.314a.991.991,0,0,0,.991.989h6.377a.991.991,0,0,0,.991-.989V18.123A.991.991,0,0,0,43.246,17.134Zm-.989,6.314h-4.4V19.112h4.4Zm.989-6.314H36.869a.991.991,0,0,0-.991.989v6.314a.991.991,0,0,0,.991.989h6.377a.991.991,0,0,0,.991-.989V18.123A.991.991,0,0,0,43.246,17.134Zm-.989,6.314h-4.4V19.112h4.4Zm3.766,2.207a.989.989,0,0,0-1.4.058l-1.466,1.6h-6.29a.991.991,0,0,0-.991.989v6.314a.991.991,0,0,0,.991.989h6.377a.991.991,0,0,0,.991-.989V29.062l1.846-2.008a.988.988,0,0,0-.059-1.4Zm-3.766,7.968h-4.4V29.288H41.34l-1.133,1.235-.264-.254A.99.99,0,1,0,38.571,31.7l.994.953a.988.988,0,0,0,.685.276h.031a.992.992,0,0,0,.7-.319l1.278-1.391Zm20.159-3.157H47.165a.989.989,0,1,0,0,1.979h15.25a.989.989,0,0,0,0-1.979Zm0-10.175H47.165a.989.989,0,0,0,0,1.979h15.25a.989.989,0,0,0,0-1.979Zm0,0H47.165a.989.989,0,0,0,0,1.979h15.25a.989.989,0,0,0,0-1.979Zm0,10.175H47.165a.989.989,0,1,0,0,1.979h15.25a.989.989,0,0,0,0-1.979ZM46.023,25.656a.989.989,0,0,0-1.4.058l-1.466,1.6h-6.29a.991.991,0,0,0-.991.989v6.314a.991.991,0,0,0,.991.989h6.377a.991.991,0,0,0,.991-.989V29.062l1.846-2.008a.988.988,0,0,0-.059-1.4Zm-3.766,7.968h-4.4V29.288H41.34l-1.133,1.235-.264-.254A.99.99,0,1,0,38.571,31.7l.994.953a.988.988,0,0,0,.685.276h.031a.992.992,0,0,0,.7-.319l1.278-1.391Zm.989-16.49H36.869a.991.991,0,0,0-.991.989v6.314a.991.991,0,0,0,.991.989h6.377a.991.991,0,0,0,.991-.989V18.123A.991.991,0,0,0,43.246,17.134Zm-.989,6.314h-4.4V19.112h4.4Zm.989-6.314H36.869a.991.991,0,0,0-.991.989v6.314a.991.991,0,0,0,.991.989h6.377a.991.991,0,0,0,.991-.989V18.123A.991.991,0,0,0,43.246,17.134Zm-.989,6.314h-4.4V19.112h4.4Zm3.766,2.207a.989.989,0,0,0-1.4.058l-1.466,1.6h-6.29a.991.991,0,0,0-.991.989v6.314a.991.991,0,0,0,.991.989h6.377a.991.991,0,0,0,.991-.989V29.062l1.846-2.008a.988.988,0,0,0-.059-1.4Zm-3.766,7.968h-4.4V29.288H41.34l-1.133,1.235-.264-.254A.99.99,0,1,0,38.571,31.7l.994.953a.988.988,0,0,0,.685.276h.031a.992.992,0,0,0,.7-.319l1.278-1.391Zm20.159-3.157H47.165a.989.989,0,1,0,0,1.979h15.25a.989.989,0,0,0,0-1.979Zm0-10.175H47.165a.989.989,0,0,0,0,1.979h15.25a.989.989,0,0,0,0-1.979Zm0,0H47.165a.989.989,0,0,0,0,1.979h15.25a.989.989,0,0,0,0-1.979Zm0,10.175H47.165a.989.989,0,1,0,0,1.979h15.25a.989.989,0,0,0,0-1.979ZM46.023,25.656a.989.989,0,0,0-1.4.058l-1.466,1.6h-6.29a.991.991,0,0,0-.991.989v6.314a.991.991,0,0,0,.991.989h6.377a.991.991,0,0,0,.991-.989V29.062l1.846-2.008a.988.988,0,0,0-.059-1.4Zm-3.766,7.968h-4.4V29.288H41.34l-1.133,1.235-.264-.254A.99.99,0,1,0,38.571,31.7l.994.953a.988.988,0,0,0,.685.276h.031a.992.992,0,0,0,.7-.319l1.278-1.391Zm.989-16.49H36.869a.991.991,0,0,0-.991.989v6.314a.991.991,0,0,0,.991.989h6.377a.991.991,0,0,0,.991-.989V18.123A.991.991,0,0,0,43.246,17.134Zm-.989,6.314h-4.4V19.112h4.4Zm.989-6.314H36.869a.991.991,0,0,0-.991.989v6.314a.991.991,0,0,0,.991.989h6.377a.991.991,0,0,0,.991-.989V18.123A.991.991,0,0,0,43.246,17.134Zm-.989,6.314h-4.4V19.112h4.4Zm3.766,2.207a.989.989,0,0,0-1.4.058l-1.466,1.6h-6.29a.991.991,0,0,0-.991.989v6.314a.991.991,0,0,0,.991.989h6.377a.991.991,0,0,0,.991-.989V29.062l1.846-2.008a.988.988,0,0,0-.059-1.4Zm-3.766,7.968h-4.4V29.288H41.34l-1.133,1.235-.264-.254A.99.99,0,1,0,38.571,31.7l.994.953a.988.988,0,0,0,.685.276h.031a.992.992,0,0,0,.7-.319l1.278-1.391Zm20.159-3.157H47.165a.989.989,0,1,0,0,1.979h15.25a.989.989,0,0,0,0-1.979Zm0-10.175H47.165a.989.989,0,0,0,0,1.979h15.25a.989.989,0,0,0,0-1.979Zm0,0H47.165a.989.989,0,0,0,0,1.979h15.25a.989.989,0,0,0,0-1.979Zm0,10.175H47.165a.989.989,0,1,0,0,1.979h15.25a.989.989,0,0,0,0-1.979ZM46.023,25.656a.989.989,0,0,0-1.4.058l-1.466,1.6h-6.29a.991.991,0,0,0-.991.989v6.314a.991.991,0,0,0,.991.989h6.377a.991.991,0,0,0,.991-.989V29.062l1.846-2.008a.988.988,0,0,0-.059-1.4Zm-3.766,7.968h-4.4V29.288H41.34l-1.133,1.235-.264-.254A.99.99,0,1,0,38.571,31.7l.994.953a.988.988,0,0,0,.685.276h.031a.992.992,0,0,0,.7-.319l1.278-1.391Zm.989-16.49H36.869a.991.991,0,0,0-.991.989v6.314a.991.991,0,0,0,.991.989h6.377a.991.991,0,0,0,.991-.989V18.123A.991.991,0,0,0,43.246,17.134Zm-.989,6.314h-4.4V19.112h4.4Zm.989-6.314H36.869a.991.991,0,0,0-.991.989v6.314a.991.991,0,0,0,.991.989h6.377a.991.991,0,0,0,.991-.989V18.123A.991.991,0,0,0,43.246,17.134Zm-.989,6.314h-4.4V19.112h4.4Zm3.766,2.207a.989.989,0,0,0-1.4.058l-1.466,1.6h-6.29a.991.991,0,0,0-.991.989v6.314a.991.991,0,0,0,.991.989h6.377a.991.991,0,0,0,.991-.989V29.062l1.846-2.008a.988.988,0,0,0-.059-1.4Zm-3.766,7.968h-4.4V29.288H41.34l-1.133,1.235-.264-.254A.99.99,0,1,0,38.571,31.7l.994.953a.988.988,0,0,0,.685.276h.031a.992.992,0,0,0,.7-.319l1.278-1.391Zm20.159-3.157H47.165a.989.989,0,1,0,0,1.979h15.25a.989.989,0,0,0,0-1.979Zm0-10.175H47.165a.989.989,0,0,0,0,1.979h15.25a.989.989,0,0,0,0-1.979Zm0,0H47.165a.989.989,0,0,0,0,1.979h15.25a.989.989,0,0,0,0-1.979Zm0,10.175H47.165a.989.989,0,1,0,0,1.979h15.25a.989.989,0,0,0,0-1.979ZM46.023,25.656a.989.989,0,0,0-1.4.058l-1.466,1.6h-6.29a.991.991,0,0,0-.991.989v6.314a.991.991,0,0,0,.991.989h6.377a.991.991,0,0,0,.991-.989V29.062l1.846-2.008a.988.988,0,0,0-.059-1.4Zm-3.766,7.968h-4.4V29.288H41.34l-1.133,1.235-.264-.254A.99.99,0,1,0,38.571,31.7l.994.953a.988.988,0,0,0,.685.276h.031a.992.992,0,0,0,.7-.319l1.278-1.391Zm.989-16.49H36.869a.991.991,0,0,0-.991.989v6.314a.991.991,0,0,0,.991.989h6.377a.991.991,0,0,0,.991-.989V18.123A.991.991,0,0,0,43.246,17.134Zm-.989,6.314h-4.4V19.112h4.4Zm.989-6.314H36.869a.991.991,0,0,0-.991.989v6.314a.991.991,0,0,0,.991.989h6.377a.991.991,0,0,0,.991-.989V18.123A.991.991,0,0,0,43.246,17.134Zm-.989,6.314h-4.4V19.112h4.4Zm3.766,2.207a.989.989,0,0,0-1.4.058l-1.466,1.6h-6.29a.991.991,0,0,0-.991.989v6.314a.991.991,0,0,0,.991.989h6.377a.991.991,0,0,0,.991-.989V29.062l1.846-2.008a.988.988,0,0,0-.059-1.4Zm-3.766,7.968h-4.4V29.288H41.34l-1.133,1.235-.264-.254A.99.99,0,1,0,38.571,31.7l.994.953a.988.988,0,0,0,.685.276h.031a.992.992,0,0,0,.7-.319l1.278-1.391Zm20.159-3.157H47.165a.989.989,0,1,0,0,1.979h15.25a.989.989,0,0,0,0-1.979Zm0-10.175H47.165a.989.989,0,0,0,0,1.979h15.25a.989.989,0,0,0,0-1.979Zm0,0H47.165a.989.989,0,0,0,0,1.979h15.25a.989.989,0,0,0,0-1.979Zm0,10.175H47.165a.989.989,0,1,0,0,1.979h15.25a.989.989,0,0,0,0-1.979ZM46.023,25.656a.989.989,0,0,0-1.4.058l-1.466,1.6h-6.29a.991.991,0,0,0-.991.989v6.314a.991.991,0,0,0,.991.989h6.377a.991.991,0,0,0,.991-.989V29.062l1.846-2.008a.988.988,0,0,0-.059-1.4Zm-3.766,7.968h-4.4V29.288H41.34l-1.133,1.235-.264-.254A.99.99,0,1,0,38.571,31.7l.994.953a.988.988,0,0,0,.685.276h.031a.992.992,0,0,0,.7-.319l1.278-1.391Zm.989-16.49H36.869a.991.991,0,0,0-.991.989v6.314a.991.991,0,0,0,.991.989h6.377a.991.991,0,0,0,.991-.989V18.123A.991.991,0,0,0,43.246,17.134Zm-.989,6.314h-4.4V19.112h4.4Zm.989-6.314H36.869a.991.991,0,0,0-.991.989v6.314a.991.991,0,0,0,.991.989h6.377a.991.991,0,0,0,.991-.989V18.123A.991.991,0,0,0,43.246,17.134Zm-.989,6.314h-4.4V19.112h4.4Zm3.766,2.207a.989.989,0,0,0-1.4.058l-1.466,1.6h-6.29a.991.991,0,0,0-.991.989v6.314a.991.991,0,0,0,.991.989h6.377a.991.991,0,0,0,.991-.989V29.062l1.846-2.008a.988.988,0,0,0-.059-1.4Zm-3.766,7.968h-4.4V29.288H41.34l-1.133,1.235-.264-.254A.99.99,0,1,0,38.571,31.7l.994.953a.988.988,0,0,0,.685.276h.031a.992.992,0,0,0,.7-.319l1.278-1.391Zm20.159-3.157H47.165a.989.989,0,1,0,0,1.979h15.25a.989.989,0,0,0,0-1.979Zm0-10.175H47.165a.989.989,0,0,0,0,1.979h15.25a.989.989,0,0,0,0-1.979Zm0,0H47.165a.989.989,0,0,0,0,1.979h15.25a.989.989,0,0,0,0-1.979Zm0,10.175H47.165a.989.989,0,1,0,0,1.979h15.25a.989.989,0,0,0,0-1.979ZM46.023,25.656a.989.989,0,0,0-1.4.058l-1.466,1.6h-6.29a.991.991,0,0,0-.991.989v6.314a.991.991,0,0,0,.991.989h6.377a.991.991,0,0,0,.991-.989V29.062l1.846-2.008a.988.988,0,0,0-.059-1.4Zm-3.766,7.968h-4.4V29.288H41.34l-1.133,1.235-.264-.254A.99.99,0,1,0,38.571,31.7l.994.953a.988.988,0,0,0,.685.276h.031a.992.992,0,0,0,.7-.319l1.278-1.391Zm.989-16.49H36.869a.991.991,0,0,0-.991.989v6.314a.991.991,0,0,0,.991.989h6.377a.991.991,0,0,0,.991-.989V18.123A.991.991,0,0,0,43.246,17.134Zm-.989,6.314h-4.4V19.112h4.4Zm.989-6.314H36.869a.991.991,0,0,0-.991.989v6.314a.991.991,0,0,0,.991.989h6.377a.991.991,0,0,0,.991-.989V18.123A.991.991,0,0,0,43.246,17.134Zm-.989,6.314h-4.4V19.112h4.4Zm3.766,2.207a.989.989,0,0,0-1.4.058l-1.466,1.6h-6.29a.991.991,0,0,0-.991.989v6.314a.991.991,0,0,0,.991.989h6.377a.991.991,0,0,0,.991-.989V29.062l1.846-2.008a.988.988,0,0,0-.059-1.4Zm-3.766,7.968h-4.4V29.288H41.34l-1.133,1.235-.264-.254A.99.99,0,1,0,38.571,31.7l.994.953a.988.988,0,0,0,.685.276h.031a.992.992,0,0,0,.7-.319l1.278-1.391Zm20.159-3.157H47.165a.989.989,0,1,0,0,1.979h15.25a.989.989,0,0,0,0-1.979Zm0-10.175H47.165a.989.989,0,0,0,0,1.979h15.25a.989.989,0,0,0,0-1.979ZM47.165,22.27h15.25a.989.989,0,0,0,0-1.979H47.165a.989.989,0,0,0,0,1.979Zm15.25,8.2H47.165a.989.989,0,1,0,0,1.979h15.25a.989.989,0,0,0,0-1.979ZM46.023,25.656a.989.989,0,0,0-1.4.058l-1.466,1.6h-6.29a.991.991,0,0,0-.991.989v6.314a.991.991,0,0,0,.991.989h6.377a.991.991,0,0,0,.991-.989V29.062l1.846-2.008a.988.988,0,0,0-.059-1.4Zm-3.766,7.968h-4.4V29.288H41.34l-1.133,1.235-.264-.254A.99.99,0,1,0,38.571,31.7l.994.953a.988.988,0,0,0,.685.276h.031a.992.992,0,0,0,.7-.319l1.278-1.391Zm-5.387-8.2h6.377a.991.991,0,0,0,.991-.989V18.123a.991.991,0,0,0-.991-.989H36.869a.991.991,0,0,0-.991.989v6.314A.991.991,0,0,0,36.869,25.427Zm.989-6.314h4.4v4.336h-4.4ZM89.081,47.431H87.666V43.614A2.417,2.417,0,0,0,85.253,41.2H83.587a2.485,2.485,0,0,0-.437.041V40.077a2.413,2.413,0,0,0-2.411-2.411H79.073a2.417,2.417,0,0,0-2.417,2.411v7.355H74.595V10.644a3.336,3.336,0,0,0-3.334-3.332H63.4V5.268a.989.989,0,0,0-.989-.989H55.356a5.957,5.957,0,0,0-11.432,0H36.869a.989.989,0,0,0-.991.989V7.312H28.024a3.336,3.336,0,0,0-3.334,3.332v58.38a3.337,3.337,0,0,0,3.334,3.334H71.261a3.337,3.337,0,0,0,3.334-3.334V54.783h2.062v7.355a2.419,2.419,0,0,0,2.417,2.417H80.74a2.417,2.417,0,0,0,2.411-2.417V60.974a2.359,2.359,0,0,0,.437.042h1.666A2.417,2.417,0,0,0,87.666,58.6V54.783h1.415a.989.989,0,0,0,.989-.989V48.422A.991.991,0,0,0,89.081,47.431ZM37.859,6.257h6.863A.989.989,0,0,0,45.7,5.4a3.978,3.978,0,0,1,7.879,0,.989.989,0,0,0,.979.854h6.867v6.158H37.859ZM55.016,70.378H28.024a1.354,1.354,0,0,1-1.354-1.354V10.644A1.355,1.355,0,0,1,28.024,9.29h7.855V13.4a.989.989,0,0,0,.991.989H62.415A.989.989,0,0,0,63.4,13.4V9.29h7.856a1.356,1.356,0,0,1,1.354,1.354V47.431h-4.8a2.744,2.744,0,0,0-3.66-1.908,2.751,2.751,0,0,0-4.31-1.053,2.747,2.747,0,0,0-4.154.741,2.752,2.752,0,0,0-3.894,2.22H46.552V40.077a2.414,2.414,0,0,0-2.411-2.411H42.473a2.417,2.417,0,0,0-2.415,2.411V41.24a2.437,2.437,0,0,0-.432-.041H37.959a2.419,2.419,0,0,0-2.417,2.415v3.817H34.129a.989.989,0,0,0-.989.991v5.372a.989.989,0,0,0,.989.989h1.413V58.6a2.419,2.419,0,0,0,2.417,2.417h1.666a2.436,2.436,0,0,0,.432-.041v1.162a2.419,2.419,0,0,0,2.415,2.417h1.668a2.417,2.417,0,0,0,2.411-2.417V54.783h5.228v5.793a4.589,4.589,0,0,0,3.539,4.463ZM65.917,48.1v2.195H64.363V48.1a.79.79,0,0,1,.777-.782.781.781,0,0,1,.777.782Zm-3.9,6.692a.928.928,0,0,0-.093.034.777.777,0,0,1-1.092-.708V46.583a.777.777,0,1,1,1.553,0v3.711a.989.989,0,0,0-.948.964A6.808,6.808,0,0,0,62.015,54.789ZM58.85,46.583v7.531a.787.787,0,0,1-.777.777.777.777,0,0,1-.776-.777V46.583a.777.777,0,1,1,1.553,0Zm-3.533,1.129v6.4a.779.779,0,1,1-1.557,0v-6.4a.779.779,0,1,1,1.557,0Zm-3.537,1.7V52.8H46.552V49.411Zm-7.206-9.335V62.137a.441.441,0,0,1-.432.437H42.473a.442.442,0,0,1-.437-.437V40.077a.441.441,0,0,1,.437-.432h1.668A.439.439,0,0,1,44.573,40.077Zm-4.515,3.537V58.6a.44.44,0,0,1-.432.437H37.959a.442.442,0,0,1-.437-.437V43.614a.442.442,0,0,1,.437-.437h1.666A.441.441,0,0,1,40.058,43.614Zm-4.515,5.8V52.8h-.424V49.411ZM57,70.378l.349-6.153a.988.988,0,0,0-.988-1.044,2.605,2.605,0,0,1-2.6-2.6V56.757a2.745,2.745,0,0,0,2.547-.531,2.748,2.748,0,0,0,3.535,0,2.684,2.684,0,0,0,2.169.609,6.6,6.6,0,0,0-1.382,2.316.991.991,0,0,0,.609,1.261,1.007,1.007,0,0,0,.325.055A.993.993,0,0,0,62.5,59.8a5.241,5.241,0,0,1,3.2-3.12,1.163,1.163,0,0,0-.449-2.034c-1.369-.29-1.784-.719-1.839-2.377H67.3l1.114,2.364v5.252c-2.145,1.935-3.494,3.106-4.009,3.482a.989.989,0,0,0-.4.89l.561,6.118Zm15.618-1.354a1.355,1.355,0,0,1-1.354,1.354H66.548l-.529-5.762c.755-.615,2.066-1.768,4.042-3.554a.991.991,0,0,0,.326-.735V54.783h2.227ZM76.657,52.8H69.733l-.823-1.748a1.011,1.011,0,0,0-.051-.095.989.989,0,0,0-.936-.67H67.9v-.88h8.761Zm4.515,9.333a.44.44,0,0,1-.432.437H79.073a.442.442,0,0,1-.437-.437V40.077a.44.44,0,0,1,.437-.432H80.74a.438.438,0,0,1,.432.432ZM85.687,58.6a.441.441,0,0,1-.434.437H83.587a.442.442,0,0,1-.437-.437V43.614a.443.443,0,0,1,.437-.437h1.666a.442.442,0,0,1,.434.437Zm2.4-5.8h-.424V49.411h.424ZM47.165,22.27h15.25a.989.989,0,1,0,0-1.979H47.165a.989.989,0,0,0,0,1.979Zm15.25,8.2H47.165a.989.989,0,1,0,0,1.979h15.25a.989.989,0,1,0,0-1.979ZM36.869,35.6h6.377a.991.991,0,0,0,.991-.989V29.062l1.846-2.008a.99.99,0,1,0-1.457-1.34l-1.466,1.6h-6.29a.991.991,0,0,0-.991.989v6.314A.991.991,0,0,0,36.869,35.6Zm.989-6.314H41.34l-1.133,1.235-.264-.254A.99.99,0,1,0,38.571,31.7l.994.953a.988.988,0,0,0,.685.276h.031a.992.992,0,0,0,.7-.319l1.278-1.391v2.408h-4.4Zm-.989-3.861h6.377a.991.991,0,0,0,.991-.989V18.123a.991.991,0,0,0-.991-.989H36.869a.991.991,0,0,0-.991.989v6.314A.991.991,0,0,0,36.869,25.427Zm.989-6.314h4.4v4.336h-4.4Zm5.387-1.979H36.869a.991.991,0,0,0-.991.989v6.314a.991.991,0,0,0,.991.989h6.377a.991.991,0,0,0,.991-.989V18.123a.991.991,0,0,0-.991-.989Zm-.989,6.314h-4.4V19.112h4.4Zm3.766,2.207a.989.989,0,0,0-1.4.058l-1.466,1.6h-6.29a.991.991,0,0,0-.991.989v6.314a.991.991,0,0,0,.991.989h6.377a.991.991,0,0,0,.991-.989V29.062l1.846-2.008a.988.988,0,0,0-.059-1.4Zm-3.766,7.968h-4.4V29.288H41.34l-1.133,1.235-.264-.254A.99.99,0,0,0,38.571,31.7l.994.953a.988.988,0,0,0,.685.276h.031a.992.992,0,0,0,.7-.319l1.278-1.391Zm20.159-3.157H47.165a.989.989,0,1,0,0,1.979h15.25a.989.989,0,1,0,0-1.979Zm0-10.175H47.165a.989.989,0,0,0,0,1.979h15.25a.989.989,0,1,0,0-1.979Zm0,0H47.165a.989.989,0,0,0,0,1.979h15.25a.989.989,0,1,0,0-1.979Zm0,10.175H47.165a.989.989,0,1,0,0,1.979h15.25a.989.989,0,1,0,0-1.979ZM46.023,25.656a.989.989,0,0,0-1.4.058l-1.466,1.6h-6.29a.991.991,0,0,0-.991.989v6.314a.991.991,0,0,0,.991.989h6.377a.991.991,0,0,0,.991-.989V29.062l1.846-2.008a.988.988,0,0,0-.059-1.4Zm-3.766,7.968h-4.4V29.288H41.34l-1.133,1.235-.264-.254A.99.99,0,1,0,38.571,31.7l.994.953a.988.988,0,0,0,.685.276h.031a.992.992,0,0,0,.7-.319l1.278-1.391Zm.989-16.49H36.869a.991.991,0,0,0-.991.989v6.314a.991.991,0,0,0,.991.989h6.377a.991.991,0,0,0,.991-.989V18.123A.991.991,0,0,0,43.246,17.134Zm-.989,6.314h-4.4V19.112h4.4Zm.989-6.314H36.869a.991.991,0,0,0-.991.989v6.314a.991.991,0,0,0,.991.989h6.377a.991.991,0,0,0,.991-.989V18.123A.991.991,0,0,0,43.246,17.134Zm-.989,6.314h-4.4V19.112h4.4Zm3.766,2.207a.989.989,0,0,0-1.4.058l-1.466,1.6h-6.29a.991.991,0,0,0-.991.989v6.314a.991.991,0,0,0,.991.989h6.377a.991.991,0,0,0,.991-.989V29.062l1.846-2.008a.988.988,0,0,0-.059-1.4Zm-3.766,7.968h-4.4V29.288H41.34l-1.133,1.235-.264-.254A.99.99,0,1,0,38.571,31.7l.994.953a.988.988,0,0,0,.685.276h.031a.992.992,0,0,0,.7-.319l1.278-1.391Zm20.159-3.157H47.165a.989.989,0,0,0,0,1.979h15.25a.989.989,0,1,0,0-1.979Zm0-10.175H47.165a.989.989,0,0,0,0,1.979h15.25a.989.989,0,1,0,0-1.979Zm0,0H47.165a.989.989,0,0,0,0,1.979h15.25a.989.989,0,1,0,0-1.979Zm0,10.175H47.165a.989.989,0,0,0,0,1.979h15.25a.989.989,0,1,0,0-1.979ZM46.023,25.656a.989.989,0,0,0-1.4.058l-1.466,1.6h-6.29a.991.991,0,0,0-.991.989v6.314a.991.991,0,0,0,.991.989h6.377a.991.991,0,0,0,.991-.989V29.062l1.846-2.008a.988.988,0,0,0-.059-1.4Zm-3.766,7.968h-4.4V29.288H41.34l-1.133,1.235-.264-.254A.99.99,0,0,0,38.571,31.7l.994.953a.988.988,0,0,0,.685.276h.031a.992.992,0,0,0,.7-.319l1.278-1.391Zm.989-16.49H36.869a.991.991,0,0,0-.991.989v6.314a.991.991,0,0,0,.991.989h6.377a.991.991,0,0,0,.991-.989V18.123A.991.991,0,0,0,43.246,17.134Zm-.989,6.314h-4.4V19.112h4.4Zm.989-6.314H36.869a.991.991,0,0,0-.991.989v6.314a.991.991,0,0,0,.991.989h6.377a.991.991,0,0,0,.991-.989V18.123A.991.991,0,0,0,43.246,17.134Zm-.989,6.314h-4.4V19.112h4.4Zm3.766,2.207a.989.989,0,0,0-1.4.058l-1.466,1.6h-6.29a.991.991,0,0,0-.991.989v6.314a.991.991,0,0,0,.991.989h6.377a.991.991,0,0,0,.991-.989V29.062l1.846-2.008a.988.988,0,0,0-.059-1.4Zm-3.766,7.968h-4.4V29.288H41.34l-1.133,1.235-.264-.254A.99.99,0,0,0,38.571,31.7l.994.953a.988.988,0,0,0,.685.276h.031a.992.992,0,0,0,.7-.319l1.278-1.391Zm20.159-3.157H47.165a.989.989,0,0,0,0,1.979h15.25a.989.989,0,1,0,0-1.979Zm0-10.175H47.165a.989.989,0,0,0,0,1.979h15.25a.989.989,0,1,0,0-1.979Zm0,0H47.165a.989.989,0,0,0,0,1.979h15.25a.989.989,0,1,0,0-1.979Zm0,10.175H47.165a.989.989,0,0,0,0,1.979h15.25a.989.989,0,1,0,0-1.979ZM46.023,25.656a.989.989,0,0,0-1.4.058l-1.466,1.6h-6.29a.991.991,0,0,0-.991.989v6.314a.991.991,0,0,0,.991.989h6.377a.991.991,0,0,0,.991-.989V29.062l1.846-2.008a.988.988,0,0,0-.059-1.4Zm-3.766,7.968h-4.4V29.288H41.34l-1.133,1.235-.264-.254A.99.99,0,0,0,38.571,31.7l.994.953a.988.988,0,0,0,.685.276h.031a.992.992,0,0,0,.7-.319l1.278-1.391Zm.989-16.49H36.869a.991.991,0,0,0-.991.989v6.314a.991.991,0,0,0,.991.989h6.377a.991.991,0,0,0,.991-.989V18.123A.991.991,0,0,0,43.246,17.134Zm-.989,6.314h-4.4V19.112h4.4Zm.989-6.314H36.869a.991.991,0,0,0-.991.989v6.314a.991.991,0,0,0,.991.989h6.377a.991.991,0,0,0,.991-.989V18.123A.991.991,0,0,0,43.246,17.134Zm-.989,6.314h-4.4V19.112h4.4Zm3.766,2.207a.989.989,0,0,0-1.4.058l-1.466,1.6h-6.29a.991.991,0,0,0-.991.989v6.314a.991.991,0,0,0,.991.989h6.377a.991.991,0,0,0,.991-.989V29.062l1.846-2.008a.988.988,0,0,0-.059-1.4Zm-3.766,7.968h-4.4V29.288H41.34l-1.133,1.235-.264-.254A.99.99,0,0,0,38.571,31.7l.994.953a.988.988,0,0,0,.685.276h.031a.992.992,0,0,0,.7-.319l1.278-1.391Zm20.159-3.157H47.165a.989.989,0,0,0,0,1.979h15.25a.989.989,0,1,0,0-1.979Zm0-10.175H47.165a.989.989,0,0,0,0,1.979h15.25a.989.989,0,1,0,0-1.979Zm0,0H47.165a.989.989,0,0,0,0,1.979h15.25a.989.989,0,1,0,0-1.979Zm0,10.175H47.165a.989.989,0,0,0,0,1.979h15.25a.989.989,0,1,0,0-1.979ZM46.023,25.656a.989.989,0,0,0-1.4.058l-1.466,1.6h-6.29a.991.991,0,0,0-.991.989v6.314a.991.991,0,0,0,.991.989h6.377a.991.991,0,0,0,.991-.989V29.062l1.846-2.008a.988.988,0,0,0-.059-1.4Zm-3.766,7.968h-4.4V29.288H41.34l-1.133,1.235-.264-.254A.99.99,0,0,0,38.571,31.7l.994.953a.988.988,0,0,0,.685.276h.031a.992.992,0,0,0,.7-.319l1.278-1.391Zm.989-16.49H36.869a.991.991,0,0,0-.991.989v6.314a.991.991,0,0,0,.991.989h6.377a.991.991,0,0,0,.991-.989V18.123A.991.991,0,0,0,43.246,17.134Zm-.989,6.314h-4.4V19.112h4.4Zm.989-6.314H36.869a.991.991,0,0,0-.991.989v6.314a.991.991,0,0,0,.991.989h6.377a.991.991,0,0,0,.991-.989V18.123A.991.991,0,0,0,43.246,17.134Zm-.989,6.314h-4.4V19.112h4.4Zm3.766,2.207a.989.989,0,0,0-1.4.058l-1.466,1.6h-6.29a.991.991,0,0,0-.991.989v6.314a.991.991,0,0,0,.991.989h6.377a.991.991,0,0,0,.991-.989V29.062l1.846-2.008a.988.988,0,0,0-.059-1.4Zm-3.766,7.968h-4.4V29.288H41.34l-1.133,1.235-.264-.254A.99.99,0,0,0,38.571,31.7l.994.953a.988.988,0,0,0,.685.276h.031a.992.992,0,0,0,.7-.319l1.278-1.391Zm20.159-3.157H47.165a.989.989,0,0,0,0,1.979h15.25a.989.989,0,1,0,0-1.979Zm0-10.175H47.165a.989.989,0,0,0,0,1.979h15.25a.989.989,0,1,0,0-1.979Zm0,0H47.165a.989.989,0,0,0,0,1.979h15.25a.989.989,0,1,0,0-1.979Zm0,10.175H47.165a.989.989,0,0,0,0,1.979h15.25a.989.989,0,1,0,0-1.979ZM46.023,25.656a.989.989,0,0,0-1.4.058l-1.466,1.6h-6.29a.991.991,0,0,0-.991.989v6.314a.991.991,0,0,0,.991.989h6.377a.991.991,0,0,0,.991-.989V29.062l1.846-2.008a.988.988,0,0,0-.059-1.4Zm-3.766,7.968h-4.4V29.288H41.34l-1.133,1.235-.264-.254A.99.99,0,0,0,38.571,31.7l.994.953a.988.988,0,0,0,.685.276h.031a.992.992,0,0,0,.7-.319l1.278-1.391Zm.989-16.49H36.869a.991.991,0,0,0-.991.989v6.314a.991.991,0,0,0,.991.989h6.377a.991.991,0,0,0,.991-.989V18.123A.991.991,0,0,0,43.246,17.134Zm-.989,6.314h-4.4V19.112h4.4Zm.989-6.314H36.869a.991.991,0,0,0-.991.989v6.314a.991.991,0,0,0,.991.989h6.377a.991.991,0,0,0,.991-.989V18.123A.991.991,0,0,0,43.246,17.134Zm-.989,6.314h-4.4V19.112h4.4Zm3.766,2.207a.989.989,0,0,0-1.4.058l-1.466,1.6h-6.29a.991.991,0,0,0-.991.989v6.314a.991.991,0,0,0,.991.989h6.377a.991.991,0,0,0,.991-.989V29.062l1.846-2.008a.988.988,0,0,0-.059-1.4Zm-3.766,7.968h-4.4V29.288H41.34l-1.133,1.235-.264-.254A.99.99,0,0,0,38.571,31.7l.994.953a.988.988,0,0,0,.685.276h.031a.992.992,0,0,0,.7-.319l1.278-1.391Zm20.159-3.157H47.165a.989.989,0,0,0,0,1.979h15.25a.989.989,0,1,0,0-1.979Zm0-10.175H47.165a.989.989,0,0,0,0,1.979h15.25a.989.989,0,1,0,0-1.979Zm0,0H47.165a.989.989,0,0,0,0,1.979h15.25a.989.989,0,1,0,0-1.979Zm0,10.175H47.165a.989.989,0,0,0,0,1.979h15.25a.989.989,0,1,0,0-1.979ZM46.023,25.656a.989.989,0,0,0-1.4.058l-1.466,1.6h-6.29a.991.991,0,0,0-.991.989v6.314a.991.991,0,0,0,.991.989h6.377a.991.991,0,0,0,.991-.989V29.062l1.846-2.008a.988.988,0,0,0-.059-1.4Zm-3.766,7.968h-4.4V29.288H41.34l-1.133,1.235-.264-.254A.99.99,0,0,0,38.571,31.7l.994.953a.988.988,0,0,0,.685.276h.031a.992.992,0,0,0,.7-.319l1.278-1.391Zm.989-16.49H36.869a.991.991,0,0,0-.991.989v6.314a.991.991,0,0,0,.991.989h6.377a.991.991,0,0,0,.991-.989V18.123A.991.991,0,0,0,43.246,17.134Zm-.989,6.314h-4.4V19.112h4.4Zm.989-6.314H36.869a.991.991,0,0,0-.991.989v6.314a.991.991,0,0,0,.991.989h6.377a.991.991,0,0,0,.991-.989V18.123A.991.991,0,0,0,43.246,17.134Zm-.989,6.314h-4.4V19.112h4.4Zm3.766,2.207a.989.989,0,0,0-1.4.058l-1.466,1.6h-6.29a.991.991,0,0,0-.991.989v6.314a.991.991,0,0,0,.991.989h6.377a.991.991,0,0,0,.991-.989V29.062l1.846-2.008a.988.988,0,0,0-.059-1.4Zm-3.766,7.968h-4.4V29.288H41.34l-1.133,1.235-.264-.254A.99.99,0,0,0,38.571,31.7l.994.953a.988.988,0,0,0,.685.276h.031a.992.992,0,0,0,.7-.319l1.278-1.391Zm20.159-3.157H47.165a.989.989,0,0,0,0,1.979h15.25a.989.989,0,1,0,0-1.979Zm0-10.175H47.165a.989.989,0,0,0,0,1.979h15.25a.989.989,0,1,0,0-1.979Zm0,0H47.165a.989.989,0,0,0,0,1.979h15.25a.989.989,0,1,0,0-1.979Zm0,10.175H47.165a.989.989,0,0,0,0,1.979h15.25a.989.989,0,1,0,0-1.979ZM46.023,25.656a.989.989,0,0,0-1.4.058l-1.466,1.6h-6.29a.991.991,0,0,0-.991.989v6.314a.991.991,0,0,0,.991.989h6.377a.991.991,0,0,0,.991-.989V29.062l1.846-2.008a.988.988,0,0,0-.059-1.4Zm-3.766,7.968h-4.4V29.288H41.34l-1.133,1.235-.264-.254A.99.99,0,0,0,38.571,31.7l.994.953a.988.988,0,0,0,.685.276h.031a.992.992,0,0,0,.7-.319l1.278-1.391Zm.989-16.49H36.869a.991.991,0,0,0-.991.989v6.314a.991.991,0,0,0,.991.989h6.377a.991.991,0,0,0,.991-.989V18.123A.991.991,0,0,0,43.246,17.134Zm-.989,6.314h-4.4V19.112h4.4Zm.989-6.314H36.869a.991.991,0,0,0-.991.989v6.314a.991.991,0,0,0,.991.989h6.377a.991.991,0,0,0,.991-.989V18.123A.991.991,0,0,0,43.246,17.134Zm-.989,6.314h-4.4V19.112h4.4Zm3.766,2.207a.989.989,0,0,0-1.4.058l-1.466,1.6h-6.29a.991.991,0,0,0-.991.989v6.314a.991.991,0,0,0,.991.989h6.377a.991.991,0,0,0,.991-.989V29.062l1.846-2.008a.988.988,0,0,0-.059-1.4Zm-3.766,7.968h-4.4V29.288H41.34l-1.133,1.235-.264-.254A.99.99,0,0,0,38.571,31.7l.994.953a.988.988,0,0,0,.685.276h.031a.992.992,0,0,0,.7-.319l1.278-1.391Zm20.159-3.157H47.165a.989.989,0,0,0,0,1.979h15.25a.989.989,0,1,0,0-1.979Zm0-10.175H47.165a.989.989,0,0,0,0,1.979h15.25a.989.989,0,1,0,0-1.979Zm0,0H47.165a.989.989,0,0,0,0,1.979h15.25a.989.989,0,1,0,0-1.979Zm0,10.175H47.165a.989.989,0,0,0,0,1.979h15.25a.989.989,0,1,0,0-1.979ZM46.023,25.656a.989.989,0,0,0-1.4.058l-1.466,1.6h-6.29a.991.991,0,0,0-.991.989v6.314a.991.991,0,0,0,.991.989h6.377a.991.991,0,0,0,.991-.989V29.062l1.846-2.008a.988.988,0,0,0-.059-1.4Zm-3.766,7.968h-4.4V29.288H41.34l-1.133,1.235-.264-.254A.99.99,0,0,0,38.571,31.7l.994.953a.988.988,0,0,0,.685.276h.031a.992.992,0,0,0,.7-.319l1.278-1.391Zm.989-16.49H36.869a.991.991,0,0,0-.991.989v6.314a.991.991,0,0,0,.991.989h6.377a.991.991,0,0,0,.991-.989V18.123A.991.991,0,0,0,43.246,17.134Zm-.989,6.314h-4.4V19.112h4.4Zm.989-6.314H36.869a.991.991,0,0,0-.991.989v6.314a.991.991,0,0,0,.991.989h6.377a.991.991,0,0,0,.991-.989V18.123A.991.991,0,0,0,43.246,17.134Zm-.989,6.314h-4.4V19.112h4.4Zm3.766,2.207a.989.989,0,0,0-1.4.058l-1.466,1.6h-6.29a.991.991,0,0,0-.991.989v6.314a.991.991,0,0,0,.991.989h6.377a.991.991,0,0,0,.991-.989V29.062l1.846-2.008a.988.988,0,0,0-.059-1.4Zm-3.766,7.968h-4.4V29.288H41.34l-1.133,1.235-.264-.254A.99.99,0,0,0,38.571,31.7l.994.953a.988.988,0,0,0,.685.276h.031a.992.992,0,0,0,.7-.319l1.278-1.391Zm20.159-3.157H47.165a.989.989,0,0,0,0,1.979h15.25a.989.989,0,1,0,0-1.979Zm0-10.175H47.165a.989.989,0,0,0,0,1.979h15.25a.989.989,0,1,0,0-1.979ZM43.246,17.134H36.869a.991.991,0,0,0-.991.989v6.314a.991.991,0,0,0,.991.989h6.377a.991.991,0,0,0,.991-.989V18.123a.991.991,0,0,0-.991-.989Zm-.989,6.314h-4.4V19.112h4.4Zm20.159-3.157H47.165a.989.989,0,0,0,0,1.979h15.25a.989.989,0,1,0,0-1.979ZM46.023,25.656a.989.989,0,0,0-1.4.058l-1.466,1.6h-6.29a.991.991,0,0,0-.991.989v6.314a.991.991,0,0,0,.991.989h6.377a.991.991,0,0,0,.991-.989V29.062l1.846-2.008a.988.988,0,0,0-.059-1.4Zm-3.766,7.968h-4.4V29.288H41.34l-1.133,1.235-.264-.254A.99.99,0,0,0,38.571,31.7l.994.953a.988.988,0,0,0,.685.276h.031a.992.992,0,0,0,.7-.319l1.278-1.391Zm20.159-3.157H47.165a.989.989,0,0,0,0,1.979h15.25a.989.989,0,1,0,0-1.979Z"/>
      <path id="Trazado_904011" data-name="Trazado 904011" d="M323.726,387.64v14.241a1.355,1.355,0,0,1-1.354,1.354h-4.713l-.529-5.762c.755-.615,2.066-1.768,4.042-3.554a.991.991,0,0,0,.326-.735V387.64Z" transform="translate(-251.111 -332.857)" fill="#d1d1d6"/>
      <path id="Trazado_904012" data-name="Trazado 904012" d="M470.3,349.63h.424v3.393H470.3Z" transform="translate(-382.634 -300.219)" fill="#00b3fe"/>
      <path id="Trazado_904013" data-name="Trazado 904013" d="M440.887,305.957v14.986a.441.441,0,0,1-.434.437h-1.666a.442.442,0,0,1-.437-.437V305.957a.443.443,0,0,1,.437-.437h1.666A.442.442,0,0,1,440.887,305.957Z" transform="translate(-355.199 -262.343)" fill="#00b3fe"/>
      <path id="Trazado_904014" data-name="Trazado 904014" d="M408.945,280.952v22.061a.44.44,0,0,1-.432.437h-1.666a.442.442,0,0,1-.437-.437V280.952a.44.44,0,0,1,.437-.432h1.666A.438.438,0,0,1,408.945,280.952Z" transform="translate(-327.773 -240.876)" fill="#00b3fe"/>
      <path id="Trazado_904015" data-name="Trazado 904015" d="M306.965,335.582v2.195H305.41v-2.195a.79.79,0,0,1,.777-.782A.781.781,0,0,1,306.965,335.582Z" transform="translate(-241.047 -287.485)" fill="#fed2a4"/>
      <path id="Trazado_904016" data-name="Trazado 904016" d="M339.171,349.63v3.393h-6.924l-.823-1.748a1,1,0,0,0-.051-.095.989.989,0,0,0-.936-.67h-.028v-.88Z" transform="translate(-262.514 -300.219)" fill="#dc8758"/>
      <g id="Grupo_1112563" data-name="Grupo 1112563" transform="translate(53.759 45.773)">
        <path id="Trazado_904017" data-name="Trazado 904017" d="M281.011,329.371a6.808,6.808,0,0,0,.581,3.53.916.916,0,0,0-.093.034.777.777,0,0,1-1.092-.708V324.7a.777.777,0,1,1,1.553,0v3.711A.989.989,0,0,0,281.011,329.371Z" transform="translate(-273.335 -323.885)" fill="#fed2a4"/>
        <path id="Trazado_904018" data-name="Trazado 904018" d="M240.619,381.859l.561,6.118h-7.562l.349-6.153a.988.988,0,0,0-.988-1.044,2.605,2.605,0,0,1-2.6-2.6v-3.819a2.745,2.745,0,0,0,2.547-.531,2.748,2.748,0,0,0,3.535,0,2.685,2.685,0,0,0,2.169.609,6.6,6.6,0,0,0-1.382,2.316.991.991,0,0,0,.609,1.261,1.006,1.006,0,0,0,.325.055.993.993,0,0,0,.936-.666,5.241,5.241,0,0,1,3.2-3.12,1.163,1.163,0,0,0-.449-2.034c-1.369-.29-1.784-.719-1.839-2.377h3.882l1.114,2.364v5.252c-2.145,1.935-3.494,3.106-4.009,3.482A.989.989,0,0,0,240.619,381.859Z" transform="translate(-230.38 -363.371)" fill="#fed2a4"/>
        <path id="Trazado_904019" data-name="Trazado 904019" d="M256.959,324.7v7.531a.787.787,0,0,1-.777.777.777.777,0,0,1-.776-.777V324.7a.777.777,0,1,1,1.553,0Z" transform="translate(-251.868 -323.885)" fill="#fed2a4"/>
        <path id="Trazado_904020" data-name="Trazado 904020" d="M231.937,332.879v6.4a.779.779,0,1,1-1.557,0v-6.4a.779.779,0,0,1,1.557,0Z" transform="translate(-230.38 -330.939)" fill="#fed2a4"/>
      </g>
      <path id="Trazado_904021" data-name="Trazado 904021" d="M179.38,349.63h5.228v3.393H179.38Z" transform="translate(-132.828 -300.219)" fill="#dc8758"/>
      <path id="Trazado_904022" data-name="Trazado 904022" d="M98.48,349.63H98.9v3.393H98.48Z" transform="translate(-63.362 -300.219)" fill="#00b3fe"/>
      <path id="Trazado_904023" data-name="Trazado 904023" d="M118.025,305.957v14.986a.44.44,0,0,1-.432.437h-1.666a.442.442,0,0,1-.437-.437V305.957a.443.443,0,0,1,.437-.437h1.666A.441.441,0,0,1,118.025,305.957Z" transform="translate(-77.968 -262.343)" fill="#00b3fe"/>
      <path id="Trazado_904024" data-name="Trazado 904024" d="M149.967,280.952v22.061a.441.441,0,0,1-.432.437h-1.668a.443.443,0,0,1-.437-.437V280.952a.441.441,0,0,1,.437-.432h1.668A.439.439,0,0,1,149.967,280.952Z" transform="translate(-105.394 -240.876)" fill="#00b3fe"/>
      <path id="Trazado_904025" data-name="Trazado 904025" d="M141.437,18.288v6.158H117.87V18.288h6.863a.989.989,0,0,0,.979-.854,3.978,3.978,0,0,1,7.879,0,.989.989,0,0,0,.979.854Z" transform="translate(-80.011 -12.031)" fill="#dc8758"/>
      <path id="Trazado_904026" data-name="Trazado 904026" d="M83.291,65.74H75.435v4.114a.989.989,0,0,1-.989.989H48.9a.989.989,0,0,1-.991-.989V65.74H40.054A1.355,1.355,0,0,0,38.7,67.094v58.38a1.354,1.354,0,0,0,1.354,1.354H67.046l.3-5.339a4.589,4.589,0,0,1-3.539-4.463v-5.793H58.582v7.355A2.417,2.417,0,0,1,56.171,121H54.5a2.419,2.419,0,0,1-2.415-2.417v-1.162a2.438,2.438,0,0,1-.432.041H49.989a2.419,2.419,0,0,1-2.417-2.417v-3.817H46.159a.989.989,0,0,1-.989-.989v-5.372a.989.989,0,0,1,.989-.991h1.413v-3.817a2.419,2.419,0,0,1,2.417-2.415h1.666a2.438,2.438,0,0,1,.432.041V96.526A2.417,2.417,0,0,1,54.5,94.115h1.668a2.414,2.414,0,0,1,2.411,2.411v7.355h5.242a2.752,2.752,0,0,1,3.894-2.22,2.747,2.747,0,0,1,4.154-.741,2.751,2.751,0,0,1,4.31,1.053,2.744,2.744,0,0,1,3.66,1.908h4.8V67.094a1.356,1.356,0,0,0-1.354-1.354ZM47.909,74.573a.991.991,0,0,1,.991-.989h6.377a.991.991,0,0,1,.991.989v6.314a.991.991,0,0,1-.991.989H48.9a.991.991,0,0,1-.991-.989Zm8.358,10.939v5.551a.991.991,0,0,1-.991.989H48.9a.991.991,0,0,1-.991-.989V84.748a.991.991,0,0,1,.991-.989h6.29l1.466-1.6a.99.99,0,0,1,1.457,1.34Zm18.179,3.383H59.195a.989.989,0,0,1,0-1.979h15.25a.989.989,0,0,1,0,1.979Zm0-10.175H59.195a.989.989,0,0,1,0-1.979h15.25a.989.989,0,0,1,0,1.979Z" transform="translate(-12.03 -56.45)" fill="#d1d1d6"/>
      <path id="Trazado_904027" data-name="Trazado 904027" d="M122.268,209.168v2.408h-4.4V207.24h3.481l-1.133,1.235-.264-.254a.99.99,0,0,0-1.371,1.429l.994.953a.988.988,0,0,0,.685.276h.031a.992.992,0,0,0,.7-.319Z" transform="translate(-80.011 -177.952)" fill="#00b3fe"/>
      <path id="Trazado_904028" data-name="Trazado 904028" d="M117.87,135.24h4.4v4.336h-4.4Z" transform="translate(-80.011 -116.128)" fill="#00b3fe"/>
    </g>
  </g>
</svg>
