<svg xmlns="http://www.w3.org/2000/svg" width="88.387" height="88.396" viewBox="0 0 88.387 88.396">
  <g id="_08-olive_oil" data-name="08-olive oil" transform="translate(-0.003)">
    <path id="Trazado_904770" data-name="Trazado 904770" d="M30.717,36.717,14,20S30.717,22.786,30.717,36.717Z" transform="translate(5.114 7.469)" fill="#679c20"/>
    <path id="Trazado_904771" data-name="Trazado 904771" d="M18.717,16,2,32.717C2,18.786,18.717,16,18.717,16Z" transform="translate(0.396 5.896)" fill="#679c20"/>
    <path id="Trazado_904772" data-name="Trazado 904772" d="M18.717,27,2,43.717C2,29.786,18.717,27,18.717,27Z" transform="translate(0.396 10.221)" fill="#679c20"/>
    <path id="Trazado_904773" data-name="Trazado 904773" d="M30.717,47.717,14,31S30.717,33.786,30.717,47.717Z" transform="translate(5.114 11.793)" fill="#679c20"/>
    <path id="Trazado_904774" data-name="Trazado 904774" d="M14,20,30.717,36.717S14,33.931,14,20Z" transform="translate(5.114 7.469)" fill="#345c00"/>
    <path id="Trazado_904775" data-name="Trazado 904775" d="M2,32.717,18.717,16C18.717,29.931,2,32.717,2,32.717Z" transform="translate(0.396 5.896)" fill="#345c00"/>
    <path id="Trazado_904776" data-name="Trazado 904776" d="M2,43.717,18.717,27C18.717,40.931,2,43.717,2,43.717Z" transform="translate(0.396 10.221)" fill="#345c00"/>
    <path id="Trazado_904777" data-name="Trazado 904777" d="M14,31,30.717,47.717S14,44.931,14,31Z" transform="translate(5.114 11.793)" fill="#345c00"/>
    <path id="Trazado_904778" data-name="Trazado 904778" d="M34.42,57.673a8.335,8.335,0,0,1,.167,1.686c0,4.611-3.747,8.359-9.9,8.359a16.438,16.438,0,0,1-6.353-1.31,16.2,16.2,0,0,0,4.528-3.162c4.026-4.026,4.291-8.86,1.63-12.106l.2-.139C30.074,51,33.612,53.87,34.42,57.673Z" transform="translate(6.816 19.655)" fill="#a7e340"/>
    <path id="Trazado_904779" data-name="Trazado 904779" d="M21.361,67.193c-3.692,1.727-7.7,1.881-9.947-.348a4.483,4.483,0,0,1-.794-1.059,15.463,15.463,0,0,0,3.316-9.668,13.225,13.225,0,0,0-.348-3.065c.209-.237.418-.46.641-.683A10.588,10.588,0,0,1,20.9,49.027a7.383,7.383,0,0,1,2.717.279A7.538,7.538,0,0,1,26.961,51.3a4.722,4.722,0,0,1,.557.627c2.661,3.246,2.4,8.08-1.63,12.106A16.2,16.2,0,0,1,21.361,67.193Z" transform="translate(3.785 18.869)" fill="#cdf55f"/>
    <path id="Trazado_904780" data-name="Trazado 904780" d="M17.369,53.84a13.225,13.225,0,0,1,.348,3.065A15.463,15.463,0,0,1,14.4,66.573,6.75,6.75,0,0,1,9.359,69.29C4.747,69.29,1,63.062,1,56.9S4.747,47,9.359,47a8.219,8.219,0,0,1,8.01,6.84Z" transform="translate(0.003 18.082)" fill="#a7e340"/>
    <path id="Trazado_904781" data-name="Trazado 904781" d="M40,1H51.145V9.359H40Z" transform="translate(15.334 0)" fill="#9a6948"/>
    <path id="Trazado_904782" data-name="Trazado 904782" d="M40,11H51.145v8.359H40Z" transform="translate(15.334 3.931)" fill="#9a6948"/>
    <path id="Trazado_904783" data-name="Trazado 904783" d="M56.255,12.572H45.11v8.359H56.255Zm4.179,0v5.572a11.178,11.178,0,0,1,12.3,18.612,19.825,19.825,0,0,1,1.63,7.857v.627a41.747,41.747,0,0,1-1.155,9.744L67.038,80.737a5.585,5.585,0,0,1-5.419,4.277H39.747a5.585,5.585,0,0,1-5.419-4.277l-1.491-6.2L28.156,54.992A41.764,41.764,0,0,1,27,45.24v-.627a19.644,19.644,0,0,1,.167-2.563A21.129,21.129,0,0,1,40.931,25.236V16.752l-5.907-4.723A2.825,2.825,0,0,1,36.793,7H61.827a2.786,2.786,0,1,1,0,5.572Zm0,11.187v1.477a22.079,22.079,0,0,1,10.211,7.829,6.946,6.946,0,1,0-10.211-9.306Zm8.359,22.777v-.543a18.453,18.453,0,0,0-11.145-16.7H43.717a18.453,18.453,0,0,0-11.145,16.7v.543a40.6,40.6,0,0,0,.878,8.414l4.737,22.206a4.394,4.394,0,0,0,4.137,3.678H59.041a4.394,4.394,0,0,0,4.137-3.678L67.915,54.95a40.6,40.6,0,0,0,.878-8.414Z" transform="translate(10.224 2.359)" fill="#ede9e1"/>
    <path id="Trazado_904784" data-name="Trazado 904784" d="M56.572,17a6.946,6.946,0,0,1,4.639,12.134A22.079,22.079,0,0,0,51,21.3V19.828A6.918,6.918,0,0,1,56.572,17Z" transform="translate(19.658 6.29)" fill="#f6fafd"/>
    <path id="Trazado_904785" data-name="Trazado 904785" d="M67.221,39.7v.543a40.6,40.6,0,0,1-.878,8.414L61.606,70.867a4.394,4.394,0,0,1-4.137,3.678H40.752a4.394,4.394,0,0,1-4.138-3.678L31.878,48.661A40.6,40.6,0,0,1,31,40.247V39.7A18.453,18.453,0,0,1,42.145,23H56.076A18.453,18.453,0,0,1,67.22,39.7Z" transform="translate(11.796 8.648)" fill="#ffdf64"/>
    <path id="Trazado_904786" data-name="Trazado 904786" d="M27.037,63.245c3.761-3.761,4.235-8.219,2.123-11.423A12.235,12.235,0,0,0,24.683,51l-.2.139c2.661,3.246,2.4,8.08-1.63,12.106a16.2,16.2,0,0,1-4.528,3.162,16.648,16.648,0,0,0,2.219.74,15.134,15.134,0,0,0,1.96-.74,16.2,16.2,0,0,0,4.528-3.162Z" transform="translate(6.816 19.655)" fill="#78b22a"/>
    <path id="Trazado_904787" data-name="Trazado 904787" d="M12.148,63.117c-4.611,0-8.359-6.227-8.359-12.385a13.773,13.773,0,0,1,.173-2.207A10.426,10.426,0,0,0,1,56.305C1,62.463,4.751,68.69,9.362,68.69A6.75,6.75,0,0,0,14.4,65.973a14.288,14.288,0,0,0,2.772-5.558A6.738,6.738,0,0,1,12.148,63.117Z" transform="translate(0 18.682)" fill="#78b22a"/>
    <path id="Trazado_904788" data-name="Trazado 904788" d="M56.739,57.848h-18a4.586,4.586,0,0,1-4.242-3.006l.748,3.508a4.394,4.394,0,0,0,4.138,3.678H56.1a4.394,4.394,0,0,0,4.137-3.678l.748-3.508a4.586,4.586,0,0,1-4.242,3.006Z" transform="translate(13.169 21.165)" fill="#ffce54"/>
    <path id="Trazado_904789" data-name="Trazado 904789" d="M45.572,1V3.786a2.786,2.786,0,0,0,2.786,2.786h2.786V9.359H40V1Z" transform="translate(15.334 0)" fill="#714226"/>
    <path id="Trazado_904790" data-name="Trazado 904790" d="M45.572,19.359V16.572a2.786,2.786,0,0,1,2.786-2.786h2.786V11H40v8.359Z" transform="translate(15.334 3.931)" fill="#714226"/>
    <path id="Trazado_904791" data-name="Trazado 904791" d="M59.862,9.393H34.786A2.778,2.778,0,0,1,32.386,8a2.769,2.769,0,0,0,2.4,4.179H59.862A2.769,2.769,0,0,0,62.262,8,2.778,2.778,0,0,1,59.862,9.393Z" transform="translate(12.189 2.752)" fill="#cdc3b4"/>
    <path id="Trazado_904792" data-name="Trazado 904792" d="M53.8,11v8.359H42.654V11H33.248l5.227,4.179a2.786,2.786,0,0,1,2.786,2.786v2.786a2.786,2.786,0,0,0,2.786,2.786h8.359a2.786,2.786,0,0,0,2.786-2.786V17.965a2.786,2.786,0,0,1,2.786-2.786V11Z" transform="translate(12.68 3.931)" fill="#cdc3b4"/>
    <path id="Trazado_904793" data-name="Trazado 904793" d="M42.654,11H33.248l3.484,2.786h5.922Z" transform="translate(12.68 3.931)" fill="#afa59b"/>
    <path id="Trazado_904794" data-name="Trazado 904794" d="M52.179,12.393V11H48v2.786h4.179Z" transform="translate(18.479 3.931)" fill="#afa59b"/>
    <path id="Trazado_904795" data-name="Trazado 904795" d="M54.946,15.478a2.786,2.786,0,0,0,.031,2.676c.059,0,.114-.011.173-.011a6.965,6.965,0,0,1,6.965,6.965,6.826,6.826,0,0,1-.35,2.159,2.772,2.772,0,0,0,4.529-2.159,11.132,11.132,0,0,0-9.534-11.015,2.765,2.765,0,0,0-1.814,1.384Z" transform="translate(21.081 5.147)" fill="#f7f3eb"/>
    <path id="Trazado_904796" data-name="Trazado 904796" d="M57.965,32.58a17.44,17.44,0,0,1,.464,3.979V37.1a40.6,40.6,0,0,1-.878,8.414l-4.188,19.63a4.126,4.126,0,0,0,4.837-.213l4.645-19.375A41.764,41.764,0,0,0,64,35.806v-.627a19.618,19.618,0,0,0-.312-3.353,4.126,4.126,0,0,0-5.724.754Z" transform="translate(20.587 11.793)" fill="#f7f3eb"/>
    <path id="Trazado_904797" data-name="Trazado 904797" d="M37.638,65.146,33.45,45.516a40.6,40.6,0,0,1-.878-8.414v-.543a17.44,17.44,0,0,1,.464-3.979,4.125,4.125,0,0,0-5.74-.741c-.045.259-.1.515-.13.777A19.643,19.643,0,0,0,27,35.179v.627a41.748,41.748,0,0,0,1.154,9.744L32.8,64.922a4.125,4.125,0,0,0,4.842.219Z" transform="translate(10.224 11.793)" fill="#f7f3eb"/>
    <path id="Trazado_904798" data-name="Trazado 904798" d="M54.889,23H40.958a18.548,18.548,0,0,0-6.939,5.238,30.622,30.622,0,0,0,29.19,29.553l1.95-9.13a40.6,40.6,0,0,0,.875-8.414V39.7A18.453,18.453,0,0,0,54.889,23Z" transform="translate(12.983 8.648)" fill="#fff978"/>
    <path id="Trazado_904799" data-name="Trazado 904799" d="M29.1,54.24c-.677,4.4-3.463,7.691-6.807,7.691-4.131,0-7.548-4.486-8.228-10.388-.162.167-.323.334-.479.511a13.225,13.225,0,0,1,.348,3.065,15.463,15.463,0,0,1-3.316,9.668,4.483,4.483,0,0,0,.794,1.059c2.243,2.229,6.255,2.076,9.947.348a16.2,16.2,0,0,0,4.528-3.162A9.752,9.752,0,0,0,29.1,54.24Z" transform="translate(3.785 19.868)" fill="#a7e340"/>
    <rect id="Rect치ngulo_405228" data-name="Rect치ngulo 405228" width="11.145" height="2.786" rx="1" transform="translate(52.548 79.013)" fill="#ffb844"/>
    <rect id="Rect치ngulo_405229" data-name="Rect치ngulo 405229" width="4.179" height="2.721" rx="0.977" transform="translate(65.086 79.057)" fill="#ffb844"/>
    <ellipse id="Elipse_14928" data-name="Elipse 14928" cx="2.287" cy="3.185" rx="2.287" ry="3.185" transform="translate(24.535 72.402) rotate(-45)" fill="#f6fafd"/>
    <ellipse id="Elipse_14929" data-name="Elipse 14929" cx="1.149" cy="1.599" rx="1.149" ry="1.599" transform="translate(11.132 69.944) rotate(-45)" fill="#f6fafd"/>
    <ellipse id="Elipse_14930" data-name="Elipse 14930" cx="1.149" cy="1.599" rx="1.149" ry="1.599" transform="translate(20.884 71.34) rotate(-45)" fill="#f6fafd"/>
    <ellipse id="Elipse_14931" data-name="Elipse 14931" cx="0.575" cy="0.8" rx="0.575" ry="0.8" transform="translate(13.14 73.588) rotate(-45)" fill="#f6fafd"/>
    <ellipse id="Elipse_14932" data-name="Elipse 14932" cx="1.149" cy="1.599" rx="1.149" ry="1.599" transform="translate(48.75 72.743) rotate(-45)" fill="#f6fafd"/>
    <ellipse id="Elipse_14933" data-name="Elipse 14933" cx="0.575" cy="0.8" rx="0.575" ry="0.8" transform="translate(50.758 76.388) rotate(-45)" fill="#f6fafd"/>
    <g id="Grupo_1112831" data-name="Grupo 1112831" transform="translate(1.003 1)">
      <path id="Trazado_904800" data-name="Trazado 904800" d="M37,11H56.5" transform="translate(13.151 2.931)" fill="none" stroke="#000" stroke-linejoin="round" stroke-width="2"/>
      <path id="Trazado_904801" data-name="Trazado 904801" d="M40,1H51.145V9.359H40Z" transform="translate(14.331 -1)" fill="none" stroke="#000" stroke-linejoin="round" stroke-width="2"/>
      <path id="Trazado_904802" data-name="Trazado 904802" d="M40,11H51.145v8.359H40Z" transform="translate(14.331 2.931)" fill="none" stroke="#000" stroke-linejoin="round" stroke-width="2"/>
      <path id="Trazado_904803" data-name="Trazado 904803" d="M51,19.825a6.945,6.945,0,1,1,10.211,9.3" transform="translate(18.655 5.289)" fill="none" stroke="#000" stroke-linejoin="round" stroke-width="2"/>
      <path id="Trazado_904804" data-name="Trazado 904804" d="M60.434,18.145V12.572h1.393a2.786,2.786,0,1,0,0-5.572H36.788a2.822,2.822,0,0,0-1.764,5.026l5.907,4.725v8.5A20.919,20.919,0,0,0,27,44.614v.627a41.814,41.814,0,0,0,1.153,9.749l6.18,25.748a5.572,5.572,0,0,0,5.419,4.275h21.86a5.573,5.573,0,0,0,5.419-4.273l6.18-25.745a41.819,41.819,0,0,0,1.153-9.752v-.63a19.739,19.739,0,0,0-1.626-7.85,11.135,11.135,0,0,0-6.733-20.012,11.005,11.005,0,0,0-5.572,1.393Z" transform="translate(9.221 1.359)" fill="none" stroke="#000" stroke-linejoin="round" stroke-width="2"/>
      <path id="Trazado_904805" data-name="Trazado 904805" d="M63.538,23.965A6.947,6.947,0,0,0,51,19.824v1.495a22.071,22.071,0,0,1,10.211,7.815,6.918,6.918,0,0,0,2.326-5.168Z" transform="translate(18.655 5.29)" fill="none" stroke="#000" stroke-linejoin="round" stroke-width="2"/>
      <path id="Trazado_904806" data-name="Trazado 904806" d="M51,20.393V19" transform="translate(18.655 6.076)" fill="none" stroke="#000" stroke-linejoin="round" stroke-width="2"/>
      <path id="Trazado_904807" data-name="Trazado 904807" d="M34.524,64.8l.7,3.282a4.4,4.4,0,0,0,4.146,3.683H56.084a4.4,4.4,0,0,0,4.144-3.683l4.725-22.2a40.507,40.507,0,0,0,.882-8.41v-.542a17.635,17.635,0,0,0-1.393-6.854" transform="translate(12.178 10.428)" fill="none" stroke="#000" stroke-linejoin="round" stroke-width="2"/>
      <path id="Trazado_904808" data-name="Trazado 904808" d="M33.673,51l.592,2.786" transform="translate(11.844 18.655)" fill="none" stroke="#000" stroke-linejoin="round" stroke-width="2"/>
      <path id="Trazado_904809" data-name="Trazado 904809" d="M64.3,29.965A18.627,18.627,0,0,0,56.076,23H42.145A18.439,18.439,0,0,0,31,39.7v.542a40.517,40.517,0,0,0,.883,8.414l2.248,10.56" transform="translate(10.793 7.648)" fill="none" stroke="#000" stroke-linejoin="round" stroke-width="2"/>
      <path id="Trazado_904810" data-name="Trazado 904810" d="M56.027,39.931C56.045,35.108,54.569,28.523,47,26" transform="translate(17.082 8.827)" fill="none" stroke="#000" stroke-linejoin="round" stroke-width="2"/>
      <path id="Trazado_904811" data-name="Trazado 904811" d="M53,40.786A20.922,20.922,0,0,0,53.5,38" transform="translate(19.441 13.545)" fill="none" stroke="#000" stroke-linejoin="round" stroke-width="2"/>
      <path id="Trazado_904812" data-name="Trazado 904812" d="M17.717,56.906c0,6.155-3.742,12.383-8.359,12.383S1,63.061,1,56.906,4.742,47,9.359,47,17.717,50.752,17.717,56.906Z" transform="translate(-1 17.082)" fill="none" stroke="#000" stroke-linejoin="round" stroke-width="2"/>
      <path id="Trazado_904813" data-name="Trazado 904813" d="M29.07,51.519a8.04,8.04,0,0,1,5.572,7.636c0,4.617-3.752,8.359-9.906,8.359a16.333,16.333,0,0,1-6.548-1.393" transform="translate(5.757 18.859)" fill="none" stroke="#000" stroke-linejoin="round" stroke-width="2"/>
      <path id="Trazado_904814" data-name="Trazado 904814" d="M13.489,53.179q.362-.418.751-.807c4.294-4.294,9.52-4.3,12.74-1.08s3.214,8.446-1.08,12.74S14.652,70.059,11.433,66.84a5.155,5.155,0,0,1-.847-1.114" transform="translate(2.768 17.869)" fill="none" stroke="#000" stroke-linejoin="round" stroke-width="2"/>
      <path id="Trazado_904815" data-name="Trazado 904815" d="M7,50.538,16.752,38,25.11,53.324" transform="translate(1.359 13.545)" fill="none" stroke="#000" stroke-linejoin="round" stroke-width="2"/>
      <path id="Trazado_904816" data-name="Trazado 904816" d="M14,7V50.186" transform="translate(4.11 1.359)" fill="none" stroke="#000" stroke-linejoin="round" stroke-width="2"/>
      <path id="Trazado_904817" data-name="Trazado 904817" d="M18.717,27S2,29.786,2,43.717C2,43.717,18.717,40.931,18.717,27Z" transform="translate(-0.607 9.221)" fill="none" stroke="#000" stroke-linejoin="round" stroke-width="2"/>
      <path id="Trazado_904818" data-name="Trazado 904818" d="M2,43.717,18.717,27" transform="translate(-0.607 9.221)" fill="none" stroke="#000" stroke-linejoin="round" stroke-width="2"/>
      <path id="Trazado_904819" data-name="Trazado 904819" d="M14,31s16.717,2.786,16.717,16.717C30.717,47.717,14,44.931,14,31Z" transform="translate(4.11 10.793)" fill="none" stroke="#000" stroke-linejoin="round" stroke-width="2"/>
      <path id="Trazado_904820" data-name="Trazado 904820" d="M30.717,47.717,14,31" transform="translate(4.11 10.793)" fill="none" stroke="#000" stroke-linejoin="round" stroke-width="2"/>
      <path id="Trazado_904821" data-name="Trazado 904821" d="M18.717,16S2,18.786,2,32.717C2,32.717,18.717,29.931,18.717,16Z" transform="translate(-0.607 4.896)" fill="none" stroke="#000" stroke-linejoin="round" stroke-width="2"/>
      <path id="Trazado_904822" data-name="Trazado 904822" d="M2,32.717,18.717,16" transform="translate(-0.607 4.896)" fill="none" stroke="#000" stroke-linejoin="round" stroke-width="2"/>
      <path id="Trazado_904823" data-name="Trazado 904823" d="M14,20s16.717,2.786,16.717,16.717C30.717,36.717,14,33.931,14,20Z" transform="translate(4.11 6.469)" fill="none" stroke="#000" stroke-linejoin="round" stroke-width="2"/>
      <path id="Trazado_904824" data-name="Trazado 904824" d="M30.717,36.717,14,20" transform="translate(4.11 6.469)" fill="none" stroke="#000" stroke-linejoin="round" stroke-width="2"/>
      <path id="Trazado_904825" data-name="Trazado 904825" d="M14,38c0,8.47,2.492,15.324,5.572,15.324" transform="translate(4.11 13.545)" fill="none" stroke="#000" stroke-linejoin="round" stroke-width="2"/>
    </g>
  </g>
</svg>
