<svg xmlns="http://www.w3.org/2000/svg" xmlns:xlink="http://www.w3.org/1999/xlink" width="145" height="144" viewBox="0 0 145 144">
  <defs>
    <clipPath id="clip-path">
      <path id="path12339" d="M0-682.665H86.767V-595.9H0Z" transform="translate(0 682.665)"/>
    </clipPath>
  </defs>
  <g id="Grupo_1112879" data-name="Grupo 1112879" transform="translate(-726.443 -5810)">
    <ellipse id="Elipse_14858" data-name="Elipse 14858" cx="72.5" cy="72" rx="72.5" ry="72" transform="translate(726.443 5810)" fill="#d5effb"/>
    <circle id="Elipse_14859" data-name="Elipse 14859" cx="60.5" cy="60.5" r="60.5" transform="translate(738.443 5822)" fill="#97d8f6"/>
    <g id="g12333" transform="translate(756.617 6521.281)">
      <g id="g12335" transform="translate(0 -682.665)">
        <g id="g12337" clip-path="url(#clip-path)">
          <g id="g12343" transform="translate(57.879 38.067)">
            <path id="path12345" d="M-105.948-36.791c-2.184-3.343-3.685-5.357-7.678-5.357H-118.2c-2.88,2.88-2.638,7.792.542,10.971a8.453,8.453,0,0,0,6.519,2.532c-.329,2.072,1.042,5.5,3.658,6.069l-13.9,10.91,1.635,8,21.374-15.055a4.513,4.513,0,0,0,1.035-6.365Z" transform="translate(121.374 42.148)" fill="#fed2a4"/>
          </g>
          <g id="g12347" transform="translate(59.045 38.067)">
            <path id="path12349" d="M-62.3-92.738c-.3,1.872.793,4.852,2.934,5.828l2.389-1.875a.848.848,0,0,0-.072-1.382,6.177,6.177,0,0,1-2.505-4.742.843.843,0,0,0-.811-.816,8.546,8.546,0,0,1-5.663-2.544,8.267,8.267,0,0,1-2.283-7.971h-1.05c-2.88,2.88-2.638,7.792.542,10.972A8.454,8.454,0,0,0-62.3-92.738" transform="translate(71.372 106.241)" fill="#ffbd86"/>
          </g>
          <g id="g12351" transform="translate(57.879 38.067)">
            <path id="path12353" d="M-102.131-31.024c-1.908-2.837-3.476-4.517-7.122-4.517h-4.572c-2.88,2.88-2.637,7.792.542,10.971a8.453,8.453,0,0,0,6.519,2.532c-.329,2.072,1.042,5.5,3.658,6.069L-117-5.059l1.635,8,21.374-15.055a4.513,4.513,0,0,0,1.035-6.365l-5.7-7.737" transform="translate(117.002 35.541)" fill="none" stroke="#000" stroke-linecap="round" stroke-linejoin="round" stroke-miterlimit="10" stroke-width="2"/>
          </g>
          <g id="g12355" transform="translate(22.427 38.067)">
            <path id="path12357" d="M-86.224-43.112A6.3,6.3,0,0,0-92.5-49.389a6.3,6.3,0,0,0-6.277,6.277v1.883a6.246,6.246,0,0,0,1.549,4.115A6.244,6.244,0,0,0-98.778-33v13.553A6.379,6.379,0,0,0-92.5-13.071a6.379,6.379,0,0,0,6.277-6.374V-33a6.245,6.245,0,0,0-1.549-4.115,6.246,6.246,0,0,0,1.549-4.115Z" transform="translate(98.778 49.389)" fill="#fed2a4"/>
          </g>
          <g id="g12359" transform="translate(22.427 38.067)">
            <path id="path12361" d="M-1.547-101.176a1.666,1.666,0,0,1,.144.251,1.641,1.641,0,0,1,1.488-.961,1.642,1.642,0,0,1,1.489.961,1.644,1.644,0,0,1,.228-.36,6.292,6.292,0,0,1,1.292-2.347,6.246,6.246,0,0,1-1.549-4.115v-1.883a6.3,6.3,0,0,1,4.618-6.052,6.23,6.23,0,0,0-1.659-.226,6.3,6.3,0,0,0-6.277,6.277v1.883a6.246,6.246,0,0,0,1.549,4.115,6.289,6.289,0,0,0-1.324,2.456" transform="translate(1.772 115.908)" fill="#ffbd86"/>
          </g>
          <g id="g12363" transform="translate(22.427 38.067)">
            <path id="path12365" d="M-86.224-43.112A6.3,6.3,0,0,0-92.5-49.389a6.3,6.3,0,0,0-6.277,6.277v1.883a6.246,6.246,0,0,0,1.549,4.115A6.244,6.244,0,0,0-98.778-33v13.553A6.379,6.379,0,0,0-92.5-13.071a6.379,6.379,0,0,0,6.277-6.374V-33a6.245,6.245,0,0,0-1.549-4.115,6.246,6.246,0,0,0,1.549-4.115Z" transform="translate(98.778 49.389)" fill="none" stroke="#000" stroke-linecap="round" stroke-linejoin="round" stroke-miterlimit="10" stroke-width="2"/>
          </g>
          <g id="g12367" transform="translate(31.805 77.751)">
            <path id="path12369" d="M-5.988-53.186H22.6a.872.872,0,0,0,.872-.872v-6.872H-6.86v6.872a.872.872,0,0,0,.872.872" transform="translate(6.86 60.931)" fill="#53469c"/>
          </g>
          <g id="g12371" transform="translate(31.806 77.751)">
            <path id="path12373" d="M-49.254-47.2v-6.873h-7.172V-47.2a.872.872,0,0,0,.872.872h7.172a.872.872,0,0,1-.872-.872" transform="translate(56.425 54.072)" fill="#463a84"/>
          </g>
          <g id="g12375" transform="translate(31.805 76.26)">
            <path id="path12377" d="M0-10.244v6.873A.872.872,0,0,0,.872-2.5H29.46a.872.872,0,0,0,.872-.872v-8.364" transform="translate(0 11.736)" fill="none" stroke="#000" stroke-linecap="round" stroke-linejoin="round" stroke-miterlimit="10" stroke-width="2"/>
          </g>
          <g id="g12379" transform="translate(29.709 36.81)">
            <path id="path12381" d="M-5.988,0A.872.872,0,0,0-6.86.872V15.666A10.177,10.177,0,0,0-5.125,21.29l.258.391v19.26H25.465V21.681l.164-.226A10.253,10.253,0,0,0,27.665,15.4V.872A.872.872,0,0,0,26.794,0Z" transform="translate(6.86 0)" fill="#8bc727"/>
          </g>
          <g id="g12383" transform="translate(29.709 36.809)">
            <path id="path12385" d="M-61.6-146.219a10.176,10.176,0,0,1-1.734-5.624v-14.794a.872.872,0,0,1,.872-.872H-69.7a.872.872,0,0,0-.872.872v14.794a10.177,10.177,0,0,0,1.735,5.624l.258.391v19.26h7.235v-19.26Z" transform="translate(70.569 167.509)" fill="#81b823"/>
          </g>
          <g id="g12387" transform="translate(29.709 36.809)">
            <path id="path12389" d="M-120.682-281.181h14.753v-19.26l.165-.226a10.255,10.255,0,0,0,2.036-6.058v-14.526a.872.872,0,0,0-.872-.872h-32.782a.872.872,0,0,0-.872.872v14.794a10.177,10.177,0,0,0,1.734,5.624l.258.391v19.26h9.648" transform="translate(138.254 322.123)" fill="none" stroke="#000" stroke-linecap="round" stroke-linejoin="round" stroke-miterlimit="10" stroke-width="2"/>
          </g>
          <g id="g12391" transform="translate(43.083 33.767)">
            <path id="path12393" d="M-46.92-.436h-5.887A7.3,7.3,0,0,1-53.752-.5V4.535a3.888,3.888,0,0,0,3.888,3.888,3.888,3.888,0,0,0,3.888-3.888V-.5a7.293,7.293,0,0,1-.944.064" transform="translate(53.752 0.5)" fill="#ffbd86"/>
          </g>
          <g id="g12395" transform="translate(43.083 33.767)">
            <path id="path12397" d="M-25.337-34.577v-4.971h-2.745a7.3,7.3,0,0,1-.945-.064v5.035a3.888,3.888,0,0,0,3.888,3.888,3.873,3.873,0,0,0,1.845-.465,3.887,3.887,0,0,1-2.044-3.423" transform="translate(29.027 39.612)" fill="#f6a96c"/>
          </g>
          <g id="g12399" transform="translate(43.083 33.767)">
            <path id="path12401" d="M-46.92-.436h-5.887A7.3,7.3,0,0,1-53.752-.5V4.535a3.888,3.888,0,0,0,3.888,3.888,3.888,3.888,0,0,0,3.888-3.888V-.5A7.293,7.293,0,0,1-46.92-.436Z" transform="translate(53.752 0.5)" fill="none" stroke="#000" stroke-linecap="round" stroke-linejoin="round" stroke-miterlimit="10" stroke-width="2"/>
          </g>
          <g id="g12403" transform="translate(32.485 1.271)">
            <path id="path12405" d="M-198.981-135.373h-28.973v-14.543a5.168,5.168,0,0,1,5.168-5.168h12.608a11.2,11.2,0,0,1,11.2,11.2Z" transform="translate(227.954 155.084)" fill="#bb5d4c"/>
          </g>
          <g id="g12407" transform="translate(32.485 1.271)">
            <path id="path12409" d="M-74.3,0h-5.65a5.168,5.168,0,0,0-5.168,5.168V19.711h5.65V5.168A5.168,5.168,0,0,1-74.3,0" transform="translate(85.117)" fill="#a44f3e"/>
          </g>
          <g id="g12411" transform="translate(32.485 1.271)">
            <path id="path12413" d="M-160.73-10.428a11.141,11.141,0,0,0-5.627-1.518h-12.608a5.168,5.168,0,0,0-5.168,5.168V7.764h28.973V-.749A11.141,11.141,0,0,0-156.574-6.2" transform="translate(184.133 11.947)" fill="none" stroke="#000" stroke-linecap="round" stroke-linejoin="round" stroke-miterlimit="10" stroke-width="2"/>
          </g>
          <g id="g12415" transform="translate(45.313 9.222)">
            <path id="path12417" d="M0,0,4.536,4.536" fill="none" stroke="#000" stroke-linecap="round" stroke-linejoin="round" stroke-miterlimit="10" stroke-width="2"/>
          </g>
          <g id="g12419" transform="translate(39.11 9.222)">
            <path id="path12421" d="M0,0,4.536,4.536" fill="none" stroke="#000" stroke-linecap="round" stroke-linejoin="round" stroke-miterlimit="10" stroke-width="2"/>
          </g>
          <g id="g12423" transform="translate(30.616 18.029)">
            <path id="path12425" d="M-197.788-53.72h-24.888a3.911,3.911,0,0,1-3.911-3.911,3.911,3.911,0,0,1,3.911-3.911h24.888a3.911,3.911,0,0,1,3.911,3.911,3.911,3.911,0,0,1-3.911,3.911" transform="translate(226.587 61.543)" fill="#fed2a4"/>
          </g>
          <g id="g12427" transform="translate(30.616 18.029)">
            <path id="path12429" d="M-197.788-53.72h-24.888a3.911,3.911,0,0,1-3.911-3.911,3.911,3.911,0,0,1,3.911-3.911h24.888a3.911,3.911,0,0,1,3.911,3.911A3.911,3.911,0,0,1-197.788-53.72Z" transform="translate(226.587 61.543)" fill="none" stroke="#000" stroke-linecap="round" stroke-linejoin="round" stroke-miterlimit="10" stroke-width="2"/>
          </g>
          <g id="g12431" transform="translate(36.622 13.666)">
            <path id="path12433" d="M0-19.075v10.15A7.406,7.406,0,0,0,7.406-1.518h5.887A7.406,7.406,0,0,0,20.7-8.924v-10.15a2.777,2.777,0,0,0-2.777-2.777H2.777A2.777,2.777,0,0,0,0-19.075" transform="translate(0 21.852)" fill="#fed2a4"/>
          </g>
          <g id="g12435" transform="translate(36.622 13.666)">
            <path id="path12437" d="M-29.973-88.787v-10.15a2.777,2.777,0,0,1,2.777-2.777H-31.56a2.777,2.777,0,0,0-2.777,2.777v10.15a7.406,7.406,0,0,0,7.406,7.406h4.364a7.406,7.406,0,0,1-7.406-7.406" transform="translate(34.337 101.714)" fill="#ffbd86"/>
          </g>
          <g id="g12439" transform="translate(36.622 13.666)">
            <path id="path12441" d="M0-19.075v10.15A7.406,7.406,0,0,0,7.406-1.518h5.887A7.406,7.406,0,0,0,20.7-8.924v-10.15a2.777,2.777,0,0,0-2.777-2.777H2.777A2.777,2.777,0,0,0,0-19.075Z" transform="translate(0 21.852)" fill="none" stroke="#000" stroke-linecap="round" stroke-linejoin="round" stroke-miterlimit="10" stroke-width="2"/>
          </g>
          <g id="g12443" transform="translate(41.747 18.915)">
            <path id="path12445" d="M0,0V1.9" transform="translate(0)" fill="none" stroke="#000" stroke-linecap="round" stroke-linejoin="round" stroke-miterlimit="10" stroke-width="2"/>
          </g>
          <g id="g12447" transform="translate(52.196 18.915)">
            <path id="path12449" d="M0,0V1.9" transform="translate(0)" fill="none" stroke="#000" stroke-linecap="round" stroke-linejoin="round" stroke-miterlimit="10" stroke-width="2"/>
          </g>
          <g id="g12451" transform="translate(45.547 21.29)">
            <path id="path12453" d="M-9.786,0l-1.425,1.814L-9.786,2.85" transform="translate(11.211)" fill="none" stroke="#000" stroke-linecap="round" stroke-linejoin="round" stroke-miterlimit="10" stroke-width="2"/>
          </g>
          <g id="g12455" transform="translate(43.781 27.616)">
            <path id="path12457" d="M0,0A4.51,4.51,0,0,0,6.381,0" fill="none" stroke="#000" stroke-linecap="round" stroke-linejoin="round" stroke-miterlimit="10" stroke-width="2"/>
          </g>
          <path id="path12459" d="M136.356-248.777H113.669v-4.307h22.687Z" transform="translate(-99.222 307.683)" fill="#c2bce0" stroke="#000" stroke-linecap="round" stroke-linejoin="round" stroke-miterlimit="10" stroke-width="2"/>
          <g id="g12461" transform="translate(3.965 51.301)">
            <path id="path12463" d="M-44.159-74.889h-3.846a2.584,2.584,0,0,1-2.584-2.584v-5.736a2.584,2.584,0,0,1,2.584-2.584h3.846a2.584,2.584,0,0,1,2.584,2.584v5.736a2.584,2.584,0,0,1-2.584,2.584" transform="translate(50.589 85.793)" fill="#01d0fb"/>
          </g>
          <g id="g12465" transform="translate(3.965 51.301)">
            <path id="path12467" d="M-44.159-74.889h-3.846a2.584,2.584,0,0,1-2.584-2.584v-5.736a2.584,2.584,0,0,1,2.584-2.584h3.846a2.584,2.584,0,0,1,2.584,2.584v5.736A2.584,2.584,0,0,1-44.159-74.889Z" transform="translate(50.589 85.793)" fill="none" stroke="#000" stroke-linecap="round" stroke-linejoin="round" stroke-miterlimit="10" stroke-width="2"/>
          </g>
          <g id="g12469" transform="translate(38.483 51.301)">
            <path id="path12471" d="M-44.3-74.889h-3.867a2.584,2.584,0,0,1-2.584-2.584v-5.736a2.584,2.584,0,0,1,2.584-2.584H-44.3a2.584,2.584,0,0,1,2.584,2.584v5.736A2.584,2.584,0,0,1-44.3-74.889" transform="translate(50.755 85.793)" fill="#01d0fb"/>
          </g>
          <g id="g12473" transform="translate(38.483 51.301)">
            <path id="path12475" d="M-44.3-74.889h-3.867a2.584,2.584,0,0,1-2.584-2.584v-5.736a2.584,2.584,0,0,1,2.584-2.584H-44.3a2.584,2.584,0,0,1,2.584,2.584v5.736A2.584,2.584,0,0,1-44.3-74.889Z" transform="translate(50.755 85.793)" fill="none" stroke="#000" stroke-linecap="round" stroke-linejoin="round" stroke-miterlimit="10" stroke-width="2"/>
          </g>
          <g id="g12477" transform="translate(9.038 46.477)">
            <path id="path12479" d="M-45.074-141.143h-5.7a.861.861,0,0,1-.861-.861v-18.829a.862.862,0,0,1,.861-.861h5.7a.861.861,0,0,1,.861.861V-142a.861.861,0,0,1-.861.861" transform="translate(51.637 161.694)" fill="#fd4755"/>
          </g>
          <g id="g12481" transform="translate(9.038 46.477)">
            <path id="path12483" d="M-24.272-135.227v-18.828a.861.861,0,0,1,.861-.862h-3.534a.861.861,0,0,0-.861.862v18.828a.861.861,0,0,0,.861.861h3.534a.861.861,0,0,1-.861-.861" transform="translate(27.807 154.917)" fill="#fb2b3a"/>
          </g>
          <g id="g12485" transform="translate(9.038 46.477)">
            <path id="path12487" d="M-45.074-141.143h-5.7a.861.861,0,0,1-.861-.861v-18.829a.862.862,0,0,1,.861-.861h5.7a.861.861,0,0,1,.861.861V-142A.861.861,0,0,1-45.074-141.143Z" transform="translate(51.637 161.694)" fill="none" stroke="#000" stroke-linecap="round" stroke-linejoin="round" stroke-miterlimit="10" stroke-width="2"/>
          </g>
          <g id="g12489" transform="translate(35.067 46.477)">
            <path id="path12491" d="M-45.192-141.143H-50.91a.861.861,0,0,1-.861-.861v-18.829a.861.861,0,0,1,.861-.861h5.719a.861.861,0,0,1,.861.861V-142a.861.861,0,0,1-.861.861" transform="translate(51.772 161.694)" fill="#fd4755"/>
          </g>
          <g id="g12493" transform="translate(35.067 46.477)">
            <path id="path12495" d="M-24.274-135.227v-18.828a.861.861,0,0,1,.861-.862h-3.534a.861.861,0,0,0-.861.862v18.828a.861.861,0,0,0,.861.861h3.534a.861.861,0,0,1-.861-.861" transform="translate(27.808 154.917)" fill="#fb2b3a"/>
          </g>
          <g id="g12497" transform="translate(35.067 46.477)">
            <path id="path12499" d="M-45.192-141.143H-50.91a.861.861,0,0,1-.861-.861v-18.829a.861.861,0,0,1,.861-.861h5.719a.861.861,0,0,1,.861.861V-142A.861.861,0,0,1-45.192-141.143Z" transform="translate(51.772 161.694)" fill="none" stroke="#000" stroke-linecap="round" stroke-linejoin="round" stroke-miterlimit="10" stroke-width="2"/>
          </g>
          <g id="g12501" transform="translate(22.179 60.431)">
            <path id="path12503" d="M-24.689-115.942h0a3.6,3.6,0,0,1-3.595-3.595v-13.287h7.19v13.287a3.6,3.6,0,0,1-3.595,3.595" transform="translate(28.284 132.824)" fill="#fed2a4"/>
          </g>
          <g id="g12505" transform="translate(22.179 60.431)">
            <path id="path12507" d="M-19.437-91.255v-13.287h-2.83v13.287a3.6,3.6,0,0,0,3.595,3.595,3.581,3.581,0,0,0,1.415-.29,3.6,3.6,0,0,1-2.18-3.3" transform="translate(22.267 104.542)" fill="#ffbd86"/>
          </g>
          <g id="g12509" transform="translate(22.179 60.431)">
            <path id="path12511" d="M-24.689-115.942h0a3.6,3.6,0,0,1-3.595-3.595v-13.287h7.19v13.287A3.6,3.6,0,0,1-24.689-115.942Z" transform="translate(28.284 132.824)" fill="none" stroke="#000" stroke-linecap="round" stroke-linejoin="round" stroke-miterlimit="10" stroke-width="2"/>
          </g>
          <g id="g12513" transform="translate(22.179 60.431)">
            <path id="path12515" d="M-24.689-115.942h0a3.6,3.6,0,0,1-3.595-3.595v-13.287h7.19v13.287A3.6,3.6,0,0,1-24.689-115.942Z" transform="translate(28.284 132.824)" fill="none" stroke="#000" stroke-linecap="round" stroke-linejoin="round" stroke-miterlimit="10" stroke-width="2"/>
          </g>
          <g id="g12517" transform="translate(19.671 52.089)">
            <path id="path12519" d="M-31.691,0a1.641,1.641,0,0,0-1.488.961A1.64,1.64,0,0,0-34.769,0a1.668,1.668,0,0,0-1.536,1.68V6.914a2.415,2.415,0,0,0,2.415,2.415h7.377A2.415,2.415,0,0,0-24.1,6.914V1.683A1.668,1.668,0,0,0-25.636,0a1.639,1.639,0,0,0-1.59.958A1.642,1.642,0,0,0-28.714,0,1.642,1.642,0,0,0-30.2.961,1.641,1.641,0,0,0-31.691,0" transform="translate(36.305)" fill="#ffbd86"/>
          </g>
          <g id="g12521" transform="translate(19.671 52.089)">
            <path id="path12523" d="M-30.144-47.481v-5.231a1.7,1.7,0,0,1,.933-1.519,1.617,1.617,0,0,0-.708-.164,1.642,1.642,0,0,0-1.488.961A1.641,1.641,0,0,0-33-54.392a1.668,1.668,0,0,0-1.536,1.68v5.231a2.415,2.415,0,0,0,2.415,2.415h4.389a2.415,2.415,0,0,1-2.415-2.415" transform="translate(34.533 54.395)" fill="#f6a96c"/>
          </g>
          <g id="g12525" transform="translate(19.671 52.089)">
            <path id="path12527" d="M-31.691,0a1.641,1.641,0,0,0-1.488.961A1.64,1.64,0,0,0-34.769,0a1.668,1.668,0,0,0-1.536,1.68V6.914a2.415,2.415,0,0,0,2.415,2.415h7.377A2.415,2.415,0,0,0-24.1,6.914V1.683A1.668,1.668,0,0,0-25.636,0a1.639,1.639,0,0,0-1.59.958A1.642,1.642,0,0,0-28.714,0,1.642,1.642,0,0,0-30.2.961,1.641,1.641,0,0,0-31.691,0Z" transform="translate(36.305)" fill="none" stroke="#000" stroke-linecap="round" stroke-linejoin="round" stroke-miterlimit="10" stroke-width="2"/>
          </g>
          <g id="g12529" transform="translate(52.053 48.028)">
            <path id="path12531" d="M-44.958-22.478A3.273,3.273,0,0,1-48.231-19.2,3.273,3.273,0,0,1-51.5-22.478a3.273,3.273,0,0,1,3.273-3.273,3.273,3.273,0,0,1,3.273,3.273" transform="translate(51.504 25.751)" fill="#fff"/>
          </g>
          <g id="g12533" transform="translate(52.053 48.028)">
            <path id="path12535" d="M-44.958-22.478A3.273,3.273,0,0,1-48.231-19.2,3.273,3.273,0,0,1-51.5-22.478a3.273,3.273,0,0,1,3.273-3.273A3.273,3.273,0,0,1-44.958-22.478Z" transform="translate(51.504 25.751)" fill="none" stroke="#000" stroke-linecap="round" stroke-linejoin="round" stroke-miterlimit="10" stroke-width="2"/>
          </g>
        </g>
      </g>
    </g>
  </g>
</svg>
