<svg xmlns="http://www.w3.org/2000/svg" width="145" height="144" viewBox="0 0 145 144">
  <g id="Grupo_1112880" data-name="Grupo 1112880" transform="translate(-937.051 -5810)">
    <ellipse id="Elipse_14860" data-name="Elipse 14860" cx="72.5" cy="72" rx="72.5" ry="72" transform="translate(937.051 5810)" fill="#d5effb"/>
    <circle id="Elipse_14861" data-name="Elipse 14861" cx="60.5" cy="60.5" r="60.5" transform="translate(949.051 5822)" fill="#97d8f6"/>
    <g id="Grupo_1112595" data-name="Grupo 1112595" transform="translate(963.45 5814.946)">
      <g id="Grupo_1112580" data-name="Grupo 1112580" transform="translate(7.5 32.42)">
        <g id="Grupo_1112578" data-name="Grupo 1112578" transform="translate(0)">
          <g id="Grupo_1112577" data-name="Grupo 1112577">
            <g id="Grupo_1112576" data-name="Grupo 1112576">
              <g id="Grupo_1112573" data-name="Grupo 1112573">
                <g id="Grupo_1112567" data-name="Grupo 1112567">
                  <g id="Grupo_1112566" data-name="Grupo 1112566" transform="translate(0 0)">
                    <g id="Grupo_1112565" data-name="Grupo 1112565">
                      <path id="Trazado_904029" data-name="Trazado 904029" d="M81.583,70.311a4.019,4.019,0,0,1-3.968-3.388,31.464,31.464,0,0,0-62.129,0,4.019,4.019,0,0,1-3.968,3.388h0a4.025,4.025,0,0,1-3.967-4.672,39.5,39.5,0,0,1,78,0,4.025,4.025,0,0,1-3.967,4.673Z" transform="translate(-7.501 -32.423)" fill="#fb3a82"/>
                    </g>
                  </g>
                  <path id="Trazado_904030" data-name="Trazado 904030" d="M280.662,65.636a39.508,39.508,0,0,0-39-33.216q-1.348,0-2.673.09a39.5,39.5,0,0,1,32.232,20.915l-2.8,1.939a31.315,31.315,0,0,1,3.073,6.534l1.362-.822a1.1,1.1,0,0,1,1.633.659,39.106,39.106,0,0,1,.831,3.9,4.032,4.032,0,0,1-1.293,3.652,4.018,4.018,0,0,0,6.639-3.652Z" transform="translate(-202.612 -32.42)" fill="#fb1466"/>
                  <path id="Trazado_904031" data-name="Trazado 904031" d="M7.551,65.638a39.506,39.506,0,0,1,39-33.215v8.038A31.467,31.467,0,0,0,15.486,66.923a4.019,4.019,0,0,1-3.968,3.388h0A4.025,4.025,0,0,1,7.551,65.638Z" transform="translate(-7.5 -32.423)" fill="#23f1a8"/>
                </g>
                <g id="Grupo_1112572" data-name="Grupo 1112572" transform="translate(17.048 13.542)">
                  <g id="Grupo_1112568" data-name="Grupo 1112568" transform="translate(0 3.948)">
                    <path id="Trazado_904032" data-name="Trazado 904032" d="M137.992,143.722a22,22,0,1,0,22,22A22,22,0,0,0,137.992,143.722Z" transform="translate(-115.987 -143.722)" fill="#fb3a82"/>
                    <path id="Trazado_904033" data-name="Trazado 904033" d="M261.16,165.725a22.022,22.022,0,0,1-25.15,21.782,22.008,22.008,0,0,0,0-43.564,22.022,22.022,0,0,1,25.15,21.782Z" transform="translate(-217.149 -143.72)" fill="#fb1466"/>
                  </g>
                  <g id="Grupo_1112569" data-name="Grupo 1112569" transform="translate(20.567)">
                    <path id="Trazado_904034" data-name="Trazado 904034" d="M249.744,146.773l-2.875-4.445,33.9-23.442a1.629,1.629,0,0,1,1.585-.15l2.508,1.11a1.629,1.629,0,0,1,.969,1.5l-.016,2.743a1.629,1.629,0,0,1-.787,1.385Z" transform="translate(-246.869 -118.598)" fill="#31a7fb"/>
                  </g>
                  <g id="Grupo_1112570" data-name="Grupo 1112570" transform="translate(5.296 9.244)">
                    <circle id="Elipse_14900" data-name="Elipse 14900" cx="16.709" cy="16.709" r="16.709" fill="#d9e7eb"/>
                  </g>
                  <g id="Grupo_1112571" data-name="Grupo 1112571" transform="translate(18.861 9.244)">
                    <path id="Trazado_904035" data-name="Trazado 904035" d="M255.862,194.129a16.715,16.715,0,0,1-19.852,16.412,16.711,16.711,0,0,0,0-32.825,16.715,16.715,0,0,1,19.852,16.412Z" transform="translate(-236.01 -177.42)" fill="#c5d3dd"/>
                  </g>
                </g>
              </g>
              <g id="Grupo_1112575" data-name="Grupo 1112575" transform="translate(6.15 38.023)">
                <path id="Trazado_904036" data-name="Trazado 904036" d="M72.338,274.381H84.684a.814.814,0,0,1,.814.814v4.02H71.524V275.2A.814.814,0,0,1,72.338,274.381Z" transform="translate(-67.613 -274.381)" fill="#8dcafc"/>
                <path id="Trazado_904037" data-name="Trazado 904037" d="M124.03,275.194v4.02h-5.975v-4.02a.815.815,0,0,0-.816-.814h5.976A.814.814,0,0,1,124.03,275.194Z" transform="translate(-106.145 -274.38)" fill="#64b9fc"/>
                <g id="Grupo_1112574" data-name="Grupo 1112574" transform="translate(0 4.834)">
                  <path id="Trazado_904038" data-name="Trazado 904038" d="M64.523,305.141H50.549l-3.6,4.922a1.629,1.629,0,0,0-.314.961V330.18a.814.814,0,0,0,.814.814H67.62a.814.814,0,0,0,.814-.814V311.023a1.628,1.628,0,0,0-.314-.961Z" transform="translate(-46.638 -305.141)" fill="#8dcafc"/>
                  <path id="Trazado_904039" data-name="Trazado 904039" d="M132.316,311.022V330.18a.814.814,0,0,1-.814.814h-5.976a.814.814,0,0,0,.814-.814V311.022a1.631,1.631,0,0,0-.313-.96l-3.6-4.922H128.4l3.6,4.922A1.622,1.622,0,0,1,132.316,311.022Z" transform="translate(-110.52 -305.14)" fill="#64b9fc"/>
                  <path id="Trazado_904040" data-name="Trazado 904040" d="M68.434,395.8v-7.742c-7.184,3.429-18.991.023-21.8-5.063v12.8a.814.814,0,0,0,.814.814H67.62A.814.814,0,0,0,68.434,395.8Z" transform="translate(-46.638 -370.759)" fill="#1c96f9"/>
                  <path id="Trazado_904041" data-name="Trazado 904041" d="M142.962,422.951a.814.814,0,0,1-.811.814h5.972a.814.814,0,0,0,.814-.814v-7.742a15.427,15.427,0,0,1-5.976,1.368Z" transform="translate(-127.142 -397.911)" fill="#1576f7"/>
                  <path id="Trazado_904042" data-name="Trazado 904042" d="M68.12,310.063l-3.6-4.921H50.549l-3.6,4.921a1.629,1.629,0,0,0-.314.961h21.8A1.628,1.628,0,0,0,68.12,310.063Z" transform="translate(-46.638 -305.141)" fill="#d9e7eb"/>
                  <path id="Trazado_904043" data-name="Trazado 904043" d="M132.316,311.022H126.34a1.631,1.631,0,0,0-.313-.96l-3.6-4.922H128.4l3.6,4.922A1.622,1.622,0,0,1,132.316,311.022Z" transform="translate(-110.52 -305.14)" fill="#c5d3dd"/>
                </g>
              </g>
            </g>
          </g>
        </g>
        <g id="Grupo_1112579" data-name="Grupo 1112579" transform="translate(47.931 39.913)">
          <path id="Trazado_904044" data-name="Trazado 904044" d="M324.679,315.859c-2.889.194-4.5,1.434-5.934.646-.885-.487-.719-1.444-.3-2.211-.422.767-1.141,1.42-2.026.934a2.244,2.244,0,0,1-.906-.96c-.55-1.026-.738-2.579-1.728-4.4a9.369,9.369,0,0,1-.523-1.142c-2.953-7.755,3.38-20.48,8.153-22.058,4.308-1.424,10.341,3.414,10.341,3.414s7.317,2.5,8.423,6.9C341.468,302.112,333.285,315.284,324.679,315.859Z" transform="translate(-312.509 -286.409)" fill="#ffdfd0"/>
          <path id="Trazado_904045" data-name="Trazado 904045" d="M338.907,343.176c-2.888.193-4.5,1.433-5.934.646-.885-.487-.718-1.444-.3-2.211-.421.767-1.141,1.421-2.026.933a2.247,2.247,0,0,1-.907-.96,5.773,5.773,0,0,1-.354-.839c1.3.262,2.844-.691,5.346-.86,8.605-.575,16.789-13.747,15.5-18.87a5.9,5.9,0,0,0-1.13-2.2c2.134,1.168,4.683,3.031,5.3,5.486C355.7,329.428,347.512,342.6,338.907,343.176Z" transform="translate(-326.737 -313.725)" fill="#ffcec0"/>
        </g>
      </g>
      <g id="Grupo_1112594" data-name="Grupo 1112594" transform="translate(7.5 32.42)">
        <g id="Grupo_1112592" data-name="Grupo 1112592" transform="translate(0 0)">
          <g id="Grupo_1112591" data-name="Grupo 1112591">
            <g id="Grupo_1112586" data-name="Grupo 1112586">
              <g id="Grupo_1112583" data-name="Grupo 1112583">
                <line id="Línea_673" data-name="Línea 673" y2="8.038" transform="translate(39.051)" fill="none" stroke="#000" stroke-linecap="round" stroke-linejoin="round" stroke-miterlimit="10" stroke-width="2"/>
                <g id="Grupo_1112582" data-name="Grupo 1112582">
                  <g id="Grupo_1112581" data-name="Grupo 1112581">
                    <path id="Trazado_904046" data-name="Trazado 904046" d="M166.822,47.09a39.505,39.505,0,0,0-53.071-7.737" transform="translate(-97.054 -32.423)" fill="none" stroke="#000" stroke-linecap="round" stroke-linejoin="round" stroke-miterlimit="10" stroke-width="2"/>
                    <path id="Trazado_904047" data-name="Trazado 904047" d="M436.483,174.433a31.231,31.231,0,0,1,2.7,8.63,4.019,4.019,0,0,0,3.968,3.388h0a4.025,4.025,0,0,0,3.967-4.672,39.22,39.22,0,0,0-3.754-11.561" transform="translate(-369.07 -148.563)" fill="none" stroke="#000" stroke-linecap="round" stroke-linejoin="round" stroke-miterlimit="10" stroke-width="2"/>
                    <path id="Trazado_904048" data-name="Trazado 904048" d="M20.165,85.643A39.432,39.432,0,0,0,7.551,108.752a4.025,4.025,0,0,0,3.967,4.672h0a4.019,4.019,0,0,0,3.968-3.388A31.463,31.463,0,0,1,70.664,94.829" transform="translate(-7.5 -75.537)" fill="none" stroke="#000" stroke-linecap="round" stroke-linejoin="round" stroke-miterlimit="10" stroke-width="2"/>
                  </g>
                </g>
              </g>
              <g id="Grupo_1112585" data-name="Grupo 1112585" transform="translate(51.254 13.542)">
                <g id="Grupo_1112584" data-name="Grupo 1112584" transform="translate(0 0)">
                  <path id="Trazado_904049" data-name="Trazado 904049" d="M333.658,132.9l20.258-14.01a1.629,1.629,0,0,1,1.585-.15l2.508,1.11a1.629,1.629,0,0,1,.969,1.5l-.016,2.743a1.629,1.629,0,0,1-.787,1.385l-21.071,12.721" transform="translate(-333.658 -118.597)" fill="none" stroke="#000" stroke-linecap="round" stroke-linejoin="round" stroke-miterlimit="10" stroke-width="2"/>
                </g>
              </g>
            </g>
            <g id="Grupo_1112588" data-name="Grupo 1112588" transform="translate(6.15 38.023)">
              <g id="Grupo_1112587" data-name="Grupo 1112587">
                <line id="Línea_674" data-name="Línea 674" x2="1.34" transform="translate(15.064 15.522)" fill="none" stroke="#000" stroke-linecap="round" stroke-linejoin="round" stroke-miterlimit="10" stroke-width="2"/>
                <path id="Trazado_904050" data-name="Trazado 904050" d="M68.434,388.056c-7.184,3.429-18.991.023-21.8-5.063" transform="translate(-46.638 -365.925)" fill="none" stroke="#000" stroke-linecap="round" stroke-linejoin="round" stroke-miterlimit="10" stroke-width="2"/>
                <path id="Trazado_904051" data-name="Trazado 904051" d="M59.989,330.994h7.629a.814.814,0,0,0,.814-.814V311.023a1.629,1.629,0,0,0-.314-.961l-3.6-4.921H50.548l-3.6,4.921a1.629,1.629,0,0,0-.314.961V330.18a.814.814,0,0,0,.814.814H54.83" transform="translate(-46.637 -300.307)" fill="none" stroke="#000" stroke-linecap="round" stroke-linejoin="round" stroke-miterlimit="10" stroke-width="2"/>
                <path id="Trazado_904052" data-name="Trazado 904052" d="M72.338,274.381H84.684a.814.814,0,0,1,.814.814v4.02H71.524V275.2A.814.814,0,0,1,72.338,274.381Z" transform="translate(-67.613 -274.381)" fill="none" stroke="#000" stroke-linecap="round" stroke-linejoin="round" stroke-miterlimit="10" stroke-width="2"/>
              </g>
              <line id="Línea_675" data-name="Línea 675" x1="21.796" transform="translate(0 10.716)" fill="none" stroke="#000" stroke-linecap="round" stroke-linejoin="round" stroke-miterlimit="10" stroke-width="2"/>
            </g>
            <g id="Grupo_1112590" data-name="Grupo 1112590" transform="translate(28.532 36.937)">
              <g id="Grupo_1112589" data-name="Grupo 1112589">
                <line id="Línea_676" data-name="Línea 676" y2="5.473" fill="none" stroke="#000" stroke-linecap="round" stroke-linejoin="round" stroke-miterlimit="10" stroke-width="2"/>
                <line id="Línea_677" data-name="Línea 677" y1="2.736" x2="3.302" fill="none" stroke="#000" stroke-linecap="round" stroke-linejoin="round" stroke-miterlimit="10" stroke-width="2"/>
                <line id="Línea_678" data-name="Línea 678" x1="3.302" y1="2.736" transform="translate(0 2.736)" fill="none" stroke="#000" stroke-linecap="round" stroke-linejoin="round" stroke-miterlimit="10" stroke-width="2"/>
              </g>
              <path id="Trazado_904053" data-name="Trazado 904053" d="M229.832,276.215a2.081,2.081,0,1,0,0,3.358" transform="translate(-220.638 -274.503)" fill="none" stroke="#000" stroke-linecap="round" stroke-linejoin="round" stroke-miterlimit="10" stroke-width="2"/>
              <circle id="Elipse_14901" data-name="Elipse 14901" cx="2.081" cy="2.081" r="2.081" transform="translate(12.152 1.31)" fill="none" stroke="#000" stroke-linecap="round" stroke-linejoin="round" stroke-miterlimit="10" stroke-width="2"/>
              <line id="Línea_679" data-name="Línea 679" y2="2.081" transform="translate(16.314 3.391)" fill="none" stroke="#000" stroke-linecap="round" stroke-linejoin="round" stroke-miterlimit="10" stroke-width="2"/>
              <path id="Trazado_904054" data-name="Trazado 904054" d="M312.509,267.476v5.473h1.638" transform="translate(-293.111 -267.476)" fill="none" stroke="#000" stroke-linecap="round" stroke-linejoin="round" stroke-miterlimit="10" stroke-width="2"/>
            </g>
          </g>
        </g>
        <path id="Trazado_904055" data-name="Trazado 904055" d="M116.438,163.948a22.005,22.005,0,0,1,38.248-12.993m-7.323,34.857a22.043,22.043,0,0,1-20.019-1.043m31.186-27.884a21.924,21.924,0,0,1,1.848,8.838q0,.408-.014.811" transform="translate(-99.319 -126.228)" fill="none" stroke="#000" stroke-linecap="round" stroke-linejoin="round" stroke-miterlimit="10" stroke-width="2"/>
        <g id="Grupo_1112593" data-name="Grupo 1112593" transform="translate(22.421 22.787)">
          <path id="Trazado_904056" data-name="Trazado 904056" d="M185.835,363.63a16.71,16.71,0,0,0,20.426,1.263" transform="translate(-180.231 -334.369)" fill="none" stroke="#000" stroke-linecap="round" stroke-linejoin="round" stroke-miterlimit="10" stroke-width="2"/>
          <path id="Trazado_904057" data-name="Trazado 904057" d="M183.47,195.371c.03-.407.046-.82.046-1.235a16.709,16.709,0,0,0-33.341-1.607" transform="translate(-150.175 -177.428)" fill="none" stroke="#000" stroke-linecap="round" stroke-linejoin="round" stroke-miterlimit="10" stroke-width="2"/>
        </g>
        <path id="Trazado_904058" data-name="Trazado 904058" d="M339.32,302.516a9.735,9.735,0,0,0,.862-5.529c-1.106-4.4-8.423-6.9-8.423-6.9s-6.032-4.838-10.341-3.414c-4.773,1.578-11.106,14.3-8.153,22.058a9.369,9.369,0,0,0,.523,1.142c.989,1.817,1.178,3.37,1.728,4.4a2.244,2.244,0,0,0,.906.96c.885.487,1.6-.166,2.026-.934-.422.768-.588,1.724.3,2.211,1.433.788,3.045-.452,5.934-.646,4.682-.313,9.239-4.356,12.214-8.8" transform="translate(-264.578 -246.496)" fill="none" stroke="#000" stroke-linecap="round" stroke-linejoin="round" stroke-miterlimit="10" stroke-width="2"/>
        <path id="Trazado_904059" data-name="Trazado 904059" d="M377.491,341.552a119.1,119.1,0,0,1-7.843,14.179" transform="translate(-312.738 -292.974)" fill="none" stroke="#000" stroke-linecap="round" stroke-linejoin="round" stroke-miterlimit="10" stroke-width="2"/>
      </g>
    </g>
  </g>
</svg>
