<svg id="Grupo_1112847" data-name="Grupo 1112847" xmlns="http://www.w3.org/2000/svg" width="61.236" height="62" viewBox="0 0 61.236 62">
  <g id="Grupo_1112845" data-name="Grupo 1112845">
    <g id="Grupo_1112832" data-name="Grupo 1112832">
      <path id="Trazado_904826" data-name="Trazado 904826" d="M24.808,44.47a5.954,5.954,0,0,0,2.22,3.33l-11.75,7.83-1.55,1.03a2,2,0,1,1-2.22-3.32l2.74-1.83L24.018,45Z" fill="#838f9b"/>
    </g>
    <g id="Grupo_1112833" data-name="Grupo 1112833">
      <path id="Trazado_904827" data-name="Trazado 904827" d="M34.208,47.8a5.954,5.954,0,0,0,2.22-3.33l.8.53,9.76,6.51,2.74,1.83a2,2,0,1,1-2.22,3.32l-1.55-1.03Z" fill="#838f9b"/>
    </g>
    <g id="Grupo_1112834" data-name="Grupo 1112834">
      <path id="Trazado_904828" data-name="Trazado 904828" d="M36.428,44.47a5.993,5.993,0,0,1-11.62,0,5.487,5.487,0,0,1-.19-1.47,5.8,5.8,0,0,1,.35-2,5.99,5.99,0,0,1,11.3,0,5.8,5.8,0,0,1,.35,2A5.487,5.487,0,0,1,36.428,44.47ZM32.618,43a2,2,0,1,0-2,2A2.006,2.006,0,0,0,32.618,43Z" fill="#838f9b"/>
    </g>
    <g id="Grupo_1112835" data-name="Grupo 1112835">
      <circle id="Elipse_14934" data-name="Elipse 14934" cx="2" cy="2" r="2" transform="translate(28.618 41)" fill="#fcd770"/>
    </g>
    <g id="Grupo_1112836" data-name="Grupo 1112836">
      <path id="Trazado_904829" data-name="Trazado 904829" d="M50.618,42v2a1,1,0,0,1-1,1H37.228l-.8-.53a5.487,5.487,0,0,0,.19-1.47,5.8,5.8,0,0,0-.35-2h13.35a1,1,0,0,1,1,1Z" fill="#fcd770"/>
    </g>
    <g id="Grupo_1112837" data-name="Grupo 1112837">
      <path id="Trazado_904830" data-name="Trazado 904830" d="M24.618,43a5.487,5.487,0,0,0,.19,1.47l-.79.53h-12.4a1,1,0,0,1-1-1V42a1,1,0,0,1,1-1h13.35A5.8,5.8,0,0,0,24.618,43Z" fill="#fcd770"/>
    </g>
    <g id="Grupo_1112838" data-name="Grupo 1112838">
      <path id="Trazado_904831" data-name="Trazado 904831" d="M48.618,45l-1.63,6.51L37.228,45Z" fill="#ccd1d9"/>
    </g>
    <g id="Grupo_1112839" data-name="Grupo 1112839">
      <path id="Trazado_904832" data-name="Trazado 904832" d="M38.618,61H19.738a4.009,4.009,0,0,1-3.88-3.03l-.58-2.34,11.75-7.83a5.97,5.97,0,0,0,7.18,0l11.75,7.83-.58,2.34A4.009,4.009,0,0,1,41.5,61Z" fill="#ccd1d9"/>
    </g>
    <g id="Grupo_1112840" data-name="Grupo 1112840">
      <path id="Trazado_904833" data-name="Trazado 904833" d="M24.018,45l-9.77,6.51L12.618,45Z" fill="#ccd1d9"/>
    </g>
    <g id="Grupo_1112841" data-name="Grupo 1112841">
      <path id="Trazado_904834" data-name="Trazado 904834" d="M54.618,8l5,10h-3V38h-4V18h-3Z" fill="#b4dd7f"/>
    </g>
    <g id="Grupo_1112842" data-name="Grupo 1112842">
      <path id="Trazado_904835" data-name="Trazado 904835" d="M6.618,8l5,10h-3V38h-4V18h-3Z" fill="#b4dd7f"/>
    </g>
    <g id="Grupo_1112843" data-name="Grupo 1112843">
      <path id="Trazado_904836" data-name="Trazado 904836" d="M44.718,3.9a9.9,9.9,0,0,0-14,0l-.1.1-.1-.1a9.9,9.9,0,0,0-16.9,7v.34a9.89,9.89,0,0,0,2.5,6.57l12.84,14.44a2.212,2.212,0,0,0,3.32,0l12.84-14.44a9.89,9.89,0,0,0,2.5-6.57V10.9a9.861,9.861,0,0,0-2.9-7Z" fill="#ef7385"/>
    </g>
    <g id="Grupo_1112844" data-name="Grupo 1112844">
      <path id="Trazado_904837" data-name="Trazado 904837" d="M38.618,15v4l-1.48.54c-.04.09-.07.19-.11.28l.66,1.42-2.83,2.83-1.42-.66c-.09.04-.19.07-.28.11L32.618,25h-4l-.54-1.48c-.09-.04-.19-.07-.28-.11l-1.42.66-2.83-2.83.66-1.42c-.04-.09-.07-.19-.11-.28L22.618,19V15l1.48-.54c.04-.09.07-.19.11-.28l-.66-1.42,2.83-2.83,1.42.66c.09-.04.19-.07.28-.11L28.618,9h4l.54,1.48c.09.04.19.07.28.11l1.42-.66,2.83,2.83-.66,1.42c.04.09.07.19.11.28Zm-4,2a4,4,0,1,0-4,4A4,4,0,0,0,34.618,17Z" fill="#fcd770"/>
    </g>
  </g>
  <g id="Grupo_1112846" data-name="Grupo 1112846">
    <path id="Trazado_904838" data-name="Trazado 904838" d="M50.282,52.5,48.131,51.07,49.4,46h.219a2,2,0,0,0,2-2V42a2,2,0,0,0-2-2H36.933A6.985,6.985,0,0,0,24.3,40H11.618a2,2,0,0,0-2,2v2a2,2,0,0,0,2,2h.219l1.268,5.07L10.955,52.5A3,3,0,0,0,14.284,57.5l.367-.245.24.961A4.992,4.992,0,0,0,19.741,62H41.495a4.994,4.994,0,0,0,4.851-3.787l.241-.962.366.244A3,3,0,1,0,50.282,52.5Zm-3.918-2.612L40.527,46h6.811ZM49.618,42v2H37.538a6.29,6.29,0,0,0,0-2Zm-19-4a5,5,0,1,1-5,5A5.006,5.006,0,0,1,30.618,38Zm-19,4H23.7a6.29,6.29,0,0,0,0,2H11.618ZM13.9,46H20.71l-5.838,3.892Zm-.726,9.832a1.025,1.025,0,0,1-1.386-.277,1,1,0,0,1,.278-1.387l12.242-8.162a7.016,7.016,0,0,0,1.112,1.663Zm31.232,1.9A3,3,0,0,1,41.5,60H39.618V56h-2v4h-2V54h-2v6h-2V52h-2v8h-2V54h-2v6h-2V56h-2v4H19.741a3,3,0,0,1-2.91-2.272l-.414-1.655L27.029,49a6.933,6.933,0,0,0,7.179,0l10.611,7.074Zm5.045-2.174a1.023,1.023,0,0,1-1.387.277L35.819,47.668a7.013,7.013,0,0,0,1.111-1.663l12.243,8.162a1,1,0,0,1,.277,1.387Z"/>
    <path id="Trazado_904839" data-name="Trazado 904839" d="M30.618,46a3,3,0,1,0-3-3A3,3,0,0,0,30.618,46Zm0-4a1,1,0,1,1-1,1A1,1,0,0,1,30.618,42Z"/>
    <path id="Trazado_904840" data-name="Trazado 904840" d="M55.618,46h2v2h-2Z"/>
    <path id="Trazado_904841" data-name="Trazado 904841" d="M55.618,42h2v2h-2Z"/>
    <path id="Trazado_904842" data-name="Trazado 904842" d="M55.618,50h2v2h-2Z"/>
    <path id="Trazado_904843" data-name="Trazado 904843" d="M7.618,38h2V19h3.618L6.618,5.764,0,19H3.618V40h2V17H3.236l3.382-6.764L10,17H7.618Z"/>
    <path id="Trazado_904844" data-name="Trazado 904844" d="M54.618,5.764,48,19h3.618V38h2V17H51.236l3.382-6.764L58,17H55.618V40h2V19h3.618Z"/>
    <path id="Trazado_904845" data-name="Trazado 904845" d="M3.618,50h2v2h-2Z"/>
    <path id="Trazado_904846" data-name="Trazado 904846" d="M3.618,46h2v2h-2Z"/>
    <path id="Trazado_904847" data-name="Trazado 904847" d="M3.618,42h2v2h-2Z"/>
    <path id="Trazado_904848" data-name="Trazado 904848" d="M28.206,32.917a3.227,3.227,0,0,0,4.824,0L45.865,18.478a10.89,10.89,0,0,0,2.753-7.241V10.9a10.9,10.9,0,0,0-18-8.271,10.9,10.9,0,0,0-18,8.27v.337a10.89,10.89,0,0,0,2.753,7.241ZM14.618,10.9A8.9,8.9,0,0,1,29.811,4.606l.808.808.808-.808A8.9,8.9,0,0,1,46.618,10.9v.337a8.886,8.886,0,0,1-2.248,5.912L31.535,31.588a1.268,1.268,0,0,1-1.834,0L16.866,17.148a8.886,8.886,0,0,1-2.248-5.912Z"/>
    <path id="Trazado_904849" data-name="Trazado 904849" d="M42.618,10.9v.111h2V10.9a6.907,6.907,0,0,0-6.9-6.9V6a4.9,4.9,0,0,1,4.9,4.9Z"/>
    <path id="Trazado_904850" data-name="Trazado 904850" d="M22.344,21.454l3.82,3.82,1.273-.595L27.917,26h5.4l.48-1.321,1.273.595,3.82-3.82-.6-1.273,1.321-.48V14.3L38.3,13.82l.6-1.273-3.82-3.82-1.273.6L33.319,8h-5.4l-.48,1.321-1.273-.6-3.82,3.82.595,1.273-1.321.48v5.4l1.321.48ZM23.618,15.7l.823-.3.448-.214.422-1.019-.561-1.2,1.837-1.837,1.2.562,1.077-.447L29.319,10h2.6l.3.823.212.447,1.019.423,1.2-.562,1.837,1.837-.561,1.2.447,1.079,1.246.453v2.6l-.823.3-.448.214-.422,1.019.561,1.2L34.65,22.87l-1.2-.561-1.079.447L31.917,24h-2.6l-.3-.823-.214-.448-1.019-.422-1.2.561-1.837-1.837.561-1.2-.447-1.079L23.616,18.3V15.7Z"/>
    <path id="Trazado_904851" data-name="Trazado 904851" d="M30.618,22a5,5,0,1,0-5-5A5.006,5.006,0,0,0,30.618,22Zm0-8a3,3,0,1,1-3,3A3,3,0,0,1,30.618,14Z"/>
  </g>
</svg>
