<svg xmlns="http://www.w3.org/2000/svg" width="54.483" height="55.755" viewBox="0 0 54.483 55.755">
  <g id="Grupo_1112849" data-name="Grupo 1112849" transform="translate(-21.592 -16.123)">
    <path id="Trazado_904852" data-name="Trazado 904852" d="M76.075,31.08A14.845,14.845,0,0,1,56.736,45.225L54.93,67.658a4.558,4.558,0,0,1-4.574,4.22H32.5a4.557,4.557,0,0,1-4.573-4.22L25.24,34.3H23.458a1.868,1.868,0,0,1-1.866-1.866V28.8a1.868,1.868,0,0,1,1.866-1.865h1.136c1.28-6.207,8.391-10.811,16.881-10.811a20.8,20.8,0,0,1,10.989,2.99A14.834,14.834,0,0,1,76.075,31.08Z" fill-rule="evenodd"/>
    <path id="Trazado_904853" data-name="Trazado 904853" d="M261.1,56.6a13.358,13.358,0,1,0,0-26.716h0a13.358,13.358,0,0,0,0,26.716Zm4.184-7.818a1.353,1.353,0,1,1,1.353-1.353A1.353,1.353,0,0,1,265.288,48.777Zm-9.722-9.726a1.353,1.353,0,1,1,1.353,1.353A1.353,1.353,0,0,1,255.566,39.051Zm10.05-1.834-7.359,12.746A.961.961,0,1,1,256.592,49l7.359-12.747a.961.961,0,0,1,1.665.962Zm-11.972,1.834a3.276,3.276,0,1,1,3.276,3.275A3.276,3.276,0,0,1,253.644,39.051Zm11.645,5.1a3.276,3.276,0,1,1-3.276,3.276,3.276,3.276,0,0,1,3.276-3.276Z" transform="translate(-199.871 -12.158)" fill="#41ba7d" fill-rule="evenodd"/>
    <path id="Trazado_904854" data-name="Trazado 904854" d="M60.522,38.226H81.387A14.875,14.875,0,0,1,85.652,31.4a19.49,19.49,0,0,0-9.771-2.5,19.146,19.146,0,0,0-10.57,3A10.959,10.959,0,0,0,60.522,38.226Z" transform="translate(-34.406 -11.292)" fill="#e6e6e6" fill-rule="evenodd"/>
    <path id="Trazado_904855" data-name="Trazado 904855" d="M34.746,126.315H57.782a14.91,14.91,0,0,1,.137-4.4H34.746a.387.387,0,0,0-.382.381v3.64A.387.387,0,0,0,34.746,126.315Z" transform="translate(-11.288 -93.496)" fill="#e6e6e6" fill-rule="evenodd"/>
    <path id="Trazado_904856" data-name="Trazado 904856" d="M249.27,293.266h-7.859a11.788,11.788,0,0,1,0,8.21h7.2Z" transform="translate(-194.273 -244.935)" fill="#689ff2" fill-rule="evenodd"/>
    <path id="Trazado_904857" data-name="Trazado 904857" d="M157.952,267.255a3.872,3.872,0,0,0-6.848,0,9.9,9.9,0,0,0,0,10.606,3.871,3.871,0,0,0,6.848,0,9.9,9.9,0,0,0,0-10.606Z" transform="translate(-113.1 -220.122)" fill="#4197e3" fill-rule="evenodd"/>
    <path id="Trazado_904858" data-name="Trazado 904858" d="M82.643,297.371a11.509,11.509,0,0,1,.738-4.1H75.522l.661,8.21h7.2A11.5,11.5,0,0,1,82.643,297.371Z" transform="translate(-47.663 -244.935)" fill="#689ff2" fill-rule="evenodd"/>
    <g id="Grupo_1112848" data-name="Grupo 1112848" transform="translate(26.729 34.304)">
      <path id="Trazado_904859" data-name="Trazado 904859" d="M107.811,376.68h-7.793a5.456,5.456,0,0,1-9.991,0H82.234L83,386.193a3.083,3.083,0,0,0,3.094,2.855h17.856a3.083,3.083,0,0,0,3.094-2.855Z" transform="translate(-80.323 -352.959)" fill="#85beed" fill-rule="evenodd"/>
      <path id="Trazado_904860" data-name="Trazado 904860" d="M94.356,182.94a14.9,14.9,0,0,1-8.546-10.376H65.794l1.01,12.544H75.5a5.456,5.456,0,0,1,9.992,0h8.694Z" transform="translate(-65.794 -172.564)" fill="#85beed" fill-rule="evenodd"/>
    </g>
  </g>
</svg>
