<svg id="Grupo_1112617" data-name="Grupo 1112617" xmlns="http://www.w3.org/2000/svg" width="62" height="62" viewBox="0 0 62 62">
  <g id="Grupo_1112615" data-name="Grupo 1112615">
    <g id="Grupo_1112598" data-name="Grupo 1112598">
      <path id="Trazado_904081" data-name="Trazado 904081" d="M61,5V51a2.006,2.006,0,0,1-2,2H39.46l-2.55-4H57V7H49.47A5.971,5.971,0,0,0,51,3h8A2.006,2.006,0,0,1,61,5Z" fill="#ccd1d9"/>
    </g>
    <g id="Grupo_1112599" data-name="Grupo 1112599">
      <path id="Trazado_904082" data-name="Trazado 904082" d="M40.53,7H33V30.86A3.862,3.862,0,0,0,29.14,27H29V5a2.006,2.006,0,0,1,2-2h8A5.971,5.971,0,0,0,40.53,7Z" fill="#ccd1d9"/>
    </g>
    <g id="Grupo_1112600" data-name="Grupo 1112600">
      <path id="Trazado_904083" data-name="Trazado 904083" d="M33,30.86V7h7.53a6,6,0,0,0,8.94,0H57V49H36.91L35,46V45l-5.57-7.95-.89-1.26,2.65-1.66A3.865,3.865,0,0,0,33,30.86Z" fill="#e6e9ed"/>
    </g>
    <g id="Grupo_1112601" data-name="Grupo 1112601">
      <path id="Trazado_904084" data-name="Trazado 904084" d="M51,1V3A6,6,0,0,1,39,3V1Z" fill="#b4dd7f"/>
    </g>
    <g id="Grupo_1112602" data-name="Grupo 1112602">
      <path id="Trazado_904085" data-name="Trazado 904085" d="M43,58v2a1,1,0,0,1-1,1H36a1,1,0,0,1-1-1V59a2.006,2.006,0,0,1,1.13-1.8A1.952,1.952,0,0,1,37,57h5A1,1,0,0,1,43,58Z" fill="#cf9e76"/>
    </g>
    <g id="Grupo_1112603" data-name="Grupo 1112603">
      <path id="Trazado_904086" data-name="Trazado 904086" d="M23.81,55.08a1.019,1.019,0,0,1,1.32.5l.79,1.78a.954.954,0,0,1-.53,1.27l-5.51,2.29a1.019,1.019,0,0,1-1.32-.5l-.4-.89a1.919,1.919,0,0,1,.51-2.21,2.113,2.113,0,0,1,.54-.33Z" fill="#cf9e76"/>
    </g>
    <g id="Grupo_1112604" data-name="Grupo 1112604">
      <path id="Trazado_904087" data-name="Trazado 904087" d="M28.36,46.82,22,50l-2-7,2-1,7.43-4.95L35,45v1l-4,3H30Z" fill="#d3a06c"/>
    </g>
    <g id="Grupo_1112605" data-name="Grupo 1112605">
      <path id="Trazado_904088" data-name="Trazado 904088" d="M23.89,29.15l2.22,3.17,2.43,3.47.89,1.26L22,42l-4.36-5.6,5.08-3.52A2.952,2.952,0,0,0,24,30.45v-.49a3.1,3.1,0,0,0-.11-.81Z" fill="#fcd770"/>
    </g>
    <g id="Grupo_1112606" data-name="Grupo 1112606">
      <path id="Trazado_904089" data-name="Trazado 904089" d="M22.31,23.69,21,25l-.01.01-1.44-2.05,1-2.03a1.981,1.981,0,0,0,.01-1.79A2.025,2.025,0,0,0,18.74,18H18l-1.6-2.4a2.824,2.824,0,0,0-1.04-.93,2.741,2.741,0,0,0-1.25-.3,2.8,2.8,0,0,0-1.48.43L8.32,17.53a2.7,2.7,0,0,0-1.08,1.29L4.59,20.8A.99.99,0,0,1,3,20.01V17.19A9.2,9.2,0,0,1,12.19,8h3.62a9.192,9.192,0,0,1,6.5,15.69Z" fill="#656d78"/>
    </g>
    <g id="Grupo_1112607" data-name="Grupo 1112607">
      <path id="Trazado_904090" data-name="Trazado 904090" d="M42,56.99V57H37a1.952,1.952,0,0,0-.87.2L31,49l4-3,1.91,3,2.55,4Z" fill="#f0d0b4"/>
    </g>
    <g id="Grupo_1112608" data-name="Grupo 1112608">
      <path id="Trazado_904091" data-name="Trazado 904091" d="M22,50l1.81,5.08-4.6,1.91a2.113,2.113,0,0,0-.54.33l-3.09-6.16a5.48,5.48,0,0,1,2.86-7.54L20,43Z" fill="#f0d0b4"/>
    </g>
    <g id="Grupo_1112609" data-name="Grupo 1112609">
      <path id="Trazado_904092" data-name="Trazado 904092" d="M26.11,32.32l-2.22-3.17a2.978,2.978,0,0,0-.76-1.28l-.36-.31L22.38,27h6.76a3.86,3.86,0,0,1,2.05,7.13l-2.65,1.66Z" fill="#f0d0b4"/>
    </g>
    <g id="Grupo_1112610" data-name="Grupo 1112610">
      <path id="Trazado_904093" data-name="Trazado 904093" d="M10,35l7.7-6.16,1.49-1.19a2.955,2.955,0,0,1,3.58-.09l.36.31a2.978,2.978,0,0,1,.76,1.28,3.1,3.1,0,0,1,.11.81v.49a2.952,2.952,0,0,1-1.28,2.43L17.64,36.4l-5.43,3.76A4.715,4.715,0,0,1,5.6,38.9L2.2,33.81A7.236,7.236,0,0,1,1,29.83,2.834,2.834,0,0,1,3.83,27h.34a2.828,2.828,0,0,1,2,4.83L6,32Z" fill="#f0d0b4"/>
    </g>
    <g id="Grupo_1112611" data-name="Grupo 1112611">
      <path id="Trazado_904094" data-name="Trazado 904094" d="M22.38,27l.39.56a2.955,2.955,0,0,0-3.58.09L17.7,28.84,16,26l-1.2.6a3.86,3.86,0,0,1-1.7.4,3.813,3.813,0,0,1-3.22-1.78l-2.43-3.9a2.747,2.747,0,0,1-.21-2.5,2.7,2.7,0,0,1,1.08-1.29l4.31-2.73a2.8,2.8,0,0,1,1.48-.43,2.741,2.741,0,0,1,1.25.3,2.824,2.824,0,0,1,1.04.93L18,18h.74a2.025,2.025,0,0,1,1.82,1.14,1.981,1.981,0,0,1-.01,1.79l-1,2.03,1.44,2.05Z" fill="#f0d0b4"/>
    </g>
    <g id="Grupo_1112612" data-name="Grupo 1112612">
      <path id="Trazado_904095" data-name="Trazado 904095" d="M45,37h8v8H45Z" fill="#f29ed0"/>
    </g>
    <g id="Grupo_1112613" data-name="Grupo 1112613">
      <path id="Trazado_904096" data-name="Trazado 904096" d="M45,25h8v8H45Z" fill="#f29ed0"/>
    </g>
    <g id="Grupo_1112614" data-name="Grupo 1112614">
      <path id="Trazado_904097" data-name="Trazado 904097" d="M45,13h8v8H45Z" fill="#f29ed0"/>
    </g>
  </g>
  <g id="Grupo_1112616" data-name="Grupo 1112616">
    <circle id="Elipse_14903" data-name="Elipse 14903" cx="1" cy="1" r="1" transform="translate(42 4)"/>
    <circle id="Elipse_14904" data-name="Elipse 14904" cx="1" cy="1" r="1" transform="translate(46 4)"/>
    <path id="Trazado_904098" data-name="Trazado 904098" d="M59,2H52V0H38V2H31a3,3,0,0,0-3,3V26H22.9l-.612-.873.728-.728A10.192,10.192,0,0,0,15.808,7H12.193A10.2,10.2,0,0,0,2,17.192v2.815a2,2,0,0,0,3.194,1.6l.994-.746a3.708,3.708,0,0,0,.418,1l2.432,3.891A4.763,4.763,0,0,0,13.1,28a4.832,4.832,0,0,0,2.146-.506l.37-.185L16.4,28.6,9.98,33.735,7.437,31.828A3.829,3.829,0,0,0,4.172,26H3.828A3.833,3.833,0,0,0,0,29.829,8.146,8.146,0,0,0,1.372,34.36l3.395,5.094a5.72,5.72,0,0,0,8.014,1.529l4.655-3.222,3.026,3.89-.872.436-1.519.607a6.476,6.476,0,0,0-3.387,8.91l2.79,5.581a2.967,2.967,0,0,0-.27.519,2.86,2.86,0,0,0,.047,2.234l.4.887a2.024,2.024,0,0,0,2.612,1.021l5.519-2.293a1.966,1.966,0,0,0,1.084-1.1,1.926,1.926,0,0,0-.031-1.506l-.792-1.774A2,2,0,0,0,24.5,54.031L23.24,50.5l4.825-2.413L29.5,50h.946L34.8,56.972A2.981,2.981,0,0,0,34,59v1a2,2,0,0,0,2,2h6a2,2,0,0,0,2-2V58a2,2,0,0,0-1.38-1.892L41.278,54H59a3,3,0,0,0,3-3V5a3,3,0,0,0-3-3ZM36.58,56.042l-4.246-6.793,2.4-1.8L40.18,56H37a3.064,3.064,0,0,0-.42.042ZM36.186,46H42V44H35.52l-5.556-7.923,1.751-1.1A4.831,4.831,0,0,0,34,30.86V8h6.111a6.976,6.976,0,0,0,9.778,0H56V48H37.459ZM28.375,29.219l-2.063,1.65-1.551-2.211a3.924,3.924,0,0,0-.3-.658h4.68a2.86,2.86,0,0,1,1.515,5.285l-1.841,1.151-1.351-1.927,2.162-1.729ZM40,2H50V3A5,5,0,0,1,40,3ZM31,4h7.08a6.937,6.937,0,0,0,.6,2H32V26.951a4.831,4.831,0,0,0-2-.864V5A1,1,0,0,1,31,4ZM4,20.008V17.193A8.2,8.2,0,0,1,12.192,9h3.615A8.193,8.193,0,0,1,21.6,22.985l-.48.48-.413-.589.742-1.5A3.03,3.03,0,0,0,18.735,17h-.2l-1.3-1.956a3.758,3.758,0,0,0-5.14-1.09L7.78,16.688a3.709,3.709,0,0,0-1.316,1.465Zm12.381,4.683L14.355,25.7a2.795,2.795,0,0,1-3.622-1.018L8.3,20.8a1.763,1.763,0,0,1,.55-2.418l4.312-2.733a1.759,1.759,0,0,1,2.4.51L17.465,19h1.271a1.031,1.031,0,0,1,.924,1.488l-1.271,2.563,2.1,3a3.975,3.975,0,0,0-1.925.821l-.592.474ZM11.643,39.338a3.72,3.72,0,0,1-5.213-.994L3.036,33.25A6.145,6.145,0,0,1,2,29.829,1.83,1.83,0,0,1,3.828,28h.344a1.829,1.829,0,0,1,1.294,3.121l-.989.987L9,35.5V38h2V35.48l8.813-7.05A1.961,1.961,0,0,1,23,29.961v.487a1.959,1.959,0,0,1-.845,1.613Zm11.651-5.632a3.961,3.961,0,0,0,1.378-1.694l3.347,4.774-5.8,3.867-3.136-4.032ZM16,48.708a4.455,4.455,0,0,1,2.813-4.156l.529-.212,1.22,4.27-2.32-.58-.484,1.94,3.479.87,1.31,3.68-3.452,1.434-2.623-5.245a4.5,4.5,0,0,1-.472-2Zm3.474,11.3-.4-.887a.866.866,0,0,1-.015-.679.963.963,0,0,1,.532-.529l4.618-1.921.77,1.725Zm8.7-15.113.724-1.447-1.789-.9L25.83,45.106l1.016,1.354-4.214,2.107-1.441-5.043,1.258-.629,6.72-4.472L34,45.315V45.5L30.667,48H30.5ZM36,60V59a1,1,0,0,1,1-1h5v2Zm24-9a1,1,0,0,1-1,1H40l-1.273-2H58V6H51.315a6.906,6.906,0,0,0,.6-2H59a1,1,0,0,1,1,1Z"/>
    <path id="Trazado_904099" data-name="Trazado 904099" d="M44,22H54V12H44Zm2-8h6v6H46Z"/>
    <path id="Trazado_904100" data-name="Trazado 904100" d="M36,12h6v2H36Z"/>
    <path id="Trazado_904101" data-name="Trazado 904101" d="M36,16h6v2H36Z"/>
    <path id="Trazado_904102" data-name="Trazado 904102" d="M36,20h6v2H36Z"/>
    <path id="Trazado_904103" data-name="Trazado 904103" d="M46.172,16h5.657v2H46.172Z" transform="translate(2.331 39.627) rotate(-45)"/>
    <path id="Trazado_904104" data-name="Trazado 904104" d="M44,34H54V24H44Zm2-8h6v6H46Z"/>
    <path id="Trazado_904105" data-name="Trazado 904105" d="M36,24h6v2H36Z"/>
    <path id="Trazado_904106" data-name="Trazado 904106" d="M36,28h6v2H36Z"/>
    <path id="Trazado_904107" data-name="Trazado 904107" d="M36,32h6v2H36Z"/>
    <path id="Trazado_904108" data-name="Trazado 904108" d="M46.172,28h5.657v2H46.172Z" transform="translate(-6.154 43.142) rotate(-45)"/>
    <path id="Trazado_904109" data-name="Trazado 904109" d="M44,46H54V36H44Zm2-8h6v6H46Z"/>
    <path id="Trazado_904110" data-name="Trazado 904110" d="M36,36h6v2H36Z"/>
    <path id="Trazado_904111" data-name="Trazado 904111" d="M36,40h6v2H36Z"/>
    <path id="Trazado_904112" data-name="Trazado 904112" d="M46.172,40h5.657v2H46.172Z" transform="translate(-14.64 46.657) rotate(-45)"/>
  </g>
</svg>
