<svg xmlns="http://www.w3.org/2000/svg" width="53.983" height="53.983" viewBox="0 0 53.983 53.983">
  <g id="Grupo_1112619" data-name="Grupo 1112619" transform="translate(-16 -15.985)">
    <path id="Trazado_904113" data-name="Trazado 904113" d="M25.8,72H65.386a1.8,1.8,0,0,1,1.8,1.8V81H24V73.8A1.8,1.8,0,0,1,25.8,72Z" transform="translate(-7.1 -49.715)" fill="#b0bb74"/>
    <path id="Trazado_904114" data-name="Trazado 904114" d="M24,136H67.185v32.389H24Z" transform="translate(-7.1 -106.518)" fill="#fae8d8"/>
    <path id="Trazado_904115" data-name="Trazado 904115" d="M24,136H67.185v32.389H24Z" transform="translate(-7.1 -106.518)" fill="#fae8d8"/>
    <g id="Grupo_1112618" data-name="Grupo 1112618" transform="translate(16.9 16.886)">
      <path id="Trazado_904116" data-name="Trazado 904116" d="M24,136h3.6v3.6H24Z" transform="translate(-24 -123.404)" fill="#fc9495"/>
      <path id="Trazado_904117" data-name="Trazado 904117" d="M24,232h3.6v3.6H24Z" transform="translate(-24 -208.608)" fill="#fc9495"/>
      <path id="Trazado_904118" data-name="Trazado 904118" d="M120,232h3.6v3.6H120Z" transform="translate(-109.204 -208.608)" fill="#fc9495"/>
      <path id="Trazado_904119" data-name="Trazado 904119" d="M216,232h3.6v3.6H216Z" transform="translate(-194.407 -208.608)" fill="#fc9495"/>
      <path id="Trazado_904120" data-name="Trazado 904120" d="M24,328h3.6v3.6H24Z" transform="translate(-24 -293.812)" fill="#fc9495"/>
      <path id="Trazado_904121" data-name="Trazado 904121" d="M120,328h3.6v3.6H120Z" transform="translate(-109.204 -293.812)" fill="#fc9495"/>
      <path id="Trazado_904122" data-name="Trazado 904122" d="M216,328h3.6v3.6H216Z" transform="translate(-194.407 -293.812)" fill="#fc9495"/>
      <path id="Trazado_904123" data-name="Trazado 904123" d="M312,328h3.6v3.6H312Z" transform="translate(-279.611 -293.812)" fill="#fc9495"/>
      <path id="Trazado_904124" data-name="Trazado 904124" d="M312,232h3.6v3.6H312Z" transform="translate(-279.611 -208.608)" fill="#fc9495"/>
      <path id="Trazado_904125" data-name="Trazado 904125" d="M120,136h3.6v3.6H120Z" transform="translate(-109.204 -123.404)" fill="#fc9495"/>
      <path id="Trazado_904126" data-name="Trazado 904126" d="M216,136h3.6v3.6H216Z" transform="translate(-194.407 -123.404)" fill="#fc9495"/>
      <path id="Trazado_904127" data-name="Trazado 904127" d="M312,136h3.6v3.6H312Z" transform="translate(-279.611 -123.404)" fill="#fc9495"/>
      <circle id="Elipse_14905" data-name="Elipse 14905" cx="8.997" cy="8.997" r="8.997" transform="translate(34.188)" fill="#fc9495"/>
    </g>
    <path id="Trazado_904128" data-name="Trazado 904128" d="M261.593,392.9v5.4h-2.7l-1.591.53a7.2,7.2,0,0,1-2.276.369h-8.46a7.2,7.2,0,0,1-2.276-.369l-1.591-.53H240v-5.4h2.7l1.591-.53a7.2,7.2,0,0,1,2.276-.369h8.46a7.2,7.2,0,0,1,2.276.369l1.591.53Z" transform="translate(-198.809 -333.728)" fill="#7da1bb"/>
    <rect id="Rect치ngulo_405222" data-name="Rect치ngulo 405222" width="8.997" height="14.395" rx="4.498" transform="translate(34.893 54.673)" fill="#9ac6e5"/>
    <rect id="Rect치ngulo_405223" data-name="Rect치ngulo 405223" width="8.997" height="14.395" rx="4.498" transform="translate(60.085 54.673)" fill="#9ac6e5"/>
    <path id="Trazado_904129" data-name="Trazado 904129" d="M400.9,55.2h3.6a.9.9,0,1,0,0-1.8h-2.7V48.9a.9.9,0,1,0-1.8,0v5.4A.9.9,0,0,0,400.9,55.2Z" transform="translate(-340.815 -28.415)"/>
    <path id="Trazado_904130" data-name="Trazado 904130" d="M67.282,53.774h-5.4a2.686,2.686,0,0,0-.9.155V35.739a9.9,9.9,0,1,0-9.714-14.354H50.1a4.5,4.5,0,0,0-8.814,0H39.3a4.5,4.5,0,0,0-8.813,0H28.5a4.5,4.5,0,0,0-8.813,0H18.7a2.7,2.7,0,0,0-2.7,2.7V61.871a.9.9,0,0,0,.9.9H33.994v4.5a2.7,2.7,0,0,0,2.7,2.7h5.4a2.7,2.7,0,0,0,2.7-2.7V65.818l.408.136a8.093,8.093,0,0,0,2.56.415h8.459a8.093,8.093,0,0,0,2.561-.415l.407-.136v1.451a2.7,2.7,0,0,0,2.7,2.7h5.4a2.7,2.7,0,0,0,2.7-2.7v-10.8A2.7,2.7,0,0,0,67.282,53.774Zm-8.1,4.15-.408-.136a8.093,8.093,0,0,0-2.56-.415H50.188v-1.8h2.7a.9.9,0,0,0,.9-.9v-2.7h5.4Zm-16.194-4V51.974h5.4v5.4h-.631a8.093,8.093,0,0,0-2.561.415l-.407.136V56.473a2.7,2.7,0,0,0-1.8-2.544ZM28.6,51.974h1.8v1.8H28.6Zm0-1.8v-5.4h2.7a.9.9,0,0,0,.9-.9v-2.7h5.4v9ZM17.8,33.981h2.7a.9.9,0,0,0,.9-.9v-2.7h5.4v9h-9Zm0-1.8v-1.8h1.8v1.8Zm34.188-.614v.614h-1.8v-1.8h1.083A9.914,9.914,0,0,0,51.988,31.567Zm7.2,18.608h-9v-5.4h2.7a.9.9,0,0,0,.9-.9v-2.7h5.4Zm-9,1.8h1.8v1.8h-1.8Zm0-10.8h1.8v1.8h-1.8Zm9-1.8h-9v-5.4h2.7a.9.9,0,0,0,.822-.535,9.854,9.854,0,0,0,5.476,2.293Zm-10.8,0h-9v-5.4h2.7a.9.9,0,0,0,.9-.9v-2.7h5.4Zm-9,1.8h1.8v1.8h-1.8Zm1.8-9h-1.8v-1.8h1.8Zm-3.6,7.2h-9v-5.4h2.7a.9.9,0,0,0,.9-.9v-2.7h5.4Zm-9,1.8h1.8v1.8H28.6Zm1.8-9H28.6v-1.8h1.8Zm-12.6,9h1.8v1.8H17.8Zm0,10.8h1.8v1.8H17.8Zm0-1.8v-5.4h2.7a.9.9,0,0,0,.9-.9v-2.7h5.4v9Zm21.593-5.4h2.7a.9.9,0,0,0,.9-.9v-2.7h5.4v9h-9Zm1.8,7.2v1.8h-1.8v-1.8ZM60.085,17.786a8.1,8.1,0,1,1-8.1,8.1A8.1,8.1,0,0,1,60.085,17.786Zm-14.4,1.8a2.7,2.7,0,0,1,2.544,1.8H43.146A2.7,2.7,0,0,1,45.69,19.585Zm-10.8,0a2.7,2.7,0,0,1,2.543,1.8H32.35A2.7,2.7,0,0,1,34.893,19.585Zm-10.8,0a2.7,2.7,0,0,1,2.544,1.8H21.552A2.7,2.7,0,0,1,24.1,19.585Zm-5.4,3.6h.99a4.505,4.505,0,0,0,4.408,3.6.9.9,0,0,0,0-1.8,2.7,2.7,0,0,1-2.544-1.8h8.933a4.505,4.505,0,0,0,4.408,3.6.9.9,0,0,0,0-1.8,2.7,2.7,0,0,1-2.544-1.8h8.933a4.505,4.505,0,0,0,4.408,3.6.9.9,0,0,0,0-1.8,2.7,2.7,0,0,1-2.544-1.8h7.417a9.922,9.922,0,0,0,0,5.4H17.8v-4.5a.9.9,0,0,1,.9-.9Zm-.9,32.389h2.7a.9.9,0,0,0,.9-.9v-2.7h5.4v9h-9Zm10.8,5.4v-5.4h2.7a.9.9,0,0,0,.9-.9v-2.7h5.4v1.8h-.9a2.7,2.7,0,0,0-2.7,2.7v4.5Zm14.4,6.3a.9.9,0,0,1-.9.9h-5.4a.9.9,0,0,1-.9-.9v-10.8a.9.9,0,0,1,.9-.9h5.4a.9.9,0,0,1,.9.9Zm15.219-3.022a6.3,6.3,0,0,1-1.992.323H47.758a6.3,6.3,0,0,1-1.991-.323l-.976-.326v-4.1l.976-.325a6.294,6.294,0,0,1,1.992-.322h8.459a6.3,6.3,0,0,1,1.991.323l.976.326v4.1Zm9.973,3.022a.9.9,0,0,1-.9.9h-5.4a.9.9,0,0,1-.9-.9v-10.8a.9.9,0,0,1,.9-.9h5.4a.9.9,0,0,1,.9.9Z"/>
  </g>
</svg>
