<svg xmlns="http://www.w3.org/2000/svg" width="56.898" height="56.899" viewBox="0 0 56.898 56.899">
  <g id="Grupo_1112852" data-name="Grupo 1112852" transform="translate(-6.498 -6.5)">
    <g id="Grupo_1112850" data-name="Grupo 1112850" transform="translate(7.497 7.5)">
      <path id="Trazado_904861" data-name="Trazado 904861" d="M115.329,331.387h-8.993a1.433,1.433,0,0,1-1.433-1.433V320.79a2.719,2.719,0,0,1,2.719-2.719h6.423a2.719,2.719,0,0,1,2.719,2.719v9.163A1.433,1.433,0,0,1,115.329,331.387Z" transform="translate(-94.143 -283.766)" fill="#fe646f"/>
      <path id="Trazado_904862" data-name="Trazado 904862" d="M163.694,320.792v9.163a1.434,1.434,0,0,1-1.434,1.434h-3.314a1.434,1.434,0,0,0,1.434-1.434v-9.163a2.719,2.719,0,0,0-2.718-2.718h3.314A2.719,2.719,0,0,1,163.694,320.792Z" transform="translate(-141.075 -283.768)" fill="#fd4755"/>
      <path id="Trazado_904863" data-name="Trazado 904863" d="M310.15,331.387h-8.993a1.433,1.433,0,0,1-1.433-1.433V320.79a2.719,2.719,0,0,1,2.719-2.719h6.423a2.719,2.719,0,0,1,2.719,2.719v9.163A1.433,1.433,0,0,1,310.15,331.387Z" transform="translate(-267.444 -283.766)" fill="#60b7ff"/>
      <path id="Trazado_904864" data-name="Trazado 904864" d="M358.515,320.792v9.163a1.434,1.434,0,0,1-1.434,1.434h-3.314a1.434,1.434,0,0,0,1.434-1.434v-9.163a2.719,2.719,0,0,0-2.718-2.718H355.8A2.719,2.719,0,0,1,358.515,320.792Z" transform="translate(-314.376 -283.768)" fill="#26a6fe"/>
      <path id="Trazado_904865" data-name="Trazado 904865" d="M128.425,10.139V23.4a2.639,2.639,0,0,0,2.639,2.639h6.551a2.69,2.69,0,0,1,2.513,1.73l1.8,4.7a.632.632,0,0,0,1.18,0l1.8-4.7a2.691,2.691,0,0,1,2.513-1.73h6.555a2.639,2.639,0,0,0,2.639-2.639V10.139A2.639,2.639,0,0,0,153.972,7.5H131.064A2.639,2.639,0,0,0,128.425,10.139Z" transform="translate(-115.067 -7.5)" fill="#dcf5f8"/>
      <path id="Trazado_904866" data-name="Trazado 904866" d="M335.65,10.139V23.4a2.638,2.638,0,0,1-2.639,2.639H329.7a2.638,2.638,0,0,0,2.639-2.639V10.139A2.639,2.639,0,0,0,329.7,7.5h3.314A2.639,2.639,0,0,1,335.65,10.139Z" transform="translate(-294.107 -7.5)" fill="#c2eef2"/>
      <path id="Trazado_904867" data-name="Trazado 904867" d="M206.448,38.645h-2.919a.506.506,0,0,1-.506-.506V35.174a1.657,1.657,0,0,0-1.657-1.657h0a1.657,1.657,0,0,0-1.657,1.657v2.966a.506.506,0,0,1-.506.506h-2.919a1.688,1.688,0,0,0-1.7,1.577,1.657,1.657,0,0,0,1.655,1.737H199.2a.506.506,0,0,1,.506.506v2.966a1.657,1.657,0,0,0,1.657,1.657h0a1.657,1.657,0,0,0,1.657-1.657V42.465a.506.506,0,0,1,.506-.506h2.966a1.657,1.657,0,0,0,1.655-1.737A1.688,1.688,0,0,0,206.448,38.645Z" transform="translate(-173.916 -30.643)" fill="#fe646f"/>
      <path id="Trazado_904868" data-name="Trazado 904868" d="M425.129,288.807v1.365a3.642,3.642,0,0,1-5.3,3.243h0a3.637,3.637,0,0,1-1.985-3.242v-1.365a3.119,3.119,0,0,1,2.473-3.051,3.178,3.178,0,0,1,.645-.066h1.046A3.117,3.117,0,0,1,425.129,288.807Z" transform="translate(-372.52 -254.961)" fill="#ffdfcf"/>
      <path id="Trazado_904869" data-name="Trazado 904869" d="M441.114,288.807v1.365a3.642,3.642,0,0,1-5.3,3.243h0a3.638,3.638,0,0,0,1.983-3.242V287.7a2.009,2.009,0,0,0-1.495-1.943,3.178,3.178,0,0,1,.645-.066H438A3.117,3.117,0,0,1,441.114,288.807Z" transform="translate(-388.505 -254.961)" fill="#ffcebf"/>
      <path id="Trazado_904870" data-name="Trazado 904870" d="M407.555,397.273h-8.993a1.433,1.433,0,0,1-1.433-1.433v-9.163a2.719,2.719,0,0,1,2.719-2.719h6.423a2.719,2.719,0,0,1,2.719,2.719v9.163A1.433,1.433,0,0,1,407.555,397.273Z" transform="translate(-354.089 -342.374)" fill="#fe646f"/>
      <path id="Trazado_904871" data-name="Trazado 904871" d="M455.919,386.678v9.163a1.434,1.434,0,0,1-1.434,1.434h-3.314a1.434,1.434,0,0,0,1.434-1.434v-9.163a2.719,2.719,0,0,0-2.718-2.718H453.2A2.719,2.719,0,0,1,455.919,386.678Z" transform="translate(-401.021 -342.376)" fill="#fd4755"/>
      <path id="Trazado_904872" data-name="Trazado 904872" d="M212.745,397.272h-8.993a1.433,1.433,0,0,1-1.433-1.433v-9.163a2.719,2.719,0,0,1,2.719-2.719h6.423a2.719,2.719,0,0,1,2.719,2.719v9.163A1.433,1.433,0,0,1,212.745,397.272Z" transform="translate(-180.798 -342.374)" fill="#dcf5f8"/>
      <path id="Trazado_904873" data-name="Trazado 904873" d="M261.11,386.677v9.163a1.434,1.434,0,0,1-1.434,1.434h-3.314a1.434,1.434,0,0,0,1.434-1.434v-9.163a2.719,2.719,0,0,0-2.718-2.718h3.314A2.719,2.719,0,0,1,261.11,386.677Z" transform="translate(-227.73 -342.375)" fill="#c2eef2"/>
      <path id="Trazado_904874" data-name="Trazado 904874" d="M17.924,397.272H8.93A1.433,1.433,0,0,1,7.5,395.839v-9.163a2.719,2.719,0,0,1,2.719-2.719h6.423a2.719,2.719,0,0,1,2.719,2.719v9.163A1.433,1.433,0,0,1,17.924,397.272Z" transform="translate(-7.497 -342.374)" fill="#dcf5f8"/>
      <path id="Trazado_904875" data-name="Trazado 904875" d="M66.289,386.677v9.163a1.434,1.434,0,0,1-1.434,1.434H61.542a1.434,1.434,0,0,0,1.434-1.434v-9.163a2.719,2.719,0,0,0-2.718-2.718h3.314A2.719,2.719,0,0,1,66.289,386.677Z" transform="translate(-54.429 -342.375)" fill="#c2eef2"/>
      <path id="Trazado_904876" data-name="Trazado 904876" d="M230.322,288.81v1.365a3.642,3.642,0,0,1-5.3,3.243h0a3.637,3.637,0,0,1-1.985-3.242V288.81a3.119,3.119,0,0,1,2.473-3.051,3.178,3.178,0,0,1,.645-.066H227.2A3.117,3.117,0,0,1,230.322,288.81Z" transform="translate(-199.231 -254.964)" fill="#ffdfcf"/>
      <path id="Trazado_904877" data-name="Trazado 904877" d="M246.307,288.81v1.365a3.642,3.642,0,0,1-5.3,3.243h0a3.638,3.638,0,0,0,1.983-3.242V287.7a2.009,2.009,0,0,0-1.495-1.943,3.178,3.178,0,0,1,.645-.066h1.046A3.117,3.117,0,0,1,246.307,288.81Z" transform="translate(-215.216 -254.964)" fill="#ffcebf"/>
      <path id="Trazado_904878" data-name="Trazado 904878" d="M132.906,222.925v1.365a3.642,3.642,0,0,1-5.3,3.243h0a3.637,3.637,0,0,1-1.985-3.242v-1.365a3.119,3.119,0,0,1,2.473-3.051,3.178,3.178,0,0,1,.645-.066h1.046A3.117,3.117,0,0,1,132.906,222.925Z" transform="translate(-112.576 -196.356)" fill="#ffdfcf"/>
      <path id="Trazado_904879" data-name="Trazado 904879" d="M148.891,222.925v1.365a3.642,3.642,0,0,1-5.3,3.243h0a3.638,3.638,0,0,0,1.983-3.242v-2.473a2.009,2.009,0,0,0-1.495-1.943,3.178,3.178,0,0,1,.645-.066h1.046A3.117,3.117,0,0,1,148.891,222.925Z" transform="translate(-128.561 -196.356)" fill="#ffcebf"/>
      <path id="Trazado_904880" data-name="Trazado 904880" d="M35.506,288.81v1.365a3.642,3.642,0,0,1-5.3,3.243h0a3.637,3.637,0,0,1-1.985-3.242V288.81a3.119,3.119,0,0,1,2.473-3.051,3.178,3.178,0,0,1,.645-.066h1.046A3.117,3.117,0,0,1,35.506,288.81Z" transform="translate(-25.934 -254.964)" fill="#d77f4a"/>
      <path id="Trazado_904881" data-name="Trazado 904881" d="M51.491,288.81v1.365a3.642,3.642,0,0,1-5.3,3.243h0a3.638,3.638,0,0,0,1.983-3.242V287.7a2.009,2.009,0,0,0-1.495-1.943,3.178,3.178,0,0,1,.645-.066h1.046A3.117,3.117,0,0,1,51.491,288.81Z" transform="translate(-41.92 -254.964)" fill="#c86d36"/>
      <path id="Trazado_904882" data-name="Trazado 904882" d="M327.727,222.925v1.365a3.642,3.642,0,0,1-5.3,3.243h0a3.637,3.637,0,0,1-1.985-3.242v-1.365a3.119,3.119,0,0,1,2.473-3.051,3.178,3.178,0,0,1,.645-.066h1.046A3.117,3.117,0,0,1,327.727,222.925Z" transform="translate(-285.877 -196.356)" fill="#d77f4a"/>
      <path id="Trazado_904883" data-name="Trazado 904883" d="M343.712,222.925v1.365a3.642,3.642,0,0,1-5.3,3.243h0a3.638,3.638,0,0,0,1.983-3.242v-2.473a2.009,2.009,0,0,0-1.495-1.943,3.178,3.178,0,0,1,.645-.066h1.046A3.117,3.117,0,0,1,343.712,222.925Z" transform="translate(-301.862 -196.356)" fill="#c86d36"/>
    </g>
    <g id="Grupo_1112851" data-name="Grupo 1112851" transform="translate(7.498 7.5)">
      <path id="Trazado_904884" data-name="Trazado 904884" d="M212.745,397.273h-8.993a1.433,1.433,0,0,1-1.433-1.433v-9.163a2.719,2.719,0,0,1,2.719-2.719h6.423a2.719,2.719,0,0,1,2.719,2.719v9.163A1.433,1.433,0,0,1,212.745,397.273Z" transform="translate(-180.799 -342.374)" fill="none" stroke="#000" stroke-linecap="round" stroke-linejoin="round" stroke-miterlimit="10" stroke-width="2"/>
      <path id="Trazado_904885" data-name="Trazado 904885" d="M407.555,397.273h-8.993a1.433,1.433,0,0,1-1.433-1.433v-9.163a2.719,2.719,0,0,1,2.719-2.719h6.423a2.719,2.719,0,0,1,2.719,2.719v9.163A1.433,1.433,0,0,1,407.555,397.273Z" transform="translate(-354.09 -342.374)" fill="none" stroke="#000" stroke-linecap="round" stroke-linejoin="round" stroke-miterlimit="10" stroke-width="2"/>
      <path id="Trazado_904886" data-name="Trazado 904886" d="M299.723,325.885v-5.093a2.719,2.719,0,0,1,2.719-2.719h6.423a2.719,2.719,0,0,1,2.719,2.719v5.093" transform="translate(-267.444 -283.768)" fill="none" stroke="#000" stroke-linecap="round" stroke-linejoin="round" stroke-miterlimit="10" stroke-width="2"/>
      <path id="Trazado_904887" data-name="Trazado 904887" d="M349.779,438.264a1.436,1.436,0,0,1-.333.039H343.9" transform="translate(-306.741 -390.682)" fill="none" stroke="#000" stroke-linecap="round" stroke-linejoin="round" stroke-miterlimit="10" stroke-width="2"/>
      <path id="Trazado_904888" data-name="Trazado 904888" d="M104.9,325.885v-5.093a2.719,2.719,0,0,1,2.719-2.719h6.423a2.719,2.719,0,0,1,2.719,2.719v5.093" transform="translate(-94.143 -283.767)" fill="none" stroke="#000" stroke-linecap="round" stroke-linejoin="round" stroke-miterlimit="10" stroke-width="2"/>
      <path id="Trazado_904889" data-name="Trazado 904889" d="M124.527,438.261a1.44,1.44,0,0,1-.334.039H115.2a1.44,1.44,0,0,1-.333-.039" transform="translate(-103.007 -390.679)" fill="none" stroke="#000" stroke-linecap="round" stroke-linejoin="round" stroke-miterlimit="10" stroke-width="2"/>
      <path id="Trazado_904890" data-name="Trazado 904890" d="M128.425,21.411V23.4a2.639,2.639,0,0,0,2.639,2.639h6.551a2.69,2.69,0,0,1,2.513,1.73l1.8,4.7a.632.632,0,0,0,1.18,0l1.8-4.7a2.691,2.691,0,0,1,2.513-1.73h6.555a2.639,2.639,0,0,0,2.639-2.639V10.139A2.639,2.639,0,0,0,153.972,7.5H131.064a2.639,2.639,0,0,0-2.639,2.639v7.415" transform="translate(-115.068 -7.5)" fill="none" stroke="#000" stroke-linecap="round" stroke-linejoin="round" stroke-miterlimit="10" stroke-width="2"/>
      <path id="Trazado_904891" data-name="Trazado 904891" d="M206.448,38.645h-2.919a.506.506,0,0,1-.506-.506V35.174a1.657,1.657,0,0,0-1.657-1.657h0a1.657,1.657,0,0,0-1.657,1.657v2.966a.506.506,0,0,1-.506.506h-2.919a1.688,1.688,0,0,0-1.7,1.577,1.657,1.657,0,0,0,1.655,1.737H199.2a.506.506,0,0,1,.506.506v2.966a1.657,1.657,0,0,0,1.657,1.657h0a1.657,1.657,0,0,0,1.657-1.657V42.465a.506.506,0,0,1,.506-.506h2.966a1.657,1.657,0,0,0,1.655-1.737A1.688,1.688,0,0,0,206.448,38.645Z" transform="translate(-173.916 -30.643)" fill="none" stroke="#000" stroke-linecap="round" stroke-linejoin="round" stroke-miterlimit="10" stroke-width="2"/>
      <path id="Trazado_904892" data-name="Trazado 904892" d="M9.35,397.273H8.935A1.433,1.433,0,0,1,7.5,395.84v-9.163a2.719,2.719,0,0,1,2.719-2.719h6.423a2.719,2.719,0,0,1,2.719,2.719v9.163a1.433,1.433,0,0,1-1.433,1.433h-4.6" transform="translate(-7.502 -342.374)" fill="none" stroke="#000" stroke-linecap="round" stroke-linejoin="round" stroke-miterlimit="10" stroke-width="2"/>
      <path id="Trazado_904893" data-name="Trazado 904893" d="M425.129,288.807v1.365a3.642,3.642,0,0,1-5.3,3.243h0a3.637,3.637,0,0,1-1.985-3.242v-1.365a3.119,3.119,0,0,1,2.473-3.051,3.178,3.178,0,0,1,.645-.066h1.046A3.117,3.117,0,0,1,425.129,288.807Z" transform="translate(-372.52 -254.961)" fill="none" stroke="#000" stroke-linecap="round" stroke-linejoin="round" stroke-miterlimit="10" stroke-width="2"/>
      <path id="Trazado_904894" data-name="Trazado 904894" d="M230.322,288.81v1.365a3.642,3.642,0,0,1-5.3,3.243h0a3.637,3.637,0,0,1-1.985-3.242V288.81a3.119,3.119,0,0,1,2.473-3.051,3.178,3.178,0,0,1,.645-.066H227.2A3.117,3.117,0,0,1,230.322,288.81Z" transform="translate(-199.232 -254.964)" fill="none" stroke="#000" stroke-linecap="round" stroke-linejoin="round" stroke-miterlimit="10" stroke-width="2"/>
      <path id="Trazado_904895" data-name="Trazado 904895" d="M132.906,222.925v1.365a3.642,3.642,0,0,1-5.3,3.243h0a3.637,3.637,0,0,1-1.985-3.242v-1.365a3.119,3.119,0,0,1,2.473-3.051,3.178,3.178,0,0,1,.645-.066h1.046A3.117,3.117,0,0,1,132.906,222.925Z" transform="translate(-112.576 -196.356)" fill="none" stroke="#000" stroke-linecap="round" stroke-linejoin="round" stroke-miterlimit="10" stroke-width="2"/>
      <path id="Trazado_904896" data-name="Trazado 904896" d="M35.506,288.81v1.365a3.642,3.642,0,0,1-5.3,3.243h0a3.637,3.637,0,0,1-1.985-3.242V288.81a3.119,3.119,0,0,1,2.473-3.051,3.178,3.178,0,0,1,.645-.066h1.046A3.117,3.117,0,0,1,35.506,288.81Z" transform="translate(-25.935 -254.964)" fill="none" stroke="#000" stroke-linecap="round" stroke-linejoin="round" stroke-miterlimit="10" stroke-width="2"/>
      <path id="Trazado_904897" data-name="Trazado 904897" d="M327.727,222.925v1.365a3.642,3.642,0,0,1-5.3,3.243h0a3.637,3.637,0,0,1-1.985-3.242v-1.365a3.119,3.119,0,0,1,2.473-3.051,3.178,3.178,0,0,1,.645-.066h1.046A3.117,3.117,0,0,1,327.727,222.925Z" transform="translate(-285.877 -196.356)" fill="none" stroke="#000" stroke-linecap="round" stroke-linejoin="round" stroke-miterlimit="10" stroke-width="2"/>
    </g>
  </g>
</svg>
