<svg id="Layer_51" xmlns="http://www.w3.org/2000/svg" width="66" height="66" viewBox="0 0 66 66">
  <g id="Grupo_1112683" data-name="Grupo 1112683">
    <g id="Grupo_1112620" data-name="Grupo 1112620" transform="translate(24.428 0.645)">
      <circle id="Elipse_14906" data-name="Elipse 14906" cx="8.572" cy="8.572" r="8.572" fill="#fc657e"/>
    </g>
    <g id="Grupo_1112621" data-name="Grupo 1112621" transform="translate(48.211 15.34)">
      <circle id="Elipse_14907" data-name="Elipse 14907" cx="8.572" cy="8.572" r="8.572" fill="#70d6f9"/>
    </g>
    <g id="Grupo_1112622" data-name="Grupo 1112622" transform="translate(0.645 15.34)">
      <circle id="Elipse_14908" data-name="Elipse 14908" cx="8.572" cy="8.572" r="8.572" fill="#fca265"/>
    </g>
    <g id="Grupo_1112623" data-name="Grupo 1112623" transform="translate(52.081 19.594)">
      <path id="Trazado_904131" data-name="Trazado 904131" d="M210.195,76h-7.216a.969.969,0,0,0-.966.966v5.8a.969.969,0,0,0,.966.966h3.756a.559.559,0,0,1,.559.559v1.329a.252.252,0,0,0,.448.158l1.479-1.838a.56.56,0,0,1,.435-.209h.539a.969.969,0,0,0,.966-.966v-5.8A.969.969,0,0,0,210.195,76Z" transform="translate(-202.013 -76)" fill="#dae6f1"/>
    </g>
    <g id="Grupo_1112624" data-name="Grupo 1112624" transform="translate(27.494 6.298)">
      <path id="Trazado_904132" data-name="Trazado 904132" d="M108.723,30.4h-1.288a.792.792,0,0,1-.793-.793V25.222a.792.792,0,0,1,.793-.793h1.288a.792.792,0,0,1,.793.793V29.6A.792.792,0,0,1,108.723,30.4Z" transform="translate(-106.643 -24.429)" fill="#5290db"/>
    </g>
    <g id="Grupo_1112625" data-name="Grupo 1112625" transform="translate(35.634 6.298)">
      <path id="Trazado_904133" data-name="Trazado 904133" d="M140.3,30.4h-1.288a.792.792,0,0,1-.793-.793V25.222a.792.792,0,0,1,.793-.793H140.3a.792.792,0,0,1,.793.793V29.6A.792.792,0,0,1,140.3,30.4Z" transform="translate(-138.215 -24.429)" fill="#5290db"/>
    </g>
    <g id="Grupo_1112627" data-name="Grupo 1112627" transform="translate(30.367 7.845)">
      <g id="Grupo_1112626" data-name="Grupo 1112626">
        <path id="Trazado_904134" data-name="Trazado 904134" d="M117.786,30.428h5.267V33.3h-5.267Z" transform="translate(-117.786 -30.428)" fill="#5290db"/>
      </g>
    </g>
    <g id="Grupo_1112628" data-name="Grupo 1112628" transform="translate(5.35 19.014)">
      <path id="Trazado_904135" data-name="Trazado 904135" d="M24.487,73.75H21.653a.9.9,0,0,0-.9.9v7.99a.9.9,0,0,0,.9.9h5.927a.9.9,0,0,0,.9-.9v-4.9Z" transform="translate(-20.75 -73.75)" fill="#fcdd86"/>
    </g>
    <g id="Grupo_1112629" data-name="Grupo 1112629" transform="translate(9.086 19.014)">
      <path id="Trazado_904136" data-name="Trazado 904136" d="M36.147,77.748h3.094l-4-4v3.094A.9.9,0,0,0,36.147,77.748Z" transform="translate(-35.244 -73.75)" fill="#f9e8bd"/>
    </g>
    <g id="Grupo_1112632" data-name="Grupo 1112632" transform="translate(14.038 6.187)">
      <g id="Grupo_1112631" data-name="Grupo 1112631">
        <g id="Grupo_1112630" data-name="Grupo 1112630">
          <path id="Trazado_904137" data-name="Trazado 904137" d="M59.181,26.282a2.861,2.861,0,0,1-2.295-2.243c0-.052-.1-.052-.1,0a2.861,2.861,0,0,1-2.295,2.243c-.052,0-.052.077,0,.1a2.861,2.861,0,0,1,2.295,2.243c0,.052.1.052.1,0a2.861,2.861,0,0,1,2.295-2.243C59.232,26.359,59.232,26.282,59.181,26.282Z" transform="translate(-54.45 -24)" fill="#f5c84c"/>
        </g>
      </g>
    </g>
    <g id="Grupo_1112635" data-name="Grupo 1112635" transform="translate(14.841 34.289)">
      <g id="Grupo_1112634" data-name="Grupo 1112634">
        <g id="Grupo_1112633" data-name="Grupo 1112633">
          <path id="Trazado_904138" data-name="Trazado 904138" d="M60.7,134.512a1.9,1.9,0,0,1-1.521-1.487c0-.034-.068-.034-.068,0a1.9,1.9,0,0,1-1.521,1.487c-.034,0-.034.051,0,.068a1.9,1.9,0,0,1,1.521,1.487c0,.034.068.034.068,0A1.9,1.9,0,0,1,60.7,134.58C60.737,134.563,60.737,134.512,60.7,134.512Z" transform="translate(-57.566 -132.999)" fill="#87d147"/>
        </g>
      </g>
    </g>
    <g id="Grupo_1112638" data-name="Grupo 1112638" transform="translate(48.082 45.375)">
      <g id="Grupo_1112637" data-name="Grupo 1112637">
        <g id="Grupo_1112636" data-name="Grupo 1112636">
          <path id="Trazado_904139" data-name="Trazado 904139" d="M190.161,177.418h-.593v-.593a.831.831,0,0,0-.825-.825.814.814,0,0,0-.825.825v.593h-.593a.831.831,0,0,0-.825.825.814.814,0,0,0,.825.825h.593v.593a.831.831,0,0,0,.825.825.814.814,0,0,0,.825-.825v-.593h.593a.831.831,0,0,0,.825-.825A.814.814,0,0,0,190.161,177.418Z" transform="translate(-186.5 -176)" fill="#70d6f9"/>
        </g>
      </g>
    </g>
    <g id="Grupo_1112641" data-name="Grupo 1112641" transform="translate(20.47 2.32)">
      <g id="Grupo_1112640" data-name="Grupo 1112640">
        <g id="Grupo_1112639" data-name="Grupo 1112639">
          <circle id="Elipse_14909" data-name="Elipse 14909" cx="0.877" cy="0.877" r="0.877" fill="#fc657e"/>
        </g>
      </g>
    </g>
    <g id="Grupo_1112644" data-name="Grupo 1112644" transform="translate(51.666 54.141)">
      <g id="Grupo_1112643" data-name="Grupo 1112643">
        <g id="Grupo_1112642" data-name="Grupo 1112642">
          <circle id="Elipse_14910" data-name="Elipse 14910" cx="0.877" cy="0.877" r="0.877" fill="#f5c84c"/>
        </g>
      </g>
    </g>
    <g id="Grupo_1112645" data-name="Grupo 1112645" transform="translate(16.782 44.836)">
      <path id="Trazado_904140" data-name="Trazado 904140" d="M96.36,194.43a1.17,1.17,0,0,0,1.168-1.237L96.936,183a3.08,3.08,0,0,0-2.323-2.815l-4.48-1.128a15.206,15.206,0,0,1-1.486-.458L85.3,182.459a.856.856,0,0,1-1.207.086L82.6,181.251a.856.856,0,0,1-.086-1.207l2.881-3.323a2.688,2.688,0,0,1-.486-1.539v-1.27a7.74,7.74,0,0,1-7.19,0v1.27a2.689,2.689,0,0,1-.5,1.562l2.86,3.3a.856.856,0,0,1-.086,1.207L78.5,182.544a.856.856,0,0,1-1.207-.086L73.95,178.6a15.211,15.211,0,0,1-1.455.447l-4.485,1.129A3.08,3.08,0,0,0,65.687,183l-.591,10.2a1.17,1.17,0,0,0,1.168,1.237h30.1Z" transform="translate(-65.093 -173.911)" fill="#3caadc"/>
    </g>
    <g id="Grupo_1112646" data-name="Grupo 1112646" transform="translate(16.781 61.933)">
      <path id="Trazado_904141" data-name="Trazado 904141" d="M66.261,243.647h4.3v-3.423H65.22l-.127,2.185A1.17,1.17,0,0,0,66.261,243.647Z" transform="translate(-65.091 -240.224)" fill="#f9d0b4"/>
    </g>
    <g id="Grupo_1112647" data-name="Grupo 1112647" transform="translate(43.866 61.933)">
      <path id="Trazado_904142" data-name="Trazado 904142" d="M175.371,240.224h-5.224v3.423h4.183a1.17,1.17,0,0,0,1.168-1.237Z" transform="translate(-170.147 -240.224)" fill="#f9d0b4"/>
    </g>
    <g id="Grupo_1112648" data-name="Grupo 1112648" transform="translate(33.992 47.646)">
      <path id="Trazado_904143" data-name="Trazado 904143" d="M133.635,190.632a.856.856,0,0,0,1.207-.086l3.349-3.864a15.322,15.322,0,0,1-1.62-.694c-.436-.218-.814-.41-.884-.455a2.7,2.7,0,0,1-.75-.726l-2.881,3.323a.856.856,0,0,0,.086,1.207Z" transform="translate(-131.847 -184.807)" fill="#70d6f9"/>
    </g>
    <g id="Grupo_1112649" data-name="Grupo 1112649" transform="translate(25.638 47.668)">
      <path id="Trazado_904144" data-name="Trazado 904144" d="M101.807,185.7c-.036.02-.372.186-.772.384a15.321,15.321,0,0,1-1.591.675l3.34,3.853a.856.856,0,0,0,1.207.086l1.493-1.294a.856.856,0,0,0,.086-1.207l-2.86-3.3A2.7,2.7,0,0,1,101.807,185.7Z" transform="translate(-99.444 -184.896)" fill="#70d6f9"/>
    </g>
    <g id="Grupo_1112650" data-name="Grupo 1112650" transform="translate(25.196 28.29)">
      <path id="Trazado_904145" data-name="Trazado 904145" d="M106.7,109.89a8.459,8.459,0,0,1-8.469,2.783.417.417,0,0,0-.5.4v6.283a7.8,7.8,0,1,0,15.608,0v-6.952c0-.041,0-.081,0-.122a.418.418,0,0,0-.4-.41,8.126,8.126,0,0,1-5.607-2.023A.419.419,0,0,0,106.7,109.89Z" transform="translate(-97.729 -109.73)" fill="#f9d0b4"/>
    </g>
    <g id="Grupo_1112652" data-name="Grupo 1112652" transform="translate(22.662 21.02)">
      <g id="Grupo_1112651" data-name="Grupo 1112651">
        <path id="Trazado_904146" data-name="Trazado 904146" d="M89.936,92.482a3.268,3.268,0,0,1,.5.04v-.375a.417.417,0,0,1,.5-.4,8.459,8.459,0,0,0,8.469-2.783.42.42,0,0,1,.625-.039,8.124,8.124,0,0,0,5.607,2.023.418.418,0,0,1,.4.41c0,.04,0,.081,0,.122v1.044a3.238,3.238,0,0,1,2.761.874v-5.86a4.471,4.471,0,0,0-4.458-4.458,4.412,4.412,0,0,0-2.277.636,4.462,4.462,0,0,0-3.823-2.182H95.958A8.079,8.079,0,0,0,87.9,89.587V93.2A3.239,3.239,0,0,1,89.936,92.482Z" transform="translate(-87.903 -81.532)" fill="#754e34"/>
      </g>
    </g>
    <g id="Grupo_1112653" data-name="Grupo 1112653" transform="translate(40.785 31.97)">
      <path id="Trazado_904147" data-name="Trazado 904147" d="M158.715,124.006a3.267,3.267,0,0,0-.5.04v5.908c0,.176-.008.35-.02.523a3.257,3.257,0,1,0,.52-6.471Z" transform="translate(-158.195 -124.006)" fill="#f9d0b4"/>
    </g>
    <g id="Grupo_1112654" data-name="Grupo 1112654" transform="translate(21.437 31.97)">
      <path id="Trazado_904148" data-name="Trazado 904148" d="M86.909,129.954v-5.908a3.26,3.26,0,1,0,.02,6.431h0C86.917,130.3,86.909,130.13,86.909,129.954Z" transform="translate(-83.15 -124.006)" fill="#f9d0b4"/>
    </g>
    <g id="Grupo_1112655" data-name="Grupo 1112655" transform="translate(28.904 44.837)">
      <path id="Trazado_904149" data-name="Trazado 904149" d="M114.971,180.044a.848.848,0,0,1,.2.491h2.03a.848.848,0,0,1,.2-.491l2.881-3.323a2.687,2.687,0,0,1-.486-1.539v-1.27a7.741,7.741,0,0,1-7.191,0v1.27a2.689,2.689,0,0,1-.5,1.562Z" transform="translate(-112.111 -173.912)" fill="#f9d0b4"/>
    </g>
    <g id="Grupo_1112656" data-name="Grupo 1112656" transform="translate(30.46 39.125)">
      <path id="Trazado_904150" data-name="Trazado 904150" d="M120.908,153.952a3.41,3.41,0,0,1-2.609-1.137.644.644,0,1,1,.988-.828,2.282,2.282,0,0,0,3.241,0,.644.644,0,1,1,.988.828A3.409,3.409,0,0,1,120.908,153.952Z" transform="translate(-118.149 -151.757)"/>
    </g>
    <g id="Grupo_1112657" data-name="Grupo 1112657" transform="translate(35.339 34.75)">
      <circle id="Elipse_14911" data-name="Elipse 14911" cx="0.944" cy="0.944" r="0.944"/>
    </g>
    <g id="Grupo_1112658" data-name="Grupo 1112658" transform="translate(29.001 34.75)">
      <circle id="Elipse_14912" data-name="Elipse 14912" cx="0.944" cy="0.944" r="0.944"/>
    </g>
    <g id="Grupo_1112659" data-name="Grupo 1112659" transform="translate(16.137 44.328)">
      <path id="Trazado_904151" data-name="Trazado 904151" d="M94.5,193.61h-30.1a1.814,1.814,0,0,1-1.811-1.919l.591-10.2a3.708,3.708,0,0,1,2.809-3.4l4.485-1.129a14.481,14.481,0,0,0,1.393-.428.646.646,0,0,1,.706.184l3.34,3.853a.211.211,0,0,0,.3.021l1.493-1.294a.211.211,0,0,0,.021-.3l-2.861-3.3a.645.645,0,0,1-.038-.8,2.035,2.035,0,0,0,.382-1.188v-1.078a.645.645,0,1,1,1.289,0v1.078a3.31,3.31,0,0,1-.353,1.492l2.555,2.948a1.5,1.5,0,0,1-.151,2.116l-1.493,1.294a1.5,1.5,0,0,1-2.116-.151l-3.054-3.524c-.369.122-.736.23-1.1.32l-4.485,1.129a2.424,2.424,0,0,0-1.837,2.226l-.591,10.2a.525.525,0,0,0,.524.556H94.5a.525.525,0,0,0,.524-.556l-.591-10.2a2.425,2.425,0,0,0-1.837-2.227l-4.48-1.127c-.371-.094-.749-.2-1.128-.331l-3.062,3.533a1.5,1.5,0,0,1-2.116.151l-1.493-1.294a1.5,1.5,0,0,1-.151-2.116l2.578-2.974a3.309,3.309,0,0,1-.341-1.466v-1.134a.645.645,0,1,1,1.289,0v1.134a2.037,2.037,0,0,0,.37,1.17.645.645,0,0,1-.042.791L81.143,179a.211.211,0,0,0,.021.3l1.493,1.294a.211.211,0,0,0,.3-.021l3.349-3.864a.645.645,0,0,1,.707-.184,14.654,14.654,0,0,0,1.423.44l4.48,1.127a3.708,3.708,0,0,1,2.809,3.4l.591,10.2A1.814,1.814,0,0,1,94.5,193.61Z" transform="translate(-62.592 -171.938)"/>
    </g>
    <g id="Grupo_1112660" data-name="Grupo 1112660" transform="translate(43.221 55.906)">
      <path id="Trazado_904152" data-name="Trazado 904152" d="M168.291,226.639a.644.644,0,0,1-.645-.645v-8.5a.645.645,0,1,1,1.289,0v8.5a.644.644,0,0,1-.645.645Z" transform="translate(-167.646 -216.846)"/>
    </g>
    <g id="Grupo_1112661" data-name="Grupo 1112661" transform="translate(21.603 55.906)">
      <path id="Trazado_904153" data-name="Trazado 904153" d="M84.439,226.639a.644.644,0,0,1-.645-.645v-8.5a.645.645,0,1,1,1.289,0v8.5a.644.644,0,0,1-.645.645Z" transform="translate(-83.794 -216.846)"/>
    </g>
    <g id="Grupo_1112662" data-name="Grupo 1112662" transform="translate(16.575 61.288)">
      <path id="Trazado_904154" data-name="Trazado 904154" d="M69.776,239.014H64.937a.645.645,0,0,1,0-1.289h4.839a.645.645,0,0,1,0,1.289Z" transform="translate(-64.292 -237.725)"/>
    </g>
    <g id="Grupo_1112663" data-name="Grupo 1112663" transform="translate(43.449 61.288)">
      <path id="Trazado_904155" data-name="Trazado 904155" d="M174.018,239.014h-4.842a.645.645,0,0,1,0-1.289h4.842a.645.645,0,0,1,0,1.289Z" transform="translate(-168.531 -237.725)"/>
    </g>
    <g id="Grupo_1112664" data-name="Grupo 1112664" transform="translate(36.437 47.001)">
      <path id="Trazado_904156" data-name="Trazado 904156" d="M145.23,185.472a.645.645,0,0,1-.22-.039,16.031,16.031,0,0,1-1.688-.723c-.824-.412-.9-.46-.945-.49a3.325,3.325,0,0,1-.93-.9.645.645,0,0,1,1.058-.737,2.045,2.045,0,0,0,.571.553c.017.01.147.082.823.42a14.825,14.825,0,0,0,1.552.665.644.644,0,0,1-.22,1.25Z" transform="translate(-141.331 -182.308)"/>
    </g>
    <g id="Grupo_1112665" data-name="Grupo 1112665" transform="translate(24.993 47.024)">
      <path id="Trazado_904157" data-name="Trazado 904157" d="M97.588,185.548a.645.645,0,0,1-.219-1.251,14.666,14.666,0,0,0,1.524-.647c.378-.187.7-.345.751-.374a2.06,2.06,0,0,0,.684-.609.644.644,0,0,1,1.05.748,3.364,3.364,0,0,1-1.118.994c-.03.016-.109.057-.795.4a15.942,15.942,0,0,1-1.658.7A.642.642,0,0,1,97.588,185.548Z" transform="translate(-96.943 -182.397)"/>
    </g>
    <g id="Grupo_1112666" data-name="Grupo 1112666" transform="translate(24.551 27.645)">
      <path id="Trazado_904158" data-name="Trazado 904158" d="M103.678,125.95a8.458,8.458,0,0,1-8.449-8.449v-6.278a1.06,1.06,0,0,1,1.281-1.038,7.761,7.761,0,0,0,7.832-2.553,1.068,1.068,0,0,1,.769-.4,1.056,1.056,0,0,1,.811.3,7.531,7.531,0,0,0,5.174,1.839,1.061,1.061,0,0,1,1.028,1.042V117.5A8.458,8.458,0,0,1,103.678,125.95Zm-7.16-14.45v6a7.16,7.16,0,1,0,14.319,0v-6.848a8.805,8.805,0,0,1-5.639-2.032A9.119,9.119,0,0,1,96.518,111.5Zm8.328-3.466h0Z" transform="translate(-95.229 -107.228)"/>
    </g>
    <g id="Grupo_1112668" data-name="Grupo 1112668" transform="translate(22.018 20.375)">
      <g id="Grupo_1112667" data-name="Grupo 1112667">
        <path id="Trazado_904159" data-name="Trazado 904159" d="M106.95,91.946a.644.644,0,0,1-.645-.645V85.68a3.8,3.8,0,0,0-5.759-3.27.645.645,0,0,1-.884-.222,3.839,3.839,0,0,0-3.27-1.869H94.1a7.419,7.419,0,0,0-7.411,7.411v3.41a.645.645,0,0,1-1.289,0V87.731a8.71,8.71,0,0,1,8.7-8.7h2.289a5.129,5.129,0,0,1,4.032,1.992,5.055,5.055,0,0,1,2.068-.445,5.108,5.108,0,0,1,5.1,5.1V91.3A.645.645,0,0,1,106.95,91.946Z" transform="translate(-85.403 -79.031)"/>
      </g>
    </g>
    <g id="Grupo_1112669" data-name="Grupo 1112669" transform="translate(40.367 31.326)">
      <path id="Trazado_904160" data-name="Trazado 904160" d="M157.513,129.311c-.115,0-.231-.006-.357-.018a.645.645,0,0,1,.127-1.283c.076.007.152.012.23.012a2.614,2.614,0,0,0,0-5.228c-.061,0-.121,0-.18.006a.645.645,0,1,1-.095-1.286c.091-.007.183-.01.275-.01a3.9,3.9,0,0,1,0,7.806Z" transform="translate(-156.575 -121.505)"/>
    </g>
    <g id="Grupo_1112670" data-name="Grupo 1112670" transform="translate(20.792 31.326)">
      <path id="Trazado_904161" data-name="Trazado 904161" d="M84.552,129.311a3.9,3.9,0,0,1,0-7.806q.171,0,.339.015a.645.645,0,0,1-.115,1.284c-.073-.006-.148-.01-.223-.01a2.614,2.614,0,0,0,0,5.228c.069,0,.136,0,.2-.01a.645.645,0,1,1,.119,1.284C84.768,129.305,84.661,129.311,84.552,129.311Z" transform="translate(-80.649 -121.505)"/>
    </g>
    <g id="Grupo_1112671" data-name="Grupo 1112671" transform="translate(31.432 50.816)">
      <path id="Trazado_904162" data-name="Trazado 904162" d="M124.345,198.392h-1.783a.645.645,0,1,1,0-1.289h1.783a.645.645,0,0,1,0,1.289Z" transform="translate(-121.917 -197.103)"/>
    </g>
    <g id="Grupo_1112672" data-name="Grupo 1112672" transform="translate(23.783)">
      <path id="Trazado_904163" data-name="Trazado 904163" d="M101.467,18.434a9.217,9.217,0,1,1,9.217-9.217A9.227,9.227,0,0,1,101.467,18.434Zm0-17.145a7.928,7.928,0,1,0,7.928,7.928A7.937,7.937,0,0,0,101.467,1.289Z" transform="translate(-92.25)"/>
    </g>
    <g id="Grupo_1112673" data-name="Grupo 1112673" transform="translate(47.566 14.695)">
      <path id="Trazado_904164" data-name="Trazado 904164" d="M193.717,75.434a9.217,9.217,0,1,1,9.217-9.217A9.227,9.227,0,0,1,193.717,75.434Zm0-17.145a7.928,7.928,0,1,0,7.928,7.928A7.937,7.937,0,0,0,193.717,58.289Z" transform="translate(-184.5 -57)"/>
    </g>
    <g id="Grupo_1112674" data-name="Grupo 1112674" transform="translate(0 14.695)">
      <path id="Trazado_904165" data-name="Trazado 904165" d="M9.217,75.434a9.217,9.217,0,1,1,9.217-9.217A9.227,9.227,0,0,1,9.217,75.434Zm0-17.145a7.928,7.928,0,1,0,7.928,7.928A7.937,7.937,0,0,0,9.217,58.289Z" transform="translate(0 -57)"/>
    </g>
    <g id="Grupo_1112675" data-name="Grupo 1112675" transform="translate(51.437 18.949)">
      <path id="Trazado_904166" data-name="Trazado 904166" d="M205.694,84.665a.9.9,0,0,1-.3-.053.886.886,0,0,1-.6-.845V82.524h-3.67a1.613,1.613,0,0,1-1.611-1.611v-5.8a1.612,1.612,0,0,1,1.611-1.61h7.216a1.612,1.612,0,0,1,1.611,1.61v5.8a1.612,1.612,0,0,1-1.611,1.611h-.5l-1.453,1.805A.886.886,0,0,1,205.694,84.665Zm-4.572-9.876a.326.326,0,0,0-.321.321v5.8a.326.326,0,0,0,.321.321h3.756a1.2,1.2,0,0,1,1.2,1.2v.215l.781-.97a1.2,1.2,0,0,1,.937-.449h.539a.326.326,0,0,0,.321-.321v-5.8a.326.326,0,0,0-.321-.321Z" transform="translate(-199.512 -73.5)"/>
    </g>
    <g id="Grupo_1112676" data-name="Grupo 1112676" transform="translate(26.849 5.654)">
      <path id="Trazado_904167" data-name="Trazado 904167" d="M106.868,29.184H105.58a1.439,1.439,0,0,1-1.437-1.437V23.366a1.439,1.439,0,0,1,1.437-1.437h1.288a1.439,1.439,0,0,1,1.437,1.437v4.381A1.439,1.439,0,0,1,106.868,29.184Zm-1.288-5.966a.148.148,0,0,0-.148.148v4.381a.148.148,0,0,0,.148.148h1.288a.148.148,0,0,0,.148-.148V23.366a.148.148,0,0,0-.148-.148Z" transform="translate(-104.143 -21.929)"/>
    </g>
    <g id="Grupo_1112677" data-name="Grupo 1112677" transform="translate(34.989 5.654)">
      <path id="Trazado_904168" data-name="Trazado 904168" d="M138.44,29.184h-1.288a1.439,1.439,0,0,1-1.437-1.437V23.366a1.439,1.439,0,0,1,1.437-1.437h1.288a1.439,1.439,0,0,1,1.437,1.437v4.381A1.439,1.439,0,0,1,138.44,29.184Zm-1.288-5.966a.148.148,0,0,0-.148.148v4.381a.148.148,0,0,0,.148.148h1.288a.148.148,0,0,0,.148-.148V23.366a.148.148,0,0,0-.148-.148Z" transform="translate(-135.715 -21.929)"/>
    </g>
    <g id="Grupo_1112680" data-name="Grupo 1112680" transform="translate(29.914 7.2)">
      <g id="Grupo_1112678" data-name="Grupo 1112678" transform="translate(0 2.873)">
        <path id="Trazado_904169" data-name="Trazado 904169" d="M121.545,40.36h-4.869a.645.645,0,1,1,0-1.289h4.869a.645.645,0,1,1,0,1.289Z" transform="translate(-116.032 -39.071)"/>
      </g>
      <g id="Grupo_1112679" data-name="Grupo 1112679">
        <path id="Trazado_904170" data-name="Trazado 904170" d="M121.555,29.218h-4.88a.645.645,0,1,1,0-1.289h4.88a.645.645,0,1,1,0,1.289Z" transform="translate(-116.031 -27.929)"/>
      </g>
    </g>
    <g id="Grupo_1112681" data-name="Grupo 1112681" transform="translate(4.705 18.369)">
      <path id="Trazado_904171" data-name="Trazado 904171" d="M25.726,82.336H19.8a1.55,1.55,0,0,1-1.548-1.548V72.8A1.55,1.55,0,0,1,19.8,71.25h2.833a.646.646,0,0,1,.456.189l4,4a.644.644,0,0,1,.189.456v4.9A1.55,1.55,0,0,1,25.726,82.336Zm-5.928-9.8a.259.259,0,0,0-.259.259v7.99a.259.259,0,0,0,.259.259h5.927a.259.259,0,0,0,.259-.259V76.159l-3.62-3.62Z" transform="translate(-18.25 -71.25)"/>
    </g>
    <g id="Grupo_1112682" data-name="Grupo 1112682" transform="translate(8.442 18.573)">
      <path id="Trazado_904172" data-name="Trazado 904172" d="M37.085,77.125H34.292a1.55,1.55,0,0,1-1.548-1.548v-2.89a.645.645,0,0,1,1.289,0v2.89a.259.259,0,0,0,.259.259h2.793a.645.645,0,0,1,0,1.289Z" transform="translate(-32.744 -72.042)"/>
    </g>
  </g>
</svg>
