<svg xmlns="http://www.w3.org/2000/svg" width="65.213" height="70.96" viewBox="0 0 65.213 70.96">
  <g id="Grupo_1112412" data-name="Grupo 1112412" transform="translate(-27.208 -6.5)">
    <circle id="Elipse_14875" data-name="Elipse 14875" cx="31.606" cy="31.606" r="31.606" transform="translate(28.208 9.415)" fill="#fef1da"/>
    <circle id="Elipse_14876" data-name="Elipse 14876" cx="23.944" cy="23.944" r="23.944" transform="translate(35.87 17.078)" fill="#fae2c0"/>
    <path id="Trazado_903647" data-name="Trazado 903647" d="M180.774,85.968a23.951,23.951,0,0,1-21.212,42.494,23.948,23.948,0,1,0,21.212-42.494Z" transform="translate(-113.128 -67.58)" fill="#fddeb0"/>
    <path id="Trazado_903648" data-name="Trazado 903648" d="M146.622,253.679c3.9-3.9,4.6-9.522,1.57-12.556s-8.655-2.331-12.556,1.569a10.808,10.808,0,0,0-3.39,8.731,4.232,4.232,0,0,1-1.356,3.724l-16.407,14.584a3.612,3.612,0,0,0-.154,5.254h0a3.612,3.612,0,0,0,5.254-.154l14.584-16.407a4.232,4.232,0,0,1,3.724-1.356A10.807,10.807,0,0,0,146.622,253.679Z" transform="translate(-73.26 -199.584)" fill="#75cdd5"/>
    <circle id="Elipse_14877" data-name="Elipse 14877" cx="1.916" cy="1.916" r="1.916" transform="translate(67.477 32.402)" fill="#f68157"/>
    <path id="Trazado_903649" data-name="Trazado 903649" d="M211.492,14.907l3.47-6.94a.323.323,0,0,0-.289-.467h-6.957a.323.323,0,0,0-.277.157l-5.473,9.122a.323.323,0,0,0,.133.455l7.023,3.512a.323.323,0,0,1,.124.468L202.121,31.9a.323.323,0,0,0,.269.5h1.178a.323.323,0,0,0,.228-.095l13.036-13.036a.323.323,0,0,0-.049-.5L211.6,15.32A.323.323,0,0,1,211.492,14.907Z" transform="translate(-149.609)" fill="#fdb441"/>
    <circle id="Elipse_14878" data-name="Elipse 14878" cx="1.916" cy="1.916" r="1.916" transform="translate(40.659 34.317)" fill="#f68157"/>
    <path id="Trazado_903650" data-name="Trazado 903650" d="M131.337,235.039a1.519,1.519,0,0,0,0,2.148l8.407,8.407a5.734,5.734,0,0,0,4.578,1.66,4.176,4.176,0,0,1,3.512,1.355l15.175,17.072a3.612,3.612,0,0,0,5.254.154h0a3.612,3.612,0,0,0-.154-5.254l-17.166-15.258a4.284,4.284,0,0,1-1.4-3.466,5.732,5.732,0,0,0-1.674-4.39l-8.407-8.407a1.519,1.519,0,0,0-2.148,0Z" transform="translate(-88.436 -190.436)" fill="#93d8de"/>
    <line id="Línea_625" data-name="Línea 625" x2="8.127" y2="8.127" transform="translate(44.535 42.969)" fill="none" stroke="#000" stroke-linecap="round" stroke-linejoin="round" stroke-miterlimit="10" stroke-width="2"/>
    <line id="Línea_626" data-name="Línea 626" x2="8.127" y2="8.127" transform="translate(47.244 40.26)" fill="none" stroke="#000" stroke-linecap="round" stroke-linejoin="round" stroke-miterlimit="10" stroke-width="2"/>
    <path id="Trazado_903651" data-name="Trazado 903651" d="M131.337,235.039a1.519,1.519,0,0,0,0,2.148l8.407,8.407a5.734,5.734,0,0,0,4.578,1.66,4.176,4.176,0,0,1,3.512,1.355l15.175,17.072a3.612,3.612,0,0,0,5.254.154h0a3.612,3.612,0,0,0-.154-5.254l-17.166-15.258a4.284,4.284,0,0,1-1.4-3.466,5.732,5.732,0,0,0-1.674-4.39l-8.407-8.407a1.519,1.519,0,0,0-2.148,0Z" transform="translate(-88.436 -190.436)" fill="none" stroke="#000" stroke-linecap="round" stroke-linejoin="round" stroke-miterlimit="10" stroke-width="2"/>
    <circle id="Elipse_14879" data-name="Elipse 14879" cx="1.916" cy="1.916" r="1.916" transform="translate(67.477 32.402)" fill="none" stroke="#000" stroke-linecap="round" stroke-linejoin="round" stroke-miterlimit="10" stroke-width="2"/>
    <circle id="Elipse_14880" data-name="Elipse 14880" cx="1.916" cy="1.916" r="1.916" transform="translate(40.659 34.317)" fill="none" stroke="#000" stroke-linecap="round" stroke-linejoin="round" stroke-miterlimit="10" stroke-width="2"/>
    <g id="Grupo_1112405" data-name="Grupo 1112405" transform="translate(46.14 31.527)">
      <g id="Grupo_1112404" data-name="Grupo 1112404">
        <line id="Línea_627" data-name="Línea 627" fill="none" stroke="#000" stroke-linecap="round" stroke-linejoin="round" stroke-miterlimit="10" stroke-width="2"/>
      </g>
    </g>
    <g id="Grupo_1112407" data-name="Grupo 1112407" transform="translate(60.689 39.023)">
      <g id="Grupo_1112406" data-name="Grupo 1112406">
        <line id="Línea_628" data-name="Línea 628" fill="none" stroke="#000" stroke-linecap="round" stroke-linejoin="round" stroke-miterlimit="10" stroke-width="2"/>
      </g>
    </g>
    <g id="Grupo_1112409" data-name="Grupo 1112409" transform="translate(74.264 37.108)">
      <g id="Grupo_1112408" data-name="Grupo 1112408">
        <line id="Línea_629" data-name="Línea 629" fill="none" stroke="#000" stroke-linecap="round" stroke-linejoin="round" stroke-miterlimit="10" stroke-width="2"/>
      </g>
    </g>
    <g id="Grupo_1112411" data-name="Grupo 1112411" transform="translate(76.014 33.277)">
      <g id="Grupo_1112410" data-name="Grupo 1112410">
        <line id="Línea_630" data-name="Línea 630" fill="none" stroke="#000" stroke-linecap="round" stroke-linejoin="round" stroke-miterlimit="10" stroke-width="2"/>
      </g>
    </g>
    <path id="Trazado_903652" data-name="Trazado 903652" d="M211.492,14.907l3.47-6.94a.323.323,0,0,0-.289-.467h-6.957a.323.323,0,0,0-.277.157l-5.473,9.122a.323.323,0,0,0,.133.455l7.023,3.512a.323.323,0,0,1,.124.468L202.121,31.9a.323.323,0,0,0,.269.5h1.178a.323.323,0,0,0,.228-.095l13.036-13.036a.323.323,0,0,0-.049-.5L211.6,15.32A.323.323,0,0,1,211.492,14.907Z" transform="translate(-149.609)" fill="none" stroke="#000" stroke-linecap="round" stroke-linejoin="round" stroke-miterlimit="10" stroke-width="2"/>
    <path id="Trazado_903653" data-name="Trazado 903653" d="M260.547,257.132a11.126,11.126,0,0,0,7.862-3.453c3.9-3.9,4.6-9.522,1.569-12.556s-8.655-2.331-12.556,1.569a12.23,12.23,0,0,0-2.744,4.13" transform="translate(-195.048 -199.584)" fill="none" stroke="#000" stroke-linecap="round" stroke-linejoin="round" stroke-miterlimit="10" stroke-width="2"/>
    <path id="Trazado_903654" data-name="Trazado 903654" d="M117.933,388.961l-3.448,3.065a3.612,3.612,0,0,0-.154,5.254h0a3.612,3.612,0,0,0,5.254-.154l14.125-15.891" transform="translate(-73.261 -321.879)" fill="none" stroke="#000" stroke-linecap="round" stroke-linejoin="round" stroke-miterlimit="10" stroke-width="2"/>
    <line id="Línea_631" data-name="Línea 631" x1="7.771" y2="6.908" transform="translate(48.465 56.802)" fill="none" stroke="#000" stroke-linecap="round" stroke-linejoin="round" stroke-miterlimit="10" stroke-width="2"/>
    <path id="Trazado_903655" data-name="Trazado 903655" d="M185.441,463.68a31.764,31.764,0,0,0,20.551-.334" transform="translate(-135.417 -392.597)" fill="none" stroke="#000" stroke-linecap="round" stroke-linejoin="round" stroke-miterlimit="10" stroke-width="2"/>
    <path id="Trazado_903656" data-name="Trazado 903656" d="M301.873,81.639a31.613,31.613,0,0,0-12.4-57.89" transform="translate(-225.016 -13.994)" fill="none" stroke="#000" stroke-linecap="round" stroke-linejoin="round" stroke-miterlimit="10" stroke-width="2"/>
    <path id="Trazado_903657" data-name="Trazado 903657" d="M42.616,57.951a31.615,31.615,0,0,0,.9,53.608" transform="translate(0 -43.451)" fill="none" stroke="#000" stroke-linecap="round" stroke-linejoin="round" stroke-miterlimit="10" stroke-width="2"/>
    <path id="Trazado_903658" data-name="Trazado 903658" d="M172.694,22.409a31.4,31.4,0,0,0-9.785,2.6" transform="translate(-116.011 -12.84)" fill="none" stroke="#000" stroke-linecap="round" stroke-linejoin="round" stroke-miterlimit="10" stroke-width="2"/>
    <path id="Trazado_903659" data-name="Trazado 903659" d="M101.295,82.14a23.953,23.953,0,0,0-4.123,44.834" transform="translate(-47.56 -64.284)" fill="none" stroke="#000" stroke-linecap="round" stroke-linejoin="round" stroke-miterlimit="10" stroke-width="2"/>
    <path id="Trazado_903660" data-name="Trazado 903660" d="M310.439,88.911a23.933,23.933,0,0,0-11.766-7.066" transform="translate(-232.938 -64.03)" fill="none" stroke="#000" stroke-linecap="round" stroke-linejoin="round" stroke-miterlimit="10" stroke-width="2"/>
    <path id="Trazado_903661" data-name="Trazado 903661" d="M335.394,194.828A23.959,23.959,0,0,0,345,161.394" transform="translate(-264.564 -132.541)" fill="none" stroke="#000" stroke-linecap="round" stroke-linejoin="round" stroke-miterlimit="10" stroke-width="2"/>
    <path id="Trazado_903662" data-name="Trazado 903662" d="M226.812,417.906a24.18,24.18,0,0,0,9.18-.21" transform="translate(-171.047 -353.281)" fill="none" stroke="#000" stroke-linecap="round" stroke-linejoin="round" stroke-miterlimit="10" stroke-width="2"/>
  </g>
</svg>
