<svg xmlns="http://www.w3.org/2000/svg" width="79.081" height="79.081" viewBox="0 0 79.081 79.081">
  <g id="Grupo_1112694" data-name="Grupo 1112694" transform="translate(-1 -1)">
    <path id="Trazado_904289" data-name="Trazado 904289" d="M58.194,74.065h.7a5.677,5.677,0,0,0,5.676-5.675,32.814,32.814,0,0,0-.639-6.448,32.8,32.8,0,0,1-.637-6.435V53.814a42.726,42.726,0,0,0-1.275-10.36l.589-2.36a22.958,22.958,0,0,0,.239-10.079L62.6,29.788a30.035,30.035,0,0,1-.583-5.89A12.191,12.191,0,0,0,52.471,12a12.181,12.181,0,0,1-3.627-1.45L44.163,7.739V4.316H31.408V7.739l-4.681,2.806A12.181,12.181,0,0,1,23.1,11.993a12.191,12.191,0,0,0-9.548,11.9,30.04,30.04,0,0,1-.583,5.892l-.246,1.229a22.958,22.958,0,0,0,.239,10.073l.59,2.362a42.729,42.729,0,0,0-1.276,10.361v1.693a32.811,32.811,0,0,1-.639,6.446A32.8,32.8,0,0,0,11,68.39a5.677,5.677,0,0,0,5.675,5.676Z" transform="translate(2.755 0.914)" fill="#d08c76"/>
    <path id="Trazado_904290" data-name="Trazado 904290" d="M64.02,68.114a32.806,32.806,0,0,0-.638-6.444,32.8,32.8,0,0,1-.637-6.436V53.54a42.726,42.726,0,0,0-1.275-10.36l.589-2.36a22.959,22.959,0,0,0,.24-10.076l-.246-1.231a30.035,30.035,0,0,1-.583-5.89,12.194,12.194,0,0,0-9.548-11.9,12.177,12.177,0,0,1-3.628-1.449L43.612,7.465V5.313A7.593,7.593,0,0,1,33.223,7.576l-4.5,2.7A12.177,12.177,0,0,1,25.1,11.717a12.194,12.194,0,0,0-9.548,11.906,30.04,30.04,0,0,1-.583,5.892l-.246,1.229a22.959,22.959,0,0,0,.24,10.076l.589,2.358A42.729,42.729,0,0,0,14.275,53.54v1.694a32.806,32.806,0,0,1-.638,6.444A32.8,32.8,0,0,0,13,68.114a5.677,5.677,0,0,0,5.677,5.677H58.345A5.677,5.677,0,0,0,64.02,68.114Z" transform="translate(3.306 1.188)" fill="#f2b89e"/>
    <path id="Trazado_904291" data-name="Trazado 904291" d="M56.816,69.354V64.38A65.69,65.69,0,0,0,55.54,51.5l-2.1-11.562H19.383L17.275,51.5A65.688,65.688,0,0,0,16,64.38v4.974" transform="translate(4.133 10.727)" fill="#f2b89e"/>
    <path id="Trazado_904292" data-name="Trazado 904292" d="M31,55h2.551V65.2H31Z" transform="translate(8.265 14.877)" fill="#d08c76"/>
    <path id="Trazado_904293" data-name="Trazado 904293" d="M55.265,51.5l-1.327.574a42.769,42.769,0,0,0-13.457,9.107,6.158,6.158,0,0,1-8.7,0A42.769,42.769,0,0,0,18.327,52.07L17,51.5,19.1,39.94H53.16Z" transform="translate(4.408 10.728)" fill="#3091d0"/>
    <path id="Trazado_904294" data-name="Trazado 904294" d="M51.7,25.041l.654,3.269A9.2,9.2,0,0,0,53.722,31.6a9.184,9.184,0,0,1,1.543,5.1A13.869,13.869,0,0,1,49.09,48.239a21.057,21.057,0,0,1-11.682,3.536H34.857a21.056,21.056,0,0,1-11.676-3.535A13.87,13.87,0,0,1,17,36.7a9.184,9.184,0,0,1,1.543-5.1,9.2,9.2,0,0,0,1.364-3.3l.654-3.269" transform="translate(4.408 6.622)" fill="#f2b89e"/>
    <g id="Grupo_1112693" data-name="Grupo 1112693" transform="translate(20.133 1)">
      <path id="Trazado_904295" data-name="Trazado 904295" d="M22.393,35.479l-2.283-1.14A16.261,16.261,0,0,1,28.625,26.5l1.082-.434.946,2.37-1.082.432a13.705,13.705,0,0,0-7.179,6.606Z" transform="translate(-14.868 5.907)" fill="#d08c76"/>
      <path id="Trazado_904296" data-name="Trazado 904296" d="M43.889,35.479a13.713,13.713,0,0,0-7.179-6.607l-1.082-.431.946-2.37,1.082.432a16.269,16.269,0,0,1,8.522,7.835Z" transform="translate(-10.592 5.907)" fill="#d08c76"/>
      <path id="Trazado_904297" data-name="Trazado 904297" d="M55.058,33.111a7.893,7.893,0,0,1-1.175-2.837l-.51-2.551a7.126,7.126,0,0,0,2.167-5.111V17H52.99v5.612a4.6,4.6,0,0,1-7.143,3.826l-6.173-4.116-1.416,2.122,6.173,4.116a7.13,7.13,0,0,0,6.649.673l.3,1.541a10.411,10.411,0,0,0,1.554,3.751,7.881,7.881,0,0,1,1.329,4.388A12.571,12.571,0,0,1,48.653,49.4a19.712,19.712,0,0,1-10.969,3.316H35.133A19.712,19.712,0,0,1,24.163,49.4a12.571,12.571,0,0,1-5.612-10.483,7.881,7.881,0,0,1,1.329-4.389,10.411,10.411,0,0,0,1.554-3.75l.309-1.546a7.13,7.13,0,0,0,6.649-.673l6.173-4.116-1.416-2.122-6.173,4.121a4.6,4.6,0,0,1-7.143-3.826V17H17.276v5.612a7.125,7.125,0,0,0,2.167,5.116l-.509,2.552a7.893,7.893,0,0,1-1.175,2.837A10.429,10.429,0,0,0,16,38.914a15.117,15.117,0,0,0,6.744,12.6,22.259,22.259,0,0,0,12.389,3.75h2.551a22.259,22.259,0,0,0,12.385-3.75,15.117,15.117,0,0,0,6.747-12.6A10.429,10.429,0,0,0,55.058,33.111Z" transform="translate(-16 3.408)" fill="#d08c76"/>
      <path id="Trazado_904298" data-name="Trazado 904298" d="M41.306,1A7.653,7.653,0,0,1,26,1Z" transform="translate(-13.245 -1)" fill="#d08c76"/>
      <path id="Trazado_904299" data-name="Trazado 904299" d="M31,15h2.551v5.1H31Z" transform="translate(-11.867 2.857)" fill="#d08c76"/>
    </g>
    <path id="Trazado_904300" data-name="Trazado 904300" d="M30.061,7.122A7.634,7.634,0,0,0,34.015,8.6,7.6,7.6,0,0,0,41.031,1H27a7.653,7.653,0,0,0,3.061,6.122Z" transform="translate(7.163 0)" fill="#f2b89e"/>
    <path id="Trazado_904301" data-name="Trazado 904301" d="M31.172,13.871l1.416-2.122a16.4,16.4,0,0,0-7.636-2.69l-.3.18a12.177,12.177,0,0,1-3.628,1.446,12.231,12.231,0,0,0-2.472.849h4.913a13.861,13.861,0,0,1,7.71,2.337Z" transform="translate(4.834 2.22)" fill="#d08c76"/>
    <path id="Trazado_904302" data-name="Trazado 904302" d="M35.861,13.872a13.861,13.861,0,0,1,7.717-2.337h4.907a12.231,12.231,0,0,0-2.472-.847,12.177,12.177,0,0,1-3.628-1.449l-.3-.182a16.4,16.4,0,0,0-7.636,2.69Z" transform="translate(9.214 2.22)" fill="#d08c76"/>
    <path id="Trazado_904303" data-name="Trazado 904303" d="M31,38h2.551v2.551H31Z" transform="translate(8.265 10.194)" fill="#d08c76"/>
    <path id="Trazado_904304" data-name="Trazado 904304" d="M51.211,46.244a24.8,24.8,0,0,1-13.8,4.179H34.857a24.8,24.8,0,0,1-13.8-4.179A17.73,17.73,0,0,1,18.2,43.837L17,50.422,18.327,51A42.769,42.769,0,0,1,31.783,60.1a6.158,6.158,0,0,0,8.7,0A42.769,42.769,0,0,1,53.938,51l1.327-.574-1.2-6.585a17.73,17.73,0,0,1-2.855,2.407Z" transform="translate(4.408 11.802)" fill="#3bb4e6"/>
    <path id="Trazado_904305" data-name="Trazado 904305" d="M46.408,39.174a1.276,1.276,0,0,1,.427.744l2.1,11.561a66.963,66.963,0,0,1,1.3,13.111v4.974H47.683V64.59a64.611,64.611,0,0,0-1.25-12.627L44.52,41.427" transform="translate(11.99 10.517)" fill="#d08c76"/>
    <path id="Trazado_904306" data-name="Trazado 904306" d="M20.718,41.488,18.8,52a64.7,64.7,0,0,0-1.254,12.654v4.974H15V64.656a67.033,67.033,0,0,1,1.3-13.131l2.1-11.546a1.276,1.276,0,0,1,1.254-1.047Z" transform="translate(3.857 10.45)" fill="#d08c76"/>
    <path id="Trazado_904307" data-name="Trazado 904307" d="M55.48,31,44,38.653l11.48,7.653V41.2l11.48,1.275V34.827L55.48,36.1Z" transform="translate(11.847 8.265)" fill="#e9353f"/>
    <path id="Trazado_904308" data-name="Trazado 904308" d="M54.649,31l-7.634,5.089A6.344,6.344,0,0,0,52.1,38.653H66.128V34.827L54.649,36.1Z" transform="translate(12.677 8.265)" fill="#ff4b50"/>
    <path id="Trazado_904309" data-name="Trazado 904309" d="M13.48,31l11.48,7.653L13.48,46.306V41.2L2,42.48V34.827L13.48,36.1Z" transform="translate(0.276 8.265)" fill="#e9353f"/>
    <path id="Trazado_904310" data-name="Trazado 904310" d="M13.48,31l7.634,5.089a6.344,6.344,0,0,1-5.083,2.564H2V34.827L13.48,36.1Z" transform="translate(0.276 8.265)" fill="#ff4b50"/>
    <path id="Trazado_904311" data-name="Trazado 904311" d="M28.62,26.5A16.266,16.266,0,0,0,20.1,34.339l2.283,1.14a13.714,13.714,0,0,1,7.179-6.606l1.082-.432-.946-2.37Z" transform="translate(5.263 6.907)"/>
    <path id="Trazado_904312" data-name="Trazado 904312" d="M43.889,35.479l2.283-1.14A16.274,16.274,0,0,0,37.657,26.5l-1.082-.432-.946,2.37,1.08.431a13.719,13.719,0,0,1,7.18,6.607Z" transform="translate(9.54 6.907)"/>
    <path id="Trazado_904313" data-name="Trazado 904313" d="M31,15h2.551v5.1H31Z" transform="translate(8.265 3.857)"/>
    <path id="Trazado_904314" data-name="Trazado 904314" d="M31,38h2.551v2.551H31Z" transform="translate(8.265 10.194)"/>
    <path id="Trazado_904315" data-name="Trazado 904315" d="M78.665,41.824,68.6,42.942V39.265a1.275,1.275,0,0,0-.673-1.125,1.261,1.261,0,0,0-.668-.151c.033-.518.066-1.037.066-1.555a24.281,24.281,0,0,0-.47-4.749l-.247-1.237a28.787,28.787,0,0,1-.559-5.638A13.393,13.393,0,0,0,55.5,11.663a10.842,10.842,0,0,1-3.247-1.3L48.194,7.931V5.564A8.944,8.944,0,0,0,49.469,1H46.918a6.409,6.409,0,0,1-2.551,5.1,6.547,6.547,0,0,1-7.653,0A6.409,6.409,0,0,1,34.163,1H31.612a8.944,8.944,0,0,0,1.276,4.564V7.931l-4.062,2.436a10.842,10.842,0,0,1-3.247,1.3A13.393,13.393,0,0,0,15.031,24.811a28.8,28.8,0,0,1-.558,5.637l-.247,1.235a24.3,24.3,0,0,0-.471,4.754c0,.518.033,1.036.066,1.555a1.261,1.261,0,0,0-.668.148,1.276,1.276,0,0,0-.673,1.125v3.677L2.416,41.824A1.275,1.275,0,0,0,1,43.092v7.653a1.275,1.275,0,0,0,1.416,1.268L12.48,50.894v3.677a1.276,1.276,0,0,0,1.276,1.276v.575a31.723,31.723,0,0,1-.612,6.19,34.154,34.154,0,0,0-.663,6.69,6.957,6.957,0,0,0,6.378,6.923v3.856h2.551V75.107a64.593,64.593,0,0,1,.978-11.07,41.5,41.5,0,0,1,12.9,8.767,7.379,7.379,0,0,0,3.981,2.061v5.217h2.551V74.864A7.379,7.379,0,0,0,45.8,72.8a41.482,41.482,0,0,1,12.9-8.767,64.586,64.586,0,0,1,.978,11.071v4.974h2.551V76.225A6.957,6.957,0,0,0,68.6,69.3a34.133,34.133,0,0,0-.662-6.682,31.723,31.723,0,0,1-.614-6.2v-.575A1.276,1.276,0,0,0,68.6,54.571V50.894l10.064,1.119a1.275,1.275,0,0,0,1.416-1.268V43.092a1.276,1.276,0,0,0-1.416-1.268ZM16.727,32.182l.246-1.23a31.435,31.435,0,0,0,.608-6.142,10.855,10.855,0,0,1,8.546-10.658,13.339,13.339,0,0,0,1.4-.4h.765A13.865,13.865,0,0,1,36,16.092l1.416-2.122a16.411,16.411,0,0,0-5.654-2.392l3.052-1.832a1.276,1.276,0,0,0,.62-1.093V8.3a8.821,8.821,0,0,0,10.2,0v.349a1.275,1.275,0,0,0,.618,1.093l3.052,1.832a16.411,16.411,0,0,0-5.654,2.392l1.416,2.122a13.865,13.865,0,0,1,7.717-2.337h.765a13.339,13.339,0,0,0,1.392.4A10.855,10.855,0,0,1,63.5,24.811a31.412,31.412,0,0,0,.608,6.14l.246,1.231a21.1,21.1,0,0,1,.173,7.416l-3.672,2.448A10.421,10.421,0,0,0,59.2,37.519a7.864,7.864,0,0,1-1.176-2.837l-.51-2.551a7.126,7.126,0,0,0,2.162-5.111V21.408H57.122V27.02a4.6,4.6,0,0,1-7.143,3.826l-6.173-4.116L42.39,28.853l6.173,4.116a7.13,7.13,0,0,0,6.649.673l.3,1.541a10.424,10.424,0,0,0,1.554,3.751A7.885,7.885,0,0,1,58.4,43.322c0,.128-.011.247-.014.371l-3.245,2.168a1.275,1.275,0,0,0,0,2.122l1.786,1.189a12.529,12.529,0,0,1-4.139,4.633,19.715,19.715,0,0,1-10.969,3.316H39.265A19.715,19.715,0,0,1,28.3,53.806a12.529,12.529,0,0,1-4.131-4.633l1.786-1.189a1.275,1.275,0,0,0,0-2.122l-3.245-2.168c0-.128-.014-.246-.014-.371a7.885,7.885,0,0,1,1.329-4.389,10.423,10.423,0,0,0,1.546-3.75l.309-1.546a7.13,7.13,0,0,0,6.649-.673L38.7,28.848l-1.416-2.122-6.173,4.121a4.6,4.6,0,0,1-7.143-3.826V21.408H21.408V27.02a7.125,7.125,0,0,0,2.167,5.116l-.509,2.552a7.864,7.864,0,0,1-1.176,2.837,10.421,10.421,0,0,0-1.658,4.527L16.56,39.6a21.1,21.1,0,0,1,.173-7.416ZM13.615,48.2,3.551,49.32v-4.8l10.064,1.119a1.275,1.275,0,0,0,1.416-1.268V41.649l7.908,5.269-7.908,5.269V49.469A1.275,1.275,0,0,0,13.615,48.2Zm5.278,25.448A4.392,4.392,0,0,1,15.031,69.3a31.723,31.723,0,0,1,.612-6.19,34.154,34.154,0,0,0,.663-6.69V54.4l5.718-3.812c.051.093.093.194.147.286L20.158,61.969a67.056,67.056,0,0,0-1.265,11.68ZM43.993,71a5,5,0,0,1-6.906,0,44.034,44.034,0,0,0-13.852-9.379l-.392-.167,1.417-7.792a15.043,15.043,0,0,0,2.615,2.263,22.263,22.263,0,0,0,12.389,3.75h2.551A22.263,22.263,0,0,0,54.2,55.923a15.043,15.043,0,0,0,2.615-2.263l1.42,7.8-.392.167A44.034,44.034,0,0,0,43.993,71Zm18.2,2.65A66.974,66.974,0,0,0,60.928,62l-2.02-11.124c.054-.092.1-.193.147-.286L64.775,54.4v2.02a34.133,34.133,0,0,0,.662,6.682,31.723,31.723,0,0,1,.614,6.2,4.392,4.392,0,0,1-3.862,4.347ZM77.53,49.32,67.466,48.2a1.276,1.276,0,0,0-1.416,1.268v2.718l-7.908-5.269,7.908-5.269v2.718a1.276,1.276,0,0,0,1.416,1.268L77.53,44.516Z" transform="translate(0 0)"/>
  </g>
</svg>
