<svg xmlns="http://www.w3.org/2000/svg" width="62" height="62" viewBox="0 0 62 62">
  <g id="Grupo_1112432" data-name="Grupo 1112432" transform="translate(-1 -1)">
    <g id="Grupo_1112430" data-name="Grupo 1112430">
      <g id="Grupo_1112413" data-name="Grupo 1112413">
        <path id="Trazado_903663" data-name="Trazado 903663" d="M32,31a15,15,0,0,0,6,12v3H30V62H10V46H2V39.14a8.955,8.955,0,0,1,7.2-8.78l3.96-.79L15,36l5-3,5,3,1.84-6.43,3.96.79a8.187,8.187,0,0,1,1.2.33h.01c-.01.1-.01.21-.01.31Z" fill="#b4dd7f"/>
      </g>
      <g id="Grupo_1112414" data-name="Grupo 1112414">
        <path id="Trazado_903664" data-name="Trazado 903664" d="M26.84,29.57,25,36l-5-3,4-4Z" fill="#a0d468"/>
      </g>
      <g id="Grupo_1112415" data-name="Grupo 1112415">
        <path id="Trazado_903665" data-name="Trazado 903665" d="M20,33l-5,3-1.84-6.43L16,29Z" fill="#a0d468"/>
      </g>
      <g id="Grupo_1112416" data-name="Grupo 1112416">
        <path id="Trazado_903666" data-name="Trazado 903666" d="M17.01,10H17l-1.24.62A5,5,0,0,0,13,15H12a2.975,2.975,0,0,0-2.05.81l-.77-3.08A6.18,6.18,0,0,1,9,11.25,6.064,6.064,0,0,1,11.71,6.2L12,6l.36-.48A8.785,8.785,0,0,1,19.4,2h2.81A8.809,8.809,0,0,1,31,10.79a10,10,0,0,1-.29,2.38l-.66,2.64A2.975,2.975,0,0,0,28,15H27V13.72A1.72,1.72,0,0,0,25.28,12a1.611,1.611,0,0,0-.54.09l-.93.31a11.732,11.732,0,0,1-3.72.6,3.092,3.092,0,0,1-2.19-.9,3.166,3.166,0,0,1-.89-2.1Z" fill="#b27946"/>
      </g>
      <g id="Grupo_1112417" data-name="Grupo 1112417">
        <path id="Trazado_903667" data-name="Trazado 903667" d="M50,45.7V59a3,3,0,0,1-6,0V45.7a15.15,15.15,0,0,0,6,0Z" fill="#969faa"/>
      </g>
      <g id="Grupo_1112418" data-name="Grupo 1112418">
        <path id="Trazado_903668" data-name="Trazado 903668" d="M4,46h6V62H4Z" fill="#f0d0b4"/>
      </g>
      <g id="Grupo_1112419" data-name="Grupo 1112419">
        <path id="Trazado_903669" data-name="Trazado 903669" d="M30,46h6V62H30Z" fill="#f0d0b4"/>
      </g>
      <g id="Grupo_1112420" data-name="Grupo 1112420">
        <path id="Trazado_903670" data-name="Trazado 903670" d="M23.07,25.29,24,29l-4,4-4-4,.93-3.71a6.992,6.992,0,0,0,6.14,0Z" fill="#f0d0b4"/>
      </g>
      <g id="Grupo_1112421" data-name="Grupo 1112421">
        <path id="Trazado_903671" data-name="Trazado 903671" d="M30.05,15.81A3,3,0,0,1,28,21H26.71A6.908,6.908,0,0,0,27,19V15h1a2.975,2.975,0,0,1,2.05.81Z" fill="#f0d0b4"/>
      </g>
      <g id="Grupo_1112422" data-name="Grupo 1112422">
        <path id="Trazado_903672" data-name="Trazado 903672" d="M27,15v4a6.908,6.908,0,0,1-.29,2,7,7,0,0,1-3.64,4.29,6.992,6.992,0,0,1-6.14,0A6.986,6.986,0,0,1,13,19V15a5,5,0,0,1,2.76-4.38L17,10h.01a3.166,3.166,0,0,0,.89,2.1,3.092,3.092,0,0,0,2.19.9,11.732,11.732,0,0,0,3.72-.6l.93-.31a1.611,1.611,0,0,1,.54-.09A1.72,1.72,0,0,1,27,13.72Z" fill="#f0d0b4"/>
      </g>
      <g id="Grupo_1112423" data-name="Grupo 1112423">
        <path id="Trazado_903673" data-name="Trazado 903673" d="M13.29,21H12a3,3,0,0,1,0-6h1v4A6.908,6.908,0,0,0,13.29,21Z" fill="#f0d0b4"/>
      </g>
      <g id="Grupo_1112424" data-name="Grupo 1112424">
        <path id="Trazado_903674" data-name="Trazado 903674" d="M47,16a15,15,0,0,1,3,29.7A14.987,14.987,0,0,1,38,43a15,15,0,0,1-6-12c0-.1,0-.21.01-.31A14.992,14.992,0,0,1,47,16Z" fill="#fcd770"/>
      </g>
      <g id="Grupo_1112425" data-name="Grupo 1112425">
        <circle id="Elipse_14881" data-name="Elipse 14881" cx="11" cy="11" r="11" transform="translate(36 20)" fill="#69d6f4"/>
      </g>
      <g id="Grupo_1112426" data-name="Grupo 1112426">
        <circle id="Elipse_14882" data-name="Elipse 14882" cx="2" cy="2" r="2" transform="translate(53 32)" fill="#ff826e"/>
      </g>
      <g id="Grupo_1112427" data-name="Grupo 1112427">
        <path id="Trazado_903675" data-name="Trazado 903675" d="M52.41,26.59a1.994,1.994,0,1,1-2.82,2.82l-2-2a1.994,1.994,0,1,1,2.82-2.82Z" fill="#ff826e"/>
      </g>
      <g id="Grupo_1112428" data-name="Grupo 1112428">
        <path id="Trazado_903676" data-name="Trazado 903676" d="M42.41,31.59a1.98,1.98,0,0,1,0,2.82l-2,2a1.994,1.994,0,1,1-2.82-2.82l2-2a1.98,1.98,0,0,1,2.82,0Z" fill="#ff826e"/>
      </g>
      <g id="Grupo_1112429" data-name="Grupo 1112429">
        <path id="Trazado_903677" data-name="Trazado 903677" d="M49.96,37.61l.75,3.75A11.121,11.121,0,0,1,47,42h-.24l-.72-3.61a2,2,0,0,1,1.57-2.35A1.666,1.666,0,0,1,48,36a2,2,0,0,1,1.96,1.61Z" fill="#ff826e"/>
      </g>
    </g>
    <g id="Grupo_1112431" data-name="Grupo 1112431">
      <circle id="Elipse_14883" data-name="Elipse 14883" cx="1" cy="1" r="1" transform="translate(16 16)"/>
      <circle id="Elipse_14884" data-name="Elipse 14884" cx="1" cy="1" r="1" transform="translate(22 16)"/>
      <path id="Trazado_903678" data-name="Trazado 903678" d="M23.789,20.658l.1-.211-1.789-.9-.1.212a2.236,2.236,0,0,1-4,0l-.1-.211-1.789.9.1.211a4.236,4.236,0,0,0,7.578,0Z"/>
      <path id="Trazado_903679" data-name="Trazado 903679" d="M47,19A12,12,0,1,0,59,31,12.013,12.013,0,0,0,47,19ZM38,35a.982.982,0,0,1,.293-.707l2-2a1,1,0,1,1,1.414,1.414l-2,2a1.014,1.014,0,0,1-1.414,0A.982.982,0,0,1,38,35Zm9.02,3.2a1,1,0,0,1,.791-1.178,1.029,1.029,0,0,1,1.171.786l.57,2.852a9.908,9.908,0,0,1-1.977.313Zm4.428,1.746-.506-2.529A3.005,3.005,0,0,0,48,35a2.962,2.962,0,0,0-.594.06,3,3,0,0,0-2.352,3.53l.458,2.288a9.971,9.971,0,0,1-5.747-2.989,2.977,2.977,0,0,0,1.352-.767l2-2a3,3,0,0,0,0-4.243,3.072,3.072,0,0,0-4.242,0l-1.736,1.736A9.886,9.886,0,0,1,37,31a10,10,0,0,1,20,0c0,.253-.019.5-.038.749A2.994,2.994,0,1,0,54.982,37a10.053,10.053,0,0,1-3.534,2.945ZM55,35a1,1,0,1,1,1-1A1,1,0,0,1,55,35Z"/>
      <path id="Trazado_903680" data-name="Trazado 903680" d="M63,31a16,16,0,0,0-31.919-1.6c-.028-.006-.055-.017-.083-.023l-6.181-1.236-.591-2.363A8.038,8.038,0,0,0,27.411,22H28a3.978,3.978,0,0,0,3.142-6.446l.536-2.142A10.807,10.807,0,0,0,32,10.794,9.806,9.806,0,0,0,22.206,1H19.4a9.842,9.842,0,0,0-7.835,3.918l-.259.345-.152.1a7.076,7.076,0,0,0-2.94,7.6l.646,2.587A3.978,3.978,0,0,0,12,22h.589a8.038,8.038,0,0,0,3.185,3.78l-.591,2.363L9,29.38a9.952,9.952,0,0,0-8,9.762V47H3V63H37V47h2V44.835a15.881,15.881,0,0,0,4,1.638V59a4,4,0,0,0,8,0V46.473A16.014,16.014,0,0,0,63,31Zm-37.422-.664L24.4,34.472,21.612,32.8l2.716-2.716ZM28,20h-.069A8.047,8.047,0,0,0,28,19V16a2,2,0,0,1,0,4ZM12,20a2,2,0,0,1,0-4v3a8.047,8.047,0,0,0,.069,1Zm.11-6H12a3.962,3.962,0,0,0-1.4.267l-.446-1.785A5.073,5.073,0,0,1,12.26,7.028l.437-.291.464-.62A7.834,7.834,0,0,1,19.4,3h2.809A7.8,7.8,0,0,1,30,10.794a8.77,8.77,0,0,1-.263,2.134L29.4,14.267A3.962,3.962,0,0,0,28,14v-.279a2.721,2.721,0,0,0-3.582-2.581l-.922.308A10.779,10.779,0,0,1,20.09,12a2.09,2.09,0,0,1-.936-3.959l.292-.146L18.554,6.1l-.293.146a4.066,4.066,0,0,0-2.225,3.113l-.718.359A5.958,5.958,0,0,0,12.11,14ZM14,19V15.09a3.976,3.976,0,0,1,2.211-3.577l.1-.048A4.1,4.1,0,0,0,20.09,14a12.791,12.791,0,0,0,4.039-.655l.917-.307a.728.728,0,0,1,.954.683V19a6,6,0,0,1-12,0Zm6,8a8,8,0,0,0,2.379-.361l.514,2.055L20,31.586l-2.892-2.892.514-2.055A7.983,7.983,0,0,0,20,27Zm-4.329,3.086L18.387,32.8,15.6,34.472l-1.182-4.136ZM5,47H9V61H5ZM35,61H31V47h4Zm2-16H31V43.236a8.5,8.5,0,0,1,.9-3.789l-1.789-.9A10.521,10.521,0,0,0,29,43.236V61H11V43.236a10.534,10.534,0,0,0-1.1-4.684l-1.789.9A8.518,8.518,0,0,1,9,43.236V45H3V39.142a7.954,7.954,0,0,1,6.395-7.8l3.059-.612,1.942,6.8L19,34.766V41h2V34.766l4.6,2.762,1.942-6.8,3.059.612c.141.028.278.078.418.115A15.968,15.968,0,0,0,37,43.471ZM49,59a2,2,0,0,1-4,0V46.861a14.458,14.458,0,0,0,4,0ZM47,45A14,14,0,1,1,61,31,14.015,14.015,0,0,1,47,45Z"/>
      <path id="Trazado_903681" data-name="Trazado 903681" d="M54,28a2.978,2.978,0,0,0-.879-2.121l-2-2a3.072,3.072,0,0,0-4.242,0,3,3,0,0,0,0,4.242l2,2A3,3,0,0,0,54,28Zm-2.293.707a1.014,1.014,0,0,1-1.414,0l-2-2a1,1,0,1,1,1.414-1.414l2,2a1,1,0,0,1,0,1.414Z"/>
      <path id="Trazado_903682" data-name="Trazado 903682" d="M41,26h2v2H41Z"/>
      <path id="Trazado_903683" data-name="Trazado 903683" d="M46,31h2v2H46Z"/>
    </g>
  </g>
</svg>
