<svg xmlns="http://www.w3.org/2000/svg" width="67.102" height="67.102" viewBox="0 0 67.102 67.102">
  <g id="Grupo_1112442" data-name="Grupo 1112442" transform="translate(-6.5 -6.5)">
    <g id="Grupo_1112439" data-name="Grupo 1112439" transform="translate(7.5 7.5)">
      <g id="Grupo_1112437" data-name="Grupo 1112437" transform="translate(0 0)">
        <path id="Trazado_903684" data-name="Trazado 903684" d="M368.642,178.643l0-.1c0-.046,0-.093,0-.139a24.721,24.721,0,0,0-2.927-11.7.384.384,0,0,0-.017.038l-1.369,3.85a.393.393,0,0,1-.539.223l-3.69-1.754a.393.393,0,0,0-.524.524l1.754,3.69a.393.393,0,0,1-.223.539l-3.85,1.369a.393.393,0,0,0,0,.74l3.85,1.369a.393.393,0,0,1,.223.539l-.447.939h7.753Z" transform="translate(-311.219 -145.852)" fill="#ffe177"/>
        <path id="Trazado_903685" data-name="Trazado 903685" d="M411.7,166.706a.387.387,0,0,0-.017.038l-1.369,3.85a.392.392,0,0,1-.4.258,32.676,32.676,0,0,1,.364,4.865c0,1.03-.05,2.049-.144,3.055h4.49v-.13l0-.1c0-.046,0-.093,0-.139A24.721,24.721,0,0,0,411.7,166.706Z" transform="translate(-357.203 -145.852)" fill="#ffd15b"/>
        <g id="Grupo_1112436" data-name="Grupo 1112436">
          <g id="Grupo_1112433" data-name="Grupo 1112433" transform="translate(16.5 26.263)">
            <path id="Trazado_903686" data-name="Trazado 903686" d="M137.705,208h-3.325a2.463,2.463,0,0,0-.876.131l-.044.028v24.959q.315.268.638.526h8.574a6.9,6.9,0,0,0,4.7-1.843l3.187-2.957a1.973,1.973,0,0,1,1.342-.527h6.126Z" transform="translate(-133.461 -208)" fill="#ffb09e"/>
          </g>
          <path id="Trazado_903687" data-name="Trazado 903687" d="M158.9,341.118h-5.992a1.973,1.973,0,0,0-1.342.527l-3.187,2.957a6.9,6.9,0,0,1-4.7,1.843h-3.7c0,.036.006.072.006.109h0a2.773,2.773,0,0,1-2.206,2.714l.071.058h8.574a6.9,6.9,0,0,0,4.7-1.843l3.187-2.957A1.973,1.973,0,0,1,155.66,344h6.126Z" transform="translate(-120.723 -297.418)" fill="#f89580"/>
          <path id="Trazado_903688" data-name="Trazado 903688" d="M298.547,257.824,313.028,272.3l.09-.124a24.685,24.685,0,0,0,4.729-14.357Z" transform="translate(-260.423 -225.034)" fill="#ffb09e"/>
          <g id="Grupo_1112434" data-name="Grupo 1112434" transform="translate(49.674 32.79)">
            <path id="Trazado_903689" data-name="Trazado 903689" d="M389.994,257.824a32.3,32.3,0,0,1-3.269,11.55l2.93,2.93.09-.124a24.685,24.685,0,0,0,4.729-14.357Z" transform="translate(-386.725 -257.824)" fill="#f89580"/>
          </g>
          <path id="Trazado_903690" data-name="Trazado 903690" d="M208.833,111.277a.393.393,0,0,1-.223.539l-2,.711,7.988,7.988.711-2a.393.393,0,0,1,.539-.223l3.69,1.754a.393.393,0,0,0,.524-.524l-1.754-3.69a.393.393,0,0,1,.223-.539l3.85-1.369a.393.393,0,0,0,0-.74l-3.85-1.369a.393.393,0,0,1-.223-.539l1.754-3.69a.393.393,0,0,0-.524-.524l-3.69,1.754a.393.393,0,0,1-.539-.223l-1.369-3.85a.393.393,0,0,0-.74,0l-1.369,3.85a.393.393,0,0,1-.539.223l-3.69-1.754a.393.393,0,0,0-.524.524Z" transform="translate(-180.531 -91.779)" fill="#ffe177"/>
          <path id="Trazado_903691" data-name="Trazado 903691" d="M257.125,130.038l-3.85-1.369a.393.393,0,0,1-.223-.539l1.754-3.69a.393.393,0,0,0-.524-.524l-3.2,1.523a8.508,8.508,0,0,1-4.486,9.177l2.751,2.751.711-2a.393.393,0,0,1,.539-.223l3.69,1.754a.393.393,0,0,0,.524-.524l-1.754-3.69a.393.393,0,0,1,.223-.539l3.85-1.369A.393.393,0,0,0,257.125,130.038Z" transform="translate(-215.274 -108.633)" fill="#ffd15b"/>
          <path id="Trazado_903692" data-name="Trazado 903692" d="M40.051,7.5A32.551,32.551,0,1,0,72.6,40.051,32.588,32.588,0,0,0,40.051,7.5ZM15.306,40.051a24.631,24.631,0,0,1,4.707-14.518L54.569,60.089A24.745,24.745,0,0,1,15.306,40.051ZM60.089,54.569,25.532,20.013A24.745,24.745,0,0,1,60.089,54.569Z" transform="translate(-7.5 -7.5)" fill="#fe5ca7"/>
          <g id="Grupo_1112435" data-name="Grupo 1112435" transform="translate(10.223 5.941)">
            <path id="Trazado_903693" data-name="Trazado 903693" d="M126.6,52.852a32.535,32.535,0,0,1-41.054,50.273A32.537,32.537,0,1,0,126.6,52.852Z" transform="translate(-85.543 -52.852)" fill="#e759aa"/>
          </g>
        </g>
      </g>
      <g id="Grupo_1112438" data-name="Grupo 1112438" transform="translate(5.829 25.624)">
        <path id="Trazado_903694" data-name="Trazado 903694" d="M76.836,364.083a2.824,2.824,0,0,1,2.848-2.639h4.567a2.773,2.773,0,0,1,2.773,2.773h0a2.773,2.773,0,0,1-2.773,2.773H79.606A2.773,2.773,0,0,1,76.836,364.083Z" transform="translate(-73.58 -340.706)" fill="#ffdfcf"/>
        <path id="Trazado_903695" data-name="Trazado 903695" d="M84.3,361.46c0,.016,0,.032,0,.049h0a2.773,2.773,0,0,1-2.773,2.773H76.841A2.772,2.772,0,0,0,79.613,367h4.645a2.773,2.773,0,0,0,2.773-2.773h0A2.772,2.772,0,0,0,84.3,361.46Z" transform="translate(-73.587 -340.719)" fill="#ffcebf"/>
        <path id="Trazado_903696" data-name="Trazado 903696" d="M62.833,321.883h0a2.773,2.773,0,0,1,2.773-2.773h6.479a2.773,2.773,0,0,1,2.773,2.773h0a2.773,2.773,0,0,1-2.773,2.773H65.606A2.773,2.773,0,0,1,62.833,321.883Z" transform="translate(-61.414 -303.917)" fill="#ffdfcf"/>
        <path id="Trazado_903697" data-name="Trazado 903697" d="M72.154,319.125c0,.031,0,.061,0,.093h0a2.773,2.773,0,0,1-2.773,2.773H62.907l-.039,0a2.771,2.771,0,0,0,2.768,2.68h6.479a2.772,2.772,0,0,0,.039-5.543Z" transform="translate(-61.444 -303.93)" fill="#ffcebf"/>
        <path id="Trazado_903698" data-name="Trazado 903698" d="M52,279.548h0a2.773,2.773,0,0,1,2.773-2.773h7.9a2.773,2.773,0,0,1,2.773,2.773h0a2.773,2.773,0,0,1-2.773,2.773h-7.9A2.773,2.773,0,0,1,52,279.548Z" transform="translate(-52 -267.127)" fill="#ffdfcf"/>
        <path id="Trazado_903699" data-name="Trazado 903699" d="M62.707,276.782c0,.017,0,.033,0,.05h0a2.773,2.773,0,0,1-2.773,2.773H52.019a2.771,2.771,0,0,0,2.77,2.722h7.9a2.773,2.773,0,0,0,2.773-2.773h0A2.772,2.772,0,0,0,62.707,276.782Z" transform="translate(-52.016 -267.133)" fill="#ffcebf"/>
        <path id="Trazado_903700" data-name="Trazado 903700" d="M54.773,239.985A2.773,2.773,0,0,1,52,237.079a2.824,2.824,0,0,1,2.848-2.639h7.82a2.773,2.773,0,0,1,2.773,2.773h0a2.773,2.773,0,0,1-2.773,2.773h-7.9Z" transform="translate(-52 -230.338)" fill="#ffdfcf"/>
        <path id="Trazado_903701" data-name="Trazado 903701" d="M62.7,234.448c0,.017,0,.033,0,.05h0a2.773,2.773,0,0,1-2.773,2.773H52.009a2.772,2.772,0,0,0,2.771,2.722h7.9a2.772,2.772,0,0,0,.02-5.544Z" transform="translate(-52.008 -230.345)" fill="#ffcebf"/>
        <path id="Trazado_903702" data-name="Trazado 903702" d="M133.111,213.775a5.068,5.068,0,0,1-4.251-2.309l-1.094-1.685a.393.393,0,0,0-.723.214v2.011a3.545,3.545,0,0,1-3.545,3.545h-.344a1.657,1.657,0,0,1-1.657-1.657v-8.284a2.487,2.487,0,0,1,2.487-2.487h2.686l11.717,11.717" transform="translate(-112.394 -203.122)" fill="#ffb09e"/>
      </g>
    </g>
    <g id="Grupo_1112441" data-name="Grupo 1112441" transform="translate(7.5 7.5)">
      <path id="Trazado_903703" data-name="Trazado 903703" d="M360.948,179.656h7.563c0-.08,0-.159,0-.239a24.634,24.634,0,0,0-2.854-11.544l-1.328,3.734a.393.393,0,0,1-.539.223l-3.69-1.754a.393.393,0,0,0-.524.524l1.754,3.69a.393.393,0,0,1-.223.539l-3.85,1.369a.393.393,0,0,0,0,.74l3.85,1.369a.393.393,0,0,1,.223.539Z" transform="translate(-311.218 -146.867)" fill="none" stroke="#000" stroke-linecap="round" stroke-linejoin="round" stroke-miterlimit="10" stroke-width="2"/>
      <path id="Trazado_903704" data-name="Trazado 903704" d="M137.791,368.385l.071.058h8.574a6.9,6.9,0,0,0,4.7-1.843l3.187-2.957a1.973,1.973,0,0,1,1.342-.527h6.126" transform="translate(-120.724 -316.535)" fill="none" stroke="#000" stroke-linecap="round" stroke-linejoin="round" stroke-miterlimit="10" stroke-width="2"/>
      <line id="Línea_632" data-name="Línea 632" x1="11.512" transform="translate(45.781 32.79)" fill="none" stroke="#000" stroke-linecap="round" stroke-linejoin="round" stroke-miterlimit="10" stroke-width="2"/>
      <line id="Línea_633" data-name="Línea 633" x1="2.887" transform="translate(38.309 32.79)" fill="none" stroke="#000" stroke-linecap="round" stroke-linejoin="round" stroke-miterlimit="10" stroke-width="2"/>
      <path id="Trazado_903705" data-name="Trazado 903705" d="M216.756,118.291l3.69,1.754a.393.393,0,0,0,.524-.524l-1.754-3.69a.393.393,0,0,1,.223-.539l3.85-1.369a.393.393,0,0,0,0-.74l-3.85-1.369a.393.393,0,0,1-.223-.539l1.754-3.69a.393.393,0,0,0-.524-.524l-3.69,1.754a.393.393,0,0,1-.539-.223l-1.369-3.85a.393.393,0,0,0-.74,0l-1.369,3.85a.393.393,0,0,1-.539.223l-3.69-1.754a.393.393,0,0,0-.524.524l1.754,3.69a.393.393,0,0,1-.223.539l-1.861.662,7.9,7.9.662-1.861A.393.393,0,0,1,216.756,118.291Z" transform="translate(-181.437 -91.778)" fill="none" stroke="#000" stroke-linecap="round" stroke-linejoin="round" stroke-miterlimit="10" stroke-width="2"/>
      <g id="Grupo_1112440" data-name="Grupo 1112440" transform="translate(0 0)">
        <path id="Trazado_903706" data-name="Trazado 903706" d="M52.844,10.121a32.624,32.624,0,1,0,4.08,2.1m-41.468,25.1a24.614,24.614,0,0,1,4.557-11.789l1.347,1.347M24.6,30.121,54.569,60.089a24.743,24.743,0,0,1-30-.739m35.523-4.781L25.532,20.013A24.745,24.745,0,0,1,60.089,54.569Z" transform="translate(-7.5 -7.5)" fill="none" stroke="#000" stroke-linecap="round" stroke-linejoin="round" stroke-miterlimit="10" stroke-width="2"/>
      </g>
      <path id="Trazado_903707" data-name="Trazado 903707" d="M76.836,364.083a2.824,2.824,0,0,1,2.848-2.639h4.567a2.773,2.773,0,0,1,2.773,2.773h0a2.773,2.773,0,0,1-2.773,2.773H79.606A2.773,2.773,0,0,1,76.836,364.083Z" transform="translate(-67.751 -315.081)" fill="none" stroke="#000" stroke-linecap="round" stroke-linejoin="round" stroke-miterlimit="10" stroke-width="2"/>
      <path id="Trazado_903708" data-name="Trazado 903708" d="M62.833,321.883h0a2.773,2.773,0,0,1,2.773-2.773h6.479a2.773,2.773,0,0,1,2.773,2.773h0a2.773,2.773,0,0,1-2.773,2.773H65.606A2.773,2.773,0,0,1,62.833,321.883Z" transform="translate(-55.585 -278.293)" fill="none" stroke="#000" stroke-linecap="round" stroke-linejoin="round" stroke-miterlimit="10" stroke-width="2"/>
      <path id="Trazado_903709" data-name="Trazado 903709" d="M63.1,279.555H62.76A1.657,1.657,0,0,1,61.1,277.9v-1.123H54.773a2.773,2.773,0,0,0,0,5.545h7.9a2.773,2.773,0,0,0,2.773-2.773h0a2.768,2.768,0,0,0-.113-.779A3.528,3.528,0,0,1,63.1,279.555Z" transform="translate(-46.171 -241.503)" fill="none" stroke="#000" stroke-linecap="round" stroke-linejoin="round" stroke-miterlimit="10" stroke-width="2"/>
      <path id="Trazado_903710" data-name="Trazado 903710" d="M61.1,234.44H54.851A2.824,2.824,0,0,0,52,237.079a2.773,2.773,0,0,0,2.77,2.907H61.1Z" transform="translate(-46.171 -204.713)" fill="none" stroke="#000" stroke-linecap="round" stroke-linejoin="round" stroke-miterlimit="10" stroke-width="2"/>
      <path id="Trazado_903711" data-name="Trazado 903711" d="M133.111,213.775a5.068,5.068,0,0,1-4.251-2.309l-1.094-1.685a.393.393,0,0,0-.723.214v2.011a3.545,3.545,0,0,1-3.545,3.545h-.344a1.657,1.657,0,0,1-1.657-1.657v-8.284a2.487,2.487,0,0,1,2.487-2.487h2.686l11.717,11.717" transform="translate(-106.565 -177.498)" fill="none" stroke="#000" stroke-linecap="round" stroke-linejoin="round" stroke-miterlimit="10" stroke-width="2"/>
    </g>
  </g>
</svg>
