<svg xmlns="http://www.w3.org/2000/svg" width="80.999" height="76.028" viewBox="0 0 80.999 76.028">
  <g id="Layer_71" transform="translate(21.595)">
    <g id="Grupo_1112397" data-name="Grupo 1112397" transform="translate(-21.595)">
      <g id="Grupo_1112329" data-name="Grupo 1112329" transform="translate(0 28.052)">
        <g id="Grupo_1112328" data-name="Grupo 1112328">
          <circle id="Elipse_14870" data-name="Elipse 14870" cx="16.965" cy="16.965" r="16.965" transform="translate(0 23.988) rotate(-45)" fill="#fcdd86"/>
        </g>
      </g>
      <g id="Grupo_1112331" data-name="Grupo 1112331" transform="translate(26.685 0.729)">
        <g id="Grupo_1112330" data-name="Grupo 1112330" transform="translate(0)">
          <circle id="Elipse_14871" data-name="Elipse 14871" cx="16.965" cy="16.965" r="16.965" fill="#9be5f9"/>
        </g>
      </g>
      <g id="Grupo_1112333" data-name="Grupo 1112333" transform="translate(46.34 35.079)">
        <g id="Grupo_1112332" data-name="Grupo 1112332" transform="translate(0)">
          <circle id="Elipse_14872" data-name="Elipse 14872" cx="16.965" cy="16.965" r="16.965" fill="#b598f9"/>
        </g>
      </g>
      <g id="Grupo_1112335" data-name="Grupo 1112335" transform="translate(33.107 10.403)">
        <g id="Grupo_1112334" data-name="Grupo 1112334">
          <path id="Trazado_903580" data-name="Trazado 903580" d="M111.078,36.97a5.616,5.616,0,0,0-7.633.383l-.621.621a.586.586,0,0,1-.829,0l-.621-.621a5.617,5.617,0,0,0-7.633-.383,5.492,5.492,0,0,0-.267,8.017l7.623,7.623a1.856,1.856,0,0,0,2.625,0l7.623-7.623A5.493,5.493,0,0,0,111.078,36.97Z" transform="translate(-91.867 -35.652)" fill="#fc657e"/>
        </g>
      </g>
      <g id="Grupo_1112337" data-name="Grupo 1112337" transform="translate(15.271 47.372)">
        <g id="Grupo_1112336" data-name="Grupo 1112336" transform="translate(0)">
          <path id="Trazado_903581" data-name="Trazado 903581" d="M42.458,162.351a3.489,3.489,0,0,0-1.419.3,4.39,4.39,0,0,1-3.536,0,3.487,3.487,0,0,0-1.419-.3,5.3,5.3,0,0,0-4.908,7.375l2.724,6.5a2.863,2.863,0,0,0,4.3,1.735,2.052,2.052,0,0,1,2.146,0,2.863,2.863,0,0,0,4.3-1.735l2.724-6.5a5.3,5.3,0,0,0-4.908-7.375Z" transform="translate(-30.742 -162.351)" fill="#fc657e"/>
        </g>
      </g>
      <g id="Grupo_1112339" data-name="Grupo 1112339" transform="translate(23.441 40.341)">
        <g id="Grupo_1112338" data-name="Grupo 1112338" transform="translate(0)">
          <path id="Trazado_903582" data-name="Trazado 903582" d="M63.662,138.526a3.556,3.556,0,0,0-4.921,3.3.753.753,0,0,0,.462.689,3.556,3.556,0,0,0,4.921-3.3A.753.753,0,0,0,63.662,138.526Z" transform="translate(-58.741 -138.254)" fill="#b2e26d"/>
        </g>
      </g>
      <g id="Grupo_1112341" data-name="Grupo 1112341" transform="translate(54.447 45.102)">
        <g id="Grupo_1112340" data-name="Grupo 1112340">
          <path id="Trazado_903583" data-name="Trazado 903583" d="M166.708,154.571A1.706,1.706,0,0,0,165,156.277v10.471a1.706,1.706,0,0,0,3.412,0V156.277A1.706,1.706,0,0,0,166.708,154.571Z" transform="translate(-165.002 -154.571)" fill="#818182"/>
        </g>
      </g>
      <g id="Grupo_1112343" data-name="Grupo 1112343" transform="translate(51.035 46.48)">
        <g id="Grupo_1112342" data-name="Grupo 1112342">
          <path id="Trazado_903584" data-name="Trazado 903584" d="M155.014,159.293A1.706,1.706,0,0,0,153.308,161v7.715a1.706,1.706,0,1,0,3.412,0V161A1.706,1.706,0,0,0,155.014,159.293Z" transform="translate(-153.308 -159.293)" fill="#818182"/>
        </g>
      </g>
      <g id="Grupo_1112345" data-name="Grupo 1112345" transform="translate(68.751 45.102)">
        <g id="Grupo_1112344" data-name="Grupo 1112344">
          <path id="Trazado_903585" data-name="Trazado 903585" d="M215.73,154.571a1.706,1.706,0,0,0-1.706,1.706v10.471a1.706,1.706,0,0,0,3.412,0V156.277A1.706,1.706,0,0,0,215.73,154.571Z" transform="translate(-214.024 -154.571)" fill="#818182"/>
        </g>
      </g>
      <g id="Grupo_1112347" data-name="Grupo 1112347" transform="translate(72.163 46.48)">
        <g id="Grupo_1112346" data-name="Grupo 1112346">
          <path id="Trazado_903586" data-name="Trazado 903586" d="M227.423,159.293A1.706,1.706,0,0,0,225.717,161v7.715a1.706,1.706,0,0,0,3.412,0V161A1.706,1.706,0,0,0,227.423,159.293Z" transform="translate(-225.717 -159.293)" fill="#818182"/>
        </g>
      </g>
      <g id="Grupo_1112349" data-name="Grupo 1112349" transform="translate(57.859 50.337)">
        <g id="Grupo_1112348" data-name="Grupo 1112348">
          <path id="Trazado_903587" data-name="Trazado 903587" d="M176.7,172.513h10.892v3.412H176.7Z" transform="translate(-176.696 -172.513)" fill="#edf4fc"/>
        </g>
      </g>
      <g id="Grupo_1112351" data-name="Grupo 1112351" transform="translate(65.312 21.6)">
        <g id="Grupo_1112350" data-name="Grupo 1112350">
          <path id="Trazado_903588" data-name="Trazado 903588" d="M205.966,75.827a2.275,2.275,0,0,1-1.809-1.78c0-.029-.088-.029-.088,0a2.275,2.275,0,0,1-1.809,1.78c-.029,0-.029.058,0,.088a2.275,2.275,0,0,1,1.809,1.78c0,.029.088.029.088,0a2.275,2.275,0,0,1,1.809-1.78C205.995,75.885,205.995,75.827,205.966,75.827Z" transform="translate(-202.238 -74.025)" fill="#fc657e"/>
        </g>
      </g>
      <g id="Grupo_1112353" data-name="Grupo 1112353" transform="translate(18.792 3.677)">
        <g id="Grupo_1112352" data-name="Grupo 1112352">
          <path id="Trazado_903589" data-name="Trazado 903589" d="M46.982,14.2h-.7v-.671a.922.922,0,0,0-.934-.934.935.935,0,0,0-.934.9v.7h-.671a.922.922,0,0,0-.934.934.9.9,0,0,0,.934.934h.671v.671a.922.922,0,0,0,.934.934.935.935,0,0,0,.934-.9v-.7h.671a.922.922,0,0,0,.934-.934A.935.935,0,0,0,46.982,14.2Z" transform="translate(-42.808 -12.6)" fill="#70d6f9"/>
        </g>
      </g>
      <g id="Grupo_1112355" data-name="Grupo 1112355" transform="translate(53.283 72.714)">
        <g id="Grupo_1112354" data-name="Grupo 1112354">
          <circle id="Elipse_14873" data-name="Elipse 14873" cx="0.992" cy="0.992" r="0.992" fill="#87d147"/>
        </g>
      </g>
      <g id="Grupo_1112357" data-name="Grupo 1112357" transform="translate(28.773)">
        <g id="Grupo_1112356" data-name="Grupo 1112356">
          <path id="Trazado_903590" data-name="Trazado 903590" d="M78.005,0A.992.992,0,1,0,79,.992.992.992,0,0,0,78.005,0Z" transform="translate(-77.013)" fill="#f5c84c"/>
        </g>
      </g>
      <g id="Grupo_1112359" data-name="Grupo 1112359" transform="translate(43.552 66.046)">
        <g id="Grupo_1112358" data-name="Grupo 1112358">
          <path id="Trazado_903591" data-name="Trazado 903591" d="M133.017,228.932a3.238,3.238,0,0,1-2.6-2.539c0-.058-.117-.058-.117,0a3.238,3.238,0,0,1-2.6,2.539c-.058,0-.058.088,0,.117a3.238,3.238,0,0,1,2.6,2.539c0,.058.117.058.117,0a3.238,3.238,0,0,1,2.6-2.539C133.076,229.02,133.076,228.932,133.017,228.932Z" transform="translate(-127.663 -226.35)" fill="#f5c84c"/>
        </g>
      </g>
      <g id="Grupo_1112362" data-name="Grupo 1112362" transform="translate(6.301 34.349)">
        <g id="Grupo_1112361" data-name="Grupo 1112361">
          <g id="Grupo_1112360" data-name="Grupo 1112360">
            <path id="Trazado_903592" data-name="Trazado 903592" d="M17.694,117.72a17.694,17.694,0,1,0,17.694,17.694A17.714,17.714,0,0,0,17.694,117.72Zm0,33.929a16.235,16.235,0,1,1,16.235-16.235A16.254,16.254,0,0,1,17.694,151.649Z" transform="translate(0 -117.72)"/>
          </g>
        </g>
      </g>
      <g id="Grupo_1112365" data-name="Grupo 1112365" transform="translate(25.956)">
        <g id="Grupo_1112364" data-name="Grupo 1112364">
          <g id="Grupo_1112363" data-name="Grupo 1112363">
            <path id="Trazado_903593" data-name="Trazado 903593" d="M85.054,0a17.694,17.694,0,1,0,17.694,17.694A17.714,17.714,0,0,0,85.054,0Zm0,33.929a16.235,16.235,0,1,1,16.235-16.235A16.253,16.253,0,0,1,85.054,33.929Z" transform="translate(-67.36)"/>
          </g>
        </g>
      </g>
      <g id="Grupo_1112367" data-name="Grupo 1112367" transform="translate(31.395 14.734)">
        <g id="Grupo_1112366" data-name="Grupo 1112366">
          <path id="Trazado_903594" data-name="Trazado 903594" d="M109.781,54.288h-9.629a.73.73,0,0,0-.626.354l-.987,1.645-2.085-5.329a.729.729,0,0,0-1.3-.116l-2.121,3.446h-6.3a.729.729,0,0,0,0,1.459h6.711a.729.729,0,0,0,.621-.347l1.567-2.547L97.722,58.2a.729.729,0,0,0,.618.461l.061,0a.729.729,0,0,0,.625-.354l1.538-2.564h9.216a.729.729,0,1,0,0-1.459Z" transform="translate(-86 -50.495)"/>
        </g>
      </g>
      <g id="Grupo_1112369" data-name="Grupo 1112369" transform="translate(20.347 42.165)">
        <g id="Grupo_1112368" data-name="Grupo 1112368">
          <path id="Trazado_903595" data-name="Trazado 903595" d="M49.253,144.615a.729.729,0,0,0-.775,1.236A5.284,5.284,0,0,1,50.8,149.9a.729.729,0,0,0,1.459,0A6.672,6.672,0,0,0,49.253,144.615Z" transform="translate(-48.138 -144.504)"/>
        </g>
      </g>
      <g id="Grupo_1112372" data-name="Grupo 1112372" transform="translate(45.611 34.349)">
        <g id="Grupo_1112371" data-name="Grupo 1112371">
          <g id="Grupo_1112370" data-name="Grupo 1112370">
            <path id="Trazado_903596" data-name="Trazado 903596" d="M152.413,117.72a17.694,17.694,0,1,0,17.694,17.694A17.714,17.714,0,0,0,152.413,117.72Zm0,33.929a16.235,16.235,0,1,1,16.235-16.235A16.254,16.254,0,0,1,152.413,151.649Z" transform="translate(-134.719 -117.72)"/>
          </g>
        </g>
      </g>
      <g id="Grupo_1112375" data-name="Grupo 1112375" transform="translate(32.377 9.669)">
        <g id="Grupo_1112374" data-name="Grupo 1112374">
          <g id="Grupo_1112373" data-name="Grupo 1112373">
            <path id="Trazado_903597" data-name="Trazado 903597" d="M111.909,39.12a6.172,6.172,0,0,0-2.12-4.479,6.332,6.332,0,0,0-8.63.415l-.52.52-.52-.52a6.331,6.331,0,0,0-8.63-.415,6.171,6.171,0,0,0-2.12,4.479,6.246,6.246,0,0,0,1.819,4.6l7.623,7.623a2.588,2.588,0,0,0,3.657,0l7.623-7.623A6.247,6.247,0,0,0,111.909,39.12Zm-2.851,3.569-7.623,7.623a1.154,1.154,0,0,1-1.593,0L92.22,42.69a4.763,4.763,0,0,1,.233-6.953A4.627,4.627,0,0,1,95.523,34.6a5.051,5.051,0,0,1,3.564,1.492l.621.621a1.316,1.316,0,0,0,1.861,0l.621-.621a4.871,4.871,0,0,1,6.636-.351,4.763,4.763,0,0,1,.233,6.953Z" transform="translate(-89.366 -33.138)"/>
          </g>
        </g>
      </g>
      <g id="Grupo_1112378" data-name="Grupo 1112378" transform="translate(14.541 46.643)">
        <g id="Grupo_1112377" data-name="Grupo 1112377" transform="translate(0)">
          <g id="Grupo_1112376" data-name="Grupo 1112376">
            <path id="Trazado_903598" data-name="Trazado 903598" d="M45.758,162.574a6.08,6.08,0,0,0-5.073-2.722,4.2,4.2,0,0,0-1.715.362,3.679,3.679,0,0,1-2.944,0,4.2,4.2,0,0,0-1.715-.362,6.081,6.081,0,0,0-5.073,2.722,5.929,5.929,0,0,0-.508,5.664l2.707,6.457a3.591,3.591,0,0,0,5.372,2.113,1.319,1.319,0,0,1,1.378,0,3.654,3.654,0,0,0,1.86.546h.06a3.638,3.638,0,0,0,3.452-2.659l2.707-6.457a5.93,5.93,0,0,0-.509-5.664Zm-.837,5.1-2.724,6.5a.743.743,0,0,0-.03.085,2.134,2.134,0,0,1-3.212,1.311,2.788,2.788,0,0,0-2.914,0,2.194,2.194,0,0,1-1.118.327,2.166,2.166,0,0,1-2.095-1.639.741.741,0,0,0-.03-.085l-2.724-6.5a4.493,4.493,0,0,1,.378-4.292,4.625,4.625,0,0,1,3.858-2.071,2.741,2.741,0,0,1,1.123.237,5.1,5.1,0,0,0,4.128,0,2.746,2.746,0,0,1,1.123-.237,4.625,4.625,0,0,1,3.858,2.071A4.492,4.492,0,0,1,44.921,167.674Z" transform="translate(-28.239 -159.852)"/>
          </g>
        </g>
      </g>
      <g id="Grupo_1112381" data-name="Grupo 1112381" transform="translate(22.711 39.611)">
        <g id="Grupo_1112380" data-name="Grupo 1112380">
          <g id="Grupo_1112379" data-name="Grupo 1112379">
            <path id="Trazado_903599" data-name="Trazado 903599" d="M62.169,136.081a4.285,4.285,0,0,0-5.929,3.978,1.473,1.473,0,0,0,.913,1.36,4.285,4.285,0,0,0,5.929-3.978h0A1.472,1.472,0,0,0,62.169,136.081Zm-1.8,3.728a2.8,2.8,0,0,1-2.673.245,2.827,2.827,0,0,1,3.913-2.625.026.026,0,0,1,.011.017A2.828,2.828,0,0,1,60.372,139.809Z" transform="translate(-56.24 -135.753)"/>
          </g>
        </g>
      </g>
      <g id="Grupo_1112384" data-name="Grupo 1112384" transform="translate(53.717 44.372)">
        <g id="Grupo_1112383" data-name="Grupo 1112383">
          <g id="Grupo_1112382" data-name="Grupo 1112382">
            <path id="Trazado_903600" data-name="Trazado 903600" d="M164.938,152.07a2.438,2.438,0,0,0-2.436,2.436v10.471a2.436,2.436,0,0,0,4.871,0V154.506A2.438,2.438,0,0,0,164.938,152.07Zm.977,12.906a.977.977,0,0,1-1.953,0V154.506a.977.977,0,0,1,1.953,0Z" transform="translate(-162.502 -152.07)"/>
          </g>
        </g>
      </g>
      <g id="Grupo_1112387" data-name="Grupo 1112387" transform="translate(50.305 45.75)">
        <g id="Grupo_1112386" data-name="Grupo 1112386">
          <g id="Grupo_1112385" data-name="Grupo 1112385">
            <path id="Trazado_903601" data-name="Trazado 903601" d="M153.244,156.793a2.438,2.438,0,0,0-2.436,2.436v7.715a2.436,2.436,0,1,0,4.871,0v-7.715A2.438,2.438,0,0,0,153.244,156.793Zm.977,10.15a.977.977,0,0,1-1.953,0v-7.715a.977.977,0,0,1,1.953,0Z" transform="translate(-150.808 -156.793)"/>
          </g>
        </g>
      </g>
      <g id="Grupo_1112390" data-name="Grupo 1112390" transform="translate(68.021 44.372)">
        <g id="Grupo_1112389" data-name="Grupo 1112389">
          <g id="Grupo_1112388" data-name="Grupo 1112388">
            <path id="Trazado_903602" data-name="Trazado 903602" d="M213.96,152.07a2.438,2.438,0,0,0-2.436,2.436v10.471a2.436,2.436,0,0,0,4.871,0V154.506A2.439,2.439,0,0,0,213.96,152.07Zm.976,12.906a.977.977,0,0,1-1.953,0V154.506a.977.977,0,0,1,1.953,0Z" transform="translate(-211.524 -152.07)"/>
          </g>
        </g>
      </g>
      <g id="Grupo_1112393" data-name="Grupo 1112393" transform="translate(71.433 45.75)">
        <g id="Grupo_1112392" data-name="Grupo 1112392">
          <g id="Grupo_1112391" data-name="Grupo 1112391">
            <path id="Trazado_903603" data-name="Trazado 903603" d="M225.653,156.793a2.438,2.438,0,0,0-2.436,2.436v7.715a2.436,2.436,0,1,0,4.871,0v-7.715A2.438,2.438,0,0,0,225.653,156.793Zm.977,10.15a.977.977,0,1,1-1.953,0v-7.715a.977.977,0,0,1,1.953,0Z" transform="translate(-223.217 -156.793)"/>
          </g>
        </g>
      </g>
      <g id="Grupo_1112396" data-name="Grupo 1112396" transform="translate(57.129 49.608)">
        <g id="Grupo_1112395" data-name="Grupo 1112395">
          <g id="Grupo_1112394" data-name="Grupo 1112394">
            <path id="Trazado_903604" data-name="Trazado 903604" d="M185.817,170.013H174.925a.729.729,0,0,0-.729.729v3.412a.729.729,0,0,0,.729.729h10.892a.729.729,0,0,0,.729-.729v-3.412A.729.729,0,0,0,185.817,170.013Zm-.729,3.412h-9.433v-1.953h9.433Z" transform="translate(-174.196 -170.013)"/>
          </g>
        </g>
      </g>
    </g>
  </g>
</svg>
